<svg width="46" height="14" viewBox="0 0 46 14" fill="none" xmlns="http://www.w3.org/2000/svg">
<path d="M1.638 5H1.362C1.322 5 1.296 4.976 1.284 4.928L0.168 1.214C0.152 1.166 0.17 1.142 0.222 1.142H0.408C0.448 1.142 0.474 1.166 0.486 1.214L1.488 4.628H1.512L2.514 1.214C2.526 1.166 2.552 1.142 2.592 1.142H2.778C2.826 1.142 2.844 1.166 2.832 1.214L1.716 4.928C1.704 4.976 1.678 5 1.638 5ZM5.484 5H4.23C3.97 5 3.764 4.924 3.612 4.772C3.464 4.62 3.39 4.412 3.39 4.148V2.792C3.39 2.528 3.464 2.32 3.612 2.168C3.764 2.016 3.97 1.94 4.23 1.94H4.746C5.006 1.94 5.212 2.016 5.364 2.168C5.516 2.32 5.592 2.528 5.592 2.792V3.554C5.592 3.602 5.568 3.626 5.52 3.626H3.744C3.708 3.626 3.69 3.644 3.69 3.68V4.142C3.69 4.33 3.738 4.476 3.834 4.58C3.93 4.68 4.07 4.73 4.254 4.73H5.484C5.528 4.73 5.55 4.752 5.55 4.796V4.934C5.55 4.978 5.528 5 5.484 5ZM3.744 3.386H5.238C5.274 3.386 5.292 3.368 5.292 3.332V2.798C5.292 2.61 5.244 2.466 5.148 2.366C5.052 2.262 4.912 2.21 4.728 2.21H4.254C4.07 2.21 3.93 2.262 3.834 2.366C3.738 2.466 3.69 2.61 3.69 2.798V3.332C3.69 3.368 3.708 3.386 3.744 3.386ZM6.63713 5H6.46313C6.42313 5 6.40313 4.976 6.40313 4.928V2.012C6.40313 1.964 6.42313 1.94 6.46313 1.94H6.63713C6.68113 1.94 6.70312 1.964 6.70312 2.012V2.264H6.72713C6.77113 2.18 6.84913 2.106 6.96113 2.042C7.07313 1.974 7.21113 1.94 7.37513 1.94H7.60913C7.65313 1.94 7.67513 1.962 7.67513 2.006V2.15C7.67513 2.194 7.65313 2.214 7.60913 2.21H7.32713C7.13113 2.21 6.97713 2.27 6.86513 2.39C6.75713 2.51 6.70312 2.672 6.70312 2.876V4.928C6.70312 4.976 6.68113 5 6.63713 5ZM9.27398 5H8.22998C8.18598 5 8.16398 4.978 8.16398 4.934V4.796C8.16398 4.756 8.18598 4.736 8.22998 4.736H9.24398C9.60398 4.736 9.78398 4.596 9.78398 4.316V4.172C9.78398 3.912 9.67198 3.742 9.44798 3.662L8.69798 3.374C8.49398 3.294 8.34798 3.2 8.25998 3.092C8.17598 2.984 8.13398 2.834 8.13398 2.642C8.13398 2.174 8.39198 1.94 8.90798 1.94H9.87998C9.92398 1.94 9.94598 1.962 9.94598 2.006V2.144C9.94598 2.184 9.92398 2.204 9.87998 2.204H8.93798C8.77398 2.204 8.64998 2.24 8.56598 2.312C8.48598 2.384 8.44598 2.468 8.44598 2.564V2.702C8.44598 2.814 8.47598 2.902 8.53598 2.966C8.59998 3.03 8.69598 3.084 8.82398 3.128L9.57398 3.428C9.78198 3.496 9.91998 3.598 9.98798 3.734C10.06 3.866 10.096 4.052 10.096 4.292C10.096 4.532 10.028 4.71 9.89198 4.826C9.75998 4.942 9.55398 5 9.27398 5ZM10.898 1.436V0.86C10.898 0.816 10.918 0.794 10.958 0.794H11.138C11.178 0.794 11.198 0.816 11.198 0.86V1.436C11.198 1.484 11.178 1.508 11.138 1.508H10.958C10.918 1.508 10.898 1.484 10.898 1.436ZM10.898 4.928V2.012C10.898 1.964 10.918 1.94 10.958 1.94H11.132C11.176 1.94 11.198 1.964 11.198 2.012V4.928C11.198 4.976 11.178 5 11.138 5H10.958C10.918 5 10.898 4.976 10.898 4.928ZM13.4237 5H12.9077C12.6477 5 12.4417 4.924 12.2897 4.772C12.1417 4.62 12.0677 4.412 12.0677 4.148V2.792C12.0677 2.528 12.1417 2.32 12.2897 2.168C12.4417 2.016 12.6477 1.94 12.9077 1.94H13.4237C13.6837 1.94 13.8897 2.016 14.0417 2.168C14.1937 2.32 14.2697 2.528 14.2697 2.792V4.148C14.2697 4.412 14.1937 4.62 14.0417 4.772C13.8897 4.924 13.6837 5 13.4237 5ZM12.9317 4.73H13.3997C13.5837 4.73 13.7237 4.68 13.8197 4.58C13.9197 4.476 13.9697 4.33 13.9697 4.142V2.798C13.9697 2.61 13.9197 2.466 13.8197 2.366C13.7237 2.262 13.5837 2.21 13.3997 2.21H12.9317C12.7477 2.21 12.6077 2.262 12.5117 2.366C12.4157 2.466 12.3677 2.61 12.3677 2.798V4.142C12.3677 4.33 12.4157 4.476 12.5117 4.58C12.6077 4.68 12.7477 4.73 12.9317 4.73ZM15.3383 5H15.1643C15.1243 5 15.1043 4.976 15.1043 4.928V2.012C15.1043 1.964 15.1243 1.94 15.1643 1.94H15.3383C15.3823 1.94 15.4043 1.964 15.4043 2.012V2.252H15.4283C15.5403 2.044 15.7483 1.94 16.0523 1.94H16.4483C16.7043 1.94 16.9063 2.016 17.0543 2.168C17.2023 2.32 17.2763 2.528 17.2763 2.792V4.928C17.2763 4.976 17.2563 5 17.2163 5H17.0423C16.9983 5 16.9763 4.976 16.9763 4.928V2.804C16.9763 2.616 16.9283 2.47 16.8323 2.366C16.7363 2.262 16.5963 2.21 16.4123 2.21H16.0223C15.8303 2.21 15.6783 2.262 15.5663 2.366C15.4583 2.466 15.4043 2.61 15.4043 2.798V4.928C15.4043 4.976 15.3823 5 15.3383 5ZM21.4009 3.944V1.382L19.8889 3.944H21.4009ZM21.6289 5H21.4669C21.4229 5 21.4009 4.976 21.4009 4.928V4.214H19.6609C19.6009 4.214 19.5709 4.186 19.5709 4.13V4.022C19.5709 3.986 19.5849 3.94 19.6129 3.884L21.1849 1.232C21.2209 1.172 21.2689 1.142 21.3289 1.142H21.6109C21.6669 1.142 21.6949 1.172 21.6949 1.232V3.944H22.1449C22.1889 3.944 22.2109 3.964 22.2109 4.004V4.148C22.2109 4.192 22.1889 4.214 22.1449 4.214H21.6949V4.928C21.6949 4.976 21.6729 5 21.6289 5ZM23.1501 4.214V4.928C23.1501 4.976 23.1301 5 23.0901 5H22.8801C22.8361 5 22.8141 4.976 22.8141 4.928V4.214C22.8141 4.17 22.8361 4.148 22.8801 4.148H23.0901C23.1301 4.148 23.1501 4.17 23.1501 4.214ZM24.9105 2.924H25.2705C25.6505 2.924 25.8405 2.734 25.8405 2.354V1.982C25.8405 1.598 25.6505 1.406 25.2705 1.406H24.8085C24.4285 1.406 24.2385 1.598 24.2385 1.982V2.198C24.2385 2.242 24.2185 2.264 24.1785 2.264H24.0045C23.9605 2.264 23.9385 2.242 23.9385 2.198V1.976C23.9385 1.716 24.0145 1.512 24.1665 1.364C24.3185 1.216 24.5245 1.142 24.7845 1.142H25.2945C25.5545 1.142 25.7605 1.216 25.9125 1.364C26.0645 1.512 26.1405 1.716 26.1405 1.976V2.36C26.1405 2.728 25.9745 2.96 25.6425 3.056C25.9745 3.148 26.1405 3.382 26.1405 3.758V4.166C26.1405 4.426 26.0645 4.63 25.9125 4.778C25.7605 4.926 25.5545 5 25.2945 5H24.7845C24.5245 5 24.3185 4.926 24.1665 4.778C24.0145 4.63 23.9385 4.426 23.9385 4.166V3.896C23.9385 3.848 23.9605 3.824 24.0045 3.824H24.1785C24.2185 3.824 24.2385 3.848 24.2385 3.896V4.16C24.2385 4.544 24.4285 4.736 24.8085 4.736H25.2705C25.6505 4.736 25.8405 4.544 25.8405 4.16V3.764C25.8405 3.38 25.6505 3.188 25.2705 3.188H24.9105C24.8665 3.188 24.8445 3.166 24.8445 3.122V2.99C24.8445 2.946 24.8665 2.924 24.9105 2.924ZM26.8971 4.934V4.406C26.8971 4.126 27.0171 3.896 27.2571 3.716L28.4391 2.816C28.6431 2.66 28.7451 2.46 28.7451 2.216V1.982C28.7451 1.598 28.5551 1.406 28.1751 1.406H27.7431C27.3671 1.406 27.1791 1.598 27.1791 1.982V2.252C27.1791 2.3 27.1571 2.324 27.1131 2.324H26.9391C26.8951 2.324 26.8731 2.3 26.8731 2.252V1.976C26.8731 1.716 26.9491 1.512 27.1011 1.364C27.2531 1.216 27.4591 1.142 27.7191 1.142H28.2051C28.4651 1.142 28.6691 1.216 28.8171 1.364C28.9691 1.508 29.0451 1.712 29.0451 1.976V2.228C29.0451 2.54 28.9191 2.792 28.6671 2.984L27.4731 3.902C27.3051 4.03 27.2211 4.188 27.2211 4.376V4.724H28.9971C29.0411 4.724 29.0631 4.746 29.0631 4.79V4.934C29.0631 4.978 29.0411 5 28.9971 5H26.9691C26.9211 5 26.8971 4.978 26.8971 4.934ZM30.1403 4.214V4.928C30.1403 4.976 30.1203 5 30.0803 5H29.8703C29.8263 5 29.8043 4.976 29.8043 4.928V4.214C29.8043 4.17 29.8263 4.148 29.8703 4.148H30.0803C30.1203 4.148 30.1403 4.17 30.1403 4.214ZM32.2308 2.828H31.7148C31.6188 2.828 31.5388 2.844 31.4748 2.876C31.4108 2.908 31.3688 2.944 31.3488 2.984C31.2968 3.084 31.2488 3.134 31.2048 3.134H31.0128C30.9728 3.134 30.9528 3.112 30.9528 3.068V1.214C30.9528 1.166 30.9728 1.142 31.0128 1.142H32.9628C33.0108 1.142 33.0348 1.164 33.0348 1.208V1.358C33.0348 1.402 33.0108 1.424 32.9628 1.424H31.2528V2.864C31.3248 2.668 31.4968 2.57 31.7688 2.57H32.2728C32.5328 2.57 32.7368 2.642 32.8848 2.786C33.0328 2.93 33.1068 3.134 33.1068 3.398V4.148C33.1068 4.412 33.0308 4.62 32.8788 4.772C32.7268 4.924 32.5208 5 32.2608 5H31.7808C31.5208 5 31.3148 4.924 31.1628 4.772C31.0148 4.62 30.9408 4.412 30.9408 4.148V3.938C30.9408 3.89 30.9608 3.866 31.0008 3.866H31.1748C31.2188 3.866 31.2408 3.89 31.2408 3.938V4.142C31.2408 4.33 31.2888 4.476 31.3848 4.58C31.4808 4.684 31.6208 4.736 31.8048 4.736H32.2368C32.4208 4.736 32.5608 4.686 32.6568 4.586C32.7568 4.482 32.8068 4.334 32.8068 4.142V3.422C32.8068 3.026 32.6148 2.828 32.2308 2.828ZM35.1253 2.828H34.6093C34.5133 2.828 34.4333 2.844 34.3693 2.876C34.3053 2.908 34.2633 2.944 34.2433 2.984C34.1913 3.084 34.1433 3.134 34.0993 3.134H33.9073C33.8673 3.134 33.8473 3.112 33.8473 3.068V1.214C33.8473 1.166 33.8673 1.142 33.9073 1.142H35.8573C35.9053 1.142 35.9293 1.164 35.9293 1.208V1.358C35.9293 1.402 35.9053 1.424 35.8573 1.424H34.1473V2.864C34.2193 2.668 34.3913 2.57 34.6633 2.57H35.1673C35.4273 2.57 35.6313 2.642 35.7793 2.786C35.9273 2.93 36.0013 3.134 36.0013 3.398V4.148C36.0013 4.412 35.9253 4.62 35.7733 4.772C35.6213 4.924 35.4153 5 35.1553 5H34.6753C34.4153 5 34.2093 4.924 34.0573 4.772C33.9093 4.62 33.8353 4.412 33.8353 4.148V3.938C33.8353 3.89 33.8553 3.866 33.8953 3.866H34.0693C34.1133 3.866 34.1353 3.89 34.1353 3.938V4.142C34.1353 4.33 34.1833 4.476 34.2793 4.58C34.3753 4.684 34.5153 4.736 34.6993 4.736H35.1313C35.3153 4.736 35.4553 4.686 35.5513 4.586C35.6513 4.482 35.7013 4.334 35.7013 4.142V3.422C35.7013 3.026 35.5093 2.828 35.1253 2.828ZM38.0198 2.828H37.5038C37.4078 2.828 37.3278 2.844 37.2638 2.876C37.1998 2.908 37.1578 2.944 37.1378 2.984C37.0858 3.084 37.0378 3.134 36.9938 3.134H36.8018C36.7618 3.134 36.7418 3.112 36.7418 3.068V1.214C36.7418 1.166 36.7618 1.142 36.8018 1.142H38.7518C38.7998 1.142 38.8238 1.164 38.8238 1.208V1.358C38.8238 1.402 38.7998 1.424 38.7518 1.424H37.0418V2.864C37.1138 2.668 37.2858 2.57 37.5578 2.57H38.0618C38.3218 2.57 38.5258 2.642 38.6738 2.786C38.8218 2.93 38.8958 3.134 38.8958 3.398V4.148C38.8958 4.412 38.8198 4.62 38.6678 4.772C38.5158 4.924 38.3098 5 38.0498 5H37.5698C37.3098 5 37.1038 4.924 36.9518 4.772C36.8038 4.62 36.7298 4.412 36.7298 4.148V3.938C36.7298 3.89 36.7498 3.866 36.7898 3.866H36.9638C37.0078 3.866 37.0298 3.89 37.0298 3.938V4.142C37.0298 4.33 37.0778 4.476 37.1738 4.58C37.2698 4.684 37.4098 4.736 37.5938 4.736H38.0258C38.2098 4.736 38.3498 4.686 38.4458 4.586C38.5458 4.482 38.5958 4.334 38.5958 4.142V3.422C38.5958 3.026 38.4038 2.828 38.0198 2.828ZM40.1044 4.736H41.2204C41.6004 4.736 41.7904 4.544 41.7904 4.16V3.746C41.7904 3.366 41.5824 3.176 41.1664 3.176H40.1044C40.0644 3.176 40.0444 3.192 40.0444 3.224V4.682C40.0444 4.718 40.0644 4.736 40.1044 4.736ZM40.1044 2.912H41.1604C41.3484 2.912 41.4924 2.862 41.5924 2.762C41.6964 2.662 41.7484 2.52 41.7484 2.336V1.982C41.7484 1.598 41.5584 1.406 41.1784 1.406H40.1044C40.0644 1.406 40.0444 1.424 40.0444 1.46V2.858C40.0444 2.894 40.0644 2.912 40.1044 2.912ZM39.7444 4.928V1.214C39.7444 1.166 39.7644 1.142 39.8044 1.142H41.2024C41.4624 1.142 41.6684 1.216 41.8204 1.364C41.9724 1.512 42.0484 1.716 42.0484 1.976V2.342C42.0484 2.706 41.8764 2.94 41.5324 3.044C41.6804 3.052 41.8104 3.12 41.9224 3.248C42.0344 3.376 42.0904 3.542 42.0904 3.746V4.166C42.0904 4.426 42.0144 4.63 41.8624 4.778C41.7104 4.926 41.5044 5 41.2444 5H39.8044C39.7644 5 39.7444 4.976 39.7444 4.928ZM0.87 12.73H2.022C2.206 12.73 2.346 12.68 2.442 12.58C2.542 12.476 2.592 12.328 2.592 12.136V10.006C2.592 9.814 2.542 9.668 2.442 9.568C2.346 9.464 2.206 9.412 2.022 9.412H0.87C0.83 9.412 0.81 9.43 0.81 9.466V12.676C0.81 12.712 0.83 12.73 0.87 12.73ZM0.51 12.928V9.214C0.51 9.166 0.53 9.142 0.57 9.142H2.052C2.312 9.142 2.516 9.218 2.664 9.37C2.816 9.522 2.892 9.73 2.892 9.994V12.148C2.892 12.412 2.816 12.62 2.664 12.772C2.516 12.924 2.312 13 2.052 13H0.57C0.53 13 0.51 12.976 0.51 12.928ZM3.81984 9.436V8.86C3.81984 8.816 3.83984 8.794 3.87984 8.794H4.05984C4.09984 8.794 4.11984 8.816 4.11984 8.86V9.436C4.11984 9.484 4.09984 9.508 4.05984 9.508H3.87984C3.83984 9.508 3.81984 9.484 3.81984 9.436ZM3.81984 12.928V10.012C3.81984 9.964 3.83984 9.94 3.87984 9.94H4.05384C4.09784 9.94 4.11984 9.964 4.11984 10.012V12.928C4.11984 12.976 4.09984 13 4.05984 13H3.87984C3.83984 13 3.81984 12.976 3.81984 12.928ZM6.03961 13H4.99561C4.95161 13 4.92961 12.978 4.92961 12.934V12.796C4.92961 12.756 4.95161 12.736 4.99561 12.736H6.00961C6.36961 12.736 6.54961 12.596 6.54961 12.316V12.172C6.54961 11.912 6.43761 11.742 6.21361 11.662L5.46361 11.374C5.25961 11.294 5.11361 11.2 5.02561 11.092C4.94161 10.984 4.89961 10.834 4.89961 10.642C4.89961 10.174 5.15761 9.94 5.67361 9.94H6.64561C6.68961 9.94 6.71161 9.962 6.71161 10.006V10.144C6.71161 10.184 6.68961 10.204 6.64561 10.204H5.70361C5.53961 10.204 5.41561 10.24 5.33161 10.312C5.25161 10.384 5.21161 10.468 5.21161 10.564V10.702C5.21161 10.814 5.24161 10.902 5.30161 10.966C5.36561 11.03 5.46161 11.084 5.58961 11.128L6.33961 11.428C6.54761 11.496 6.68561 11.598 6.75361 11.734C6.82561 11.866 6.86161 12.052 6.86161 12.292C6.86161 12.532 6.79361 12.71 6.65761 12.826C6.52561 12.942 6.31961 13 6.03961 13ZM9.35559 9.94H9.54159C9.56559 9.94 9.58159 9.948 9.58959 9.964C9.59759 9.976 9.59359 9.992 9.57759 10.012L8.65959 11.404V11.428L9.68559 12.928C9.70159 12.948 9.70559 12.966 9.69759 12.982C9.68959 12.994 9.67359 13 9.64959 13H9.46359C9.40359 13 9.35759 12.976 9.32559 12.928L8.33559 11.47C8.31959 11.438 8.31959 11.406 8.33559 11.374L9.23559 10C9.25959 9.96 9.29959 9.94 9.35559 9.94ZM7.86759 13H7.69359C7.65359 13 7.63359 12.976 7.63359 12.928V8.854C7.63359 8.806 7.65359 8.782 7.69359 8.782H7.86759C7.91159 8.782 7.93359 8.806 7.93359 8.854V12.928C7.93359 12.976 7.91159 13 7.86759 13ZM13.5272 12.796V12.934C13.5272 12.978 13.5052 13 13.4612 13H12.5972C12.3372 13 12.1312 12.924 11.9792 12.772C11.8312 12.62 11.7572 12.412 11.7572 12.148V10.792C11.7572 10.528 11.8312 10.32 11.9792 10.168C12.1312 10.016 12.3372 9.94 12.5972 9.94H13.4612C13.5052 9.94 13.5272 9.962 13.5272 10.006V10.15C13.5272 10.19 13.5052 10.21 13.4612 10.21H12.6212C12.4372 10.21 12.2972 10.262 12.2012 10.366C12.1052 10.47 12.0572 10.616 12.0572 10.804V12.136C12.0572 12.324 12.1052 12.47 12.2012 12.574C12.2972 12.678 12.4372 12.73 12.6212 12.73H13.4612C13.5052 12.73 13.5272 12.752 13.5272 12.796ZM15.3425 13H14.9585C14.6985 13 14.4925 12.924 14.3405 12.772C14.1925 12.62 14.1185 12.412 14.1185 12.148V10.792C14.1185 10.528 14.1925 10.32 14.3405 10.168C14.4925 10.016 14.6985 9.94 14.9585 9.94H16.2305C16.2705 9.94 16.2905 9.964 16.2905 10.012V12.928C16.2905 12.976 16.2705 13 16.2305 13H16.0565C16.0125 13 15.9905 12.976 15.9905 12.928V12.688H15.9665C15.8625 12.896 15.6545 13 15.3425 13ZM15.9905 12.142V10.264C15.9905 10.228 15.9705 10.21 15.9305 10.21H14.9825C14.7985 10.21 14.6585 10.262 14.5625 10.366C14.4665 10.47 14.4185 10.616 14.4185 10.804V12.136C14.4185 12.324 14.4665 12.47 14.5625 12.574C14.6585 12.678 14.7985 12.73 14.9825 12.73H15.3725C15.5645 12.73 15.7145 12.68 15.8225 12.58C15.9345 12.476 15.9905 12.33 15.9905 12.142ZM18.9002 12.796V12.934C18.9002 12.978 18.8782 13 18.8342 13H17.9702C17.7102 13 17.5042 12.924 17.3522 12.772C17.2042 12.62 17.1302 12.412 17.1302 12.148V10.792C17.1302 10.528 17.2042 10.32 17.3522 10.168C17.5042 10.016 17.7102 9.94 17.9702 9.94H18.8342C18.8782 9.94 18.9002 9.962 18.9002 10.006V10.15C18.9002 10.19 18.8782 10.21 18.8342 10.21H17.9942C17.8102 10.21 17.6702 10.262 17.5742 10.366C17.4782 10.47 17.4302 10.616 17.4302 10.804V12.136C17.4302 12.324 17.4782 12.47 17.5742 12.574C17.6702 12.678 17.8102 12.73 17.9942 12.73H18.8342C18.8782 12.73 18.9002 12.752 18.9002 12.796ZM19.7856 13H19.6116C19.5716 13 19.5516 12.976 19.5516 12.928V8.854C19.5516 8.806 19.5716 8.782 19.6116 8.782H19.7856C19.8296 8.782 19.8516 8.806 19.8516 8.854V10.252H19.8756C19.9876 10.044 20.1956 9.94 20.4996 9.94H20.8956C21.1516 9.94 21.3536 10.016 21.5016 10.168C21.6496 10.32 21.7236 10.528 21.7236 10.792V12.928C21.7236 12.976 21.7036 13 21.6636 13H21.4896C21.4456 13 21.4236 12.976 21.4236 12.928V10.804C21.4236 10.616 21.3756 10.47 21.2796 10.366C21.1836 10.262 21.0436 10.21 20.8596 10.21H20.4696C20.2776 10.21 20.1256 10.262 20.0136 10.366C19.9056 10.466 19.8516 10.61 19.8516 10.798V12.928C19.8516 12.976 19.8296 13 19.7856 13ZM24.6266 13H23.3726C23.1126 13 22.9066 12.924 22.7546 12.772C22.6066 12.62 22.5326 12.412 22.5326 12.148V10.792C22.5326 10.528 22.6066 10.32 22.7546 10.168C22.9066 10.016 23.1126 9.94 23.3726 9.94H23.8886C24.1486 9.94 24.3546 10.016 24.5066 10.168C24.6586 10.32 24.7346 10.528 24.7346 10.792V11.554C24.7346 11.602 24.7106 11.626 24.6626 11.626H22.8866C22.8506 11.626 22.8326 11.644 22.8326 11.68V12.142C22.8326 12.33 22.8806 12.476 22.9766 12.58C23.0726 12.68 23.2126 12.73 23.3966 12.73H24.6266C24.6706 12.73 24.6926 12.752 24.6926 12.796V12.934C24.6926 12.978 24.6706 13 24.6266 13ZM22.8866 11.386H24.3806C24.4166 11.386 24.4346 11.368 24.4346 11.332V10.798C24.4346 10.61 24.3866 10.466 24.2906 10.366C24.1946 10.262 24.0546 10.21 23.8706 10.21H23.3966C23.2126 10.21 23.0726 10.262 22.9766 10.366C22.8806 10.466 22.8326 10.61 22.8326 10.798V11.332C22.8326 11.368 22.8506 11.386 22.8866 11.386ZM27.9793 13H27.7393C27.6993 13 27.6733 12.976 27.6613 12.928L26.8213 10.012C26.8093 9.964 26.8253 9.94 26.8693 9.94H27.0613C27.1053 9.94 27.1313 9.964 27.1393 10.012L27.8473 12.622H27.8773L28.5733 10.012C28.5813 9.964 28.6093 9.94 28.6573 9.94H28.8313C28.8793 9.94 28.9073 9.964 28.9153 10.012L29.5993 12.622H29.6293L30.3433 10.012C30.3553 9.964 30.3813 9.94 30.4213 9.94H30.6133C30.6613 9.94 30.6773 9.964 30.6613 10.012L29.8273 12.928C29.8153 12.976 29.7873 13 29.7433 13H29.5033C29.4593 13 29.4313 12.976 29.4193 12.928L28.7533 10.396H28.7233L28.0633 12.928C28.0513 12.976 28.0233 13 27.9793 13ZM32.537 13H32.021C31.761 13 31.555 12.924 31.403 12.772C31.255 12.62 31.181 12.412 31.181 12.148V10.792C31.181 10.528 31.255 10.32 31.403 10.168C31.555 10.016 31.761 9.94 32.021 9.94H32.537C32.797 9.94 33.003 10.016 33.155 10.168C33.307 10.32 33.383 10.528 33.383 10.792V12.148C33.383 12.412 33.307 12.62 33.155 12.772C33.003 12.924 32.797 13 32.537 13ZM32.045 12.73H32.513C32.697 12.73 32.837 12.68 32.933 12.58C33.033 12.476 33.083 12.33 33.083 12.142V10.798C33.083 10.61 33.033 10.466 32.933 10.366C32.837 10.262 32.697 10.21 32.513 10.21H32.045C31.861 10.21 31.721 10.262 31.625 10.366C31.529 10.466 31.481 10.61 31.481 10.798V12.142C31.481 12.33 31.529 12.476 31.625 12.58C31.721 12.68 31.861 12.73 32.045 12.73ZM34.4516 13H34.2776C34.2376 13 34.2176 12.976 34.2176 12.928V10.012C34.2176 9.964 34.2376 9.94 34.2776 9.94H34.4516C34.4956 9.94 34.5176 9.964 34.5176 10.012V10.264H34.5416C34.5856 10.18 34.6636 10.106 34.7756 10.042C34.8876 9.974 35.0256 9.94 35.1896 9.94H35.4236C35.4676 9.94 35.4896 9.962 35.4896 10.006V10.15C35.4896 10.194 35.4676 10.214 35.4236 10.21H35.1416C34.9456 10.21 34.7916 10.27 34.6796 10.39C34.5716 10.51 34.5176 10.672 34.5176 10.876V12.928C34.5176 12.976 34.4956 13 34.4516 13ZM37.8204 9.94H38.0064C38.0304 9.94 38.0464 9.948 38.0544 9.964C38.0624 9.976 38.0584 9.992 38.0424 10.012L37.1244 11.404V11.428L38.1504 12.928C38.1664 12.948 38.1704 12.966 38.1624 12.982C38.1544 12.994 38.1384 13 38.1144 13H37.9284C37.8684 13 37.8224 12.976 37.7904 12.928L36.8004 11.47C36.7844 11.438 36.7844 11.406 36.8004 11.374L37.7004 10C37.7244 9.96 37.7644 9.94 37.8204 9.94ZM36.3324 13H36.1584C36.1184 13 36.0984 12.976 36.0984 12.928V8.854C36.0984 8.806 36.1184 8.782 36.1584 8.782H36.3324C36.3764 8.782 36.3984 8.806 36.3984 8.854V12.928C36.3984 12.976 36.3764 13 36.3324 13ZM38.7124 9.436V8.86C38.7124 8.816 38.7324 8.794 38.7724 8.794H38.9524C38.9924 8.794 39.0124 8.816 39.0124 8.86V9.436C39.0124 9.484 38.9924 9.508 38.9524 9.508H38.7724C38.7324 9.508 38.7124 9.484 38.7124 9.436ZM38.7124 12.928V10.012C38.7124 9.964 38.7324 9.94 38.7724 9.94H38.9464C38.9904 9.94 39.0124 9.964 39.0124 10.012V12.928C39.0124 12.976 38.9924 13 38.9524 13H38.7724C38.7324 13 38.7124 12.976 38.7124 12.928ZM40.1762 13H40.0022C39.9622 13 39.9422 12.976 39.9422 12.928V10.012C39.9422 9.964 39.9622 9.94 40.0022 9.94H40.1762C40.2202 9.94 40.2422 9.964 40.2422 10.012V10.252H40.2662C40.3782 10.044 40.5862 9.94 40.8902 9.94H41.2862C41.5422 9.94 41.7442 10.016 41.8922 10.168C42.0402 10.32 42.1142 10.528 42.1142 10.792V12.928C42.1142 12.976 42.0942 13 42.0542 13H41.8802C41.8362 13 41.8142 12.976 41.8142 12.928V10.804C41.8142 10.616 41.7662 10.47 41.6702 10.366C41.5742 10.262 41.4342 10.21 41.2502 10.21H40.8602C40.6682 10.21 40.5162 10.262 40.4042 10.366C40.2962 10.466 40.2422 10.61 40.2422 10.798V12.928C40.2422 12.976 40.2202 13 40.1762 13ZM44.1712 12.826H43.7812C43.5252 12.826 43.3212 12.75 43.1692 12.598C43.0212 12.446 42.9472 12.24 42.9472 11.98V10.792C42.9472 10.528 43.0212 10.32 43.1692 10.168C43.3212 10.016 43.5272 9.94 43.7872 9.94H45.0592C45.1032 9.94 45.1252 9.964 45.1252 10.012V12.988C45.1252 13.252 45.0492 13.46 44.8972 13.612C44.7452 13.764 44.5392 13.84 44.2792 13.84H43.1872C43.1432 13.84 43.1212 13.818 43.1212 13.774V13.63C43.1212 13.59 43.1432 13.57 43.1872 13.57H44.2552C44.4392 13.57 44.5792 13.518 44.6752 13.414C44.7712 13.314 44.8192 13.168 44.8192 12.976V12.514H44.7952C44.6952 12.722 44.4872 12.826 44.1712 12.826ZM44.8192 11.968V10.264C44.8192 10.228 44.8012 10.21 44.7652 10.21H43.8172C43.6332 10.21 43.4912 10.262 43.3912 10.366C43.2952 10.466 43.2472 10.612 43.2472 10.804V11.968C43.2472 12.156 43.2952 12.302 43.3912 12.406C43.4912 12.506 43.6332 12.556 43.8172 12.556H44.2012C44.3932 12.556 44.5432 12.506 44.6512 12.406C44.7632 12.302 44.8192 12.156 44.8192 11.968Z" fill="#55EAD4"/>
</svg>
