<svg width="313" height="21" viewBox="0 0 313 21" fill="none" xmlns="http://www.w3.org/2000/svg">
<path d="M77.5 15L71.5 9H9V15V20.5H77.5H311L305.5 15H207.5L205.5 17H142L140 15H77.5Z" fill="#EF4444"/>
<path d="M77.5 15L71.5 9H9V15V20.5H77.5M77.5 15V20.5M77.5 15H140L142 17H205.5L207.5 15H305.5L311 20.5H77.5" stroke="#EF4444"/>
<path d="M63 1H1.00003V7V21" stroke="#EF4444" stroke-opacity="0.2"/>
<path d="M69 7H7V13V21" stroke="#EF4444" stroke-opacity="0.8"/>
<path d="M67 5H4.99996V11V21" stroke="#EF4444" stroke-opacity="0.6"/>
<path d="M65 3H2.99999V8.73913V21" stroke="#EF4444" stroke-opacity="0.4"/>
<path d="M305 13.5H207" stroke="#EF4444" stroke-opacity="0.5"/>
<path d="M142.5 15.5H205" stroke="#EF4444" stroke-opacity="0.25"/>
</svg>
