<svg width="606" height="11" viewBox="0 0 606 11" fill="none" xmlns="http://www.w3.org/2000/svg">
<path d="M262.5 5H6.5L2 10.5L102 10.4165L104.5 7.91646H226.5L228.894 10.3104L600.5 10L604.5 5H403L401 3H264.5L262.5 5Z" fill="#EF4444" stroke="#EF4444"/>
<path d="M406.558 3C406.486 3 406.42 2.983 406.36 2.949C406.302 2.913 406.255 2.866 406.219 2.808C406.185 2.748 406.168 2.682 406.168 2.61V1.23C406.168 1.158 406.185 1.093 406.219 1.035C406.255 0.975 406.302 0.928 406.36 0.894C406.42 0.858 406.486 0.84 406.558 0.84H408.322V1.164H406.603C406.571 1.164 406.544 1.175 406.522 1.197C406.502 1.217 406.492 1.243 406.492 1.275V2.565C406.492 2.597 406.502 2.624 406.522 2.646C406.544 2.666 406.571 2.676 406.603 2.676H408.322V3H406.558ZM408.638 3V0.84H408.962V1.758H410.522V0.84H410.849V3H410.522V2.082H408.962V3H408.638ZM411.193 3V0.84H413.173V1.164H411.52V1.758H412.849V2.082H411.52V2.676H413.173V3H411.193ZM413.873 3C413.801 3 413.735 2.983 413.675 2.949C413.617 2.913 413.57 2.866 413.534 2.808C413.5 2.748 413.483 2.682 413.483 2.61V1.23C413.483 1.158 413.5 1.093 413.534 1.035C413.57 0.975 413.617 0.928 413.675 0.894C413.735 0.858 413.801 0.84 413.873 0.84H415.637V1.164H413.918C413.886 1.164 413.859 1.175 413.837 1.197C413.817 1.217 413.807 1.243 413.807 1.275V2.565C413.807 2.597 413.817 2.624 413.837 2.646C413.859 2.666 413.886 2.676 413.918 2.676H415.637V3H413.873ZM415.953 3V0.84H416.28V1.758H416.877L417.645 0.84H418.02V0.9L417.165 1.92L418.023 2.94V3H417.645L416.877 2.082H416.28V3H415.953ZM419.22 2.274V1.95H420.42V2.274H419.22ZM421.637 3V0.84H423.404C423.476 0.84 423.542 0.858 423.602 0.894C423.662 0.928 423.709 0.975 423.743 1.035C423.779 1.093 423.797 1.158 423.797 1.23V2.61C423.797 2.682 423.779 2.748 423.743 2.808C423.709 2.866 423.662 2.913 423.602 2.949C423.542 2.983 423.476 3 423.404 3H421.637ZM422.033 2.676H423.398C423.418 2.676 423.435 2.669 423.449 2.655C423.463 2.639 423.47 2.621 423.47 2.601V1.239C423.47 1.219 423.463 1.202 423.449 1.188C423.435 1.172 423.418 1.164 423.398 1.164H422.033C422.013 1.164 421.996 1.172 421.982 1.188C421.968 1.202 421.961 1.219 421.961 1.239V2.601C421.961 2.621 421.968 2.639 421.982 2.655C421.996 2.669 422.013 2.676 422.033 2.676ZM424.517 3C424.445 3 424.379 2.983 424.319 2.949C424.261 2.913 424.214 2.866 424.178 2.808C424.144 2.748 424.127 2.682 424.127 2.61V1.23C424.127 1.158 424.144 1.093 424.178 1.035C424.214 0.975 424.261 0.928 424.319 0.894C424.379 0.858 424.445 0.84 424.517 0.84H425.897C425.967 0.84 426.032 0.858 426.092 0.894C426.152 0.928 426.199 0.975 426.233 1.035C426.269 1.093 426.287 1.158 426.287 1.23V2.61C426.287 2.682 426.269 2.748 426.233 2.808C426.199 2.866 426.152 2.913 426.092 2.949C426.032 2.983 425.967 3 425.897 3H424.517ZM424.526 2.676H425.888C425.908 2.676 425.925 2.669 425.939 2.655C425.953 2.639 425.96 2.621 425.96 2.601V1.239C425.96 1.219 425.953 1.202 425.939 1.188C425.925 1.172 425.908 1.164 425.888 1.164H424.526C424.506 1.164 424.488 1.172 424.472 1.188C424.458 1.202 424.451 1.219 424.451 1.239V2.601C424.451 2.621 424.458 2.639 424.472 2.655C424.488 2.669 424.506 2.676 424.526 2.676ZM426.617 3V0.84H427.004L428.45 2.562V0.84H428.777V3H428.39L426.941 1.275V3H426.617ZM429.119 3V0.84H431.099V1.164H429.446V1.758H430.775V2.082H429.446V2.676H431.099V3H429.119ZM432.274 1.569V1.245H432.598V1.569H432.274ZM432.274 3V2.676H432.598V3H432.274ZM432.951 1.569V1.245H433.275V1.569H432.951ZM432.951 3V2.676H433.275V3H432.951ZM434.507 3V0.837H434.831V2.676H436.667V3H434.507ZM437.226 3C437.154 3 437.088 2.983 437.028 2.949C436.97 2.913 436.923 2.866 436.887 2.808C436.853 2.748 436.836 2.682 436.836 2.61V1.23C436.836 1.158 436.853 1.093 436.887 1.035C436.923 0.975 436.97 0.928 437.028 0.894C437.088 0.858 437.154 0.84 437.226 0.84H438.606C438.676 0.84 438.741 0.858 438.801 0.894C438.861 0.928 438.908 0.975 438.942 1.035C438.978 1.093 438.996 1.158 438.996 1.23V2.61C438.996 2.682 438.978 2.748 438.942 2.808C438.908 2.866 438.861 2.913 438.801 2.949C438.741 2.983 438.676 3 438.606 3H437.226ZM437.235 2.676H438.597C438.617 2.676 438.634 2.669 438.648 2.655C438.662 2.639 438.669 2.621 438.669 2.601V1.239C438.669 1.219 438.662 1.202 438.648 1.188C438.634 1.172 438.617 1.164 438.597 1.164H437.235C437.215 1.164 437.197 1.172 437.181 1.188C437.167 1.202 437.16 1.219 437.16 1.239V2.601C437.16 2.621 437.167 2.639 437.181 2.655C437.197 2.669 437.215 2.676 437.235 2.676ZM439.332 3V1.23C439.332 1.158 439.349 1.093 439.383 1.035C439.419 0.975 439.466 0.928 439.524 0.894C439.584 0.858 439.65 0.84 439.722 0.84H441.099C441.171 0.84 441.237 0.858 441.297 0.894C441.357 0.928 441.404 0.975 441.438 1.035C441.474 1.093 441.492 1.158 441.492 1.23V3H441.165V2.244H439.656V3H439.332ZM439.656 1.92H441.165V1.239C441.165 1.219 441.158 1.202 441.144 1.188C441.13 1.172 441.113 1.164 441.093 1.164H439.731C439.711 1.164 439.693 1.172 439.677 1.188C439.663 1.202 439.656 1.219 439.656 1.239V1.92ZM441.84 3V0.84H443.607C443.679 0.84 443.745 0.858 443.805 0.894C443.865 0.928 443.912 0.975 443.946 1.035C443.982 1.093 444 1.158 444 1.23V2.61C444 2.682 443.982 2.748 443.946 2.808C443.912 2.866 443.865 2.913 443.805 2.949C443.745 2.983 443.679 3 443.607 3H441.84ZM442.236 2.676H443.601C443.621 2.676 443.638 2.669 443.652 2.655C443.666 2.639 443.673 2.621 443.673 2.601V1.239C443.673 1.219 443.666 1.202 443.652 1.188C443.638 1.172 443.621 1.164 443.601 1.164H442.236C442.216 1.164 442.199 1.172 442.185 1.188C442.171 1.202 442.164 1.219 442.164 1.239V2.601C442.164 2.621 442.171 2.639 442.185 2.655C442.199 2.669 442.216 2.676 442.236 2.676ZM444.327 3V0.84H444.651V3H444.327ZM444.978 3V0.84H445.365L446.811 2.562V0.84H447.138V3H446.751L445.302 1.275V3H444.978ZM447.864 3C447.792 3 447.726 2.983 447.666 2.949C447.608 2.913 447.561 2.866 447.525 2.808C447.491 2.748 447.474 2.682 447.474 2.61V1.23C447.474 1.158 447.491 1.093 447.525 1.035C447.561 0.975 447.608 0.928 447.666 0.894C447.726 0.858 447.792 0.84 447.864 0.84H449.241C449.313 0.84 449.379 0.858 449.439 0.894C449.499 0.928 449.546 0.975 449.58 1.035C449.616 1.093 449.634 1.158 449.634 1.23V1.359H449.307V1.239C449.307 1.219 449.3 1.202 449.286 1.188C449.272 1.172 449.255 1.164 449.235 1.164H447.873C447.853 1.164 447.835 1.172 447.819 1.188C447.805 1.202 447.798 1.219 447.798 1.239V2.601C447.798 2.621 447.805 2.639 447.819 2.655C447.835 2.669 447.853 2.676 447.873 2.676H449.235C449.255 2.676 449.272 2.669 449.286 2.655C449.3 2.639 449.307 2.621 449.307 2.601V2.142H448.797V1.815H449.634V2.61C449.634 2.682 449.616 2.748 449.58 2.808C449.546 2.866 449.499 2.913 449.439 2.949C449.379 2.983 449.313 3 449.241 3H447.864ZM450.828 1.569V1.245H451.152V1.569H450.828ZM450.828 3V2.676H451.152V3H450.828ZM451.505 1.569V1.245H451.829V1.569H451.505ZM451.505 3V2.676H451.829V3H451.505ZM453.064 3V0.84H454.831C454.903 0.84 454.969 0.858 455.029 0.894C455.089 0.928 455.136 0.975 455.17 1.035C455.206 1.093 455.224 1.158 455.224 1.23V2.61C455.224 2.682 455.206 2.748 455.17 2.808C455.136 2.866 455.089 2.913 455.029 2.949C454.969 2.983 454.903 3 454.831 3H453.064ZM453.46 2.676H454.825C454.845 2.676 454.862 2.669 454.876 2.655C454.89 2.639 454.897 2.621 454.897 2.601V1.239C454.897 1.219 454.89 1.202 454.876 1.188C454.862 1.172 454.845 1.164 454.825 1.164H453.46C453.44 1.164 453.423 1.172 453.409 1.188C453.395 1.202 453.388 1.219 453.388 1.239V2.601C453.388 2.621 453.395 2.639 453.409 2.655C453.423 2.669 453.44 2.676 453.46 2.676ZM457.33 3L456.655 2.193H457.078L457.708 2.94V3H457.33ZM455.56 3V0.843H457.327C457.399 0.843 457.465 0.861 457.525 0.897C457.585 0.933 457.632 0.981 457.666 1.041C457.702 1.099 457.72 1.163 457.72 1.233V1.839C457.72 1.911 457.702 1.977 457.666 2.037C457.632 2.095 457.585 2.142 457.525 2.178C457.465 2.212 457.399 2.229 457.327 2.229L455.884 2.232V3H455.56ZM455.959 1.902H457.321C457.341 1.902 457.358 1.895 457.372 1.881C457.386 1.867 457.393 1.85 457.393 1.83V1.242C457.393 1.222 457.386 1.205 457.372 1.191C457.358 1.175 457.341 1.167 457.321 1.167H455.959C455.939 1.167 455.921 1.175 455.905 1.191C455.891 1.205 455.884 1.222 455.884 1.242V1.83C455.884 1.85 455.891 1.867 455.905 1.881C455.921 1.895 455.939 1.902 455.959 1.902ZM458.419 3C458.347 3 458.281 2.983 458.221 2.949C458.163 2.913 458.116 2.866 458.08 2.808C458.046 2.748 458.029 2.682 458.029 2.61V1.23C458.029 1.158 458.046 1.093 458.08 1.035C458.116 0.975 458.163 0.928 458.221 0.894C458.281 0.858 458.347 0.84 458.419 0.84H459.799C459.869 0.84 459.934 0.858 459.994 0.894C460.054 0.928 460.101 0.975 460.135 1.035C460.171 1.093 460.189 1.158 460.189 1.23V2.61C460.189 2.682 460.171 2.748 460.135 2.808C460.101 2.866 460.054 2.913 459.994 2.949C459.934 2.983 459.869 3 459.799 3H458.419ZM458.428 2.676H459.79C459.81 2.676 459.827 2.669 459.841 2.655C459.855 2.639 459.862 2.621 459.862 2.601V1.239C459.862 1.219 459.855 1.202 459.841 1.188C459.827 1.172 459.81 1.164 459.79 1.164H458.428C458.408 1.164 458.39 1.172 458.374 1.188C458.36 1.202 458.353 1.219 458.353 1.239V2.601C458.353 2.621 458.36 2.639 458.374 2.655C458.39 2.669 458.408 2.676 458.428 2.676ZM460.52 3V0.843H462.287C462.359 0.843 462.425 0.861 462.485 0.897C462.545 0.933 462.592 0.981 462.626 1.041C462.662 1.099 462.68 1.163 462.68 1.233V1.839C462.68 1.911 462.662 1.977 462.626 2.037C462.592 2.095 462.545 2.142 462.485 2.178C462.425 2.212 462.359 2.229 462.287 2.229L460.844 2.232V3H460.52ZM460.919 1.902H462.281C462.301 1.902 462.318 1.895 462.332 1.881C462.346 1.867 462.353 1.85 462.353 1.83V1.242C462.353 1.222 462.346 1.205 462.332 1.191C462.318 1.175 462.301 1.167 462.281 1.167H460.919C460.899 1.167 460.881 1.175 460.865 1.191C460.851 1.205 460.844 1.222 460.844 1.242V1.83C460.844 1.85 460.851 1.867 460.865 1.881C460.881 1.895 460.899 1.902 460.919 1.902ZM464.147 3C464.075 3 464.009 2.983 463.949 2.949C463.891 2.913 463.844 2.866 463.808 2.808C463.774 2.748 463.757 2.682 463.757 2.61V1.23C463.757 1.158 463.774 1.093 463.808 1.035C463.844 0.975 463.891 0.928 463.949 0.894C464.009 0.858 464.075 0.84 464.147 0.84H465.527C465.597 0.84 465.662 0.858 465.722 0.894C465.782 0.928 465.829 0.975 465.863 1.035C465.899 1.093 465.917 1.158 465.917 1.23V2.61C465.917 2.682 465.899 2.748 465.863 2.808C465.829 2.866 465.782 2.913 465.722 2.949C465.662 2.983 465.597 3 465.527 3H464.147ZM464.156 2.676H465.518C465.538 2.676 465.555 2.669 465.569 2.655C465.583 2.639 465.59 2.621 465.59 2.601V1.239C465.59 1.219 465.583 1.202 465.569 1.188C465.555 1.172 465.538 1.164 465.518 1.164H464.156C464.136 1.164 464.118 1.172 464.102 1.188C464.088 1.202 464.081 1.219 464.081 1.239V2.601C464.081 2.621 464.088 2.639 464.102 2.655C464.118 2.669 464.136 2.676 464.156 2.676ZM466.247 3V0.84H466.634L468.08 2.562V0.84H468.407V3H468.02L466.571 1.275V3H466.247ZM468.746 3V0.837H469.07V2.676H470.906V3H468.746ZM471.439 3V2.19L470.443 0.84H470.824L471.601 1.821L472.375 0.84H472.759L471.763 2.19V3H471.439ZM473.841 1.569V1.245H474.165V1.569H473.841ZM473.841 3V2.676H474.165V3H473.841ZM474.517 1.569V1.245H474.841V1.569H474.517ZM474.517 3V2.676H474.841V3H474.517ZM476.46 3C476.388 3 476.322 2.983 476.262 2.949C476.204 2.913 476.157 2.866 476.121 2.808C476.087 2.748 476.07 2.682 476.07 2.61V1.23C476.07 1.158 476.087 1.093 476.121 1.035C476.157 0.975 476.204 0.928 476.262 0.894C476.322 0.858 476.388 0.84 476.46 0.84H477.837C477.909 0.84 477.975 0.858 478.035 0.894C478.095 0.928 478.142 0.975 478.176 1.035C478.212 1.093 478.23 1.158 478.23 1.23V1.359H477.903V1.239C477.903 1.219 477.896 1.202 477.882 1.188C477.868 1.172 477.851 1.164 477.831 1.164H476.469C476.449 1.164 476.431 1.172 476.415 1.188C476.401 1.202 476.394 1.219 476.394 1.239V2.601C476.394 2.621 476.401 2.639 476.415 2.655C476.431 2.669 476.449 2.676 476.469 2.676H477.831C477.851 2.676 477.868 2.669 477.882 2.655C477.896 2.639 477.903 2.621 477.903 2.601V2.142H477.393V1.815H478.23V2.61C478.23 2.682 478.212 2.748 478.176 2.808C478.142 2.866 478.095 2.913 478.035 2.949C477.975 2.983 477.909 3 477.837 3H476.46ZM478.567 3V1.23C478.567 1.158 478.584 1.093 478.618 1.035C478.654 0.975 478.701 0.928 478.759 0.894C478.819 0.858 478.885 0.84 478.957 0.84H480.334C480.406 0.84 480.472 0.858 480.532 0.894C480.592 0.928 480.639 0.975 480.673 1.035C480.709 1.093 480.727 1.158 480.727 1.23V3H480.4V2.244H478.891V3H478.567ZM478.891 1.92H480.4V1.239C480.4 1.219 480.393 1.202 480.379 1.188C480.365 1.172 480.348 1.164 480.328 1.164H478.966C478.946 1.164 478.928 1.172 478.912 1.188C478.898 1.202 478.891 1.219 478.891 1.239V1.92ZM481.068 3V0.84H481.455L482.292 1.836L483.126 0.84H483.516V3H483.189V1.275L482.292 2.343L481.392 1.275V3H481.068ZM483.852 3V0.84H484.239L485.076 1.836L485.91 0.84H486.3V3H485.973V1.275L485.076 2.343L484.176 1.275V3H483.852ZM486.641 3V1.23C486.641 1.158 486.658 1.093 486.692 1.035C486.728 0.975 486.775 0.928 486.833 0.894C486.893 0.858 486.959 0.84 487.031 0.84H488.408C488.48 0.84 488.546 0.858 488.606 0.894C488.666 0.928 488.713 0.975 488.747 1.035C488.783 1.093 488.801 1.158 488.801 1.23V3H488.474V2.244H486.965V3H486.641ZM486.965 1.92H488.474V1.239C488.474 1.219 488.467 1.202 488.453 1.188C488.439 1.172 488.422 1.164 488.402 1.164H487.04C487.02 1.164 487.002 1.172 486.986 1.188C486.972 1.202 486.965 1.219 486.965 1.239V1.92ZM490.391 3C490.321 3 490.256 2.983 490.196 2.949C490.136 2.913 490.088 2.866 490.052 2.808C490.018 2.748 490.001 2.682 490.001 2.61V2.484H490.325V2.601C490.325 2.621 490.332 2.639 490.346 2.655C490.362 2.669 490.38 2.676 490.4 2.676H491.762C491.782 2.676 491.799 2.669 491.813 2.655C491.827 2.639 491.834 2.621 491.834 2.601V2.157C491.834 2.135 491.827 2.117 491.813 2.103C491.799 2.089 491.782 2.082 491.762 2.082H490.391C490.321 2.082 490.256 2.065 490.196 2.031C490.136 1.995 490.088 1.948 490.052 1.89C490.018 1.83 490.001 1.764 490.001 1.692V1.23C490.001 1.158 490.018 1.093 490.052 1.035C490.088 0.975 490.136 0.928 490.196 0.894C490.256 0.858 490.321 0.84 490.391 0.84H491.771C491.841 0.84 491.906 0.858 491.966 0.894C492.026 0.928 492.073 0.975 492.107 1.035C492.143 1.093 492.161 1.158 492.161 1.23V1.356H491.834V1.239C491.834 1.219 491.827 1.202 491.813 1.188C491.799 1.172 491.782 1.164 491.762 1.164H490.4C490.38 1.164 490.362 1.172 490.346 1.188C490.332 1.202 490.325 1.219 490.325 1.239V1.683C490.325 1.705 490.332 1.723 490.346 1.737C490.362 1.751 490.38 1.758 490.4 1.758H491.771C491.841 1.758 491.906 1.776 491.966 1.812C492.026 1.846 492.073 1.893 492.107 1.953C492.143 2.011 492.161 2.076 492.161 2.148V2.61C492.161 2.682 492.143 2.748 492.107 2.808C492.073 2.866 492.026 2.913 491.966 2.949C491.906 2.983 491.841 3 491.771 3H490.391ZM492.491 3V0.84H494.471V1.164H492.818V1.758H494.147V2.082H492.818V2.676H494.471V3H492.491ZM495.172 3C495.1 3 495.034 2.983 494.974 2.949C494.916 2.913 494.869 2.866 494.833 2.808C494.799 2.748 494.782 2.682 494.782 2.61V1.23C494.782 1.158 494.799 1.093 494.833 1.035C494.869 0.975 494.916 0.928 494.974 0.894C495.034 0.858 495.1 0.84 495.172 0.84H496.936V1.164H495.217C495.185 1.164 495.158 1.175 495.136 1.197C495.116 1.217 495.106 1.243 495.106 1.275V2.565C495.106 2.597 495.116 2.624 495.136 2.646C495.158 2.666 495.185 2.676 495.217 2.676H496.936V3H495.172ZM498.059 3V1.164H497.141V0.84H499.301V1.164H498.383V3H498.059ZM499.909 3C499.837 3 499.771 2.983 499.711 2.949C499.653 2.913 499.606 2.866 499.57 2.808C499.536 2.748 499.519 2.682 499.519 2.61V1.23C499.519 1.158 499.536 1.093 499.57 1.035C499.606 0.975 499.653 0.928 499.711 0.894C499.771 0.858 499.837 0.84 499.909 0.84H501.289C501.359 0.84 501.424 0.858 501.484 0.894C501.544 0.928 501.591 0.975 501.625 1.035C501.661 1.093 501.679 1.158 501.679 1.23V2.61C501.679 2.682 501.661 2.748 501.625 2.808C501.591 2.866 501.544 2.913 501.484 2.949C501.424 2.983 501.359 3 501.289 3H499.909ZM499.918 2.676H501.28C501.3 2.676 501.317 2.669 501.331 2.655C501.345 2.639 501.352 2.621 501.352 2.601V1.239C501.352 1.219 501.345 1.202 501.331 1.188C501.317 1.172 501.3 1.164 501.28 1.164H499.918C499.898 1.164 499.88 1.172 499.864 1.188C499.85 1.202 499.843 1.219 499.843 1.239V2.601C499.843 2.621 499.85 2.639 499.864 2.655C499.88 2.669 499.898 2.676 499.918 2.676ZM503.78 3L503.105 2.193H503.528L504.158 2.94V3H503.78ZM502.01 3V0.843H503.777C503.849 0.843 503.915 0.861 503.975 0.897C504.035 0.933 504.082 0.981 504.116 1.041C504.152 1.099 504.17 1.163 504.17 1.233V1.839C504.17 1.911 504.152 1.977 504.116 2.037C504.082 2.095 504.035 2.142 503.975 2.178C503.915 2.212 503.849 2.229 503.777 2.229L502.334 2.232V3H502.01ZM502.409 1.902H503.771C503.791 1.902 503.808 1.895 503.822 1.881C503.836 1.867 503.843 1.85 503.843 1.83V1.242C503.843 1.222 503.836 1.205 503.822 1.191C503.808 1.175 503.791 1.167 503.771 1.167H502.409C502.389 1.167 502.371 1.175 502.355 1.191C502.341 1.205 502.334 1.222 502.334 1.242V1.83C502.334 1.85 502.341 1.867 502.355 1.881C502.371 1.895 502.389 1.902 502.409 1.902ZM505.362 3V0.84H507.342V1.164H505.689V1.758H507.018V2.082H505.689V2.676H507.342V3H505.362ZM507.652 3V0.84H508.039L509.485 2.562V0.84H509.812V3H509.425L507.976 1.275V3H507.652ZM510.154 3V1.23C510.154 1.158 510.171 1.093 510.205 1.035C510.241 0.975 510.288 0.928 510.346 0.894C510.406 0.858 510.472 0.84 510.544 0.84H511.921C511.993 0.84 512.059 0.858 512.119 0.894C512.179 0.928 512.226 0.975 512.26 1.035C512.296 1.093 512.314 1.158 512.314 1.23V3H511.987V2.244H510.478V3H510.154ZM510.478 1.92H511.987V1.239C511.987 1.219 511.98 1.202 511.966 1.188C511.952 1.172 511.935 1.164 511.915 1.164H510.553C510.533 1.164 510.515 1.172 510.499 1.188C510.485 1.202 510.478 1.219 510.478 1.239V1.92ZM512.665 3V0.84H514.345C514.415 0.84 514.48 0.858 514.54 0.894C514.6 0.928 514.647 0.975 514.681 1.035C514.717 1.093 514.735 1.158 514.735 1.23V1.671C514.735 1.697 514.732 1.723 514.726 1.749C514.722 1.775 514.714 1.799 514.702 1.821C514.742 1.877 514.772 1.93 514.792 1.98C514.814 2.028 514.825 2.077 514.825 2.127V2.61C514.825 2.682 514.807 2.748 514.771 2.808C514.737 2.866 514.69 2.913 514.63 2.949C514.57 2.983 514.504 3 514.432 3H512.665ZM513.064 2.676H514.426C514.446 2.676 514.463 2.669 514.477 2.655C514.491 2.639 514.498 2.621 514.498 2.601V2.136C514.498 2.116 514.491 2.099 514.477 2.085C514.463 2.069 514.446 2.061 514.426 2.061H513.064C513.044 2.061 513.026 2.069 513.01 2.085C512.996 2.099 512.989 2.116 512.989 2.136V2.601C512.989 2.621 512.996 2.639 513.01 2.655C513.026 2.669 513.044 2.676 513.064 2.676ZM513.064 1.737H514.336C514.356 1.737 514.373 1.73 514.387 1.716C514.401 1.7 514.408 1.682 514.408 1.662V1.239C514.408 1.219 514.401 1.202 514.387 1.188C514.373 1.172 514.356 1.164 514.336 1.164H513.064C513.044 1.164 513.026 1.172 513.01 1.188C512.996 1.202 512.989 1.219 512.989 1.239V1.662C512.989 1.682 512.996 1.7 513.01 1.716C513.026 1.73 513.044 1.737 513.064 1.737ZM515.155 3V0.837H515.479V2.676H517.315V3H515.155ZM517.496 3V0.84H519.476V1.164H517.823V1.758H519.152V2.082H517.823V2.676H519.476V3H517.496ZM519.793 3V0.84H521.56C521.632 0.84 521.698 0.858 521.758 0.894C521.818 0.928 521.865 0.975 521.899 1.035C521.935 1.093 521.953 1.158 521.953 1.23V2.61C521.953 2.682 521.935 2.748 521.899 2.808C521.865 2.866 521.818 2.913 521.758 2.949C521.698 2.983 521.632 3 521.56 3H519.793ZM520.189 2.676H521.554C521.574 2.676 521.591 2.669 521.605 2.655C521.619 2.639 521.626 2.621 521.626 2.601V1.239C521.626 1.219 521.619 1.202 521.605 1.188C521.591 1.172 521.574 1.164 521.554 1.164H520.189C520.169 1.164 520.152 1.172 520.138 1.188C520.124 1.202 520.117 1.219 520.117 1.239V2.601C520.117 2.621 520.124 2.639 520.138 2.655C520.152 2.669 520.169 2.676 520.189 2.676ZM523.009 3V2.628L524.464 0.855L524.539 0.84V1.206L523.084 2.982L523.009 3ZM524.574 3V2.628L526.029 0.855L526.104 0.84V1.206L524.649 2.982L524.574 3ZM526.138 3V2.628L527.593 0.855L527.668 0.84V1.206L526.213 2.982L526.138 3ZM529.101 3C529.031 3 528.966 2.983 528.906 2.949C528.846 2.913 528.798 2.866 528.762 2.808C528.728 2.748 528.711 2.682 528.711 2.61V2.484H529.035V2.601C529.035 2.621 529.042 2.639 529.056 2.655C529.072 2.669 529.09 2.676 529.11 2.676H530.472C530.492 2.676 530.509 2.669 530.523 2.655C530.537 2.639 530.544 2.621 530.544 2.601V2.157C530.544 2.135 530.537 2.117 530.523 2.103C530.509 2.089 530.492 2.082 530.472 2.082H529.101C529.031 2.082 528.966 2.065 528.906 2.031C528.846 1.995 528.798 1.948 528.762 1.89C528.728 1.83 528.711 1.764 528.711 1.692V1.23C528.711 1.158 528.728 1.093 528.762 1.035C528.798 0.975 528.846 0.928 528.906 0.894C528.966 0.858 529.031 0.84 529.101 0.84H530.481C530.551 0.84 530.616 0.858 530.676 0.894C530.736 0.928 530.783 0.975 530.817 1.035C530.853 1.093 530.871 1.158 530.871 1.23V1.356H530.544V1.239C530.544 1.219 530.537 1.202 530.523 1.188C530.509 1.172 530.492 1.164 530.472 1.164H529.11C529.09 1.164 529.072 1.172 529.056 1.188C529.042 1.202 529.035 1.219 529.035 1.239V1.683C529.035 1.705 529.042 1.723 529.056 1.737C529.072 1.751 529.09 1.758 529.11 1.758H530.481C530.551 1.758 530.616 1.776 530.676 1.812C530.736 1.846 530.783 1.893 530.817 1.953C530.853 2.011 530.871 2.076 530.871 2.148V2.61C530.871 2.682 530.853 2.748 530.817 2.808C530.783 2.866 530.736 2.913 530.676 2.949C530.616 2.983 530.551 3 530.481 3H529.101ZM531.573 3C531.503 3 531.438 2.983 531.378 2.949C531.318 2.913 531.27 2.866 531.234 2.808C531.2 2.748 531.183 2.682 531.183 2.61V2.484H531.507V2.601C531.507 2.621 531.514 2.639 531.528 2.655C531.544 2.669 531.562 2.676 531.582 2.676H532.944C532.964 2.676 532.981 2.669 532.995 2.655C533.009 2.639 533.016 2.621 533.016 2.601V2.157C533.016 2.135 533.009 2.117 532.995 2.103C532.981 2.089 532.964 2.082 532.944 2.082H531.573C531.503 2.082 531.438 2.065 531.378 2.031C531.318 1.995 531.27 1.948 531.234 1.89C531.2 1.83 531.183 1.764 531.183 1.692V1.23C531.183 1.158 531.2 1.093 531.234 1.035C531.27 0.975 531.318 0.928 531.378 0.894C531.438 0.858 531.503 0.84 531.573 0.84H532.953C533.023 0.84 533.088 0.858 533.148 0.894C533.208 0.928 533.255 0.975 533.289 1.035C533.325 1.093 533.343 1.158 533.343 1.23V1.356H533.016V1.239C533.016 1.219 533.009 1.202 532.995 1.188C532.981 1.172 532.964 1.164 532.944 1.164H531.582C531.562 1.164 531.544 1.172 531.528 1.188C531.514 1.202 531.507 1.219 531.507 1.239V1.683C531.507 1.705 531.514 1.723 531.528 1.737C531.544 1.751 531.562 1.758 531.582 1.758H532.953C533.023 1.758 533.088 1.776 533.148 1.812C533.208 1.846 533.255 1.893 533.289 1.953C533.325 2.011 533.343 2.076 533.343 2.148V2.61C533.343 2.682 533.325 2.748 533.289 2.808C533.255 2.866 533.208 2.913 533.148 2.949C533.088 2.983 533.023 3 532.953 3H531.573ZM533.668 3V0.84H534.055L534.892 1.836L535.726 0.84H536.116V3H535.789V1.275L534.892 2.343L533.992 1.275V3H533.668ZM538.221 3L537.546 2.193H537.969L538.599 2.94V3H538.221ZM536.451 3V0.843H538.218C538.29 0.843 538.356 0.861 538.416 0.897C538.476 0.933 538.523 0.981 538.557 1.041C538.593 1.099 538.611 1.163 538.611 1.233V1.839C538.611 1.911 538.593 1.977 538.557 2.037C538.523 2.095 538.476 2.142 538.416 2.178C538.356 2.212 538.29 2.229 538.218 2.229L536.775 2.232V3H536.451ZM536.85 1.902H538.212C538.232 1.902 538.249 1.895 538.263 1.881C538.277 1.867 538.284 1.85 538.284 1.83V1.242C538.284 1.222 538.277 1.205 538.263 1.191C538.249 1.175 538.232 1.167 538.212 1.167H536.85C536.83 1.167 536.812 1.175 536.796 1.191C536.782 1.205 536.775 1.222 536.775 1.242V1.83C536.775 1.85 536.782 1.867 536.796 1.881C536.812 1.895 536.83 1.902 536.85 1.902Z" fill="#EF4444"/>
</svg>
