<svg width="56" height="18" viewBox="0 0 56 18" fill="none" xmlns="http://www.w3.org/2000/svg">
<path d="M0.024 3V2.576L2.02 0.152L2.048 0.12V0.536L0.056 2.96L0.024 3ZM2.10994 3V2.576L4.10594 0.152L4.13394 0.12V0.536L2.14194 2.96L2.10994 3ZM4.40788 3V0.12H6.68388C6.77188 0.12 6.85188 0.141333 6.92388 0.184C6.99854 0.226667 7.05721 0.285333 7.09988 0.36C7.14254 0.432 7.16388 0.512 7.16388 0.6V1.212C7.16388 1.24933 7.15854 1.28667 7.14788 1.324C7.13988 1.35867 7.12788 1.392 7.11188 1.424C7.17054 1.512 7.21454 1.588 7.24388 1.652C7.27321 1.716 7.28788 1.78133 7.28788 1.848V2.52C7.28788 2.608 7.26654 2.68933 7.22388 2.764C7.18121 2.836 7.12254 2.89333 7.04788 2.936C6.97588 2.97867 6.89588 3 6.80788 3H4.40788ZM4.88788 2.676H6.80788C6.85054 2.676 6.88654 2.66133 6.91588 2.632C6.94788 2.6 6.96388 2.56267 6.96388 2.52V1.848C6.96388 1.80533 6.94788 1.76933 6.91588 1.74C6.88654 1.708 6.85054 1.692 6.80788 1.692H4.88788C4.84521 1.692 4.80788 1.708 4.77588 1.74C4.74654 1.76933 4.73188 1.80533 4.73188 1.848V2.52C4.73188 2.56267 4.74654 2.6 4.77588 2.632C4.80788 2.66133 4.84521 2.676 4.88788 2.676ZM4.88788 1.368H6.68388C6.72654 1.368 6.76254 1.35333 6.79188 1.324C6.82121 1.292 6.83588 1.25467 6.83588 1.212V0.6C6.83588 0.557333 6.82121 0.521333 6.79188 0.492C6.76254 0.46 6.72654 0.444 6.68388 0.444H4.88788C4.84521 0.444 4.80788 0.46 4.77588 0.492C4.74654 0.521333 4.73188 0.557333 4.73188 0.6V1.212C4.73188 1.25467 4.74654 1.292 4.77588 1.324C4.80788 1.35333 4.84521 1.368 4.88788 1.368ZM7.728 3V0.116H8.052V2.676H10.608V3H7.728ZM10.8492 3V0.6C10.8492 0.512 10.8705 0.432 10.9132 0.36C10.9559 0.285333 11.0132 0.226667 11.0852 0.184C11.1599 0.141333 11.2412 0.12 11.3292 0.12H13.2492C13.3372 0.12 13.4172 0.141333 13.4892 0.184C13.5639 0.226667 13.6225 0.285333 13.6652 0.36C13.7079 0.432 13.7292 0.512 13.7292 0.6V3H13.4052V1.948H11.1732V3H10.8492ZM11.1732 1.624H13.4052V0.6C13.4052 0.557333 13.3892 0.521333 13.3572 0.492C13.3279 0.46 13.2919 0.444 13.2492 0.444H11.3292C11.2865 0.444 11.2492 0.46 11.2172 0.492C11.1879 0.521333 11.1732 0.557333 11.1732 0.6V1.624ZM14.6649 3C14.5769 3 14.4956 2.97867 14.4209 2.936C14.3489 2.89333 14.2916 2.836 14.2489 2.764C14.2063 2.68933 14.1849 2.608 14.1849 2.52V0.6C14.1849 0.512 14.2063 0.432 14.2489 0.36C14.2916 0.285333 14.3489 0.226667 14.4209 0.184C14.4956 0.141333 14.5769 0.12 14.6649 0.12H17.0569V0.444H14.6649C14.6223 0.444 14.5849 0.46 14.5529 0.492C14.5236 0.521333 14.5089 0.557333 14.5089 0.6V2.52C14.5089 2.56267 14.5236 2.6 14.5529 2.632C14.5849 2.66133 14.6223 2.676 14.6649 2.676H17.0569V3H14.6649ZM17.478 3V0.12H17.806V1.396H18.734L19.806 0.12H20.222V0.124L19.018 1.56L20.226 2.996V3H19.806L18.734 1.724H17.806V3H17.478ZM20.6615 3V0.12H21.1055L23.2175 2.632V0.12H23.5415V3H23.0975L20.9855 0.488V3H20.6615ZM24.4616 3C24.3736 3 24.2923 2.97867 24.2176 2.936C24.1456 2.89333 24.0883 2.836 24.0456 2.764C24.003 2.68933 23.9816 2.608 23.9816 2.52V0.6C23.9816 0.512 24.003 0.432 24.0456 0.36C24.0883 0.285333 24.1456 0.226667 24.2176 0.184C24.2923 0.141333 24.3736 0.12 24.4616 0.12H26.3816C26.4696 0.12 26.5496 0.141333 26.6216 0.184C26.6963 0.226667 26.755 0.285333 26.7976 0.36C26.8403 0.432 26.8616 0.512 26.8616 0.6V2.52C26.8616 2.608 26.8403 2.68933 26.7976 2.764C26.755 2.836 26.6963 2.89333 26.6216 2.936C26.5496 2.97867 26.4696 3 26.3816 3H24.4616ZM24.4616 2.676H26.3816C26.4243 2.676 26.4603 2.66133 26.4896 2.632C26.5216 2.6 26.5376 2.56267 26.5376 2.52V0.6C26.5376 0.557333 26.5216 0.521333 26.4896 0.492C26.4603 0.46 26.4243 0.444 26.3816 0.444H24.4616C24.419 0.444 24.3816 0.46 24.3496 0.492C24.3203 0.521333 24.3056 0.557333 24.3056 0.6V2.52C24.3056 2.56267 24.3203 2.6 24.3496 2.632C24.3816 2.66133 24.419 2.676 24.4616 2.676ZM27.3101 3V0.12H29.7101C29.7981 0.12 29.8781 0.141333 29.9501 0.184C30.0248 0.226667 30.0835 0.285333 30.1261 0.36C30.1688 0.432 30.1901 0.512 30.1901 0.6V2.52C30.1901 2.608 30.1688 2.68933 30.1261 2.764C30.0835 2.836 30.0248 2.89333 29.9501 2.936C29.8781 2.97867 29.7981 3 29.7101 3H27.3101ZM27.7901 2.676H29.7101C29.7528 2.676 29.7888 2.66133 29.8181 2.632C29.8501 2.6 29.8661 2.56267 29.8661 2.52V0.6C29.8661 0.557333 29.8501 0.521333 29.8181 0.492C29.7888 0.46 29.7528 0.444 29.7101 0.444H27.7901C27.7475 0.444 27.7101 0.46 27.6781 0.492C27.6488 0.521333 27.6341 0.557333 27.6341 0.6V2.52C27.6341 2.56267 27.6488 2.6 27.6781 2.632C27.7101 2.66133 27.7475 2.676 27.7901 2.676ZM30.6461 3V0.12H33.2741V0.444H30.9701V1.396H32.8221V1.724H30.9701V2.676H33.2741V3H30.6461ZM33.5006 3V2.576L35.4966 0.152L35.5246 0.12V0.536L33.5326 2.96L33.5006 3ZM35.5865 3V2.576L37.5825 0.152L37.6105 0.12V0.536L35.6185 2.96L35.5865 3ZM2.656 8L1.716 6.88H2.14L3.084 7.996V8H2.656ZM0.224 8V5.124H2.624C2.712 5.124 2.792 5.14667 2.864 5.192C2.93867 5.23467 2.99733 5.292 3.04 5.364C3.08267 5.436 3.104 5.516 3.104 5.604V6.448C3.104 6.536 3.08267 6.616 3.04 6.688C2.99733 6.76 2.93867 6.81867 2.864 6.864C2.792 6.90667 2.712 6.928 2.624 6.928H0.548V8H0.224ZM0.704 6.6H2.624C2.66667 6.6 2.70267 6.58533 2.732 6.556C2.764 6.52667 2.78 6.49067 2.78 6.448V5.604C2.78 5.56133 2.764 5.52533 2.732 5.496C2.70267 5.464 2.66667 5.448 2.624 5.448H0.704C0.661333 5.448 0.624 5.464 0.592 5.496C0.562667 5.52533 0.548 5.56133 0.548 5.604V6.448C0.548 6.49067 0.562667 6.52667 0.592 6.556C0.624 6.58533 0.661333 6.6 0.704 6.6ZM4.00078 8C3.91011 8 3.82745 7.97867 3.75278 7.936C3.68078 7.89067 3.62211 7.832 3.57678 7.76C3.53411 7.68533 3.51278 7.604 3.51278 7.516V7.452H3.84478V7.516C3.84478 7.55867 3.85945 7.596 3.88878 7.628C3.92078 7.65733 3.95811 7.672 4.00078 7.672H5.94078C5.98345 7.672 6.01945 7.65733 6.04878 7.628C6.08078 7.596 6.09678 7.55867 6.09678 7.516V6.848C6.09678 6.80533 6.08078 6.76933 6.04878 6.74C6.01945 6.708 5.98345 6.692 5.94078 6.692H4.06478V6.364H5.81278C5.85545 6.364 5.89145 6.34933 5.92078 6.32C5.95278 6.288 5.96878 6.25067 5.96878 6.208V5.604C5.96878 5.56133 5.95278 5.52533 5.92078 5.496C5.89145 5.464 5.85545 5.448 5.81278 5.448H4.00078C3.95811 5.448 3.92078 5.464 3.88878 5.496C3.85945 5.52533 3.84478 5.56133 3.84478 5.604V5.708H3.51278V5.604C3.51278 5.51333 3.53411 5.432 3.57678 5.36C3.62211 5.28533 3.68078 5.22667 3.75278 5.184C3.82745 5.13867 3.91011 5.116 4.00078 5.116H5.81278C5.90345 5.116 5.98478 5.13867 6.05678 5.184C6.13145 5.22667 6.19011 5.28533 6.23278 5.36C6.27545 5.432 6.29678 5.51333 6.29678 5.604V6.208C6.29678 6.24533 6.29145 6.28267 6.28078 6.32C6.27278 6.35467 6.26211 6.38667 6.24878 6.416C6.31545 6.48 6.36078 6.55067 6.38478 6.628C6.41145 6.70533 6.42478 6.77867 6.42478 6.848V7.516C6.42478 7.604 6.40211 7.68533 6.35678 7.76C6.31411 7.832 6.25545 7.89067 6.18078 7.936C6.10878 7.97867 6.02878 8 5.94078 8H4.00078ZM6.83747 8V5.12H9.23747C9.32547 5.12 9.40547 5.14133 9.47747 5.184C9.55214 5.22667 9.6108 5.28533 9.65347 5.36C9.69614 5.432 9.71747 5.512 9.71747 5.6V7.52C9.71747 7.608 9.69614 7.68933 9.65347 7.764C9.6108 7.836 9.55214 7.89333 9.47747 7.936C9.40547 7.97867 9.32547 8 9.23747 8H6.83747ZM7.31747 7.676H9.23747C9.28014 7.676 9.31614 7.66133 9.34547 7.632C9.37747 7.6 9.39347 7.56267 9.39347 7.52V5.6C9.39347 5.55733 9.37747 5.52133 9.34547 5.492C9.31614 5.46 9.28014 5.444 9.23747 5.444H7.31747C7.2748 5.444 7.23747 5.46 7.20547 5.492C7.17614 5.52133 7.16147 5.55733 7.16147 5.6V7.52C7.16147 7.56267 7.17614 7.6 7.20547 7.632C7.23747 7.66133 7.2748 7.676 7.31747 7.676ZM10.1574 5.976V5.648H10.4854V5.976H10.1574ZM10.1574 8V7.672H10.4854V8H10.1574ZM11.4889 8C11.4195 8 11.3529 7.98667 11.2889 7.96C11.2275 7.93067 11.1742 7.892 11.1289 7.844C11.0835 7.79333 11.0502 7.736 11.0289 7.672H13.4289C13.4715 7.672 13.5075 7.65733 13.5369 7.628C13.5689 7.596 13.5849 7.55867 13.5849 7.516V6.936C13.5849 6.89333 13.5689 6.85733 13.5369 6.828C13.5075 6.796 13.4715 6.78 13.4289 6.78H11.4889C11.3982 6.78 11.3155 6.75867 11.2409 6.716C11.1689 6.67067 11.1102 6.612 11.0649 6.54C11.0222 6.46533 11.0009 6.384 11.0009 6.296V5.604C11.0009 5.51333 11.0222 5.432 11.0649 5.36C11.1102 5.28533 11.1689 5.22667 11.2409 5.184C11.3155 5.13867 11.3982 5.116 11.4889 5.116H13.4289C13.5169 5.116 13.5969 5.13867 13.6689 5.184C13.7435 5.22667 13.8022 5.28533 13.8449 5.36C13.8902 5.432 13.9129 5.51333 13.9129 5.604V7.516C13.9129 7.604 13.8902 7.68533 13.8449 7.76C13.8022 7.832 13.7435 7.89067 13.6689 7.936C13.5969 7.97867 13.5169 8 13.4289 8H11.4889ZM11.4889 6.452H13.5849V5.604C13.5849 5.56133 13.5689 5.52533 13.5369 5.496C13.5075 5.464 13.4715 5.448 13.4289 5.448H11.4889C11.4462 5.448 11.4089 5.464 11.3769 5.496C11.3475 5.52533 11.3329 5.56133 11.3329 5.604V6.296C11.3329 6.33867 11.3475 6.376 11.3769 6.408C11.4089 6.43733 11.4462 6.452 11.4889 6.452ZM14.8214 8C14.7307 8 14.648 7.97867 14.5734 7.936C14.5014 7.89067 14.444 7.832 14.4014 7.76C14.3587 7.68533 14.3374 7.604 14.3374 7.516V5.608C14.3374 5.51733 14.3587 5.436 14.4014 5.364C14.444 5.28933 14.5014 5.23067 14.5734 5.188C14.648 5.14267 14.7307 5.12 14.8214 5.12H16.7614C16.8494 5.12 16.9294 5.14267 17.0014 5.188C17.076 5.23067 17.1347 5.28933 17.1774 5.364C17.2227 5.436 17.2454 5.51733 17.2454 5.608V7.516C17.2454 7.604 17.2227 7.68533 17.1774 7.76C17.1347 7.832 17.076 7.89067 17.0014 7.936C16.9294 7.97867 16.8494 8 16.7614 8H14.8214ZM14.7054 7.672H16.7614C16.804 7.672 16.84 7.65733 16.8694 7.628C16.9014 7.596 16.9174 7.55867 16.9174 7.516V5.848L14.7054 7.672ZM14.6654 7.276L16.8734 5.452H14.8214C14.7787 5.452 14.7414 5.468 14.7094 5.5C14.68 5.52933 14.6654 5.56533 14.6654 5.608V7.276ZM18.1573 8C18.0666 8 17.984 7.97867 17.9093 7.936C17.8373 7.89067 17.78 7.832 17.7373 7.76C17.6946 7.68533 17.6733 7.604 17.6733 7.516V5.608C17.6733 5.51733 17.6946 5.436 17.7373 5.364C17.78 5.28933 17.8373 5.23067 17.9093 5.188C17.984 5.14267 18.0666 5.12 18.1573 5.12H20.0973C20.1853 5.12 20.2653 5.14267 20.3373 5.188C20.412 5.23067 20.4706 5.28933 20.5133 5.364C20.5586 5.436 20.5813 5.51733 20.5813 5.608V7.516C20.5813 7.604 20.5586 7.68533 20.5133 7.76C20.4706 7.832 20.412 7.89067 20.3373 7.936C20.2653 7.97867 20.1853 8 20.0973 8H18.1573ZM18.0413 7.672H20.0973C20.14 7.672 20.176 7.65733 20.2053 7.628C20.2373 7.596 20.2533 7.55867 20.2533 7.516V5.848L18.0413 7.672ZM18.0013 7.276L20.2093 5.452H18.1573C18.1146 5.452 18.0773 5.468 18.0453 5.5C18.016 5.52933 18.0013 5.56533 18.0013 5.608V7.276ZM21.6573 8V5.488L21.2133 6.02H20.7853L21.5413 5.12H21.9893V8H21.6573ZM22.5598 5.976V5.648H22.8878V5.976H22.5598ZM22.5598 8V7.672H22.8878V8H22.5598ZM23.4312 8V5.12H26.0592V5.444H23.7552V6.396H25.6072V6.724H23.7552V8H23.4312ZM28.7654 8L27.8254 6.88H28.2494L29.1934 7.996V8H28.7654ZM26.3334 8V5.124H28.7334C28.8214 5.124 28.9014 5.14667 28.9734 5.192C29.048 5.23467 29.1067 5.292 29.1494 5.364C29.192 5.436 29.2134 5.516 29.2134 5.604V6.448C29.2134 6.536 29.192 6.616 29.1494 6.688C29.1067 6.76 29.048 6.81867 28.9734 6.864C28.9014 6.90667 28.8214 6.928 28.7334 6.928H26.6574V8H26.3334ZM26.8134 6.6H28.7334C28.776 6.6 28.812 6.58533 28.8414 6.556C28.8734 6.52667 28.8894 6.49067 28.8894 6.448V5.604C28.8894 5.56133 28.8734 5.52533 28.8414 5.496C28.812 5.464 28.776 5.448 28.7334 5.448H26.8134C26.7707 5.448 26.7334 5.464 26.7014 5.496C26.672 5.52533 26.6574 5.56133 26.6574 5.604V6.448C26.6574 6.49067 26.672 6.52667 26.7014 6.556C26.7334 6.58533 26.7707 6.6 26.8134 6.6ZM29.6342 8V5.12H30.0782L32.1902 7.632V5.12H32.5142V8H32.0702L29.9582 5.488V8H29.6342ZM34.0983 8V5.444H32.8183V5.12H35.6983V5.444H34.4223V8H34.0983ZM35.9894 5.976V5.648H36.3174V5.976H35.9894ZM35.9894 8V7.672H36.3174V8H35.9894ZM38.6609 8V7.256H36.6529V6.888L38.6209 5.116H38.9889V6.928H39.4369V7.256H38.9889V8H38.6609ZM37.0729 6.928H38.6609V5.56L37.0729 6.928ZM40.2628 8C40.1721 8 40.0894 7.97867 40.0148 7.936C39.9428 7.89067 39.8854 7.832 39.8428 7.76C39.8001 7.68533 39.7788 7.604 39.7788 7.516V7.4H40.1068V7.516C40.1068 7.55867 40.1214 7.596 40.1508 7.628C40.1828 7.65733 40.2201 7.672 40.2628 7.672H42.2028C42.2454 7.672 42.2814 7.65733 42.3108 7.628C42.3428 7.596 42.3588 7.55867 42.3588 7.516V6.836C42.3588 6.79333 42.3428 6.75733 42.3108 6.728C42.2814 6.696 42.2454 6.68 42.2028 6.68H39.7788V5.116H42.6868V5.448H40.2628C40.2201 5.448 40.1828 5.464 40.1508 5.496C40.1214 5.52533 40.1068 5.56133 40.1068 5.604V6.192C40.1068 6.23467 40.1214 6.272 40.1508 6.304C40.1828 6.336 40.2201 6.352 40.2628 6.352H42.2028C42.2908 6.352 42.3708 6.37333 42.4428 6.416C42.5174 6.45867 42.5761 6.51733 42.6188 6.592C42.6641 6.664 42.6868 6.74533 42.6868 6.836V7.516C42.6868 7.604 42.6641 7.68533 42.6188 7.76C42.5761 7.832 42.5174 7.89067 42.4428 7.936C42.3708 7.97867 42.2908 8 42.2028 8H40.2628ZM43.5631 8C43.4938 8 43.4271 7.98667 43.3631 7.96C43.3018 7.93067 43.2484 7.892 43.2031 7.844C43.1578 7.79333 43.1244 7.736 43.1031 7.672H45.5031C45.5458 7.672 45.5818 7.65733 45.6111 7.628C45.6431 7.596 45.6591 7.55867 45.6591 7.516V6.936C45.6591 6.89333 45.6431 6.85733 45.6111 6.828C45.5818 6.796 45.5458 6.78 45.5031 6.78H43.5631C43.4724 6.78 43.3898 6.75867 43.3151 6.716C43.2431 6.67067 43.1844 6.612 43.1391 6.54C43.0964 6.46533 43.0751 6.384 43.0751 6.296V5.604C43.0751 5.51333 43.0964 5.432 43.1391 5.36C43.1844 5.28533 43.2431 5.22667 43.3151 5.184C43.3898 5.13867 43.4724 5.116 43.5631 5.116H45.5031C45.5911 5.116 45.6711 5.13867 45.7431 5.184C45.8178 5.22667 45.8764 5.28533 45.9191 5.36C45.9644 5.432 45.9871 5.51333 45.9871 5.604V7.516C45.9871 7.604 45.9644 7.68533 45.9191 7.76C45.8764 7.832 45.8178 7.89067 45.7431 7.936C45.6711 7.97867 45.5911 8 45.5031 8H43.5631ZM43.5631 6.452H45.6591V5.604C45.6591 5.56133 45.6431 5.52533 45.6111 5.496C45.5818 5.464 45.5458 5.448 45.5031 5.448H43.5631C43.5204 5.448 43.4831 5.464 43.4511 5.496C43.4218 5.52533 43.4071 5.56133 43.4071 5.604V6.296C43.4071 6.33867 43.4218 6.376 43.4511 6.408C43.4831 6.43733 43.5204 6.452 43.5631 6.452ZM46.4116 8V6.92C46.4116 6.82933 46.4329 6.748 46.4756 6.676C46.5183 6.60133 46.5756 6.54267 46.6476 6.5C46.7223 6.45733 46.8049 6.436 46.8956 6.436H48.8356C48.8783 6.436 48.9143 6.42133 48.9436 6.392C48.9756 6.36 48.9916 6.32267 48.9916 6.28V5.604C48.9916 5.56133 48.9756 5.52533 48.9436 5.496C48.9143 5.464 48.8783 5.448 48.8356 5.448H46.8956C46.8529 5.448 46.8156 5.464 46.7836 5.496C46.7543 5.52533 46.7396 5.56133 46.7396 5.604V5.716H46.4116V5.604C46.4116 5.51333 46.4329 5.432 46.4756 5.36C46.5183 5.28533 46.5756 5.22667 46.6476 5.184C46.7223 5.13867 46.8049 5.116 46.8956 5.116H48.8356C48.9236 5.116 49.0036 5.13867 49.0756 5.184C49.1503 5.22667 49.2089 5.28533 49.2516 5.36C49.2969 5.432 49.3196 5.51333 49.3196 5.604V6.28C49.3196 6.368 49.2969 6.44933 49.2516 6.524C49.2089 6.596 49.1503 6.65467 49.0756 6.7C49.0036 6.74267 48.9236 6.764 48.8356 6.764H46.8956C46.8529 6.764 46.8156 6.78 46.7836 6.812C46.7543 6.84133 46.7396 6.87733 46.7396 6.92V7.516C46.7396 7.55867 46.7543 7.596 46.7836 7.628C46.8156 7.65733 46.8529 7.672 46.8956 7.672H49.3196V8H46.4116ZM49.7199 5.976V5.648H50.0479V5.976H49.7199ZM49.7199 8V7.672H50.0479V8H49.7199ZM1.30584 10.976V10.648H1.63384V10.976H1.30584ZM1.30584 13V12.672H1.63384V13H1.30584ZM2.16131 10.976V10.648H2.48931V10.976H2.16131ZM2.16131 13V12.672H2.48931V13H2.16131ZM3.01678 10.976V10.648H3.34478V10.976H3.01678ZM3.01678 13V12.672H3.34478V13H3.01678ZM3.88825 13V10.12H6.28825C6.37625 10.12 6.45625 10.1413 6.52825 10.184C6.60292 10.2267 6.66158 10.2853 6.70425 10.36C6.74692 10.432 6.76825 10.512 6.76825 10.6V12.52C6.76825 12.608 6.74692 12.6893 6.70425 12.764C6.66158 12.836 6.60292 12.8933 6.52825 12.936C6.45625 12.9787 6.37625 13 6.28825 13H3.88825ZM4.36825 12.676H6.28825C6.33092 12.676 6.36692 12.6613 6.39625 12.632C6.42825 12.6 6.44425 12.5627 6.44425 12.52V10.6C6.44425 10.5573 6.42825 10.5213 6.39625 10.492C6.36692 10.46 6.33092 10.444 6.28825 10.444H4.36825C4.32558 10.444 4.28825 10.46 4.25625 10.492C4.22692 10.5213 4.21225 10.5573 4.21225 10.6V12.52C4.21225 12.5627 4.22692 12.6 4.25625 12.632C4.28825 12.6613 4.32558 12.676 4.36825 12.676ZM7.22419 13V10.6C7.22419 10.512 7.24552 10.432 7.28819 10.36C7.33085 10.2853 7.38819 10.2267 7.46019 10.184C7.53485 10.1413 7.61619 10.12 7.70419 10.12H9.62419C9.71219 10.12 9.79219 10.1413 9.86419 10.184C9.93885 10.2267 9.99752 10.2853 10.0402 10.36C10.0829 10.432 10.1042 10.512 10.1042 10.6V13H9.78019V11.948H7.54819V13H7.22419ZM7.54819 11.624H9.78019V10.6C9.78019 10.5573 9.76419 10.5213 9.73219 10.492C9.70285 10.46 9.66685 10.444 9.62419 10.444H7.70419C7.66152 10.444 7.62419 10.46 7.59219 10.492C7.56285 10.5213 7.54819 10.5573 7.54819 10.6V11.624ZM11.6959 13V10.444H10.4159V10.12H13.2959V10.444H12.0199V13H11.6959ZM13.6031 13V10.6C13.6031 10.512 13.6244 10.432 13.6671 10.36C13.7098 10.2853 13.7671 10.2267 13.8391 10.184C13.9138 10.1413 13.9951 10.12 14.0831 10.12H16.0031C16.0911 10.12 16.1711 10.1413 16.2431 10.184C16.3178 10.2267 16.3764 10.2853 16.4191 10.36C16.4618 10.432 16.4831 10.512 16.4831 10.6V13H16.1591V11.948H13.9271V13H13.6031ZM13.9271 11.624H16.1591V10.6C16.1591 10.5573 16.1431 10.5213 16.1111 10.492C16.0818 10.46 16.0458 10.444 16.0031 10.444H14.0831C14.0404 10.444 14.0031 10.46 13.9711 10.492C13.9418 10.5213 13.9271 10.5573 13.9271 10.6V11.624ZM16.9308 13.328V13H19.8428V13.328H16.9308ZM20.2593 13V10.12H22.8873V10.444H20.5833V11.396H22.4353V11.724H20.5833V13H20.2593ZM23.15 13V10.12H25.778V10.444H23.474V11.396H25.326V11.724H23.474V12.676H25.778V13H23.15ZM26.2125 13V10.12H28.8405V10.444H26.5365V11.396H28.3885V11.724H26.5365V12.676H28.8405V13H26.2125ZM29.275 13V10.12H31.675C31.763 10.12 31.843 10.1413 31.915 10.184C31.9896 10.2267 32.0483 10.2853 32.091 10.36C32.1336 10.432 32.155 10.512 32.155 10.6V12.52C32.155 12.608 32.1336 12.6893 32.091 12.764C32.0483 12.836 31.9896 12.8933 31.915 12.936C31.843 12.9787 31.763 13 31.675 13H29.275ZM29.755 12.676H31.675C31.7176 12.676 31.7536 12.6613 31.783 12.632C31.815 12.6 31.831 12.5627 31.831 12.52V10.6C31.831 10.5573 31.815 10.5213 31.783 10.492C31.7536 10.46 31.7176 10.444 31.675 10.444H29.755C29.7123 10.444 29.675 10.46 29.643 10.492C29.6136 10.5213 29.599 10.5573 29.599 10.6V12.52C29.599 12.5627 29.6136 12.6 29.643 12.632C29.675 12.6613 29.7123 12.676 29.755 12.676ZM32.5949 13.328V13H35.5069V13.328H32.5949ZM35.9234 13V10.6C35.9234 10.512 35.9447 10.432 35.9874 10.36C36.0301 10.2853 36.0874 10.2267 36.1594 10.184C36.2341 10.1413 36.3154 10.12 36.4034 10.12H38.3234C38.4114 10.12 38.4914 10.1413 38.5634 10.184C38.6381 10.2267 38.6967 10.2853 38.7394 10.36C38.7821 10.432 38.8034 10.512 38.8034 10.6V13H38.4794V11.948H36.2474V13H35.9234ZM36.2474 11.624H38.4794V10.6C38.4794 10.5573 38.4634 10.5213 38.4314 10.492C38.4021 10.46 38.3661 10.444 38.3234 10.444H36.4034C36.3607 10.444 36.3234 10.46 36.2914 10.492C36.2621 10.5213 36.2474 10.5573 36.2474 10.6V11.624ZM39.7392 13C39.6512 13 39.5698 12.9787 39.4952 12.936C39.4232 12.8933 39.3658 12.836 39.3232 12.764C39.2805 12.6893 39.2592 12.608 39.2592 12.52V10.6C39.2592 10.512 39.2805 10.432 39.3232 10.36C39.3658 10.2853 39.4232 10.2267 39.4952 10.184C39.5698 10.1413 39.6512 10.12 39.7392 10.12H42.1312V10.444H39.7392C39.6965 10.444 39.6592 10.46 39.6272 10.492C39.5978 10.5213 39.5832 10.5573 39.5832 10.6V12.52C39.5832 12.5627 39.5978 12.6 39.6272 12.632C39.6592 12.6613 39.6965 12.676 39.7392 12.676H42.1312V13H39.7392ZM43.6842 13V10.444H42.4042V10.12H45.2842V10.444H44.0082V13H43.6842ZM45.6234 13V10.12H45.9514V13H45.6234ZM48.0228 13L46.3548 10.12H46.7348L48.2108 12.684L49.6828 10.12H50.0628L48.3988 13H48.0228ZM50.4586 13V10.12H53.0866V10.444H50.7826V11.396H52.6346V11.724H50.7826V12.676H53.0866V13H50.4586ZM53.5051 10.976V10.648H53.8331V10.976H53.5051ZM53.5051 13V12.672H53.8331V13H53.5051ZM54.3605 10.976V10.648H54.6885V10.976H54.3605ZM54.3605 13V12.672H54.6885V13H54.3605ZM55.216 10.976V10.648H55.544V10.976H55.216ZM55.216 13V12.672H55.544V13H55.216ZM0.228 18V15.12H0.552V16.396H2.852V15.12H3.18V18H2.852V16.724H0.552V18H0.228ZM3.63434 18V15.12H6.26234V15.444H3.95834V16.396H5.81034V16.724H3.95834V17.676H6.26234V18H3.63434ZM6.64884 18V17.996L7.85684 16.56L6.64884 15.124V15.12H7.06484L8.06884 16.308L9.06884 15.12H9.48484V15.124L8.27684 16.56L9.48884 17.996V18H9.06884L8.06884 16.812L7.06484 18H6.64884ZM9.94694 16.98V16.652H11.5069V16.98H9.94694ZM14.4333 18L13.4933 16.88H13.9173L14.8613 17.996V18H14.4333ZM12.0013 18V15.124H14.4013C14.4893 15.124 14.5693 15.1467 14.6413 15.192C14.716 15.2347 14.7747 15.292 14.8173 15.364C14.86 15.436 14.8813 15.516 14.8813 15.604V16.448C14.8813 16.536 14.86 16.616 14.8173 16.688C14.7747 16.76 14.716 16.8187 14.6413 16.864C14.5693 16.9067 14.4893 16.928 14.4013 16.928H12.3253V18H12.0013ZM12.4813 16.6H14.4013C14.444 16.6 14.48 16.5853 14.5093 16.556C14.5413 16.5267 14.5573 16.4907 14.5573 16.448V15.604C14.5573 15.5613 14.5413 15.5253 14.5093 15.496C14.48 15.464 14.444 15.448 14.4013 15.448H12.4813C12.4387 15.448 12.4013 15.464 12.3693 15.496C12.34 15.5253 12.3253 15.5613 12.3253 15.604V16.448C12.3253 16.4907 12.34 16.5267 12.3693 16.556C12.4013 16.5853 12.4387 16.6 12.4813 16.6ZM15.7901 18C15.6995 18 15.6168 17.9787 15.5421 17.936C15.4701 17.8907 15.4128 17.832 15.3701 17.76C15.3275 17.6853 15.3061 17.604 15.3061 17.516V15.608C15.3061 15.5173 15.3275 15.436 15.3701 15.364C15.4128 15.2893 15.4701 15.2307 15.5421 15.188C15.6168 15.1427 15.6995 15.12 15.7901 15.12H17.7301C17.8181 15.12 17.8981 15.1427 17.9701 15.188C18.0448 15.2307 18.1035 15.2893 18.1461 15.364C18.1915 15.436 18.2141 15.5173 18.2141 15.608V17.516C18.2141 17.604 18.1915 17.6853 18.1461 17.76C18.1035 17.832 18.0448 17.8907 17.9701 17.936C17.8981 17.9787 17.8181 18 17.7301 18H15.7901ZM15.6741 17.672H17.7301C17.7728 17.672 17.8088 17.6573 17.8381 17.628C17.8701 17.596 17.8861 17.5587 17.8861 17.516V15.848L15.6741 17.672ZM15.6341 17.276L17.8421 15.452H15.7901C15.7475 15.452 15.7101 15.468 15.6781 15.5C15.6488 15.5293 15.6341 15.5653 15.6341 15.608V17.276ZM19.1261 18C19.0354 18 18.9527 17.9787 18.8781 17.936C18.8061 17.8907 18.7487 17.832 18.7061 17.76C18.6634 17.6853 18.6421 17.604 18.6421 17.516V15.608C18.6421 15.5173 18.6634 15.436 18.7061 15.364C18.7487 15.2893 18.8061 15.2307 18.8781 15.188C18.9527 15.1427 19.0354 15.12 19.1261 15.12H21.0661C21.1541 15.12 21.2341 15.1427 21.3061 15.188C21.3807 15.2307 21.4394 15.2893 21.4821 15.364C21.5274 15.436 21.5501 15.5173 21.5501 15.608V17.516C21.5501 17.604 21.5274 17.6853 21.4821 17.76C21.4394 17.832 21.3807 17.8907 21.3061 17.936C21.2341 17.9787 21.1541 18 21.0661 18H19.1261ZM19.0101 17.672H21.0661C21.1087 17.672 21.1447 17.6573 21.1741 17.628C21.2061 17.596 21.2221 17.5587 21.2221 17.516V15.848L19.0101 17.672ZM18.9701 17.276L21.1781 15.452H19.1261C19.0834 15.452 19.0461 15.468 19.0141 15.5C18.9847 15.5293 18.9701 15.5653 18.9701 15.608V17.276ZM23.11 18V15.444H21.83V15.12H24.71V15.444H23.434V18H23.11ZM25.0212 16.98V16.652H26.5812V16.98H25.0212ZM27.0876 18V15.12H29.3636C29.4516 15.12 29.5316 15.1413 29.6036 15.184C29.6782 15.2267 29.7369 15.2853 29.7796 15.36C29.8222 15.432 29.8436 15.512 29.8436 15.6V16.212C29.8436 16.2493 29.8382 16.2867 29.8276 16.324C29.8196 16.3587 29.8076 16.392 29.7916 16.424C29.8502 16.512 29.8942 16.588 29.9236 16.652C29.9529 16.716 29.9676 16.7813 29.9676 16.848V17.52C29.9676 17.608 29.9462 17.6893 29.9036 17.764C29.8609 17.836 29.8022 17.8933 29.7276 17.936C29.6556 17.9787 29.5756 18 29.4876 18H27.0876ZM27.5676 17.676H29.4876C29.5302 17.676 29.5662 17.6613 29.5956 17.632C29.6276 17.6 29.6436 17.5627 29.6436 17.52V16.848C29.6436 16.8053 29.6276 16.7693 29.5956 16.74C29.5662 16.708 29.5302 16.692 29.4876 16.692H27.5676C27.5249 16.692 27.4876 16.708 27.4556 16.74C27.4262 16.7693 27.4116 16.8053 27.4116 16.848V17.52C27.4116 17.5627 27.4262 17.6 27.4556 17.632C27.4876 17.6613 27.5249 17.676 27.5676 17.676ZM27.5676 16.368H29.3636C29.4062 16.368 29.4422 16.3533 29.4716 16.324C29.5009 16.292 29.5156 16.2547 29.5156 16.212V15.6C29.5156 15.5573 29.5009 15.5213 29.4716 15.492C29.4422 15.46 29.4062 15.444 29.3636 15.444H27.5676C27.5249 15.444 27.4876 15.46 27.4556 15.492C27.4262 15.5213 27.4116 15.5573 27.4116 15.6V16.212C27.4116 16.2547 27.4262 16.292 27.4556 16.324C27.4876 16.3533 27.5249 16.368 27.5676 16.368ZM30.4037 18V15.12H30.8477L32.9597 17.632V15.12H33.2837V18H32.8397L30.7277 15.488V18H30.4037ZM33.7398 18V15.12H36.1398C36.2278 15.12 36.3078 15.1413 36.3798 15.184C36.4545 15.2267 36.5131 15.2853 36.5558 15.36C36.5985 15.432 36.6198 15.512 36.6198 15.6V17.52C36.6198 17.608 36.5985 17.6893 36.5558 17.764C36.5131 17.836 36.4545 17.8933 36.3798 17.936C36.3078 17.9787 36.2278 18 36.1398 18H33.7398ZM34.2198 17.676H36.1398C36.1825 17.676 36.2185 17.6613 36.2478 17.632C36.2798 17.6 36.2958 17.5627 36.2958 17.52V15.6C36.2958 15.5573 36.2798 15.5213 36.2478 15.492C36.2185 15.46 36.1825 15.444 36.1398 15.444H34.2198C34.1771 15.444 34.1398 15.46 34.1078 15.492C34.0785 15.5213 34.0638 15.5573 34.0638 15.6V17.52C34.0638 17.5627 34.0785 17.6 34.1078 17.632C34.1398 17.6613 34.1771 17.676 34.2198 17.676ZM37.0798 16.98V16.652H38.6398V16.98H37.0798ZM39.6022 18C39.5328 18 39.4662 17.9867 39.4022 17.96C39.3408 17.9307 39.2875 17.892 39.2422 17.844C39.1968 17.7933 39.1635 17.736 39.1422 17.672H41.5422C41.5848 17.672 41.6208 17.6573 41.6502 17.628C41.6822 17.596 41.6982 17.5587 41.6982 17.516V16.936C41.6982 16.8933 41.6822 16.8573 41.6502 16.828C41.6208 16.796 41.5848 16.78 41.5422 16.78H39.6022C39.5115 16.78 39.4288 16.7587 39.3542 16.716C39.2822 16.6707 39.2235 16.612 39.1782 16.54C39.1355 16.4653 39.1142 16.384 39.1142 16.296V15.604C39.1142 15.5133 39.1355 15.432 39.1782 15.36C39.2235 15.2853 39.2822 15.2267 39.3542 15.184C39.4288 15.1387 39.5115 15.116 39.6022 15.116H41.5422C41.6302 15.116 41.7102 15.1387 41.7822 15.184C41.8568 15.2267 41.9155 15.2853 41.9582 15.36C42.0035 15.432 42.0262 15.5133 42.0262 15.604V17.516C42.0262 17.604 42.0035 17.6853 41.9582 17.76C41.9155 17.832 41.8568 17.8907 41.7822 17.936C41.7102 17.9787 41.6302 18 41.5422 18H39.6022ZM39.6022 16.452H41.6982V15.604C41.6982 15.5613 41.6822 15.5253 41.6502 15.496C41.6208 15.464 41.5848 15.448 41.5422 15.448H39.6022C39.5595 15.448 39.5222 15.464 39.4902 15.496C39.4608 15.5253 39.4462 15.5613 39.4462 15.604V16.296C39.4462 16.3387 39.4608 16.376 39.4902 16.408C39.5222 16.4373 39.5595 16.452 39.6022 16.452ZM42.9147 18C42.8453 18 42.7787 17.9867 42.7147 17.96C42.6533 17.9307 42.6 17.892 42.5547 17.844C42.5093 17.7933 42.476 17.736 42.4547 17.672H44.8547C44.8973 17.672 44.9333 17.6573 44.9627 17.628C44.9947 17.596 45.0107 17.5587 45.0107 17.516V16.936C45.0107 16.8933 44.9947 16.8573 44.9627 16.828C44.9333 16.796 44.8973 16.78 44.8547 16.78H42.9147C42.824 16.78 42.7413 16.7587 42.6667 16.716C42.5947 16.6707 42.536 16.612 42.4907 16.54C42.448 16.4653 42.4267 16.384 42.4267 16.296V15.604C42.4267 15.5133 42.448 15.432 42.4907 15.36C42.536 15.2853 42.5947 15.2267 42.6667 15.184C42.7413 15.1387 42.824 15.116 42.9147 15.116H44.8547C44.9427 15.116 45.0227 15.1387 45.0947 15.184C45.1693 15.2267 45.228 15.2853 45.2707 15.36C45.316 15.432 45.3387 15.5133 45.3387 15.604V17.516C45.3387 17.604 45.316 17.6853 45.2707 17.76C45.228 17.832 45.1693 17.8907 45.0947 17.936C45.0227 17.9787 44.9427 18 44.8547 18H42.9147ZM42.9147 16.452H45.0107V15.604C45.0107 15.5613 44.9947 15.5253 44.9627 15.496C44.9333 15.464 44.8973 15.448 44.8547 15.448H42.9147C42.872 15.448 42.8347 15.464 42.8027 15.496C42.7733 15.5253 42.7587 15.5613 42.7587 15.604V16.296C42.7587 16.3387 42.7733 16.376 42.8027 16.408C42.8347 16.4373 42.872 16.452 42.9147 16.452ZM47.5672 18V17.256H45.5592V16.888L47.5272 15.116H47.8952V16.928H48.3432V17.256H47.8952V18H47.5672ZM45.9792 16.928H47.5672V15.56L45.9792 16.928ZM49.169 18C49.0784 18 48.9957 17.9787 48.921 17.936C48.849 17.8907 48.7917 17.832 48.749 17.76C48.7064 17.6853 48.685 17.604 48.685 17.516V17.4H49.013V17.516C49.013 17.5587 49.0277 17.596 49.057 17.628C49.089 17.6573 49.1264 17.672 49.169 17.672H51.109C51.1517 17.672 51.1877 17.6573 51.217 17.628C51.249 17.596 51.265 17.5587 51.265 17.516V16.836C51.265 16.7933 51.249 16.7573 51.217 16.728C51.1877 16.696 51.1517 16.68 51.109 16.68H48.685V15.116H51.593V15.448H49.169C49.1264 15.448 49.089 15.464 49.057 15.496C49.0277 15.5253 49.013 15.5613 49.013 15.604V16.192C49.013 16.2347 49.0277 16.272 49.057 16.304C49.089 16.336 49.1264 16.352 49.169 16.352H51.109C51.197 16.352 51.277 16.3733 51.349 16.416C51.4237 16.4587 51.4824 16.5173 51.525 16.592C51.5704 16.664 51.593 16.7453 51.593 16.836V17.516C51.593 17.604 51.5704 17.6853 51.525 17.76C51.4824 17.832 51.4237 17.8907 51.349 17.936C51.277 17.9787 51.197 18 51.109 18H49.169Z" fill="#EB2941"/>
</svg>
