<svg width="59" height="8" viewBox="0 0 59 8" fill="none" xmlns="http://www.w3.org/2000/svg">
<path d="M0 1H14L20 7H39L45 1H59" stroke="#EB2941"/>
<path d="M20.3347 4H20.1847C20.1587 4 20.1497 3.986 20.1577 3.958L20.7187 2.113C20.7267 2.085 20.7457 2.071 20.7757 2.071H20.9917C21.0217 2.071 21.0407 2.085 21.0487 2.113L21.6097 3.958C21.6177 3.986 21.6087 4 21.5827 4H21.4297C21.4077 4 21.3937 3.986 21.3877 3.958L21.2467 3.52H20.5207L20.3797 3.958C20.3717 3.986 20.3567 4 20.3347 4ZM20.8777 2.296L20.5687 3.334H21.1987L20.8897 2.296H20.8777ZM21.9548 4H21.8048C21.7788 4 21.7698 3.986 21.7778 3.958L22.3388 2.113C22.3468 2.085 22.3658 2.071 22.3958 2.071H22.6118C22.6418 2.071 22.6608 2.085 22.6688 2.113L23.2298 3.958C23.2378 3.986 23.2288 4 23.2028 4H23.0498C23.0278 4 23.0138 3.986 23.0078 3.958L22.8668 3.52H22.1408L21.9998 3.958C21.9918 3.986 21.9768 4 21.9548 4ZM22.4978 2.296L22.1888 3.334H22.8188L22.5098 2.296H22.4978ZM24.8497 3.133H24.2377C24.2097 3.133 24.1957 3.119 24.1957 3.091V2.992C24.1957 2.964 24.2097 2.95 24.2377 2.95H24.8497C24.8777 2.95 24.8917 2.964 24.8917 2.992V3.091C24.8917 3.119 24.8777 3.133 24.8497 3.133ZM26.399 3.058H26.882V2.524C26.882 2.35 26.798 2.263 26.63 2.263H26.399C26.233 2.263 26.15 2.35 26.15 2.524V2.8C26.15 2.972 26.233 3.058 26.399 3.058ZM26.657 4H26.066C26.036 4 26.021 3.986 26.021 3.958V3.847C26.021 3.821 26.036 3.808 26.066 3.808H26.63C26.798 3.808 26.882 3.721 26.882 3.547V3.25H26.372C26.236 3.25 26.128 3.211 26.048 3.133C25.97 3.055 25.931 2.947 25.931 2.809V2.515C25.931 2.377 25.97 2.269 26.048 2.191C26.128 2.111 26.236 2.071 26.372 2.071H26.657C26.795 2.071 26.903 2.111 26.981 2.191C27.059 2.269 27.098 2.377 27.098 2.515V3.556C27.098 3.696 27.059 3.805 26.981 3.883C26.903 3.961 26.795 4 26.657 4ZM27.9436 3.808H28.2076C28.3756 3.808 28.4596 3.724 28.4596 3.556V3.376C28.4596 3.204 28.3756 3.118 28.2076 3.118H27.9436C27.7756 3.118 27.6916 3.204 27.6916 3.376V3.556C27.6916 3.724 27.7756 3.808 27.9436 3.808ZM27.9436 2.941H28.2076C28.3756 2.941 28.4596 2.854 28.4596 2.68V2.515C28.4596 2.347 28.3756 2.263 28.2076 2.263H27.9436C27.7756 2.263 27.6916 2.347 27.6916 2.515V2.68C27.6916 2.854 27.7756 2.941 27.9436 2.941ZM28.2346 4H27.9166C27.7786 4 27.6706 3.963 27.5926 3.889C27.5146 3.813 27.4756 3.707 27.4756 3.571V3.388C27.4756 3.208 27.5456 3.088 27.6856 3.028C27.5456 2.974 27.4756 2.854 27.4756 2.668V2.5C27.4756 2.362 27.5146 2.256 27.5926 2.182C27.6706 2.108 27.7786 2.071 27.9166 2.071H28.2346C28.3726 2.071 28.4806 2.108 28.5586 2.182C28.6366 2.256 28.6756 2.362 28.6756 2.5V2.668C28.6756 2.76 28.6566 2.838 28.6186 2.902C28.5806 2.964 28.5296 3.006 28.4656 3.028C28.6056 3.086 28.6756 3.207 28.6756 3.391V3.571C28.6756 3.707 28.6366 3.813 28.5586 3.889C28.4806 3.963 28.3726 4 28.2346 4ZM29.0367 3.958V3.688C29.0367 3.554 29.0927 3.444 29.2047 3.358L29.7837 2.902C29.8837 2.826 29.9337 2.732 29.9337 2.62V2.512C29.9337 2.342 29.8477 2.257 29.6757 2.257H29.4927C29.3247 2.257 29.2407 2.342 29.2407 2.512V2.635C29.2407 2.665 29.2267 2.68 29.1987 2.68H29.0637C29.0377 2.68 29.0247 2.665 29.0247 2.635V2.509C29.0247 2.371 29.0637 2.264 29.1417 2.188C29.2197 2.11 29.3277 2.071 29.4657 2.071H29.7057C29.8437 2.071 29.9517 2.11 30.0297 2.188C30.1077 2.264 30.1467 2.371 30.1467 2.509V2.632C30.1467 2.788 30.0847 2.915 29.9607 3.013L29.3727 3.478C29.3067 3.53 29.2737 3.593 29.2737 3.667V3.805H30.1107C30.1387 3.805 30.1527 3.819 30.1527 3.847V3.958C30.1527 3.986 30.1387 4 30.1107 4H29.0787C29.0507 4 29.0367 3.986 29.0367 3.958ZM30.982 2.938H31.156C31.326 2.938 31.411 2.853 31.411 2.683V2.512C31.411 2.342 31.326 2.257 31.156 2.257H30.949C30.781 2.257 30.697 2.342 30.697 2.512V2.608C30.697 2.638 30.683 2.653 30.655 2.653H30.52C30.492 2.653 30.478 2.638 30.478 2.608V2.509C30.478 2.371 30.517 2.264 30.595 2.188C30.675 2.11 30.784 2.071 30.922 2.071H31.183C31.321 2.071 31.429 2.11 31.507 2.188C31.587 2.264 31.627 2.371 31.627 2.509V2.686C31.627 2.864 31.545 2.979 31.381 3.031C31.545 3.073 31.627 3.187 31.627 3.373V3.562C31.627 3.7 31.587 3.808 31.507 3.886C31.429 3.962 31.321 4 31.183 4H30.922C30.784 4 30.675 3.962 30.595 3.886C30.517 3.808 30.478 3.7 30.478 3.562V3.442C30.478 3.412 30.492 3.397 30.52 3.397H30.655C30.683 3.397 30.697 3.412 30.697 3.442V3.559C30.697 3.729 30.781 3.814 30.949 3.814H31.156C31.326 3.814 31.411 3.729 31.411 3.559V3.376C31.411 3.206 31.326 3.121 31.156 3.121H30.982C30.954 3.121 30.94 3.107 30.94 3.079V2.98C30.94 2.952 30.954 2.938 30.982 2.938ZM32.7907 3.556V3.46C32.7907 3.432 32.8047 3.418 32.8327 3.418H32.9677C32.9957 3.418 33.0097 3.432 33.0097 3.46V3.538C33.0097 3.718 33.0987 3.808 33.2767 3.808H33.5407C33.7187 3.808 33.8077 3.716 33.8077 3.532V3.43C33.8077 3.286 33.6887 3.192 33.4507 3.148C33.3507 3.13 33.2507 3.109 33.1507 3.085C33.0507 3.061 32.9657 3.015 32.8957 2.947C32.8257 2.877 32.7907 2.782 32.7907 2.662V2.515C32.7907 2.377 32.8297 2.269 32.9077 2.191C32.9877 2.111 33.0967 2.071 33.2347 2.071H33.5677C33.7037 2.071 33.8117 2.111 33.8917 2.191C33.9717 2.269 34.0117 2.377 34.0117 2.515V2.59C34.0117 2.62 33.9987 2.635 33.9727 2.635H33.8347C33.8087 2.635 33.7957 2.62 33.7957 2.59V2.536C33.7957 2.354 33.7067 2.263 33.5287 2.263H33.2737C33.0957 2.263 33.0067 2.358 33.0067 2.548V2.668C33.0067 2.77 33.0737 2.84 33.2077 2.878C33.2677 2.894 33.3337 2.909 33.4057 2.923C33.4777 2.935 33.5497 2.952 33.6217 2.974C33.6957 2.994 33.7627 3.02 33.8227 3.052C33.8827 3.082 33.9307 3.129 33.9667 3.193C34.0047 3.255 34.0237 3.331 34.0237 3.421V3.556C34.0237 3.694 33.9837 3.803 33.9037 3.883C33.8237 3.961 33.7157 4 33.5797 4H33.2347C33.0987 4 32.9907 3.961 32.9107 3.883C32.8307 3.803 32.7907 3.694 32.7907 3.556ZM35.4598 4H34.5178C34.4898 4 34.4758 3.986 34.4758 3.958V2.113C34.4758 2.085 34.4898 2.071 34.5178 2.071H35.4598C35.4878 2.071 35.5018 2.085 35.5018 2.113V2.221C35.5018 2.249 35.4878 2.263 35.4598 2.263H34.7248C34.7048 2.263 34.6948 2.272 34.6948 2.29V2.896C34.6948 2.914 34.7048 2.923 34.7248 2.923H35.3668C35.3948 2.923 35.4088 2.937 35.4088 2.965V3.073C35.4088 3.101 35.3948 3.115 35.3668 3.115H34.7248C34.7048 3.115 34.6948 3.124 34.6948 3.142V3.781C34.6948 3.799 34.7048 3.808 34.7248 3.808H35.4598C35.4878 3.808 35.5018 3.822 35.5018 3.85V3.958C35.5018 3.986 35.4878 4 35.4598 4ZM36.6912 4H36.3312C36.1932 4 36.0842 3.961 36.0042 3.883C35.9262 3.805 35.8872 3.696 35.8872 3.556V2.515C35.8872 2.375 35.9262 2.266 36.0042 2.188C36.0842 2.11 36.1932 2.071 36.3312 2.071H36.6912C36.8292 2.071 36.9372 2.11 37.0152 2.188C37.0952 2.266 37.1352 2.375 37.1352 2.515V2.662C37.1352 2.69 37.1212 2.704 37.0932 2.704H36.9582C36.9302 2.704 36.9162 2.69 36.9162 2.662V2.524C36.9162 2.35 36.8322 2.263 36.6642 2.263H36.3552C36.1892 2.263 36.1062 2.35 36.1062 2.524V3.547C36.1062 3.721 36.1892 3.808 36.3552 3.808H36.6642C36.8322 3.808 36.9162 3.721 36.9162 3.547V3.409C36.9162 3.381 36.9302 3.367 36.9582 3.367H37.0932C37.1212 3.367 37.1352 3.381 37.1352 3.409V3.556C37.1352 3.696 37.0952 3.805 37.0152 3.883C36.9372 3.961 36.8292 4 36.6912 4ZM38.3142 4H37.9542C37.8162 4 37.7072 3.961 37.6272 3.883C37.5492 3.805 37.5102 3.696 37.5102 3.556V2.515C37.5102 2.375 37.5492 2.266 37.6272 2.188C37.7072 2.11 37.8162 2.071 37.9542 2.071H38.3142C38.4522 2.071 38.5602 2.11 38.6382 2.188C38.7182 2.266 38.7582 2.375 38.7582 2.515V2.662C38.7582 2.69 38.7442 2.704 38.7162 2.704H38.5812C38.5532 2.704 38.5392 2.69 38.5392 2.662V2.524C38.5392 2.35 38.4552 2.263 38.2872 2.263H37.9782C37.8122 2.263 37.7292 2.35 37.7292 2.524V3.547C37.7292 3.721 37.8122 3.808 37.9782 3.808H38.2872C38.4552 3.808 38.5392 3.721 38.5392 3.547V3.409C38.5392 3.381 38.5532 3.367 38.5812 3.367H38.7162C38.7442 3.367 38.7582 3.381 38.7582 3.409V3.556C38.7582 3.696 38.7182 3.805 38.6382 3.883C38.5602 3.961 38.4522 4 38.3142 4Z" fill="#EB2941"/>
<path d="M0 3H14" stroke="#EB2941" stroke-opacity="0.8"/>
<path d="M59 3H45" stroke="#EB2941" stroke-opacity="0.8"/>
<path d="M0 5H16" stroke="#EB2941" stroke-opacity="0.6"/>
<path d="M59 5H43" stroke="#EB2941" stroke-opacity="0.6"/>
<path d="M0 7H18" stroke="#EB2941" stroke-opacity="0.4"/>
<path d="M59 7H41" stroke="#EB2941" stroke-opacity="0.4"/>
</svg>
