<svg width="69" height="37" viewBox="0 0 69 37" fill="none" xmlns="http://www.w3.org/2000/svg">
<path d="M0.5 6.5L22.5 28.5H67" stroke="#EF4444" stroke-opacity="0.8"/>
<path d="M69 26.5H23.5L1 4L4 1H69" stroke="#EF4444"/>
<path d="M0.5 9.5L21.5 30.5H65" stroke="#EF4444" stroke-opacity="0.6"/>
<path d="M0.5 12.5L20.5 32.5H63" stroke="#EF4444" stroke-opacity="0.4"/>
<path d="M0.5 15.5L19.5 34.5H61" stroke="#EF4444" stroke-opacity="0.2"/>
<path d="M0.5 18.5L18.5 36.5H59" stroke="#EF4444" stroke-opacity="0.05"/>
<path d="M10.9349 7V4.124H13.3349C13.4229 4.124 13.5029 4.14667 13.5749 4.192C13.6496 4.23467 13.7083 4.292 13.7509 4.364C13.7936 4.436 13.8149 4.516 13.8149 4.604V5.448C13.8149 5.536 13.7936 5.616 13.7509 5.688C13.7083 5.76 13.6496 5.81867 13.5749 5.864C13.5029 5.90667 13.4229 5.928 13.3349 5.928H11.2589V7H10.9349ZM11.4149 5.6H13.3349C13.3776 5.6 13.4136 5.58533 13.4429 5.556C13.4749 5.52667 13.4909 5.49067 13.4909 5.448V4.604C13.4909 4.56133 13.4749 4.52533 13.4429 4.496C13.4136 4.464 13.3776 4.448 13.3349 4.448H11.4149C11.3723 4.448 11.3349 4.464 11.3029 4.496C11.2736 4.52533 11.2589 4.56133 11.2589 4.604V5.448C11.2589 5.49067 11.2736 5.52667 11.3029 5.556C11.3349 5.58533 11.3723 5.6 11.4149 5.6ZM14.563 7C14.475 7 14.3937 6.97867 14.319 6.936C14.247 6.89067 14.1883 6.832 14.143 6.76C14.1003 6.68533 14.079 6.604 14.079 6.516V5.164C14.079 5.076 14.1003 4.996 14.143 4.924C14.1883 4.84933 14.247 4.79067 14.319 4.748C14.3937 4.70267 14.475 4.68 14.563 4.68H15.955C16.0457 4.68 16.127 4.70267 16.199 4.748C16.2737 4.79067 16.3323 4.84933 16.375 4.924C16.4203 4.996 16.443 5.076 16.443 5.164V6.516C16.443 6.604 16.4203 6.68533 16.375 6.76C16.3323 6.832 16.2737 6.89067 16.199 6.936C16.127 6.97867 16.0457 7 15.955 7H14.563ZM14.563 6.672H15.955C15.9977 6.672 16.0337 6.65733 16.063 6.628C16.095 6.596 16.111 6.55867 16.111 6.516V5.164C16.111 5.12133 16.095 5.08533 16.063 5.056C16.0337 5.024 15.9977 5.008 15.955 5.008H14.563C14.5203 5.008 14.483 5.024 14.451 5.056C14.4217 5.08533 14.407 5.12133 14.407 5.164V6.516C14.407 6.55867 14.4217 6.596 14.451 6.628C14.483 6.65733 14.5203 6.672 14.563 6.672ZM17.5559 7L16.6439 4.68H16.9959L17.6999 6.408L18.4479 4.68H18.8799L19.6759 6.404L20.3319 4.68H20.6879L19.8119 7H19.5279L18.6639 5.084L17.8439 7H17.5559ZM21.3482 7C21.2602 7 21.1788 6.97867 21.1042 6.936C21.0322 6.89067 20.9735 6.832 20.9282 6.76C20.8855 6.68533 20.8642 6.604 20.8642 6.516V5.164C20.8642 5.076 20.8855 4.996 20.9282 4.924C20.9735 4.84933 21.0322 4.79067 21.1042 4.748C21.1788 4.70267 21.2602 4.68 21.3482 4.68H22.7402C22.8308 4.68 22.9122 4.70267 22.9842 4.748C23.0588 4.79067 23.1175 4.84933 23.1602 4.924C23.2055 4.996 23.2282 5.076 23.2282 5.164V6.004H21.1922V6.516C21.1922 6.55867 21.2068 6.596 21.2362 6.628C21.2682 6.65733 21.3055 6.672 21.3482 6.672H23.2282V7H21.3482ZM21.1922 5.676H22.8962V5.164C22.8962 5.12133 22.8802 5.08533 22.8482 5.056C22.8188 5.024 22.7828 5.008 22.7402 5.008H21.3482C21.3055 5.008 21.2682 5.024 21.2362 5.056C21.2068 5.08533 21.1922 5.12133 21.1922 5.164V5.676ZM23.6182 7V5.164C23.6182 5.076 23.6395 4.996 23.6822 4.924C23.7275 4.84933 23.7862 4.79067 23.8582 4.748C23.9328 4.70267 24.0142 4.68 24.1022 4.68H25.4062V5.008H24.1022C24.0595 5.008 24.0222 5.024 23.9902 5.056C23.9608 5.08533 23.9462 5.12133 23.9462 5.164V7H23.6182ZM26.145 7C26.057 7 25.9757 6.97867 25.901 6.936C25.829 6.89067 25.7704 6.832 25.725 6.76C25.6824 6.68533 25.661 6.604 25.661 6.516V5.164C25.661 5.076 25.6824 4.996 25.725 4.924C25.7704 4.84933 25.829 4.79067 25.901 4.748C25.9757 4.70267 26.057 4.68 26.145 4.68H27.537C27.6277 4.68 27.709 4.70267 27.781 4.748C27.8557 4.79067 27.9144 4.84933 27.957 4.924C28.0024 4.996 28.025 5.076 28.025 5.164V6.004H25.989V6.516C25.989 6.55867 26.0037 6.596 26.033 6.628C26.065 6.65733 26.1024 6.672 26.145 6.672H28.025V7H26.145ZM25.989 5.676H27.693V5.164C27.693 5.12133 27.677 5.08533 27.645 5.056C27.6157 5.024 27.5797 5.008 27.537 5.008H26.145C26.1024 5.008 26.065 5.024 26.033 5.056C26.0037 5.08533 25.989 5.12133 25.989 5.164V5.676ZM28.8066 7C28.7159 7 28.6332 6.97867 28.5586 6.936C28.4866 6.89067 28.4279 6.832 28.3826 6.76C28.3399 6.68533 28.3186 6.604 28.3186 6.516V5.164C28.3186 5.076 28.3399 4.996 28.3826 4.924C28.4279 4.84933 28.4866 4.79067 28.5586 4.748C28.6332 4.70267 28.7159 4.68 28.8066 4.68H30.3546V3.92H30.6826V7H28.8066ZM28.8066 6.672H30.1986C30.2412 6.672 30.2772 6.65733 30.3066 6.628C30.3386 6.596 30.3546 6.55867 30.3546 6.516V5.164C30.3546 5.12133 30.3386 5.08533 30.3066 5.056C30.2772 5.024 30.2412 5.008 30.1986 5.008H28.8066C28.7639 5.008 28.7266 5.024 28.6946 5.056C28.6652 5.08533 28.6506 5.12133 28.6506 5.164V6.516C28.6506 6.55867 28.6652 6.596 28.6946 6.628C28.7266 6.65733 28.7639 6.672 28.8066 6.672ZM33.0364 7L32.1244 4.68H32.4764L33.1804 6.408L33.9284 4.68H34.3604L35.1564 6.404L35.8124 4.68H36.1684L35.2924 7H35.0084L34.1444 5.084L33.3244 7H33.0364ZM36.4775 7V4.68H36.8055V7H36.4775ZM36.4775 4.248V3.92H36.8055V4.248H36.4775ZM37.7976 7C37.7069 7 37.6242 6.97867 37.5496 6.936C37.4776 6.89067 37.4202 6.832 37.3776 6.76C37.3349 6.68533 37.3136 6.604 37.3136 6.516V3.92H37.6416V4.68H38.6456V5.008H37.6416V6.516C37.6416 6.55867 37.6562 6.596 37.6856 6.628C37.7176 6.65733 37.7549 6.672 37.7976 6.672H38.6456V7H37.7976ZM38.9777 7V3.92H39.3057V4.68H40.8577C40.9457 4.68 41.0257 4.70267 41.0977 4.748C41.1724 4.79067 41.2311 4.84933 41.2737 4.924C41.3191 4.996 41.3417 5.076 41.3417 5.164V7H41.0137V5.164C41.0137 5.12133 40.9977 5.08533 40.9657 5.056C40.9364 5.024 40.9004 5.008 40.8577 5.008H39.4657C39.4231 5.008 39.3857 5.024 39.3537 5.056C39.3217 5.08533 39.3057 5.12133 39.3057 5.164V7H38.9777ZM43.2194 7C43.1314 7 43.0501 6.97867 42.9754 6.936C42.9034 6.89333 42.8461 6.836 42.8034 6.764C42.7608 6.68933 42.7394 6.608 42.7394 6.52V4.6C42.7394 4.512 42.7608 4.432 42.8034 4.36C42.8461 4.28533 42.9034 4.22667 42.9754 4.184C43.0501 4.14133 43.1314 4.12 43.2194 4.12H45.1394C45.2274 4.12 45.3074 4.14133 45.3794 4.184C45.4541 4.22667 45.5128 4.28533 45.5554 4.36C45.5981 4.432 45.6194 4.512 45.6194 4.6V6.52C45.6194 6.608 45.5981 6.68933 45.5554 6.764C45.5128 6.836 45.4541 6.89333 45.3794 6.936C45.3074 6.97867 45.2274 7 45.1394 7H43.2194ZM43.2194 6.676H45.1394C45.1821 6.676 45.2181 6.66133 45.2474 6.632C45.2794 6.6 45.2954 6.56267 45.2954 6.52V4.6C45.2954 4.55733 45.2794 4.52133 45.2474 4.492C45.2181 4.46 45.1821 4.444 45.1394 4.444H43.2194C43.1768 4.444 43.1394 4.46 43.1074 4.492C43.0781 4.52133 43.0634 4.55733 43.0634 4.6V6.52C43.0634 6.56267 43.0781 6.6 43.1074 6.632C43.1394 6.66133 43.1768 6.676 43.2194 6.676ZM46.0519 7V4.68H49.1159C49.2066 4.68 49.2879 4.70267 49.3599 4.748C49.4346 4.79067 49.4933 4.84933 49.5359 4.924C49.5786 4.996 49.5999 5.076 49.5999 5.164V7H49.2759V5.164C49.2759 5.12133 49.2599 5.08533 49.2279 5.056C49.1959 5.024 49.1586 5.008 49.1159 5.008H48.1519C48.1093 5.008 48.0719 5.024 48.0399 5.056C48.0106 5.08533 47.9959 5.12133 47.9959 5.164V7H47.6639V5.164C47.6639 5.12133 47.6479 5.08533 47.6159 5.056C47.5866 5.024 47.5506 5.008 47.5079 5.008H46.5399C46.4973 5.008 46.4599 5.024 46.4279 5.056C46.3986 5.08533 46.3839 5.12133 46.3839 5.164V7H46.0519ZM49.9621 7V4.68H51.8421C51.9301 4.68 52.0101 4.70267 52.0821 4.748C52.1568 4.79067 52.2154 4.84933 52.2581 4.924C52.3034 4.996 52.3261 5.076 52.3261 5.164V7H51.9981V5.164C51.9981 5.12133 51.9821 5.08533 51.9501 5.056C51.9208 5.024 51.8848 5.008 51.8421 5.008H50.4501C50.4074 5.008 50.3701 5.024 50.3381 5.056C50.3061 5.08533 50.2901 5.12133 50.2901 5.164V7H49.9621ZM52.7393 7V4.68H53.0673V7H52.7393ZM52.7393 4.248V3.92H53.0673V4.248H52.7393ZM54.0393 7C53.9513 7 53.8699 6.97867 53.7953 6.936C53.7233 6.89067 53.6646 6.832 53.6193 6.76C53.5766 6.68533 53.5553 6.604 53.5553 6.516V6.484H53.8833V6.516C53.8833 6.55867 53.8979 6.596 53.9273 6.628C53.9593 6.65733 53.9966 6.672 54.0393 6.672H55.4313C55.4739 6.672 55.5099 6.65733 55.5393 6.628C55.5713 6.596 55.5873 6.55867 55.5873 6.516V6.16C55.5873 6.11733 55.5713 6.08133 55.5393 6.052C55.5099 6.02 55.4739 6.004 55.4313 6.004H54.0393C53.9513 6.004 53.8699 5.98267 53.7953 5.94C53.7233 5.89467 53.6646 5.836 53.6193 5.764C53.5766 5.68933 53.5553 5.608 53.5553 5.52V5.164C53.5553 5.076 53.5766 4.996 53.6193 4.924C53.6646 4.84933 53.7233 4.79067 53.7953 4.748C53.8699 4.70267 53.9513 4.68 54.0393 4.68H55.4313C55.5219 4.68 55.6033 4.70267 55.6753 4.748C55.7499 4.79067 55.8086 4.84933 55.8513 4.924C55.8966 4.996 55.9193 5.076 55.9193 5.164V5.196H55.5873V5.164C55.5873 5.12133 55.5713 5.08533 55.5393 5.056C55.5099 5.024 55.4739 5.008 55.4313 5.008H54.0393C53.9966 5.008 53.9593 5.024 53.9273 5.056C53.8979 5.08533 53.8833 5.12133 53.8833 5.164V5.52C53.8833 5.56267 53.8979 5.6 53.9273 5.632C53.9593 5.66133 53.9966 5.676 54.0393 5.676H55.4313C55.5219 5.676 55.6033 5.69867 55.6753 5.744C55.7499 5.78667 55.8086 5.84533 55.8513 5.92C55.8966 5.992 55.9193 6.072 55.9193 6.16V6.516C55.9193 6.604 55.8966 6.68533 55.8513 6.76C55.8086 6.832 55.7499 6.89067 55.6753 6.936C55.6033 6.97867 55.5219 7 55.4313 7H54.0393ZM56.3215 7.92V4.68H58.2015C58.2895 4.68 58.3695 4.70267 58.4415 4.748C58.5161 4.79067 58.5748 4.84933 58.6175 4.924C58.6628 4.996 58.6855 5.076 58.6855 5.164V6.516C58.6855 6.604 58.6628 6.68533 58.6175 6.76C58.5748 6.832 58.5161 6.89067 58.4415 6.936C58.3695 6.97867 58.2895 7 58.2015 7H56.6495V7.92H56.3215ZM56.8095 6.672H58.2015C58.2441 6.672 58.2801 6.65733 58.3095 6.628C58.3415 6.596 58.3575 6.55867 58.3575 6.516V5.164C58.3575 5.12133 58.3415 5.08533 58.3095 5.056C58.2801 5.024 58.2441 5.008 58.2015 5.008H56.8095C56.7668 5.008 56.7295 5.024 56.6975 5.056C56.6655 5.08533 56.6495 5.12133 56.6495 5.164V6.516C56.6495 6.55867 56.6655 6.596 56.6975 6.628C56.7295 6.65733 56.7668 6.672 56.8095 6.672ZM58.9777 7V3.92H59.3057V4.68H60.8577C60.9457 4.68 61.0257 4.70267 61.0977 4.748C61.1724 4.79067 61.2311 4.84933 61.2737 4.924C61.3191 4.996 61.3417 5.076 61.3417 5.164V7H61.0137V5.164C61.0137 5.12133 60.9977 5.08533 60.9657 5.056C60.9364 5.024 60.9004 5.008 60.8577 5.008H59.4657C59.4231 5.008 59.3857 5.024 59.3537 5.056C59.3217 5.08533 59.3057 5.12133 59.3057 5.164V7H58.9777ZM62.1216 7C62.0336 7 61.9523 6.97867 61.8776 6.936C61.8056 6.89067 61.7469 6.832 61.7016 6.76C61.6589 6.68533 61.6376 6.604 61.6376 6.516V5.164C61.6376 5.076 61.6589 4.996 61.7016 4.924C61.7469 4.84933 61.8056 4.79067 61.8776 4.748C61.9523 4.70267 62.0336 4.68 62.1216 4.68H63.5136C63.6043 4.68 63.6856 4.70267 63.7576 4.748C63.8323 4.79067 63.8909 4.84933 63.9336 4.924C63.9789 4.996 64.0016 5.076 64.0016 5.164V6.004H61.9656V6.516C61.9656 6.55867 61.9803 6.596 62.0096 6.628C62.0416 6.65733 62.0789 6.672 62.1216 6.672H64.0016V7H62.1216ZM61.9656 5.676H63.6696V5.164C63.6696 5.12133 63.6536 5.08533 63.6216 5.056C63.5923 5.024 63.5563 5.008 63.5136 5.008H62.1216C62.0789 5.008 62.0416 5.024 62.0096 5.056C61.9803 5.08533 61.9656 5.12133 61.9656 5.164V5.676ZM64.3916 7V5.164C64.3916 5.076 64.4129 4.996 64.4556 4.924C64.5009 4.84933 64.5596 4.79067 64.6316 4.748C64.7063 4.70267 64.7876 4.68 64.8756 4.68H66.1796V5.008H64.8756C64.8329 5.008 64.7956 5.024 64.7636 5.056C64.7343 5.08533 64.7196 5.12133 64.7196 5.164V7H64.3916ZM66.9185 7C66.8305 7 66.7491 6.97867 66.6745 6.936C66.6025 6.89067 66.5438 6.832 66.4985 6.76C66.4558 6.68533 66.4345 6.604 66.4345 6.516V5.164C66.4345 5.076 66.4558 4.996 66.4985 4.924C66.5438 4.84933 66.6025 4.79067 66.6745 4.748C66.7491 4.70267 66.8305 4.68 66.9185 4.68H68.3105C68.4011 4.68 68.4825 4.70267 68.5545 4.748C68.6291 4.79067 68.6878 4.84933 68.7305 4.924C68.7758 4.996 68.7985 5.076 68.7985 5.164V6.004H66.7625V6.516C66.7625 6.55867 66.7771 6.596 66.8065 6.628C66.8385 6.65733 66.8758 6.672 66.9185 6.672H68.7985V7H66.9185ZM66.7625 5.676H68.4665V5.164C68.4665 5.12133 68.4505 5.08533 68.4185 5.056C68.3891 5.024 68.3531 5.008 68.3105 5.008H66.9185C66.8758 5.008 66.8385 5.024 66.8065 5.056C66.7771 5.08533 66.7625 5.12133 66.7625 5.164V5.676Z" fill="#EB2941"/>
<path d="M55.7305 11.47H55.8235C55.8435 11.47 55.8565 11.482 55.8625 11.506L56.2645 12.832H56.2765L56.6755 11.506C56.6835 11.482 56.6965 11.47 56.7145 11.47H56.8105C56.8325 11.47 56.8395 11.482 56.8315 11.506L56.3785 12.964C56.3725 12.988 56.3585 13 56.3365 13H56.2045C56.1825 13 56.1675 12.988 56.1595 12.964L55.7065 11.506C55.7005 11.482 55.7085 11.47 55.7305 11.47ZM57.0745 12.967V12.703C57.0745 12.563 57.1345 12.448 57.2545 12.358L57.8455 11.908C57.9475 11.83 57.9985 11.73 57.9985 11.608V11.491C57.9985 11.299 57.9035 11.203 57.7135 11.203H57.4975C57.3095 11.203 57.2155 11.299 57.2155 11.491V11.626C57.2155 11.65 57.2045 11.662 57.1825 11.662H57.0955C57.0735 11.662 57.0625 11.65 57.0625 11.626V11.488C57.0625 11.358 57.1005 11.256 57.1765 11.182C57.2525 11.108 57.3555 11.071 57.4855 11.071H57.7285C57.8585 11.071 57.9605 11.108 58.0345 11.182C58.1105 11.254 58.1485 11.356 58.1485 11.488V11.614C58.1485 11.77 58.0855 11.896 57.9595 11.992L57.3625 12.451C57.2785 12.515 57.2365 12.594 57.2365 12.688V12.862H58.1245C58.1465 12.862 58.1575 12.873 58.1575 12.895V12.967C58.1575 12.989 58.1465 13 58.1245 13H57.1105C57.0865 13 57.0745 12.989 57.0745 12.967ZM58.6961 12.607V12.964C58.6961 12.988 58.6861 13 58.6661 13H58.5611C58.5391 13 58.5281 12.988 58.5281 12.964V12.607C58.5281 12.585 58.5391 12.574 58.5611 12.574H58.6661C58.6861 12.574 58.6961 12.585 58.6961 12.607ZM59.0094 11.434V11.368C59.0094 11.342 59.0214 11.321 59.0454 11.305L59.4234 11.092C59.4434 11.078 59.4644 11.071 59.4864 11.071H59.5644C59.5864 11.071 59.5974 11.083 59.5974 11.107V12.964C59.5974 12.988 59.5864 13 59.5644 13H59.4774C59.4574 13 59.4474 12.988 59.4474 12.964V11.233L59.0604 11.452C59.0264 11.474 59.0094 11.468 59.0094 11.434ZM60.0335 12.967V12.703C60.0335 12.563 60.0935 12.448 60.2135 12.358L60.8045 11.908C60.9065 11.83 60.9575 11.73 60.9575 11.608V11.491C60.9575 11.299 60.8625 11.203 60.6725 11.203H60.4565C60.2685 11.203 60.1745 11.299 60.1745 11.491V11.626C60.1745 11.65 60.1635 11.662 60.1415 11.662H60.0545C60.0325 11.662 60.0215 11.65 60.0215 11.626V11.488C60.0215 11.358 60.0595 11.256 60.1355 11.182C60.2115 11.108 60.3145 11.071 60.4445 11.071H60.6875C60.8175 11.071 60.9195 11.108 60.9935 11.182C61.0695 11.254 61.1075 11.356 61.1075 11.488V11.614C61.1075 11.77 61.0445 11.896 60.9185 11.992L60.3215 12.451C60.2375 12.515 60.1955 12.594 60.1955 12.688V12.862H61.0835C61.1055 12.862 61.1165 12.873 61.1165 12.895V12.967C61.1165 12.989 61.1055 13 61.0835 13H60.0695C60.0455 13 60.0335 12.989 60.0335 12.967ZM62.4789 11.866V12.223C62.4789 12.247 62.4689 12.259 62.4489 12.259H62.3439C62.3219 12.259 62.3109 12.247 62.3109 12.223V11.866C62.3109 11.842 62.3219 11.83 62.3439 11.83H62.4489C62.4689 11.83 62.4789 11.842 62.4789 11.866ZM63.9418 12.868H64.4998C64.6898 12.868 64.7848 12.772 64.7848 12.58V12.373C64.7848 12.183 64.6808 12.088 64.4728 12.088H63.9418C63.9218 12.088 63.9118 12.096 63.9118 12.112V12.841C63.9118 12.859 63.9218 12.868 63.9418 12.868ZM63.9418 11.956H64.4698C64.5638 11.956 64.6358 11.931 64.6858 11.881C64.7378 11.831 64.7638 11.76 64.7638 11.668V11.491C64.7638 11.299 64.6688 11.203 64.4788 11.203H63.9418C63.9218 11.203 63.9118 11.212 63.9118 11.23V11.929C63.9118 11.947 63.9218 11.956 63.9418 11.956ZM63.7618 12.964V11.107C63.7618 11.083 63.7718 11.071 63.7918 11.071H64.4908C64.6208 11.071 64.7238 11.108 64.7998 11.182C64.8758 11.256 64.9138 11.358 64.9138 11.488V11.671C64.9138 11.853 64.8278 11.97 64.6558 12.022C64.7298 12.026 64.7948 12.06 64.8508 12.124C64.9068 12.188 64.9348 12.271 64.9348 12.373V12.583C64.9348 12.713 64.8968 12.815 64.8208 12.889C64.7448 12.963 64.6418 13 64.5118 13H63.7918C63.7718 13 63.7618 12.988 63.7618 12.964ZM65.9245 12.106H65.3005C65.2765 12.106 65.2645 12.095 65.2645 12.073V12.007C65.2645 11.985 65.2765 11.974 65.3005 11.974H65.9245C65.9485 11.974 65.9605 11.985 65.9605 12.007V12.073C65.9605 12.095 65.9485 12.106 65.9245 12.106ZM66.7541 11.962H66.9341C67.1241 11.962 67.2191 11.867 67.2191 11.677V11.491C67.2191 11.299 67.1241 11.203 66.9341 11.203H66.7031C66.5131 11.203 66.4181 11.299 66.4181 11.491V11.599C66.4181 11.621 66.4081 11.632 66.3881 11.632H66.3011C66.2791 11.632 66.2681 11.621 66.2681 11.599V11.488C66.2681 11.358 66.3061 11.256 66.3821 11.182C66.4581 11.108 66.5611 11.071 66.6911 11.071H66.9461C67.0761 11.071 67.1791 11.108 67.2551 11.182C67.3311 11.256 67.3691 11.358 67.3691 11.488V11.68C67.3691 11.864 67.2861 11.98 67.1201 12.028C67.2861 12.074 67.3691 12.191 67.3691 12.379V12.583C67.3691 12.713 67.3311 12.815 67.2551 12.889C67.1791 12.963 67.0761 13 66.9461 13H66.6911C66.5611 13 66.4581 12.963 66.3821 12.889C66.3061 12.815 66.2681 12.713 66.2681 12.583V12.448C66.2681 12.424 66.2791 12.412 66.3011 12.412H66.3881C66.4081 12.412 66.4181 12.424 66.4181 12.448V12.58C66.4181 12.772 66.5131 12.868 66.7031 12.868H66.9341C67.1241 12.868 67.2191 12.772 67.2191 12.58V12.382C67.2191 12.19 67.1241 12.094 66.9341 12.094H66.7541C66.7321 12.094 66.7211 12.083 66.7211 12.061V11.995C66.7211 11.973 66.7321 11.962 66.7541 11.962ZM67.7474 12.967V12.703C67.7474 12.563 67.8074 12.448 67.9274 12.358L68.5184 11.908C68.6204 11.83 68.6714 11.73 68.6714 11.608V11.491C68.6714 11.299 68.5764 11.203 68.3864 11.203H68.1704C67.9824 11.203 67.8884 11.299 67.8884 11.491V11.626C67.8884 11.65 67.8774 11.662 67.8554 11.662H67.7684C67.7464 11.662 67.7354 11.65 67.7354 11.626V11.488C67.7354 11.358 67.7734 11.256 67.8494 11.182C67.9254 11.108 68.0284 11.071 68.1584 11.071H68.4014C68.5314 11.071 68.6334 11.108 68.7074 11.182C68.7834 11.254 68.8214 11.356 68.8214 11.488V11.614C68.8214 11.77 68.7584 11.896 68.6324 11.992L68.0354 12.451C67.9514 12.515 67.9094 12.594 67.9094 12.688V12.862H68.7974C68.8194 12.862 68.8304 12.873 68.8304 12.895V12.967C68.8304 12.989 68.8194 13 68.7974 13H67.7834C67.7594 13 67.7474 12.989 67.7474 12.967ZM20.3142 17H19.3602C19.3402 17 19.3302 16.988 19.3302 16.964V15.107C19.3302 15.083 19.3402 15.071 19.3602 15.071H19.4472C19.4692 15.071 19.4802 15.083 19.4802 15.107V16.832C19.4802 16.85 19.4902 16.859 19.5102 16.859H20.3142C20.3382 16.859 20.3502 16.87 20.3502 16.892V16.967C20.3502 16.989 20.3382 17 20.3142 17ZM20.6687 15.218V14.93C20.6687 14.908 20.6787 14.897 20.6987 14.897H20.7887C20.8087 14.897 20.8187 14.908 20.8187 14.93V15.218C20.8187 15.242 20.8087 15.254 20.7887 15.254H20.6987C20.6787 15.254 20.6687 15.242 20.6687 15.218ZM20.6687 16.964V15.506C20.6687 15.482 20.6787 15.47 20.6987 15.47H20.7857C20.8077 15.47 20.8187 15.482 20.8187 15.506V16.964C20.8187 16.988 20.8087 17 20.7887 17H20.6987C20.6787 17 20.6687 16.988 20.6687 16.964ZM21.4006 17H21.3136C21.2936 17 21.2836 16.988 21.2836 16.964V15.506C21.2836 15.482 21.2936 15.47 21.3136 15.47H21.4006C21.4226 15.47 21.4336 15.482 21.4336 15.506V15.626H21.4456C21.5036 15.522 21.6096 15.47 21.7636 15.47H21.8866C22.0626 15.47 22.1846 15.54 22.2526 15.68C22.2826 15.61 22.3336 15.558 22.4056 15.524C22.4776 15.488 22.5516 15.47 22.6276 15.47H22.7386C22.8686 15.47 22.9706 15.508 23.0446 15.584C23.1186 15.66 23.1556 15.764 23.1556 15.896V16.964C23.1556 16.988 23.1446 17 23.1226 17H23.0356C23.0136 17 23.0026 16.988 23.0026 16.964V15.902C23.0026 15.806 22.9786 15.733 22.9306 15.683C22.8826 15.631 22.8126 15.605 22.7206 15.605H22.6096C22.5136 15.605 22.4376 15.633 22.3816 15.689C22.3256 15.743 22.2976 15.817 22.2976 15.911V16.964C22.2976 16.988 22.2866 17 22.2646 17H22.1776C22.1556 17 22.1446 16.988 22.1446 16.964V15.902C22.1446 15.806 22.1206 15.733 22.0726 15.683C22.0246 15.631 21.9546 15.605 21.8626 15.605H21.7426C21.6466 15.605 21.5706 15.631 21.5146 15.683C21.4606 15.733 21.4336 15.805 21.4336 15.899V16.964C21.4336 16.988 21.4226 17 21.4006 17ZM23.6043 15.218V14.93C23.6043 14.908 23.6143 14.897 23.6343 14.897H23.7243C23.7443 14.897 23.7543 14.908 23.7543 14.93V15.218C23.7543 15.242 23.7443 15.254 23.7243 15.254H23.6343C23.6143 15.254 23.6043 15.242 23.6043 15.218ZM23.6043 16.964V15.506C23.6043 15.482 23.6143 15.47 23.6343 15.47H23.7213C23.7433 15.47 23.7543 15.482 23.7543 15.506V16.964C23.7543 16.988 23.7443 17 23.7243 17H23.6343C23.6143 17 23.6043 16.988 23.6043 16.964ZM24.2851 15.605H24.1021C24.0801 15.605 24.0691 15.595 24.0691 15.575V15.503C24.0691 15.481 24.0801 15.47 24.1021 15.47H24.2851C24.3031 15.47 24.3121 15.461 24.3121 15.443V15.2C24.3121 15.176 24.3231 15.164 24.3451 15.164H24.4321C24.4541 15.164 24.4651 15.176 24.4651 15.2V15.443C24.4651 15.461 24.4741 15.47 24.4921 15.47H24.8491C24.8711 15.47 24.8821 15.481 24.8821 15.503V15.575C24.8821 15.595 24.8711 15.605 24.8491 15.605H24.4921C24.4741 15.605 24.4651 15.614 24.4651 15.632V16.577C24.4651 16.669 24.4911 16.74 24.5431 16.79C24.5951 16.84 24.6681 16.865 24.7621 16.865H24.8791C24.9011 16.865 24.9121 16.876 24.9121 16.898V16.967C24.9121 16.989 24.9011 17 24.8791 17H24.7501C24.6181 17 24.5121 16.963 24.4321 16.889C24.3521 16.815 24.3121 16.713 24.3121 16.583V15.632C24.3121 15.614 24.3031 15.605 24.2851 15.605ZM26.2762 17H25.6492C25.5192 17 25.4162 16.962 25.3402 16.886C25.2662 16.81 25.2292 16.706 25.2292 16.574V15.896C25.2292 15.764 25.2662 15.66 25.3402 15.584C25.4162 15.508 25.5192 15.47 25.6492 15.47H25.9072C26.0372 15.47 26.1402 15.508 26.2162 15.584C26.2922 15.66 26.3302 15.764 26.3302 15.896V16.277C26.3302 16.301 26.3182 16.313 26.2942 16.313H25.4062C25.3882 16.313 25.3792 16.322 25.3792 16.34V16.571C25.3792 16.665 25.4032 16.738 25.4512 16.79C25.4992 16.84 25.5692 16.865 25.6612 16.865H26.2762C26.2982 16.865 26.3092 16.876 26.3092 16.898V16.967C26.3092 16.989 26.2982 17 26.2762 17ZM25.4062 16.193H26.1532C26.1712 16.193 26.1802 16.184 26.1802 16.166V15.899C26.1802 15.805 26.1562 15.733 26.1082 15.683C26.0602 15.631 25.9902 15.605 25.8982 15.605H25.6612C25.5692 15.605 25.4992 15.631 25.4512 15.683C25.4032 15.733 25.3792 15.805 25.3792 15.899V16.166C25.3792 16.184 25.3882 16.193 25.4062 16.193ZM27.3207 17H27.1197C26.9917 17 26.8907 16.962 26.8167 16.886C26.7427 16.81 26.7057 16.706 26.7057 16.574V15.896C26.7057 15.764 26.7427 15.66 26.8167 15.584C26.8907 15.508 26.9917 15.47 27.1197 15.47H27.3207C27.4747 15.47 27.5797 15.522 27.6357 15.626H27.6477V14.927C27.6477 14.903 27.6577 14.891 27.6777 14.891H27.7647C27.7867 14.891 27.7977 14.903 27.7977 14.927V16.964C27.7977 16.988 27.7867 17 27.7647 17H27.6777C27.6577 17 27.6477 16.988 27.6477 16.964V16.844H27.6357C27.5797 16.948 27.4747 17 27.3207 17ZM27.6477 16.571V15.899C27.6477 15.805 27.6197 15.733 27.5637 15.683C27.5097 15.631 27.4347 15.605 27.3387 15.605H27.1377C27.0457 15.605 26.9757 15.631 26.9277 15.683C26.8797 15.735 26.8557 15.808 26.8557 15.902V16.568C26.8557 16.662 26.8797 16.735 26.9277 16.787C26.9757 16.839 27.0457 16.865 27.1377 16.865H27.3387C27.4347 16.865 27.5097 16.84 27.5637 16.79C27.6197 16.738 27.6477 16.665 27.6477 16.571ZM29.1643 17.447H29.0773C29.0573 17.447 29.0473 17.436 29.0473 17.414V15.506C29.0473 15.482 29.0573 15.47 29.0773 15.47H29.1643C29.1863 15.47 29.1973 15.482 29.1973 15.506V15.626H29.2093C29.2653 15.522 29.3693 15.47 29.5213 15.47H29.7253C29.8533 15.47 29.9543 15.508 30.0283 15.584C30.1023 15.66 30.1393 15.764 30.1393 15.896V16.574C30.1393 16.706 30.1023 16.81 30.0283 16.886C29.9543 16.962 29.8533 17 29.7253 17H29.5213C29.3693 17 29.2653 16.948 29.2093 16.844H29.1973V17.414C29.1973 17.436 29.1863 17.447 29.1643 17.447ZM29.5063 16.865H29.7043C29.7963 16.865 29.8663 16.84 29.9143 16.79C29.9643 16.738 29.9893 16.664 29.9893 16.568V15.902C29.9893 15.806 29.9643 15.733 29.9143 15.683C29.8663 15.631 29.7963 15.605 29.7043 15.605H29.5063C29.4103 15.605 29.3343 15.631 29.2783 15.683C29.2243 15.733 29.1973 15.805 29.1973 15.899V16.571C29.1973 16.665 29.2243 16.738 29.2783 16.79C29.3343 16.84 29.4103 16.865 29.5063 16.865ZM31.141 17H30.949C30.819 17 30.716 16.962 30.64 16.886C30.566 16.81 30.529 16.706 30.529 16.574V15.896C30.529 15.764 30.566 15.66 30.64 15.584C30.716 15.508 30.819 15.47 30.949 15.47H31.585C31.605 15.47 31.615 15.482 31.615 15.506V16.964C31.615 16.988 31.605 17 31.585 17H31.498C31.476 17 31.465 16.988 31.465 16.964V16.844H31.453C31.401 16.948 31.297 17 31.141 17ZM31.465 16.571V15.632C31.465 15.614 31.455 15.605 31.435 15.605H30.961C30.869 15.605 30.799 15.631 30.751 15.683C30.703 15.735 30.679 15.808 30.679 15.902V16.568C30.679 16.662 30.703 16.735 30.751 16.787C30.799 16.839 30.869 16.865 30.961 16.865H31.156C31.252 16.865 31.327 16.84 31.381 16.79C31.437 16.738 31.465 16.665 31.465 16.571ZM32.1818 17H32.0948C32.0748 17 32.0648 16.988 32.0648 16.964V15.506C32.0648 15.482 32.0748 15.47 32.0948 15.47H32.1818C32.2038 15.47 32.2148 15.482 32.2148 15.506V15.632H32.2268C32.2488 15.59 32.2878 15.553 32.3438 15.521C32.3998 15.487 32.4688 15.47 32.5508 15.47H32.6678C32.6898 15.47 32.7008 15.481 32.7008 15.503V15.575C32.7008 15.597 32.6898 15.607 32.6678 15.605H32.5268C32.4288 15.605 32.3518 15.635 32.2958 15.695C32.2418 15.755 32.2148 15.836 32.2148 15.938V16.964C32.2148 16.988 32.2038 17 32.1818 17ZM33.0713 15.605H32.8883C32.8663 15.605 32.8553 15.595 32.8553 15.575V15.503C32.8553 15.481 32.8663 15.47 32.8883 15.47H33.0713C33.0893 15.47 33.0983 15.461 33.0983 15.443V15.2C33.0983 15.176 33.1093 15.164 33.1313 15.164H33.2183C33.2403 15.164 33.2513 15.176 33.2513 15.2V15.443C33.2513 15.461 33.2603 15.47 33.2783 15.47H33.6353C33.6573 15.47 33.6683 15.481 33.6683 15.503V15.575C33.6683 15.595 33.6573 15.605 33.6353 15.605H33.2783C33.2603 15.605 33.2513 15.614 33.2513 15.632V16.577C33.2513 16.669 33.2773 16.74 33.3293 16.79C33.3813 16.84 33.4543 16.865 33.5483 16.865H33.6653C33.6873 16.865 33.6983 16.876 33.6983 16.898V16.967C33.6983 16.989 33.6873 17 33.6653 17H33.5363C33.4043 17 33.2983 16.963 33.2183 16.889C33.1383 16.815 33.0983 16.713 33.0983 16.583V15.632C33.0983 15.614 33.0893 15.605 33.0713 15.605ZM34.1623 17H34.0753C34.0553 17 34.0453 16.988 34.0453 16.964V15.506C34.0453 15.482 34.0553 15.47 34.0753 15.47H34.1623C34.1843 15.47 34.1953 15.482 34.1953 15.506V15.626H34.2073C34.2633 15.522 34.3673 15.47 34.5193 15.47H34.7173C34.8453 15.47 34.9463 15.508 35.0203 15.584C35.0943 15.66 35.1313 15.764 35.1313 15.896V16.964C35.1313 16.988 35.1213 17 35.1013 17H35.0143C34.9923 17 34.9813 16.988 34.9813 16.964V15.902C34.9813 15.808 34.9573 15.735 34.9093 15.683C34.8613 15.631 34.7913 15.605 34.6993 15.605H34.5043C34.4083 15.605 34.3323 15.631 34.2763 15.683C34.2223 15.733 34.1953 15.805 34.1953 15.899V16.964C34.1953 16.988 34.1843 17 34.1623 17ZM36.5828 17H35.9558C35.8258 17 35.7228 16.962 35.6468 16.886C35.5728 16.81 35.5358 16.706 35.5358 16.574V15.896C35.5358 15.764 35.5728 15.66 35.6468 15.584C35.7228 15.508 35.8258 15.47 35.9558 15.47H36.2138C36.3438 15.47 36.4468 15.508 36.5228 15.584C36.5988 15.66 36.6368 15.764 36.6368 15.896V16.277C36.6368 16.301 36.6248 16.313 36.6008 16.313H35.7128C35.6948 16.313 35.6858 16.322 35.6858 16.34V16.571C35.6858 16.665 35.7098 16.738 35.7578 16.79C35.8058 16.84 35.8758 16.865 35.9678 16.865H36.5828C36.6048 16.865 36.6158 16.876 36.6158 16.898V16.967C36.6158 16.989 36.6048 17 36.5828 17ZM35.7128 16.193H36.4598C36.4778 16.193 36.4868 16.184 36.4868 16.166V15.899C36.4868 15.805 36.4628 15.733 36.4148 15.683C36.3668 15.631 36.2968 15.605 36.2048 15.605H35.9678C35.8758 15.605 35.8058 15.631 35.7578 15.683C35.7098 15.733 35.6858 15.805 35.6858 15.899V16.166C35.6858 16.184 35.6948 16.193 35.7128 16.193ZM37.1594 17H37.0724C37.0524 17 37.0424 16.988 37.0424 16.964V15.506C37.0424 15.482 37.0524 15.47 37.0724 15.47H37.1594C37.1814 15.47 37.1924 15.482 37.1924 15.506V15.632H37.2044C37.2264 15.59 37.2654 15.553 37.3214 15.521C37.3774 15.487 37.4464 15.47 37.5284 15.47H37.6454C37.6674 15.47 37.6784 15.481 37.6784 15.503V15.575C37.6784 15.597 37.6674 15.607 37.6454 15.605H37.5044C37.4064 15.605 37.3294 15.635 37.2734 15.695C37.2194 15.755 37.1924 15.836 37.1924 15.938V16.964C37.1924 16.988 37.1814 17 37.1594 17ZM38.4778 17H37.9558C37.9338 17 37.9228 16.989 37.9228 16.967V16.898C37.9228 16.878 37.9338 16.868 37.9558 16.868H38.4628C38.6428 16.868 38.7328 16.798 38.7328 16.658V16.586C38.7328 16.456 38.6768 16.371 38.5648 16.331L38.1898 16.187C38.0878 16.147 38.0148 16.1 37.9708 16.046C37.9288 15.992 37.9078 15.917 37.9078 15.821C37.9078 15.587 38.0368 15.47 38.2948 15.47H38.7808C38.8028 15.47 38.8138 15.481 38.8138 15.503V15.572C38.8138 15.592 38.8028 15.602 38.7808 15.602H38.3098C38.2278 15.602 38.1658 15.62 38.1238 15.656C38.0838 15.692 38.0638 15.734 38.0638 15.782V15.851C38.0638 15.907 38.0788 15.951 38.1088 15.983C38.1408 16.015 38.1888 16.042 38.2528 16.064L38.6278 16.214C38.7318 16.248 38.8008 16.299 38.8348 16.367C38.8708 16.433 38.8888 16.526 38.8888 16.646C38.8888 16.766 38.8548 16.855 38.7868 16.913C38.7208 16.971 38.6178 17 38.4778 17ZM39.3918 17H39.3048C39.2848 17 39.2748 16.988 39.2748 16.964V14.927C39.2748 14.903 39.2848 14.891 39.3048 14.891H39.3918C39.4138 14.891 39.4248 14.903 39.4248 14.927V15.626H39.4368C39.4928 15.522 39.5968 15.47 39.7488 15.47H39.9468C40.0748 15.47 40.1758 15.508 40.2498 15.584C40.3238 15.66 40.3608 15.764 40.3608 15.896V16.964C40.3608 16.988 40.3508 17 40.3308 17H40.2438C40.2218 17 40.2108 16.988 40.2108 16.964V15.902C40.2108 15.808 40.1868 15.735 40.1388 15.683C40.0908 15.631 40.0208 15.605 39.9288 15.605H39.7338C39.6378 15.605 39.5618 15.631 39.5058 15.683C39.4518 15.733 39.4248 15.805 39.4248 15.899V16.964C39.4248 16.988 39.4138 17 39.3918 17ZM40.8103 15.218V14.93C40.8103 14.908 40.8203 14.897 40.8403 14.897H40.9303C40.9503 14.897 40.9603 14.908 40.9603 14.93V15.218C40.9603 15.242 40.9503 15.254 40.9303 15.254H40.8403C40.8203 15.254 40.8103 15.242 40.8103 15.218ZM40.8103 16.964V15.506C40.8103 15.482 40.8203 15.47 40.8403 15.47H40.9273C40.9493 15.47 40.9603 15.482 40.9603 15.506V16.964C40.9603 16.988 40.9503 17 40.9303 17H40.8403C40.8203 17 40.8103 16.988 40.8103 16.964ZM41.5422 17.447H41.4552C41.4352 17.447 41.4252 17.436 41.4252 17.414V15.506C41.4252 15.482 41.4352 15.47 41.4552 15.47H41.5422C41.5642 15.47 41.5752 15.482 41.5752 15.506V15.626H41.5872C41.6432 15.522 41.7472 15.47 41.8992 15.47H42.1032C42.2312 15.47 42.3322 15.508 42.4062 15.584C42.4802 15.66 42.5172 15.764 42.5172 15.896V16.574C42.5172 16.706 42.4802 16.81 42.4062 16.886C42.3322 16.962 42.2312 17 42.1032 17H41.8992C41.7472 17 41.6432 16.948 41.5872 16.844H41.5752V17.414C41.5752 17.436 41.5642 17.447 41.5422 17.447ZM41.8842 16.865H42.0822C42.1742 16.865 42.2442 16.84 42.2922 16.79C42.3422 16.738 42.3672 16.664 42.3672 16.568V15.902C42.3672 15.806 42.3422 15.733 42.2922 15.683C42.2442 15.631 42.1742 15.605 42.0822 15.605H41.8842C41.7882 15.605 41.7122 15.631 41.6562 15.683C41.6022 15.733 41.5752 15.805 41.5752 15.899V16.571C41.5752 16.665 41.6022 16.738 41.6562 16.79C41.7122 16.84 41.7882 16.865 41.8842 16.865ZM44.2317 17H43.7097C43.6877 17 43.6767 16.989 43.6767 16.967V16.898C43.6767 16.878 43.6877 16.868 43.7097 16.868H44.2167C44.3967 16.868 44.4867 16.798 44.4867 16.658V16.586C44.4867 16.456 44.4307 16.371 44.3187 16.331L43.9437 16.187C43.8417 16.147 43.7687 16.1 43.7247 16.046C43.6827 15.992 43.6617 15.917 43.6617 15.821C43.6617 15.587 43.7907 15.47 44.0487 15.47H44.5347C44.5567 15.47 44.5677 15.481 44.5677 15.503V15.572C44.5677 15.592 44.5567 15.602 44.5347 15.602H44.0637C43.9817 15.602 43.9197 15.62 43.8777 15.656C43.8377 15.692 43.8177 15.734 43.8177 15.782V15.851C43.8177 15.907 43.8327 15.951 43.8627 15.983C43.8947 16.015 43.9427 16.042 44.0067 16.064L44.3817 16.214C44.4857 16.248 44.5547 16.299 44.5887 16.367C44.6247 16.433 44.6427 16.526 44.6427 16.646C44.6427 16.766 44.6087 16.855 44.5407 16.913C44.4747 16.971 44.3717 17 44.2317 17ZM45.6767 17H45.4187C45.2887 17 45.1857 16.962 45.1097 16.886C45.0357 16.81 44.9987 16.706 44.9987 16.574V15.896C44.9987 15.764 45.0357 15.66 45.1097 15.584C45.1857 15.508 45.2887 15.47 45.4187 15.47H45.6767C45.8067 15.47 45.9097 15.508 45.9857 15.584C46.0617 15.66 46.0997 15.764 46.0997 15.896V16.574C46.0997 16.706 46.0617 16.81 45.9857 16.886C45.9097 16.962 45.8067 17 45.6767 17ZM45.4307 16.865H45.6647C45.7567 16.865 45.8267 16.84 45.8747 16.79C45.9247 16.738 45.9497 16.665 45.9497 16.571V15.899C45.9497 15.805 45.9247 15.733 45.8747 15.683C45.8267 15.631 45.7567 15.605 45.6647 15.605H45.4307C45.3387 15.605 45.2687 15.631 45.2207 15.683C45.1727 15.733 45.1487 15.805 45.1487 15.899V16.571C45.1487 16.665 45.1727 16.738 45.2207 16.79C45.2687 16.84 45.3387 16.865 45.4307 16.865ZM46.832 15.47H47.105C47.129 15.47 47.141 15.481 47.141 15.503V15.572C47.141 15.594 47.129 15.605 47.105 15.605H46.832C46.814 15.605 46.805 15.614 46.805 15.632V16.964C46.805 16.988 46.794 17 46.772 17H46.685C46.663 17 46.652 16.988 46.652 16.964V15.632C46.652 15.614 46.643 15.605 46.625 15.605H46.433C46.411 15.605 46.4 15.594 46.4 15.572V15.503C46.4 15.481 46.411 15.47 46.433 15.47H46.625C46.643 15.47 46.652 15.461 46.652 15.443V15.311C46.652 15.031 46.779 14.891 47.033 14.891H47.105C47.129 14.891 47.141 14.902 47.141 14.924V14.993C47.141 15.015 47.129 15.026 47.105 15.026H47.048C46.958 15.026 46.895 15.05 46.859 15.098C46.823 15.146 46.805 15.219 46.805 15.317V15.443C46.805 15.461 46.814 15.47 46.832 15.47ZM47.4912 15.605H47.3082C47.2862 15.605 47.2752 15.595 47.2752 15.575V15.503C47.2752 15.481 47.2862 15.47 47.3082 15.47H47.4912C47.5092 15.47 47.5182 15.461 47.5182 15.443V15.2C47.5182 15.176 47.5292 15.164 47.5512 15.164H47.6382C47.6602 15.164 47.6712 15.176 47.6712 15.2V15.443C47.6712 15.461 47.6802 15.47 47.6982 15.47H48.0552C48.0772 15.47 48.0882 15.481 48.0882 15.503V15.575C48.0882 15.595 48.0772 15.605 48.0552 15.605H47.6982C47.6802 15.605 47.6712 15.614 47.6712 15.632V16.577C47.6712 16.669 47.6972 16.74 47.7492 16.79C47.8012 16.84 47.8742 16.865 47.9682 16.865H48.0852C48.1072 16.865 48.1182 16.876 48.1182 16.898V16.967C48.1182 16.989 48.1072 17 48.0852 17H47.9562C47.8242 17 47.7182 16.963 47.6382 16.889C47.5582 16.815 47.5182 16.713 47.5182 16.583V15.632C47.5182 15.614 47.5092 15.605 47.4912 15.605ZM48.8822 17H48.7622C48.7422 17 48.7292 16.988 48.7232 16.964L48.3032 15.506C48.2972 15.482 48.3052 15.47 48.3272 15.47H48.4232C48.4452 15.47 48.4582 15.482 48.4622 15.506L48.8162 16.811H48.8312L49.1792 15.506C49.1832 15.482 49.1972 15.47 49.2212 15.47H49.3082C49.3322 15.47 49.3462 15.482 49.3502 15.506L49.6922 16.811H49.7072L50.0642 15.506C50.0702 15.482 50.0832 15.47 50.1032 15.47H50.1992C50.2232 15.47 50.2312 15.482 50.2232 15.506L49.8062 16.964C49.8002 16.988 49.7862 17 49.7642 17H49.6442C49.6222 17 49.6082 16.988 49.6022 16.964L49.2692 15.698H49.2542L48.9242 16.964C48.9182 16.988 48.9042 17 48.8822 17ZM51.0951 17H50.9031C50.7731 17 50.6701 16.962 50.5941 16.886C50.5201 16.81 50.4831 16.706 50.4831 16.574V15.896C50.4831 15.764 50.5201 15.66 50.5941 15.584C50.6701 15.508 50.7731 15.47 50.9031 15.47H51.5391C51.5591 15.47 51.5691 15.482 51.5691 15.506V16.964C51.5691 16.988 51.5591 17 51.5391 17H51.4521C51.4301 17 51.4191 16.988 51.4191 16.964V16.844H51.4071C51.3551 16.948 51.2511 17 51.0951 17ZM51.4191 16.571V15.632C51.4191 15.614 51.4091 15.605 51.3891 15.605H50.9151C50.8231 15.605 50.7531 15.631 50.7051 15.683C50.6571 15.735 50.6331 15.808 50.6331 15.902V16.568C50.6331 16.662 50.6571 16.735 50.7051 16.787C50.7531 16.839 50.8231 16.865 50.9151 16.865H51.1101C51.2061 16.865 51.2811 16.84 51.3351 16.79C51.3911 16.738 51.4191 16.665 51.4191 16.571ZM52.1359 17H52.0489C52.0289 17 52.0189 16.988 52.0189 16.964V15.506C52.0189 15.482 52.0289 15.47 52.0489 15.47H52.1359C52.1579 15.47 52.1689 15.482 52.1689 15.506V15.632H52.1809C52.2029 15.59 52.2419 15.553 52.2979 15.521C52.3539 15.487 52.4229 15.47 52.5049 15.47H52.6219C52.6439 15.47 52.6549 15.481 52.6549 15.503V15.575C52.6549 15.597 52.6439 15.607 52.6219 15.605H52.4809C52.3829 15.605 52.3059 15.635 52.2499 15.695C52.1959 15.755 52.1689 15.836 52.1689 15.938V16.964C52.1689 16.988 52.1579 17 52.1359 17ZM53.9764 17H53.3494C53.2194 17 53.1164 16.962 53.0404 16.886C52.9664 16.81 52.9294 16.706 52.9294 16.574V15.896C52.9294 15.764 52.9664 15.66 53.0404 15.584C53.1164 15.508 53.2194 15.47 53.3494 15.47H53.6074C53.7374 15.47 53.8404 15.508 53.9164 15.584C53.9924 15.66 54.0304 15.764 54.0304 15.896V16.277C54.0304 16.301 54.0184 16.313 53.9944 16.313H53.1064C53.0884 16.313 53.0794 16.322 53.0794 16.34V16.571C53.0794 16.665 53.1034 16.738 53.1514 16.79C53.1994 16.84 53.2694 16.865 53.3614 16.865H53.9764C53.9984 16.865 54.0094 16.876 54.0094 16.898V16.967C54.0094 16.989 53.9984 17 53.9764 17ZM53.1064 16.193H53.8534C53.8714 16.193 53.8804 16.184 53.8804 16.166V15.899C53.8804 15.805 53.8564 15.733 53.8084 15.683C53.7604 15.631 53.6904 15.605 53.5984 15.605H53.3614C53.2694 15.605 53.1994 15.631 53.1514 15.683C53.1034 15.733 53.0794 15.805 53.0794 15.899V16.166C53.0794 16.184 53.0884 16.193 53.1064 16.193ZM55.8177 17H55.6257C55.4957 17 55.3927 16.962 55.3167 16.886C55.2427 16.81 55.2057 16.706 55.2057 16.574V15.896C55.2057 15.764 55.2427 15.66 55.3167 15.584C55.3927 15.508 55.4957 15.47 55.6257 15.47H56.2617C56.2817 15.47 56.2917 15.482 56.2917 15.506V16.964C56.2917 16.988 56.2817 17 56.2617 17H56.1747C56.1527 17 56.1417 16.988 56.1417 16.964V16.844H56.1297C56.0777 16.948 55.9737 17 55.8177 17ZM56.1417 16.571V15.632C56.1417 15.614 56.1317 15.605 56.1117 15.605H55.6377C55.5457 15.605 55.4757 15.631 55.4277 15.683C55.3797 15.735 55.3557 15.808 55.3557 15.902V16.568C55.3557 16.662 55.3797 16.735 55.4277 16.787C55.4757 16.839 55.5457 16.865 55.6377 16.865H55.8327C55.9287 16.865 56.0037 16.84 56.0577 16.79C56.1137 16.738 56.1417 16.665 56.1417 16.571ZM56.8586 17H56.7716C56.7516 17 56.7416 16.988 56.7416 16.964V15.506C56.7416 15.482 56.7516 15.47 56.7716 15.47H56.8586C56.8806 15.47 56.8916 15.482 56.8916 15.506V15.626H56.9036C56.9596 15.522 57.0636 15.47 57.2156 15.47H57.4136C57.5416 15.47 57.6426 15.508 57.7166 15.584C57.7906 15.66 57.8276 15.764 57.8276 15.896V16.964C57.8276 16.988 57.8176 17 57.7976 17H57.7106C57.6886 17 57.6776 16.988 57.6776 16.964V15.902C57.6776 15.808 57.6536 15.735 57.6056 15.683C57.5576 15.631 57.4876 15.605 57.3956 15.605H57.2006C57.1046 15.605 57.0286 15.631 56.9726 15.683C56.9186 15.733 56.8916 15.805 56.8916 15.899V16.964C56.8916 16.988 56.8806 17 56.8586 17ZM58.8471 17H58.6461C58.5181 17 58.4171 16.962 58.3431 16.886C58.2691 16.81 58.2321 16.706 58.2321 16.574V15.896C58.2321 15.764 58.2691 15.66 58.3431 15.584C58.4171 15.508 58.5181 15.47 58.6461 15.47H58.8471C59.0011 15.47 59.1061 15.522 59.1621 15.626H59.1741V14.927C59.1741 14.903 59.1841 14.891 59.2041 14.891H59.2911C59.3131 14.891 59.3241 14.903 59.3241 14.927V16.964C59.3241 16.988 59.3131 17 59.2911 17H59.2041C59.1841 17 59.1741 16.988 59.1741 16.964V16.844H59.1621C59.1061 16.948 59.0011 17 58.8471 17ZM59.1741 16.571V15.899C59.1741 15.805 59.1461 15.733 59.0901 15.683C59.0361 15.631 58.9611 15.605 58.8651 15.605H58.6641C58.5721 15.605 58.5021 15.631 58.4541 15.683C58.4061 15.735 58.3821 15.808 58.3821 15.902V16.568C58.3821 16.662 58.4061 16.735 58.4541 16.787C58.5021 16.839 58.5721 16.865 58.6641 16.865H58.8651C58.9611 16.865 59.0361 16.84 59.0901 16.79C59.1461 16.738 59.1741 16.665 59.1741 16.571ZM61.0686 17H60.5466C60.5246 17 60.5136 16.989 60.5136 16.967V16.898C60.5136 16.878 60.5246 16.868 60.5466 16.868H61.0536C61.2336 16.868 61.3236 16.798 61.3236 16.658V16.586C61.3236 16.456 61.2676 16.371 61.1556 16.331L60.7806 16.187C60.6786 16.147 60.6056 16.1 60.5616 16.046C60.5196 15.992 60.4986 15.917 60.4986 15.821C60.4986 15.587 60.6276 15.47 60.8856 15.47H61.3716C61.3936 15.47 61.4046 15.481 61.4046 15.503V15.572C61.4046 15.592 61.3936 15.602 61.3716 15.602H60.9006C60.8186 15.602 60.7566 15.62 60.7146 15.656C60.6746 15.692 60.6546 15.734 60.6546 15.782V15.851C60.6546 15.907 60.6696 15.951 60.6996 15.983C60.7316 16.015 60.7796 16.042 60.8436 16.064L61.2186 16.214C61.3226 16.248 61.3916 16.299 61.4256 16.367C61.4616 16.433 61.4796 16.526 61.4796 16.646C61.4796 16.766 61.4456 16.855 61.3776 16.913C61.3116 16.971 61.2086 17 61.0686 17ZM62.4626 17H62.2646C62.1366 17 62.0356 16.962 61.9616 16.886C61.8876 16.81 61.8506 16.706 61.8506 16.574V15.506C61.8506 15.482 61.8606 15.47 61.8806 15.47H61.9676C61.9896 15.47 62.0006 15.482 62.0006 15.506V16.568C62.0006 16.662 62.0246 16.735 62.0726 16.787C62.1206 16.839 62.1906 16.865 62.2826 16.865H62.4776C62.5736 16.865 62.6486 16.84 62.7026 16.79C62.7586 16.738 62.7866 16.665 62.7866 16.571V15.506C62.7866 15.482 62.7976 15.47 62.8196 15.47H62.9066C62.9266 15.47 62.9366 15.482 62.9366 15.506V16.964C62.9366 16.988 62.9266 17 62.9066 17H62.8196C62.7976 17 62.7866 16.988 62.7866 16.964V16.844H62.7746C62.7226 16.948 62.6186 17 62.4626 17ZM63.5661 16.865H64.0431C64.1351 16.865 64.2051 16.84 64.2531 16.79C64.3031 16.738 64.3281 16.664 64.3281 16.568V15.875C64.3281 15.781 64.3031 15.709 64.2531 15.659C64.2051 15.607 64.1351 15.581 64.0431 15.581H63.8451C63.7491 15.581 63.6731 15.607 63.6171 15.659C63.5631 15.709 63.5361 15.781 63.5361 15.875V16.838C63.5361 16.856 63.5461 16.865 63.5661 16.865ZM63.3861 16.964V14.927C63.3861 14.903 63.3961 14.891 63.4161 14.891H63.5031C63.5251 14.891 63.5361 14.903 63.5361 14.927V15.602H63.5481C63.6041 15.498 63.7081 15.446 63.8601 15.446H64.0581C64.1881 15.446 64.2901 15.484 64.3641 15.56C64.4401 15.636 64.4781 15.739 64.4781 15.869V16.574C64.4781 16.706 64.4401 16.81 64.3641 16.886C64.2901 16.962 64.1881 17 64.0581 17H63.4161C63.3961 17 63.3861 16.988 63.3861 16.964ZM64.9129 15.218V14.93C64.9129 14.908 64.9229 14.897 64.9429 14.897H65.0329C65.0529 14.897 65.0629 14.908 65.0629 14.93V15.218C65.0629 15.242 65.0529 15.254 65.0329 15.254H64.9429C64.9229 15.254 64.9129 15.242 64.9129 15.218ZM64.6399 17.42H64.5529C64.5289 17.42 64.5169 17.409 64.5169 17.387V17.315C64.5169 17.295 64.5289 17.285 64.5529 17.285H64.6159C64.8139 17.285 64.9129 17.182 64.9129 16.976V15.506C64.9129 15.482 64.9229 15.47 64.9429 15.47H65.0299C65.0519 15.47 65.0629 15.482 65.0629 15.506V16.994C65.0629 17.126 65.0249 17.23 64.9489 17.306C64.8729 17.382 64.7699 17.42 64.6399 17.42ZM66.5447 17H65.9177C65.7877 17 65.6847 16.962 65.6087 16.886C65.5347 16.81 65.4977 16.706 65.4977 16.574V15.896C65.4977 15.764 65.5347 15.66 65.6087 15.584C65.6847 15.508 65.7877 15.47 65.9177 15.47H66.1757C66.3057 15.47 66.4087 15.508 66.4847 15.584C66.5607 15.66 66.5987 15.764 66.5987 15.896V16.277C66.5987 16.301 66.5867 16.313 66.5627 16.313H65.6747C65.6567 16.313 65.6477 16.322 65.6477 16.34V16.571C65.6477 16.665 65.6717 16.738 65.7197 16.79C65.7677 16.84 65.8377 16.865 65.9297 16.865H66.5447C66.5667 16.865 66.5777 16.876 66.5777 16.898V16.967C66.5777 16.989 66.5667 17 66.5447 17ZM65.6747 16.193H66.4217C66.4397 16.193 66.4487 16.184 66.4487 16.166V15.899C66.4487 15.805 66.4247 15.733 66.3767 15.683C66.3287 15.631 66.2587 15.605 66.1667 15.605H65.9297C65.8377 15.605 65.7677 15.631 65.7197 15.683C65.6717 15.733 65.6477 15.805 65.6477 15.899V16.166C65.6477 16.184 65.6567 16.193 65.6747 16.193ZM67.8593 16.898V16.967C67.8593 16.989 67.8483 17 67.8263 17H67.3943C67.2643 17 67.1613 16.962 67.0853 16.886C67.0113 16.81 66.9743 16.706 66.9743 16.574V15.896C66.9743 15.764 67.0113 15.66 67.0853 15.584C67.1613 15.508 67.2643 15.47 67.3943 15.47H67.8263C67.8483 15.47 67.8593 15.481 67.8593 15.503V15.575C67.8593 15.595 67.8483 15.605 67.8263 15.605H67.4063C67.3143 15.605 67.2443 15.631 67.1963 15.683C67.1483 15.735 67.1243 15.808 67.1243 15.902V16.568C67.1243 16.662 67.1483 16.735 67.1963 16.787C67.2443 16.839 67.3143 16.865 67.4063 16.865H67.8263C67.8483 16.865 67.8593 16.876 67.8593 16.898ZM68.251 15.605H68.068C68.046 15.605 68.035 15.595 68.035 15.575V15.503C68.035 15.481 68.046 15.47 68.068 15.47H68.251C68.269 15.47 68.278 15.461 68.278 15.443V15.2C68.278 15.176 68.289 15.164 68.311 15.164H68.398C68.42 15.164 68.431 15.176 68.431 15.2V15.443C68.431 15.461 68.44 15.47 68.458 15.47H68.815C68.837 15.47 68.848 15.481 68.848 15.503V15.575C68.848 15.595 68.837 15.605 68.815 15.605H68.458C68.44 15.605 68.431 15.614 68.431 15.632V16.577C68.431 16.669 68.457 16.74 68.509 16.79C68.561 16.84 68.634 16.865 68.728 16.865H68.845C68.867 16.865 68.878 16.876 68.878 16.898V16.967C68.878 16.989 68.867 17 68.845 17H68.716C68.584 17 68.478 16.963 68.398 16.889C68.318 16.815 68.278 16.713 68.278 16.583V15.632C68.278 15.614 68.269 15.605 68.251 15.605ZM33.417 19.605H33.234C33.212 19.605 33.201 19.595 33.201 19.575V19.503C33.201 19.481 33.212 19.47 33.234 19.47H33.417C33.435 19.47 33.444 19.461 33.444 19.443V19.2C33.444 19.176 33.455 19.164 33.477 19.164H33.564C33.586 19.164 33.597 19.176 33.597 19.2V19.443C33.597 19.461 33.606 19.47 33.624 19.47H33.981C34.003 19.47 34.014 19.481 34.014 19.503V19.575C34.014 19.595 34.003 19.605 33.981 19.605H33.624C33.606 19.605 33.597 19.614 33.597 19.632V20.577C33.597 20.669 33.623 20.74 33.675 20.79C33.727 20.84 33.8 20.865 33.894 20.865H34.011C34.033 20.865 34.044 20.876 34.044 20.898V20.967C34.044 20.989 34.033 21 34.011 21H33.882C33.75 21 33.644 20.963 33.564 20.889C33.484 20.815 33.444 20.713 33.444 20.583V19.632C33.444 19.614 33.435 19.605 33.417 19.605ZM35.039 21H34.781C34.651 21 34.548 20.962 34.472 20.886C34.398 20.81 34.361 20.706 34.361 20.574V19.896C34.361 19.764 34.398 19.66 34.472 19.584C34.548 19.508 34.651 19.47 34.781 19.47H35.039C35.169 19.47 35.272 19.508 35.348 19.584C35.424 19.66 35.462 19.764 35.462 19.896V20.574C35.462 20.706 35.424 20.81 35.348 20.886C35.272 20.962 35.169 21 35.039 21ZM34.793 20.865H35.027C35.119 20.865 35.189 20.84 35.237 20.79C35.287 20.738 35.312 20.665 35.312 20.571V19.899C35.312 19.805 35.287 19.733 35.237 19.683C35.189 19.631 35.119 19.605 35.027 19.605H34.793C34.701 19.605 34.631 19.631 34.583 19.683C34.535 19.733 34.511 19.805 34.511 19.899V20.571C34.511 20.665 34.535 20.738 34.583 20.79C34.631 20.84 34.701 20.865 34.793 20.865ZM37.1741 21H36.6521C36.6301 21 36.6191 20.989 36.6191 20.967V20.898C36.6191 20.878 36.6301 20.868 36.6521 20.868H37.1591C37.3391 20.868 37.4291 20.798 37.4291 20.658V20.586C37.4291 20.456 37.3731 20.371 37.2611 20.331L36.8861 20.187C36.7841 20.147 36.7111 20.1 36.6671 20.046C36.6251 19.992 36.6041 19.917 36.6041 19.821C36.6041 19.587 36.7331 19.47 36.9911 19.47H37.4771C37.4991 19.47 37.5101 19.481 37.5101 19.503V19.572C37.5101 19.592 37.4991 19.602 37.4771 19.602H37.0061C36.9241 19.602 36.8621 19.62 36.8201 19.656C36.7801 19.692 36.7601 19.734 36.7601 19.782V19.851C36.7601 19.907 36.7751 19.951 36.8051 19.983C36.8371 20.015 36.8851 20.042 36.9491 20.064L37.3241 20.214C37.4281 20.248 37.4971 20.299 37.5311 20.367C37.5671 20.433 37.5851 20.526 37.5851 20.646C37.5851 20.766 37.5511 20.855 37.4831 20.913C37.4171 20.971 37.3141 21 37.1741 21ZM38.9881 21H38.3611C38.2311 21 38.1281 20.962 38.0521 20.886C37.9781 20.81 37.9411 20.706 37.9411 20.574V19.896C37.9411 19.764 37.9781 19.66 38.0521 19.584C38.1281 19.508 38.2311 19.47 38.3611 19.47H38.6191C38.7491 19.47 38.8521 19.508 38.9281 19.584C39.0041 19.66 39.0421 19.764 39.0421 19.896V20.277C39.0421 20.301 39.0301 20.313 39.0061 20.313H38.1181C38.1001 20.313 38.0911 20.322 38.0911 20.34V20.571C38.0911 20.665 38.1151 20.738 38.1631 20.79C38.2111 20.84 38.2811 20.865 38.3731 20.865H38.9881C39.0101 20.865 39.0211 20.876 39.0211 20.898V20.967C39.0211 20.989 39.0101 21 38.9881 21ZM38.1181 20.193H38.8651C38.8831 20.193 38.8921 20.184 38.8921 20.166V19.899C38.8921 19.805 38.8681 19.733 38.8201 19.683C38.7721 19.631 38.7021 19.605 38.6101 19.605H38.3731C38.2811 19.605 38.2111 19.631 38.1631 19.683C38.1151 19.733 38.0911 19.805 38.0911 19.899V20.166C38.0911 20.184 38.1001 20.193 38.1181 20.193ZM40.3027 20.898V20.967C40.3027 20.989 40.2917 21 40.2697 21H39.8377C39.7077 21 39.6047 20.962 39.5287 20.886C39.4547 20.81 39.4177 20.706 39.4177 20.574V19.896C39.4177 19.764 39.4547 19.66 39.5287 19.584C39.6047 19.508 39.7077 19.47 39.8377 19.47H40.2697C40.2917 19.47 40.3027 19.481 40.3027 19.503V19.575C40.3027 19.595 40.2917 19.605 40.2697 19.605H39.8497C39.7577 19.605 39.6877 19.631 39.6397 19.683C39.5917 19.735 39.5677 19.808 39.5677 19.902V20.568C39.5677 20.662 39.5917 20.735 39.6397 20.787C39.6877 20.839 39.7577 20.865 39.8497 20.865H40.2697C40.2917 20.865 40.3027 20.876 40.3027 20.898ZM41.2253 21H41.0273C40.8993 21 40.7983 20.962 40.7243 20.886C40.6503 20.81 40.6133 20.706 40.6133 20.574V19.506C40.6133 19.482 40.6233 19.47 40.6433 19.47H40.7303C40.7523 19.47 40.7633 19.482 40.7633 19.506V20.568C40.7633 20.662 40.7873 20.735 40.8353 20.787C40.8833 20.839 40.9533 20.865 41.0453 20.865H41.2403C41.3363 20.865 41.4113 20.84 41.4653 20.79C41.5213 20.738 41.5493 20.665 41.5493 20.571V19.506C41.5493 19.482 41.5603 19.47 41.5823 19.47H41.6693C41.6893 19.47 41.6993 19.482 41.6993 19.506V20.964C41.6993 20.988 41.6893 21 41.6693 21H41.5823C41.5603 21 41.5493 20.988 41.5493 20.964V20.844H41.5373C41.4853 20.948 41.3813 21 41.2253 21ZM42.2658 21H42.1788C42.1588 21 42.1488 20.988 42.1488 20.964V19.506C42.1488 19.482 42.1588 19.47 42.1788 19.47H42.2658C42.2878 19.47 42.2988 19.482 42.2988 19.506V19.632H42.3108C42.3328 19.59 42.3718 19.553 42.4278 19.521C42.4838 19.487 42.5528 19.47 42.6348 19.47H42.7518C42.7738 19.47 42.7848 19.481 42.7848 19.503V19.575C42.7848 19.597 42.7738 19.607 42.7518 19.605H42.6108C42.5128 19.605 42.4358 19.635 42.3798 19.695C42.3258 19.755 42.2988 19.836 42.2988 19.938V20.964C42.2988 20.988 42.2878 21 42.2658 21ZM43.1043 19.218V18.93C43.1043 18.908 43.1143 18.897 43.1343 18.897H43.2243C43.2443 18.897 43.2543 18.908 43.2543 18.93V19.218C43.2543 19.242 43.2443 19.254 43.2243 19.254H43.1343C43.1143 19.254 43.1043 19.242 43.1043 19.218ZM43.1043 20.964V19.506C43.1043 19.482 43.1143 19.47 43.1343 19.47H43.2213C43.2433 19.47 43.2543 19.482 43.2543 19.506V20.964C43.2543 20.988 43.2443 21 43.2243 21H43.1343C43.1143 21 43.1043 20.988 43.1043 20.964ZM43.7851 19.605H43.6021C43.5801 19.605 43.5691 19.595 43.5691 19.575V19.503C43.5691 19.481 43.5801 19.47 43.6021 19.47H43.7851C43.8031 19.47 43.8121 19.461 43.8121 19.443V19.2C43.8121 19.176 43.8231 19.164 43.8451 19.164H43.9321C43.9541 19.164 43.9651 19.176 43.9651 19.2V19.443C43.9651 19.461 43.9741 19.47 43.9921 19.47H44.3491C44.3711 19.47 44.3821 19.481 44.3821 19.503V19.575C44.3821 19.595 44.3711 19.605 44.3491 19.605H43.9921C43.9741 19.605 43.9651 19.614 43.9651 19.632V20.577C43.9651 20.669 43.9911 20.74 44.0431 20.79C44.0951 20.84 44.1681 20.865 44.2621 20.865H44.3791C44.4011 20.865 44.4121 20.876 44.4121 20.898V20.967C44.4121 20.989 44.4011 21 44.3791 21H44.2501C44.1181 21 44.0121 20.963 43.9321 20.889C43.8521 20.815 43.8121 20.713 43.8121 20.583V19.632C43.8121 19.614 43.8031 19.605 43.7851 19.605ZM44.8312 21.456H44.7202C44.6982 21.456 44.6872 21.445 44.6872 21.423V21.351C44.6872 21.329 44.6982 21.318 44.7202 21.318H44.8012C44.8612 21.318 44.9122 21.309 44.9542 21.291C44.9962 21.275 45.0332 21.244 45.0652 21.198C45.0972 21.152 45.1182 21.116 45.1282 21.09C45.1562 21.028 45.1792 20.971 45.1972 20.919H45.1402C45.1182 20.919 45.1042 20.907 45.0982 20.883L44.6212 19.506C44.6132 19.482 44.6212 19.47 44.6452 19.47H44.7382C44.7582 19.47 44.7712 19.482 44.7772 19.506L45.2182 20.793H45.2302L45.6712 19.506C45.6772 19.482 45.6902 19.47 45.7102 19.47H45.8002C45.8242 19.47 45.8332 19.482 45.8272 19.506C45.4692 20.554 45.2822 21.096 45.2662 21.132C45.2522 21.168 45.2252 21.217 45.1852 21.279C45.1092 21.397 44.9912 21.456 44.8312 21.456ZM47.5179 21H47.3259C47.1959 21 47.0929 20.962 47.0169 20.886C46.9429 20.81 46.9059 20.706 46.9059 20.574V19.896C46.9059 19.764 46.9429 19.66 47.0169 19.584C47.0929 19.508 47.1959 19.47 47.3259 19.47H47.9619C47.9819 19.47 47.9919 19.482 47.9919 19.506V20.964C47.9919 20.988 47.9819 21 47.9619 21H47.8749C47.8529 21 47.8419 20.988 47.8419 20.964V20.844H47.8299C47.7779 20.948 47.6739 21 47.5179 21ZM47.8419 20.571V19.632C47.8419 19.614 47.8319 19.605 47.8119 19.605H47.3379C47.2459 19.605 47.1759 19.631 47.1279 19.683C47.0799 19.735 47.0559 19.808 47.0559 19.902V20.568C47.0559 20.662 47.0799 20.735 47.1279 20.787C47.1759 20.839 47.2459 20.865 47.3379 20.865H47.5329C47.6289 20.865 47.7039 20.84 47.7579 20.79C47.8139 20.738 47.8419 20.665 47.8419 20.571ZM48.5588 21H48.4718C48.4518 21 48.4418 20.988 48.4418 20.964V19.506C48.4418 19.482 48.4518 19.47 48.4718 19.47H48.5588C48.5808 19.47 48.5918 19.482 48.5918 19.506V19.626H48.6038C48.6598 19.522 48.7638 19.47 48.9158 19.47H49.1138C49.2418 19.47 49.3428 19.508 49.4168 19.584C49.4908 19.66 49.5278 19.764 49.5278 19.896V20.964C49.5278 20.988 49.5178 21 49.4978 21H49.4108C49.3888 21 49.3778 20.988 49.3778 20.964V19.902C49.3778 19.808 49.3538 19.735 49.3058 19.683C49.2578 19.631 49.1878 19.605 49.0958 19.605H48.9008C48.8048 19.605 48.7288 19.631 48.6728 19.683C48.6188 19.733 48.5918 19.805 48.5918 19.899V20.964C48.5918 20.988 48.5808 21 48.5588 21ZM50.5473 21H50.3463C50.2183 21 50.1173 20.962 50.0433 20.886C49.9693 20.81 49.9323 20.706 49.9323 20.574V19.896C49.9323 19.764 49.9693 19.66 50.0433 19.584C50.1173 19.508 50.2183 19.47 50.3463 19.47H50.5473C50.7013 19.47 50.8063 19.522 50.8623 19.626H50.8743V18.927C50.8743 18.903 50.8843 18.891 50.9043 18.891H50.9913C51.0133 18.891 51.0243 18.903 51.0243 18.927V20.964C51.0243 20.988 51.0133 21 50.9913 21H50.9043C50.8843 21 50.8743 20.988 50.8743 20.964V20.844H50.8623C50.8063 20.948 50.7013 21 50.5473 21ZM50.8743 20.571V19.899C50.8743 19.805 50.8463 19.733 50.7903 19.683C50.7363 19.631 50.6613 19.605 50.5653 19.605H50.3643C50.2723 19.605 50.2023 19.631 50.1543 19.683C50.1063 19.735 50.0823 19.808 50.0823 19.902V20.568C50.0823 20.662 50.1063 20.735 50.1543 20.787C50.2023 20.839 50.2723 20.865 50.3643 20.865H50.5653C50.6613 20.865 50.7363 20.84 50.7903 20.79C50.8463 20.738 50.8743 20.665 50.8743 20.571ZM53.1798 20.556V19.632C53.1798 19.614 53.1698 19.605 53.1498 19.605H52.6758C52.5838 19.605 52.5138 19.631 52.4658 19.683C52.4178 19.735 52.3938 19.808 52.3938 19.902V20.568C52.3938 20.662 52.4178 20.735 52.4658 20.787C52.5138 20.839 52.5838 20.865 52.6758 20.865H52.8648C52.9628 20.865 53.0398 20.837 53.0958 20.781C53.1518 20.725 53.1798 20.65 53.1798 20.556ZM52.8438 21H52.6638C52.5338 21 52.4308 20.962 52.3548 20.886C52.2808 20.81 52.2438 20.706 52.2438 20.574V19.896C52.2438 19.764 52.2808 19.66 52.3548 19.584C52.4308 19.508 52.5338 19.47 52.6638 19.47H53.2998C53.3198 19.47 53.3298 19.482 53.3298 19.506V21.414C53.3298 21.436 53.3198 21.447 53.2998 21.447H53.2128C53.1908 21.447 53.1798 21.436 53.1798 21.414V20.838H53.1678C53.1418 20.886 53.1078 20.923 53.0658 20.949C53.0258 20.975 52.9898 20.99 52.9578 20.994C52.9278 20.998 52.8898 21 52.8438 21ZM54.3767 21H54.1787C54.0507 21 53.9497 20.962 53.8757 20.886C53.8017 20.81 53.7647 20.706 53.7647 20.574V19.506C53.7647 19.482 53.7747 19.47 53.7947 19.47H53.8817C53.9037 19.47 53.9147 19.482 53.9147 19.506V20.568C53.9147 20.662 53.9387 20.735 53.9867 20.787C54.0347 20.839 54.1047 20.865 54.1967 20.865H54.3917C54.4877 20.865 54.5627 20.84 54.6167 20.79C54.6727 20.738 54.7007 20.665 54.7007 20.571V19.506C54.7007 19.482 54.7117 19.47 54.7337 19.47H54.8207C54.8407 19.47 54.8507 19.482 54.8507 19.506V20.964C54.8507 20.988 54.8407 21 54.8207 21H54.7337C54.7117 21 54.7007 20.988 54.7007 20.964V20.844H54.6887C54.6367 20.948 54.5327 21 54.3767 21ZM55.8822 21H55.6902C55.5602 21 55.4572 20.962 55.3812 20.886C55.3072 20.81 55.2702 20.706 55.2702 20.574V19.896C55.2702 19.764 55.3072 19.66 55.3812 19.584C55.4572 19.508 55.5602 19.47 55.6902 19.47H56.3262C56.3462 19.47 56.3562 19.482 56.3562 19.506V20.964C56.3562 20.988 56.3462 21 56.3262 21H56.2392C56.2172 21 56.2062 20.988 56.2062 20.964V20.844H56.1942C56.1422 20.948 56.0382 21 55.8822 21ZM56.2062 20.571V19.632C56.2062 19.614 56.1962 19.605 56.1762 19.605H55.7022C55.6102 19.605 55.5402 19.631 55.4922 19.683C55.4442 19.735 55.4202 19.808 55.4202 19.902V20.568C55.4202 20.662 55.4442 20.735 55.4922 20.787C55.5402 20.839 55.6102 20.865 55.7022 20.865H55.8972C55.9932 20.865 56.0682 20.84 56.1222 20.79C56.1782 20.738 56.2062 20.665 56.2062 20.571ZM56.9381 21H56.8511C56.8311 21 56.8211 20.988 56.8211 20.964V18.927C56.8211 18.903 56.8311 18.891 56.8511 18.891H56.9381C56.9601 18.891 56.9711 18.903 56.9711 18.927V20.964C56.9711 20.988 56.9601 21 56.9381 21ZM57.4509 19.218V18.93C57.4509 18.908 57.4609 18.897 57.4809 18.897H57.5709C57.5909 18.897 57.6009 18.908 57.6009 18.93V19.218C57.6009 19.242 57.5909 19.254 57.5709 19.254H57.4809C57.4609 19.254 57.4509 19.242 57.4509 19.218ZM57.4509 20.964V19.506C57.4509 19.482 57.4609 19.47 57.4809 19.47H57.5679C57.5899 19.47 57.6009 19.482 57.6009 19.506V20.964C57.6009 20.988 57.5909 21 57.5709 21H57.4809C57.4609 21 57.4509 20.988 57.4509 20.964ZM58.1318 19.605H57.9488C57.9268 19.605 57.9158 19.595 57.9158 19.575V19.503C57.9158 19.481 57.9268 19.47 57.9488 19.47H58.1318C58.1498 19.47 58.1588 19.461 58.1588 19.443V19.2C58.1588 19.176 58.1698 19.164 58.1918 19.164H58.2788C58.3008 19.164 58.3118 19.176 58.3118 19.2V19.443C58.3118 19.461 58.3208 19.47 58.3388 19.47H58.6958C58.7178 19.47 58.7288 19.481 58.7288 19.503V19.575C58.7288 19.595 58.7178 19.605 58.6958 19.605H58.3388C58.3208 19.605 58.3118 19.614 58.3118 19.632V20.577C58.3118 20.669 58.3378 20.74 58.3898 20.79C58.4418 20.84 58.5148 20.865 58.6088 20.865H58.7258C58.7478 20.865 58.7588 20.876 58.7588 20.898V20.967C58.7588 20.989 58.7478 21 58.7258 21H58.5968C58.4648 21 58.3588 20.963 58.2788 20.889C58.1988 20.815 58.1588 20.713 58.1588 20.583V19.632C58.1588 19.614 58.1498 19.605 58.1318 19.605ZM59.1779 21.456H59.0669C59.0449 21.456 59.0339 21.445 59.0339 21.423V21.351C59.0339 21.329 59.0449 21.318 59.0669 21.318H59.1479C59.2079 21.318 59.2589 21.309 59.3009 21.291C59.3429 21.275 59.3799 21.244 59.4119 21.198C59.4439 21.152 59.4649 21.116 59.4749 21.09C59.5029 21.028 59.5259 20.971 59.5439 20.919H59.4869C59.4649 20.919 59.4509 20.907 59.4449 20.883L58.9679 19.506C58.9599 19.482 58.9679 19.47 58.9919 19.47H59.0849C59.1049 19.47 59.1179 19.482 59.1239 19.506L59.5649 20.793H59.5769L60.0179 19.506C60.0239 19.482 60.0369 19.47 60.0569 19.47H60.1469C60.1709 19.47 60.1799 19.482 60.1739 19.506C59.8159 20.554 59.6289 21.096 59.6129 21.132C59.5989 21.168 59.5719 21.217 59.5319 21.279C59.4559 21.397 59.3379 21.456 59.1779 21.456ZM62.1376 20.898V20.967C62.1376 20.989 62.1266 21 62.1046 21H61.6726C61.5426 21 61.4396 20.962 61.3636 20.886C61.2896 20.81 61.2526 20.706 61.2526 20.574V19.896C61.2526 19.764 61.2896 19.66 61.3636 19.584C61.4396 19.508 61.5426 19.47 61.6726 19.47H62.1046C62.1266 19.47 62.1376 19.481 62.1376 19.503V19.575C62.1376 19.595 62.1266 19.605 62.1046 19.605H61.6846C61.5926 19.605 61.5226 19.631 61.4746 19.683C61.4266 19.735 61.4026 19.808 61.4026 19.902V20.568C61.4026 20.662 61.4266 20.735 61.4746 20.787C61.5226 20.839 61.5926 20.865 61.6846 20.865H62.1046C62.1266 20.865 62.1376 20.876 62.1376 20.898ZM62.5803 21H62.4933C62.4733 21 62.4633 20.988 62.4633 20.964V18.927C62.4633 18.903 62.4733 18.891 62.4933 18.891H62.5803C62.6023 18.891 62.6133 18.903 62.6133 18.927V19.626H62.6253C62.6813 19.522 62.7853 19.47 62.9373 19.47H63.1353C63.2633 19.47 63.3643 19.508 63.4383 19.584C63.5123 19.66 63.5493 19.764 63.5493 19.896V20.964C63.5493 20.988 63.5393 21 63.5193 21H63.4323C63.4103 21 63.3993 20.988 63.3993 20.964V19.902C63.3993 19.808 63.3753 19.735 63.3273 19.683C63.2793 19.631 63.2093 19.605 63.1173 19.605H62.9223C62.8263 19.605 62.7503 19.631 62.6943 19.683C62.6403 19.733 62.6133 19.805 62.6133 19.899V20.964C62.6133 20.988 62.6023 21 62.5803 21ZM65.0008 21H64.3738C64.2438 21 64.1408 20.962 64.0648 20.886C63.9908 20.81 63.9538 20.706 63.9538 20.574V19.896C63.9538 19.764 63.9908 19.66 64.0648 19.584C64.1408 19.508 64.2438 19.47 64.3738 19.47H64.6318C64.7618 19.47 64.8648 19.508 64.9408 19.584C65.0168 19.66 65.0548 19.764 65.0548 19.896V20.277C65.0548 20.301 65.0428 20.313 65.0188 20.313H64.1308C64.1128 20.313 64.1038 20.322 64.1038 20.34V20.571C64.1038 20.665 64.1278 20.738 64.1758 20.79C64.2238 20.84 64.2938 20.865 64.3858 20.865H65.0008C65.0228 20.865 65.0338 20.876 65.0338 20.898V20.967C65.0338 20.989 65.0228 21 65.0008 21ZM64.1308 20.193H64.8778C64.8958 20.193 64.9048 20.184 64.9048 20.166V19.899C64.9048 19.805 64.8808 19.733 64.8328 19.683C64.7848 19.631 64.7148 19.605 64.6228 19.605H64.3858C64.2938 19.605 64.2238 19.631 64.1758 19.683C64.1278 19.733 64.1038 19.805 64.1038 19.899V20.166C64.1038 20.184 64.1128 20.193 64.1308 20.193ZM66.3154 20.898V20.967C66.3154 20.989 66.3044 21 66.2824 21H65.8504C65.7204 21 65.6174 20.962 65.5414 20.886C65.4674 20.81 65.4304 20.706 65.4304 20.574V19.896C65.4304 19.764 65.4674 19.66 65.5414 19.584C65.6174 19.508 65.7204 19.47 65.8504 19.47H66.2824C66.3044 19.47 66.3154 19.481 66.3154 19.503V19.575C66.3154 19.595 66.3044 19.605 66.2824 19.605H65.8624C65.7704 19.605 65.7004 19.631 65.6524 19.683C65.6044 19.735 65.5804 19.808 65.5804 19.902V20.568C65.5804 20.662 65.6044 20.735 65.6524 20.787C65.7004 20.839 65.7704 20.865 65.8624 20.865H66.2824C66.3044 20.865 66.3154 20.876 66.3154 20.898ZM67.502 19.47H67.595C67.607 19.47 67.615 19.474 67.619 19.482C67.623 19.488 67.621 19.496 67.613 19.506L67.154 20.202V20.214L67.667 20.964C67.675 20.974 67.677 20.983 67.673 20.991C67.669 20.997 67.661 21 67.649 21H67.556C67.526 21 67.503 20.988 67.487 20.964L66.992 20.235C66.984 20.219 66.984 20.203 66.992 20.187L67.442 19.5C67.454 19.48 67.474 19.47 67.502 19.47ZM66.758 21H66.671C66.651 21 66.641 20.988 66.641 20.964V18.927C66.641 18.903 66.651 18.891 66.671 18.891H66.758C66.78 18.891 66.791 18.903 66.791 18.927V20.964C66.791 20.988 66.78 21 66.758 21ZM68.428 21H67.906C67.884 21 67.873 20.989 67.873 20.967V20.898C67.873 20.878 67.884 20.868 67.906 20.868H68.413C68.593 20.868 68.683 20.798 68.683 20.658V20.586C68.683 20.456 68.627 20.371 68.515 20.331L68.14 20.187C68.038 20.147 67.965 20.1 67.921 20.046C67.879 19.992 67.858 19.917 67.858 19.821C67.858 19.587 67.987 19.47 68.245 19.47H68.731C68.753 19.47 68.764 19.481 68.764 19.503V19.572C68.764 19.592 68.753 19.602 68.731 19.602H68.26C68.178 19.602 68.116 19.62 68.074 19.656C68.034 19.692 68.014 19.734 68.014 19.782V19.851C68.014 19.907 68.029 19.951 68.059 19.983C68.091 20.015 68.139 20.042 68.203 20.064L68.578 20.214C68.682 20.248 68.751 20.299 68.785 20.367C68.821 20.433 68.839 20.526 68.839 20.646C68.839 20.766 68.805 20.855 68.737 20.913C68.671 20.971 68.568 21 68.428 21Z" fill="#EB2941"/>
</svg>
