<svg width="57" height="18" viewBox="0 0 57 18" fill="none" xmlns="http://www.w3.org/2000/svg">
<path d="M0.26725 2.944V2.564L1.54725 1.824L0.26725 1.084V0.704L1.87525 1.628V2.016L0.26725 2.944ZM2.16569 2.944V2.564L3.44569 1.824L2.16569 1.084V0.704L3.77369 1.628V2.016L2.16569 2.944ZM4.06413 2.944V2.564L5.34413 1.824L4.06413 1.084V0.704L5.67213 1.628V2.016L4.06413 2.944ZM8.17641 3V0.444H6.89641V0.12H9.77641V0.444H8.50041V3H8.17641ZM12.5076 3L11.5676 1.88H11.9916L12.9356 2.996V3H12.5076ZM10.0756 3V0.124H12.4756C12.5636 0.124 12.6436 0.146667 12.7156 0.192C12.7902 0.234667 12.8489 0.292 12.8916 0.364C12.9342 0.436 12.9556 0.516 12.9556 0.604V1.448C12.9556 1.536 12.9342 1.616 12.8916 1.688C12.8489 1.76 12.7902 1.81867 12.7156 1.864C12.6436 1.90667 12.5636 1.928 12.4756 1.928H10.3996V3H10.0756ZM10.5556 1.6H12.4756C12.5182 1.6 12.5542 1.58533 12.5836 1.556C12.6156 1.52667 12.6316 1.49067 12.6316 1.448V0.604C12.6316 0.561333 12.6156 0.525333 12.5836 0.496C12.5542 0.464 12.5182 0.448 12.4756 0.448H10.5556C10.5129 0.448 10.4756 0.464 10.4436 0.496C10.4142 0.525333 10.3996 0.561333 10.3996 0.604V1.448C10.3996 1.49067 10.4142 1.52667 10.4436 1.556C10.4756 1.58533 10.5129 1.6 10.5556 1.6ZM13.3843 3V0.6C13.3843 0.512 13.4057 0.432 13.4483 0.36C13.491 0.285333 13.5483 0.226667 13.6203 0.184C13.695 0.141333 13.7763 0.12 13.8643 0.12H15.7843C15.8723 0.12 15.9523 0.141333 16.0243 0.184C16.099 0.226667 16.1577 0.285333 16.2003 0.36C16.243 0.432 16.2643 0.512 16.2643 0.6V3H15.9403V1.948H13.7083V3H13.3843ZM13.7083 1.624H15.9403V0.6C15.9403 0.557333 15.9243 0.521333 15.8923 0.492C15.863 0.46 15.827 0.444 15.7843 0.444H13.8643C13.8217 0.444 13.7843 0.46 13.7523 0.492C13.723 0.521333 13.7083 0.557333 13.7083 0.6V1.624ZM17.2001 3C17.1121 3 17.0308 2.97867 16.9561 2.936C16.8841 2.89333 16.8268 2.836 16.7841 2.764C16.7414 2.68933 16.7201 2.608 16.7201 2.52V0.6C16.7201 0.512 16.7414 0.432 16.7841 0.36C16.8268 0.285333 16.8841 0.226667 16.9561 0.184C17.0308 0.141333 17.1121 0.12 17.2001 0.12H19.5921V0.444H17.2001C17.1574 0.444 17.1201 0.46 17.0881 0.492C17.0588 0.521333 17.0441 0.557333 17.0441 0.6V2.52C17.0441 2.56267 17.0588 2.6 17.0881 2.632C17.1201 2.66133 17.1574 2.676 17.2001 2.676H19.5921V3H17.2001ZM20.0172 3V0.12H22.6452V0.444H20.3412V1.396H22.1932V1.724H20.3412V2.676H22.6452V3H20.0172ZM23.0637 3.328V3H25.9757V3.328H23.0637ZM26.3882 3V0.116H26.7122V2.676H29.2682V3H26.3882ZM29.5013 3V0.12H29.9453L32.0573 2.632V0.12H32.3813V3H31.9373L29.8253 0.488V3H29.5013ZM32.8335 3V0.12H33.1615V1.396H34.0895L35.1615 0.12H35.5775V0.124L34.3735 1.56L35.5815 2.996V3H35.1615L34.0895 1.724H33.1615V3H32.8335ZM36.009 3.328V3H38.921V3.328H36.009ZM39.7975 3C39.7281 3 39.6615 2.98667 39.5975 2.96C39.5361 2.93067 39.4828 2.892 39.4375 2.844C39.3921 2.79333 39.3588 2.736 39.3375 2.672H41.7375C41.7801 2.672 41.8161 2.65733 41.8455 2.628C41.8775 2.596 41.8935 2.55867 41.8935 2.516V1.936C41.8935 1.89333 41.8775 1.85733 41.8455 1.828C41.8161 1.796 41.7801 1.78 41.7375 1.78H39.7975C39.7068 1.78 39.6241 1.75867 39.5495 1.716C39.4775 1.67067 39.4188 1.612 39.3735 1.54C39.3308 1.46533 39.3095 1.384 39.3095 1.296V0.604C39.3095 0.513333 39.3308 0.432 39.3735 0.36C39.4188 0.285333 39.4775 0.226667 39.5495 0.184C39.6241 0.138667 39.7068 0.116 39.7975 0.116H41.7375C41.8255 0.116 41.9055 0.138667 41.9775 0.184C42.0521 0.226667 42.1108 0.285333 42.1535 0.36C42.1988 0.432 42.2215 0.513333 42.2215 0.604V2.516C42.2215 2.604 42.1988 2.68533 42.1535 2.76C42.1108 2.832 42.0521 2.89067 41.9775 2.936C41.9055 2.97867 41.8255 3 41.7375 3H39.7975ZM39.7975 1.452H41.8935V0.604C41.8935 0.561333 41.8775 0.525333 41.8455 0.496C41.8161 0.464 41.7801 0.448 41.7375 0.448H39.7975C39.7548 0.448 39.7175 0.464 39.6855 0.496C39.6561 0.525333 39.6415 0.561333 39.6415 0.604V1.296C39.6415 1.33867 39.6561 1.376 39.6855 1.408C39.7175 1.43733 39.7548 1.452 39.7975 1.452ZM43.13 3C43.0393 3 42.9566 2.97867 42.882 2.936C42.81 2.89067 42.7526 2.832 42.71 2.76C42.6673 2.68533 42.646 2.604 42.646 2.516V0.608C42.646 0.517333 42.6673 0.436 42.71 0.364C42.7526 0.289333 42.81 0.230667 42.882 0.188C42.9566 0.142667 43.0393 0.12 43.13 0.12H45.07C45.158 0.12 45.238 0.142667 45.31 0.188C45.3846 0.230667 45.4433 0.289333 45.486 0.364C45.5313 0.436 45.554 0.517333 45.554 0.608V2.516C45.554 2.604 45.5313 2.68533 45.486 2.76C45.4433 2.832 45.3846 2.89067 45.31 2.936C45.238 2.97867 45.158 3 45.07 3H43.13ZM43.014 2.672H45.07C45.1126 2.672 45.1486 2.65733 45.178 2.628C45.21 2.596 45.226 2.55867 45.226 2.516V0.848L43.014 2.672ZM42.974 2.276L45.182 0.452H43.13C43.0873 0.452 43.05 0.468 43.018 0.5C42.9886 0.529333 42.974 0.565333 42.974 0.608V2.276ZM47.7859 3V2.256H45.7779V1.888L47.7459 0.116H48.1139V1.928H48.5619V2.256H48.1139V3H47.7859ZM46.1979 1.928H47.7859V0.56L46.1979 1.928ZM49.5518 3V0.488L49.1078 1.02H48.6798L49.4358 0.12H49.8838V3H49.5518ZM52.9561 2.936L51.3481 2.008V1.62L52.9561 0.696V1.076L51.6761 1.816L52.9561 2.556V2.936ZM54.8468 2.936L53.2388 2.008V1.62L54.8468 0.696V1.076L53.5668 1.816L54.8468 2.556V2.936ZM56.7374 2.936L55.1294 2.008V1.62L56.7374 0.696V1.076L55.4574 1.816L56.7374 2.556V2.936ZM6.38369 8C6.29569 8 6.21435 7.97867 6.13969 7.936C6.06769 7.89333 6.01035 7.836 5.96769 7.764C5.92502 7.68933 5.90369 7.608 5.90369 7.52V5.6C5.90369 5.512 5.92502 5.432 5.96769 5.36C6.01035 5.28533 6.06769 5.22667 6.13969 5.184C6.21435 5.14133 6.29569 5.12 6.38369 5.12H8.30369C8.39169 5.12 8.47169 5.14133 8.54369 5.184C8.61835 5.22667 8.67702 5.28533 8.71969 5.36C8.76235 5.432 8.78369 5.512 8.78369 5.6V5.716H8.45969V5.6C8.45969 5.55733 8.44369 5.52133 8.41169 5.492C8.38235 5.46 8.34635 5.444 8.30369 5.444H6.38369C6.34102 5.444 6.30369 5.46 6.27169 5.492C6.24235 5.52133 6.22769 5.55733 6.22769 5.6V7.52C6.22769 7.56267 6.24235 7.6 6.27169 7.632C6.30369 7.66133 6.34102 7.676 6.38369 7.676H8.30369C8.34635 7.676 8.38235 7.66133 8.41169 7.632C8.44369 7.6 8.45969 7.56267 8.45969 7.52V6.808H7.74769V6.48H8.78369V7.52C8.78369 7.608 8.76235 7.68933 8.71969 7.764C8.67702 7.836 8.61835 7.89333 8.54369 7.936C8.47169 7.97867 8.39169 8 8.30369 8H6.38369ZM9.232 8V5.12H11.86V5.444H9.556V6.396H11.408V6.724H9.556V7.676H11.86V8H9.232ZM12.2865 8V5.12H12.7305L14.8425 7.632V5.12H15.1665V8H14.7225L12.6105 5.488V8H12.2865ZM15.6066 8V7.672H15.9346V8H15.6066ZM16.4781 8V5.12H18.8781C18.9661 5.12 19.0461 5.14133 19.1181 5.184C19.1928 5.22667 19.2514 5.28533 19.2941 5.36C19.3368 5.432 19.3581 5.512 19.3581 5.6V7.52C19.3581 7.608 19.3368 7.68933 19.2941 7.764C19.2514 7.836 19.1928 7.89333 19.1181 7.936C19.0461 7.97867 18.9661 8 18.8781 8H16.4781ZM16.9581 7.676H18.8781C18.9208 7.676 18.9568 7.66133 18.9861 7.632C19.0181 7.6 19.0341 7.56267 19.0341 7.52V5.6C19.0341 5.55733 19.0181 5.52133 18.9861 5.492C18.9568 5.46 18.9208 5.444 18.8781 5.444H16.9581C16.9154 5.444 16.8781 5.46 16.8461 5.492C16.8168 5.52133 16.8021 5.55733 16.8021 5.6V7.52C16.8021 7.56267 16.8168 7.6 16.8461 7.632C16.8781 7.66133 16.9154 7.676 16.9581 7.676ZM19.814 8V5.6C19.814 5.512 19.8354 5.432 19.878 5.36C19.9207 5.28533 19.978 5.22667 20.05 5.184C20.1247 5.14133 20.206 5.12 20.294 5.12H22.214C22.302 5.12 22.382 5.14133 22.454 5.184C22.5287 5.22667 22.5874 5.28533 22.63 5.36C22.6727 5.432 22.694 5.512 22.694 5.6V8H22.37V6.948H20.138V8H19.814ZM20.138 6.624H22.37V5.6C22.37 5.55733 22.354 5.52133 22.322 5.492C22.2927 5.46 22.2567 5.444 22.214 5.444H20.294C20.2514 5.444 20.214 5.46 20.182 5.492C20.1527 5.52133 20.138 5.55733 20.138 5.6V6.624ZM24.2858 8V5.444H23.0058V5.12H25.8858V5.444H24.6098V8H24.2858ZM26.1929 8V5.6C26.1929 5.512 26.2143 5.432 26.2569 5.36C26.2996 5.28533 26.3569 5.22667 26.4289 5.184C26.5036 5.14133 26.5849 5.12 26.6729 5.12H28.5929C28.6809 5.12 28.7609 5.14133 28.8329 5.184C28.9076 5.22667 28.9663 5.28533 29.0089 5.36C29.0516 5.432 29.0729 5.512 29.0729 5.6V8H28.7489V6.948H26.5169V8H26.1929ZM26.5169 6.624H28.7489V5.6C28.7489 5.55733 28.7329 5.52133 28.7009 5.492C28.6716 5.46 28.6356 5.444 28.5929 5.444H26.6729C26.6303 5.444 26.5929 5.46 26.5609 5.492C26.5316 5.52133 26.5169 5.55733 26.5169 5.6V6.624ZM29.5207 8V7.672H29.8487V8H29.5207ZM30.8442 8C30.7562 8 30.6748 7.97867 30.6002 7.936C30.5282 7.89333 30.4708 7.836 30.4282 7.764C30.3855 7.68933 30.3642 7.608 30.3642 7.52V7.408H30.6882V7.52C30.6882 7.56267 30.7028 7.6 30.7322 7.632C30.7642 7.66133 30.8015 7.676 30.8442 7.676H32.7642C32.8068 7.676 32.8428 7.66133 32.8722 7.632C32.9042 7.6 32.9202 7.56267 32.9202 7.52V6.876C32.9202 6.83333 32.9042 6.79733 32.8722 6.768C32.8428 6.73867 32.8068 6.724 32.7642 6.724H30.8442C30.7562 6.724 30.6748 6.70267 30.6002 6.66C30.5282 6.61467 30.4708 6.556 30.4282 6.484C30.3855 6.412 30.3642 6.332 30.3642 6.244V5.6C30.3642 5.512 30.3855 5.432 30.4282 5.36C30.4708 5.28533 30.5282 5.22667 30.6002 5.184C30.6748 5.14133 30.7562 5.12 30.8442 5.12H32.7642C32.8522 5.12 32.9322 5.14133 33.0042 5.184C33.0788 5.22667 33.1375 5.28533 33.1802 5.36C33.2228 5.432 33.2442 5.512 33.2442 5.6V5.712H32.9202V5.6C32.9202 5.55733 32.9042 5.52133 32.8722 5.492C32.8428 5.46 32.8068 5.444 32.7642 5.444H30.8442C30.8015 5.444 30.7642 5.46 30.7322 5.492C30.7028 5.52133 30.6882 5.55733 30.6882 5.6V6.244C30.6882 6.28667 30.7028 6.32267 30.7322 6.352C30.7642 6.38133 30.8015 6.396 30.8442 6.396H32.7642C32.8522 6.396 32.9322 6.41867 33.0042 6.464C33.0788 6.50667 33.1375 6.564 33.1802 6.636C33.2228 6.708 33.2442 6.788 33.2442 6.876V7.52C33.2442 7.608 33.2228 7.68933 33.1802 7.764C33.1375 7.836 33.0788 7.89333 33.0042 7.936C32.9322 7.97867 32.8522 8 32.7642 8H30.8442ZM34.8622 8V6.916L33.5382 5.12H33.9102L35.0262 6.528L36.1302 5.12H36.5102L35.1862 6.916V8H34.8622ZM36.8568 8V5.12H37.3008L39.4128 7.632V5.12H39.7368V8H39.2928L37.1808 5.488V8H36.8568ZM39.9849 8V7.576L41.9809 5.152L42.0089 5.12V5.536L40.0169 7.96L39.9849 8ZM42.2749 8V6.92C42.2749 6.82933 42.2962 6.748 42.3389 6.676C42.3815 6.60133 42.4389 6.54267 42.5109 6.5C42.5855 6.45733 42.6682 6.436 42.7589 6.436H44.6989C44.7415 6.436 44.7775 6.42133 44.8069 6.392C44.8389 6.36 44.8549 6.32267 44.8549 6.28V5.604C44.8549 5.56133 44.8389 5.52533 44.8069 5.496C44.7775 5.464 44.7415 5.448 44.6989 5.448H42.7589C42.7162 5.448 42.6789 5.464 42.6469 5.496C42.6175 5.52533 42.6029 5.56133 42.6029 5.604V5.716H42.2749V5.604C42.2749 5.51333 42.2962 5.432 42.3389 5.36C42.3815 5.28533 42.4389 5.22667 42.5109 5.184C42.5855 5.13867 42.6682 5.116 42.7589 5.116H44.6989C44.7869 5.116 44.8669 5.13867 44.9389 5.184C45.0135 5.22667 45.0722 5.28533 45.1149 5.36C45.1602 5.432 45.1829 5.51333 45.1829 5.604V6.28C45.1829 6.368 45.1602 6.44933 45.1149 6.524C45.0722 6.596 45.0135 6.65467 44.9389 6.7C44.8669 6.74267 44.7869 6.764 44.6989 6.764H42.7589C42.7162 6.764 42.6789 6.78 42.6469 6.812C42.6175 6.84133 42.6029 6.87733 42.6029 6.92V7.516C42.6029 7.55867 42.6175 7.596 42.6469 7.628C42.6789 7.65733 42.7162 7.672 42.7589 7.672H45.1829V8H42.2749ZM46.0672 8C45.9765 8 45.8939 7.97867 45.8192 7.936C45.7472 7.89067 45.6885 7.832 45.6432 7.76C45.6005 7.68533 45.5792 7.604 45.5792 7.516V7.452H45.9112V7.516C45.9112 7.55867 45.9259 7.596 45.9552 7.628C45.9872 7.65733 46.0245 7.672 46.0672 7.672H48.0072C48.0499 7.672 48.0859 7.65733 48.1152 7.628C48.1472 7.596 48.1632 7.55867 48.1632 7.516V6.848C48.1632 6.80533 48.1472 6.76933 48.1152 6.74C48.0859 6.708 48.0499 6.692 48.0072 6.692H46.1312V6.364H47.8792C47.9219 6.364 47.9579 6.34933 47.9872 6.32C48.0192 6.288 48.0352 6.25067 48.0352 6.208V5.604C48.0352 5.56133 48.0192 5.52533 47.9872 5.496C47.9579 5.464 47.9219 5.448 47.8792 5.448H46.0672C46.0245 5.448 45.9872 5.464 45.9552 5.496C45.9259 5.52533 45.9112 5.56133 45.9112 5.604V5.708H45.5792V5.604C45.5792 5.51333 45.6005 5.432 45.6432 5.36C45.6885 5.28533 45.7472 5.22667 45.8192 5.184C45.8939 5.13867 45.9765 5.116 46.0672 5.116H47.8792C47.9699 5.116 48.0512 5.13867 48.1232 5.184C48.1979 5.22667 48.2565 5.28533 48.2992 5.36C48.3419 5.432 48.3632 5.51333 48.3632 5.604V6.208C48.3632 6.24533 48.3579 6.28267 48.3472 6.32C48.3392 6.35467 48.3285 6.38667 48.3152 6.416C48.3819 6.48 48.4272 6.55067 48.4512 6.628C48.4779 6.70533 48.4912 6.77867 48.4912 6.848V7.516C48.4912 7.604 48.4685 7.68533 48.4232 7.76C48.3805 7.832 48.3219 7.89067 48.2472 7.936C48.1752 7.97867 48.0952 8 48.0072 8H46.0672ZM48.6959 8V7.576L50.6919 5.152L50.7199 5.12V5.536L48.7279 7.96L48.6959 8ZM52.7898 8V7.256H50.7818V6.888L52.7498 5.116H53.1178V6.928H53.5658V7.256H53.1178V8H52.7898ZM51.2018 6.928H52.7898V5.56L51.2018 6.928ZM53.9077 8V6.92C53.9077 6.82933 53.929 6.748 53.9717 6.676C54.0144 6.60133 54.0717 6.54267 54.1437 6.5C54.2184 6.45733 54.301 6.436 54.3917 6.436H56.3317C56.3744 6.436 56.4104 6.42133 56.4397 6.392C56.4717 6.36 56.4877 6.32267 56.4877 6.28V5.604C56.4877 5.56133 56.4717 5.52533 56.4397 5.496C56.4104 5.464 56.3744 5.448 56.3317 5.448H54.3917C54.349 5.448 54.3117 5.464 54.2797 5.496C54.2504 5.52533 54.2357 5.56133 54.2357 5.604V5.716H53.9077V5.604C53.9077 5.51333 53.929 5.432 53.9717 5.36C54.0144 5.28533 54.0717 5.22667 54.1437 5.184C54.2184 5.13867 54.301 5.116 54.3917 5.116H56.3317C56.4197 5.116 56.4997 5.13867 56.5717 5.184C56.6464 5.22667 56.705 5.28533 56.7477 5.36C56.793 5.432 56.8157 5.51333 56.8157 5.604V6.28C56.8157 6.368 56.793 6.44933 56.7477 6.524C56.705 6.596 56.6464 6.65467 56.5717 6.7C56.4997 6.74267 56.4197 6.764 56.3317 6.764H54.3917C54.349 6.764 54.3117 6.78 54.2797 6.812C54.2504 6.84133 54.2357 6.87733 54.2357 6.92V7.516C54.2357 7.55867 54.2504 7.596 54.2797 7.628C54.3117 7.65733 54.349 7.672 54.3917 7.672H56.8157V8H53.9077ZM8.28181 13V12.576L10.2778 10.152L10.3058 10.12V10.536L8.31381 12.96L8.28181 13ZM10.3678 13V12.576L12.3637 10.152L12.3918 10.12V10.536L10.3998 12.96L10.3678 13ZM13.1137 13C13.0257 13 12.9444 12.9787 12.8697 12.936C12.7977 12.8933 12.7404 12.836 12.6977 12.764C12.655 12.6893 12.6337 12.608 12.6337 12.52V12.408H12.9577V12.52C12.9577 12.5627 12.9724 12.6 13.0017 12.632C13.0337 12.6613 13.071 12.676 13.1137 12.676H15.0337C15.0764 12.676 15.1124 12.6613 15.1417 12.632C15.1737 12.6 15.1897 12.5627 15.1897 12.52V11.876C15.1897 11.8333 15.1737 11.7973 15.1417 11.768C15.1124 11.7387 15.0764 11.724 15.0337 11.724H13.1137C13.0257 11.724 12.9444 11.7027 12.8697 11.66C12.7977 11.6147 12.7404 11.556 12.6977 11.484C12.655 11.412 12.6337 11.332 12.6337 11.244V10.6C12.6337 10.512 12.655 10.432 12.6977 10.36C12.7404 10.2853 12.7977 10.2267 12.8697 10.184C12.9444 10.1413 13.0257 10.12 13.1137 10.12H15.0337C15.1217 10.12 15.2017 10.1413 15.2737 10.184C15.3484 10.2267 15.407 10.2853 15.4497 10.36C15.4924 10.432 15.5137 10.512 15.5137 10.6V10.712H15.1897V10.6C15.1897 10.5573 15.1737 10.5213 15.1417 10.492C15.1124 10.46 15.0764 10.444 15.0337 10.444H13.1137C13.071 10.444 13.0337 10.46 13.0017 10.492C12.9724 10.5213 12.9577 10.5573 12.9577 10.6V11.244C12.9577 11.2867 12.9724 11.3227 13.0017 11.352C13.0337 11.3813 13.071 11.396 13.1137 11.396H15.0337C15.1217 11.396 15.2017 11.4187 15.2737 11.464C15.3484 11.5067 15.407 11.564 15.4497 11.636C15.4924 11.708 15.5137 11.788 15.5137 11.876V12.52C15.5137 12.608 15.4924 12.6893 15.4497 12.764C15.407 12.836 15.3484 12.8933 15.2737 12.936C15.2017 12.9787 15.1217 13 15.0337 13H13.1137ZM17.1317 13V11.916L15.8077 10.12H16.1797L17.2957 11.528L18.3997 10.12H18.7797L17.4557 11.916V13H17.1317ZM19.6063 13C19.5183 13 19.437 12.9787 19.3623 12.936C19.2903 12.8933 19.233 12.836 19.1903 12.764C19.1477 12.6893 19.1263 12.608 19.1263 12.52V10.6C19.1263 10.512 19.1477 10.432 19.1903 10.36C19.233 10.2853 19.2903 10.2267 19.3623 10.184C19.437 10.1413 19.5183 10.12 19.6063 10.12H21.5263C21.6143 10.12 21.6943 10.1413 21.7663 10.184C21.841 10.2267 21.8997 10.2853 21.9423 10.36C21.985 10.432 22.0063 10.512 22.0063 10.6V10.716H21.6823V10.6C21.6823 10.5573 21.6663 10.5213 21.6343 10.492C21.605 10.46 21.569 10.444 21.5263 10.444H19.6063C19.5637 10.444 19.5263 10.46 19.4943 10.492C19.465 10.5213 19.4503 10.5573 19.4503 10.6V12.52C19.4503 12.5627 19.465 12.6 19.4943 12.632C19.5263 12.6613 19.5637 12.676 19.6063 12.676H21.5263C21.569 12.676 21.605 12.6613 21.6343 12.632C21.6663 12.6 21.6823 12.5627 21.6823 12.52V11.808H20.9703V11.48H22.0063V12.52C22.0063 12.608 21.985 12.6893 21.9423 12.764C21.8997 12.836 21.841 12.8933 21.7663 12.936C21.6943 12.9787 21.6143 13 21.5263 13H19.6063ZM22.4467 13V10.12H22.8907L25.0027 12.632V10.12H25.3267V13H24.8827L22.7707 10.488V13H22.4467ZM25.7828 13V10.6C25.7828 10.512 25.8041 10.432 25.8468 10.36C25.8894 10.2853 25.9468 10.2267 26.0188 10.184C26.0934 10.1413 26.1748 10.12 26.2628 10.12H28.1828C28.2708 10.12 28.3508 10.1413 28.4228 10.184C28.4974 10.2267 28.5561 10.2853 28.5988 10.36C28.6414 10.432 28.6628 10.512 28.6628 10.6V13H28.3388V11.948H26.1068V13H25.7828ZM26.1068 11.624H28.3388V10.6C28.3388 10.5573 28.3228 10.5213 28.2908 10.492C28.2614 10.46 28.2254 10.444 28.1828 10.444H26.2628C26.2201 10.444 26.1828 10.46 26.1508 10.492C26.1214 10.5213 26.1068 10.5573 26.1068 10.6V11.624ZM29.1225 13V10.116H29.4465V12.676H32.0025V13H29.1225ZM33.3376 13V10.12H35.6136C35.7016 10.12 35.7816 10.1413 35.8536 10.184C35.9282 10.2267 35.9869 10.2853 36.0296 10.36C36.0722 10.432 36.0936 10.512 36.0936 10.6V11.212C36.0936 11.2493 36.0882 11.2867 36.0776 11.324C36.0696 11.3587 36.0576 11.392 36.0416 11.424C36.1002 11.512 36.1442 11.588 36.1736 11.652C36.2029 11.716 36.2176 11.7813 36.2176 11.848V12.52C36.2176 12.608 36.1962 12.6893 36.1536 12.764C36.1109 12.836 36.0522 12.8933 35.9776 12.936C35.9056 12.9787 35.8256 13 35.7376 13H33.3376ZM33.8176 12.676H35.7376C35.7802 12.676 35.8162 12.6613 35.8456 12.632C35.8776 12.6 35.8936 12.5627 35.8936 12.52V11.848C35.8936 11.8053 35.8776 11.7693 35.8456 11.74C35.8162 11.708 35.7802 11.692 35.7376 11.692H33.8176C33.7749 11.692 33.7376 11.708 33.7056 11.74C33.6762 11.7693 33.6616 11.8053 33.6616 11.848V12.52C33.6616 12.5627 33.6762 12.6 33.7056 12.632C33.7376 12.6613 33.7749 12.676 33.8176 12.676ZM33.8176 11.368H35.6136C35.6562 11.368 35.6922 11.3533 35.7216 11.324C35.7509 11.292 35.7656 11.2547 35.7656 11.212V10.6C35.7656 10.5573 35.7509 10.5213 35.7216 10.492C35.6922 10.46 35.6562 10.444 35.6136 10.444H33.8176C33.7749 10.444 33.7376 10.46 33.7056 10.492C33.6762 10.5213 33.6616 10.5573 33.6616 10.6V11.212C33.6616 11.2547 33.6762 11.292 33.7056 11.324C33.7376 11.3533 33.7749 11.368 33.8176 11.368ZM39.0857 13L38.1457 11.88H38.5697L39.5137 12.996V13H39.0857ZM36.6537 13V10.124H39.0537C39.1417 10.124 39.2217 10.1467 39.2937 10.192C39.3684 10.2347 39.427 10.292 39.4697 10.364C39.5124 10.436 39.5337 10.516 39.5337 10.604V11.448C39.5337 11.536 39.5124 11.616 39.4697 11.688C39.427 11.76 39.3684 11.8187 39.2937 11.864C39.2217 11.9067 39.1417 11.928 39.0537 11.928H36.9777V13H36.6537ZM37.1337 11.6H39.0537C39.0964 11.6 39.1324 11.5853 39.1617 11.556C39.1937 11.5267 39.2097 11.4907 39.2097 11.448V10.604C39.2097 10.5613 39.1937 10.5253 39.1617 10.496C39.1324 10.464 39.0964 10.448 39.0537 10.448H37.1337C37.091 10.448 37.0537 10.464 37.0217 10.496C36.9924 10.5253 36.9777 10.5613 36.9777 10.604V11.448C36.9777 11.4907 36.9924 11.5267 37.0217 11.556C37.0537 11.5853 37.091 11.6 37.1337 11.6ZM39.9625 13V10.12H42.5905V10.444H40.2865V11.396H42.1385V11.724H40.2865V12.676H42.5905V13H39.9625ZM43.025 13V10.6C43.025 10.512 43.0463 10.432 43.089 10.36C43.1316 10.2853 43.189 10.2267 43.261 10.184C43.3356 10.1413 43.417 10.12 43.505 10.12H45.425C45.513 10.12 45.593 10.1413 45.665 10.184C45.7396 10.2267 45.7983 10.2853 45.841 10.36C45.8836 10.432 45.905 10.512 45.905 10.6V13H45.581V11.948H43.349V13H43.025ZM43.349 11.624H45.581V10.6C45.581 10.5573 45.565 10.5213 45.533 10.492C45.5036 10.46 45.4676 10.444 45.425 10.444H43.505C43.4623 10.444 43.425 10.46 43.393 10.492C43.3636 10.5213 43.349 10.5573 43.349 10.6V11.624ZM46.8407 13C46.7527 13 46.6714 12.9787 46.5967 12.936C46.5247 12.8933 46.4674 12.836 46.4247 12.764C46.3821 12.6893 46.3607 12.608 46.3607 12.52V10.6C46.3607 10.512 46.3821 10.432 46.4247 10.36C46.4674 10.2853 46.5247 10.2267 46.5967 10.184C46.6714 10.1413 46.7527 10.12 46.8407 10.12H49.2327V10.444H46.8407C46.7981 10.444 46.7607 10.46 46.7287 10.492C46.6994 10.5213 46.6847 10.5573 46.6847 10.6V12.52C46.6847 12.5627 46.6994 12.6 46.7287 12.632C46.7607 12.6613 46.7981 12.676 46.8407 12.676H49.2327V13H46.8407ZM49.6538 13V10.12H49.9778V11.396H52.2778V10.12H52.6058V13H52.2778V11.724H49.9778V13H49.6538ZM52.8521 13V12.576L54.8481 10.152L54.8761 10.12V10.536L52.8841 12.96L52.8521 13ZM54.9381 13V12.576L56.9341 10.152L56.9621 10.12V10.536L54.9701 12.96L54.9381 13ZM3.54663 18L2.60663 16.88H3.03063L3.97463 17.996V18H3.54663ZM1.11463 18V15.124H3.51463C3.60263 15.124 3.68263 15.1467 3.75463 15.192C3.82929 15.2347 3.88796 15.292 3.93063 15.364C3.97329 15.436 3.99463 15.516 3.99463 15.604V16.448C3.99463 16.536 3.97329 16.616 3.93063 16.688C3.88796 16.76 3.82929 16.8187 3.75463 16.864C3.68263 16.9067 3.60263 16.928 3.51463 16.928H1.43863V18H1.11463ZM1.59463 16.6H3.51463C3.55729 16.6 3.59329 16.5853 3.62263 16.556C3.65463 16.5267 3.67063 16.4907 3.67063 16.448V15.604C3.67063 15.5613 3.65463 15.5253 3.62263 15.496C3.59329 15.464 3.55729 15.448 3.51463 15.448H1.59463C1.55196 15.448 1.51463 15.464 1.48263 15.496C1.45329 15.5253 1.43863 15.5613 1.43863 15.604V16.448C1.43863 16.4907 1.45329 16.5267 1.48263 16.556C1.51463 16.5853 1.55196 16.6 1.59463 16.6ZM4.42341 18V15.12H7.05141V15.444H4.74741V16.396H6.59941V16.724H4.74741V17.676H7.05141V18H4.42341ZM7.48591 18V15.6C7.48591 15.512 7.50724 15.432 7.54991 15.36C7.59257 15.2853 7.64991 15.2267 7.72191 15.184C7.79657 15.1413 7.87791 15.12 7.96591 15.12H9.88591C9.97391 15.12 10.0539 15.1413 10.1259 15.184C10.2006 15.2267 10.2592 15.2853 10.3019 15.36C10.3446 15.432 10.3659 15.512 10.3659 15.6V18H10.0419V16.948H7.80991V18H7.48591ZM7.80991 16.624H10.0419V15.6C10.0419 15.5573 10.0259 15.5213 9.99391 15.492C9.96457 15.46 9.92857 15.444 9.88591 15.444H7.96591C7.92324 15.444 7.88591 15.46 7.85391 15.492C7.82457 15.5213 7.80991 15.5573 7.80991 15.6V16.624ZM11.3017 18C11.2137 18 11.1323 17.9787 11.0577 17.936C10.9857 17.8933 10.9283 17.836 10.8857 17.764C10.843 17.6893 10.8217 17.608 10.8217 17.52V15.6C10.8217 15.512 10.843 15.432 10.8857 15.36C10.9283 15.2853 10.9857 15.2267 11.0577 15.184C11.1323 15.1413 11.2137 15.12 11.3017 15.12H13.6937V15.444H11.3017C11.259 15.444 11.2217 15.46 11.1897 15.492C11.1603 15.5213 11.1457 15.5573 11.1457 15.6V17.52C11.1457 17.5627 11.1603 17.6 11.1897 17.632C11.2217 17.6613 11.259 17.676 11.3017 17.676H13.6937V18H11.3017ZM15.2467 18V15.444H13.9667V15.12H16.8467V15.444H15.5707V18H15.2467ZM17.1859 18V15.12H17.5139V18H17.1859ZM19.5853 18L17.9173 15.12H18.2973L19.7733 17.684L21.2453 15.12H21.6253L19.9613 18H19.5853ZM21.8726 18V15.6C21.8726 15.512 21.894 15.432 21.9366 15.36C21.9793 15.2853 22.0366 15.2267 22.1086 15.184C22.1833 15.1413 22.2646 15.12 22.3526 15.12H24.2726C24.3606 15.12 24.4406 15.1413 24.5126 15.184C24.5873 15.2267 24.646 15.2853 24.6886 15.36C24.7313 15.432 24.7526 15.512 24.7526 15.6V18H24.4286V16.948H22.1966V18H21.8726ZM22.1966 16.624H24.4286V15.6C24.4286 15.5573 24.4126 15.5213 24.3806 15.492C24.3513 15.46 24.3153 15.444 24.2726 15.444H22.3526C22.31 15.444 22.2726 15.46 22.2406 15.492C22.2113 15.5213 22.1966 15.5573 22.1966 15.6V16.624ZM26.3444 18V15.444H25.0644V15.12H27.9444V15.444H26.6684V18H26.3444ZM28.2835 18V15.12H28.6115V18H28.2835ZM29.571 18C29.483 18 29.4017 17.9787 29.327 17.936C29.255 17.8933 29.1977 17.836 29.155 17.764C29.1123 17.6893 29.091 17.608 29.091 17.52V15.6C29.091 15.512 29.1123 15.432 29.155 15.36C29.1977 15.2853 29.255 15.2267 29.327 15.184C29.4017 15.1413 29.483 15.12 29.571 15.12H31.491C31.579 15.12 31.659 15.1413 31.731 15.184C31.8057 15.2267 31.8643 15.2853 31.907 15.36C31.9497 15.432 31.971 15.512 31.971 15.6V17.52C31.971 17.608 31.9497 17.6893 31.907 17.764C31.8643 17.836 31.8057 17.8933 31.731 17.936C31.659 17.9787 31.579 18 31.491 18H29.571ZM29.571 17.676H31.491C31.5337 17.676 31.5697 17.6613 31.599 17.632C31.631 17.6 31.647 17.5627 31.647 17.52V15.6C31.647 15.5573 31.631 15.5213 31.599 15.492C31.5697 15.46 31.5337 15.444 31.491 15.444H29.571C29.5283 15.444 29.491 15.46 29.459 15.492C29.4297 15.5213 29.415 15.5573 29.415 15.6V17.52C29.415 17.5627 29.4297 17.6 29.459 17.632C29.491 17.6613 29.5283 17.676 29.571 17.676ZM32.4115 18V15.12H32.8555L34.9675 17.632V15.12H35.2915V18H34.8475L32.7355 15.488V18H32.4115ZM36.8295 18V15.124H39.2295C39.3175 15.124 39.3975 15.1467 39.4695 15.192C39.5441 15.2347 39.6028 15.292 39.6455 15.364C39.6881 15.436 39.7095 15.516 39.7095 15.604V16.448C39.7095 16.536 39.6881 16.616 39.6455 16.688C39.6028 16.76 39.5441 16.8187 39.4695 16.864C39.3975 16.9067 39.3175 16.928 39.2295 16.928H37.1535V18H36.8295ZM37.3095 16.6H39.2295C39.2721 16.6 39.3081 16.5853 39.3375 16.556C39.3695 16.5267 39.3855 16.4907 39.3855 16.448V15.604C39.3855 15.5613 39.3695 15.5253 39.3375 15.496C39.3081 15.464 39.2721 15.448 39.2295 15.448H37.3095C37.2668 15.448 37.2295 15.464 37.1975 15.496C37.1681 15.5253 37.1535 15.5613 37.1535 15.604V16.448C37.1535 16.4907 37.1681 16.5267 37.1975 16.556C37.2295 16.5853 37.2668 16.6 37.3095 16.6ZM40.0015 18V15.12H42.6295V15.444H40.3255V16.396H42.1775V16.724H40.3255V17.676H42.6295V18H40.0015ZM43.056 18V15.12H43.5L45.612 17.632V15.12H45.936V18H45.492L43.38 15.488V18H43.056ZM46.3922 18V15.12H48.7922C48.8802 15.12 48.9602 15.1413 49.0322 15.184C49.1068 15.2267 49.1655 15.2853 49.2082 15.36C49.2508 15.432 49.2722 15.512 49.2722 15.6V17.52C49.2722 17.608 49.2508 17.6893 49.2082 17.764C49.1655 17.836 49.1068 17.8933 49.0322 17.936C48.9602 17.9787 48.8802 18 48.7922 18H46.3922ZM46.8722 17.676H48.7922C48.8348 17.676 48.8708 17.6613 48.9002 17.632C48.9322 17.6 48.9482 17.5627 48.9482 17.52V15.6C48.9482 15.5573 48.9322 15.5213 48.9002 15.492C48.8708 15.46 48.8348 15.444 48.7922 15.444H46.8722C46.8295 15.444 46.7922 15.46 46.7602 15.492C46.7308 15.5213 46.7162 15.5573 46.7162 15.6V17.52C46.7162 17.5627 46.7308 17.6 46.7602 17.632C46.7922 17.6613 46.8295 17.676 46.8722 17.676ZM49.7601 18V15.12H50.0881V18H49.7601ZM50.5756 18V15.12H51.0196L53.1316 17.632V15.12H53.4556V18H53.0116L50.8996 15.488V18H50.5756ZM54.3837 18C54.2957 18 54.2144 17.9787 54.1397 17.936C54.0677 17.8933 54.0104 17.836 53.9677 17.764C53.925 17.6893 53.9037 17.608 53.9037 17.52V15.6C53.9037 15.512 53.925 15.432 53.9677 15.36C54.0104 15.2853 54.0677 15.2267 54.1397 15.184C54.2144 15.1413 54.2957 15.12 54.3837 15.12H56.3037C56.3917 15.12 56.4717 15.1413 56.5437 15.184C56.6184 15.2267 56.677 15.2853 56.7197 15.36C56.7624 15.432 56.7837 15.512 56.7837 15.6V15.716H56.4597V15.6C56.4597 15.5573 56.4437 15.5213 56.4117 15.492C56.3824 15.46 56.3464 15.444 56.3037 15.444H54.3837C54.341 15.444 54.3037 15.46 54.2717 15.492C54.2424 15.5213 54.2277 15.5573 54.2277 15.6V17.52C54.2277 17.5627 54.2424 17.6 54.2717 17.632C54.3037 17.6613 54.341 17.676 54.3837 17.676H56.3037C56.3464 17.676 56.3824 17.6613 56.4117 17.632C56.4437 17.6 56.4597 17.5627 56.4597 17.52V16.808H55.7477V16.48H56.7837V17.52C56.7837 17.608 56.7624 17.6893 56.7197 17.764C56.677 17.836 56.6184 17.8933 56.5437 17.936C56.4717 17.9787 56.3917 18 56.3037 18H54.3837Z" fill="#EB2941"/>
</svg>
