<svg width="63" height="19" viewBox="0 0 63 19" fill="none" xmlns="http://www.w3.org/2000/svg">
<path d="M2 7H7.80645L10.7097 2H17L23.5 8.5H26.5V10.5V11H13" stroke="#55EAD4"/>
<path d="M5 9H7.80642L10.7096 14H13" stroke="#55EAD4"/>
<path d="M10 8H17.5L23.5 2H30.5V17H19" stroke="#55EAD4"/>
<circle cx="2" cy="7" r="1" fill="#55EAD4"/>
<circle cx="5" cy="9" r="1" fill="#55EAD4"/>
<circle cx="10" cy="8" r="1" fill="#55EAD4"/>
<path d="M20 17C20 17.5523 19.5523 18 19 18C18.4477 18 18 17.5523 18 17C18 16.4477 18.4477 16 19 16C19.5523 16 20 16.4477 20 17Z" fill="#55EAD4"/>
<path d="M14 14C14 14.5523 13.5523 15 13 15C12.4477 15 12 14.5523 12 14C12 13.4477 12.4477 13 13 13C13.5523 13 14 13.4477 14 14Z" fill="#55EAD4"/>
<path d="M14 11C14 11.5523 13.5523 12 13 12C12.4477 12 12 11.5523 12 11C12 10.4477 12.4477 10 13 10C13.5523 10 14 10.4477 14 11Z" fill="#55EAD4"/>
<circle cx="19" cy="17" r="1.75" stroke="#55EAD4" stroke-width="0.5"/>
<circle cx="2" cy="7" r="1.75" stroke="#55EAD4" stroke-width="0.5"/>
<path d="M32.28 5V1.4H32.835L35.475 4.54V1.4H35.88V5H35.325L32.685 1.86V5H32.28ZM37.0202 5C36.9102 5 36.8085 4.97333 36.7152 4.92C36.6252 4.86333 36.5518 4.79 36.4952 4.7C36.4418 4.60667 36.4152 4.505 36.4152 4.395V2.705C36.4152 2.595 36.4418 2.495 36.4952 2.405C36.5518 2.31167 36.6252 2.23833 36.7152 2.185C36.8085 2.12833 36.9102 2.1 37.0202 2.1H38.7602C38.8735 2.1 38.9752 2.12833 39.0652 2.185C39.1585 2.23833 39.2318 2.31167 39.2852 2.405C39.3418 2.495 39.3702 2.595 39.3702 2.705V3.755H36.8252V4.395C36.8252 4.44833 36.8435 4.495 36.8802 4.535C36.9202 4.57167 36.9668 4.59 37.0202 4.59H39.3702V5H37.0202ZM36.8252 3.345H38.9552V2.705C38.9552 2.65167 38.9352 2.60667 38.8952 2.57C38.8585 2.53 38.8135 2.51 38.7602 2.51H37.0202C36.9668 2.51 36.9202 2.53 36.8802 2.57C36.8435 2.60667 36.8252 2.65167 36.8252 2.705V3.345ZM40.4921 5C40.3821 5 40.2804 4.97333 40.1871 4.92C40.0971 4.86333 40.0237 4.79 39.9671 4.7C39.9137 4.60667 39.8871 4.505 39.8871 4.395V2.1H40.2971V4.395C40.2971 4.44833 40.3154 4.495 40.3521 4.535C40.3921 4.57167 40.4387 4.59 40.4921 4.59H42.2321C42.2854 4.59 42.3321 4.57167 42.3721 4.535C42.4121 4.495 42.4321 4.44833 42.4321 4.395V2.1H42.8421V4.395C42.8421 4.505 42.8137 4.60667 42.7571 4.7C42.7037 4.79 42.6304 4.86333 42.5371 4.92C42.4471 4.97333 42.3454 5 42.2321 5H40.4921ZM43.3586 5V2.705C43.3586 2.595 43.3853 2.495 43.4386 2.405C43.4953 2.31167 43.5686 2.23833 43.6586 2.185C43.752 2.12833 43.8536 2.1 43.9636 2.1H45.5936V2.51H43.9636C43.9103 2.51 43.8636 2.53 43.8236 2.57C43.787 2.60667 43.7686 2.65167 43.7686 2.705V5H43.3586ZM46.5222 5C46.4122 5 46.3106 4.97333 46.2172 4.92C46.1272 4.86333 46.0539 4.79 45.9972 4.7C45.9439 4.60667 45.9172 4.505 45.9172 4.395V3.345H48.4572V2.705C48.4572 2.65167 48.4372 2.60667 48.3972 2.57C48.3606 2.53 48.3156 2.51 48.2622 2.51H45.9172V2.1H48.2622C48.3756 2.1 48.4772 2.12833 48.5672 2.185C48.6606 2.23833 48.7339 2.31167 48.7872 2.405C48.8439 2.495 48.8722 2.595 48.8722 2.705V5H46.5222ZM46.5222 4.59H48.4572V3.755H46.3272V4.395C46.3272 4.44833 46.3456 4.495 46.3822 4.535C46.4222 4.57167 46.4689 4.59 46.5222 4.59ZM49.9451 5C49.8351 5 49.7334 4.97333 49.6401 4.92C49.5501 4.86333 49.4767 4.79 49.4201 4.7C49.3667 4.60667 49.3401 4.505 49.3401 4.395V1.15H49.7501V4.395C49.7501 4.44833 49.7684 4.495 49.8051 4.535C49.8451 4.57167 49.8917 4.59 49.9451 4.59H50.4351V5H49.9451ZM50.8489 5V2.1H51.2589V5H50.8489ZM50.8489 1.56V1.15H51.2589V1.56H50.8489ZM51.6538 5V4.995L52.8638 3.525L51.6538 2.105V2.1H52.1938L53.1338 3.2L54.0788 2.1H54.6138V2.105L53.4038 3.525L54.6188 4.995V5H54.0788L53.1338 3.84L52.1938 5H51.6538ZM32.88 11C32.77 11 32.6683 10.9733 32.575 10.92C32.485 10.8667 32.4133 10.795 32.36 10.705C32.3067 10.6117 32.28 10.51 32.28 10.4V8C32.28 7.89 32.3067 7.79 32.36 7.7C32.4133 7.60667 32.485 7.53333 32.575 7.48C32.6683 7.42667 32.77 7.4 32.88 7.4H35.87V7.805H32.88C32.8267 7.805 32.78 7.825 32.74 7.865C32.7033 7.90167 32.685 7.94667 32.685 8V10.4C32.685 10.4533 32.7033 10.5 32.74 10.54C32.78 10.5767 32.8267 10.595 32.88 10.595H35.87V11H32.88ZM36.8563 12.15V11.735H38.6663C38.7197 11.735 38.7647 11.715 38.8013 11.675C38.8413 11.6383 38.8613 11.5933 38.8613 11.54V11H36.9263C36.8163 11 36.7147 10.9733 36.6213 10.92C36.5313 10.8633 36.458 10.79 36.4013 10.7C36.348 10.6067 36.3213 10.505 36.3213 10.395V8.11H36.7313V10.395C36.7313 10.4483 36.7497 10.495 36.7863 10.535C36.8263 10.5717 36.873 10.59 36.9263 10.59H38.6663C38.7197 10.59 38.7647 10.5717 38.8013 10.535C38.8413 10.495 38.8613 10.4483 38.8613 10.395V8.11H39.2713V11.54C39.2713 11.6533 39.2447 11.755 39.1913 11.845C39.138 11.9383 39.0647 12.0117 38.9713 12.065C38.8813 12.1217 38.7797 12.15 38.6663 12.15H36.8563ZM39.8042 11V7.15H40.2142V8.1H42.1542C42.2642 8.1 42.3642 8.12833 42.4542 8.185C42.5475 8.23833 42.6208 8.31167 42.6742 8.405C42.7308 8.495 42.7592 8.595 42.7592 8.705V10.395C42.7592 10.505 42.7308 10.6067 42.6742 10.7C42.6208 10.79 42.5475 10.8633 42.4542 10.92C42.3642 10.9733 42.2642 11 42.1542 11H39.8042ZM40.4142 10.59H42.1542C42.2075 10.59 42.2525 10.5717 42.2892 10.535C42.3292 10.495 42.3492 10.4483 42.3492 10.395V8.705C42.3492 8.65167 42.3292 8.60667 42.2892 8.57C42.2525 8.53 42.2075 8.51 42.1542 8.51H40.4142C40.3608 8.51 40.3142 8.53 40.2742 8.57C40.2342 8.60667 40.2142 8.65167 40.2142 8.705V10.395C40.2142 10.4483 40.2342 10.495 40.2742 10.535C40.3142 10.5717 40.3608 10.59 40.4142 10.59ZM43.7291 11C43.6191 11 43.5175 10.9733 43.4241 10.92C43.3341 10.8633 43.2608 10.79 43.2041 10.7C43.1508 10.6067 43.1241 10.505 43.1241 10.395V8.705C43.1241 8.595 43.1508 8.495 43.2041 8.405C43.2608 8.31167 43.3341 8.23833 43.4241 8.185C43.5175 8.12833 43.6191 8.1 43.7291 8.1H45.4691C45.5825 8.1 45.6841 8.12833 45.7741 8.185C45.8675 8.23833 45.9408 8.31167 45.9941 8.405C46.0508 8.495 46.0791 8.595 46.0791 8.705V9.755H43.5341V10.395C43.5341 10.4483 43.5525 10.495 43.5891 10.535C43.6291 10.5717 43.6758 10.59 43.7291 10.59H46.0791V11H43.7291ZM43.5341 9.345H45.6641V8.705C45.6641 8.65167 45.6441 8.60667 45.6041 8.57C45.5675 8.53 45.5225 8.51 45.4691 8.51H43.7291C43.6758 8.51 43.6291 8.53 43.5891 8.57C43.5525 8.60667 43.5341 8.65167 43.5341 8.705V9.345ZM46.5666 11V8.705C46.5666 8.595 46.5933 8.495 46.6466 8.405C46.7033 8.31167 46.7766 8.23833 46.8666 8.185C46.96 8.12833 47.0616 8.1 47.1716 8.1H48.8016V8.51H47.1716C47.1183 8.51 47.0716 8.53 47.0316 8.57C46.995 8.60667 46.9766 8.65167 46.9766 8.705V11H46.5666ZM49.7302 11C49.6202 11 49.5186 10.9733 49.4252 10.92C49.3352 10.8633 49.2619 10.79 49.2052 10.7C49.1519 10.6067 49.1252 10.505 49.1252 10.395V7.15H49.5352V10.395C49.5352 10.4483 49.5536 10.495 49.5902 10.535C49.6302 10.5717 49.6769 10.59 49.7302 10.59H50.2202V11H49.7302ZM50.634 11V8.1H51.044V11H50.634ZM50.634 7.56V7.15H51.044V7.56H50.634ZM51.6108 11V8.1H53.9608C54.0708 8.1 54.1708 8.12833 54.2608 8.185C54.3542 8.23833 54.4275 8.31167 54.4808 8.405C54.5375 8.495 54.5658 8.595 54.5658 8.705V11H54.1558V8.705C54.1558 8.65167 54.1358 8.60667 54.0958 8.57C54.0592 8.53 54.0142 8.51 53.9608 8.51H52.2208C52.1675 8.51 52.1208 8.53 52.0808 8.57C52.0408 8.60667 52.0208 8.65167 52.0208 8.705V11H51.6108ZM55.0923 11V7.15H55.5023V9.345H56.3023L57.4423 8.1H57.9823V8.105L56.6673 9.55L57.9773 10.995V11H57.4423L56.3023 9.755H55.5023V11H55.0923ZM58.8997 11C58.7897 11 58.688 10.9733 58.5947 10.92C58.5047 10.8633 58.4314 10.79 58.3747 10.7C58.3214 10.6067 58.2947 10.505 58.2947 10.395V10.355H58.7047V10.395C58.7047 10.4483 58.723 10.495 58.7597 10.535C58.7997 10.5717 58.8464 10.59 58.8997 10.59H60.6397C60.693 10.59 60.738 10.5717 60.7747 10.535C60.8147 10.495 60.8347 10.4483 60.8347 10.395V9.95C60.8347 9.89667 60.8147 9.85167 60.7747 9.815C60.738 9.775 60.693 9.755 60.6397 9.755H58.8997C58.7897 9.755 58.688 9.72833 58.5947 9.675C58.5047 9.61833 58.4314 9.545 58.3747 9.455C58.3214 9.36167 58.2947 9.26 58.2947 9.15V8.705C58.2947 8.595 58.3214 8.495 58.3747 8.405C58.4314 8.31167 58.5047 8.23833 58.5947 8.185C58.688 8.12833 58.7897 8.1 58.8997 8.1H60.6397C60.753 8.1 60.8547 8.12833 60.9447 8.185C61.038 8.23833 61.1114 8.31167 61.1647 8.405C61.2214 8.495 61.2497 8.595 61.2497 8.705V8.745H60.8347V8.705C60.8347 8.65167 60.8147 8.60667 60.7747 8.57C60.738 8.53 60.693 8.51 60.6397 8.51H58.8997C58.8464 8.51 58.7997 8.53 58.7597 8.57C58.723 8.60667 58.7047 8.65167 58.7047 8.705V9.15C58.7047 9.20333 58.723 9.25 58.7597 9.29C58.7997 9.32667 58.8464 9.345 58.8997 9.345H60.6397C60.753 9.345 60.8547 9.37333 60.9447 9.43C61.038 9.48333 61.1114 9.55667 61.1647 9.65C61.2214 9.74 61.2497 9.84 61.2497 9.95V10.395C61.2497 10.505 61.2214 10.6067 61.1647 10.7C61.1114 10.79 61.038 10.8633 60.9447 10.92C60.8547 10.9733 60.753 11 60.6397 11H58.8997ZM32.33 17V13.4H32.74V17H32.33ZM33.3493 17V13.4H33.9043L36.5443 16.54V13.4H36.9493V17H36.3943L33.7543 13.86V17H33.3493ZM38.1095 17C37.9995 17 37.8978 16.9733 37.8045 16.92C37.7145 16.8667 37.6428 16.795 37.5895 16.705C37.5362 16.6117 37.5095 16.51 37.5095 16.4V14C37.5095 13.89 37.5362 13.79 37.5895 13.7C37.6428 13.6067 37.7145 13.5333 37.8045 13.48C37.8978 13.4267 37.9995 13.4 38.1095 13.4H41.0995V13.805H38.1095C38.0562 13.805 38.0095 13.825 37.9695 13.865C37.9328 13.9017 37.9145 13.9467 37.9145 14V16.4C37.9145 16.4533 37.9328 16.5 37.9695 16.54C38.0095 16.5767 38.0562 16.595 38.1095 16.595H41.0995V17H38.1095ZM41.6108 17V16.59H42.0208V17H41.6108Z" fill="#55EAD4"/>
</svg>
