<svg width="105" height="24" viewBox="0 0 105 24" fill="none" xmlns="http://www.w3.org/2000/svg">
<path d="M0.372 3H0.285C0.265 3 0.255 2.988 0.255 2.964V1.107C0.255 1.083 0.265 1.071 0.285 1.071H0.975C1.105 1.071 1.208 1.109 1.284 1.185C1.36 1.261 1.398 1.365 1.398 1.497V1.848C1.398 1.98 1.36 2.084 1.284 2.16C1.208 2.236 1.105 2.274 0.975 2.274H0.435C0.415 2.274 0.405 2.282 0.405 2.298V2.964C0.405 2.988 0.394 3 0.372 3ZM0.435 2.136H0.963C1.055 2.136 1.125 2.111 1.173 2.061C1.221 2.009 1.245 1.936 1.245 1.842V1.503C1.245 1.407 1.221 1.334 1.173 1.284C1.125 1.232 1.055 1.206 0.963 1.206H0.435C0.415 1.206 0.405 1.215 0.405 1.233V2.112C0.405 2.128 0.415 2.136 0.435 2.136ZM2.44624 3H2.18824C2.05824 3 1.95524 2.962 1.87924 2.886C1.80524 2.81 1.76824 2.706 1.76824 2.574V1.896C1.76824 1.764 1.80524 1.66 1.87924 1.584C1.95524 1.508 2.05824 1.47 2.18824 1.47H2.44624C2.57624 1.47 2.67924 1.508 2.75524 1.584C2.83124 1.66 2.86924 1.764 2.86924 1.896V2.574C2.86924 2.706 2.83124 2.81 2.75524 2.886C2.67924 2.962 2.57624 3 2.44624 3ZM2.20024 2.865H2.43424C2.52624 2.865 2.59624 2.84 2.64424 2.79C2.69424 2.738 2.71924 2.665 2.71924 2.571V1.899C2.71924 1.805 2.69424 1.733 2.64424 1.683C2.59624 1.631 2.52624 1.605 2.43424 1.605H2.20024C2.10824 1.605 2.03824 1.631 1.99024 1.683C1.94224 1.733 1.91824 1.805 1.91824 1.899V2.571C1.91824 2.665 1.94224 2.738 1.99024 2.79C2.03824 2.84 2.10824 2.865 2.20024 2.865ZM4.14152 2.898V2.967C4.14152 2.989 4.13052 3 4.10852 3H3.67652C3.54652 3 3.44352 2.962 3.36752 2.886C3.29352 2.81 3.25652 2.706 3.25652 2.574V1.896C3.25652 1.764 3.29352 1.66 3.36752 1.584C3.44352 1.508 3.54652 1.47 3.67652 1.47H4.10852C4.13052 1.47 4.14152 1.481 4.14152 1.503V1.575C4.14152 1.595 4.13052 1.605 4.10852 1.605H3.68852C3.59652 1.605 3.52652 1.631 3.47852 1.683C3.43052 1.735 3.40652 1.808 3.40652 1.902V2.568C3.40652 2.662 3.43052 2.735 3.47852 2.787C3.52652 2.839 3.59652 2.865 3.68852 2.865H4.10852C4.13052 2.865 4.14152 2.876 4.14152 2.898ZM5.32819 1.47H5.42119C5.43319 1.47 5.44119 1.474 5.44519 1.482C5.44919 1.488 5.44719 1.496 5.43919 1.506L4.98019 2.202V2.214L5.49319 2.964C5.50119 2.974 5.50319 2.983 5.49919 2.991C5.49519 2.997 5.48719 3 5.47519 3H5.38219C5.35219 3 5.32919 2.988 5.31319 2.964L4.81819 2.235C4.81019 2.219 4.81019 2.203 4.81819 2.187L5.26819 1.5C5.28019 1.48 5.30019 1.47 5.32819 1.47ZM4.58419 3H4.49719C4.47719 3 4.46719 2.988 4.46719 2.964V0.927C4.46719 0.903 4.47719 0.891 4.49719 0.891H4.58419C4.60619 0.891 4.61719 0.903 4.61719 0.927V2.964C4.61719 2.988 4.60619 3 4.58419 3ZM6.77618 3H6.14918C6.01918 3 5.91618 2.962 5.84018 2.886C5.76618 2.81 5.72918 2.706 5.72918 2.574V1.896C5.72918 1.764 5.76618 1.66 5.84018 1.584C5.91618 1.508 6.01918 1.47 6.14918 1.47H6.40718C6.53718 1.47 6.64018 1.508 6.71618 1.584C6.79218 1.66 6.83018 1.764 6.83018 1.896V2.277C6.83018 2.301 6.81818 2.313 6.79418 2.313H5.90618C5.88818 2.313 5.87918 2.322 5.87918 2.34V2.571C5.87918 2.665 5.90318 2.738 5.95118 2.79C5.99918 2.84 6.06918 2.865 6.16118 2.865H6.77618C6.79818 2.865 6.80918 2.876 6.80918 2.898V2.967C6.80918 2.989 6.79818 3 6.77618 3ZM5.90618 2.193H6.65318C6.67118 2.193 6.68018 2.184 6.68018 2.166V1.899C6.68018 1.805 6.65618 1.733 6.60818 1.683C6.56018 1.631 6.49018 1.605 6.39818 1.605H6.16118C6.06918 1.605 5.99918 1.631 5.95118 1.683C5.90318 1.733 5.87918 1.805 5.87918 1.899V2.166C5.87918 2.184 5.88818 2.193 5.90618 2.193ZM7.30174 1.605H7.11874C7.09674 1.605 7.08574 1.595 7.08574 1.575V1.503C7.08574 1.481 7.09674 1.47 7.11874 1.47H7.30174C7.31974 1.47 7.32874 1.461 7.32874 1.443V1.2C7.32874 1.176 7.33974 1.164 7.36174 1.164H7.44874C7.47074 1.164 7.48174 1.176 7.48174 1.2V1.443C7.48174 1.461 7.49074 1.47 7.50874 1.47H7.86574C7.88774 1.47 7.89874 1.481 7.89874 1.503V1.575C7.89874 1.595 7.88774 1.605 7.86574 1.605H7.50874C7.49074 1.605 7.48174 1.614 7.48174 1.632V2.577C7.48174 2.669 7.50774 2.74 7.55974 2.79C7.61174 2.84 7.68474 2.865 7.77874 2.865H7.89574C7.91774 2.865 7.92874 2.876 7.92874 2.898V2.967C7.92874 2.989 7.91774 3 7.89574 3H7.76674C7.63474 3 7.52874 2.963 7.44874 2.889C7.36874 2.815 7.32874 2.713 7.32874 2.583V1.632C7.32874 1.614 7.31974 1.605 7.30174 1.605ZM10.0926 3H9.46559C9.33559 3 9.23259 2.962 9.15659 2.886C9.08259 2.81 9.04559 2.706 9.04559 2.574V1.896C9.04559 1.764 9.08259 1.66 9.15659 1.584C9.23259 1.508 9.33559 1.47 9.46559 1.47H9.72359C9.85359 1.47 9.95659 1.508 10.0326 1.584C10.1086 1.66 10.1466 1.764 10.1466 1.896V2.277C10.1466 2.301 10.1346 2.313 10.1106 2.313H9.22259C9.20459 2.313 9.19559 2.322 9.19559 2.34V2.571C9.19559 2.665 9.21959 2.738 9.26759 2.79C9.31559 2.84 9.38559 2.865 9.47759 2.865H10.0926C10.1146 2.865 10.1256 2.876 10.1256 2.898V2.967C10.1256 2.989 10.1146 3 10.0926 3ZM9.22259 2.193H9.96959C9.98759 2.193 9.99659 2.184 9.99659 2.166V1.899C9.99659 1.805 9.97259 1.733 9.92459 1.683C9.87659 1.631 9.80659 1.605 9.71459 1.605H9.47759C9.38559 1.605 9.31559 1.631 9.26759 1.683C9.21959 1.733 9.19559 1.805 9.19559 1.899V2.166C9.19559 2.184 9.20459 2.193 9.22259 2.193ZM10.6691 3H10.5821C10.5621 3 10.5521 2.988 10.5521 2.964V1.506C10.5521 1.482 10.5621 1.47 10.5821 1.47H10.6691C10.6911 1.47 10.7021 1.482 10.7021 1.506V1.626H10.7141C10.7701 1.522 10.8741 1.47 11.0261 1.47H11.2241C11.3521 1.47 11.4531 1.508 11.5271 1.584C11.6011 1.66 11.6381 1.764 11.6381 1.896V2.964C11.6381 2.988 11.6281 3 11.6081 3H11.5211C11.4991 3 11.4881 2.988 11.4881 2.964V1.902C11.4881 1.808 11.4641 1.735 11.4161 1.683C11.3681 1.631 11.2981 1.605 11.2061 1.605H11.0111C10.9151 1.605 10.8391 1.631 10.7831 1.683C10.7291 1.733 10.7021 1.805 10.7021 1.899V2.964C10.7021 2.988 10.6911 3 10.6691 3ZM12.6547 3H12.4627C12.3327 3 12.2297 2.962 12.1537 2.886C12.0797 2.81 12.0427 2.706 12.0427 2.574V1.896C12.0427 1.764 12.0797 1.66 12.1537 1.584C12.2297 1.508 12.3327 1.47 12.4627 1.47H13.0987C13.1187 1.47 13.1287 1.482 13.1287 1.506V2.964C13.1287 2.988 13.1187 3 13.0987 3H13.0117C12.9897 3 12.9787 2.988 12.9787 2.964V2.844H12.9667C12.9147 2.948 12.8107 3 12.6547 3ZM12.9787 2.571V1.632C12.9787 1.614 12.9687 1.605 12.9487 1.605H12.4747C12.3827 1.605 12.3127 1.631 12.2647 1.683C12.2167 1.735 12.1927 1.808 12.1927 1.902V2.568C12.1927 2.662 12.2167 2.735 12.2647 2.787C12.3127 2.839 12.3827 2.865 12.4747 2.865H12.6697C12.7657 2.865 12.8407 2.84 12.8947 2.79C12.9507 2.738 12.9787 2.665 12.9787 2.571ZM13.7585 2.865H14.2355C14.3275 2.865 14.3975 2.84 14.4455 2.79C14.4955 2.738 14.5205 2.664 14.5205 2.568V1.875C14.5205 1.781 14.4955 1.709 14.4455 1.659C14.3975 1.607 14.3275 1.581 14.2355 1.581H14.0375C13.9415 1.581 13.8655 1.607 13.8095 1.659C13.7555 1.709 13.7285 1.781 13.7285 1.875V2.838C13.7285 2.856 13.7385 2.865 13.7585 2.865ZM13.5785 2.964V0.927C13.5785 0.903 13.5885 0.891 13.6085 0.891H13.6955C13.7175 0.891 13.7285 0.903 13.7285 0.927V1.602H13.7405C13.7965 1.498 13.9005 1.446 14.0525 1.446H14.2505C14.3805 1.446 14.4825 1.484 14.5565 1.56C14.6325 1.636 14.6705 1.739 14.6705 1.869V2.574C14.6705 2.706 14.6325 2.81 14.5565 2.886C14.4825 2.962 14.3805 3 14.2505 3H13.6085C13.5885 3 13.5785 2.988 13.5785 2.964ZM15.2222 3H15.1352C15.1152 3 15.1052 2.988 15.1052 2.964V0.927C15.1052 0.903 15.1152 0.891 15.1352 0.891H15.2222C15.2442 0.891 15.2552 0.903 15.2552 0.927V2.964C15.2552 2.988 15.2442 3 15.2222 3ZM16.7371 3H16.1101C15.9801 3 15.8771 2.962 15.8011 2.886C15.7271 2.81 15.6901 2.706 15.6901 2.574V1.896C15.6901 1.764 15.7271 1.66 15.8011 1.584C15.8771 1.508 15.9801 1.47 16.1101 1.47H16.3681C16.4981 1.47 16.6011 1.508 16.6771 1.584C16.7531 1.66 16.7911 1.764 16.7911 1.896V2.277C16.7911 2.301 16.7791 2.313 16.7551 2.313H15.8671C15.8491 2.313 15.8401 2.322 15.8401 2.34V2.571C15.8401 2.665 15.8641 2.738 15.9121 2.79C15.9601 2.84 16.0301 2.865 16.1221 2.865H16.7371C16.7591 2.865 16.7701 2.876 16.7701 2.898V2.967C16.7701 2.989 16.7591 3 16.7371 3ZM15.8671 2.193H16.6141C16.6321 2.193 16.6411 2.184 16.6411 2.166V1.899C16.6411 1.805 16.6171 1.733 16.5691 1.683C16.5211 1.631 16.4511 1.605 16.3591 1.605H16.1221C16.0301 1.605 15.9601 1.631 15.9121 1.683C15.8641 1.733 15.8401 1.805 15.8401 1.899V2.166C15.8401 2.184 15.8491 2.193 15.8671 2.193ZM17.7817 3H17.5807C17.4527 3 17.3517 2.962 17.2777 2.886C17.2037 2.81 17.1667 2.706 17.1667 2.574V1.896C17.1667 1.764 17.2037 1.66 17.2777 1.584C17.3517 1.508 17.4527 1.47 17.5807 1.47H17.7817C17.9357 1.47 18.0407 1.522 18.0967 1.626H18.1087V0.927C18.1087 0.903 18.1187 0.891 18.1387 0.891H18.2257C18.2477 0.891 18.2587 0.903 18.2587 0.927V2.964C18.2587 2.988 18.2477 3 18.2257 3H18.1387C18.1187 3 18.1087 2.988 18.1087 2.964V2.844H18.0967C18.0407 2.948 17.9357 3 17.7817 3ZM18.1087 2.571V1.899C18.1087 1.805 18.0807 1.733 18.0247 1.683C17.9707 1.631 17.8957 1.605 17.7997 1.605H17.5987C17.5067 1.605 17.4367 1.631 17.3887 1.683C17.3407 1.735 17.3167 1.808 17.3167 1.902V2.568C17.3167 2.662 17.3407 2.735 17.3887 2.787C17.4367 2.839 17.5067 2.865 17.5987 2.865H17.7997C17.8957 2.865 17.9707 2.84 18.0247 2.79C18.0807 2.738 18.1087 2.665 18.1087 2.571ZM0.243 6.574V6.466C0.243 6.444 0.254 6.433 0.276 6.433H0.363C0.385 6.433 0.396 6.444 0.396 6.466V6.565C0.396 6.765 0.493 6.865 0.687 6.865H0.999C1.193 6.865 1.29 6.764 1.29 6.562V6.436C1.29 6.348 1.254 6.279 1.182 6.229C1.11 6.179 1.023 6.143 0.921 6.121C0.819 6.099 0.716 6.076 0.612 6.052C0.51 6.028 0.423 5.984 0.351 5.92C0.279 5.856 0.243 5.77 0.243 5.662V5.497C0.243 5.365 0.281 5.261 0.357 5.185C0.433 5.109 0.536 5.071 0.666 5.071H1.014C1.144 5.071 1.247 5.109 1.323 5.185C1.399 5.261 1.437 5.365 1.437 5.497V5.581C1.437 5.603 1.426 5.614 1.404 5.614H1.317C1.295 5.614 1.284 5.603 1.284 5.581V5.506C1.284 5.306 1.187 5.206 0.993 5.206H0.684C0.492 5.206 0.396 5.308 0.396 5.512V5.662C0.396 5.8 0.519 5.893 0.765 5.941C0.867 5.961 0.969 5.984 1.071 6.01C1.175 6.036 1.263 6.083 1.335 6.151C1.407 6.219 1.443 6.311 1.443 6.427V6.574C1.443 6.706 1.405 6.81 1.329 6.886C1.253 6.962 1.15 7 1.02 7H0.666C0.536 7 0.433 6.962 0.357 6.886C0.281 6.81 0.243 6.706 0.243 6.574ZM1.98157 7.456H1.87057C1.84857 7.456 1.83757 7.445 1.83757 7.423V7.351C1.83757 7.329 1.84857 7.318 1.87057 7.318H1.95157C2.01157 7.318 2.06257 7.309 2.10457 7.291C2.14657 7.275 2.18357 7.244 2.21557 7.198C2.24757 7.152 2.26857 7.116 2.27857 7.09C2.30657 7.028 2.32957 6.971 2.34757 6.919H2.29057C2.26857 6.919 2.25457 6.907 2.24857 6.883L1.77157 5.506C1.76357 5.482 1.77157 5.47 1.79557 5.47H1.88857C1.90857 5.47 1.92157 5.482 1.92757 5.506L2.36857 6.793H2.38057L2.82157 5.506C2.82757 5.482 2.84057 5.47 2.86057 5.47H2.95057C2.97457 5.47 2.98357 5.482 2.97757 5.506C2.61957 6.554 2.43257 7.096 2.41657 7.132C2.40257 7.168 2.37557 7.217 2.33557 7.279C2.25957 7.397 2.14157 7.456 1.98157 7.456ZM3.78152 7H3.25952C3.23752 7 3.22652 6.989 3.22652 6.967V6.898C3.22652 6.878 3.23752 6.868 3.25952 6.868H3.76652C3.94652 6.868 4.03652 6.798 4.03652 6.658V6.586C4.03652 6.456 3.98052 6.371 3.86852 6.331L3.49352 6.187C3.39152 6.147 3.31852 6.1 3.27452 6.046C3.23252 5.992 3.21152 5.917 3.21152 5.821C3.21152 5.587 3.34052 5.47 3.59852 5.47H4.08452C4.10652 5.47 4.11752 5.481 4.11752 5.503V5.572C4.11752 5.592 4.10652 5.602 4.08452 5.602H3.61352C3.53152 5.602 3.46952 5.62 3.42752 5.656C3.38752 5.692 3.36752 5.734 3.36752 5.782V5.851C3.36752 5.907 3.38252 5.951 3.41252 5.983C3.44452 6.015 3.49252 6.042 3.55652 6.064L3.93152 6.214C4.03552 6.248 4.10452 6.299 4.13852 6.367C4.17452 6.433 4.19252 6.526 4.19252 6.646C4.19252 6.766 4.15852 6.855 4.09052 6.913C4.02452 6.971 3.92152 7 3.78152 7ZM4.64452 5.605H4.46152C4.43952 5.605 4.42852 5.595 4.42852 5.575V5.503C4.42852 5.481 4.43952 5.47 4.46152 5.47H4.64452C4.66252 5.47 4.67152 5.461 4.67152 5.443V5.2C4.67152 5.176 4.68252 5.164 4.70452 5.164H4.79152C4.81352 5.164 4.82452 5.176 4.82452 5.2V5.443C4.82452 5.461 4.83352 5.47 4.85152 5.47H5.20852C5.23052 5.47 5.24152 5.481 5.24152 5.503V5.575C5.24152 5.595 5.23052 5.605 5.20852 5.605H4.85152C4.83352 5.605 4.82452 5.614 4.82452 5.632V6.577C4.82452 6.669 4.85052 6.74 4.90252 6.79C4.95452 6.84 5.02752 6.865 5.12152 6.865H5.23852C5.26052 6.865 5.27152 6.876 5.27152 6.898V6.967C5.27152 6.989 5.26052 7 5.23852 7H5.10952C4.97752 7 4.87152 6.963 4.79152 6.889C4.71152 6.815 4.67152 6.713 4.67152 6.583V5.632C4.67152 5.614 4.66252 5.605 4.64452 5.605ZM6.63555 7H6.00855C5.87855 7 5.77555 6.962 5.69955 6.886C5.62555 6.81 5.58855 6.706 5.58855 6.574V5.896C5.58855 5.764 5.62555 5.66 5.69955 5.584C5.77555 5.508 5.87855 5.47 6.00855 5.47H6.26655C6.39655 5.47 6.49955 5.508 6.57555 5.584C6.65155 5.66 6.68955 5.764 6.68955 5.896V6.277C6.68955 6.301 6.67755 6.313 6.65355 6.313H5.76555C5.74755 6.313 5.73855 6.322 5.73855 6.34V6.571C5.73855 6.665 5.76255 6.738 5.81055 6.79C5.85855 6.84 5.92855 6.865 6.02055 6.865H6.63555C6.65755 6.865 6.66855 6.876 6.66855 6.898V6.967C6.66855 6.989 6.65755 7 6.63555 7ZM5.76555 6.193H6.51255C6.53055 6.193 6.53955 6.184 6.53955 6.166V5.899C6.53955 5.805 6.51555 5.733 6.46755 5.683C6.41955 5.631 6.34955 5.605 6.25755 5.605H6.02055C5.92855 5.605 5.85855 5.631 5.81055 5.683C5.76255 5.733 5.73855 5.805 5.73855 5.899V6.166C5.73855 6.184 5.74755 6.193 5.76555 6.193ZM7.21212 7H7.12512C7.10512 7 7.09512 6.988 7.09512 6.964V5.506C7.09512 5.482 7.10512 5.47 7.12512 5.47H7.21212C7.23412 5.47 7.24512 5.482 7.24512 5.506V5.626H7.25712C7.31512 5.522 7.42112 5.47 7.57512 5.47H7.69812C7.87412 5.47 7.99612 5.54 8.06412 5.68C8.09412 5.61 8.14512 5.558 8.21712 5.524C8.28912 5.488 8.36312 5.47 8.43912 5.47H8.55012C8.68012 5.47 8.78212 5.508 8.85612 5.584C8.93012 5.66 8.96712 5.764 8.96712 5.896V6.964C8.96712 6.988 8.95612 7 8.93412 7H8.84712C8.82512 7 8.81412 6.988 8.81412 6.964V5.902C8.81412 5.806 8.79012 5.733 8.74212 5.683C8.69412 5.631 8.62412 5.605 8.53212 5.605H8.42112C8.32512 5.605 8.24912 5.633 8.19312 5.689C8.13712 5.743 8.10912 5.817 8.10912 5.911V6.964C8.10912 6.988 8.09812 7 8.07612 7H7.98912C7.96712 7 7.95612 6.988 7.95612 6.964V5.902C7.95612 5.806 7.93212 5.733 7.88412 5.683C7.83612 5.631 7.76612 5.605 7.67412 5.605H7.55412C7.45812 5.605 7.38212 5.631 7.32612 5.683C7.27212 5.733 7.24512 5.805 7.24512 5.899V6.964C7.24512 6.988 7.23412 7 7.21212 7ZM9.89578 7H9.37378C9.35178 7 9.34078 6.989 9.34078 6.967V6.898C9.34078 6.878 9.35178 6.868 9.37378 6.868H9.88078C10.0608 6.868 10.1508 6.798 10.1508 6.658V6.586C10.1508 6.456 10.0948 6.371 9.98278 6.331L9.60778 6.187C9.50578 6.147 9.43278 6.1 9.38878 6.046C9.34678 5.992 9.32578 5.917 9.32578 5.821C9.32578 5.587 9.45478 5.47 9.71278 5.47H10.1988C10.2208 5.47 10.2318 5.481 10.2318 5.503V5.572C10.2318 5.592 10.2208 5.602 10.1988 5.602H9.72778C9.64578 5.602 9.58378 5.62 9.54178 5.656C9.50178 5.692 9.48178 5.734 9.48178 5.782V5.851C9.48178 5.907 9.49678 5.951 9.52678 5.983C9.55878 6.015 9.60678 6.042 9.67078 6.064L10.0458 6.214C10.1498 6.248 10.2188 6.299 10.2528 6.367C10.2888 6.433 10.3068 6.526 10.3068 6.646C10.3068 6.766 10.2728 6.855 10.2048 6.913C10.1388 6.971 10.0358 7 9.89578 7ZM11.6096 7H11.5226C11.5026 7 11.4926 6.988 11.4926 6.964V5.506C11.4926 5.482 11.5026 5.47 11.5226 5.47H11.6096C11.6316 5.47 11.6426 5.482 11.6426 5.506V5.632H11.6546C11.6766 5.59 11.7156 5.553 11.7716 5.521C11.8276 5.487 11.8966 5.47 11.9786 5.47H12.0956C12.1176 5.47 12.1286 5.481 12.1286 5.503V5.575C12.1286 5.597 12.1176 5.607 12.0956 5.605H11.9546C11.8566 5.605 11.7796 5.635 11.7236 5.695C11.6696 5.755 11.6426 5.836 11.6426 5.938V6.964C11.6426 6.988 11.6316 7 11.6096 7ZM13.03 7H12.832C12.704 7 12.603 6.962 12.529 6.886C12.455 6.81 12.418 6.706 12.418 6.574V5.506C12.418 5.482 12.428 5.47 12.448 5.47H12.535C12.557 5.47 12.568 5.482 12.568 5.506V6.568C12.568 6.662 12.592 6.735 12.64 6.787C12.688 6.839 12.758 6.865 12.85 6.865H13.045C13.141 6.865 13.216 6.84 13.27 6.79C13.326 6.738 13.354 6.665 13.354 6.571V5.506C13.354 5.482 13.365 5.47 13.387 5.47H13.474C13.494 5.47 13.504 5.482 13.504 5.506V6.964C13.504 6.988 13.494 7 13.474 7H13.387C13.365 7 13.354 6.988 13.354 6.964V6.844H13.342C13.29 6.948 13.186 7 13.03 7ZM14.0705 7H13.9835C13.9635 7 13.9535 6.988 13.9535 6.964V5.506C13.9535 5.482 13.9635 5.47 13.9835 5.47H14.0705C14.0925 5.47 14.1035 5.482 14.1035 5.506V5.626H14.1155C14.1715 5.522 14.2755 5.47 14.4275 5.47H14.6255C14.7535 5.47 14.8545 5.508 14.9285 5.584C15.0025 5.66 15.0395 5.764 15.0395 5.896V6.964C15.0395 6.988 15.0295 7 15.0095 7H14.9225C14.9005 7 14.8895 6.988 14.8895 6.964V5.902C14.8895 5.808 14.8655 5.735 14.8175 5.683C14.7695 5.631 14.6995 5.605 14.6075 5.605H14.4125C14.3165 5.605 14.2405 5.631 14.1845 5.683C14.1305 5.733 14.1035 5.805 14.1035 5.899V6.964C14.1035 6.988 14.0925 7 14.0705 7ZM15.591 7H15.504C15.484 7 15.474 6.988 15.474 6.964V5.506C15.474 5.482 15.484 5.47 15.504 5.47H15.591C15.613 5.47 15.624 5.482 15.624 5.506V5.626H15.636C15.692 5.522 15.796 5.47 15.948 5.47H16.146C16.274 5.47 16.375 5.508 16.449 5.584C16.523 5.66 16.56 5.764 16.56 5.896V6.964C16.56 6.988 16.55 7 16.53 7H16.443C16.421 7 16.41 6.988 16.41 6.964V5.902C16.41 5.808 16.386 5.735 16.338 5.683C16.29 5.631 16.22 5.605 16.128 5.605H15.933C15.837 5.605 15.761 5.631 15.705 5.683C15.651 5.733 15.624 5.805 15.624 5.899V6.964C15.624 6.988 15.613 7 15.591 7ZM17.0095 5.218V4.93C17.0095 4.908 17.0195 4.897 17.0395 4.897H17.1295C17.1495 4.897 17.1595 4.908 17.1595 4.93V5.218C17.1595 5.242 17.1495 5.254 17.1295 5.254H17.0395C17.0195 5.254 17.0095 5.242 17.0095 5.218ZM17.0095 6.964V5.506C17.0095 5.482 17.0195 5.47 17.0395 5.47H17.1265C17.1485 5.47 17.1595 5.482 17.1595 5.506V6.964C17.1595 6.988 17.1495 7 17.1295 7H17.0395C17.0195 7 17.0095 6.988 17.0095 6.964ZM17.7414 7H17.6544C17.6344 7 17.6244 6.988 17.6244 6.964V5.506C17.6244 5.482 17.6344 5.47 17.6544 5.47H17.7414C17.7634 5.47 17.7744 5.482 17.7744 5.506V5.626H17.7864C17.8424 5.522 17.9464 5.47 18.0984 5.47H18.2964C18.4244 5.47 18.5254 5.508 18.5994 5.584C18.6734 5.66 18.7104 5.764 18.7104 5.896V6.964C18.7104 6.988 18.7004 7 18.6804 7H18.5934C18.5714 7 18.5604 6.988 18.5604 6.964V5.902C18.5604 5.808 18.5364 5.735 18.4884 5.683C18.4404 5.631 18.3704 5.605 18.2784 5.605H18.0834C17.9874 5.605 17.9114 5.631 17.8554 5.683C17.8014 5.733 17.7744 5.805 17.7744 5.899V6.964C17.7744 6.988 17.7634 7 17.7414 7ZM19.7389 6.913H19.5439C19.4159 6.913 19.3139 6.875 19.2379 6.799C19.1639 6.723 19.1269 6.62 19.1269 6.49V5.896C19.1269 5.764 19.1639 5.66 19.2379 5.584C19.3139 5.508 19.4169 5.47 19.5469 5.47H20.1829C20.2049 5.47 20.2159 5.482 20.2159 5.506V6.994C20.2159 7.126 20.1779 7.23 20.1019 7.306C20.0259 7.382 19.9229 7.42 19.7929 7.42H19.2469C19.2249 7.42 19.2139 7.409 19.2139 7.387V7.315C19.2139 7.295 19.2249 7.285 19.2469 7.285H19.7809C19.8729 7.285 19.9429 7.259 19.9909 7.207C20.0389 7.157 20.0629 7.084 20.0629 6.988V6.757H20.0509C20.0009 6.861 19.8969 6.913 19.7389 6.913ZM20.0629 6.484V5.632C20.0629 5.614 20.0539 5.605 20.0359 5.605H19.5619C19.4699 5.605 19.3989 5.631 19.3489 5.683C19.3009 5.733 19.2769 5.806 19.2769 5.902V6.484C19.2769 6.578 19.3009 6.651 19.3489 6.703C19.3989 6.753 19.4699 6.778 19.5619 6.778H19.7539C19.8499 6.778 19.9249 6.753 19.9789 6.703C20.0349 6.651 20.0629 6.578 20.0629 6.484ZM1.266 14.73H1.818C2.002 14.73 2.142 14.68 2.238 14.58C2.334 14.476 2.382 14.328 2.382 14.136V12.006C2.382 11.814 2.334 11.668 2.238 11.568C2.142 11.464 2.002 11.412 1.818 11.412H1.266C1.082 11.412 0.942 11.464 0.846 11.568C0.75 11.668 0.702 11.814 0.702 12.006V14.136C0.702 14.328 0.75 14.476 0.846 14.58C0.942 14.68 1.082 14.73 1.266 14.73ZM1.842 15H1.242C0.982 15 0.776 14.924 0.624 14.772C0.472 14.62 0.396 14.412 0.396 14.148V11.994C0.396 11.73 0.472 11.522 0.624 11.37C0.776 11.218 0.982 11.142 1.242 11.142H1.842C2.102 11.142 2.306 11.218 2.454 11.37C2.606 11.522 2.682 11.73 2.682 11.994V14.148C2.682 14.412 2.606 14.62 2.454 14.772C2.306 14.924 2.102 15 1.842 15ZM4.34803 14.73H4.90003C5.08403 14.73 5.22403 14.68 5.32003 14.58C5.41603 14.476 5.46403 14.328 5.46403 14.136V12.006C5.46403 11.814 5.41603 11.668 5.32003 11.568C5.22403 11.464 5.08403 11.412 4.90003 11.412H4.34803C4.16403 11.412 4.02403 11.464 3.92803 11.568C3.83203 11.668 3.78403 11.814 3.78403 12.006V14.136C3.78403 14.328 3.83203 14.476 3.92803 14.58C4.02403 14.68 4.16403 14.73 4.34803 14.73ZM4.92403 15H4.32403C4.06403 15 3.85803 14.924 3.70603 14.772C3.55403 14.62 3.47803 14.412 3.47803 14.148V11.994C3.47803 11.73 3.55403 11.522 3.70603 11.37C3.85803 11.218 4.06403 11.142 4.32403 11.142H4.92403C5.18403 11.142 5.38803 11.218 5.53603 11.37C5.68803 11.522 5.76403 11.73 5.76403 11.994V14.148C5.76403 14.412 5.68803 14.62 5.53603 14.772C5.38803 14.924 5.18403 15 4.92403 15ZM6.38006 11.868V11.736C6.38006 11.684 6.40406 11.642 6.45206 11.61L7.20806 11.184C7.24806 11.156 7.29006 11.142 7.33406 11.142H7.49006C7.53406 11.142 7.55606 11.166 7.55606 11.214V14.928C7.55606 14.976 7.53406 15 7.49006 15H7.31606C7.27606 15 7.25606 14.976 7.25606 14.928V11.466L6.48206 11.904C6.41406 11.948 6.38006 11.936 6.38006 11.868ZM14.2652 15H13.9652C13.9212 15 13.8932 14.976 13.8812 14.928L13.0592 11.214C13.0472 11.166 13.0672 11.142 13.1192 11.142H13.3172C13.3612 11.142 13.3872 11.166 13.3952 11.214L14.1092 14.658H14.1392L15.0512 11.208C15.0592 11.164 15.0852 11.142 15.1292 11.142H15.3572C15.4052 11.142 15.4332 11.164 15.4412 11.208L16.3592 14.658H16.3892L17.0972 11.214C17.1052 11.166 17.1332 11.142 17.1812 11.142H17.3852C17.4332 11.142 17.4512 11.166 17.4392 11.214L16.6172 14.928C16.6092 14.976 16.5832 15 16.5392 15H16.2332C16.1892 15 16.1612 14.976 16.1492 14.928L15.2612 11.544H15.2372L14.3432 14.928C14.3312 14.976 14.3052 15 14.2652 15ZM17.8829 14.934V14.778C17.8829 14.73 17.8909 14.696 17.9069 14.676L19.8689 11.448V11.424H18.0209C17.9729 11.424 17.9489 11.402 17.9489 11.358V11.208C17.9489 11.164 17.9729 11.142 18.0209 11.142H20.1389C20.1869 11.142 20.2109 11.164 20.2109 11.208V11.406C20.2109 11.442 20.2009 11.476 20.1809 11.508L18.2369 14.694V14.718H20.1989C20.2469 14.718 20.2709 14.738 20.2709 14.778V14.934C20.2709 14.978 20.2469 15 20.1989 15H17.9489C17.9049 15 17.8829 14.978 17.8829 14.934ZM22.0854 13.212H20.8374C20.7894 13.212 20.7654 13.19 20.7654 13.146V13.014C20.7654 12.97 20.7894 12.948 20.8374 12.948H22.0854C22.1334 12.948 22.1574 12.97 22.1574 13.014V13.146C22.1574 13.19 22.1334 13.212 22.0854 13.212ZM22.7545 14.934V14.406C22.7545 14.126 22.8745 13.896 23.1145 13.716L24.2965 12.816C24.5005 12.66 24.6025 12.46 24.6025 12.216V11.982C24.6025 11.598 24.4125 11.406 24.0325 11.406H23.6005C23.2245 11.406 23.0365 11.598 23.0365 11.982V12.252C23.0365 12.3 23.0145 12.324 22.9705 12.324H22.7965C22.7525 12.324 22.7305 12.3 22.7305 12.252V11.976C22.7305 11.716 22.8065 11.512 22.9585 11.364C23.1105 11.216 23.3165 11.142 23.5765 11.142H24.0625C24.3225 11.142 24.5265 11.216 24.6745 11.364C24.8265 11.508 24.9025 11.712 24.9025 11.976V12.228C24.9025 12.54 24.7765 12.792 24.5245 12.984L23.3305 13.902C23.1625 14.03 23.0785 14.188 23.0785 14.376V14.724H24.8545C24.8985 14.724 24.9205 14.746 24.9205 14.79V14.934C24.9205 14.978 24.8985 15 24.8545 15H22.8265C22.7785 15 22.7545 14.978 22.7545 14.934ZM26.6098 12.924H26.9698C27.3498 12.924 27.5398 12.734 27.5398 12.354V11.982C27.5398 11.598 27.3498 11.406 26.9698 11.406H26.5078C26.1278 11.406 25.9378 11.598 25.9378 11.982V12.198C25.9378 12.242 25.9178 12.264 25.8778 12.264H25.7038C25.6598 12.264 25.6378 12.242 25.6378 12.198V11.976C25.6378 11.716 25.7138 11.512 25.8658 11.364C26.0178 11.216 26.2238 11.142 26.4838 11.142H26.9938C27.2538 11.142 27.4598 11.216 27.6118 11.364C27.7638 11.512 27.8398 11.716 27.8398 11.976V12.36C27.8398 12.728 27.6738 12.96 27.3418 13.056C27.6738 13.148 27.8398 13.382 27.8398 13.758V14.166C27.8398 14.426 27.7638 14.63 27.6118 14.778C27.4598 14.926 27.2538 15 26.9938 15H26.4838C26.2238 15 26.0178 14.926 25.8658 14.778C25.7138 14.63 25.6378 14.426 25.6378 14.166V13.896C25.6378 13.848 25.6598 13.824 25.7038 13.824H25.8778C25.9178 13.824 25.9378 13.848 25.9378 13.896V14.16C25.9378 14.544 26.1278 14.736 26.5078 14.736H26.9698C27.3498 14.736 27.5398 14.544 27.5398 14.16V13.764C27.5398 13.38 27.3498 13.188 26.9698 13.188H26.6098C26.5658 13.188 26.5438 13.166 26.5438 13.122V12.99C26.5438 12.946 26.5658 12.924 26.6098 12.924ZM28.9743 14.214V14.928C28.9743 14.976 28.9543 15 28.9143 15H28.7043C28.6603 15 28.6383 14.976 28.6383 14.928V14.214C28.6383 14.17 28.6603 14.148 28.7043 14.148H28.9143C28.9543 14.148 28.9743 14.17 28.9743 14.214ZM30.6508 14.73H31.2028C31.3868 14.73 31.5268 14.68 31.6228 14.58C31.7188 14.476 31.7668 14.328 31.7668 14.136V12.006C31.7668 11.814 31.7188 11.668 31.6228 11.568C31.5268 11.464 31.3868 11.412 31.2028 11.412H30.6508C30.4668 11.412 30.3268 11.464 30.2308 11.568C30.1348 11.668 30.0868 11.814 30.0868 12.006V14.136C30.0868 14.328 30.1348 14.476 30.2308 14.58C30.3268 14.68 30.4668 14.73 30.6508 14.73ZM31.2268 15H30.6268C30.3668 15 30.1608 14.924 30.0088 14.772C29.8568 14.62 29.7808 14.412 29.7808 14.148V11.994C29.7808 11.73 29.8568 11.522 30.0088 11.37C30.1608 11.218 30.3668 11.142 30.6268 11.142H31.2268C31.4868 11.142 31.6908 11.218 31.8388 11.37C31.9908 11.522 32.0668 11.73 32.0668 11.994V14.148C32.0668 14.412 31.9908 14.62 31.8388 14.772C31.6908 14.924 31.4868 15 31.2268 15ZM34.1468 12.828H33.6308C33.5348 12.828 33.4548 12.844 33.3908 12.876C33.3268 12.908 33.2848 12.944 33.2648 12.984C33.2128 13.084 33.1648 13.134 33.1208 13.134H32.9288C32.8888 13.134 32.8688 13.112 32.8688 13.068V11.214C32.8688 11.166 32.8888 11.142 32.9288 11.142H34.8788C34.9268 11.142 34.9508 11.164 34.9508 11.208V11.358C34.9508 11.402 34.9268 11.424 34.8788 11.424H33.1688V12.864C33.2408 12.668 33.4128 12.57 33.6848 12.57H34.1888C34.4488 12.57 34.6528 12.642 34.8008 12.786C34.9488 12.93 35.0228 13.134 35.0228 13.398V14.148C35.0228 14.412 34.9468 14.62 34.7948 14.772C34.6428 14.924 34.4368 15 34.1768 15H33.6968C33.4368 15 33.2308 14.924 33.0788 14.772C32.9308 14.62 32.8568 14.412 32.8568 14.148V13.938C32.8568 13.89 32.8768 13.866 32.9168 13.866H33.0908C33.1348 13.866 33.1568 13.89 33.1568 13.938V14.142C33.1568 14.33 33.2048 14.476 33.3008 14.58C33.3968 14.684 33.5368 14.736 33.7208 14.736H34.1528C34.3368 14.736 34.4768 14.686 34.5728 14.586C34.6728 14.482 34.7228 14.334 34.7228 14.142V13.422C34.7228 13.026 34.5308 12.828 34.1468 12.828ZM37.0413 12.828H36.5253C36.4293 12.828 36.3493 12.844 36.2853 12.876C36.2213 12.908 36.1793 12.944 36.1593 12.984C36.1073 13.084 36.0593 13.134 36.0153 13.134H35.8233C35.7833 13.134 35.7633 13.112 35.7633 13.068V11.214C35.7633 11.166 35.7833 11.142 35.8233 11.142H37.7733C37.8213 11.142 37.8453 11.164 37.8453 11.208V11.358C37.8453 11.402 37.8213 11.424 37.7733 11.424H36.0633V12.864C36.1353 12.668 36.3073 12.57 36.5793 12.57H37.0833C37.3433 12.57 37.5473 12.642 37.6953 12.786C37.8433 12.93 37.9173 13.134 37.9173 13.398V14.148C37.9173 14.412 37.8413 14.62 37.6893 14.772C37.5373 14.924 37.3313 15 37.0713 15H36.5913C36.3313 15 36.1253 14.924 35.9733 14.772C35.8253 14.62 35.7513 14.412 35.7513 14.148V13.938C35.7513 13.89 35.7713 13.866 35.8113 13.866H35.9853C36.0293 13.866 36.0513 13.89 36.0513 13.938V14.142C36.0513 14.33 36.0993 14.476 36.1953 14.58C36.2913 14.684 36.4313 14.736 36.6153 14.736H37.0473C37.2313 14.736 37.3713 14.686 37.4673 14.586C37.5673 14.482 37.6173 14.334 37.6173 14.142V13.422C37.6173 13.026 37.4253 12.828 37.0413 12.828ZM39.9359 12.828H39.4199C39.3239 12.828 39.2439 12.844 39.1799 12.876C39.1159 12.908 39.0739 12.944 39.0539 12.984C39.0019 13.084 38.9539 13.134 38.9099 13.134H38.7179C38.6779 13.134 38.6579 13.112 38.6579 13.068V11.214C38.6579 11.166 38.6779 11.142 38.7179 11.142H40.6679C40.7159 11.142 40.7399 11.164 40.7399 11.208V11.358C40.7399 11.402 40.7159 11.424 40.6679 11.424H38.9579V12.864C39.0299 12.668 39.2019 12.57 39.4739 12.57H39.9779C40.2379 12.57 40.4419 12.642 40.5899 12.786C40.7379 12.93 40.8119 13.134 40.8119 13.398V14.148C40.8119 14.412 40.7359 14.62 40.5839 14.772C40.4319 14.924 40.2259 15 39.9659 15H39.4859C39.2259 15 39.0199 14.924 38.8679 14.772C38.7199 14.62 38.6459 14.412 38.6459 14.148V13.938C38.6459 13.89 38.6659 13.866 38.7059 13.866H38.8799C38.9239 13.866 38.9459 13.89 38.9459 13.938V14.142C38.9459 14.33 38.9939 14.476 39.0899 14.58C39.1859 14.684 39.3259 14.736 39.5099 14.736H39.9419C40.1259 14.736 40.2659 14.686 40.3619 14.586C40.4619 14.482 40.5119 14.334 40.5119 14.142V13.422C40.5119 13.026 40.3199 12.828 39.9359 12.828ZM0.621 19.303H0.222C0.202 19.303 0.192 19.291 0.192 19.267V17.107C0.192 17.083 0.202 17.071 0.222 17.071H0.621C0.643 17.071 0.654 17.082 0.654 17.104V17.158C0.654 17.18 0.643 17.191 0.621 17.191H0.354C0.336 17.191 0.327 17.2 0.327 17.218V19.156C0.327 19.174 0.336 19.183 0.354 19.183H0.621C0.643 19.183 0.654 19.194 0.654 19.216V19.27C0.654 19.292 0.643 19.303 0.621 19.303ZM1.90413 18.574V18.466C1.90413 18.444 1.91513 18.433 1.93713 18.433H2.02413C2.04613 18.433 2.05713 18.444 2.05713 18.466V18.565C2.05713 18.765 2.15413 18.865 2.34813 18.865H2.66013C2.85413 18.865 2.95113 18.764 2.95113 18.562V18.436C2.95113 18.348 2.91513 18.279 2.84313 18.229C2.77113 18.179 2.68413 18.143 2.58213 18.121C2.48013 18.099 2.37713 18.076 2.27313 18.052C2.17113 18.028 2.08413 17.984 2.01213 17.92C1.94013 17.856 1.90413 17.77 1.90413 17.662V17.497C1.90413 17.365 1.94213 17.261 2.01813 17.185C2.09413 17.109 2.19713 17.071 2.32713 17.071H2.67513C2.80513 17.071 2.90813 17.109 2.98413 17.185C3.06013 17.261 3.09813 17.365 3.09813 17.497V17.581C3.09813 17.603 3.08713 17.614 3.06513 17.614H2.97813C2.95613 17.614 2.94513 17.603 2.94513 17.581V17.506C2.94513 17.306 2.84813 17.206 2.65413 17.206H2.34513C2.15313 17.206 2.05713 17.308 2.05713 17.512V17.662C2.05713 17.8 2.18013 17.893 2.42613 17.941C2.52813 17.961 2.63013 17.984 2.73213 18.01C2.83613 18.036 2.92413 18.083 2.99613 18.151C3.06813 18.219 3.10413 18.311 3.10413 18.427V18.574C3.10413 18.706 3.06613 18.81 2.99013 18.886C2.91413 18.962 2.81113 19 2.68113 19H2.32713C2.19713 19 2.09413 18.962 2.01813 18.886C1.94213 18.81 1.90413 18.706 1.90413 18.574ZM4.5877 19H3.9607C3.8307 19 3.7277 18.962 3.6517 18.886C3.5777 18.81 3.5407 18.706 3.5407 18.574V17.896C3.5407 17.764 3.5777 17.66 3.6517 17.584C3.7277 17.508 3.8307 17.47 3.9607 17.47H4.2187C4.3487 17.47 4.4517 17.508 4.5277 17.584C4.6037 17.66 4.6417 17.764 4.6417 17.896V18.277C4.6417 18.301 4.6297 18.313 4.6057 18.313H3.7177C3.6997 18.313 3.6907 18.322 3.6907 18.34V18.571C3.6907 18.665 3.7147 18.738 3.7627 18.79C3.8107 18.84 3.8807 18.865 3.9727 18.865H4.5877C4.6097 18.865 4.6207 18.876 4.6207 18.898V18.967C4.6207 18.989 4.6097 19 4.5877 19ZM3.7177 18.193H4.4647C4.4827 18.193 4.4917 18.184 4.4917 18.166V17.899C4.4917 17.805 4.4677 17.733 4.4197 17.683C4.3717 17.631 4.3017 17.605 4.2097 17.605H3.9727C3.8807 17.605 3.8107 17.631 3.7627 17.683C3.7147 17.733 3.6907 17.805 3.6907 17.899V18.166C3.6907 18.184 3.6997 18.193 3.7177 18.193ZM5.16427 19H5.07727C5.05727 19 5.04727 18.988 5.04727 18.964V17.506C5.04727 17.482 5.05727 17.47 5.07727 17.47H5.16427C5.18627 17.47 5.19727 17.482 5.19727 17.506V17.632H5.20927C5.23127 17.59 5.27027 17.553 5.32627 17.521C5.38227 17.487 5.45127 17.47 5.53327 17.47H5.65027C5.67227 17.47 5.68327 17.481 5.68327 17.503V17.575C5.68327 17.597 5.67227 17.607 5.65027 17.605H5.50927C5.41127 17.605 5.33427 17.635 5.27827 17.695C5.22427 17.755 5.19727 17.836 5.19727 17.938V18.964C5.19727 18.988 5.18627 19 5.16427 19ZM5.8467 17.47H5.9397C5.9597 17.47 5.9727 17.482 5.9787 17.506L6.3807 18.832H6.3927L6.7917 17.506C6.7997 17.482 6.8127 17.47 6.8307 17.47H6.9267C6.9487 17.47 6.9557 17.482 6.9477 17.506L6.4947 18.964C6.4887 18.988 6.4747 19 6.4527 19H6.3207C6.2987 19 6.2837 18.988 6.2757 18.964L5.8227 17.506C5.8167 17.482 5.8247 17.47 5.8467 17.47ZM8.25274 19H7.62574C7.49574 19 7.39274 18.962 7.31674 18.886C7.24274 18.81 7.20574 18.706 7.20574 18.574V17.896C7.20574 17.764 7.24274 17.66 7.31674 17.584C7.39274 17.508 7.49574 17.47 7.62574 17.47H7.88374C8.01374 17.47 8.11674 17.508 8.19274 17.584C8.26874 17.66 8.30674 17.764 8.30674 17.896V18.277C8.30674 18.301 8.29474 18.313 8.27074 18.313H7.38274C7.36474 18.313 7.35574 18.322 7.35574 18.34V18.571C7.35574 18.665 7.37974 18.738 7.42774 18.79C7.47574 18.84 7.54574 18.865 7.63774 18.865H8.25274C8.27474 18.865 8.28574 18.876 8.28574 18.898V18.967C8.28574 18.989 8.27474 19 8.25274 19ZM7.38274 18.193H8.12974C8.14774 18.193 8.15674 18.184 8.15674 18.166V17.899C8.15674 17.805 8.13274 17.733 8.08474 17.683C8.03674 17.631 7.96674 17.605 7.87474 17.605H7.63774C7.54574 17.605 7.47574 17.631 7.42774 17.683C7.37974 17.733 7.35574 17.805 7.35574 17.899V18.166C7.35574 18.184 7.36474 18.193 7.38274 18.193ZM8.8293 19H8.7423C8.7223 19 8.7123 18.988 8.7123 18.964V17.506C8.7123 17.482 8.7223 17.47 8.7423 17.47H8.8293C8.8513 17.47 8.8623 17.482 8.8623 17.506V17.632H8.8743C8.8963 17.59 8.9353 17.553 8.9913 17.521C9.0473 17.487 9.1163 17.47 9.1983 17.47H9.3153C9.3373 17.47 9.3483 17.481 9.3483 17.503V17.575C9.3483 17.597 9.3373 17.607 9.3153 17.605H9.1743C9.0763 17.605 8.9993 17.635 8.9433 17.695C8.8893 17.755 8.8623 17.836 8.8623 17.938V18.964C8.8623 18.988 8.8513 19 8.8293 19ZM10.4075 19.27V19.216C10.4075 19.194 10.4195 19.183 10.4435 19.183H10.7075C10.7275 19.183 10.7375 19.174 10.7375 19.156V17.218C10.7375 17.2 10.7275 17.191 10.7075 17.191H10.4435C10.4195 17.191 10.4075 17.18 10.4075 17.158V17.104C10.4075 17.082 10.4195 17.071 10.4435 17.071H10.8395C10.8615 17.071 10.8725 17.083 10.8725 17.107V19.267C10.8725 19.291 10.8615 19.303 10.8395 19.303H10.4435C10.4195 19.303 10.4075 19.292 10.4075 19.27ZM12.6687 18.106H12.0447C12.0207 18.106 12.0087 18.095 12.0087 18.073V18.007C12.0087 17.985 12.0207 17.974 12.0447 17.974H12.6687C12.6927 17.974 12.7047 17.985 12.7047 18.007V18.073C12.7047 18.095 12.6927 18.106 12.6687 18.106ZM13.995 19H13.908C13.888 19 13.878 18.988 13.878 18.964V17.107C13.878 17.083 13.888 17.071 13.908 17.071H14.592C14.722 17.071 14.825 17.109 14.901 17.185C14.977 17.261 15.015 17.365 15.015 17.497V17.782C15.015 17.894 14.986 17.986 14.928 18.058C14.872 18.13 14.795 18.176 14.697 18.196V18.208L15.054 18.964C15.066 18.988 15.059 19 15.033 19H14.94C14.914 19 14.896 18.988 14.886 18.964L14.532 18.208H14.058C14.038 18.208 14.028 18.217 14.028 18.235V18.964C14.028 18.988 14.017 19 13.995 19ZM14.058 18.079H14.577C14.669 18.079 14.74 18.054 14.79 18.004C14.84 17.952 14.865 17.879 14.865 17.785V17.503C14.865 17.409 14.84 17.336 14.79 17.284C14.74 17.232 14.669 17.206 14.577 17.206H14.058C14.038 17.206 14.028 17.215 14.028 17.233V18.052C14.028 18.07 14.038 18.079 14.058 18.079ZM16.0476 19H15.8496C15.7216 19 15.6206 18.962 15.5466 18.886C15.4726 18.81 15.4356 18.706 15.4356 18.574V17.506C15.4356 17.482 15.4456 17.47 15.4656 17.47H15.5526C15.5746 17.47 15.5856 17.482 15.5856 17.506V18.568C15.5856 18.662 15.6096 18.735 15.6576 18.787C15.7056 18.839 15.7756 18.865 15.8676 18.865H16.0626C16.1586 18.865 16.2336 18.84 16.2876 18.79C16.3436 18.738 16.3716 18.665 16.3716 18.571V17.506C16.3716 17.482 16.3826 17.47 16.4046 17.47H16.4916C16.5116 17.47 16.5216 17.482 16.5216 17.506V18.964C16.5216 18.988 16.5116 19 16.4916 19H16.4046C16.3826 19 16.3716 18.988 16.3716 18.964V18.844H16.3596C16.3076 18.948 16.2036 19 16.0476 19ZM17.0881 19H17.0011C16.9811 19 16.9711 18.988 16.9711 18.964V17.506C16.9711 17.482 16.9811 17.47 17.0011 17.47H17.0881C17.1101 17.47 17.1211 17.482 17.1211 17.506V17.626H17.1331C17.1891 17.522 17.2931 17.47 17.4451 17.47H17.6431C17.7711 17.47 17.8721 17.508 17.9461 17.584C18.0201 17.66 18.0571 17.764 18.0571 17.896V18.964C18.0571 18.988 18.0471 19 18.0271 19H17.9401C17.9181 19 17.9071 18.988 17.9071 18.964V17.902C17.9071 17.808 17.8831 17.735 17.8351 17.683C17.7871 17.631 17.7171 17.605 17.6251 17.605H17.4301C17.3341 17.605 17.2581 17.631 17.2021 17.683C17.1481 17.733 17.1211 17.805 17.1211 17.899V18.964C17.1211 18.988 17.1101 19 17.0881 19ZM18.6086 19H18.5216C18.5016 19 18.4916 18.988 18.4916 18.964V17.506C18.4916 17.482 18.5016 17.47 18.5216 17.47H18.6086C18.6306 17.47 18.6416 17.482 18.6416 17.506V17.626H18.6536C18.7096 17.522 18.8136 17.47 18.9656 17.47H19.1636C19.2916 17.47 19.3926 17.508 19.4666 17.584C19.5406 17.66 19.5776 17.764 19.5776 17.896V18.964C19.5776 18.988 19.5676 19 19.5476 19H19.4606C19.4386 19 19.4276 18.988 19.4276 18.964V17.902C19.4276 17.808 19.4036 17.735 19.3556 17.683C19.3076 17.631 19.2376 17.605 19.1456 17.605H18.9506C18.8546 17.605 18.7786 17.631 18.7226 17.683C18.6686 17.733 18.6416 17.805 18.6416 17.899V18.964C18.6416 18.988 18.6306 19 18.6086 19ZM20.0271 17.218V16.93C20.0271 16.908 20.0371 16.897 20.0571 16.897H20.1471C20.1671 16.897 20.1771 16.908 20.1771 16.93V17.218C20.1771 17.242 20.1671 17.254 20.1471 17.254H20.0571C20.0371 17.254 20.0271 17.242 20.0271 17.218ZM20.0271 18.964V17.506C20.0271 17.482 20.0371 17.47 20.0571 17.47H20.1441C20.1661 17.47 20.1771 17.482 20.1771 17.506V18.964C20.1771 18.988 20.1671 19 20.1471 19H20.0571C20.0371 19 20.0271 18.988 20.0271 18.964ZM20.759 19H20.672C20.652 19 20.642 18.988 20.642 18.964V17.506C20.642 17.482 20.652 17.47 20.672 17.47H20.759C20.781 17.47 20.792 17.482 20.792 17.506V17.626H20.804C20.86 17.522 20.964 17.47 21.116 17.47H21.314C21.442 17.47 21.543 17.508 21.617 17.584C21.691 17.66 21.728 17.764 21.728 17.896V18.964C21.728 18.988 21.718 19 21.698 19H21.611C21.589 19 21.578 18.988 21.578 18.964V17.902C21.578 17.808 21.554 17.735 21.506 17.683C21.458 17.631 21.388 17.605 21.296 17.605H21.101C21.005 17.605 20.929 17.631 20.873 17.683C20.819 17.733 20.792 17.805 20.792 17.899V18.964C20.792 18.988 20.781 19 20.759 19ZM22.7565 18.913H22.5615C22.4335 18.913 22.3315 18.875 22.2555 18.799C22.1815 18.723 22.1445 18.62 22.1445 18.49V17.896C22.1445 17.764 22.1815 17.66 22.2555 17.584C22.3315 17.508 22.4345 17.47 22.5645 17.47H23.2005C23.2225 17.47 23.2335 17.482 23.2335 17.506V18.994C23.2335 19.126 23.1955 19.23 23.1195 19.306C23.0435 19.382 22.9405 19.42 22.8105 19.42H22.2645C22.2425 19.42 22.2315 19.409 22.2315 19.387V19.315C22.2315 19.295 22.2425 19.285 22.2645 19.285H22.7985C22.8905 19.285 22.9605 19.259 23.0085 19.207C23.0565 19.157 23.0805 19.084 23.0805 18.988V18.757H23.0685C23.0185 18.861 22.9145 18.913 22.7565 18.913ZM23.0805 18.484V17.632C23.0805 17.614 23.0715 17.605 23.0535 17.605H22.5795C22.4875 17.605 22.4165 17.631 22.3665 17.683C22.3185 17.733 22.2945 17.806 22.2945 17.902V18.484C22.2945 18.578 22.3185 18.651 22.3665 18.703C22.4165 18.753 22.4875 18.778 22.5795 18.778H22.7715C22.8675 18.778 22.9425 18.753 22.9965 18.703C23.0525 18.651 23.0805 18.578 23.0805 18.484ZM0.621 23.303H0.222C0.202 23.303 0.192 23.291 0.192 23.267V21.107C0.192 21.083 0.202 21.071 0.222 21.071H0.621C0.643 21.071 0.654 21.082 0.654 21.104V21.158C0.654 21.18 0.643 21.191 0.621 21.191H0.354C0.336 21.191 0.327 21.2 0.327 21.218V23.156C0.327 23.174 0.336 23.183 0.354 23.183H0.621C0.643 23.183 0.654 23.194 0.654 23.216V23.27C0.654 23.292 0.643 23.303 0.621 23.303ZM2.03313 23H1.94613C1.92613 23 1.91613 22.988 1.91613 22.964V21.107C1.91613 21.083 1.92613 21.071 1.94613 21.071H2.87013C2.89413 21.071 2.90613 21.082 2.90613 21.104V21.173C2.90613 21.195 2.89413 21.206 2.87013 21.206H2.09613C2.07613 21.206 2.06613 21.215 2.06613 21.233V21.962C2.06613 21.978 2.07613 21.986 2.09613 21.986H2.78913C2.81113 21.986 2.82213 21.997 2.82213 22.019V22.091C2.82213 22.113 2.81113 22.124 2.78913 22.124H2.09613C2.07613 22.124 2.06613 22.132 2.06613 22.148V22.964C2.06613 22.988 2.05513 23 2.03313 23ZM3.27809 21.218V20.93C3.27809 20.908 3.28809 20.897 3.30809 20.897H3.39809C3.41809 20.897 3.42809 20.908 3.42809 20.93V21.218C3.42809 21.242 3.41809 21.254 3.39809 21.254H3.30809C3.28809 21.254 3.27809 21.242 3.27809 21.218ZM3.27809 22.964V21.506C3.27809 21.482 3.28809 21.47 3.30809 21.47H3.39509C3.41709 21.47 3.42809 21.482 3.42809 21.506V22.964C3.42809 22.988 3.41809 23 3.39809 23H3.30809C3.28809 23 3.27809 22.988 3.27809 22.964ZM3.90797 21.218V20.93C3.90797 20.908 3.91797 20.897 3.93797 20.897H4.02797C4.04797 20.897 4.05797 20.908 4.05797 20.93V21.218C4.05797 21.242 4.04797 21.254 4.02797 21.254H3.93797C3.91797 21.254 3.90797 21.242 3.90797 21.218ZM3.90797 22.964V21.506C3.90797 21.482 3.91797 21.47 3.93797 21.47H4.02497C4.04697 21.47 4.05797 21.482 4.05797 21.506V22.964C4.05797 22.988 4.04797 23 4.02797 23H3.93797C3.91797 23 3.90797 22.988 3.90797 22.964ZM4.63985 23H4.55285C4.53285 23 4.52285 22.988 4.52285 22.964V21.506C4.52285 21.482 4.53285 21.47 4.55285 21.47H4.63985C4.66185 21.47 4.67285 21.482 4.67285 21.506V21.632H4.68485C4.70685 21.59 4.74585 21.553 4.80185 21.521C4.85785 21.487 4.92685 21.47 5.00885 21.47H5.12585C5.14785 21.47 5.15885 21.481 5.15885 21.503V21.575C5.15885 21.597 5.14785 21.607 5.12585 21.605H4.98485C4.88685 21.605 4.80985 21.635 4.75385 21.695C4.69985 21.755 4.67285 21.836 4.67285 21.938V22.964C4.67285 22.988 4.66185 23 4.63985 23ZM6.48028 23H5.85328C5.72328 23 5.62028 22.962 5.54428 22.886C5.47028 22.81 5.43328 22.706 5.43328 22.574V21.896C5.43328 21.764 5.47028 21.66 5.54428 21.584C5.62028 21.508 5.72328 21.47 5.85328 21.47H6.11128C6.24128 21.47 6.34428 21.508 6.42028 21.584C6.49628 21.66 6.53428 21.764 6.53428 21.896V22.277C6.53428 22.301 6.52228 22.313 6.49828 22.313H5.61028C5.59228 22.313 5.58328 22.322 5.58328 22.34V22.571C5.58328 22.665 5.60728 22.738 5.65528 22.79C5.70328 22.84 5.77328 22.865 5.86528 22.865H6.48028C6.50228 22.865 6.51328 22.876 6.51328 22.898V22.967C6.51328 22.989 6.50228 23 6.48028 23ZM5.61028 22.193H6.35728C6.37528 22.193 6.38428 22.184 6.38428 22.166V21.899C6.38428 21.805 6.36028 21.733 6.31228 21.683C6.26428 21.631 6.19428 21.605 6.10228 21.605H5.86528C5.77328 21.605 5.70328 21.631 5.65528 21.683C5.60728 21.733 5.58328 21.805 5.58328 21.899V22.166C5.58328 22.184 5.59228 22.193 5.61028 22.193ZM7.35684 23H7.23684C7.21684 23 7.20384 22.988 7.19784 22.964L6.77784 21.506C6.77184 21.482 6.77984 21.47 6.80184 21.47H6.89784C6.91984 21.47 6.93284 21.482 6.93684 21.506L7.29084 22.811H7.30584L7.65384 21.506C7.65784 21.482 7.67184 21.47 7.69584 21.47H7.78284C7.80684 21.47 7.82084 21.482 7.82484 21.506L8.16684 22.811H8.18184L8.53884 21.506C8.54484 21.482 8.55784 21.47 8.57784 21.47H8.67384C8.69784 21.47 8.70584 21.482 8.69784 21.506L8.28084 22.964C8.27484 22.988 8.26084 23 8.23884 23H8.11884C8.09684 23 8.08284 22.988 8.07684 22.964L7.74384 21.698H7.72884L7.39884 22.964C7.39284 22.988 7.37884 23 7.35684 23ZM9.5697 23H9.3777C9.2477 23 9.1447 22.962 9.0687 22.886C8.9947 22.81 8.9577 22.706 8.9577 22.574V21.896C8.9577 21.764 8.9947 21.66 9.0687 21.584C9.1447 21.508 9.2477 21.47 9.3777 21.47H10.0137C10.0337 21.47 10.0437 21.482 10.0437 21.506V22.964C10.0437 22.988 10.0337 23 10.0137 23H9.9267C9.9047 23 9.8937 22.988 9.8937 22.964V22.844H9.8817C9.8297 22.948 9.7257 23 9.5697 23ZM9.8937 22.571V21.632C9.8937 21.614 9.8837 21.605 9.8637 21.605H9.3897C9.2977 21.605 9.2277 21.631 9.1797 21.683C9.1317 21.735 9.1077 21.808 9.1077 21.902V22.568C9.1077 22.662 9.1317 22.735 9.1797 22.787C9.2277 22.839 9.2977 22.865 9.3897 22.865H9.5847C9.6807 22.865 9.7557 22.84 9.8097 22.79C9.8657 22.738 9.8937 22.665 9.8937 22.571ZM10.6256 23H10.5386C10.5186 23 10.5086 22.988 10.5086 22.964V20.927C10.5086 20.903 10.5186 20.891 10.5386 20.891H10.6256C10.6476 20.891 10.6586 20.903 10.6586 20.927V22.964C10.6586 22.988 10.6476 23 10.6256 23ZM11.2554 23H11.1684C11.1484 23 11.1384 22.988 11.1384 22.964V20.927C11.1384 20.903 11.1484 20.891 11.1684 20.891H11.2554C11.2774 20.891 11.2884 20.903 11.2884 20.927V22.964C11.2884 22.988 11.2774 23 11.2554 23ZM12.5081 23.27V23.216C12.5081 23.194 12.5201 23.183 12.5441 23.183H12.8081C12.8281 23.183 12.8381 23.174 12.8381 23.156V21.218C12.8381 21.2 12.8281 21.191 12.8081 21.191H12.5441C12.5201 21.191 12.5081 21.18 12.5081 21.158V21.104C12.5081 21.082 12.5201 21.071 12.5441 21.071H12.9401C12.9621 21.071 12.9731 21.083 12.9731 21.107V23.267C12.9731 23.291 12.9621 23.303 12.9401 23.303H12.5441C12.5201 23.303 12.5081 23.292 12.5081 23.27ZM14.7693 22.106H14.1453C14.1213 22.106 14.1093 22.095 14.1093 22.073V22.007C14.1093 21.985 14.1213 21.974 14.1453 21.974H14.7693C14.7933 21.974 14.8053 21.985 14.8053 22.007V22.073C14.8053 22.095 14.7933 22.106 14.7693 22.106ZM16.0956 23H16.0086C15.9886 23 15.9786 22.988 15.9786 22.964V21.107C15.9786 21.083 15.9886 21.071 16.0086 21.071H16.6926C16.8226 21.071 16.9256 21.109 17.0016 21.185C17.0776 21.261 17.1156 21.365 17.1156 21.497V21.782C17.1156 21.894 17.0866 21.986 17.0286 22.058C16.9726 22.13 16.8956 22.176 16.7976 22.196V22.208L17.1546 22.964C17.1666 22.988 17.1596 23 17.1336 23H17.0406C17.0146 23 16.9966 22.988 16.9866 22.964L16.6326 22.208H16.1586C16.1386 22.208 16.1286 22.217 16.1286 22.235V22.964C16.1286 22.988 16.1176 23 16.0956 23ZM16.1586 22.079H16.6776C16.7696 22.079 16.8406 22.054 16.8906 22.004C16.9406 21.952 16.9656 21.879 16.9656 21.785V21.503C16.9656 21.409 16.9406 21.336 16.8906 21.284C16.8406 21.232 16.7696 21.206 16.6776 21.206H16.1586C16.1386 21.206 16.1286 21.215 16.1286 21.233V22.052C16.1286 22.07 16.1386 22.079 16.1586 22.079ZM18.1482 23H17.9502C17.8222 23 17.7212 22.962 17.6472 22.886C17.5732 22.81 17.5362 22.706 17.5362 22.574V21.506C17.5362 21.482 17.5462 21.47 17.5662 21.47H17.6532C17.6752 21.47 17.6862 21.482 17.6862 21.506V22.568C17.6862 22.662 17.7102 22.735 17.7582 22.787C17.8062 22.839 17.8762 22.865 17.9682 22.865H18.1632C18.2592 22.865 18.3342 22.84 18.3882 22.79C18.4442 22.738 18.4722 22.665 18.4722 22.571V21.506C18.4722 21.482 18.4832 21.47 18.5052 21.47H18.5922C18.6122 21.47 18.6222 21.482 18.6222 21.506V22.964C18.6222 22.988 18.6122 23 18.5922 23H18.5052C18.4832 23 18.4722 22.988 18.4722 22.964V22.844H18.4602C18.4082 22.948 18.3042 23 18.1482 23ZM19.1887 23H19.1017C19.0817 23 19.0717 22.988 19.0717 22.964V21.506C19.0717 21.482 19.0817 21.47 19.1017 21.47H19.1887C19.2107 21.47 19.2217 21.482 19.2217 21.506V21.626H19.2337C19.2897 21.522 19.3937 21.47 19.5457 21.47H19.7437C19.8717 21.47 19.9727 21.508 20.0467 21.584C20.1207 21.66 20.1577 21.764 20.1577 21.896V22.964C20.1577 22.988 20.1477 23 20.1277 23H20.0407C20.0187 23 20.0077 22.988 20.0077 22.964V21.902C20.0077 21.808 19.9837 21.735 19.9357 21.683C19.8877 21.631 19.8177 21.605 19.7257 21.605H19.5307C19.4347 21.605 19.3587 21.631 19.3027 21.683C19.2487 21.733 19.2217 21.805 19.2217 21.899V22.964C19.2217 22.988 19.2107 23 19.1887 23ZM20.7092 23H20.6222C20.6022 23 20.5922 22.988 20.5922 22.964V21.506C20.5922 21.482 20.6022 21.47 20.6222 21.47H20.7092C20.7312 21.47 20.7422 21.482 20.7422 21.506V21.626H20.7542C20.8102 21.522 20.9142 21.47 21.0662 21.47H21.2642C21.3922 21.47 21.4932 21.508 21.5672 21.584C21.6412 21.66 21.6782 21.764 21.6782 21.896V22.964C21.6782 22.988 21.6682 23 21.6482 23H21.5612C21.5392 23 21.5282 22.988 21.5282 22.964V21.902C21.5282 21.808 21.5042 21.735 21.4562 21.683C21.4082 21.631 21.3382 21.605 21.2462 21.605H21.0512C20.9552 21.605 20.8792 21.631 20.8232 21.683C20.7692 21.733 20.7422 21.805 20.7422 21.899V22.964C20.7422 22.988 20.7312 23 20.7092 23ZM22.1277 21.218V20.93C22.1277 20.908 22.1377 20.897 22.1577 20.897H22.2477C22.2677 20.897 22.2777 20.908 22.2777 20.93V21.218C22.2777 21.242 22.2677 21.254 22.2477 21.254H22.1577C22.1377 21.254 22.1277 21.242 22.1277 21.218ZM22.1277 22.964V21.506C22.1277 21.482 22.1377 21.47 22.1577 21.47H22.2447C22.2667 21.47 22.2777 21.482 22.2777 21.506V22.964C22.2777 22.988 22.2677 23 22.2477 23H22.1577C22.1377 23 22.1277 22.988 22.1277 22.964ZM22.8596 23H22.7726C22.7526 23 22.7426 22.988 22.7426 22.964V21.506C22.7426 21.482 22.7526 21.47 22.7726 21.47H22.8596C22.8816 21.47 22.8926 21.482 22.8926 21.506V21.626H22.9046C22.9606 21.522 23.0646 21.47 23.2166 21.47H23.4146C23.5426 21.47 23.6436 21.508 23.7176 21.584C23.7916 21.66 23.8286 21.764 23.8286 21.896V22.964C23.8286 22.988 23.8186 23 23.7986 23H23.7116C23.6896 23 23.6786 22.988 23.6786 22.964V21.902C23.6786 21.808 23.6546 21.735 23.6066 21.683C23.5586 21.631 23.4886 21.605 23.3966 21.605H23.2016C23.1056 21.605 23.0296 21.631 22.9736 21.683C22.9196 21.733 22.8926 21.805 22.8926 21.899V22.964C22.8926 22.988 22.8816 23 22.8596 23ZM24.8571 22.913H24.6621C24.5341 22.913 24.4321 22.875 24.3561 22.799C24.2821 22.723 24.2451 22.62 24.2451 22.49V21.896C24.2451 21.764 24.2821 21.66 24.3561 21.584C24.4321 21.508 24.5351 21.47 24.6651 21.47H25.3011C25.3231 21.47 25.3341 21.482 25.3341 21.506V22.994C25.3341 23.126 25.2961 23.23 25.2201 23.306C25.1441 23.382 25.0411 23.42 24.9111 23.42H24.3651C24.3431 23.42 24.3321 23.409 24.3321 23.387V23.315C24.3321 23.295 24.3431 23.285 24.3651 23.285H24.8991C24.9911 23.285 25.0611 23.259 25.1091 23.207C25.1571 23.157 25.1811 23.084 25.1811 22.988V22.757H25.1691C25.1191 22.861 25.0151 22.913 24.8571 22.913ZM25.1811 22.484V21.632C25.1811 21.614 25.1721 21.605 25.1541 21.605H24.6801C24.5881 21.605 24.5171 21.631 24.4671 21.683C24.4191 21.733 24.3951 21.806 24.3951 21.902V22.484C24.3951 22.578 24.4191 22.651 24.4671 22.703C24.5171 22.753 24.5881 22.778 24.6801 22.778H24.8721C24.9681 22.778 25.0431 22.753 25.0971 22.703C25.1531 22.651 25.1811 22.578 25.1811 22.484Z" fill="#EB2941"/>
<path d="M96.3731 1.86V2.226C96.3731 2.27 96.3521 2.292 96.3101 2.292H96.1691C96.1251 2.292 96.1031 2.27 96.1031 2.226V1.86C96.1031 1.816 96.1251 1.794 96.1691 1.794H96.3101C96.3521 1.794 96.3731 1.816 96.3731 1.86ZM98.9252 2.865H99.5012C99.5932 2.865 99.6632 2.84 99.7112 2.79C99.7612 2.738 99.7862 2.664 99.7862 2.568V1.503C99.7862 1.407 99.7612 1.334 99.7112 1.284C99.6632 1.232 99.5932 1.206 99.5012 1.206H98.9252C98.9052 1.206 98.8952 1.215 98.8952 1.233V2.838C98.8952 2.856 98.9052 2.865 98.9252 2.865ZM98.7452 2.964V1.107C98.7452 1.083 98.7552 1.071 98.7752 1.071H99.5162C99.6462 1.071 99.7482 1.109 99.8222 1.185C99.8982 1.261 99.9362 1.365 99.9362 1.497V2.574C99.9362 2.706 99.8982 2.81 99.8222 2.886C99.7482 2.962 99.6462 3 99.5162 3H98.7752C98.7552 3 98.7452 2.988 98.7452 2.964ZM100.817 2.865H101.159C101.251 2.865 101.321 2.84 101.369 2.79C101.419 2.738 101.444 2.664 101.444 2.568V1.503C101.444 1.407 101.419 1.334 101.369 1.284C101.321 1.232 101.251 1.206 101.159 1.206H100.817C100.725 1.206 100.655 1.232 100.607 1.284C100.559 1.336 100.535 1.409 100.535 1.503V2.568C100.535 2.662 100.559 2.735 100.607 2.787C100.655 2.839 100.725 2.865 100.817 2.865ZM101.174 3H100.805C100.675 3 100.572 2.962 100.496 2.886C100.422 2.81 100.385 2.706 100.385 2.574V1.497C100.385 1.365 100.422 1.261 100.496 1.185C100.572 1.109 100.675 1.071 100.805 1.071H101.174C101.304 1.071 101.406 1.109 101.48 1.185C101.556 1.261 101.594 1.365 101.594 1.497V2.574C101.594 2.706 101.556 2.81 101.48 2.886C101.406 2.962 101.304 3 101.174 3ZM102.19 3H102.103C102.083 3 102.073 2.988 102.073 2.964V1.107C102.073 1.083 102.083 1.071 102.103 1.071H102.184C102.202 1.071 102.214 1.077 102.22 1.089L103.141 2.673H103.153V1.107C103.153 1.083 103.164 1.071 103.186 1.071H103.27C103.292 1.071 103.303 1.083 103.303 1.107V2.964C103.303 2.988 103.292 3 103.27 3H103.201C103.183 3 103.167 2.989 103.153 2.967L102.235 1.395H102.223V2.964C102.223 2.988 102.212 3 102.19 3ZM104.768 3H103.841C103.821 3 103.811 2.988 103.811 2.964V1.107C103.811 1.083 103.821 1.071 103.841 1.071H104.768C104.792 1.071 104.804 1.082 104.804 1.104V1.173C104.804 1.195 104.792 1.206 104.768 1.206H103.991C103.971 1.206 103.961 1.215 103.961 1.233V1.923C103.961 1.941 103.971 1.95 103.991 1.95H104.684C104.706 1.95 104.717 1.961 104.717 1.983V2.052C104.717 2.074 104.706 2.085 104.684 2.085H103.991C103.971 2.085 103.961 2.094 103.961 2.112V2.838C103.961 2.856 103.971 2.865 103.991 2.865H104.768C104.792 2.865 104.804 2.876 104.804 2.898V2.967C104.804 2.989 104.792 3 104.768 3ZM96.3731 5.86V6.226C96.3731 6.27 96.3521 6.292 96.3101 6.292H96.1691C96.1251 6.292 96.1031 6.27 96.1031 6.226V5.86C96.1031 5.816 96.1251 5.794 96.1691 5.794H96.3101C96.3521 5.794 96.3731 5.816 96.3731 5.86ZM98.9252 6.865H99.5012C99.5932 6.865 99.6632 6.84 99.7112 6.79C99.7612 6.738 99.7862 6.664 99.7862 6.568V5.503C99.7862 5.407 99.7612 5.334 99.7112 5.284C99.6632 5.232 99.5932 5.206 99.5012 5.206H98.9252C98.9052 5.206 98.8952 5.215 98.8952 5.233V6.838C98.8952 6.856 98.9052 6.865 98.9252 6.865ZM98.7452 6.964V5.107C98.7452 5.083 98.7552 5.071 98.7752 5.071H99.5162C99.6462 5.071 99.7482 5.109 99.8222 5.185C99.8982 5.261 99.9362 5.365 99.9362 5.497V6.574C99.9362 6.706 99.8982 6.81 99.8222 6.886C99.7482 6.962 99.6462 7 99.5162 7H98.7752C98.7552 7 98.7452 6.988 98.7452 6.964ZM100.817 6.865H101.159C101.251 6.865 101.321 6.84 101.369 6.79C101.419 6.738 101.444 6.664 101.444 6.568V5.503C101.444 5.407 101.419 5.334 101.369 5.284C101.321 5.232 101.251 5.206 101.159 5.206H100.817C100.725 5.206 100.655 5.232 100.607 5.284C100.559 5.336 100.535 5.409 100.535 5.503V6.568C100.535 6.662 100.559 6.735 100.607 6.787C100.655 6.839 100.725 6.865 100.817 6.865ZM101.174 7H100.805C100.675 7 100.572 6.962 100.496 6.886C100.422 6.81 100.385 6.706 100.385 6.574V5.497C100.385 5.365 100.422 5.261 100.496 5.185C100.572 5.109 100.675 5.071 100.805 5.071H101.174C101.304 5.071 101.406 5.109 101.48 5.185C101.556 5.261 101.594 5.365 101.594 5.497V6.574C101.594 6.706 101.556 6.81 101.48 6.886C101.406 6.962 101.304 7 101.174 7ZM102.19 7H102.103C102.083 7 102.073 6.988 102.073 6.964V5.107C102.073 5.083 102.083 5.071 102.103 5.071H102.184C102.202 5.071 102.214 5.077 102.22 5.089L103.141 6.673H103.153V5.107C103.153 5.083 103.164 5.071 103.186 5.071H103.27C103.292 5.071 103.303 5.083 103.303 5.107V6.964C103.303 6.988 103.292 7 103.27 7H103.201C103.183 7 103.167 6.989 103.153 6.967L102.235 5.395H102.223V6.964C102.223 6.988 102.212 7 102.19 7ZM104.768 7H103.841C103.821 7 103.811 6.988 103.811 6.964V5.107C103.811 5.083 103.821 5.071 103.841 5.071H104.768C104.792 5.071 104.804 5.082 104.804 5.104V5.173C104.804 5.195 104.792 5.206 104.768 5.206H103.991C103.971 5.206 103.961 5.215 103.961 5.233V5.923C103.961 5.941 103.971 5.95 103.991 5.95H104.684C104.706 5.95 104.717 5.961 104.717 5.983V6.052C104.717 6.074 104.706 6.085 104.684 6.085H103.991C103.971 6.085 103.961 6.094 103.961 6.112V6.838C103.961 6.856 103.971 6.865 103.991 6.865H104.768C104.792 6.865 104.804 6.876 104.804 6.898V6.967C104.804 6.989 104.792 7 104.768 7ZM63.0714 15H62.3154C62.0554 15 61.8494 14.924 61.6974 14.772C61.5494 14.62 61.4754 14.412 61.4754 14.148V11.994C61.4754 11.73 61.5494 11.522 61.6974 11.37C61.8494 11.218 62.0554 11.142 62.3154 11.142H63.0714C63.3314 11.142 63.5354 11.218 63.6834 11.37C63.8354 11.522 63.9114 11.73 63.9114 11.994V12.288C63.9114 12.336 63.8894 12.36 63.8454 12.36H63.6774C63.6334 12.36 63.6114 12.336 63.6114 12.288V12.006C63.6114 11.814 63.5614 11.668 63.4614 11.568C63.3654 11.464 63.2254 11.412 63.0414 11.412H62.3394C62.1554 11.412 62.0154 11.464 61.9194 11.568C61.8234 11.672 61.7754 11.818 61.7754 12.006V14.136C61.7754 14.324 61.8234 14.47 61.9194 14.574C62.0154 14.678 62.1554 14.73 62.3394 14.73H63.0414C63.2254 14.73 63.3654 14.68 63.4614 14.58C63.5614 14.476 63.6114 14.328 63.6114 14.136V13.854C63.6114 13.806 63.6334 13.782 63.6774 13.782H63.8454C63.8894 13.782 63.9114 13.806 63.9114 13.854V14.148C63.9114 14.412 63.8354 14.62 63.6834 14.772C63.5354 14.924 63.3314 15 63.0714 15ZM65.0213 15H64.8473C64.8073 15 64.7873 14.976 64.7873 14.928V11.214C64.7873 11.166 64.8073 11.142 64.8473 11.142H65.0213C65.0653 11.142 65.0873 11.166 65.0873 11.214V12.852C65.0873 12.888 65.1073 12.906 65.1473 12.906H66.8273C66.8673 12.906 66.8873 12.888 66.8873 12.852V11.214C66.8873 11.166 66.9073 11.142 66.9473 11.142H67.1213C67.1653 11.142 67.1873 11.166 67.1873 11.214V14.928C67.1873 14.976 67.1653 15 67.1213 15H66.9473C66.9073 15 66.8873 14.976 66.8873 14.928V13.23C66.8873 13.194 66.8673 13.176 66.8273 13.176H65.1473C65.1073 13.176 65.0873 13.194 65.0873 13.23V14.928C65.0873 14.976 65.0653 15 65.0213 15ZM70.1232 15H68.2692C68.2292 15 68.2092 14.976 68.2092 14.928V11.214C68.2092 11.166 68.2292 11.142 68.2692 11.142H70.1232C70.1712 11.142 70.1952 11.164 70.1952 11.208V11.346C70.1952 11.39 70.1712 11.412 70.1232 11.412H68.5692C68.5292 11.412 68.5092 11.43 68.5092 11.466V12.846C68.5092 12.882 68.5292 12.9 68.5692 12.9H69.9552C69.9992 12.9 70.0212 12.922 70.0212 12.966V13.104C70.0212 13.148 69.9992 13.17 69.9552 13.17H68.5692C68.5292 13.17 68.5092 13.188 68.5092 13.224V14.676C68.5092 14.712 68.5292 14.73 68.5692 14.73H70.1232C70.1712 14.73 70.1952 14.752 70.1952 14.796V14.934C70.1952 14.978 70.1712 15 70.1232 15ZM72.6339 15H71.8779C71.6179 15 71.4119 14.924 71.2599 14.772C71.1119 14.62 71.0379 14.412 71.0379 14.148V11.994C71.0379 11.73 71.1119 11.522 71.2599 11.37C71.4119 11.218 71.6179 11.142 71.8779 11.142H72.6339C72.8939 11.142 73.0979 11.218 73.2459 11.37C73.3979 11.522 73.4739 11.73 73.4739 11.994V12.288C73.4739 12.336 73.4519 12.36 73.4079 12.36H73.2399C73.1959 12.36 73.1739 12.336 73.1739 12.288V12.006C73.1739 11.814 73.1239 11.668 73.0239 11.568C72.9279 11.464 72.7879 11.412 72.6039 11.412H71.9019C71.7179 11.412 71.5779 11.464 71.4819 11.568C71.3859 11.672 71.3379 11.818 71.3379 12.006V14.136C71.3379 14.324 71.3859 14.47 71.4819 14.574C71.5779 14.678 71.7179 14.73 71.9019 14.73H72.6039C72.7879 14.73 72.9279 14.68 73.0239 14.58C73.1239 14.476 73.1739 14.328 73.1739 14.136V13.854C73.1739 13.806 73.1959 13.782 73.2399 13.782H73.4079C73.4519 13.782 73.4739 13.806 73.4739 13.854V14.148C73.4739 14.412 73.3979 14.62 73.2459 14.772C73.0979 14.924 72.8939 15 72.6339 15ZM74.5838 15H74.4098C74.3698 15 74.3498 14.976 74.3498 14.928V11.214C74.3498 11.166 74.3698 11.142 74.4098 11.142H74.5838C74.6278 11.142 74.6498 11.166 74.6498 11.214V13.428H74.6738C74.6978 13.364 74.7338 13.298 74.7818 13.23L76.3058 11.214C76.3418 11.166 76.3838 11.142 76.4318 11.142H76.6418C76.6938 11.142 76.7018 11.166 76.6658 11.214L75.4598 12.828L76.8518 14.928C76.8838 14.976 76.8718 15 76.8158 15H76.6478C76.5878 15 76.5438 14.976 76.5158 14.928L75.2678 13.056L74.6498 13.8V14.928C74.6498 14.976 74.6278 15 74.5838 15ZM77.8615 11.214V14.928C77.8615 14.976 77.8395 15 77.7955 15H77.6215C77.5815 15 77.5615 14.976 77.5615 14.928V11.214C77.5615 11.166 77.5815 11.142 77.6215 11.142H77.7955C77.8395 11.142 77.8615 11.166 77.8615 11.214ZM79.1483 15H78.9743C78.9343 15 78.9143 14.976 78.9143 14.928V11.214C78.9143 11.166 78.9343 11.142 78.9743 11.142H79.1363C79.1723 11.142 79.1963 11.154 79.2083 11.178L81.0503 14.346H81.0743V11.214C81.0743 11.166 81.0963 11.142 81.1403 11.142H81.3083C81.3523 11.142 81.3743 11.166 81.3743 11.214V14.928C81.3743 14.976 81.3523 15 81.3083 15H81.1703C81.1343 15 81.1023 14.978 81.0743 14.934L79.2383 11.79H79.2143V14.928C79.2143 14.976 79.1923 15 79.1483 15ZM83.8229 15H83.1689C82.9089 15 82.7029 14.924 82.5509 14.772C82.4029 14.62 82.3289 14.412 82.3289 14.148V11.994C82.3289 11.73 82.4029 11.522 82.5509 11.37C82.7029 11.218 82.9089 11.142 83.1689 11.142H83.8229C84.0829 11.142 84.2889 11.218 84.4409 11.37C84.5929 11.522 84.6689 11.73 84.6689 11.994V12.264C84.6689 12.312 84.6469 12.336 84.6029 12.336H84.4289C84.3849 12.336 84.3629 12.312 84.3629 12.264V12.006C84.3629 11.814 84.3149 11.668 84.2189 11.568C84.1229 11.464 83.9829 11.412 83.7989 11.412H83.1929C83.0089 11.412 82.8689 11.464 82.7729 11.568C82.6769 11.672 82.6289 11.818 82.6289 12.006V14.136C82.6289 14.324 82.6769 14.47 82.7729 14.574C82.8689 14.678 83.0089 14.73 83.1929 14.73H83.7989C83.9829 14.73 84.1229 14.68 84.2189 14.58C84.3149 14.476 84.3629 14.328 84.3629 14.136V13.344C84.3629 13.308 84.3449 13.29 84.3089 13.29H83.6189C83.5749 13.29 83.5529 13.268 83.5529 13.224V13.086C83.5529 13.042 83.5749 13.02 83.6189 13.02H84.5549C84.6309 13.02 84.6689 13.06 84.6689 13.14V14.148C84.6689 14.412 84.5929 14.62 84.4409 14.772C84.2889 14.924 84.0829 15 83.8229 15ZM87.1989 14.148V13.932C87.1989 13.888 87.2209 13.866 87.2649 13.866H87.4389C87.4829 13.866 87.5049 13.888 87.5049 13.932V14.13C87.5049 14.53 87.6989 14.73 88.0869 14.73H88.7109C89.0989 14.73 89.2929 14.528 89.2929 14.124V13.872C89.2929 13.696 89.2209 13.558 89.0769 13.458C88.9329 13.358 88.7589 13.286 88.5549 13.242C88.3509 13.198 88.1449 13.152 87.9369 13.104C87.7329 13.056 87.5589 12.968 87.4149 12.84C87.2709 12.712 87.1989 12.54 87.1989 12.324V11.994C87.1989 11.73 87.2749 11.522 87.4269 11.37C87.5789 11.218 87.7849 11.142 88.0449 11.142H88.7409C89.0009 11.142 89.2069 11.218 89.3589 11.37C89.5109 11.522 89.5869 11.73 89.5869 11.994V12.162C89.5869 12.206 89.5649 12.228 89.5209 12.228H89.3469C89.3029 12.228 89.2809 12.206 89.2809 12.162V12.012C89.2809 11.612 89.0869 11.412 88.6989 11.412H88.0809C87.6969 11.412 87.5049 11.616 87.5049 12.024V12.324C87.5049 12.6 87.7509 12.786 88.2429 12.882C88.4469 12.922 88.6509 12.968 88.8549 13.02C89.0629 13.072 89.2389 13.166 89.3829 13.302C89.5269 13.438 89.5989 13.622 89.5989 13.854V14.148C89.5989 14.412 89.5229 14.62 89.3709 14.772C89.2189 14.924 89.0129 15 88.7529 15H88.0449C87.7849 15 87.5789 14.924 87.4269 14.772C87.2749 14.62 87.1989 14.412 87.1989 14.148ZM91.432 15H91.258C91.214 15 91.192 14.976 91.192 14.928V11.466C91.192 11.43 91.172 11.412 91.132 11.412H90.262C90.214 11.412 90.19 11.39 90.19 11.346V11.208C90.19 11.164 90.214 11.142 90.262 11.142H92.422C92.47 11.142 92.494 11.164 92.494 11.208V11.346C92.494 11.39 92.47 11.412 92.422 11.412H91.552C91.512 11.412 91.492 11.43 91.492 11.466V14.928C91.492 14.976 91.472 15 91.432 15ZM93.0096 15H92.8236C92.7796 15 92.7656 14.976 92.7816 14.928L93.9756 11.214C93.9876 11.166 94.0156 11.142 94.0596 11.142H94.3416C94.3816 11.142 94.4096 11.166 94.4256 11.214L95.6196 14.928C95.6316 14.976 95.6176 15 95.5776 15H95.3856C95.3456 15 95.3196 14.976 95.3076 14.928L94.9836 13.968H93.4116L93.0876 14.928C93.0716 14.976 93.0456 15 93.0096 15ZM94.1856 11.472L93.4956 13.698H94.9056L94.2096 11.472H94.1856ZM97.1508 15H96.9768C96.9328 15 96.9108 14.976 96.9108 14.928V11.466C96.9108 11.43 96.8908 11.412 96.8508 11.412H95.9808C95.9328 11.412 95.9088 11.39 95.9088 11.346V11.208C95.9088 11.164 95.9328 11.142 95.9808 11.142H98.1408C98.1888 11.142 98.2128 11.164 98.2128 11.208V11.346C98.2128 11.39 98.1888 11.412 98.1408 11.412H97.2708C97.2308 11.412 97.2108 11.43 97.2108 11.466V14.928C97.2108 14.976 97.1908 15 97.1508 15ZM100.918 11.142H101.086C101.13 11.142 101.152 11.164 101.152 11.208V14.148C101.152 14.412 101.076 14.62 100.924 14.772C100.776 14.924 100.572 15 100.312 15H99.6403C99.3803 15 99.1743 14.924 99.0223 14.772C98.8743 14.62 98.8003 14.412 98.8003 14.148V11.214C98.8003 11.166 98.8203 11.142 98.8603 11.142H99.0343C99.0783 11.142 99.1003 11.166 99.1003 11.214V14.136C99.1003 14.324 99.1483 14.47 99.2443 14.574C99.3403 14.678 99.4803 14.73 99.6643 14.73H100.282C100.466 14.73 100.606 14.68 100.702 14.58C100.802 14.476 100.852 14.328 100.852 14.136V11.214C100.852 11.166 100.874 11.142 100.918 11.142ZM102.117 14.148V13.932C102.117 13.888 102.139 13.866 102.183 13.866H102.357C102.401 13.866 102.423 13.888 102.423 13.932V14.13C102.423 14.53 102.617 14.73 103.005 14.73H103.629C104.017 14.73 104.211 14.528 104.211 14.124V13.872C104.211 13.696 104.139 13.558 103.995 13.458C103.851 13.358 103.677 13.286 103.473 13.242C103.269 13.198 103.063 13.152 102.855 13.104C102.651 13.056 102.477 12.968 102.333 12.84C102.189 12.712 102.117 12.54 102.117 12.324V11.994C102.117 11.73 102.193 11.522 102.345 11.37C102.497 11.218 102.703 11.142 102.963 11.142H103.659C103.919 11.142 104.125 11.218 104.277 11.37C104.429 11.522 104.505 11.73 104.505 11.994V12.162C104.505 12.206 104.483 12.228 104.439 12.228H104.265C104.221 12.228 104.199 12.206 104.199 12.162V12.012C104.199 11.612 104.005 11.412 103.617 11.412H102.999C102.615 11.412 102.423 11.616 102.423 12.024V12.324C102.423 12.6 102.669 12.786 103.161 12.882C103.365 12.922 103.569 12.968 103.773 13.02C103.981 13.072 104.157 13.166 104.301 13.302C104.445 13.438 104.517 13.622 104.517 13.854V14.148C104.517 14.412 104.441 14.62 104.289 14.772C104.137 14.924 103.931 15 103.671 15H102.963C102.703 15 102.497 14.924 102.345 14.772C102.193 14.62 102.117 14.412 102.117 14.148ZM86.8932 19H86.7552C86.7352 19 86.7222 18.988 86.7162 18.964L86.1582 17.107C86.1502 17.083 86.1592 17.071 86.1852 17.071H86.2782C86.2982 17.071 86.3112 17.083 86.3172 17.107L86.8182 18.814H86.8302L87.3312 17.107C87.3372 17.083 87.3502 17.071 87.3702 17.071H87.4632C87.4872 17.071 87.4962 17.083 87.4902 17.107L86.9322 18.964C86.9262 18.988 86.9132 19 86.8932 19ZM87.9432 18.607V18.964C87.9432 18.988 87.9332 19 87.9132 19H87.8082C87.7862 19 87.7752 18.988 87.7752 18.964V18.607C87.7752 18.585 87.7862 18.574 87.8082 18.574H87.9132C87.9332 18.574 87.9432 18.585 87.9432 18.607ZM88.7814 18.865H89.0574C89.1494 18.865 89.2194 18.84 89.2674 18.79C89.3154 18.738 89.3394 18.664 89.3394 18.568V17.503C89.3394 17.407 89.3154 17.334 89.2674 17.284C89.2194 17.232 89.1494 17.206 89.0574 17.206H88.7814C88.6894 17.206 88.6194 17.232 88.5714 17.284C88.5234 17.334 88.4994 17.407 88.4994 17.503V18.568C88.4994 18.664 88.5234 18.738 88.5714 18.79C88.6194 18.84 88.6894 18.865 88.7814 18.865ZM89.0694 19H88.7694C88.6394 19 88.5364 18.962 88.4604 18.886C88.3844 18.81 88.3464 18.706 88.3464 18.574V17.497C88.3464 17.365 88.3844 17.261 88.4604 17.185C88.5364 17.109 88.6394 17.071 88.7694 17.071H89.0694C89.1994 17.071 89.3014 17.109 89.3754 17.185C89.4514 17.261 89.4894 17.365 89.4894 17.497V18.574C89.4894 18.706 89.4514 18.81 89.3754 18.886C89.3014 18.962 89.1994 19 89.0694 19ZM90.3225 18.865H90.5985C90.6905 18.865 90.7605 18.84 90.8085 18.79C90.8565 18.738 90.8805 18.664 90.8805 18.568V17.503C90.8805 17.407 90.8565 17.334 90.8085 17.284C90.7605 17.232 90.6905 17.206 90.5985 17.206H90.3225C90.2305 17.206 90.1605 17.232 90.1125 17.284C90.0645 17.334 90.0405 17.407 90.0405 17.503V18.568C90.0405 18.664 90.0645 18.738 90.1125 18.79C90.1605 18.84 90.2305 18.865 90.3225 18.865ZM90.6105 19H90.3105C90.1805 19 90.0775 18.962 90.0015 18.886C89.9255 18.81 89.8875 18.706 89.8875 18.574V17.497C89.8875 17.365 89.9255 17.261 90.0015 17.185C90.0775 17.109 90.1805 17.071 90.3105 17.071H90.6105C90.7405 17.071 90.8425 17.109 90.9165 17.185C90.9925 17.261 91.0305 17.365 91.0305 17.497V18.574C91.0305 18.706 90.9925 18.81 90.9165 18.886C90.8425 18.962 90.7405 19 90.6105 19ZM91.8635 18.865H92.1395C92.2315 18.865 92.3015 18.84 92.3495 18.79C92.3975 18.738 92.4215 18.664 92.4215 18.568V17.503C92.4215 17.407 92.3975 17.334 92.3495 17.284C92.3015 17.232 92.2315 17.206 92.1395 17.206H91.8635C91.7715 17.206 91.7015 17.232 91.6535 17.284C91.6055 17.334 91.5815 17.407 91.5815 17.503V18.568C91.5815 18.664 91.6055 18.738 91.6535 18.79C91.7015 18.84 91.7715 18.865 91.8635 18.865ZM92.1515 19H91.8515C91.7215 19 91.6185 18.962 91.5425 18.886C91.4665 18.81 91.4285 18.706 91.4285 18.574V17.497C91.4285 17.365 91.4665 17.261 91.5425 17.185C91.6185 17.109 91.7215 17.071 91.8515 17.071H92.1515C92.2815 17.071 92.3835 17.109 92.4575 17.185C92.5335 17.261 92.5715 17.365 92.5715 17.497V18.574C92.5715 18.706 92.5335 18.81 92.4575 18.886C92.3835 18.962 92.2815 19 92.1515 19ZM93.4045 18.865H93.6805C93.7725 18.865 93.8425 18.84 93.8905 18.79C93.9385 18.738 93.9625 18.664 93.9625 18.568V17.503C93.9625 17.407 93.9385 17.334 93.8905 17.284C93.8425 17.232 93.7725 17.206 93.6805 17.206H93.4045C93.3125 17.206 93.2425 17.232 93.1945 17.284C93.1465 17.334 93.1225 17.407 93.1225 17.503V18.568C93.1225 18.664 93.1465 18.738 93.1945 18.79C93.2425 18.84 93.3125 18.865 93.4045 18.865ZM93.6925 19H93.3925C93.2625 19 93.1595 18.962 93.0835 18.886C93.0075 18.81 92.9695 18.706 92.9695 18.574V17.497C92.9695 17.365 93.0075 17.261 93.0835 17.185C93.1595 17.109 93.2625 17.071 93.3925 17.071H93.6925C93.8225 17.071 93.9245 17.109 93.9985 17.185C94.0745 17.261 94.1125 17.365 94.1125 17.497V18.574C94.1125 18.706 94.0745 18.81 93.9985 18.886C93.9245 18.962 93.8225 19 93.6925 19ZM94.9875 17.962H95.1675C95.3575 17.962 95.4525 17.867 95.4525 17.677V17.491C95.4525 17.299 95.3575 17.203 95.1675 17.203H94.9365C94.7465 17.203 94.6515 17.299 94.6515 17.491V17.599C94.6515 17.621 94.6415 17.632 94.6215 17.632H94.5345C94.5125 17.632 94.5015 17.621 94.5015 17.599V17.488C94.5015 17.358 94.5395 17.256 94.6155 17.182C94.6915 17.108 94.7945 17.071 94.9245 17.071H95.1795C95.3095 17.071 95.4125 17.108 95.4885 17.182C95.5645 17.256 95.6025 17.358 95.6025 17.488V17.68C95.6025 17.864 95.5195 17.98 95.3535 18.028C95.5195 18.074 95.6025 18.191 95.6025 18.379V18.583C95.6025 18.713 95.5645 18.815 95.4885 18.889C95.4125 18.963 95.3095 19 95.1795 19H94.9245C94.7945 19 94.6915 18.963 94.6155 18.889C94.5395 18.815 94.5015 18.713 94.5015 18.583V18.448C94.5015 18.424 94.5125 18.412 94.5345 18.412H94.6215C94.6415 18.412 94.6515 18.424 94.6515 18.448V18.58C94.6515 18.772 94.7465 18.868 94.9365 18.868H95.1675C95.3575 18.868 95.4525 18.772 95.4525 18.58V18.382C95.4525 18.19 95.3575 18.094 95.1675 18.094H94.9875C94.9655 18.094 94.9545 18.083 94.9545 18.061V17.995C94.9545 17.973 94.9655 17.962 94.9875 17.962ZM96.4758 17.962H96.6558C96.8458 17.962 96.9408 17.867 96.9408 17.677V17.491C96.9408 17.299 96.8458 17.203 96.6558 17.203H96.4248C96.2348 17.203 96.1398 17.299 96.1398 17.491V17.599C96.1398 17.621 96.1298 17.632 96.1098 17.632H96.0228C96.0008 17.632 95.9898 17.621 95.9898 17.599V17.488C95.9898 17.358 96.0278 17.256 96.1038 17.182C96.1798 17.108 96.2828 17.071 96.4128 17.071H96.6678C96.7978 17.071 96.9008 17.108 96.9768 17.182C97.0528 17.256 97.0908 17.358 97.0908 17.488V17.68C97.0908 17.864 97.0078 17.98 96.8418 18.028C97.0078 18.074 97.0908 18.191 97.0908 18.379V18.583C97.0908 18.713 97.0528 18.815 96.9768 18.889C96.9008 18.963 96.7978 19 96.6678 19H96.4128C96.2828 19 96.1798 18.963 96.1038 18.889C96.0278 18.815 95.9898 18.713 95.9898 18.583V18.448C95.9898 18.424 96.0008 18.412 96.0228 18.412H96.1098C96.1298 18.412 96.1398 18.424 96.1398 18.448V18.58C96.1398 18.772 96.2348 18.868 96.4248 18.868H96.6558C96.8458 18.868 96.9408 18.772 96.9408 18.58V18.382C96.9408 18.19 96.8458 18.094 96.6558 18.094H96.4758C96.4538 18.094 96.4428 18.083 96.4428 18.061V17.995C96.4428 17.973 96.4538 17.962 96.4758 17.962ZM97.9221 18.865H98.2131C98.4031 18.865 98.4981 18.769 98.4981 18.577V18.382C98.4981 18.19 98.4031 18.094 98.2131 18.094H97.9221C97.7341 18.094 97.6401 18.19 97.6401 18.382V18.577C97.6401 18.769 97.7341 18.865 97.9221 18.865ZM97.9221 17.965H98.2131C98.3051 17.965 98.3751 17.94 98.4231 17.89C98.4731 17.84 98.4981 17.768 98.4981 17.674V17.494C98.4981 17.302 98.4031 17.206 98.2131 17.206H97.9221C97.7341 17.206 97.6401 17.302 97.6401 17.494V17.674C97.6401 17.868 97.7341 17.965 97.9221 17.965ZM98.2251 19H97.9101C97.7801 19 97.6771 18.964 97.6011 18.892C97.5251 18.818 97.4871 18.716 97.4871 18.586V18.388C97.4871 18.206 97.5601 18.086 97.7061 18.028C97.5601 17.97 97.4871 17.851 97.4871 17.671V17.485C97.4871 17.355 97.5251 17.254 97.6011 17.182C97.6771 17.108 97.7801 17.071 97.9101 17.071H98.2251C98.3551 17.071 98.4571 17.108 98.5311 17.182C98.6071 17.254 98.6451 17.355 98.6451 17.485V17.671C98.6451 17.855 98.5731 17.974 98.4291 18.028C98.5731 18.084 98.6451 18.204 98.6451 18.388V18.586C98.6451 18.716 98.6071 18.818 98.5311 18.892C98.4571 18.964 98.3551 19 98.2251 19ZM99.4777 18.865H99.7687C99.9587 18.865 100.054 18.769 100.054 18.577V18.382C100.054 18.19 99.9587 18.094 99.7687 18.094H99.4777C99.2897 18.094 99.1957 18.19 99.1957 18.382V18.577C99.1957 18.769 99.2897 18.865 99.4777 18.865ZM99.4777 17.965H99.7687C99.8607 17.965 99.9307 17.94 99.9787 17.89C100.029 17.84 100.054 17.768 100.054 17.674V17.494C100.054 17.302 99.9587 17.206 99.7687 17.206H99.4777C99.2897 17.206 99.1957 17.302 99.1957 17.494V17.674C99.1957 17.868 99.2897 17.965 99.4777 17.965ZM99.7807 19H99.4657C99.3357 19 99.2327 18.964 99.1567 18.892C99.0807 18.818 99.0427 18.716 99.0427 18.586V18.388C99.0427 18.206 99.1157 18.086 99.2617 18.028C99.1157 17.97 99.0427 17.851 99.0427 17.671V17.485C99.0427 17.355 99.0807 17.254 99.1567 17.182C99.2327 17.108 99.3357 17.071 99.4657 17.071H99.7807C99.9107 17.071 100.013 17.108 100.087 17.182C100.163 17.254 100.201 17.355 100.201 17.485V17.671C100.201 17.855 100.129 17.974 99.9847 18.028C100.129 18.084 100.201 18.204 100.201 18.388V18.586C100.201 18.716 100.163 18.818 100.087 18.892C100.013 18.964 99.9107 19 99.7807 19ZM101.033 18.865H101.324C101.514 18.865 101.609 18.769 101.609 18.577V18.382C101.609 18.19 101.514 18.094 101.324 18.094H101.033C100.845 18.094 100.751 18.19 100.751 18.382V18.577C100.751 18.769 100.845 18.865 101.033 18.865ZM101.033 17.965H101.324C101.416 17.965 101.486 17.94 101.534 17.89C101.584 17.84 101.609 17.768 101.609 17.674V17.494C101.609 17.302 101.514 17.206 101.324 17.206H101.033C100.845 17.206 100.751 17.302 100.751 17.494V17.674C100.751 17.868 100.845 17.965 101.033 17.965ZM101.336 19H101.021C100.891 19 100.788 18.964 100.712 18.892C100.636 18.818 100.598 18.716 100.598 18.586V18.388C100.598 18.206 100.671 18.086 100.817 18.028C100.671 17.97 100.598 17.851 100.598 17.671V17.485C100.598 17.355 100.636 17.254 100.712 17.182C100.788 17.108 100.891 17.071 101.021 17.071H101.336C101.466 17.071 101.568 17.108 101.642 17.182C101.718 17.254 101.756 17.355 101.756 17.485V17.671C101.756 17.855 101.684 17.974 101.54 18.028C101.684 18.084 101.756 18.204 101.756 18.388V18.586C101.756 18.716 101.718 18.818 101.642 18.892C101.568 18.964 101.466 19 101.336 19ZM102.631 17.962H102.811C103.001 17.962 103.096 17.867 103.096 17.677V17.491C103.096 17.299 103.001 17.203 102.811 17.203H102.58C102.39 17.203 102.295 17.299 102.295 17.491V17.599C102.295 17.621 102.285 17.632 102.265 17.632H102.178C102.156 17.632 102.145 17.621 102.145 17.599V17.488C102.145 17.358 102.183 17.256 102.259 17.182C102.335 17.108 102.438 17.071 102.568 17.071H102.823C102.953 17.071 103.056 17.108 103.132 17.182C103.208 17.256 103.246 17.358 103.246 17.488V17.68C103.246 17.864 103.163 17.98 102.997 18.028C103.163 18.074 103.246 18.191 103.246 18.379V18.583C103.246 18.713 103.208 18.815 103.132 18.889C103.056 18.963 102.953 19 102.823 19H102.568C102.438 19 102.335 18.963 102.259 18.889C102.183 18.815 102.145 18.713 102.145 18.583V18.448C102.145 18.424 102.156 18.412 102.178 18.412H102.265C102.285 18.412 102.295 18.424 102.295 18.448V18.58C102.295 18.772 102.39 18.868 102.58 18.868H102.811C103.001 18.868 103.096 18.772 103.096 18.58V18.382C103.096 18.19 103.001 18.094 102.811 18.094H102.631C102.609 18.094 102.598 18.083 102.598 18.061V17.995C102.598 17.973 102.609 17.962 102.631 17.962ZM104.077 18.865H104.368C104.558 18.865 104.653 18.769 104.653 18.577V18.382C104.653 18.19 104.558 18.094 104.368 18.094H104.077C103.889 18.094 103.795 18.19 103.795 18.382V18.577C103.795 18.769 103.889 18.865 104.077 18.865ZM104.077 17.965H104.368C104.46 17.965 104.53 17.94 104.578 17.89C104.628 17.84 104.653 17.768 104.653 17.674V17.494C104.653 17.302 104.558 17.206 104.368 17.206H104.077C103.889 17.206 103.795 17.302 103.795 17.494V17.674C103.795 17.868 103.889 17.965 104.077 17.965ZM104.38 19H104.065C103.935 19 103.832 18.964 103.756 18.892C103.68 18.818 103.642 18.716 103.642 18.586V18.388C103.642 18.206 103.715 18.086 103.861 18.028C103.715 17.97 103.642 17.851 103.642 17.671V17.485C103.642 17.355 103.68 17.254 103.756 17.182C103.832 17.108 103.935 17.071 104.065 17.071H104.38C104.51 17.071 104.612 17.108 104.686 17.182C104.762 17.254 104.8 17.355 104.8 17.485V17.671C104.8 17.855 104.728 17.974 104.584 18.028C104.728 18.084 104.8 18.204 104.8 18.388V18.586C104.8 18.716 104.762 18.818 104.686 18.892C104.612 18.964 104.51 19 104.38 19ZM57.0333 23H56.9523C56.9223 23 56.9123 22.988 56.9223 22.964C56.9323 22.94 57.0413 22.635 57.2493 22.049C57.4573 21.463 57.5693 21.15 57.5853 21.11C57.5933 21.084 57.6093 21.071 57.6333 21.071H57.7143C57.7403 21.071 57.7483 21.086 57.7383 21.116L57.0813 22.961C57.0713 22.987 57.0553 23 57.0333 23ZM59.1678 23H58.5408C58.4108 23 58.3078 22.962 58.2318 22.886C58.1578 22.81 58.1208 22.706 58.1208 22.574V21.896C58.1208 21.764 58.1578 21.66 58.2318 21.584C58.3078 21.508 58.4108 21.47 58.5408 21.47H58.7988C58.9288 21.47 59.0318 21.508 59.1078 21.584C59.1838 21.66 59.2218 21.764 59.2218 21.896V22.277C59.2218 22.301 59.2098 22.313 59.1858 22.313H58.2978C58.2798 22.313 58.2708 22.322 58.2708 22.34V22.571C58.2708 22.665 58.2948 22.738 58.3428 22.79C58.3908 22.84 58.4608 22.865 58.5528 22.865H59.1678C59.1898 22.865 59.2008 22.876 59.2008 22.898V22.967C59.2008 22.989 59.1898 23 59.1678 23ZM58.2978 22.193H59.0448C59.0628 22.193 59.0718 22.184 59.0718 22.166V21.899C59.0718 21.805 59.0478 21.733 58.9998 21.683C58.9518 21.631 58.8818 21.605 58.7898 21.605H58.5528C58.4608 21.605 58.3908 21.631 58.3428 21.683C58.2948 21.733 58.2708 21.805 58.2708 21.899V22.166C58.2708 22.184 58.2798 22.193 58.2978 22.193ZM59.6933 21.605H59.5103C59.4883 21.605 59.4773 21.595 59.4773 21.575V21.503C59.4773 21.481 59.4883 21.47 59.5103 21.47H59.6933C59.7113 21.47 59.7203 21.461 59.7203 21.443V21.2C59.7203 21.176 59.7313 21.164 59.7533 21.164H59.8403C59.8623 21.164 59.8733 21.176 59.8733 21.2V21.443C59.8733 21.461 59.8823 21.47 59.9003 21.47H60.2573C60.2793 21.47 60.2903 21.481 60.2903 21.503V21.575C60.2903 21.595 60.2793 21.605 60.2573 21.605H59.9003C59.8823 21.605 59.8733 21.614 59.8733 21.632V22.577C59.8733 22.669 59.8993 22.74 59.9513 22.79C60.0033 22.84 60.0763 22.865 60.1703 22.865H60.2873C60.3093 22.865 60.3203 22.876 60.3203 22.898V22.967C60.3203 22.989 60.3093 23 60.2873 23H60.1583C60.0263 23 59.9203 22.963 59.8403 22.889C59.7603 22.815 59.7203 22.713 59.7203 22.583V21.632C59.7203 21.614 59.7113 21.605 59.6933 21.605ZM61.5224 22.898V22.967C61.5224 22.989 61.5114 23 61.4894 23H61.0574C60.9274 23 60.8244 22.962 60.7484 22.886C60.6744 22.81 60.6374 22.706 60.6374 22.574V21.896C60.6374 21.764 60.6744 21.66 60.7484 21.584C60.8244 21.508 60.9274 21.47 61.0574 21.47H61.4894C61.5114 21.47 61.5224 21.481 61.5224 21.503V21.575C61.5224 21.595 61.5114 21.605 61.4894 21.605H61.0694C60.9774 21.605 60.9074 21.631 60.8594 21.683C60.8114 21.735 60.7874 21.808 60.7874 21.902V22.568C60.7874 22.662 60.8114 22.735 60.8594 22.787C60.9074 22.839 60.9774 22.865 61.0694 22.865H61.4894C61.5114 22.865 61.5224 22.876 61.5224 22.898ZM61.92 23H61.839C61.809 23 61.799 22.988 61.809 22.964C61.819 22.94 61.928 22.635 62.136 22.049C62.344 21.463 62.456 21.15 62.472 21.11C62.48 21.084 62.496 21.071 62.52 21.071H62.601C62.627 21.071 62.635 21.086 62.625 21.116L61.968 22.961C61.958 22.987 61.942 23 61.92 23ZM63.3525 21.47H63.6255C63.6495 21.47 63.6615 21.481 63.6615 21.503V21.572C63.6615 21.594 63.6495 21.605 63.6255 21.605H63.3525C63.3345 21.605 63.3255 21.614 63.3255 21.632V22.964C63.3255 22.988 63.3145 23 63.2925 23H63.2055C63.1835 23 63.1725 22.988 63.1725 22.964V21.632C63.1725 21.614 63.1635 21.605 63.1455 21.605H62.9535C62.9315 21.605 62.9205 21.594 62.9205 21.572V21.503C62.9205 21.481 62.9315 21.47 62.9535 21.47H63.1455C63.1635 21.47 63.1725 21.461 63.1725 21.443V21.311C63.1725 21.031 63.2995 20.891 63.5535 20.891H63.6255C63.6495 20.891 63.6615 20.902 63.6615 20.924V20.993C63.6615 21.015 63.6495 21.026 63.6255 21.026H63.5685C63.4785 21.026 63.4155 21.05 63.3795 21.098C63.3435 21.146 63.3255 21.219 63.3255 21.317V21.443C63.3255 21.461 63.3345 21.47 63.3525 21.47ZM63.9607 21.218V20.93C63.9607 20.908 63.9707 20.897 63.9907 20.897H64.0807C64.1007 20.897 64.1107 20.908 64.1107 20.93V21.218C64.1107 21.242 64.1007 21.254 64.0807 21.254H63.9907C63.9707 21.254 63.9607 21.242 63.9607 21.218ZM63.9607 22.964V21.506C63.9607 21.482 63.9707 21.47 63.9907 21.47H64.0777C64.0997 21.47 64.1107 21.482 64.1107 21.506V22.964C64.1107 22.988 64.1007 23 64.0807 23H63.9907C63.9707 23 63.9607 22.988 63.9607 22.964ZM64.7076 23H64.6206C64.6006 23 64.5906 22.988 64.5906 22.964V20.927C64.5906 20.903 64.6006 20.891 64.6206 20.891H64.7076C64.7296 20.891 64.7406 20.903 64.7406 20.927V22.964C64.7406 22.988 64.7296 23 64.7076 23ZM66.2225 23H65.5955C65.4655 23 65.3625 22.962 65.2865 22.886C65.2125 22.81 65.1755 22.706 65.1755 22.574V21.896C65.1755 21.764 65.2125 21.66 65.2865 21.584C65.3625 21.508 65.4655 21.47 65.5955 21.47H65.8535C65.9835 21.47 66.0865 21.508 66.1625 21.584C66.2385 21.66 66.2765 21.764 66.2765 21.896V22.277C66.2765 22.301 66.2645 22.313 66.2405 22.313H65.3525C65.3345 22.313 65.3255 22.322 65.3255 22.34V22.571C65.3255 22.665 65.3495 22.738 65.3975 22.79C65.4455 22.84 65.5155 22.865 65.6075 22.865H66.2225C66.2445 22.865 66.2555 22.876 66.2555 22.898V22.967C66.2555 22.989 66.2445 23 66.2225 23ZM65.3525 22.193H66.0995C66.1175 22.193 66.1265 22.184 66.1265 22.166V21.899C66.1265 21.805 66.1025 21.733 66.0545 21.683C66.0065 21.631 65.9365 21.605 65.8445 21.605H65.6075C65.5155 21.605 65.4455 21.631 65.3975 21.683C65.3495 21.733 65.3255 21.805 65.3255 21.899V22.166C65.3255 22.184 65.3345 22.193 65.3525 22.193ZM67.177 23H66.655C66.633 23 66.622 22.989 66.622 22.967V22.898C66.622 22.878 66.633 22.868 66.655 22.868H67.162C67.342 22.868 67.432 22.798 67.432 22.658V22.586C67.432 22.456 67.376 22.371 67.264 22.331L66.889 22.187C66.787 22.147 66.714 22.1 66.67 22.046C66.628 21.992 66.607 21.917 66.607 21.821C66.607 21.587 66.736 21.47 66.994 21.47H67.48C67.502 21.47 67.513 21.481 67.513 21.503V21.572C67.513 21.592 67.502 21.602 67.48 21.602H67.009C66.927 21.602 66.865 21.62 66.823 21.656C66.783 21.692 66.763 21.734 66.763 21.782V21.851C66.763 21.907 66.778 21.951 66.808 21.983C66.84 22.015 66.888 22.042 66.952 22.064L67.327 22.214C67.431 22.248 67.5 22.299 67.534 22.367C67.57 22.433 67.588 22.526 67.588 22.646C67.588 22.766 67.554 22.855 67.486 22.913C67.42 22.971 67.317 23 67.177 23ZM68.046 23H67.965C67.935 23 67.925 22.988 67.935 22.964C67.945 22.94 68.054 22.635 68.262 22.049C68.47 21.463 68.582 21.15 68.598 21.11C68.606 21.084 68.622 21.071 68.646 21.071H68.727C68.753 21.071 68.761 21.086 68.751 21.116L68.094 22.961C68.084 22.987 68.068 23 68.046 23ZM69.6585 23H69.1365C69.1145 23 69.1035 22.989 69.1035 22.967V22.898C69.1035 22.878 69.1145 22.868 69.1365 22.868H69.6435C69.8235 22.868 69.9135 22.798 69.9135 22.658V22.586C69.9135 22.456 69.8575 22.371 69.7455 22.331L69.3705 22.187C69.2685 22.147 69.1955 22.1 69.1515 22.046C69.1095 21.992 69.0885 21.917 69.0885 21.821C69.0885 21.587 69.2175 21.47 69.4755 21.47H69.9615C69.9835 21.47 69.9945 21.481 69.9945 21.503V21.572C69.9945 21.592 69.9835 21.602 69.9615 21.602H69.4905C69.4085 21.602 69.3465 21.62 69.3045 21.656C69.2645 21.692 69.2445 21.734 69.2445 21.782V21.851C69.2445 21.907 69.2595 21.951 69.2895 21.983C69.3215 22.015 69.3695 22.042 69.4335 22.064L69.8085 22.214C69.9125 22.248 69.9815 22.299 70.0155 22.367C70.0515 22.433 70.0695 22.526 70.0695 22.646C70.0695 22.766 70.0355 22.855 69.9675 22.913C69.9015 22.971 69.7985 23 69.6585 23ZM70.5275 23.456H70.4165C70.3945 23.456 70.3835 23.445 70.3835 23.423V23.351C70.3835 23.329 70.3945 23.318 70.4165 23.318H70.4975C70.5575 23.318 70.6085 23.309 70.6505 23.291C70.6925 23.275 70.7295 23.244 70.7615 23.198C70.7935 23.152 70.8145 23.116 70.8245 23.09C70.8525 23.028 70.8755 22.971 70.8935 22.919H70.8365C70.8145 22.919 70.8005 22.907 70.7945 22.883L70.3175 21.506C70.3095 21.482 70.3175 21.47 70.3415 21.47H70.4345C70.4545 21.47 70.4675 21.482 70.4735 21.506L70.9145 22.793H70.9265L71.3675 21.506C71.3735 21.482 71.3865 21.47 71.4065 21.47H71.4965C71.5205 21.47 71.5295 21.482 71.5235 21.506C71.1655 22.554 70.9785 23.096 70.9625 23.132C70.9485 23.168 70.9215 23.217 70.8815 23.279C70.8055 23.397 70.6875 23.456 70.5275 23.456ZM72.3274 23H71.8054C71.7834 23 71.7724 22.989 71.7724 22.967V22.898C71.7724 22.878 71.7834 22.868 71.8054 22.868H72.3124C72.4924 22.868 72.5824 22.798 72.5824 22.658V22.586C72.5824 22.456 72.5264 22.371 72.4144 22.331L72.0394 22.187C71.9374 22.147 71.8644 22.1 71.8204 22.046C71.7784 21.992 71.7574 21.917 71.7574 21.821C71.7574 21.587 71.8864 21.47 72.1444 21.47H72.6304C72.6524 21.47 72.6634 21.481 72.6634 21.503V21.572C72.6634 21.592 72.6524 21.602 72.6304 21.602H72.1594C72.0774 21.602 72.0154 21.62 71.9734 21.656C71.9334 21.692 71.9134 21.734 71.9134 21.782V21.851C71.9134 21.907 71.9284 21.951 71.9584 21.983C71.9904 22.015 72.0384 22.042 72.1024 22.064L72.4774 22.214C72.5814 22.248 72.6504 22.299 72.6844 22.367C72.7204 22.433 72.7384 22.526 72.7384 22.646C72.7384 22.766 72.7044 22.855 72.6364 22.913C72.5704 22.971 72.4674 23 72.3274 23ZM73.1904 21.605H73.0074C72.9854 21.605 72.9744 21.595 72.9744 21.575V21.503C72.9744 21.481 72.9854 21.47 73.0074 21.47H73.1904C73.2084 21.47 73.2174 21.461 73.2174 21.443V21.2C73.2174 21.176 73.2284 21.164 73.2504 21.164H73.3374C73.3594 21.164 73.3704 21.176 73.3704 21.2V21.443C73.3704 21.461 73.3794 21.47 73.3974 21.47H73.7544C73.7764 21.47 73.7874 21.481 73.7874 21.503V21.575C73.7874 21.595 73.7764 21.605 73.7544 21.605H73.3974C73.3794 21.605 73.3704 21.614 73.3704 21.632V22.577C73.3704 22.669 73.3964 22.74 73.4484 22.79C73.5004 22.84 73.5734 22.865 73.6674 22.865H73.7844C73.8064 22.865 73.8174 22.876 73.8174 22.898V22.967C73.8174 22.989 73.8064 23 73.7844 23H73.6554C73.5234 23 73.4174 22.963 73.3374 22.889C73.2574 22.815 73.2174 22.713 73.2174 22.583V21.632C73.2174 21.614 73.2084 21.605 73.1904 21.605ZM75.1815 23H74.5545C74.4245 23 74.3215 22.962 74.2455 22.886C74.1715 22.81 74.1345 22.706 74.1345 22.574V21.896C74.1345 21.764 74.1715 21.66 74.2455 21.584C74.3215 21.508 74.4245 21.47 74.5545 21.47H74.8125C74.9425 21.47 75.0455 21.508 75.1215 21.584C75.1975 21.66 75.2355 21.764 75.2355 21.896V22.277C75.2355 22.301 75.2235 22.313 75.1995 22.313H74.3115C74.2935 22.313 74.2845 22.322 74.2845 22.34V22.571C74.2845 22.665 74.3085 22.738 74.3565 22.79C74.4045 22.84 74.4745 22.865 74.5665 22.865H75.1815C75.2035 22.865 75.2145 22.876 75.2145 22.898V22.967C75.2145 22.989 75.2035 23 75.1815 23ZM74.3115 22.193H75.0585C75.0765 22.193 75.0855 22.184 75.0855 22.166V21.899C75.0855 21.805 75.0615 21.733 75.0135 21.683C74.9655 21.631 74.8955 21.605 74.8035 21.605H74.5665C74.4745 21.605 74.4045 21.631 74.3565 21.683C74.3085 21.733 74.2845 21.805 74.2845 21.899V22.166C74.2845 22.184 74.2935 22.193 74.3115 22.193ZM75.758 23H75.671C75.651 23 75.641 22.988 75.641 22.964V21.506C75.641 21.482 75.651 21.47 75.671 21.47H75.758C75.78 21.47 75.791 21.482 75.791 21.506V21.626H75.803C75.861 21.522 75.967 21.47 76.121 21.47H76.244C76.42 21.47 76.542 21.54 76.61 21.68C76.64 21.61 76.691 21.558 76.763 21.524C76.835 21.488 76.909 21.47 76.985 21.47H77.096C77.226 21.47 77.328 21.508 77.402 21.584C77.476 21.66 77.513 21.764 77.513 21.896V22.964C77.513 22.988 77.502 23 77.48 23H77.393C77.371 23 77.36 22.988 77.36 22.964V21.902C77.36 21.806 77.336 21.733 77.288 21.683C77.24 21.631 77.17 21.605 77.078 21.605H76.967C76.871 21.605 76.795 21.633 76.739 21.689C76.683 21.743 76.655 21.817 76.655 21.911V22.964C76.655 22.988 76.644 23 76.622 23H76.535C76.513 23 76.502 22.988 76.502 22.964V21.902C76.502 21.806 76.478 21.733 76.43 21.683C76.382 21.631 76.312 21.605 76.22 21.605H76.1C76.004 21.605 75.928 21.631 75.872 21.683C75.818 21.733 75.791 21.805 75.791 21.899V22.964C75.791 22.988 75.78 23 75.758 23ZM78.5017 22.106H77.8777C77.8537 22.106 77.8417 22.095 77.8417 22.073V22.007C77.8417 21.985 77.8537 21.974 77.8777 21.974H78.5017C78.5257 21.974 78.5377 21.985 78.5377 22.007V22.073C78.5377 22.095 78.5257 22.106 78.5017 22.106ZM79.7363 22.898V22.967C79.7363 22.989 79.7253 23 79.7033 23H79.2713C79.1413 23 79.0383 22.962 78.9623 22.886C78.8883 22.81 78.8513 22.706 78.8513 22.574V21.896C78.8513 21.764 78.8883 21.66 78.9623 21.584C79.0383 21.508 79.1413 21.47 79.2713 21.47H79.7033C79.7253 21.47 79.7363 21.481 79.7363 21.503V21.575C79.7363 21.595 79.7253 21.605 79.7033 21.605H79.2833C79.1913 21.605 79.1213 21.631 79.0733 21.683C79.0253 21.735 79.0013 21.808 79.0013 21.902V22.568C79.0013 22.662 79.0253 22.735 79.0733 22.787C79.1213 22.839 79.1913 22.865 79.2833 22.865H79.7033C79.7253 22.865 79.7363 22.876 79.7363 22.898ZM80.1789 23H80.0919C80.0719 23 80.0619 22.988 80.0619 22.964V20.927C80.0619 20.903 80.0719 20.891 80.0919 20.891H80.1789C80.2009 20.891 80.2119 20.903 80.2119 20.927V21.626H80.2239C80.2799 21.522 80.3839 21.47 80.5359 21.47H80.7339C80.8619 21.47 80.9629 21.508 81.0369 21.584C81.1109 21.66 81.1479 21.764 81.1479 21.896V22.964C81.1479 22.988 81.1379 23 81.1179 23H81.0309C81.0089 23 80.9979 22.988 80.9979 22.964V21.902C80.9979 21.808 80.9739 21.735 80.9259 21.683C80.8779 21.631 80.8079 21.605 80.7159 21.605H80.5209C80.4249 21.605 80.3489 21.631 80.2929 21.683C80.2389 21.733 80.2119 21.805 80.2119 21.899V22.964C80.2119 22.988 80.2009 23 80.1789 23ZM82.5994 23H81.9724C81.8424 23 81.7394 22.962 81.6634 22.886C81.5894 22.81 81.5524 22.706 81.5524 22.574V21.896C81.5524 21.764 81.5894 21.66 81.6634 21.584C81.7394 21.508 81.8424 21.47 81.9724 21.47H82.2304C82.3604 21.47 82.4634 21.508 82.5394 21.584C82.6154 21.66 82.6534 21.764 82.6534 21.896V22.277C82.6534 22.301 82.6414 22.313 82.6174 22.313H81.7294C81.7114 22.313 81.7024 22.322 81.7024 22.34V22.571C81.7024 22.665 81.7264 22.738 81.7744 22.79C81.8224 22.84 81.8924 22.865 81.9844 22.865H82.5994C82.6214 22.865 82.6324 22.876 82.6324 22.898V22.967C82.6324 22.989 82.6214 23 82.5994 23ZM81.7294 22.193H82.4764C82.4944 22.193 82.5034 22.184 82.5034 22.166V21.899C82.5034 21.805 82.4794 21.733 82.4314 21.683C82.3834 21.631 82.3134 21.605 82.2214 21.605H81.9844C81.8924 21.605 81.8224 21.631 81.7744 21.683C81.7264 21.733 81.7024 21.805 81.7024 21.899V22.166C81.7024 22.184 81.7114 22.193 81.7294 22.193ZM83.914 22.898V22.967C83.914 22.989 83.903 23 83.881 23H83.449C83.319 23 83.216 22.962 83.14 22.886C83.066 22.81 83.029 22.706 83.029 22.574V21.896C83.029 21.764 83.066 21.66 83.14 21.584C83.216 21.508 83.319 21.47 83.449 21.47H83.881C83.903 21.47 83.914 21.481 83.914 21.503V21.575C83.914 21.595 83.903 21.605 83.881 21.605H83.461C83.369 21.605 83.299 21.631 83.251 21.683C83.203 21.735 83.179 21.808 83.179 21.902V22.568C83.179 22.662 83.203 22.735 83.251 22.787C83.299 22.839 83.369 22.865 83.461 22.865H83.881C83.903 22.865 83.914 22.876 83.914 22.898ZM85.1006 21.47H85.1936C85.2056 21.47 85.2136 21.474 85.2176 21.482C85.2216 21.488 85.2196 21.496 85.2116 21.506L84.7526 22.202V22.214L85.2656 22.964C85.2736 22.974 85.2756 22.983 85.2716 22.991C85.2676 22.997 85.2596 23 85.2476 23H85.1546C85.1246 23 85.1016 22.988 85.0856 22.964L84.5906 22.235C84.5826 22.219 84.5826 22.203 84.5906 22.187L85.0406 21.5C85.0526 21.48 85.0726 21.47 85.1006 21.47ZM84.3566 23H84.2696C84.2496 23 84.2396 22.988 84.2396 22.964V20.927C84.2396 20.903 84.2496 20.891 84.2696 20.891H84.3566C84.3786 20.891 84.3896 20.903 84.3896 20.927V22.964C84.3896 22.988 84.3786 23 84.3566 23ZM86.5486 23H85.9216C85.7916 23 85.6886 22.962 85.6126 22.886C85.5386 22.81 85.5016 22.706 85.5016 22.574V21.896C85.5016 21.764 85.5386 21.66 85.6126 21.584C85.6886 21.508 85.7916 21.47 85.9216 21.47H86.1796C86.3096 21.47 86.4126 21.508 86.4886 21.584C86.5646 21.66 86.6026 21.764 86.6026 21.896V22.277C86.6026 22.301 86.5906 22.313 86.5666 22.313H85.6786C85.6606 22.313 85.6516 22.322 85.6516 22.34V22.571C85.6516 22.665 85.6756 22.738 85.7236 22.79C85.7716 22.84 85.8416 22.865 85.9336 22.865H86.5486C86.5706 22.865 86.5816 22.876 86.5816 22.898V22.967C86.5816 22.989 86.5706 23 86.5486 23ZM85.6786 22.193H86.4256C86.4436 22.193 86.4526 22.184 86.4526 22.166V21.899C86.4526 21.805 86.4286 21.733 86.3806 21.683C86.3326 21.631 86.2626 21.605 86.1706 21.605H85.9336C85.8416 21.605 85.7716 21.631 85.7236 21.683C85.6756 21.733 85.6516 21.805 85.6516 21.899V22.166C85.6516 22.184 85.6606 22.193 85.6786 22.193ZM87.1252 23H87.0382C87.0182 23 87.0082 22.988 87.0082 22.964V21.506C87.0082 21.482 87.0182 21.47 87.0382 21.47H87.1252C87.1472 21.47 87.1582 21.482 87.1582 21.506V21.632H87.1702C87.1922 21.59 87.2312 21.553 87.2872 21.521C87.3432 21.487 87.4122 21.47 87.4942 21.47H87.6112C87.6332 21.47 87.6442 21.481 87.6442 21.503V21.575C87.6442 21.597 87.6332 21.607 87.6112 21.605H87.4702C87.3722 21.605 87.2952 21.635 87.2392 21.695C87.1852 21.755 87.1582 21.836 87.1582 21.938V22.964C87.1582 22.988 87.1472 23 87.1252 23ZM88.0206 23H87.9396C87.9096 23 87.8996 22.988 87.9096 22.964C87.9196 22.94 88.0286 22.635 88.2366 22.049C88.4446 21.463 88.5566 21.15 88.5726 21.11C88.5806 21.084 88.5966 21.071 88.6206 21.071H88.7016C88.7276 21.071 88.7356 21.086 88.7256 21.116L88.0686 22.961C88.0586 22.987 88.0426 23 88.0206 23ZM89.9931 22.898V22.967C89.9931 22.989 89.9821 23 89.9601 23H89.5281C89.3981 23 89.2951 22.962 89.2191 22.886C89.1451 22.81 89.1081 22.706 89.1081 22.574V21.896C89.1081 21.764 89.1451 21.66 89.2191 21.584C89.2951 21.508 89.3981 21.47 89.5281 21.47H89.9601C89.9821 21.47 89.9931 21.481 89.9931 21.503V21.575C89.9931 21.595 89.9821 21.605 89.9601 21.605H89.5401C89.4481 21.605 89.3781 21.631 89.3301 21.683C89.2821 21.735 89.2581 21.808 89.2581 21.902V22.568C89.2581 22.662 89.2821 22.735 89.3301 22.787C89.3781 22.839 89.4481 22.865 89.5401 22.865H89.9601C89.9821 22.865 89.9931 22.876 89.9931 22.898ZM90.4358 23H90.3488C90.3288 23 90.3188 22.988 90.3188 22.964V20.927C90.3188 20.903 90.3288 20.891 90.3488 20.891H90.4358C90.4578 20.891 90.4688 20.903 90.4688 20.927V21.626H90.4808C90.5368 21.522 90.6408 21.47 90.7928 21.47H90.9908C91.1188 21.47 91.2198 21.508 91.2938 21.584C91.3678 21.66 91.4048 21.764 91.4048 21.896V22.964C91.4048 22.988 91.3948 23 91.3748 23H91.2878C91.2658 23 91.2548 22.988 91.2548 22.964V21.902C91.2548 21.808 91.2308 21.735 91.1828 21.683C91.1348 21.631 91.0648 21.605 90.9728 21.605H90.7778C90.6818 21.605 90.6058 21.631 90.5498 21.683C90.4958 21.733 90.4688 21.805 90.4688 21.899V22.964C90.4688 22.988 90.4578 23 90.4358 23ZM92.8563 23H92.2293C92.0993 23 91.9963 22.962 91.9203 22.886C91.8463 22.81 91.8093 22.706 91.8093 22.574V21.896C91.8093 21.764 91.8463 21.66 91.9203 21.584C91.9963 21.508 92.0993 21.47 92.2293 21.47H92.4873C92.6173 21.47 92.7203 21.508 92.7963 21.584C92.8723 21.66 92.9103 21.764 92.9103 21.896V22.277C92.9103 22.301 92.8983 22.313 92.8743 22.313H91.9863C91.9683 22.313 91.9593 22.322 91.9593 22.34V22.571C91.9593 22.665 91.9833 22.738 92.0313 22.79C92.0793 22.84 92.1493 22.865 92.2413 22.865H92.8563C92.8783 22.865 92.8893 22.876 92.8893 22.898V22.967C92.8893 22.989 92.8783 23 92.8563 23ZM91.9863 22.193H92.7333C92.7513 22.193 92.7603 22.184 92.7603 22.166V21.899C92.7603 21.805 92.7363 21.733 92.6883 21.683C92.6403 21.631 92.5703 21.605 92.4783 21.605H92.2413C92.1493 21.605 92.0793 21.631 92.0313 21.683C91.9833 21.733 91.9593 21.805 91.9593 21.899V22.166C91.9593 22.184 91.9683 22.193 91.9863 22.193ZM94.1708 22.898V22.967C94.1708 22.989 94.1598 23 94.1378 23H93.7058C93.5758 23 93.4728 22.962 93.3968 22.886C93.3228 22.81 93.2858 22.706 93.2858 22.574V21.896C93.2858 21.764 93.3228 21.66 93.3968 21.584C93.4728 21.508 93.5758 21.47 93.7058 21.47H94.1378C94.1598 21.47 94.1708 21.481 94.1708 21.503V21.575C94.1708 21.595 94.1598 21.605 94.1378 21.605H93.7178C93.6258 21.605 93.5558 21.631 93.5078 21.683C93.4598 21.735 93.4358 21.808 93.4358 21.902V22.568C93.4358 22.662 93.4598 22.735 93.5078 22.787C93.5558 22.839 93.6258 22.865 93.7178 22.865H94.1378C94.1598 22.865 94.1708 22.876 94.1708 22.898ZM95.3575 21.47H95.4505C95.4625 21.47 95.4705 21.474 95.4745 21.482C95.4785 21.488 95.4765 21.496 95.4685 21.506L95.0095 22.202V22.214L95.5225 22.964C95.5305 22.974 95.5325 22.983 95.5285 22.991C95.5245 22.997 95.5165 23 95.5045 23H95.4115C95.3815 23 95.3585 22.988 95.3425 22.964L94.8475 22.235C94.8395 22.219 94.8395 22.203 94.8475 22.187L95.2975 21.5C95.3095 21.48 95.3295 21.47 95.3575 21.47ZM94.6135 23H94.5265C94.5065 23 94.4965 22.988 94.4965 22.964V20.927C94.4965 20.903 94.5065 20.891 94.5265 20.891H94.6135C94.6355 20.891 94.6465 20.903 94.6465 20.927V22.964C94.6465 22.988 94.6355 23 94.6135 23ZM96.8055 23H96.1785C96.0485 23 95.9455 22.962 95.8695 22.886C95.7955 22.81 95.7585 22.706 95.7585 22.574V21.896C95.7585 21.764 95.7955 21.66 95.8695 21.584C95.9455 21.508 96.0485 21.47 96.1785 21.47H96.4365C96.5665 21.47 96.6695 21.508 96.7455 21.584C96.8215 21.66 96.8595 21.764 96.8595 21.896V22.277C96.8595 22.301 96.8475 22.313 96.8235 22.313H95.9355C95.9175 22.313 95.9085 22.322 95.9085 22.34V22.571C95.9085 22.665 95.9325 22.738 95.9805 22.79C96.0285 22.84 96.0985 22.865 96.1905 22.865H96.8055C96.8275 22.865 96.8385 22.876 96.8385 22.898V22.967C96.8385 22.989 96.8275 23 96.8055 23ZM95.9355 22.193H96.6825C96.7005 22.193 96.7095 22.184 96.7095 22.166V21.899C96.7095 21.805 96.6855 21.733 96.6375 21.683C96.5895 21.631 96.5195 21.605 96.4275 21.605H96.1905C96.0985 21.605 96.0285 21.631 95.9805 21.683C95.9325 21.733 95.9085 21.805 95.9085 21.899V22.166C95.9085 22.184 95.9175 22.193 95.9355 22.193ZM97.382 23H97.295C97.275 23 97.265 22.988 97.265 22.964V21.506C97.265 21.482 97.275 21.47 97.295 21.47H97.382C97.404 21.47 97.415 21.482 97.415 21.506V21.632H97.427C97.449 21.59 97.488 21.553 97.544 21.521C97.6 21.487 97.669 21.47 97.751 21.47H97.868C97.89 21.47 97.901 21.481 97.901 21.503V21.575C97.901 21.597 97.89 21.607 97.868 21.605H97.727C97.629 21.605 97.552 21.635 97.496 21.695C97.442 21.755 97.415 21.836 97.415 21.938V22.964C97.415 22.988 97.404 23 97.382 23ZM98.3495 22.607V22.964C98.3495 22.988 98.3395 23 98.3195 23H98.2145C98.1925 23 98.1815 22.988 98.1815 22.964V22.607C98.1815 22.585 98.1925 22.574 98.2145 22.574H98.3195C98.3395 22.574 98.3495 22.585 98.3495 22.607ZM98.9597 22.865H99.4367C99.5287 22.865 99.5987 22.84 99.6467 22.79C99.6967 22.738 99.7217 22.664 99.7217 22.568V21.875C99.7217 21.781 99.6967 21.709 99.6467 21.659C99.5987 21.607 99.5287 21.581 99.4367 21.581H99.2387C99.1427 21.581 99.0667 21.607 99.0107 21.659C98.9567 21.709 98.9297 21.781 98.9297 21.875V22.838C98.9297 22.856 98.9397 22.865 98.9597 22.865ZM98.7797 22.964V20.927C98.7797 20.903 98.7897 20.891 98.8097 20.891H98.8967C98.9187 20.891 98.9297 20.903 98.9297 20.927V21.602H98.9417C98.9977 21.498 99.1017 21.446 99.2537 21.446H99.4517C99.5817 21.446 99.6837 21.484 99.7577 21.56C99.8337 21.636 99.8717 21.739 99.8717 21.869V22.574C99.8717 22.706 99.8337 22.81 99.7577 22.886C99.6837 22.962 99.5817 23 99.4517 23H98.8097C98.7897 23 98.7797 22.988 98.7797 22.964ZM100.786 23H100.264C100.242 23 100.231 22.989 100.231 22.967V22.898C100.231 22.878 100.242 22.868 100.264 22.868H100.771C100.951 22.868 101.041 22.798 101.041 22.658V22.586C101.041 22.456 100.985 22.371 100.873 22.331L100.498 22.187C100.396 22.147 100.323 22.1 100.279 22.046C100.237 21.992 100.216 21.917 100.216 21.821C100.216 21.587 100.345 21.47 100.603 21.47H101.089C101.111 21.47 101.122 21.481 101.122 21.503V21.572C101.122 21.592 101.111 21.602 101.089 21.602H100.618C100.536 21.602 100.474 21.62 100.432 21.656C100.392 21.692 100.372 21.734 100.372 21.782V21.851C100.372 21.907 100.387 21.951 100.417 21.983C100.449 22.015 100.497 22.042 100.561 22.064L100.936 22.214C101.04 22.248 101.109 22.299 101.143 22.367C101.179 22.433 101.197 22.526 101.197 22.646C101.197 22.766 101.163 22.855 101.095 22.913C101.029 22.971 100.926 23 100.786 23ZM101.7 23H101.613C101.593 23 101.583 22.988 101.583 22.964V20.927C101.583 20.903 101.593 20.891 101.613 20.891H101.7C101.722 20.891 101.733 20.903 101.733 20.927V21.626H101.745C101.801 21.522 101.905 21.47 102.057 21.47H102.255C102.383 21.47 102.484 21.508 102.558 21.584C102.632 21.66 102.669 21.764 102.669 21.896V22.964C102.669 22.988 102.659 23 102.639 23H102.552C102.53 23 102.519 22.988 102.519 22.964V21.902C102.519 21.808 102.495 21.735 102.447 21.683C102.399 21.631 102.329 21.605 102.237 21.605H102.042C101.946 21.605 101.87 21.631 101.814 21.683C101.76 21.733 101.733 21.805 101.733 21.899V22.964C101.733 22.988 101.722 23 101.7 23ZM103.221 23H103.134C103.114 23 103.104 22.988 103.104 22.964V21.506C103.104 21.482 103.114 21.47 103.134 21.47H103.221C103.243 21.47 103.254 21.482 103.254 21.506V21.632H103.266C103.288 21.59 103.327 21.553 103.383 21.521C103.439 21.487 103.508 21.47 103.59 21.47H103.707C103.729 21.47 103.74 21.481 103.74 21.503V21.575C103.74 21.597 103.729 21.607 103.707 21.605H103.566C103.468 21.605 103.391 21.635 103.335 21.695C103.281 21.755 103.254 21.836 103.254 21.938V22.964C103.254 22.988 103.243 23 103.221 23ZM104.899 22.898V22.967C104.899 22.989 104.888 23 104.866 23H104.434C104.304 23 104.201 22.962 104.125 22.886C104.051 22.81 104.014 22.706 104.014 22.574V21.896C104.014 21.764 104.051 21.66 104.125 21.584C104.201 21.508 104.304 21.47 104.434 21.47H104.866C104.888 21.47 104.899 21.481 104.899 21.503V21.575C104.899 21.595 104.888 21.605 104.866 21.605H104.446C104.354 21.605 104.284 21.631 104.236 21.683C104.188 21.735 104.164 21.808 104.164 21.902V22.568C104.164 22.662 104.188 22.735 104.236 22.787C104.284 22.839 104.354 22.865 104.446 22.865H104.866C104.888 22.865 104.899 22.876 104.899 22.898Z" fill="#EB2941"/>
</svg>
