<svg width="157" height="51" viewBox="0 0 157 51" fill="none" xmlns="http://www.w3.org/2000/svg">
<path d="M50.944 10.232H52.96C53.632 10.232 53.968 9.884 53.968 9.188V5.096C53.968 4.4 53.632 4.052 52.96 4.052H50.944C50.864 4.052 50.824 4.088 50.824 4.16V10.124C50.824 10.196 50.864 10.232 50.944 10.232ZM49.948 10.832V3.452C49.948 3.34 50.004 3.284 50.116 3.284H53.068C53.62 3.284 54.052 3.444 54.364 3.764C54.684 4.076 54.844 4.508 54.844 5.06V9.224C54.844 9.776 54.684 10.212 54.364 10.532C54.052 10.844 53.62 11 53.068 11H50.116C50.004 11 49.948 10.944 49.948 10.832ZM57.324 11H56.784C56.672 11 56.616 10.944 56.616 10.832V3.452C56.616 3.34 56.672 3.284 56.784 3.284H59.544C60.096 3.284 60.532 3.444 60.852 3.764C61.172 4.076 61.332 4.508 61.332 5.06V6.152C61.332 6.6 61.224 6.972 61.008 7.268C60.792 7.556 60.492 7.748 60.108 7.844V7.892L61.5 10.808C61.572 10.936 61.532 11 61.38 11H60.84C60.704 11 60.604 10.944 60.54 10.832L59.196 7.928H57.612C57.532 7.928 57.492 7.964 57.492 8.036V10.832C57.492 10.944 57.436 11 57.324 11ZM57.612 7.196H59.424C60.112 7.196 60.456 6.852 60.456 6.164V5.096C60.456 4.4 60.112 4.052 59.424 4.052H57.612C57.532 4.052 57.492 4.088 57.492 4.16V7.088C57.492 7.16 57.532 7.196 57.612 7.196ZM64.8133 10.232H66.0373C66.7093 10.232 67.0453 9.884 67.0453 9.188V5.096C67.0453 4.4 66.7093 4.052 66.0373 4.052H64.8133C64.1493 4.052 63.8173 4.4 63.8173 5.096V9.188C63.8173 9.884 64.1493 10.232 64.8133 10.232ZM66.1453 11H64.7173C64.1653 11 63.7293 10.844 63.4093 10.532C63.0973 10.22 62.9413 9.784 62.9413 9.224V5.06C62.9413 4.5 63.0973 4.064 63.4093 3.752C63.7293 3.44 64.1653 3.284 64.7173 3.284H66.1453C66.6973 3.284 67.1293 3.444 67.4413 3.764C67.7613 4.076 67.9213 4.508 67.9213 5.06V9.224C67.9213 9.776 67.7613 10.212 67.4413 10.532C67.1293 10.844 66.6973 11 66.1453 11ZM70.4021 11H69.8621C69.7501 11 69.6941 10.944 69.6941 10.832V3.452C69.6941 3.34 69.7501 3.284 69.8621 3.284H72.6701C73.2221 3.284 73.6541 3.444 73.9661 3.764C74.2781 4.076 74.4341 4.508 74.4341 5.06V6.392C74.4341 6.952 74.2781 7.388 73.9661 7.7C73.6541 8.012 73.2221 8.168 72.6701 8.168H70.6901C70.6101 8.168 70.5701 8.204 70.5701 8.276V10.832C70.5701 10.944 70.5141 11 70.4021 11ZM70.6901 7.388H72.5501C73.2221 7.388 73.5581 7.044 73.5581 6.356V5.096C73.5581 4.4 73.2221 4.052 72.5501 4.052H70.6901C70.6101 4.052 70.5701 4.088 70.5701 4.16V7.28C70.5701 7.352 70.6101 7.388 70.6901 7.388ZM79.7654 11H79.2254C79.1134 11 79.0574 10.944 79.0574 10.832V3.452C79.0574 3.34 79.1134 3.284 79.2254 3.284H82.0334C82.5854 3.284 83.0174 3.444 83.3294 3.764C83.6414 4.076 83.7974 4.508 83.7974 5.06V6.392C83.7974 6.952 83.6414 7.388 83.3294 7.7C83.0174 8.012 82.5854 8.168 82.0334 8.168H80.0534C79.9734 8.168 79.9334 8.204 79.9334 8.276V10.832C79.9334 10.944 79.8774 11 79.7654 11ZM80.0534 7.388H81.9134C82.5854 7.388 82.9214 7.044 82.9214 6.356V5.096C82.9214 4.4 82.5854 4.052 81.9134 4.052H80.0534C79.9734 4.052 79.9334 4.088 79.9334 4.16V7.28C79.9334 7.352 79.9734 7.388 80.0534 7.388ZM87.1258 10.232H88.3498C89.0218 10.232 89.3578 9.884 89.3578 9.188V5.096C89.3578 4.4 89.0218 4.052 88.3498 4.052H87.1258C86.4618 4.052 86.1298 4.4 86.1298 5.096V9.188C86.1298 9.884 86.4618 10.232 87.1258 10.232ZM88.4578 11H87.0298C86.4778 11 86.0418 10.844 85.7218 10.532C85.4098 10.22 85.2538 9.784 85.2538 9.224V5.06C85.2538 4.5 85.4098 4.064 85.7218 3.752C86.0418 3.44 86.4778 3.284 87.0298 3.284H88.4578C89.0098 3.284 89.4418 3.444 89.7538 3.764C90.0738 4.076 90.2338 4.508 90.2338 5.06V9.224C90.2338 9.776 90.0738 10.212 89.7538 10.532C89.4418 10.844 89.0098 11 88.4578 11ZM92.9426 3.452V10.832C92.9426 10.944 92.8866 11 92.7746 11H92.2346C92.1226 11 92.0666 10.944 92.0666 10.832V3.452C92.0666 3.34 92.1226 3.284 92.2346 3.284H92.7746C92.8866 3.284 92.9426 3.34 92.9426 3.452ZM95.5971 11H95.0691C94.9571 11 94.9011 10.944 94.9011 10.832V3.452C94.9011 3.34 94.9571 3.284 95.0691 3.284H95.5611C95.6571 3.284 95.7211 3.316 95.7531 3.38L99.0651 9.2H99.1131V3.452C99.1131 3.34 99.1691 3.284 99.2811 3.284H99.8091C99.9211 3.284 99.9771 3.34 99.9771 3.452V10.832C99.9771 10.944 99.9211 11 99.8091 11H99.3651C99.2771 11 99.1931 10.948 99.1131 10.844L95.8131 5.084H95.7651V10.832C95.7651 10.944 95.7091 11 95.5971 11ZM103.758 11H103.218C103.106 11 103.05 10.944 103.05 10.832V4.16C103.05 4.088 103.01 4.052 102.93 4.052H101.298C101.178 4.052 101.118 3.996 101.118 3.884V3.452C101.118 3.34 101.178 3.284 101.298 3.284H105.678C105.798 3.284 105.858 3.34 105.858 3.452V3.884C105.858 3.996 105.798 4.052 105.678 4.052H104.046C103.966 4.052 103.926 4.088 103.926 4.16V10.832C103.926 10.944 103.87 11 103.758 11Z" fill="#55EAD4"/>
<path d="M61 13H117L126 4" stroke="#55EAD4"/>
<path d="M96 13H40L31 4" stroke="#55EAD4"/>
<path d="M120 13L129 4" stroke="#55EAD4" stroke-opacity="0.9"/>
<path d="M37 13L28 4" stroke="#55EAD4" stroke-opacity="0.9"/>
<path d="M123 13L132 4" stroke="#55EAD4" stroke-opacity="0.8"/>
<path d="M34 13L25 4" stroke="#55EAD4" stroke-opacity="0.8"/>
<path d="M126 13L135 4" stroke="#55EAD4" stroke-opacity="0.7"/>
<path d="M31 13L22 4" stroke="#55EAD4" stroke-opacity="0.7"/>
<path d="M129 13L138 4" stroke="#55EAD4" stroke-opacity="0.6"/>
<path d="M28 13L19 4" stroke="#55EAD4" stroke-opacity="0.6"/>
<path d="M132 13L141 4" stroke="#55EAD4" stroke-opacity="0.5"/>
<path d="M25 13L16 4" stroke="#55EAD4" stroke-opacity="0.5"/>
<path d="M135 13L144 4" stroke="#55EAD4" stroke-opacity="0.4"/>
<path d="M22 13L13 4" stroke="#55EAD4" stroke-opacity="0.4"/>
<path d="M138 13L147 4" stroke="#55EAD4" stroke-opacity="0.3"/>
<path d="M19 13L10 4" stroke="#55EAD4" stroke-opacity="0.3"/>
<path d="M141 13L150 4" stroke="#55EAD4" stroke-opacity="0.2"/>
<path d="M16 13L7 4" stroke="#55EAD4" stroke-opacity="0.2"/>
<path d="M144 13L153 4" stroke="#55EAD4" stroke-opacity="0.1"/>
<path d="M13 13L4 4" stroke="#55EAD4" stroke-opacity="0.1"/>
<path d="M147 13L156 4" stroke="#55EAD4" stroke-opacity="0.05"/>
<path d="M10 13L1 4" stroke="#55EAD4" stroke-opacity="0.05"/>
<path d="M23.3454 30H22.4214C22.3094 30 22.2414 29.944 22.2174 29.832L20.6814 22.452C20.6574 22.34 20.7094 22.284 20.8374 22.284H21.4854C21.6054 22.284 21.6694 22.34 21.6774 22.452L22.8894 29.064H22.9614L24.5814 22.44C24.6054 22.336 24.6694 22.284 24.7734 22.284H25.4934C25.5974 22.284 25.6614 22.336 25.6854 22.44L27.3294 29.064H27.4014L28.6014 22.464C28.6254 22.344 28.6934 22.284 28.8054 22.284H29.4534C29.5814 22.284 29.6334 22.344 29.6094 22.464L28.0614 29.832C28.0374 29.944 27.9734 30 27.8694 30H26.9454C26.8334 30 26.7654 29.944 26.7414 29.832L25.1694 23.388H25.1214L23.5374 29.832C23.5134 29.944 23.4494 30 23.3454 30ZM30.9639 30H30.3639C30.2599 30 30.2239 29.944 30.2559 29.832L32.4999 22.452C32.5319 22.34 32.6079 22.284 32.7279 22.284H33.5919C33.7119 22.284 33.7879 22.34 33.8199 22.452L36.0639 29.832C36.0959 29.944 36.0599 30 35.9559 30H35.3439C35.2559 30 35.1999 29.944 35.1759 29.832L34.6119 28.08H31.7079L31.1439 29.832C31.1119 29.944 31.0519 30 30.9639 30ZM33.1359 23.184L31.8999 27.336H34.4199L33.1839 23.184H33.1359ZM38.2844 22.452V29.832C38.2844 29.944 38.2284 30 38.1164 30H37.5764C37.4644 30 37.4084 29.944 37.4084 29.832V22.452C37.4084 22.34 37.4644 22.284 37.5764 22.284H38.1164C38.2284 22.284 38.2844 22.34 38.2844 22.452ZM42.1269 30H41.5869C41.4749 30 41.4189 29.944 41.4189 29.832V23.16C41.4189 23.088 41.3789 23.052 41.2989 23.052H39.6669C39.5469 23.052 39.4869 22.996 39.4869 22.884V22.452C39.4869 22.34 39.5469 22.284 39.6669 22.284H44.0469C44.1669 22.284 44.2269 22.34 44.2269 22.452V22.884C44.2269 22.996 44.1669 23.052 44.0469 23.052H42.4149C42.3349 23.052 42.2949 23.088 42.2949 23.16V29.832C42.2949 29.944 42.2389 30 42.1269 30ZM46.3 22.452V29.832C46.3 29.944 46.244 30 46.132 30H45.592C45.48 30 45.424 29.944 45.424 29.832V22.452C45.424 22.34 45.48 22.284 45.592 22.284H46.132C46.244 22.284 46.3 22.34 46.3 22.452ZM48.9545 30H48.4265C48.3145 30 48.2585 29.944 48.2585 29.832V22.452C48.2585 22.34 48.3145 22.284 48.4265 22.284H48.9185C49.0145 22.284 49.0785 22.316 49.1105 22.38L52.4225 28.2H52.4705V22.452C52.4705 22.34 52.5265 22.284 52.6385 22.284H53.1665C53.2785 22.284 53.3345 22.34 53.3345 22.452V29.832C53.3345 29.944 53.2785 30 53.1665 30H52.7225C52.6345 30 52.5505 29.948 52.4705 29.844L49.1705 24.084H49.1225V29.832C49.1225 29.944 49.0665 30 48.9545 30ZM58.1832 30H56.8872C56.3352 30 55.8992 29.844 55.5792 29.532C55.2672 29.22 55.1112 28.784 55.1112 28.224V24.06C55.1112 23.5 55.2672 23.064 55.5792 22.752C55.8992 22.44 56.3352 22.284 56.8872 22.284H58.1832C58.7352 22.284 59.1672 22.444 59.4792 22.764C59.7912 23.076 59.9472 23.508 59.9472 24.06V24.552C59.9472 24.672 59.8912 24.732 59.7792 24.732H59.2392C59.1272 24.732 59.0712 24.672 59.0712 24.552V24.096C59.0712 23.4 58.7392 23.052 58.0752 23.052H56.9832C56.3192 23.052 55.9872 23.4 55.9872 24.096V28.188C55.9872 28.884 56.3192 29.232 56.9832 29.232H58.0752C58.7392 29.232 59.0712 28.884 59.0712 28.188V26.844C59.0712 26.764 59.0352 26.724 58.9632 26.724H57.7752C57.6632 26.724 57.6072 26.672 57.6072 26.568V26.124C57.6072 26.012 57.6632 25.956 57.7752 25.956H59.7072C59.8672 25.956 59.9472 26.04 59.9472 26.208V28.224C59.9472 28.784 59.7912 29.22 59.4792 29.532C59.1672 29.844 58.7352 30 58.1832 30ZM65.4783 30H64.9383C64.8263 30 64.7703 29.944 64.7703 29.832V22.452C64.7703 22.34 64.8263 22.284 64.9383 22.284H68.6703C68.7823 22.284 68.8383 22.34 68.8383 22.452V22.884C68.8383 22.996 68.7823 23.052 68.6703 23.052H65.7663C65.6863 23.052 65.6463 23.088 65.6463 23.16V25.776C65.6463 25.848 65.6863 25.884 65.7663 25.884H68.3343C68.4463 25.884 68.5023 25.94 68.5023 26.052V26.484C68.5023 26.596 68.4463 26.652 68.3343 26.652H65.7663C65.6863 26.652 65.6463 26.692 65.6463 26.772V29.832C65.6463 29.944 65.5903 30 65.4783 30ZM72.0066 29.232H73.2306C73.9026 29.232 74.2386 28.884 74.2386 28.188V24.096C74.2386 23.4 73.9026 23.052 73.2306 23.052H72.0066C71.3426 23.052 71.0106 23.4 71.0106 24.096V28.188C71.0106 28.884 71.3426 29.232 72.0066 29.232ZM73.3386 30H71.9106C71.3586 30 70.9226 29.844 70.6026 29.532C70.2906 29.22 70.1346 28.784 70.1346 28.224V24.06C70.1346 23.5 70.2906 23.064 70.6026 22.752C70.9226 22.44 71.3586 22.284 71.9106 22.284H73.3386C73.8906 22.284 74.3226 22.444 74.6346 22.764C74.9546 23.076 75.1146 23.508 75.1146 24.06V28.224C75.1146 28.776 74.9546 29.212 74.6346 29.532C74.3226 29.844 73.8906 30 73.3386 30ZM77.5955 30H77.0555C76.9435 30 76.8875 29.944 76.8875 29.832V22.452C76.8875 22.34 76.9435 22.284 77.0555 22.284H79.8155C80.3675 22.284 80.8035 22.444 81.1235 22.764C81.4435 23.076 81.6035 23.508 81.6035 24.06V25.152C81.6035 25.6 81.4955 25.972 81.2795 26.268C81.0635 26.556 80.7635 26.748 80.3795 26.844V26.892L81.7715 29.808C81.8435 29.936 81.8035 30 81.6515 30H81.1115C80.9755 30 80.8755 29.944 80.8115 29.832L79.4675 26.928H77.8835C77.8035 26.928 77.7635 26.964 77.7635 27.036V29.832C77.7635 29.944 77.7075 30 77.5955 30ZM77.8835 26.196H79.6955C80.3835 26.196 80.7275 25.852 80.7275 25.164V24.096C80.7275 23.4 80.3835 23.052 79.6955 23.052H77.8835C77.8035 23.052 77.7635 23.088 77.7635 23.16V26.088C77.7635 26.16 77.8035 26.196 77.8835 26.196ZM87.0876 30H86.5476C86.4356 30 86.3796 29.944 86.3796 29.832V22.452C86.3796 22.34 86.4356 22.284 86.5476 22.284H89.3076C89.8596 22.284 90.2956 22.444 90.6156 22.764C90.9356 23.076 91.0956 23.508 91.0956 24.06V25.152C91.0956 25.6 90.9876 25.972 90.7716 26.268C90.5556 26.556 90.2556 26.748 89.8716 26.844V26.892L91.2636 29.808C91.3356 29.936 91.2956 30 91.1436 30H90.6036C90.4676 30 90.3676 29.944 90.3036 29.832L88.9596 26.928H87.3756C87.2956 26.928 87.2556 26.964 87.2556 27.036V29.832C87.2556 29.944 87.1996 30 87.0876 30ZM87.3756 26.196H89.1876C89.8756 26.196 90.2196 25.852 90.2196 25.164V24.096C90.2196 23.4 89.8756 23.052 89.1876 23.052H87.3756C87.2956 23.052 87.2556 23.088 87.2556 23.16V26.088C87.2556 26.16 87.2956 26.196 87.3756 26.196ZM96.761 30H92.993C92.881 30 92.825 29.944 92.825 29.832V22.452C92.825 22.34 92.881 22.284 92.993 22.284H96.761C96.873 22.284 96.929 22.34 96.929 22.452V22.884C96.929 22.996 96.873 23.052 96.761 23.052H93.821C93.741 23.052 93.701 23.088 93.701 23.16V25.584C93.701 25.656 93.741 25.692 93.821 25.692H96.389C96.501 25.692 96.557 25.748 96.557 25.86V26.292C96.557 26.404 96.501 26.46 96.389 26.46H93.821C93.741 26.46 93.701 26.496 93.701 26.568V29.124C93.701 29.196 93.741 29.232 93.821 29.232H96.761C96.873 29.232 96.929 29.288 96.929 29.4V29.832C96.929 29.944 96.873 30 96.761 30ZM98.5066 28.224V27.84C98.5066 27.728 98.5626 27.672 98.6746 27.672H99.2146C99.3266 27.672 99.3826 27.728 99.3826 27.84V28.152C99.3826 28.872 99.7386 29.232 100.451 29.232H101.507C102.219 29.232 102.575 28.864 102.575 28.128V27.72C102.575 27.144 102.099 26.768 101.147 26.592C100.747 26.52 100.347 26.436 99.9466 26.34C99.5466 26.244 99.2066 26.06 98.9266 25.788C98.6466 25.508 98.5066 25.128 98.5066 24.648V24.06C98.5066 23.508 98.6626 23.076 98.9746 22.764C99.2946 22.444 99.7306 22.284 100.283 22.284H101.615C102.159 22.284 102.591 22.444 102.911 22.764C103.231 23.076 103.391 23.508 103.391 24.06V24.36C103.391 24.48 103.339 24.54 103.235 24.54H102.683C102.579 24.54 102.527 24.48 102.527 24.36V24.144C102.527 23.416 102.171 23.052 101.459 23.052H100.439C99.7266 23.052 99.3706 23.432 99.3706 24.192V24.672C99.3706 25.08 99.6386 25.36 100.175 25.512C100.415 25.576 100.679 25.636 100.967 25.692C101.255 25.74 101.543 25.808 101.831 25.896C102.127 25.976 102.395 26.08 102.635 26.208C102.875 26.328 103.067 26.516 103.211 26.772C103.363 27.02 103.439 27.324 103.439 27.684V28.224C103.439 28.776 103.279 29.212 102.959 29.532C102.639 29.844 102.207 30 101.663 30H100.283C99.7386 30 99.3066 29.844 98.9866 29.532C98.6666 29.212 98.5066 28.776 98.5066 28.224ZM105.955 30H105.415C105.303 30 105.247 29.944 105.247 29.832V22.452C105.247 22.34 105.303 22.284 105.415 22.284H108.223C108.775 22.284 109.207 22.444 109.519 22.764C109.831 23.076 109.987 23.508 109.987 24.06V25.392C109.987 25.952 109.831 26.388 109.519 26.7C109.207 27.012 108.775 27.168 108.223 27.168H106.243C106.163 27.168 106.123 27.204 106.123 27.276V29.832C106.123 29.944 106.067 30 105.955 30ZM106.243 26.388H108.103C108.775 26.388 109.111 26.044 109.111 25.356V24.096C109.111 23.4 108.775 23.052 108.103 23.052H106.243C106.163 23.052 106.123 23.088 106.123 23.16V26.28C106.123 26.352 106.163 26.388 106.243 26.388ZM113.315 29.232H114.539C115.211 29.232 115.547 28.884 115.547 28.188V24.096C115.547 23.4 115.211 23.052 114.539 23.052H113.315C112.651 23.052 112.319 23.4 112.319 24.096V28.188C112.319 28.884 112.651 29.232 113.315 29.232ZM114.647 30H113.219C112.667 30 112.231 29.844 111.911 29.532C111.599 29.22 111.443 28.784 111.443 28.224V24.06C111.443 23.5 111.599 23.064 111.911 22.752C112.231 22.44 112.667 22.284 113.219 22.284H114.647C115.199 22.284 115.631 22.444 115.943 22.764C116.263 23.076 116.423 23.508 116.423 24.06V28.224C116.423 28.776 116.263 29.212 115.943 29.532C115.631 29.844 115.199 30 114.647 30ZM118.892 30H118.364C118.252 30 118.196 29.944 118.196 29.832V22.452C118.196 22.34 118.252 22.284 118.364 22.284H118.856C118.952 22.284 119.016 22.316 119.048 22.38L122.36 28.2H122.408V22.452C122.408 22.34 122.464 22.284 122.576 22.284H123.104C123.216 22.284 123.272 22.34 123.272 22.452V29.832C123.272 29.944 123.216 30 123.104 30H122.66C122.572 30 122.488 29.948 122.408 29.844L119.108 24.084H119.06V29.832C119.06 29.944 119.004 30 118.892 30ZM125.085 28.224V27.84C125.085 27.728 125.141 27.672 125.253 27.672H125.793C125.905 27.672 125.961 27.728 125.961 27.84V28.152C125.961 28.872 126.317 29.232 127.029 29.232H128.085C128.797 29.232 129.153 28.864 129.153 28.128V27.72C129.153 27.144 128.677 26.768 127.725 26.592C127.325 26.52 126.925 26.436 126.525 26.34C126.125 26.244 125.785 26.06 125.505 25.788C125.225 25.508 125.085 25.128 125.085 24.648V24.06C125.085 23.508 125.241 23.076 125.553 22.764C125.873 22.444 126.309 22.284 126.861 22.284H128.193C128.737 22.284 129.169 22.444 129.489 22.764C129.809 23.076 129.969 23.508 129.969 24.06V24.36C129.969 24.48 129.917 24.54 129.813 24.54H129.261C129.157 24.54 129.105 24.48 129.105 24.36V24.144C129.105 23.416 128.749 23.052 128.037 23.052H127.017C126.305 23.052 125.949 23.432 125.949 24.192V24.672C125.949 25.08 126.217 25.36 126.753 25.512C126.993 25.576 127.257 25.636 127.545 25.692C127.833 25.74 128.121 25.808 128.409 25.896C128.705 25.976 128.973 26.08 129.213 26.208C129.453 26.328 129.645 26.516 129.789 26.772C129.941 27.02 130.017 27.324 130.017 27.684V28.224C130.017 28.776 129.857 29.212 129.537 29.532C129.217 29.844 128.785 30 128.241 30H126.861C126.317 30 125.885 29.844 125.565 29.532C125.245 29.212 125.085 28.776 125.085 28.224ZM135.761 30H131.993C131.881 30 131.825 29.944 131.825 29.832V22.452C131.825 22.34 131.881 22.284 131.993 22.284H135.761C135.873 22.284 135.929 22.34 135.929 22.452V22.884C135.929 22.996 135.873 23.052 135.761 23.052H132.821C132.741 23.052 132.701 23.088 132.701 23.16V25.584C132.701 25.656 132.741 25.692 132.821 25.692H135.389C135.501 25.692 135.557 25.748 135.557 25.86V26.292C135.557 26.404 135.501 26.46 135.389 26.46H132.821C132.741 26.46 132.701 26.496 132.701 26.568V29.124C132.701 29.196 132.741 29.232 132.821 29.232H135.761C135.873 29.232 135.929 29.288 135.929 29.4V29.832C135.929 29.944 135.873 30 135.761 30Z" fill="#55EAD4"/>
<path d="M22.656 49H22.116C22.004 49 21.948 48.944 21.948 48.832V41.452C21.948 41.34 22.004 41.284 22.116 41.284H24.876C25.428 41.284 25.864 41.444 26.184 41.764C26.504 42.076 26.664 42.508 26.664 43.06V44.152C26.664 44.6 26.556 44.972 26.34 45.268C26.124 45.556 25.824 45.748 25.44 45.844V45.892L26.832 48.808C26.904 48.936 26.864 49 26.712 49H26.172C26.036 49 25.936 48.944 25.872 48.832L24.528 45.928H22.944C22.864 45.928 22.824 45.964 22.824 46.036V48.832C22.824 48.944 22.768 49 22.656 49ZM22.944 45.196H24.756C25.444 45.196 25.788 44.852 25.788 44.164V43.096C25.788 42.4 25.444 42.052 24.756 42.052H22.944C22.864 42.052 22.824 42.088 22.824 42.16V45.088C22.824 45.16 22.864 45.196 22.944 45.196ZM32.4733 49H29.9293C29.3773 49 28.9413 48.844 28.6213 48.532C28.3093 48.22 28.1533 47.784 28.1533 47.224V44.656C28.1533 44.096 28.3093 43.66 28.6213 43.348C28.9413 43.036 29.3773 42.88 29.9293 42.88H30.9373C31.4893 42.88 31.9213 43.036 32.2333 43.348C32.5453 43.66 32.7013 44.096 32.7013 44.656V46.18C32.7013 46.3 32.6453 46.36 32.5333 46.36H29.1373C29.0573 46.36 29.0173 46.396 29.0173 46.468V47.2C29.0173 47.896 29.3533 48.244 30.0253 48.244H32.4733C32.5853 48.244 32.6413 48.3 32.6413 48.412V48.844C32.6413 48.948 32.5853 49 32.4733 49ZM29.1373 45.724H31.7293C31.8093 45.724 31.8493 45.684 31.8493 45.604V44.68C31.8493 43.992 31.5133 43.648 30.8413 43.648H30.0253C29.3533 43.648 29.0173 43.992 29.0173 44.68V45.604C29.0173 45.684 29.0573 45.724 29.1373 45.724ZM37.7436 48.4V48.844C37.7436 48.948 37.6876 49 37.5756 49H35.8356C35.2836 49 34.8476 48.844 34.5276 48.532C34.2156 48.22 34.0596 47.784 34.0596 47.224V44.656C34.0596 44.096 34.2156 43.66 34.5276 43.348C34.8476 43.036 35.2836 42.88 35.8356 42.88H37.5756C37.6876 42.88 37.7436 42.936 37.7436 43.048V43.492C37.7436 43.596 37.6876 43.648 37.5756 43.648H35.9316C35.2676 43.648 34.9356 43.996 34.9356 44.692V47.188C34.9356 47.884 35.2676 48.232 35.9316 48.232H37.5756C37.6876 48.232 37.7436 48.288 37.7436 48.4ZM43.1725 49H40.6285C40.0765 49 39.6405 48.844 39.3205 48.532C39.0085 48.22 38.8525 47.784 38.8525 47.224V44.656C38.8525 44.096 39.0085 43.66 39.3205 43.348C39.6405 43.036 40.0765 42.88 40.6285 42.88H41.6365C42.1885 42.88 42.6205 43.036 42.9325 43.348C43.2445 43.66 43.4005 44.096 43.4005 44.656V46.18C43.4005 46.3 43.3445 46.36 43.2325 46.36H39.8365C39.7565 46.36 39.7165 46.396 39.7165 46.468V47.2C39.7165 47.896 40.0525 48.244 40.7245 48.244H43.1725C43.2845 48.244 43.3405 48.3 43.3405 48.412V48.844C43.3405 48.948 43.2845 49 43.1725 49ZM39.8365 45.724H42.4285C42.5085 45.724 42.5485 45.684 42.5485 45.604V44.68C42.5485 43.992 42.2125 43.648 41.5405 43.648H40.7245C40.0525 43.648 39.7165 43.992 39.7165 44.68V45.604C39.7165 45.684 39.7565 45.724 39.8365 45.724ZM44.9388 41.872V40.744C44.9388 40.632 44.9908 40.576 45.0948 40.576H45.6468C45.7588 40.576 45.8148 40.632 45.8148 40.744V41.872C45.8148 41.984 45.7588 42.04 45.6468 42.04H45.0948C44.9908 42.04 44.9388 41.984 44.9388 41.872ZM44.9388 48.832V43.048C44.9388 42.936 44.9908 42.88 45.0948 42.88H45.6468C45.7588 42.88 45.8148 42.936 45.8148 43.048V48.832C45.8148 48.944 45.7588 49 45.6468 49H45.1068C44.9948 49 44.9388 48.944 44.9388 48.832ZM47.0592 42.88H47.6232C47.7272 42.88 47.7912 42.936 47.8152 43.048L49.2552 48.124H49.3152L50.7432 43.048C50.7752 42.936 50.8432 42.88 50.9472 42.88H51.5112C51.6232 42.88 51.6632 42.936 51.6312 43.048L49.9032 48.82C49.8792 48.94 49.8072 49 49.6872 49H48.8712C48.7592 49 48.6872 48.94 48.6552 48.82L46.9392 43.048C46.9072 42.936 46.9472 42.88 47.0592 42.88ZM52.7552 41.872V40.744C52.7552 40.632 52.8072 40.576 52.9112 40.576H53.4632C53.5752 40.576 53.6312 40.632 53.6312 40.744V41.872C53.6312 41.984 53.5752 42.04 53.4632 42.04H52.9112C52.8072 42.04 52.7552 41.984 52.7552 41.872ZM52.7552 48.832V43.048C52.7552 42.936 52.8072 42.88 52.9112 42.88H53.4632C53.5752 42.88 53.6312 42.936 53.6312 43.048V48.832C53.6312 48.944 53.5752 49 53.4632 49H52.9232C52.8112 49 52.7552 48.944 52.7552 48.832ZM56.0516 49H55.5116C55.3996 49 55.3436 48.944 55.3436 48.832V43.048C55.3436 42.936 55.3996 42.88 55.5116 42.88H56.0516C56.1636 42.88 56.2196 42.936 56.2196 43.048V43.516H56.2676C56.4676 43.092 56.8756 42.88 57.4916 42.88H58.1636C58.7076 42.88 59.1316 43.036 59.4356 43.348C59.7396 43.66 59.8916 44.096 59.8916 44.656V48.832C59.8916 48.944 59.8356 49 59.7236 49H59.1836C59.0716 49 59.0156 48.944 59.0156 48.832V44.692C59.0156 43.996 58.6796 43.648 58.0076 43.648H57.3356C56.9756 43.648 56.6996 43.744 56.5076 43.936C56.3156 44.128 56.2196 44.4 56.2196 44.752V48.832C56.2196 48.944 56.1636 49 56.0516 49ZM63.8003 48.676H63.1283C62.5843 48.676 62.1603 48.52 61.8563 48.208C61.5523 47.896 61.4003 47.46 61.4003 46.9V44.656C61.4003 44.096 61.5563 43.66 61.8683 43.348C62.1883 43.036 62.6243 42.88 63.1763 42.88H65.7803C65.8923 42.88 65.9483 42.936 65.9483 43.048V49C65.9483 49.552 65.7883 49.984 65.4683 50.296C65.1563 50.616 64.7243 50.776 64.1723 50.776H61.9643C61.8443 50.776 61.7843 50.72 61.7843 50.608V50.164C61.7843 50.052 61.8443 49.996 61.9643 49.996H64.0643C64.7363 49.996 65.0723 49.652 65.0723 48.964V48.04H65.0243C64.8163 48.464 64.4083 48.676 63.8003 48.676ZM65.0723 46.804V43.756C65.0723 43.684 65.0323 43.648 64.9523 43.648H63.2843C62.6123 43.648 62.2763 43.996 62.2763 44.692V46.864C62.2763 47.56 62.6123 47.908 63.2843 47.908H63.9563C64.3163 47.908 64.5923 47.812 64.7843 47.62C64.9763 47.428 65.0723 47.156 65.0723 46.804ZM70.8763 43.648H70.2163C70.1043 43.648 70.0483 43.596 70.0483 43.492V43.048C70.0483 42.936 70.1043 42.88 70.2163 42.88H70.8763C70.9563 42.88 70.9963 42.844 70.9963 42.772V41.74C70.9963 41.628 71.0523 41.572 71.1643 41.572H71.7043C71.8083 41.572 71.8603 41.628 71.8603 41.74V42.772C71.8603 42.844 71.9043 42.88 71.9923 42.88H73.2643C73.3843 42.88 73.4443 42.936 73.4443 43.048V43.492C73.4443 43.596 73.3843 43.648 73.2643 43.648H71.9923C71.9043 43.648 71.8603 43.684 71.8603 43.756V47.212C71.8603 47.892 72.2123 48.232 72.9163 48.232H73.3843C73.5043 48.232 73.5643 48.288 73.5643 48.4V48.844C73.5643 48.948 73.5043 49 73.3843 49H72.8083C72.2563 49 71.8163 48.848 71.4883 48.544C71.1603 48.232 70.9963 47.8 70.9963 47.248V43.756C70.9963 43.684 70.9563 43.648 70.8763 43.648ZM75.5399 49H74.9999C74.8879 49 74.8319 48.944 74.8319 48.832V40.732C74.8319 40.62 74.8879 40.564 74.9999 40.564H75.5399C75.6519 40.564 75.7079 40.62 75.7079 40.732V43.516H75.7559C75.9559 43.092 76.3639 42.88 76.9799 42.88H77.6519C78.1959 42.88 78.6199 43.036 78.9239 43.348C79.2279 43.66 79.3799 44.096 79.3799 44.656V48.832C79.3799 48.944 79.3239 49 79.2119 49H78.6719C78.5599 49 78.5039 48.944 78.5039 48.832V44.692C78.5039 43.996 78.1679 43.648 77.4959 43.648H76.8239C76.4639 43.648 76.1879 43.744 75.9959 43.936C75.8039 44.128 75.7079 44.4 75.7079 44.752V48.832C75.7079 48.944 75.6519 49 75.5399 49ZM85.1725 49H82.6285C82.0765 49 81.6405 48.844 81.3205 48.532C81.0085 48.22 80.8525 47.784 80.8525 47.224V44.656C80.8525 44.096 81.0085 43.66 81.3205 43.348C81.6405 43.036 82.0765 42.88 82.6285 42.88H83.6365C84.1885 42.88 84.6205 43.036 84.9325 43.348C85.2445 43.66 85.4005 44.096 85.4005 44.656V46.18C85.4005 46.3 85.3445 46.36 85.2325 46.36H81.8365C81.7565 46.36 81.7165 46.396 81.7165 46.468V47.2C81.7165 47.896 82.0525 48.244 82.7245 48.244H85.1725C85.2845 48.244 85.3405 48.3 85.3405 48.412V48.844C85.3405 48.948 85.2845 49 85.1725 49ZM81.8365 45.724H84.4285C84.5085 45.724 84.5485 45.684 84.5485 45.604V44.68C84.5485 43.992 84.2125 43.648 83.5405 43.648H82.7245C82.0525 43.648 81.7165 43.992 81.7165 44.68V45.604C81.7165 45.684 81.7565 45.724 81.8365 45.724ZM89.9857 41.872V40.744C89.9857 40.632 90.0377 40.576 90.1417 40.576H90.6937C90.8057 40.576 90.8617 40.632 90.8617 40.744V41.872C90.8617 41.984 90.8057 42.04 90.6937 42.04H90.1417C90.0377 42.04 89.9857 41.984 89.9857 41.872ZM89.9857 48.832V43.048C89.9857 42.936 90.0377 42.88 90.1417 42.88H90.6937C90.8057 42.88 90.8617 42.936 90.8617 43.048V48.832C90.8617 48.944 90.8057 49 90.6937 49H90.1537C90.0417 49 89.9857 48.944 89.9857 48.832ZM92.8021 43.648H92.1421C92.0301 43.648 91.9741 43.596 91.9741 43.492V43.048C91.9741 42.936 92.0301 42.88 92.1421 42.88H92.8021C92.8821 42.88 92.9221 42.844 92.9221 42.772V41.74C92.9221 41.628 92.9781 41.572 93.0901 41.572H93.6301C93.7341 41.572 93.7861 41.628 93.7861 41.74V42.772C93.7861 42.844 93.8301 42.88 93.9181 42.88H95.1901C95.3101 42.88 95.3701 42.936 95.3701 43.048V43.492C95.3701 43.596 95.3101 43.648 95.1901 43.648H93.9181C93.8301 43.648 93.7861 43.684 93.7861 43.756V47.212C93.7861 47.892 94.1381 48.232 94.8421 48.232H95.3101C95.4301 48.232 95.4901 48.288 95.4901 48.4V48.844C95.4901 48.948 95.4301 49 95.3101 49H94.7341C94.1821 49 93.7421 48.848 93.4141 48.544C93.0861 48.232 92.9221 47.8 92.9221 47.248V43.756C92.9221 43.684 92.8821 43.648 92.8021 43.648ZM100.958 49H98.4137C97.8617 49 97.4257 48.844 97.1057 48.532C96.7937 48.22 96.6377 47.784 96.6377 47.224V44.656C96.6377 44.096 96.7937 43.66 97.1057 43.348C97.4257 43.036 97.8617 42.88 98.4137 42.88H99.4217C99.9737 42.88 100.406 43.036 100.718 43.348C101.03 43.66 101.186 44.096 101.186 44.656V46.18C101.186 46.3 101.13 46.36 101.018 46.36H97.6217C97.5417 46.36 97.5017 46.396 97.5017 46.468V47.2C97.5017 47.896 97.8377 48.244 98.5097 48.244H100.958C101.07 48.244 101.126 48.3 101.126 48.412V48.844C101.126 48.948 101.07 49 100.958 49ZM97.6217 45.724H100.214C100.294 45.724 100.334 45.684 100.334 45.604V44.68C100.334 43.992 99.9977 43.648 99.3257 43.648H98.5097C97.8377 43.648 97.5017 43.992 97.5017 44.68V45.604C97.5017 45.684 97.5417 45.724 97.6217 45.724ZM103.372 49H102.832C102.72 49 102.664 48.944 102.664 48.832V43.048C102.664 42.936 102.72 42.88 102.832 42.88H103.372C103.484 42.88 103.54 42.936 103.54 43.048V43.516H103.588C103.812 43.092 104.236 42.88 104.86 42.88H105.304C106.008 42.88 106.496 43.152 106.768 43.696C106.896 43.432 107.096 43.232 107.368 43.096C107.648 42.952 107.94 42.88 108.244 42.88H108.664C109.208 42.88 109.632 43.036 109.936 43.348C110.24 43.66 110.392 44.096 110.392 44.656V48.832C110.392 48.944 110.336 49 110.224 49H109.684C109.572 49 109.516 48.944 109.516 48.832V44.692C109.516 43.996 109.18 43.648 108.508 43.648H108.112C107.752 43.648 107.472 43.752 107.272 43.96C107.08 44.16 106.984 44.436 106.984 44.788V48.832C106.984 48.944 106.928 49 106.816 49H106.276C106.164 49 106.108 48.944 106.108 48.832V44.692C106.108 43.996 105.772 43.648 105.1 43.648H104.656C104.296 43.648 104.02 43.744 103.828 43.936C103.636 44.128 103.54 44.4 103.54 44.752V48.832C103.54 48.944 103.484 49 103.372 49ZM112.796 43.036V44.488C112.796 44.6 112.744 44.656 112.64 44.656H112.028C111.924 44.656 111.872 44.596 111.872 44.476V43.048C111.872 42.936 111.924 42.88 112.028 42.88H112.64C112.744 42.88 112.796 42.932 112.796 43.036ZM112.796 47.38V48.832C112.796 48.944 112.744 49 112.64 49H112.028C111.924 49 111.872 48.94 111.872 48.82V47.38C111.872 47.276 111.924 47.224 112.028 47.224H112.64C112.744 47.224 112.796 47.276 112.796 47.38ZM119.171 48.232H120.227C120.899 48.232 121.235 47.896 121.235 47.224V46.504C121.235 45.816 120.899 45.472 120.227 45.472H119.171C118.499 45.472 118.163 45.816 118.163 46.504V47.224C118.163 47.896 118.499 48.232 119.171 48.232ZM119.171 44.764H120.227C120.899 44.764 121.235 44.416 121.235 43.72V43.06C121.235 42.388 120.899 42.052 120.227 42.052H119.171C118.499 42.052 118.163 42.388 118.163 43.06V43.72C118.163 44.416 118.499 44.764 119.171 44.764ZM120.335 49H119.063C118.511 49 118.079 48.852 117.767 48.556C117.455 48.252 117.299 47.828 117.299 47.284V46.552C117.299 45.832 117.579 45.352 118.139 45.112C117.579 44.896 117.299 44.416 117.299 43.672V43C117.299 42.448 117.455 42.024 117.767 41.728C118.079 41.432 118.511 41.284 119.063 41.284H120.335C120.887 41.284 121.319 41.432 121.631 41.728C121.943 42.024 122.099 42.448 122.099 43V43.672C122.099 44.04 122.023 44.352 121.871 44.608C121.719 44.856 121.515 45.024 121.259 45.112C121.819 45.344 122.099 45.828 122.099 46.564V47.284C122.099 47.828 121.943 48.252 121.631 48.556C121.319 48.852 120.887 49 120.335 49ZM124.479 49H123.915C123.787 49 123.755 48.932 123.819 48.796L126.423 42.088H123.231C123.119 42.088 123.063 42.032 123.063 41.92V41.452C123.063 41.34 123.119 41.284 123.231 41.284H127.191C127.303 41.284 127.359 41.34 127.359 41.452V41.956C127.359 42.084 127.327 42.212 127.263 42.34L124.755 48.844C124.715 48.948 124.623 49 124.479 49ZM134.254 45.976H134.026C133.722 45.976 133.514 46.04 133.402 46.168C133.29 46.288 133.234 46.504 133.234 46.816V47.596C133.234 47.9 133.29 48.116 133.402 48.244C133.514 48.372 133.722 48.436 134.026 48.436H134.254C134.55 48.436 134.754 48.372 134.866 48.244C134.978 48.116 135.034 47.9 135.034 47.596V46.816C135.034 46.504 134.978 46.288 134.866 46.168C134.754 46.04 134.55 45.976 134.254 45.976ZM133.918 45.412H134.338C135.234 45.412 135.682 45.868 135.682 46.78V47.62C135.682 48.54 135.234 49 134.338 49H133.918C133.022 49 132.574 48.54 132.574 47.62V46.78C132.574 45.868 133.022 45.412 133.918 45.412ZM129.862 41.812H129.634C129.338 41.812 129.134 41.876 129.022 42.004C128.91 42.124 128.854 42.336 128.854 42.64V43.432C128.854 43.744 128.91 43.964 129.022 44.092C129.134 44.212 129.338 44.272 129.634 44.272H129.862C130.158 44.272 130.362 44.208 130.474 44.08C130.586 43.952 130.642 43.736 130.642 43.432V42.64C130.642 42.336 130.586 42.124 130.474 42.004C130.362 41.876 130.158 41.812 129.862 41.812ZM129.538 41.248H129.958C130.854 41.248 131.302 41.704 131.302 42.616V43.456C131.302 44.368 130.854 44.824 129.958 44.824H129.538C128.642 44.824 128.194 44.368 128.194 43.456V42.616C128.194 41.704 128.642 41.248 129.538 41.248ZM130.498 49H130.15C130.022 49 129.986 48.936 130.042 48.808C130.154 48.512 130.67 47.288 131.59 45.136C132.518 42.976 133.038 41.752 133.15 41.464C133.206 41.344 133.278 41.284 133.366 41.284H133.714C133.842 41.284 133.878 41.352 133.822 41.488L130.726 48.82C130.678 48.94 130.602 49 130.498 49Z" fill="#55EAD4" fill-opacity="0.5"/>
</svg>
