<svg width="59" height="13" viewBox="0 0 59 13" fill="none" xmlns="http://www.w3.org/2000/svg">
<path d="M0.236 3V0.12H2.512C2.6 0.12 2.68 0.141333 2.752 0.184C2.82667 0.226667 2.88533 0.285333 2.928 0.36C2.97067 0.432 2.992 0.512 2.992 0.6V1.212C2.992 1.24933 2.98667 1.28667 2.976 1.324C2.968 1.35867 2.956 1.392 2.94 1.424C2.99867 1.512 3.04267 1.588 3.072 1.652C3.10133 1.716 3.116 1.78133 3.116 1.848V2.52C3.116 2.608 3.09467 2.68933 3.052 2.764C3.00933 2.836 2.95067 2.89333 2.876 2.936C2.804 2.97867 2.724 3 2.636 3H0.236ZM0.716 2.676H2.636C2.67867 2.676 2.71467 2.66133 2.744 2.632C2.776 2.6 2.792 2.56267 2.792 2.52V1.848C2.792 1.80533 2.776 1.76933 2.744 1.74C2.71467 1.708 2.67867 1.692 2.636 1.692H0.716C0.673333 1.692 0.636 1.708 0.604 1.74C0.574667 1.76933 0.56 1.80533 0.56 1.848V2.52C0.56 2.56267 0.574667 2.6 0.604 2.632C0.636 2.66133 0.673333 2.676 0.716 2.676ZM0.716 1.368H2.512C2.55467 1.368 2.59067 1.35333 2.62 1.324C2.64933 1.292 2.664 1.25467 2.664 1.212V0.6C2.664 0.557333 2.64933 0.521333 2.62 0.492C2.59067 0.46 2.55467 0.444 2.512 0.444H0.716C0.673333 0.444 0.636 0.46 0.604 0.492C0.574667 0.521333 0.56 0.557333 0.56 0.6V1.212C0.56 1.25467 0.574667 1.292 0.604 1.324C0.636 1.35333 0.673333 1.368 0.716 1.368ZM3.56413 3V0.12H5.84013C5.92813 0.12 6.00813 0.141333 6.08013 0.184C6.15479 0.226667 6.21346 0.285333 6.25613 0.36C6.29879 0.432 6.32013 0.512 6.32013 0.6V1.212C6.32013 1.24933 6.31479 1.28667 6.30413 1.324C6.29613 1.35867 6.28413 1.392 6.26813 1.424C6.32679 1.512 6.37079 1.588 6.40013 1.652C6.42946 1.716 6.44413 1.78133 6.44413 1.848V2.52C6.44413 2.608 6.42279 2.68933 6.38013 2.764C6.33746 2.836 6.27879 2.89333 6.20413 2.936C6.13213 2.97867 6.05213 3 5.96413 3H3.56413ZM4.04413 2.676H5.96413C6.00679 2.676 6.04279 2.66133 6.07213 2.632C6.10413 2.6 6.12013 2.56267 6.12013 2.52V1.848C6.12013 1.80533 6.10413 1.76933 6.07213 1.74C6.04279 1.708 6.00679 1.692 5.96413 1.692H4.04413C4.00146 1.692 3.96413 1.708 3.93213 1.74C3.90279 1.76933 3.88813 1.80533 3.88813 1.848V2.52C3.88813 2.56267 3.90279 2.6 3.93213 2.632C3.96413 2.66133 4.00146 2.676 4.04413 2.676ZM4.04413 1.368H5.84013C5.88279 1.368 5.91879 1.35333 5.94813 1.324C5.97746 1.292 5.99213 1.25467 5.99213 1.212V0.6C5.99213 0.557333 5.97746 0.521333 5.94813 0.492C5.91879 0.46 5.88279 0.444 5.84013 0.444H4.04413C4.00146 0.444 3.96413 0.46 3.93213 0.492C3.90279 0.521333 3.88813 0.557333 3.88813 0.6V1.212C3.88813 1.25467 3.90279 1.292 3.93213 1.324C3.96413 1.35333 4.00146 1.368 4.04413 1.368ZM6.88825 3V0.6C6.88825 0.512 6.90958 0.432 6.95225 0.36C6.99492 0.285333 7.05225 0.226667 7.12425 0.184C7.19892 0.141333 7.28025 0.12 7.36825 0.12H9.28825C9.37625 0.12 9.45625 0.141333 9.52825 0.184C9.60292 0.226667 9.66158 0.285333 9.70425 0.36C9.74692 0.432 9.76825 0.512 9.76825 0.6V3H9.44425V1.948H7.21225V3H6.88825ZM7.21225 1.624H9.44425V0.6C9.44425 0.557333 9.42825 0.521333 9.39625 0.492C9.36692 0.46 9.33092 0.444 9.28825 0.444H7.36825C7.32558 0.444 7.28825 0.46 7.25625 0.492C7.22692 0.521333 7.21225 0.557333 7.21225 0.6V1.624ZM10.228 3V0.12H10.552V1.396H12.852V0.12H13.18V3H12.852V1.724H10.552V3H10.228ZM13.6383 1.98V1.652H15.1983V1.98H13.6383ZM16.1608 3C16.0914 3 16.0248 2.98667 15.9608 2.96C15.8994 2.93067 15.8461 2.892 15.8008 2.844C15.7554 2.79333 15.7221 2.736 15.7008 2.672H18.1008C18.1434 2.672 18.1794 2.65733 18.2088 2.628C18.2408 2.596 18.2568 2.55867 18.2568 2.516V1.936C18.2568 1.89333 18.2408 1.85733 18.2088 1.828C18.1794 1.796 18.1434 1.78 18.1008 1.78H16.1608C16.0701 1.78 15.9874 1.75867 15.9128 1.716C15.8408 1.67067 15.7821 1.612 15.7368 1.54C15.6941 1.46533 15.6728 1.384 15.6728 1.296V0.604C15.6728 0.513333 15.6941 0.432 15.7368 0.36C15.7821 0.285333 15.8408 0.226667 15.9128 0.184C15.9874 0.138667 16.0701 0.116 16.1608 0.116H18.1008C18.1888 0.116 18.2688 0.138667 18.3408 0.184C18.4154 0.226667 18.4741 0.285333 18.5168 0.36C18.5621 0.432 18.5848 0.513333 18.5848 0.604V2.516C18.5848 2.604 18.5621 2.68533 18.5168 2.76C18.4741 2.832 18.4154 2.89067 18.3408 2.936C18.2688 2.97867 18.1888 3 18.1008 3H16.1608ZM16.1608 1.452H18.2568V0.604C18.2568 0.561333 18.2408 0.525333 18.2088 0.496C18.1794 0.464 18.1434 0.448 18.1008 0.448H16.1608C16.1181 0.448 16.0808 0.464 16.0488 0.496C16.0194 0.525333 16.0048 0.561333 16.0048 0.604V1.296C16.0048 1.33867 16.0194 1.376 16.0488 1.408C16.0808 1.43733 16.1181 1.452 16.1608 1.452ZM19.4733 3C19.4039 3 19.3373 2.98667 19.2733 2.96C19.2119 2.93067 19.1586 2.892 19.1133 2.844C19.0679 2.79333 19.0346 2.736 19.0133 2.672H21.4133C21.4559 2.672 21.4919 2.65733 21.5213 2.628C21.5533 2.596 21.5693 2.55867 21.5693 2.516V1.936C21.5693 1.89333 21.5533 1.85733 21.5213 1.828C21.4919 1.796 21.4559 1.78 21.4133 1.78H19.4733C19.3826 1.78 19.2999 1.75867 19.2253 1.716C19.1533 1.67067 19.0946 1.612 19.0493 1.54C19.0066 1.46533 18.9853 1.384 18.9853 1.296V0.604C18.9853 0.513333 19.0066 0.432 19.0493 0.36C19.0946 0.285333 19.1533 0.226667 19.2253 0.184C19.2999 0.138667 19.3826 0.116 19.4733 0.116H21.4133C21.5013 0.116 21.5813 0.138667 21.6533 0.184C21.7279 0.226667 21.7866 0.285333 21.8293 0.36C21.8746 0.432 21.8973 0.513333 21.8973 0.604V2.516C21.8973 2.604 21.8746 2.68533 21.8293 2.76C21.7866 2.832 21.7279 2.89067 21.6533 2.936C21.5813 2.97867 21.5013 3 21.4133 3H19.4733ZM19.4733 1.452H21.5693V0.604C21.5693 0.561333 21.5533 0.525333 21.5213 0.496C21.4919 0.464 21.4559 0.448 21.4133 0.448H19.4733C19.4306 0.448 19.3933 0.464 19.3613 0.496C19.3319 0.525333 19.3173 0.561333 19.3173 0.604V1.296C19.3173 1.33867 19.3319 1.376 19.3613 1.408C19.3933 1.43733 19.4306 1.452 19.4733 1.452ZM22.3218 3V1.92C22.3218 1.82933 22.3431 1.748 22.3858 1.676C22.4284 1.60133 22.4858 1.54267 22.5578 1.5C22.6324 1.45733 22.7151 1.436 22.8058 1.436H24.7458C24.7884 1.436 24.8244 1.42133 24.8538 1.392C24.8858 1.36 24.9018 1.32267 24.9018 1.28V0.604C24.9018 0.561333 24.8858 0.525333 24.8538 0.496C24.8244 0.464 24.7884 0.448 24.7458 0.448H22.8058C22.7631 0.448 22.7258 0.464 22.6938 0.496C22.6644 0.525333 22.6498 0.561333 22.6498 0.604V0.716H22.3218V0.604C22.3218 0.513333 22.3431 0.432 22.3858 0.36C22.4284 0.285333 22.4858 0.226667 22.5578 0.184C22.6324 0.138667 22.7151 0.116 22.8058 0.116H24.7458C24.8338 0.116 24.9138 0.138667 24.9858 0.184C25.0604 0.226667 25.1191 0.285333 25.1618 0.36C25.2071 0.432 25.2298 0.513333 25.2298 0.604V1.28C25.2298 1.368 25.2071 1.44933 25.1618 1.524C25.1191 1.596 25.0604 1.65467 24.9858 1.7C24.9138 1.74267 24.8338 1.764 24.7458 1.764H22.8058C22.7631 1.764 22.7258 1.78 22.6938 1.812C22.6644 1.84133 22.6498 1.87733 22.6498 1.92V2.516C22.6498 2.55867 22.6644 2.596 22.6938 2.628C22.7258 2.65733 22.7631 2.672 22.8058 2.672H25.2298V3H22.3218ZM27.4461 3V2.256H25.4381V1.888L27.4061 0.116H27.7741V1.928H28.2221V2.256H27.7741V3H27.4461ZM25.8581 1.928H27.4461V0.56L25.8581 1.928ZM28.5719 1.98V1.652H30.1319V1.98H28.5719ZM30.6303 3V0.116H30.9543V2.676H33.5103V3H30.6303ZM33.7515 3V0.6C33.7515 0.512 33.7729 0.432 33.8155 0.36C33.8582 0.285333 33.9155 0.226667 33.9875 0.184C34.0622 0.141333 34.1435 0.12 34.2315 0.12H36.1515C36.2395 0.12 36.3195 0.141333 36.3915 0.184C36.4662 0.226667 36.5249 0.285333 36.5675 0.36C36.6102 0.432 36.6315 0.512 36.6315 0.6V3H36.3075V1.948H34.0755V3H33.7515ZM34.0755 1.624H36.3075V0.6C36.3075 0.557333 36.2915 0.521333 36.2595 0.492C36.2302 0.46 36.1942 0.444 36.1515 0.444H34.2315C34.1889 0.444 34.1515 0.46 34.1195 0.492C34.0902 0.521333 34.0755 0.557333 34.0755 0.6V1.624ZM37.5473 3C37.4593 3 37.3779 2.97867 37.3033 2.936C37.2313 2.89333 37.1739 2.836 37.1313 2.764C37.0886 2.68933 37.0673 2.608 37.0673 2.52V2.408H37.3913V2.52C37.3913 2.56267 37.4059 2.6 37.4353 2.632C37.4673 2.66133 37.5046 2.676 37.5473 2.676H39.4673C39.5099 2.676 39.5459 2.66133 39.5753 2.632C39.6073 2.6 39.6233 2.56267 39.6233 2.52V1.876C39.6233 1.83333 39.6073 1.79733 39.5753 1.768C39.5459 1.73867 39.5099 1.724 39.4673 1.724H37.5473C37.4593 1.724 37.3779 1.70267 37.3033 1.66C37.2313 1.61467 37.1739 1.556 37.1313 1.484C37.0886 1.412 37.0673 1.332 37.0673 1.244V0.6C37.0673 0.512 37.0886 0.432 37.1313 0.36C37.1739 0.285333 37.2313 0.226667 37.3033 0.184C37.3779 0.141333 37.4593 0.12 37.5473 0.12H39.4673C39.5553 0.12 39.6353 0.141333 39.7073 0.184C39.7819 0.226667 39.8406 0.285333 39.8833 0.36C39.9259 0.432 39.9473 0.512 39.9473 0.6V0.712H39.6233V0.6C39.6233 0.557333 39.6073 0.521333 39.5753 0.492C39.5459 0.46 39.5099 0.444 39.4673 0.444H37.5473C37.5046 0.444 37.4673 0.46 37.4353 0.492C37.4059 0.521333 37.3913 0.557333 37.3913 0.6V1.244C37.3913 1.28667 37.4059 1.32267 37.4353 1.352C37.4673 1.38133 37.5046 1.396 37.5473 1.396H39.4673C39.5553 1.396 39.6353 1.41867 39.7073 1.464C39.7819 1.50667 39.8406 1.564 39.8833 1.636C39.9259 1.708 39.9473 1.788 39.9473 1.876V2.52C39.9473 2.608 39.9259 2.68933 39.8833 2.764C39.8406 2.836 39.7819 2.89333 39.7073 2.936C39.6353 2.97867 39.5553 3 39.4673 3H37.5473ZM40.3843 3V0.12H42.7843C42.8723 0.12 42.9523 0.141333 43.0243 0.184C43.099 0.226667 43.1577 0.285333 43.2003 0.36C43.243 0.432 43.2643 0.512 43.2643 0.6V2.52C43.2643 2.608 43.243 2.68933 43.2003 2.764C43.1577 2.836 43.099 2.89333 43.0243 2.936C42.9523 2.97867 42.8723 3 42.7843 3H40.3843ZM40.8643 2.676H42.7843C42.827 2.676 42.863 2.66133 42.8923 2.632C42.9243 2.6 42.9403 2.56267 42.9403 2.52V0.6C42.9403 0.557333 42.9243 0.521333 42.8923 0.492C42.863 0.46 42.827 0.444 42.7843 0.444H40.8643C40.8217 0.444 40.7843 0.46 40.7523 0.492C40.723 0.521333 40.7083 0.557333 40.7083 0.6V2.52C40.7083 2.56267 40.723 2.6 40.7523 2.632C40.7843 2.66133 40.8217 2.676 40.8643 2.676ZM43.7243 1.98V1.652H45.2843V1.98H43.7243ZM46.2667 3C46.176 3 46.0934 2.97867 46.0187 2.936C45.9467 2.89067 45.8894 2.832 45.8467 2.76C45.804 2.68533 45.7827 2.604 45.7827 2.516V0.608C45.7827 0.517333 45.804 0.436 45.8467 0.364C45.8894 0.289333 45.9467 0.230667 46.0187 0.188C46.0934 0.142667 46.176 0.12 46.2667 0.12H48.2067C48.2947 0.12 48.3747 0.142667 48.4467 0.188C48.5214 0.230667 48.58 0.289333 48.6227 0.364C48.668 0.436 48.6907 0.517333 48.6907 0.608V2.516C48.6907 2.604 48.668 2.68533 48.6227 2.76C48.58 2.832 48.5214 2.89067 48.4467 2.936C48.3747 2.97867 48.2947 3 48.2067 3H46.2667ZM46.1507 2.672H48.2067C48.2494 2.672 48.2854 2.65733 48.3147 2.628C48.3467 2.596 48.3627 2.55867 48.3627 2.516V0.848L46.1507 2.672ZM46.1107 2.276L48.3187 0.452H46.2667C46.224 0.452 46.1867 0.468 46.1547 0.5C46.1254 0.529333 46.1107 0.565333 46.1107 0.608V2.276ZM49.5906 3C49.5 3 49.4173 2.97867 49.3426 2.936C49.2706 2.89067 49.212 2.832 49.1666 2.76C49.124 2.68533 49.1026 2.604 49.1026 2.516V2.452H49.4346V2.516C49.4346 2.55867 49.4493 2.596 49.4786 2.628C49.5106 2.65733 49.548 2.672 49.5906 2.672H51.5306C51.5733 2.672 51.6093 2.65733 51.6386 2.628C51.6706 2.596 51.6866 2.55867 51.6866 2.516V1.848C51.6866 1.80533 51.6706 1.76933 51.6386 1.74C51.6093 1.708 51.5733 1.692 51.5306 1.692H49.6546V1.364H51.4026C51.4453 1.364 51.4813 1.34933 51.5106 1.32C51.5426 1.288 51.5586 1.25067 51.5586 1.208V0.604C51.5586 0.561333 51.5426 0.525333 51.5106 0.496C51.4813 0.464 51.4453 0.448 51.4026 0.448H49.5906C49.548 0.448 49.5106 0.464 49.4786 0.496C49.4493 0.525333 49.4346 0.561333 49.4346 0.604V0.708H49.1026V0.604C49.1026 0.513333 49.124 0.432 49.1666 0.36C49.212 0.285333 49.2706 0.226667 49.3426 0.184C49.4173 0.138667 49.5 0.116 49.5906 0.116H51.4026C51.4933 0.116 51.5746 0.138667 51.6466 0.184C51.7213 0.226667 51.78 0.285333 51.8226 0.36C51.8653 0.432 51.8866 0.513333 51.8866 0.604V1.208C51.8866 1.24533 51.8813 1.28267 51.8706 1.32C51.8626 1.35467 51.852 1.38667 51.8386 1.416C51.9053 1.48 51.9506 1.55067 51.9746 1.628C52.0013 1.70533 52.0146 1.77867 52.0146 1.848V2.516C52.0146 2.604 51.992 2.68533 51.9466 2.76C51.904 2.832 51.8453 2.89067 51.7706 2.936C51.6986 2.97867 51.6186 3 51.5306 3H49.5906ZM52.8873 3C52.818 3 52.7513 2.98667 52.6873 2.96C52.626 2.93067 52.5726 2.892 52.5273 2.844C52.482 2.79333 52.4486 2.736 52.4273 2.672H54.8273C54.87 2.672 54.906 2.65733 54.9353 2.628C54.9673 2.596 54.9833 2.55867 54.9833 2.516V1.936C54.9833 1.89333 54.9673 1.85733 54.9353 1.828C54.906 1.796 54.87 1.78 54.8273 1.78H52.8873C52.7966 1.78 52.714 1.75867 52.6393 1.716C52.5673 1.67067 52.5086 1.612 52.4633 1.54C52.4206 1.46533 52.3993 1.384 52.3993 1.296V0.604C52.3993 0.513333 52.4206 0.432 52.4633 0.36C52.5086 0.285333 52.5673 0.226667 52.6393 0.184C52.714 0.138667 52.7966 0.116 52.8873 0.116H54.8273C54.9153 0.116 54.9953 0.138667 55.0673 0.184C55.142 0.226667 55.2006 0.285333 55.2433 0.36C55.2886 0.432 55.3113 0.513333 55.3113 0.604V2.516C55.3113 2.604 55.2886 2.68533 55.2433 2.76C55.2006 2.832 55.142 2.89067 55.0673 2.936C54.9953 2.97867 54.9153 3 54.8273 3H52.8873ZM52.8873 1.452H54.9833V0.604C54.9833 0.561333 54.9673 0.525333 54.9353 0.496C54.906 0.464 54.87 0.448 54.8273 0.448H52.8873C52.8446 0.448 52.8073 0.464 52.7753 0.496C52.746 0.525333 52.7313 0.561333 52.7313 0.604V1.296C52.7313 1.33867 52.746 1.376 52.7753 1.408C52.8073 1.43733 52.8446 1.452 52.8873 1.452ZM57.5398 3V2.256H55.5318V1.888L57.4998 0.116H57.8678V1.928H58.3158V2.256H57.8678V3H57.5398ZM55.9518 1.928H57.5398V0.56L55.9518 1.928ZM0.704 8C0.616 8 0.534667 7.97867 0.46 7.936C0.388 7.89333 0.330667 7.836 0.288 7.764C0.245333 7.68933 0.224 7.608 0.224 7.52V5.6C0.224 5.512 0.245333 5.432 0.288 5.36C0.330667 5.28533 0.388 5.22667 0.46 5.184C0.534667 5.14133 0.616 5.12 0.704 5.12H3.096V5.444H0.704C0.661333 5.444 0.624 5.46 0.592 5.492C0.562667 5.52133 0.548 5.55733 0.548 5.6V7.52C0.548 7.56267 0.562667 7.6 0.592 7.632C0.624 7.66133 0.661333 7.676 0.704 7.676H3.096V8H0.704ZM4.00106 8C3.9104 8 3.82773 7.97867 3.75306 7.936C3.68106 7.89067 3.62373 7.832 3.58106 7.76C3.5384 7.68533 3.51706 7.604 3.51706 7.516V5.608C3.51706 5.51733 3.5384 5.436 3.58106 5.364C3.62373 5.28933 3.68106 5.23067 3.75306 5.188C3.82773 5.14267 3.9104 5.12 4.00106 5.12H5.94106C6.02906 5.12 6.10906 5.14267 6.18106 5.188C6.25573 5.23067 6.3144 5.28933 6.35706 5.364C6.4024 5.436 6.42506 5.51733 6.42506 5.608V7.516C6.42506 7.604 6.4024 7.68533 6.35706 7.76C6.3144 7.832 6.25573 7.89067 6.18106 7.936C6.10906 7.97867 6.02906 8 5.94106 8H4.00106ZM3.88506 7.672H5.94106C5.98373 7.672 6.01973 7.65733 6.04906 7.628C6.08106 7.596 6.09706 7.55867 6.09706 7.516V5.848L3.88506 7.672ZM3.84506 7.276L6.05306 5.452H4.00106C3.9584 5.452 3.92106 5.468 3.88906 5.5C3.85973 5.52933 3.84506 5.56533 3.84506 5.608V7.276ZM6.861 6.98V6.652H8.421V6.98H6.861ZM9.56741 8V5.488L9.12341 6.02H8.69541L9.45141 5.12H9.89941V8H9.56741ZM10.4819 8V6.92C10.4819 6.82933 10.5032 6.748 10.5459 6.676C10.5886 6.60133 10.6459 6.54267 10.7179 6.5C10.7926 6.45733 10.8752 6.436 10.9659 6.436H12.9059C12.9486 6.436 12.9846 6.42133 13.0139 6.392C13.0459 6.36 13.0619 6.32267 13.0619 6.28V5.604C13.0619 5.56133 13.0459 5.52533 13.0139 5.496C12.9846 5.464 12.9486 5.448 12.9059 5.448H10.9659C10.9232 5.448 10.8859 5.464 10.8539 5.496C10.8246 5.52533 10.8099 5.56133 10.8099 5.604V5.716H10.4819V5.604C10.4819 5.51333 10.5032 5.432 10.5459 5.36C10.5886 5.28533 10.6459 5.22667 10.7179 5.184C10.7926 5.13867 10.8752 5.116 10.9659 5.116H12.9059C12.9939 5.116 13.0739 5.13867 13.1459 5.184C13.2206 5.22667 13.2792 5.28533 13.3219 5.36C13.3672 5.432 13.3899 5.51333 13.3899 5.604V6.28C13.3899 6.368 13.3672 6.44933 13.3219 6.524C13.2792 6.596 13.2206 6.65467 13.1459 6.7C13.0739 6.74267 12.9939 6.764 12.9059 6.764H10.9659C10.9232 6.764 10.8859 6.78 10.8539 6.812C10.8246 6.84133 10.8099 6.87733 10.8099 6.92V7.516C10.8099 7.55867 10.8246 7.596 10.8539 7.628C10.8859 7.65733 10.9232 7.672 10.9659 7.672H13.3899V8H10.4819ZM13.8102 6.98V6.652H15.3702V6.98H13.8102ZM15.8726 8V5.12H18.2726C18.3606 5.12 18.4406 5.14133 18.5126 5.184C18.5873 5.22667 18.646 5.28533 18.6886 5.36C18.7313 5.432 18.7526 5.512 18.7526 5.6V7.52C18.7526 7.608 18.7313 7.68933 18.6886 7.764C18.646 7.836 18.5873 7.89333 18.5126 7.936C18.4406 7.97867 18.3606 8 18.2726 8H15.8726ZM16.3526 7.676H18.2726C18.3153 7.676 18.3513 7.66133 18.3806 7.632C18.4126 7.6 18.4286 7.56267 18.4286 7.52V5.6C18.4286 5.55733 18.4126 5.52133 18.3806 5.492C18.3513 5.46 18.3153 5.444 18.2726 5.444H16.3526C16.31 5.444 16.2726 5.46 16.2406 5.492C16.2113 5.52133 16.1966 5.55733 16.1966 5.6V7.52C16.1966 7.56267 16.2113 7.6 16.2406 7.632C16.2726 7.66133 16.31 7.676 16.3526 7.676ZM19.2046 8V6.92C19.2046 6.82933 19.2259 6.748 19.2686 6.676C19.3112 6.60133 19.3686 6.54267 19.4406 6.5C19.5152 6.45733 19.5979 6.436 19.6886 6.436H21.6286C21.6712 6.436 21.7072 6.42133 21.7366 6.392C21.7686 6.36 21.7846 6.32267 21.7846 6.28V5.604C21.7846 5.56133 21.7686 5.52533 21.7366 5.496C21.7072 5.464 21.6712 5.448 21.6286 5.448H19.6886C19.6459 5.448 19.6086 5.464 19.5766 5.496C19.5472 5.52533 19.5326 5.56133 19.5326 5.604V5.716H19.2046V5.604C19.2046 5.51333 19.2259 5.432 19.2686 5.36C19.3112 5.28533 19.3686 5.22667 19.4406 5.184C19.5152 5.13867 19.5979 5.116 19.6886 5.116H21.6286C21.7166 5.116 21.7966 5.13867 21.8686 5.184C21.9432 5.22667 22.0019 5.28533 22.0446 5.36C22.0899 5.432 22.1126 5.51333 22.1126 5.604V6.28C22.1126 6.368 22.0899 6.44933 22.0446 6.524C22.0019 6.596 21.9432 6.65467 21.8686 6.7C21.7966 6.74267 21.7166 6.764 21.6286 6.764H19.6886C19.6459 6.764 19.6086 6.78 19.5766 6.812C19.5472 6.84133 19.5326 6.87733 19.5326 6.92V7.516C19.5326 7.55867 19.5472 7.596 19.5766 7.628C19.6086 7.65733 19.6459 7.672 19.6886 7.672H22.1126V8H19.2046ZM22.5329 6.98V6.652H24.0929V6.98H22.5329ZM24.5913 8V5.12H24.9193V6.396H25.8473L26.9193 5.12H27.3353V5.124L26.1313 6.56L27.3393 7.996V8H26.9193L25.8473 6.724H24.9193V8H24.5913ZM27.6617 8V5.6C27.6617 5.512 27.683 5.432 27.7257 5.36C27.7684 5.28533 27.8257 5.22667 27.8977 5.184C27.9724 5.14133 28.0537 5.12 28.1417 5.12H30.0617C30.1497 5.12 30.2297 5.14133 30.3017 5.184C30.3764 5.22667 30.435 5.28533 30.4777 5.36C30.5204 5.432 30.5417 5.512 30.5417 5.6V8H30.2177V6.948H27.9857V8H27.6617ZM27.9857 6.624H30.2177V5.6C30.2177 5.55733 30.2017 5.52133 30.1697 5.492C30.1404 5.46 30.1044 5.444 30.0617 5.444H28.1417C28.099 5.444 28.0617 5.46 28.0297 5.492C28.0004 5.52133 27.9857 5.55733 27.9857 5.6V6.624ZM31.0094 6.98V6.652H32.5694V6.98H31.0094ZM33.0718 8V5.12H35.4718C35.5598 5.12 35.6398 5.14133 35.7118 5.184C35.7865 5.22667 35.8452 5.28533 35.8878 5.36C35.9305 5.432 35.9518 5.512 35.9518 5.6V7.52C35.9518 7.608 35.9305 7.68933 35.8878 7.764C35.8452 7.836 35.7865 7.89333 35.7118 7.936C35.6398 7.97867 35.5598 8 35.4718 8H33.0718ZM33.5518 7.676H35.4718C35.5145 7.676 35.5505 7.66133 35.5798 7.632C35.6118 7.6 35.6278 7.56267 35.6278 7.52V5.6C35.6278 5.55733 35.6118 5.52133 35.5798 5.492C35.5505 5.46 35.5145 5.444 35.4718 5.444H33.5518C33.5092 5.444 33.4718 5.46 33.4398 5.492C33.4105 5.52133 33.3958 5.55733 33.3958 5.6V7.52C33.3958 7.56267 33.4105 7.6 33.4398 7.632C33.4718 7.66133 33.5092 7.676 33.5518 7.676ZM36.4078 8V5.12H39.0358V5.444H36.7318V6.396H38.5838V6.724H36.7318V7.676H39.0358V8H36.4078ZM39.4743 6.98V6.652H41.0343V6.98H39.4743ZM42.0167 8C41.926 8 41.8434 7.97867 41.7687 7.936C41.6967 7.89067 41.6394 7.832 41.5967 7.76C41.554 7.68533 41.5327 7.604 41.5327 7.516V5.608C41.5327 5.51733 41.554 5.436 41.5967 5.364C41.6394 5.28933 41.6967 5.23067 41.7687 5.188C41.8434 5.14267 41.926 5.12 42.0167 5.12H43.9567C44.0447 5.12 44.1247 5.14267 44.1967 5.188C44.2714 5.23067 44.33 5.28933 44.3727 5.364C44.418 5.436 44.4407 5.51733 44.4407 5.608V7.516C44.4407 7.604 44.418 7.68533 44.3727 7.76C44.33 7.832 44.2714 7.89067 44.1967 7.936C44.1247 7.97867 44.0447 8 43.9567 8H42.0167ZM41.9007 7.672H43.9567C43.9994 7.672 44.0354 7.65733 44.0647 7.628C44.0967 7.596 44.1127 7.55867 44.1127 7.516V5.848L41.9007 7.672ZM41.8607 7.276L44.0687 5.452H42.0167C41.974 5.452 41.9367 5.468 41.9047 5.5C41.8754 5.52933 41.8607 5.56533 41.8607 5.608V7.276ZM45.3326 8C45.2633 8 45.1966 7.98667 45.1326 7.96C45.0713 7.93067 45.018 7.892 44.9726 7.844C44.9273 7.79333 44.894 7.736 44.8726 7.672H47.2726C47.3153 7.672 47.3513 7.65733 47.3806 7.628C47.4126 7.596 47.4286 7.55867 47.4286 7.516V6.936C47.4286 6.89333 47.4126 6.85733 47.3806 6.828C47.3513 6.796 47.3153 6.78 47.2726 6.78H45.3326C45.242 6.78 45.1593 6.75867 45.0846 6.716C45.0126 6.67067 44.954 6.612 44.9086 6.54C44.866 6.46533 44.8446 6.384 44.8446 6.296V5.604C44.8446 5.51333 44.866 5.432 44.9086 5.36C44.954 5.28533 45.0126 5.22667 45.0846 5.184C45.1593 5.13867 45.242 5.116 45.3326 5.116H47.2726C47.3606 5.116 47.4406 5.13867 47.5126 5.184C47.5873 5.22667 47.646 5.28533 47.6886 5.36C47.734 5.432 47.7566 5.51333 47.7566 5.604V7.516C47.7566 7.604 47.734 7.68533 47.6886 7.76C47.646 7.832 47.5873 7.89067 47.5126 7.936C47.4406 7.97867 47.3606 8 47.2726 8H45.3326ZM45.3326 6.452H47.4286V5.604C47.4286 5.56133 47.4126 5.52533 47.3806 5.496C47.3513 5.464 47.3153 5.448 47.2726 5.448H45.3326C45.29 5.448 45.2526 5.464 45.2206 5.496C45.1913 5.52533 45.1766 5.56133 45.1766 5.604V6.296C45.1766 6.33867 45.1913 6.376 45.2206 6.408C45.2526 6.43733 45.29 6.452 45.3326 6.452ZM48.1891 6.98V6.652H49.7491V6.98H48.1891ZM50.2475 8V6.92C50.2475 6.82933 50.2689 6.748 50.3115 6.676C50.3542 6.60133 50.4115 6.54267 50.4835 6.5C50.5582 6.45733 50.6409 6.436 50.7315 6.436H52.6715C52.7142 6.436 52.7502 6.42133 52.7795 6.392C52.8115 6.36 52.8275 6.32267 52.8275 6.28V5.604C52.8275 5.56133 52.8115 5.52533 52.7795 5.496C52.7502 5.464 52.7142 5.448 52.6715 5.448H50.7315C50.6889 5.448 50.6515 5.464 50.6195 5.496C50.5902 5.52533 50.5755 5.56133 50.5755 5.604V5.716H50.2475V5.604C50.2475 5.51333 50.2689 5.432 50.3115 5.36C50.3542 5.28533 50.4115 5.22667 50.4835 5.184C50.5582 5.13867 50.6409 5.116 50.7315 5.116H52.6715C52.7595 5.116 52.8395 5.13867 52.9115 5.184C52.9862 5.22667 53.0449 5.28533 53.0875 5.36C53.1329 5.432 53.1555 5.51333 53.1555 5.604V6.28C53.1555 6.368 53.1329 6.44933 53.0875 6.524C53.0449 6.596 52.9862 6.65467 52.9115 6.7C52.8395 6.74267 52.7595 6.764 52.6715 6.764H50.7315C50.6889 6.764 50.6515 6.78 50.6195 6.812C50.5902 6.84133 50.5755 6.87733 50.5755 6.92V7.516C50.5755 7.55867 50.5902 7.596 50.6195 7.628C50.6515 7.65733 50.6889 7.672 50.7315 7.672H53.1555V8H50.2475ZM54.2158 8V5.488L53.7718 6.02H53.3438L54.0998 5.12H54.5478V8H54.2158ZM0.712 13C0.621333 13 0.538667 12.9787 0.464 12.936C0.392 12.8907 0.334667 12.832 0.292 12.76C0.249333 12.6853 0.228 12.604 0.228 12.516V11.836C0.228 11.7827 0.238667 11.7293 0.26 11.676C0.281333 11.62 0.310667 11.5667 0.348 11.516C0.310667 11.4653 0.281333 11.412 0.26 11.356C0.238667 11.3 0.228 11.2453 0.228 11.192V10.604C0.228 10.5133 0.249333 10.432 0.292 10.36C0.334667 10.2853 0.392 10.2267 0.464 10.184C0.538667 10.1387 0.621333 10.116 0.712 10.116H2.652C2.72667 10.116 2.796 10.136 2.86 10.176C2.92667 10.2133 2.984 10.264 3.032 10.328C3.08267 10.3893 3.11733 10.4547 3.136 10.524V11.192C3.136 11.2987 3.096 11.4067 3.016 11.516C3.096 11.62 3.136 11.7267 3.136 11.836V12.516C3.136 12.604 3.11333 12.6853 3.068 12.76C3.02533 12.832 2.96667 12.8907 2.892 12.936C2.82 12.9787 2.74 13 2.652 13H0.712ZM0.712 12.672H2.652C2.69467 12.672 2.73067 12.6573 2.76 12.628C2.792 12.596 2.808 12.5587 2.808 12.516V11.836C2.808 11.7933 2.792 11.7573 2.76 11.728C2.73067 11.696 2.69467 11.68 2.652 11.68H0.712C0.669333 11.68 0.632 11.696 0.6 11.728C0.570667 11.7573 0.556 11.7933 0.556 11.836V12.516C0.556 12.5587 0.570667 12.596 0.6 12.628C0.632 12.6573 0.669333 12.672 0.712 12.672ZM0.712 11.396H2.652C2.69467 11.396 2.73067 11.3813 2.76 11.352C2.792 11.32 2.808 11.2827 2.808 11.24V10.608C2.808 10.5653 2.792 10.5293 2.76 10.5C2.73067 10.468 2.69467 10.452 2.652 10.452H0.712C0.669333 10.452 0.632 10.468 0.6 10.5C0.570667 10.5293 0.556 10.5653 0.556 10.608V11.24C0.556 11.2827 0.570667 11.32 0.6 11.352C0.632 11.3813 0.669333 11.396 0.712 11.396ZM4.03594 13C3.94527 13 3.8626 12.9787 3.78794 12.936C3.71594 12.8907 3.65727 12.832 3.61194 12.76C3.56927 12.6853 3.54794 12.604 3.54794 12.516V12.452H3.87994V12.516C3.87994 12.5587 3.8946 12.596 3.92394 12.628C3.95594 12.6573 3.99327 12.672 4.03594 12.672H5.97594C6.0186 12.672 6.0546 12.6573 6.08394 12.628C6.11594 12.596 6.13194 12.5587 6.13194 12.516V11.848C6.13194 11.8053 6.11594 11.7693 6.08394 11.74C6.0546 11.708 6.0186 11.692 5.97594 11.692H4.09994V11.364H5.84794C5.8906 11.364 5.9266 11.3493 5.95594 11.32C5.98794 11.288 6.00394 11.2507 6.00394 11.208V10.604C6.00394 10.5613 5.98794 10.5253 5.95594 10.496C5.9266 10.464 5.8906 10.448 5.84794 10.448H4.03594C3.99327 10.448 3.95594 10.464 3.92394 10.496C3.8946 10.5253 3.87994 10.5613 3.87994 10.604V10.708H3.54794V10.604C3.54794 10.5133 3.56927 10.432 3.61194 10.36C3.65727 10.2853 3.71594 10.2267 3.78794 10.184C3.8626 10.1387 3.94527 10.116 4.03594 10.116H5.84794C5.9386 10.116 6.01994 10.1387 6.09194 10.184C6.1666 10.2267 6.22527 10.2853 6.26794 10.36C6.3106 10.432 6.33194 10.5133 6.33194 10.604V11.208C6.33194 11.2453 6.3266 11.2827 6.31594 11.32C6.30794 11.3547 6.29727 11.3867 6.28394 11.416C6.3506 11.48 6.39594 11.5507 6.41994 11.628C6.4466 11.7053 6.45994 11.7787 6.45994 11.848V12.516C6.45994 12.604 6.43727 12.6853 6.39194 12.76C6.34927 12.832 6.2906 12.8907 6.21594 12.936C6.14394 12.9787 6.06394 13 5.97594 13H4.03594ZM6.86863 13V11.92C6.86863 11.8293 6.88996 11.748 6.93263 11.676C6.97529 11.6013 7.03263 11.5427 7.10463 11.5C7.17929 11.4573 7.26196 11.436 7.35263 11.436H9.29263C9.33529 11.436 9.37129 11.4213 9.40063 11.392C9.43263 11.36 9.44863 11.3227 9.44863 11.28V10.604C9.44863 10.5613 9.43263 10.5253 9.40063 10.496C9.37129 10.464 9.33529 10.448 9.29263 10.448H7.35263C7.30996 10.448 7.27263 10.464 7.24063 10.496C7.21129 10.5253 7.19663 10.5613 7.19663 10.604V10.716H6.86863V10.604C6.86863 10.5133 6.88996 10.432 6.93263 10.36C6.97529 10.2853 7.03263 10.2267 7.10463 10.184C7.17929 10.1387 7.26196 10.116 7.35263 10.116H9.29263C9.38063 10.116 9.46063 10.1387 9.53263 10.184C9.60729 10.2267 9.66596 10.2853 9.70863 10.36C9.75396 10.432 9.77663 10.5133 9.77663 10.604V11.28C9.77663 11.368 9.75396 11.4493 9.70863 11.524C9.66596 11.596 9.60729 11.6547 9.53263 11.7C9.46063 11.7427 9.38063 11.764 9.29263 11.764H7.35263C7.30996 11.764 7.27263 11.78 7.24063 11.812C7.21129 11.8413 7.19663 11.8773 7.19663 11.92V12.516C7.19663 12.5587 7.21129 12.596 7.24063 12.628C7.27263 12.6573 7.30996 12.672 7.35263 12.672H9.77663V13H6.86863ZM11.9929 13V12.256H9.98494V11.888L11.9529 10.116H12.3209V11.928H12.7689V12.256H12.3209V13H11.9929ZM10.4049 11.928H11.9929V10.56L10.4049 11.928ZM13.0988 10.976V10.648H13.4268V10.976H13.0988ZM13.0988 13V12.672H13.4268V13H13.0988ZM13.9663 13V11.92C13.9663 11.8293 13.9876 11.748 14.0303 11.676C14.0729 11.6013 14.1303 11.5427 14.2023 11.5C14.2769 11.4573 14.3596 11.436 14.4503 11.436H16.3903C16.4329 11.436 16.4689 11.4213 16.4983 11.392C16.5303 11.36 16.5463 11.3227 16.5463 11.28V10.604C16.5463 10.5613 16.5303 10.5253 16.4983 10.496C16.4689 10.464 16.4329 10.448 16.3903 10.448H14.4503C14.4076 10.448 14.3703 10.464 14.3383 10.496C14.3089 10.5253 14.2943 10.5613 14.2943 10.604V10.716H13.9663V10.604C13.9663 10.5133 13.9876 10.432 14.0303 10.36C14.0729 10.2853 14.1303 10.2267 14.2023 10.184C14.2769 10.1387 14.3596 10.116 14.4503 10.116H16.3903C16.4783 10.116 16.5583 10.1387 16.6303 10.184C16.7049 10.2267 16.7636 10.2853 16.8063 10.36C16.8516 10.432 16.8743 10.5133 16.8743 10.604V11.28C16.8743 11.368 16.8516 11.4493 16.8063 11.524C16.7636 11.596 16.7049 11.6547 16.6303 11.7C16.5583 11.7427 16.4783 11.764 16.3903 11.764H14.4503C14.4076 11.764 14.3703 11.78 14.3383 11.812C14.3089 11.8413 14.2943 11.8773 14.2943 11.92V12.516C14.2943 12.5587 14.3089 12.596 14.3383 12.628C14.3703 12.6573 14.4076 12.672 14.4503 12.672H16.8743V13H13.9663ZM17.7586 13C17.6679 13 17.5853 12.9787 17.5106 12.936C17.4386 12.8907 17.3799 12.832 17.3346 12.76C17.2919 12.6853 17.2706 12.604 17.2706 12.516V12.452H17.6026V12.516C17.6026 12.5587 17.6173 12.596 17.6466 12.628C17.6786 12.6573 17.7159 12.672 17.7586 12.672H19.6986C19.7413 12.672 19.7773 12.6573 19.8066 12.628C19.8386 12.596 19.8546 12.5587 19.8546 12.516V11.848C19.8546 11.8053 19.8386 11.7693 19.8066 11.74C19.7773 11.708 19.7413 11.692 19.6986 11.692H17.8226V11.364H19.5706C19.6133 11.364 19.6493 11.3493 19.6786 11.32C19.7106 11.288 19.7266 11.2507 19.7266 11.208V10.604C19.7266 10.5613 19.7106 10.5253 19.6786 10.496C19.6493 10.464 19.6133 10.448 19.5706 10.448H17.7586C17.7159 10.448 17.6786 10.464 17.6466 10.496C17.6173 10.5253 17.6026 10.5613 17.6026 10.604V10.708H17.2706V10.604C17.2706 10.5133 17.2919 10.432 17.3346 10.36C17.3799 10.2853 17.4386 10.2267 17.5106 10.184C17.5853 10.1387 17.6679 10.116 17.7586 10.116H19.5706C19.6613 10.116 19.7426 10.1387 19.8146 10.184C19.8893 10.2267 19.9479 10.2853 19.9906 10.36C20.0333 10.432 20.0546 10.5133 20.0546 10.604V11.208C20.0546 11.2453 20.0493 11.2827 20.0386 11.32C20.0306 11.3547 20.0199 11.3867 20.0066 11.416C20.0733 11.48 20.1186 11.5507 20.1426 11.628C20.1693 11.7053 20.1826 11.7787 20.1826 11.848V12.516C20.1826 12.604 20.1599 12.6853 20.1146 12.76C20.0719 12.832 20.0133 12.8907 19.9386 12.936C19.8666 12.9787 19.7866 13 19.6986 13H17.7586ZM22.3953 13V12.256H20.3873V11.888L22.3553 10.116H22.7233V11.928H23.1713V12.256H22.7233V13H22.3953ZM20.8073 11.928H22.3953V10.56L20.8073 11.928ZM23.9772 13C23.9078 13 23.8412 12.9867 23.7772 12.96C23.7158 12.9307 23.6625 12.892 23.6172 12.844C23.5718 12.7933 23.5385 12.736 23.5172 12.672H25.9172C25.9598 12.672 25.9958 12.6573 26.0252 12.628C26.0572 12.596 26.0732 12.5587 26.0732 12.516V11.936C26.0732 11.8933 26.0572 11.8573 26.0252 11.828C25.9958 11.796 25.9598 11.78 25.9172 11.78H23.9772C23.8865 11.78 23.8038 11.7587 23.7292 11.716C23.6572 11.6707 23.5985 11.612 23.5532 11.54C23.5105 11.4653 23.4892 11.384 23.4892 11.296V10.604C23.4892 10.5133 23.5105 10.432 23.5532 10.36C23.5985 10.2853 23.6572 10.2267 23.7292 10.184C23.8038 10.1387 23.8865 10.116 23.9772 10.116H25.9172C26.0052 10.116 26.0852 10.1387 26.1572 10.184C26.2318 10.2267 26.2905 10.2853 26.3332 10.36C26.3785 10.432 26.4012 10.5133 26.4012 10.604V12.516C26.4012 12.604 26.3785 12.6853 26.3332 12.76C26.2905 12.832 26.2318 12.8907 26.1572 12.936C26.0852 12.9787 26.0052 13 25.9172 13H23.9772ZM23.9772 11.452H26.0732V10.604C26.0732 10.5613 26.0572 10.5253 26.0252 10.496C25.9958 10.464 25.9598 10.448 25.9172 10.448H23.9772C23.9345 10.448 23.8972 10.464 23.8652 10.496C23.8358 10.5253 23.8212 10.5613 23.8212 10.604V11.296C23.8212 11.3387 23.8358 11.376 23.8652 11.408C23.8972 11.4373 23.9345 11.452 23.9772 11.452ZM26.8137 10.976V10.648H27.1417V10.976H26.8137ZM26.8137 13V12.672H27.1417V13H26.8137ZM28.3291 13V10.488L27.8851 11.02H27.4571L28.2131 10.12H28.6611V13H28.3291ZM29.2436 13V11.92C29.2436 11.8293 29.265 11.748 29.3076 11.676C29.3503 11.6013 29.4076 11.5427 29.4796 11.5C29.5543 11.4573 29.637 11.436 29.7276 11.436H31.6676C31.7103 11.436 31.7463 11.4213 31.7756 11.392C31.8076 11.36 31.8236 11.3227 31.8236 11.28V10.604C31.8236 10.5613 31.8076 10.5253 31.7756 10.496C31.7463 10.464 31.7103 10.448 31.6676 10.448H29.7276C29.685 10.448 29.6476 10.464 29.6156 10.496C29.5863 10.5253 29.5716 10.5613 29.5716 10.604V10.716H29.2436V10.604C29.2436 10.5133 29.265 10.432 29.3076 10.36C29.3503 10.2853 29.4076 10.2267 29.4796 10.184C29.5543 10.1387 29.637 10.116 29.7276 10.116H31.6676C31.7556 10.116 31.8356 10.1387 31.9076 10.184C31.9823 10.2267 32.041 10.2853 32.0836 10.36C32.129 10.432 32.1516 10.5133 32.1516 10.604V11.28C32.1516 11.368 32.129 11.4493 32.0836 11.524C32.041 11.596 31.9823 11.6547 31.9076 11.7C31.8356 11.7427 31.7556 11.764 31.6676 11.764H29.7276C29.685 11.764 29.6476 11.78 29.6156 11.812C29.5863 11.8413 29.5716 11.8773 29.5716 11.92V12.516C29.5716 12.5587 29.5863 12.596 29.6156 12.628C29.6476 12.6573 29.685 12.672 29.7276 12.672H32.1516V13H29.2436ZM33.0359 13C32.9453 13 32.8626 12.9787 32.7879 12.936C32.7159 12.8907 32.6573 12.832 32.6119 12.76C32.5693 12.6853 32.5479 12.604 32.5479 12.516V12.452H32.8799V12.516C32.8799 12.5587 32.8946 12.596 32.9239 12.628C32.9559 12.6573 32.9933 12.672 33.0359 12.672H34.9759C35.0186 12.672 35.0546 12.6573 35.0839 12.628C35.1159 12.596 35.1319 12.5587 35.1319 12.516V11.848C35.1319 11.8053 35.1159 11.7693 35.0839 11.74C35.0546 11.708 35.0186 11.692 34.9759 11.692H33.0999V11.364H34.8479C34.8906 11.364 34.9266 11.3493 34.9559 11.32C34.9879 11.288 35.0039 11.2507 35.0039 11.208V10.604C35.0039 10.5613 34.9879 10.5253 34.9559 10.496C34.9266 10.464 34.8906 10.448 34.8479 10.448H33.0359C32.9933 10.448 32.9559 10.464 32.9239 10.496C32.8946 10.5253 32.8799 10.5613 32.8799 10.604V10.708H32.5479V10.604C32.5479 10.5133 32.5693 10.432 32.6119 10.36C32.6573 10.2853 32.7159 10.2267 32.7879 10.184C32.8626 10.1387 32.9453 10.116 33.0359 10.116H34.8479C34.9386 10.116 35.0199 10.1387 35.0919 10.184C35.1666 10.2267 35.2253 10.2853 35.2679 10.36C35.3106 10.432 35.3319 10.5133 35.3319 10.604V11.208C35.3319 11.2453 35.3266 11.2827 35.3159 11.32C35.3079 11.3547 35.2973 11.3867 35.2839 11.416C35.3506 11.48 35.3959 11.5507 35.4199 11.628C35.4466 11.7053 35.4599 11.7787 35.4599 11.848V12.516C35.4599 12.604 35.4373 12.6853 35.3919 12.76C35.3493 12.832 35.2906 12.8907 35.2159 12.936C35.1439 12.9787 35.0639 13 34.9759 13H33.0359ZM35.8686 13V11.92C35.8686 11.8293 35.89 11.748 35.9326 11.676C35.9753 11.6013 36.0326 11.5427 36.1046 11.5C36.1793 11.4573 36.262 11.436 36.3526 11.436H38.2926C38.3353 11.436 38.3713 11.4213 38.4006 11.392C38.4326 11.36 38.4486 11.3227 38.4486 11.28V10.604C38.4486 10.5613 38.4326 10.5253 38.4006 10.496C38.3713 10.464 38.3353 10.448 38.2926 10.448H36.3526C36.31 10.448 36.2726 10.464 36.2406 10.496C36.2113 10.5253 36.1966 10.5613 36.1966 10.604V10.716H35.8686V10.604C35.8686 10.5133 35.89 10.432 35.9326 10.36C35.9753 10.2853 36.0326 10.2267 36.1046 10.184C36.1793 10.1387 36.262 10.116 36.3526 10.116H38.2926C38.3806 10.116 38.4606 10.1387 38.5326 10.184C38.6073 10.2267 38.666 10.2853 38.7086 10.36C38.754 10.432 38.7766 10.5133 38.7766 10.604V11.28C38.7766 11.368 38.754 11.4493 38.7086 11.524C38.666 11.596 38.6073 11.6547 38.5326 11.7C38.4606 11.7427 38.3806 11.764 38.2926 11.764H36.3526C36.31 11.764 36.2726 11.78 36.2406 11.812C36.2113 11.8413 36.1966 11.8773 36.1966 11.92V12.516C36.1966 12.5587 36.2113 12.596 36.2406 12.628C36.2726 12.6573 36.31 12.672 36.3526 12.672H38.7766V13H35.8686ZM39.1769 10.976V10.648H39.5049V10.976H39.1769ZM39.1769 13V12.672H39.5049V13H39.1769ZM40.5284 13C40.4377 13 40.3551 12.9787 40.2804 12.936C40.2084 12.8907 40.1511 12.832 40.1084 12.76C40.0657 12.6853 40.0444 12.604 40.0444 12.516V10.608C40.0444 10.5173 40.0657 10.436 40.1084 10.364C40.1511 10.2893 40.2084 10.2307 40.2804 10.188C40.3551 10.1427 40.4377 10.12 40.5284 10.12H42.4684C42.5564 10.12 42.6364 10.1427 42.7084 10.188C42.7831 10.2307 42.8417 10.2893 42.8844 10.364C42.9297 10.436 42.9524 10.5173 42.9524 10.608V12.516C42.9524 12.604 42.9297 12.6853 42.8844 12.76C42.8417 12.832 42.7831 12.8907 42.7084 12.936C42.6364 12.9787 42.5564 13 42.4684 13H40.5284ZM40.4124 12.672H42.4684C42.5111 12.672 42.5471 12.6573 42.5764 12.628C42.6084 12.596 42.6244 12.5587 42.6244 12.516V10.848L40.4124 12.672ZM40.3724 12.276L42.5804 10.452H40.5284C40.4857 10.452 40.4484 10.468 40.4164 10.5C40.3871 10.5293 40.3724 10.5653 40.3724 10.608V12.276ZM43.8443 13C43.775 13 43.7083 12.9867 43.6443 12.96C43.583 12.9307 43.5297 12.892 43.4843 12.844C43.439 12.7933 43.4057 12.736 43.3843 12.672H45.7843C45.827 12.672 45.863 12.6573 45.8923 12.628C45.9243 12.596 45.9403 12.5587 45.9403 12.516V11.936C45.9403 11.8933 45.9243 11.8573 45.8923 11.828C45.863 11.796 45.827 11.78 45.7843 11.78H43.8443C43.7537 11.78 43.671 11.7587 43.5963 11.716C43.5243 11.6707 43.4657 11.612 43.4203 11.54C43.3777 11.4653 43.3563 11.384 43.3563 11.296V10.604C43.3563 10.5133 43.3777 10.432 43.4203 10.36C43.4657 10.2853 43.5243 10.2267 43.5963 10.184C43.671 10.1387 43.7537 10.116 43.8443 10.116H45.7843C45.8723 10.116 45.9523 10.1387 46.0243 10.184C46.099 10.2267 46.1577 10.2853 46.2003 10.36C46.2457 10.432 46.2683 10.5133 46.2683 10.604V12.516C46.2683 12.604 46.2457 12.6853 46.2003 12.76C46.1577 12.832 46.099 12.8907 46.0243 12.936C45.9523 12.9787 45.8723 13 45.7843 13H43.8443ZM43.8443 11.452H45.9403V10.604C45.9403 10.5613 45.9243 10.5253 45.8923 10.496C45.863 10.464 45.827 10.448 45.7843 10.448H43.8443C43.8017 10.448 43.7643 10.464 43.7323 10.496C43.703 10.5253 43.6883 10.5613 43.6883 10.604V11.296C43.6883 11.3387 43.703 11.376 43.7323 11.408C43.7643 11.4373 43.8017 11.452 43.8443 11.452ZM47.1568 13C47.0875 13 47.0208 12.9867 46.9568 12.96C46.8955 12.9307 46.8422 12.892 46.7968 12.844C46.7515 12.7933 46.7182 12.736 46.6968 12.672H49.0968C49.1395 12.672 49.1755 12.6573 49.2048 12.628C49.2368 12.596 49.2528 12.5587 49.2528 12.516V11.936C49.2528 11.8933 49.2368 11.8573 49.2048 11.828C49.1755 11.796 49.1395 11.78 49.0968 11.78H47.1568C47.0662 11.78 46.9835 11.7587 46.9088 11.716C46.8368 11.6707 46.7782 11.612 46.7328 11.54C46.6902 11.4653 46.6688 11.384 46.6688 11.296V10.604C46.6688 10.5133 46.6902 10.432 46.7328 10.36C46.7782 10.2853 46.8368 10.2267 46.9088 10.184C46.9835 10.1387 47.0662 10.116 47.1568 10.116H49.0968C49.1848 10.116 49.2648 10.1387 49.3368 10.184C49.4115 10.2267 49.4702 10.2853 49.5128 10.36C49.5582 10.432 49.5808 10.5133 49.5808 10.604V12.516C49.5808 12.604 49.5582 12.6853 49.5128 12.76C49.4702 12.832 49.4115 12.8907 49.3368 12.936C49.2648 12.9787 49.1848 13 49.0968 13H47.1568ZM47.1568 11.452H49.2528V10.604C49.2528 10.5613 49.2368 10.5253 49.2048 10.496C49.1755 10.464 49.1395 10.448 49.0968 10.448H47.1568C47.1142 10.448 47.0768 10.464 47.0448 10.496C47.0155 10.5253 47.0008 10.5613 47.0008 10.604V11.296C47.0008 11.3387 47.0155 11.376 47.0448 11.408C47.0768 11.4373 47.1142 11.452 47.1568 11.452ZM50.4693 13C50.4 13 50.3333 12.9867 50.2693 12.96C50.208 12.9307 50.1547 12.892 50.1093 12.844C50.064 12.7933 50.0307 12.736 50.0093 12.672H52.4093C52.452 12.672 52.488 12.6573 52.5173 12.628C52.5493 12.596 52.5653 12.5587 52.5653 12.516V11.936C52.5653 11.8933 52.5493 11.8573 52.5173 11.828C52.488 11.796 52.452 11.78 52.4093 11.78H50.4693C50.3787 11.78 50.296 11.7587 50.2213 11.716C50.1493 11.6707 50.0907 11.612 50.0453 11.54C50.0027 11.4653 49.9813 11.384 49.9813 11.296V10.604C49.9813 10.5133 50.0027 10.432 50.0453 10.36C50.0907 10.2853 50.1493 10.2267 50.2213 10.184C50.296 10.1387 50.3787 10.116 50.4693 10.116H52.4093C52.4973 10.116 52.5773 10.1387 52.6493 10.184C52.724 10.2267 52.7827 10.2853 52.8253 10.36C52.8707 10.432 52.8933 10.5133 52.8933 10.604V12.516C52.8933 12.604 52.8707 12.6853 52.8253 12.76C52.7827 12.832 52.724 12.8907 52.6493 12.936C52.5773 12.9787 52.4973 13 52.4093 13H50.4693ZM50.4693 11.452H52.5653V10.604C52.5653 10.5613 52.5493 10.5253 52.5173 10.496C52.488 10.464 52.452 10.448 52.4093 10.448H50.4693C50.4267 10.448 50.3893 10.464 50.3573 10.496C50.328 10.5253 50.3133 10.5613 50.3133 10.604V11.296C50.3133 11.3387 50.328 11.376 50.3573 11.408C50.3893 11.4373 50.4267 11.452 50.4693 11.452Z" fill="#EB2941"/>
</svg>
