<svg width="68" height="18" viewBox="0 0 68 18" fill="none" xmlns="http://www.w3.org/2000/svg">
<path d="M0.216 3V0.116H0.816V0.448H0.544V2.672H0.816V3H0.216ZM1.32556 3V0.12H1.76956L3.88156 2.632V0.12H4.20556V3H3.76156L1.64956 0.488V3H1.32556ZM4.66169 3V0.12H7.28969V0.444H4.98569V1.396H6.83769V1.724H4.98569V2.676H7.28969V3H4.66169ZM7.67619 3V2.996L8.88419 1.56L7.67619 0.124V0.12H8.09219L9.09619 1.308L10.0962 0.12H10.5122V0.124L9.30419 1.56L10.5162 2.996V3H10.0962L9.09619 1.812L8.09219 3H7.67619ZM10.9743 1.98V1.652H12.5343V1.98H10.9743ZM14.8367 3V2.256H12.8287V1.888L14.7967 0.116H15.1647V1.928H15.6127V2.256H15.1647V3H14.8367ZM13.2487 1.928H14.8367V0.56L13.2487 1.928ZM17.7586 3V2.256H15.7506V1.888L17.7186 0.116H18.0866V1.928H18.5346V2.256H18.0866V3H17.7586ZM16.1706 1.928H17.7586V0.56L16.1706 1.928ZM18.8764 3V1.92C18.8764 1.82933 18.8978 1.748 18.9404 1.676C18.9831 1.60133 19.0404 1.54267 19.1124 1.5C19.1871 1.45733 19.2698 1.436 19.3604 1.436H21.3004C21.3431 1.436 21.3791 1.42133 21.4084 1.392C21.4404 1.36 21.4564 1.32267 21.4564 1.28V0.604C21.4564 0.561333 21.4404 0.525333 21.4084 0.496C21.3791 0.464 21.3431 0.448 21.3004 0.448H19.3604C19.3178 0.448 19.2804 0.464 19.2484 0.496C19.2191 0.525333 19.2044 0.561333 19.2044 0.604V0.716H18.8764V0.604C18.8764 0.513333 18.8978 0.432 18.9404 0.36C18.9831 0.285333 19.0404 0.226667 19.1124 0.184C19.1871 0.138667 19.2698 0.116 19.3604 0.116H21.3004C21.3884 0.116 21.4684 0.138667 21.5404 0.184C21.6151 0.226667 21.6738 0.285333 21.7164 0.36C21.7618 0.432 21.7844 0.513333 21.7844 0.604V1.28C21.7844 1.368 21.7618 1.44933 21.7164 1.524C21.6738 1.596 21.6151 1.65467 21.5404 1.7C21.4684 1.74267 21.3884 1.764 21.3004 1.764H19.3604C19.3178 1.764 19.2804 1.78 19.2484 1.812C19.2191 1.84133 19.2044 1.87733 19.2044 1.92V2.516C19.2044 2.55867 19.2191 2.596 19.2484 2.628C19.2804 2.65733 19.3178 2.672 19.3604 2.672H21.7844V3H18.8764ZM22.8448 3V0.488L22.4008 1.02H21.9728L22.7288 0.12H23.1768V3H22.8448ZM23.7673 1.98V1.652H25.3273V1.98H23.7673ZM26.9577 3V0.444H25.6777V0.12H28.5577V0.444H27.2817V3H26.9577ZM31.2888 3L30.3488 1.88H30.7728L31.7168 2.996V3H31.2888ZM28.8568 3V0.124H31.2568C31.3448 0.124 31.4248 0.146667 31.4968 0.192C31.5715 0.234667 31.6301 0.292 31.6728 0.364C31.7155 0.436 31.7368 0.516 31.7368 0.604V1.448C31.7368 1.536 31.7155 1.616 31.6728 1.688C31.6301 1.76 31.5715 1.81867 31.4968 1.864C31.4248 1.90667 31.3448 1.928 31.2568 1.928H29.1808V3H28.8568ZM29.3368 1.6H31.2568C31.2995 1.6 31.3355 1.58533 31.3648 1.556C31.3968 1.52667 31.4128 1.49067 31.4128 1.448V0.604C31.4128 0.561333 31.3968 0.525333 31.3648 0.496C31.3355 0.464 31.2995 0.448 31.2568 0.448H29.3368C29.2941 0.448 29.2568 0.464 29.2248 0.496C29.1955 0.525333 29.1808 0.561333 29.1808 0.604V1.448C29.1808 1.49067 29.1955 1.52667 29.2248 1.556C29.2568 1.58533 29.2941 1.6 29.3368 1.6ZM32.1176 3V2.996L33.3256 1.56L32.1176 0.124V0.12H32.5336L33.5376 1.308L34.5376 0.12H34.9536V0.124L33.7456 1.56L34.9576 2.996V3H34.5376L33.5376 1.812L32.5336 3H32.1176ZM35.4157 1.98V1.652H36.9757V1.98H35.4157ZM37.9381 3C37.8688 3 37.8021 2.98667 37.7381 2.96C37.6768 2.93067 37.6234 2.892 37.5781 2.844C37.5328 2.79333 37.4994 2.736 37.4781 2.672H39.8781C39.9208 2.672 39.9568 2.65733 39.9861 2.628C40.0181 2.596 40.0341 2.55867 40.0341 2.516V1.936C40.0341 1.89333 40.0181 1.85733 39.9861 1.828C39.9568 1.796 39.9208 1.78 39.8781 1.78H37.9381C37.8474 1.78 37.7648 1.75867 37.6901 1.716C37.6181 1.67067 37.5594 1.612 37.5141 1.54C37.4714 1.46533 37.4501 1.384 37.4501 1.296V0.604C37.4501 0.513333 37.4714 0.432 37.5141 0.36C37.5594 0.285333 37.6181 0.226667 37.6901 0.184C37.7648 0.138667 37.8474 0.116 37.9381 0.116H39.8781C39.9661 0.116 40.0461 0.138667 40.1181 0.184C40.1928 0.226667 40.2514 0.285333 40.2941 0.36C40.3394 0.432 40.3621 0.513333 40.3621 0.604V2.516C40.3621 2.604 40.3394 2.68533 40.2941 2.76C40.2514 2.832 40.1928 2.89067 40.1181 2.936C40.0461 2.97867 39.9661 3 39.8781 3H37.9381ZM37.9381 1.452H40.0341V0.604C40.0341 0.561333 40.0181 0.525333 39.9861 0.496C39.9568 0.464 39.9208 0.448 39.8781 0.448H37.9381C37.8954 0.448 37.8581 0.464 37.8261 0.496C37.7968 0.525333 37.7821 0.561333 37.7821 0.604V1.296C37.7821 1.33867 37.7968 1.376 37.8261 1.408C37.8581 1.43733 37.8954 1.452 37.9381 1.452ZM41.2706 3C41.1799 3 41.0973 2.97867 41.0226 2.936C40.9506 2.89067 40.8933 2.832 40.8506 2.76C40.8079 2.68533 40.7866 2.604 40.7866 2.516V0.608C40.7866 0.517333 40.8079 0.436 40.8506 0.364C40.8933 0.289333 40.9506 0.230667 41.0226 0.188C41.0973 0.142667 41.1799 0.12 41.2706 0.12H43.2106C43.2986 0.12 43.3786 0.142667 43.4506 0.188C43.5253 0.230667 43.5839 0.289333 43.6266 0.364C43.6719 0.436 43.6946 0.517333 43.6946 0.608V2.516C43.6946 2.604 43.6719 2.68533 43.6266 2.76C43.5839 2.832 43.5253 2.89067 43.4506 2.936C43.3786 2.97867 43.2986 3 43.2106 3H41.2706ZM41.1546 2.672H43.2106C43.2533 2.672 43.2893 2.65733 43.3186 2.628C43.3506 2.596 43.3666 2.55867 43.3666 2.516V0.848L41.1546 2.672ZM41.1146 2.276L43.3226 0.452H41.2706C41.2279 0.452 41.1906 0.468 41.1586 0.5C41.1293 0.529333 41.1146 0.565333 41.1146 0.608V2.276ZM45.9265 3V2.256H43.9185V1.888L45.8865 0.116H46.2545V1.928H46.7025V2.256H46.2545V3H45.9265ZM44.3385 1.928H45.9265V0.56L44.3385 1.928ZM47.0444 3V1.92C47.0444 1.82933 47.0657 1.748 47.1084 1.676C47.1511 1.60133 47.2084 1.54267 47.2804 1.5C47.3551 1.45733 47.4377 1.436 47.5284 1.436H49.4684C49.5111 1.436 49.5471 1.42133 49.5764 1.392C49.6084 1.36 49.6244 1.32267 49.6244 1.28V0.604C49.6244 0.561333 49.6084 0.525333 49.5764 0.496C49.5471 0.464 49.5111 0.448 49.4684 0.448H47.5284C47.4857 0.448 47.4484 0.464 47.4164 0.496C47.3871 0.525333 47.3724 0.561333 47.3724 0.604V0.716H47.0444V0.604C47.0444 0.513333 47.0657 0.432 47.1084 0.36C47.1511 0.285333 47.2084 0.226667 47.2804 0.184C47.3551 0.138667 47.4377 0.116 47.5284 0.116H49.4684C49.5564 0.116 49.6364 0.138667 49.7084 0.184C49.7831 0.226667 49.8417 0.285333 49.8844 0.36C49.9297 0.432 49.9524 0.513333 49.9524 0.604V1.28C49.9524 1.368 49.9297 1.44933 49.8844 1.524C49.8417 1.596 49.7831 1.65467 49.7084 1.7C49.6364 1.74267 49.5564 1.764 49.4684 1.764H47.5284C47.4857 1.764 47.4484 1.78 47.4164 1.812C47.3871 1.84133 47.3724 1.87733 47.3724 1.92V2.516C47.3724 2.55867 47.3871 2.596 47.4164 2.628C47.4484 2.65733 47.4857 2.672 47.5284 2.672H49.9524V3H47.0444ZM50.3407 3V2.672H50.6087V0.448H50.3407V0.116H50.9407V3H50.3407ZM0.684 8C0.596 8 0.514667 7.97867 0.44 7.936C0.368 7.89333 0.310667 7.836 0.268 7.764C0.225333 7.68933 0.204 7.608 0.204 7.52V7.408H0.528V7.52C0.528 7.56267 0.542667 7.6 0.572 7.632C0.604 7.66133 0.641333 7.676 0.684 7.676H2.604C2.64667 7.676 2.68267 7.66133 2.712 7.632C2.744 7.6 2.76 7.56267 2.76 7.52V6.876C2.76 6.83333 2.744 6.79733 2.712 6.768C2.68267 6.73867 2.64667 6.724 2.604 6.724H0.684C0.596 6.724 0.514667 6.70267 0.44 6.66C0.368 6.61467 0.310667 6.556 0.268 6.484C0.225333 6.412 0.204 6.332 0.204 6.244V5.6C0.204 5.512 0.225333 5.432 0.268 5.36C0.310667 5.28533 0.368 5.22667 0.44 5.184C0.514667 5.14133 0.596 5.12 0.684 5.12H2.604C2.692 5.12 2.772 5.14133 2.844 5.184C2.91867 5.22667 2.97733 5.28533 3.02 5.36C3.06267 5.432 3.084 5.512 3.084 5.6V5.712H2.76V5.6C2.76 5.55733 2.744 5.52133 2.712 5.492C2.68267 5.46 2.64667 5.444 2.604 5.444H0.684C0.641333 5.444 0.604 5.46 0.572 5.492C0.542667 5.52133 0.528 5.55733 0.528 5.6V6.244C0.528 6.28667 0.542667 6.32267 0.572 6.352C0.604 6.38133 0.641333 6.396 0.684 6.396H2.604C2.692 6.396 2.772 6.41867 2.844 6.464C2.91867 6.50667 2.97733 6.564 3.02 6.636C3.06267 6.708 3.084 6.788 3.084 6.876V7.52C3.084 7.608 3.06267 7.68933 3.02 7.764C2.97733 7.836 2.91867 7.89333 2.844 7.936C2.772 7.97867 2.692 8 2.604 8H0.684ZM4.702 8V6.916L3.378 5.12H3.75L4.866 6.528L5.97 5.12H6.35L5.026 6.916V8H4.702ZM7.01603 8C6.92803 8 6.8467 7.97867 6.77203 7.936C6.70003 7.89333 6.6427 7.836 6.60003 7.764C6.55736 7.68933 6.53603 7.608 6.53603 7.52V7.408H6.86003V7.52C6.86003 7.56267 6.8747 7.6 6.90403 7.632C6.93603 7.66133 6.97336 7.676 7.01603 7.676H8.93603C8.9787 7.676 9.0147 7.66133 9.04403 7.632C9.07603 7.6 9.09203 7.56267 9.09203 7.52V6.876C9.09203 6.83333 9.07603 6.79733 9.04403 6.768C9.0147 6.73867 8.9787 6.724 8.93603 6.724H7.01603C6.92803 6.724 6.8467 6.70267 6.77203 6.66C6.70003 6.61467 6.6427 6.556 6.60003 6.484C6.55736 6.412 6.53603 6.332 6.53603 6.244V5.6C6.53603 5.512 6.55736 5.432 6.60003 5.36C6.6427 5.28533 6.70003 5.22667 6.77203 5.184C6.8467 5.14133 6.92803 5.12 7.01603 5.12H8.93603C9.02403 5.12 9.10403 5.14133 9.17603 5.184C9.2507 5.22667 9.30936 5.28533 9.35203 5.36C9.3947 5.432 9.41603 5.512 9.41603 5.6V5.712H9.09203V5.6C9.09203 5.55733 9.07603 5.52133 9.04403 5.492C9.0147 5.46 8.9787 5.444 8.93603 5.444H7.01603C6.97336 5.444 6.93603 5.46 6.90403 5.492C6.8747 5.52133 6.86003 5.55733 6.86003 5.6V6.244C6.86003 6.28667 6.8747 6.32267 6.90403 6.352C6.93603 6.38133 6.97336 6.396 7.01603 6.396H8.93603C9.02403 6.396 9.10403 6.41867 9.17603 6.464C9.2507 6.50667 9.30936 6.564 9.35203 6.636C9.3947 6.708 9.41603 6.788 9.41603 6.876V7.52C9.41603 7.608 9.3947 7.68933 9.35203 7.764C9.30936 7.836 9.2507 7.89333 9.17603 7.936C9.10403 7.97867 9.02403 8 8.93603 8H7.01603ZM9.64509 8V7.576L11.6411 5.152L11.6691 5.12V5.536L9.67709 7.96L9.64509 8ZM11.931 8V5.124H14.331C14.419 5.124 14.499 5.14667 14.571 5.192C14.6457 5.23467 14.7044 5.292 14.747 5.364C14.7897 5.436 14.811 5.516 14.811 5.604V6.448C14.811 6.536 14.7897 6.616 14.747 6.688C14.7044 6.76 14.6457 6.81867 14.571 6.864C14.499 6.90667 14.419 6.928 14.331 6.928H12.255V8H11.931ZM12.411 6.6H14.331C14.3737 6.6 14.4097 6.58533 14.439 6.556C14.471 6.52667 14.487 6.49067 14.487 6.448V5.604C14.487 5.56133 14.471 5.52533 14.439 5.496C14.4097 5.464 14.3737 5.448 14.331 5.448H12.411C12.3684 5.448 12.331 5.464 12.299 5.496C12.2697 5.52533 12.255 5.56133 12.255 5.604V6.448C12.255 6.49067 12.2697 6.52667 12.299 6.556C12.331 6.58533 12.3684 6.6 12.411 6.6ZM17.5271 8L16.5871 6.88H17.0111L17.9551 7.996V8H17.5271ZM15.0951 8V5.124H17.4951C17.5831 5.124 17.6631 5.14667 17.7351 5.192C17.8098 5.23467 17.8684 5.292 17.9111 5.364C17.9538 5.436 17.9751 5.516 17.9751 5.604V6.448C17.9751 6.536 17.9538 6.616 17.9111 6.688C17.8684 6.76 17.8098 6.81867 17.7351 6.864C17.6631 6.90667 17.5831 6.928 17.4951 6.928H15.4191V8H15.0951ZM15.5751 6.6H17.4951C17.5378 6.6 17.5738 6.58533 17.6031 6.556C17.6351 6.52667 17.6511 6.49067 17.6511 6.448V5.604C17.6511 5.56133 17.6351 5.52533 17.6031 5.496C17.5738 5.464 17.5378 5.448 17.4951 5.448H15.5751C15.5324 5.448 15.4951 5.464 15.4631 5.496C15.4338 5.52533 15.4191 5.56133 15.4191 5.604V6.448C15.4191 6.49067 15.4338 6.52667 15.4631 6.556C15.4951 6.58533 15.5324 6.6 15.5751 6.6ZM18.3959 8V5.12H18.8399L20.0359 6.544L21.2319 5.12H21.6759V8H21.3519V5.488L20.0359 7.052L18.7199 5.488V8H18.3959ZM21.9068 8V7.576L23.9028 5.152L23.9308 5.12V5.536L21.9388 7.96L21.9068 8ZM24.2008 8V5.6C24.2008 5.512 24.2221 5.432 24.2648 5.36C24.3074 5.28533 24.3648 5.22667 24.4368 5.184C24.5114 5.14133 24.5928 5.12 24.6808 5.12H26.6008C26.6888 5.12 26.7688 5.14133 26.8408 5.184C26.9154 5.22667 26.9741 5.28533 27.0168 5.36C27.0594 5.432 27.0808 5.512 27.0808 5.6V8H26.7568V6.948H24.5248V8H24.2008ZM24.5248 6.624H26.7568V5.6C26.7568 5.55733 26.7408 5.52133 26.7088 5.492C26.6794 5.46 26.6434 5.444 26.6008 5.444H24.6808C24.6381 5.444 24.6008 5.46 24.5688 5.492C24.5394 5.52133 24.5248 5.55733 24.5248 5.6V6.624ZM29.1205 8L27.4525 5.12H27.8325L29.3085 7.684L30.7805 5.12H31.1605L29.4965 8H29.1205ZM31.5522 8V5.12H31.8802V6.396H32.8082L33.8802 5.12H34.2962V5.124L33.0922 6.56L34.3002 7.996V8H33.8802L32.8082 6.724H31.8802V8H31.5522ZM34.5357 8V7.576L36.5317 5.152L36.5597 5.12V5.536L34.5677 7.96L34.5357 8ZM37.3097 8C37.219 8 37.1363 7.97867 37.0617 7.936C36.9897 7.89067 36.9323 7.832 36.8897 7.76C36.847 7.68533 36.8257 7.604 36.8257 7.516V5.608C36.8257 5.51733 36.847 5.436 36.8897 5.364C36.9323 5.28933 36.9897 5.23067 37.0617 5.188C37.1363 5.14267 37.219 5.12 37.3097 5.12H39.2497C39.3377 5.12 39.4177 5.14267 39.4897 5.188C39.5643 5.23067 39.623 5.28933 39.6657 5.364C39.711 5.436 39.7337 5.51733 39.7337 5.608V7.516C39.7337 7.604 39.711 7.68533 39.6657 7.76C39.623 7.832 39.5643 7.89067 39.4897 7.936C39.4177 7.97867 39.3377 8 39.2497 8H37.3097ZM37.1937 7.672H39.2497C39.2923 7.672 39.3283 7.65733 39.3577 7.628C39.3897 7.596 39.4057 7.55867 39.4057 7.516V5.848L37.1937 7.672ZM37.1537 7.276L39.3617 5.452H37.3097C37.267 5.452 37.2297 5.468 37.1977 5.5C37.1683 5.52933 37.1537 5.56533 37.1537 5.608V7.276ZM40.8096 8V5.488L40.3656 6.02H39.9376L40.6936 5.12H41.1416V8H40.8096ZM41.5201 8V7.576L43.5161 5.152L43.5441 5.12V5.536L41.5521 7.96L41.5201 8ZM44.294 8C44.2034 8 44.1207 7.97867 44.046 7.936C43.974 7.89067 43.9167 7.832 43.874 7.76C43.8314 7.68533 43.81 7.604 43.81 7.516V5.608C43.81 5.51733 43.8314 5.436 43.874 5.364C43.9167 5.28933 43.974 5.23067 44.046 5.188C44.1207 5.14267 44.2034 5.12 44.294 5.12H46.234C46.322 5.12 46.402 5.14267 46.474 5.188C46.5487 5.23067 46.6074 5.28933 46.65 5.364C46.6954 5.436 46.718 5.51733 46.718 5.608V7.516C46.718 7.604 46.6954 7.68533 46.65 7.76C46.6074 7.832 46.5487 7.89067 46.474 7.936C46.402 7.97867 46.322 8 46.234 8H44.294ZM44.178 7.672H46.234C46.2767 7.672 46.3127 7.65733 46.342 7.628C46.374 7.596 46.39 7.55867 46.39 7.516V5.848L44.178 7.672ZM44.138 7.276L46.346 5.452H44.294C44.2514 5.452 44.214 5.468 44.182 5.5C44.1527 5.52933 44.138 5.56533 44.138 5.608V7.276ZM47.63 8C47.5393 8 47.4566 7.97867 47.382 7.936C47.31 7.89067 47.2526 7.832 47.21 7.76C47.1673 7.68533 47.146 7.604 47.146 7.516V5.608C47.146 5.51733 47.1673 5.436 47.21 5.364C47.2526 5.28933 47.31 5.23067 47.382 5.188C47.4566 5.14267 47.5393 5.12 47.63 5.12H49.57C49.658 5.12 49.738 5.14267 49.81 5.188C49.8846 5.23067 49.9433 5.28933 49.986 5.364C50.0313 5.436 50.054 5.51733 50.054 5.608V7.516C50.054 7.604 50.0313 7.68533 49.986 7.76C49.9433 7.832 49.8846 7.89067 49.81 7.936C49.738 7.97867 49.658 8 49.57 8H47.63ZM47.514 7.672H49.57C49.6126 7.672 49.6486 7.65733 49.678 7.628C49.71 7.596 49.726 7.55867 49.726 7.516V5.848L47.514 7.672ZM47.474 7.276L49.682 5.452H47.63C47.5873 5.452 47.55 5.468 47.518 5.5C47.4886 5.52933 47.474 5.56533 47.474 5.608V7.276ZM50.2779 8V7.576L52.2739 5.152L52.3019 5.12V5.536L50.3099 7.96L50.2779 8ZM52.5678 8V6.92C52.5678 6.82933 52.5892 6.748 52.6318 6.676C52.6745 6.60133 52.7318 6.54267 52.8038 6.5C52.8785 6.45733 52.9612 6.436 53.0518 6.436H54.9918C55.0345 6.436 55.0705 6.42133 55.0998 6.392C55.1318 6.36 55.1478 6.32267 55.1478 6.28V5.604C55.1478 5.56133 55.1318 5.52533 55.0998 5.496C55.0705 5.464 55.0345 5.448 54.9918 5.448H53.0518C53.0092 5.448 52.9718 5.464 52.9398 5.496C52.9105 5.52533 52.8958 5.56133 52.8958 5.604V5.716H52.5678V5.604C52.5678 5.51333 52.5892 5.432 52.6318 5.36C52.6745 5.28533 52.7318 5.22667 52.8038 5.184C52.8785 5.13867 52.9612 5.116 53.0518 5.116H54.9918C55.0798 5.116 55.1598 5.13867 55.2318 5.184C55.3065 5.22667 55.3652 5.28533 55.4078 5.36C55.4532 5.432 55.4758 5.51333 55.4758 5.604V6.28C55.4758 6.368 55.4532 6.44933 55.4078 6.524C55.3652 6.596 55.3065 6.65467 55.2318 6.7C55.1598 6.74267 55.0798 6.764 54.9918 6.764H53.0518C53.0092 6.764 52.9718 6.78 52.9398 6.812C52.9105 6.84133 52.8958 6.87733 52.8958 6.92V7.516C52.8958 7.55867 52.9105 7.596 52.9398 7.628C52.9718 7.65733 53.0092 7.672 53.0518 7.672H55.4758V8H52.5678ZM56.5362 8V5.488L56.0922 6.02H55.6642L56.4202 5.12H56.8682V8H56.5362ZM1.30584 10.976V10.648H1.63384V10.976H1.30584ZM1.30584 13V12.672H1.63384V13H1.30584ZM2.16131 10.976V10.648H2.48931V10.976H2.16131ZM2.16131 13V12.672H2.48931V13H2.16131ZM3.48478 13C3.39678 13 3.31545 12.9787 3.24078 12.936C3.16878 12.8933 3.11145 12.836 3.06878 12.764C3.02611 12.6893 3.00478 12.608 3.00478 12.52V12.408H3.32878V12.52C3.32878 12.5627 3.34345 12.6 3.37278 12.632C3.40478 12.6613 3.44211 12.676 3.48478 12.676H5.40478C5.44745 12.676 5.48345 12.6613 5.51278 12.632C5.54478 12.6 5.56078 12.5627 5.56078 12.52V11.876C5.56078 11.8333 5.54478 11.7973 5.51278 11.768C5.48345 11.7387 5.44745 11.724 5.40478 11.724H3.48478C3.39678 11.724 3.31545 11.7027 3.24078 11.66C3.16878 11.6147 3.11145 11.556 3.06878 11.484C3.02611 11.412 3.00478 11.332 3.00478 11.244V10.6C3.00478 10.512 3.02611 10.432 3.06878 10.36C3.11145 10.2853 3.16878 10.2267 3.24078 10.184C3.31545 10.1413 3.39678 10.12 3.48478 10.12H5.40478C5.49278 10.12 5.57278 10.1413 5.64478 10.184C5.71945 10.2267 5.77811 10.2853 5.82078 10.36C5.86345 10.432 5.88478 10.512 5.88478 10.6V10.712H5.56078V10.6C5.56078 10.5573 5.54478 10.5213 5.51278 10.492C5.48345 10.46 5.44745 10.444 5.40478 10.444H3.48478C3.44211 10.444 3.40478 10.46 3.37278 10.492C3.34345 10.5213 3.32878 10.5573 3.32878 10.6V11.244C3.32878 11.2867 3.34345 11.3227 3.37278 11.352C3.40478 11.3813 3.44211 11.396 3.48478 11.396H5.40478C5.49278 11.396 5.57278 11.4187 5.64478 11.464C5.71945 11.5067 5.77811 11.564 5.82078 11.636C5.86345 11.708 5.88478 11.788 5.88478 11.876V12.52C5.88478 12.608 5.86345 12.6893 5.82078 12.764C5.77811 12.836 5.71945 12.8933 5.64478 12.936C5.57278 12.9787 5.49278 13 5.40478 13H3.48478ZM6.35384 13V10.12H6.68184V13H6.35384ZM7.64931 13C7.56131 13 7.47998 12.9787 7.40531 12.936C7.33331 12.8933 7.27598 12.836 7.23331 12.764C7.19065 12.6893 7.16931 12.608 7.16931 12.52V10.6C7.16931 10.512 7.19065 10.432 7.23331 10.36C7.27598 10.2853 7.33331 10.2267 7.40531 10.184C7.47998 10.1413 7.56131 10.12 7.64931 10.12H9.56931C9.65731 10.12 9.73731 10.1413 9.80931 10.184C9.88398 10.2267 9.94265 10.2853 9.98531 10.36C10.028 10.432 10.0493 10.512 10.0493 10.6V10.716H9.72531V10.6C9.72531 10.5573 9.70931 10.5213 9.67731 10.492C9.64798 10.46 9.61198 10.444 9.56931 10.444H7.64931C7.60665 10.444 7.56931 10.46 7.53731 10.492C7.50798 10.5213 7.49331 10.5573 7.49331 10.6V12.52C7.49331 12.5627 7.50798 12.6 7.53731 12.632C7.56931 12.6613 7.60665 12.676 7.64931 12.676H9.56931C9.61198 12.676 9.64798 12.6613 9.67731 12.632C9.70931 12.6 9.72531 12.5627 9.72531 12.52V11.808H9.01331V11.48H10.0493V12.52C10.0493 12.608 10.028 12.6893 9.98531 12.764C9.94265 12.836 9.88398 12.8933 9.80931 12.936C9.73731 12.9787 9.65731 13 9.56931 13H7.64931ZM10.4896 13V10.12H10.9336L13.0456 12.632V10.12H13.3696V13H12.9256L10.8136 10.488V13H10.4896ZM13.8258 13V10.6C13.8258 10.512 13.8471 10.432 13.8898 10.36C13.9324 10.2853 13.9898 10.2267 14.0618 10.184C14.1364 10.1413 14.2178 10.12 14.3058 10.12H16.2258C16.3138 10.12 16.3938 10.1413 16.4658 10.184C16.5404 10.2267 16.5991 10.2853 16.6418 10.36C16.6844 10.432 16.7058 10.512 16.7058 10.6V13H16.3818V11.948H14.1498V13H13.8258ZM14.1498 11.624H16.3818V10.6C16.3818 10.5573 16.3658 10.5213 16.3338 10.492C16.3044 10.46 16.2684 10.444 16.2258 10.444H14.3058C14.2631 10.444 14.2258 10.46 14.1938 10.492C14.1644 10.5213 14.1498 10.5573 14.1498 10.6V11.624ZM17.1655 13V10.116H17.4895V12.676H20.0455V13H17.1655ZM20.2707 13.328V13H23.1827V13.328H20.2707ZM23.5952 13V10.116H23.9192V12.676H26.4752V13H23.5952ZM26.7084 13V10.12H27.1524L29.2644 12.632V10.12H29.5884V13H29.1444L27.0324 10.488V13H26.7084ZM30.0405 13V10.12H30.3685V11.396H31.2965L32.3685 10.12H32.7845V10.124L31.5805 11.56L32.7885 12.996V13H32.3685L31.2965 11.724H30.3685V13H30.0405ZM33.316 13L33.532 12.316H33.128V11.988H33.636L33.92 11.108H33.256V10.78H34.024L34.248 10.124H34.572L34.344 10.78H35.388L35.612 10.124H35.936L35.708 10.78H36.092V11.108H35.608L35.324 11.988H35.96V12.316H35.22L35.008 13H34.68L34.896 12.316H33.856L33.644 13H33.316ZM33.964 11.988H35L35.284 11.108H34.244L33.964 11.988ZM38.2195 13V12.256H36.2115V11.888L38.1795 10.116H38.5475V11.928H38.9955V12.256H38.5475V13H38.2195ZM36.6315 11.928H38.2195V10.56L36.6315 11.928ZM41.1414 13V12.256H39.1334V11.888L41.1014 10.116H41.4694V11.928H41.9174V12.256H41.4694V13H41.1414ZM39.5534 11.928H41.1414V10.56L39.5534 11.928ZM42.2593 13V11.92C42.2593 11.8293 42.2806 11.748 42.3233 11.676C42.3659 11.6013 42.4233 11.5427 42.4953 11.5C42.5699 11.4573 42.6526 11.436 42.7433 11.436H44.6833C44.7259 11.436 44.7619 11.4213 44.7913 11.392C44.8233 11.36 44.8393 11.3227 44.8393 11.28V10.604C44.8393 10.5613 44.8233 10.5253 44.7913 10.496C44.7619 10.464 44.7259 10.448 44.6833 10.448H42.7433C42.7006 10.448 42.6633 10.464 42.6313 10.496C42.6019 10.5253 42.5873 10.5613 42.5873 10.604V10.716H42.2593V10.604C42.2593 10.5133 42.2806 10.432 42.3233 10.36C42.3659 10.2853 42.4233 10.2267 42.4953 10.184C42.5699 10.1387 42.6526 10.116 42.7433 10.116H44.6833C44.7713 10.116 44.8513 10.1387 44.9233 10.184C44.9979 10.2267 45.0566 10.2853 45.0993 10.36C45.1446 10.432 45.1673 10.5133 45.1673 10.604V11.28C45.1673 11.368 45.1446 11.4493 45.0993 11.524C45.0566 11.596 44.9979 11.6547 44.9233 11.7C44.8513 11.7427 44.7713 11.764 44.6833 11.764H42.7433C42.7006 11.764 42.6633 11.78 42.6313 11.812C42.6019 11.8413 42.5873 11.8773 42.5873 11.92V12.516C42.5873 12.5587 42.6019 12.596 42.6313 12.628C42.6633 12.6573 42.7006 12.672 42.7433 12.672H45.1673V13H42.2593ZM45.5836 13V10.6C45.5836 10.512 45.6049 10.432 45.6476 10.36C45.6902 10.2853 45.7476 10.2267 45.8196 10.184C45.8942 10.1413 45.9756 10.12 46.0636 10.12H47.9836C48.0716 10.12 48.1516 10.1413 48.2236 10.184C48.2982 10.2267 48.3569 10.2853 48.3996 10.36C48.4422 10.432 48.4636 10.512 48.4636 10.6V13H48.1396V11.948H45.9076V13H45.5836ZM45.9076 11.624H48.1396V10.6C48.1396 10.5573 48.1236 10.5213 48.0916 10.492C48.0622 10.46 48.0262 10.444 47.9836 10.444H46.0636C46.0209 10.444 45.9836 10.46 45.9516 10.492C45.9222 10.5213 45.9076 10.5573 45.9076 10.6V11.624ZM48.9113 10.976V10.648H49.2393V10.976H48.9113ZM48.9113 13V12.672H49.2393V13H48.9113ZM49.7668 10.976V10.648H50.0948V10.976H49.7668ZM49.7668 13V12.672H50.0948V13H49.7668ZM53.0623 13L52.1223 11.88H52.5463L53.4903 12.996V13H53.0623ZM50.6303 13V10.124H53.0303C53.1183 10.124 53.1983 10.1467 53.2703 10.192C53.3449 10.2347 53.4036 10.292 53.4463 10.364C53.4889 10.436 53.5103 10.516 53.5103 10.604V11.448C53.5103 11.536 53.4889 11.616 53.4463 11.688C53.4036 11.76 53.3449 11.8187 53.2703 11.864C53.1983 11.9067 53.1183 11.928 53.0303 11.928H50.9543V13H50.6303ZM51.1103 11.6H53.0303C53.0729 11.6 53.1089 11.5853 53.1383 11.556C53.1703 11.5267 53.1863 11.4907 53.1863 11.448V10.604C53.1863 10.5613 53.1703 10.5253 53.1383 10.496C53.1089 10.464 53.0729 10.448 53.0303 10.448H51.1103C51.0676 10.448 51.0303 10.464 50.9983 10.496C50.9689 10.5253 50.9543 10.5613 50.9543 10.604V11.448C50.9543 11.4907 50.9689 11.5267 50.9983 11.556C51.0303 11.5853 51.0676 11.6 51.1103 11.6ZM53.939 13V10.12H56.567V10.444H54.263V11.396H56.115V11.724H54.263V12.676H56.567V13H53.939ZM58.1295 13V10.444H56.8495V10.12H59.7295V10.444H58.4535V13H58.1295ZM62.4607 13L61.5207 11.88H61.9447L62.8887 12.996V13H62.4607ZM60.0287 13V10.124H62.4287C62.5167 10.124 62.5967 10.1467 62.6687 10.192C62.7434 10.2347 62.802 10.292 62.8447 10.364C62.8874 10.436 62.9087 10.516 62.9087 10.604V11.448C62.9087 11.536 62.8874 11.616 62.8447 11.688C62.802 11.76 62.7434 11.8187 62.6687 11.864C62.5967 11.9067 62.5167 11.928 62.4287 11.928H60.3527V13H60.0287ZM60.5087 11.6H62.4287C62.4714 11.6 62.5074 11.5853 62.5367 11.556C62.5687 11.5267 62.5847 11.4907 62.5847 11.448V10.604C62.5847 10.5613 62.5687 10.5253 62.5367 10.496C62.5074 10.464 62.4714 10.448 62.4287 10.448H60.5087C60.466 10.448 60.4287 10.464 60.3967 10.496C60.3674 10.5253 60.3527 10.5613 60.3527 10.604V11.448C60.3527 11.4907 60.3674 11.5267 60.3967 11.556C60.4287 11.5853 60.466 11.6 60.5087 11.6ZM64.5575 13V11.916L63.2335 10.12H63.6055L64.7215 11.528L65.8255 10.12H66.2055L64.8815 11.916V13H64.5575ZM66.5441 10.976V10.648H66.8721V10.976H66.5441ZM66.5441 13V12.672H66.8721V13H66.5441ZM67.3996 10.976V10.648H67.7276V10.976H67.3996ZM67.3996 13V12.672H67.7276V13H67.3996ZM1.80184 18C1.71118 18 1.62851 17.9787 1.55384 17.936C1.48184 17.8907 1.42451 17.832 1.38184 17.76C1.33918 17.6853 1.31784 17.604 1.31784 17.516V15.608C1.31784 15.5173 1.33918 15.436 1.38184 15.364C1.42451 15.2893 1.48184 15.2307 1.55384 15.188C1.62851 15.1427 1.71118 15.12 1.80184 15.12H3.74184C3.82984 15.12 3.90984 15.1427 3.98184 15.188C4.05651 15.2307 4.11518 15.2893 4.15784 15.364C4.20318 15.436 4.22584 15.5173 4.22584 15.608V17.516C4.22584 17.604 4.20318 17.6853 4.15784 17.76C4.11518 17.832 4.05651 17.8907 3.98184 17.936C3.90984 17.9787 3.82984 18 3.74184 18H1.80184ZM1.68584 17.672H3.74184C3.78451 17.672 3.82051 17.6573 3.84984 17.628C3.88184 17.596 3.89784 17.5587 3.89784 17.516V15.848L1.68584 17.672ZM1.64584 17.276L3.85384 15.452H1.80184C1.75918 15.452 1.72184 15.468 1.68984 15.5C1.66051 15.5293 1.64584 15.5653 1.64584 15.608V17.276ZM5.30178 18V15.488L4.85778 16.02H4.42978L5.18578 15.12H5.63378V18H5.30178ZM6.70028 18C6.60961 18 6.52695 17.9787 6.45228 17.936C6.38028 17.8907 6.32295 17.832 6.28028 17.76C6.23761 17.6853 6.21628 17.604 6.21628 17.516V15.608C6.21628 15.5173 6.23761 15.436 6.28028 15.364C6.32295 15.2893 6.38028 15.2307 6.45228 15.188C6.52695 15.1427 6.60961 15.12 6.70028 15.12H8.64028C8.72828 15.12 8.80828 15.1427 8.88028 15.188C8.95495 15.2307 9.01361 15.2893 9.05628 15.364C9.10161 15.436 9.12428 15.5173 9.12428 15.608V17.516C9.12428 17.604 9.10161 17.6853 9.05628 17.76C9.01361 17.832 8.95495 17.8907 8.88028 17.936C8.80828 17.9787 8.72828 18 8.64028 18H6.70028ZM6.58428 17.672H8.64028C8.68295 17.672 8.71895 17.6573 8.74828 17.628C8.78028 17.596 8.79628 17.5587 8.79628 17.516V15.848L6.58428 17.672ZM6.54428 17.276L8.75228 15.452H6.70028C6.65761 15.452 6.62028 15.468 6.58828 15.5C6.55895 15.5293 6.54428 15.5653 6.54428 15.608V17.276ZM10.2002 18V15.488L9.75622 16.02H9.32822L10.0842 15.12H10.5322V18H10.2002ZM11.1027 15.976V15.648H11.4307V15.976H11.1027ZM11.1027 18V17.672H11.4307V18H11.1027ZM12.4342 18C12.3649 18 12.2982 17.9867 12.2342 17.96C12.1729 17.9307 12.1195 17.892 12.0742 17.844C12.0289 17.7933 11.9955 17.736 11.9742 17.672H14.3742C14.4169 17.672 14.4529 17.6573 14.4822 17.628C14.5142 17.596 14.5302 17.5587 14.5302 17.516V16.936C14.5302 16.8933 14.5142 16.8573 14.4822 16.828C14.4529 16.796 14.4169 16.78 14.3742 16.78H12.4342C12.3435 16.78 12.2609 16.7587 12.1862 16.716C12.1142 16.6707 12.0555 16.612 12.0102 16.54C11.9675 16.4653 11.9462 16.384 11.9462 16.296V15.604C11.9462 15.5133 11.9675 15.432 12.0102 15.36C12.0555 15.2853 12.1142 15.2267 12.1862 15.184C12.2609 15.1387 12.3435 15.116 12.4342 15.116H14.3742C14.4622 15.116 14.5422 15.1387 14.6142 15.184C14.6889 15.2267 14.7475 15.2853 14.7902 15.36C14.8355 15.432 14.8582 15.5133 14.8582 15.604V17.516C14.8582 17.604 14.8355 17.6853 14.7902 17.76C14.7475 17.832 14.6889 17.8907 14.6142 17.936C14.5422 17.9787 14.4622 18 14.3742 18H12.4342ZM12.4342 16.452H14.5302V15.604C14.5302 15.5613 14.5142 15.5253 14.4822 15.496C14.4529 15.464 14.4169 15.448 14.3742 15.448H12.4342C12.3915 15.448 12.3542 15.464 12.3222 15.496C12.2929 15.5253 12.2782 15.5613 12.2782 15.604V16.296C12.2782 16.3387 12.2929 16.376 12.3222 16.408C12.3542 16.4373 12.3915 16.452 12.4342 16.452ZM15.7467 18C15.6774 18 15.6107 17.9867 15.5467 17.96C15.4854 17.9307 15.432 17.892 15.3867 17.844C15.3414 17.7933 15.308 17.736 15.2867 17.672H17.6867C17.7294 17.672 17.7654 17.6573 17.7947 17.628C17.8267 17.596 17.8427 17.5587 17.8427 17.516V16.936C17.8427 16.8933 17.8267 16.8573 17.7947 16.828C17.7654 16.796 17.7294 16.78 17.6867 16.78H15.7467C15.656 16.78 15.5734 16.7587 15.4987 16.716C15.4267 16.6707 15.368 16.612 15.3227 16.54C15.28 16.4653 15.2587 16.384 15.2587 16.296V15.604C15.2587 15.5133 15.28 15.432 15.3227 15.36C15.368 15.2853 15.4267 15.2267 15.4987 15.184C15.5734 15.1387 15.656 15.116 15.7467 15.116H17.6867C17.7747 15.116 17.8547 15.1387 17.9267 15.184C18.0014 15.2267 18.06 15.2853 18.1027 15.36C18.148 15.432 18.1707 15.5133 18.1707 15.604V17.516C18.1707 17.604 18.148 17.6853 18.1027 17.76C18.06 17.832 18.0014 17.8907 17.9267 17.936C17.8547 17.9787 17.7747 18 17.6867 18H15.7467ZM15.7467 16.452H17.8427V15.604C17.8427 15.5613 17.8267 15.5253 17.7947 15.496C17.7654 15.464 17.7294 15.448 17.6867 15.448H15.7467C15.704 15.448 15.6667 15.464 15.6347 15.496C15.6054 15.5253 15.5907 15.5613 15.5907 15.604V16.296C15.5907 16.3387 15.6054 16.376 15.6347 16.408C15.6667 16.4373 15.704 16.452 15.7467 16.452ZM18.5952 18V16.92C18.5952 16.8293 18.6165 16.748 18.6592 16.676C18.7019 16.6013 18.7592 16.5427 18.8312 16.5C18.9059 16.4573 18.9885 16.436 19.0792 16.436H21.0192C21.0619 16.436 21.0979 16.4213 21.1272 16.392C21.1592 16.36 21.1752 16.3227 21.1752 16.28V15.604C21.1752 15.5613 21.1592 15.5253 21.1272 15.496C21.0979 15.464 21.0619 15.448 21.0192 15.448H19.0792C19.0365 15.448 18.9992 15.464 18.9672 15.496C18.9379 15.5253 18.9232 15.5613 18.9232 15.604V15.716H18.5952V15.604C18.5952 15.5133 18.6165 15.432 18.6592 15.36C18.7019 15.2853 18.7592 15.2267 18.8312 15.184C18.9059 15.1387 18.9885 15.116 19.0792 15.116H21.0192C21.1072 15.116 21.1872 15.1387 21.2592 15.184C21.3339 15.2267 21.3925 15.2853 21.4352 15.36C21.4805 15.432 21.5032 15.5133 21.5032 15.604V16.28C21.5032 16.368 21.4805 16.4493 21.4352 16.524C21.3925 16.596 21.3339 16.6547 21.2592 16.7C21.1872 16.7427 21.1072 16.764 21.0192 16.764H19.0792C19.0365 16.764 18.9992 16.78 18.9672 16.812C18.9379 16.8413 18.9232 16.8773 18.9232 16.92V17.516C18.9232 17.5587 18.9379 17.596 18.9672 17.628C18.9992 17.6573 19.0365 17.672 19.0792 17.672H21.5032V18H18.5952ZM22.5635 18V15.488L22.1195 16.02H21.6915L22.4475 15.12H22.8955V18H22.5635ZM23.466 15.976V15.648H23.794V15.976H23.466ZM23.466 18V17.672H23.794V18H23.466ZM24.3375 18V15.12H26.9655V15.444H24.6615V16.396H26.5135V16.724H24.6615V18H24.3375ZM27.2281 18V15.12H29.8561V15.444H27.5521V16.396H29.4041V16.724H27.5521V18H27.2281ZM30.5867 18C30.4961 18 30.4134 17.9787 30.3387 17.936C30.2667 17.8907 30.2081 17.832 30.1627 17.76C30.1201 17.6853 30.0987 17.604 30.0987 17.516V17.452H30.4307V17.516C30.4307 17.5587 30.4454 17.596 30.4747 17.628C30.5067 17.6573 30.5441 17.672 30.5867 17.672H32.5267C32.5694 17.672 32.6054 17.6573 32.6347 17.628C32.6667 17.596 32.6827 17.5587 32.6827 17.516V16.848C32.6827 16.8053 32.6667 16.7693 32.6347 16.74C32.6054 16.708 32.5694 16.692 32.5267 16.692H30.6507V16.364H32.3987C32.4414 16.364 32.4774 16.3493 32.5067 16.32C32.5387 16.288 32.5547 16.2507 32.5547 16.208V15.604C32.5547 15.5613 32.5387 15.5253 32.5067 15.496C32.4774 15.464 32.4414 15.448 32.3987 15.448H30.5867C30.5441 15.448 30.5067 15.464 30.4747 15.496C30.4454 15.5253 30.4307 15.5613 30.4307 15.604V15.708H30.0987V15.604C30.0987 15.5133 30.1201 15.432 30.1627 15.36C30.2081 15.2853 30.2667 15.2267 30.3387 15.184C30.4134 15.1387 30.4961 15.116 30.5867 15.116H32.3987C32.4894 15.116 32.5707 15.1387 32.6427 15.184C32.7174 15.2267 32.7761 15.2853 32.8187 15.36C32.8614 15.432 32.8827 15.5133 32.8827 15.604V16.208C32.8827 16.2453 32.8774 16.2827 32.8667 16.32C32.8587 16.3547 32.8481 16.3867 32.8347 16.416C32.9014 16.48 32.9467 16.5507 32.9707 16.628C32.9974 16.7053 33.0107 16.7787 33.0107 16.848V17.516C33.0107 17.604 32.9881 17.6853 32.9427 17.76C32.9001 17.832 32.8414 17.8907 32.7667 17.936C32.6947 17.9787 32.6147 18 32.5267 18H30.5867ZM35.2234 18V17.256H33.2154V16.888L35.1834 15.116H35.5514V16.928H35.9994V17.256H35.5514V18H35.2234ZM33.6354 16.928H35.2234V15.56L33.6354 16.928ZM36.3293 15.976V15.648H36.6573V15.976H36.3293ZM36.3293 18V17.672H36.6573V18H36.3293ZM37.2008 18V15.6C37.2008 15.512 37.2221 15.432 37.2648 15.36C37.3074 15.2853 37.3648 15.2267 37.4368 15.184C37.5114 15.1413 37.5928 15.12 37.6808 15.12H39.6008C39.6888 15.12 39.7688 15.1413 39.8408 15.184C39.9154 15.2267 39.9741 15.2853 40.0168 15.36C40.0594 15.432 40.0808 15.512 40.0808 15.6V18H39.7568V16.948H37.5248V18H37.2008ZM37.5248 16.624H39.7568V15.6C39.7568 15.5573 39.7408 15.5213 39.7088 15.492C39.6794 15.46 39.6434 15.444 39.6008 15.444H37.6808C37.6381 15.444 37.6008 15.46 37.5688 15.492C37.5394 15.5213 37.5248 15.5573 37.5248 15.6V16.624ZM41.1885 18V15.488L40.7445 16.02H40.3165L41.0725 15.12H41.5205V18H41.1885ZM42.575 18C42.4843 18 42.4017 17.9787 42.327 17.936C42.255 17.8907 42.1963 17.832 42.151 17.76C42.1083 17.6853 42.087 17.604 42.087 17.516V17.452H42.419V17.516C42.419 17.5587 42.4337 17.596 42.463 17.628C42.495 17.6573 42.5323 17.672 42.575 17.672H44.515C44.5577 17.672 44.5937 17.6573 44.623 17.628C44.655 17.596 44.671 17.5587 44.671 17.516V16.848C44.671 16.8053 44.655 16.7693 44.623 16.74C44.5937 16.708 44.5577 16.692 44.515 16.692H42.639V16.364H44.387C44.4297 16.364 44.4657 16.3493 44.495 16.32C44.527 16.288 44.543 16.2507 44.543 16.208V15.604C44.543 15.5613 44.527 15.5253 44.495 15.496C44.4657 15.464 44.4297 15.448 44.387 15.448H42.575C42.5323 15.448 42.495 15.464 42.463 15.496C42.4337 15.5253 42.419 15.5613 42.419 15.604V15.708H42.087V15.604C42.087 15.5133 42.1083 15.432 42.151 15.36C42.1963 15.2853 42.255 15.2267 42.327 15.184C42.4017 15.1387 42.4843 15.116 42.575 15.116H44.387C44.4777 15.116 44.559 15.1387 44.631 15.184C44.7057 15.2267 44.7643 15.2853 44.807 15.36C44.8497 15.432 44.871 15.5133 44.871 15.604V16.208C44.871 16.2453 44.8657 16.2827 44.855 16.32C44.847 16.3547 44.8363 16.3867 44.823 16.416C44.8897 16.48 44.935 16.5507 44.959 16.628C44.9857 16.7053 44.999 16.7787 44.999 16.848V17.516C44.999 17.604 44.9763 17.6853 44.931 17.76C44.8883 17.832 44.8297 17.8907 44.755 17.936C44.683 17.9787 44.603 18 44.515 18H42.575ZM45.4157 18V15.12H47.6917C47.7797 15.12 47.8597 15.1413 47.9317 15.184C48.0064 15.2267 48.065 15.2853 48.1077 15.36C48.1504 15.432 48.1717 15.512 48.1717 15.6V16.212C48.1717 16.2493 48.1664 16.2867 48.1557 16.324C48.1477 16.3587 48.1357 16.392 48.1197 16.424C48.1784 16.512 48.2224 16.588 48.2517 16.652C48.281 16.716 48.2957 16.7813 48.2957 16.848V17.52C48.2957 17.608 48.2744 17.6893 48.2317 17.764C48.189 17.836 48.1304 17.8933 48.0557 17.936C47.9837 17.9787 47.9037 18 47.8157 18H45.4157ZM45.8957 17.676H47.8157C47.8584 17.676 47.8944 17.6613 47.9237 17.632C47.9557 17.6 47.9717 17.5627 47.9717 17.52V16.848C47.9717 16.8053 47.9557 16.7693 47.9237 16.74C47.8944 16.708 47.8584 16.692 47.8157 16.692H45.8957C45.853 16.692 45.8157 16.708 45.7837 16.74C45.7544 16.7693 45.7397 16.8053 45.7397 16.848V17.52C45.7397 17.5627 45.7544 17.6 45.7837 17.632C45.8157 17.6613 45.853 17.676 45.8957 17.676ZM45.8957 16.368H47.6917C47.7344 16.368 47.7704 16.3533 47.7997 16.324C47.829 16.292 47.8437 16.2547 47.8437 16.212V15.6C47.8437 15.5573 47.829 15.5213 47.7997 15.492C47.7704 15.46 47.7344 15.444 47.6917 15.444H45.8957C45.853 15.444 45.8157 15.46 45.7837 15.492C45.7544 15.5213 45.7397 15.5573 45.7397 15.6V16.212C45.7397 16.2547 45.7544 16.292 45.7837 16.324C45.8157 16.3533 45.853 16.368 45.8957 16.368Z" fill="#EB2941"/>
</svg>
