<svg width="605" height="11" viewBox="0 0 605 11" fill="none" xmlns="http://www.w3.org/2000/svg">
<path d="M539.5 5H1V10.5L599.5 10L603.5 5H560L558 3H541.5L539.5 5Z" fill="#55EAD4" stroke="#55EAD4"/>
<path d="M405.171 3V2.181C405.171 2.107 405.188 2.041 405.222 1.983C405.258 1.925 405.305 1.879 405.363 1.845C405.423 1.809 405.489 1.791 405.561 1.791H406.932C406.952 1.791 406.969 1.784 406.983 1.77C406.999 1.754 407.007 1.736 407.007 1.716V1.239C407.007 1.219 406.999 1.202 406.983 1.188C406.969 1.172 406.952 1.164 406.932 1.164H405.57C405.55 1.164 405.532 1.172 405.516 1.188C405.502 1.202 405.495 1.219 405.495 1.239V1.356H405.171V1.23C405.171 1.156 405.188 1.09 405.222 1.032C405.258 0.974 405.305 0.927 405.363 0.891C405.423 0.855 405.489 0.837 405.561 0.837H406.941C407.011 0.837 407.075 0.855 407.133 0.891C407.193 0.927 407.241 0.974 407.277 1.032C407.313 1.09 407.331 1.156 407.331 1.23V1.725C407.331 1.797 407.313 1.863 407.277 1.923C407.241 1.981 407.193 2.028 407.133 2.064C407.075 2.098 407.011 2.115 406.941 2.115H405.57C405.55 2.115 405.532 2.123 405.516 2.139C405.502 2.153 405.495 2.17 405.495 2.19V2.601C405.495 2.621 405.502 2.639 405.516 2.655C405.532 2.669 405.55 2.676 405.57 2.676H407.331V3H405.171ZM408.975 3V1.236C408.975 1.216 408.967 1.199 408.951 1.185C408.937 1.171 408.92 1.164 408.9 1.164H407.499V0.837H408.909C408.981 0.837 409.046 0.855 409.104 0.891C409.164 0.925 409.211 0.972 409.245 1.032C409.281 1.09 409.299 1.155 409.299 1.227V3H408.975ZM410.023 3C409.949 3 409.883 2.982 409.825 2.946C409.767 2.91 409.72 2.863 409.684 2.805C409.648 2.747 409.63 2.682 409.63 2.61V2.52H409.957V2.601C409.957 2.621 409.964 2.639 409.978 2.655C409.992 2.669 410.009 2.676 410.029 2.676H411.394C411.414 2.676 411.431 2.669 411.445 2.655C411.459 2.639 411.466 2.621 411.466 2.601V2.139C411.466 2.119 411.459 2.102 411.445 2.088C411.431 2.072 411.414 2.064 411.394 2.064H410.023V1.74H411.301C411.323 1.74 411.341 1.733 411.355 1.719C411.369 1.703 411.376 1.685 411.376 1.665V1.239C411.376 1.219 411.369 1.202 411.355 1.188C411.341 1.172 411.323 1.164 411.301 1.164H410.029C410.009 1.164 409.992 1.172 409.978 1.188C409.964 1.202 409.957 1.219 409.957 1.239V1.35H409.63V1.23C409.63 1.156 409.647 1.09 409.681 1.032C409.717 0.974 409.765 0.927 409.825 0.891C409.885 0.855 409.951 0.837 410.023 0.837H411.31C411.384 0.837 411.45 0.855 411.508 0.891C411.568 0.927 411.615 0.974 411.649 1.032C411.683 1.09 411.7 1.156 411.7 1.23V1.674C411.7 1.7 411.697 1.726 411.691 1.752C411.687 1.778 411.68 1.802 411.67 1.824C411.714 1.868 411.745 1.917 411.763 1.971C411.781 2.025 411.79 2.078 411.79 2.13V2.61C411.79 2.682 411.772 2.747 411.736 2.805C411.702 2.863 411.655 2.91 411.595 2.946C411.537 2.982 411.473 3 411.403 3H410.023ZM412.12 3V2.181C412.12 2.107 412.137 2.041 412.171 1.983C412.207 1.925 412.254 1.879 412.312 1.845C412.372 1.809 412.438 1.791 412.51 1.791H413.881C413.901 1.791 413.918 1.784 413.932 1.77C413.948 1.754 413.956 1.736 413.956 1.716V1.239C413.956 1.219 413.948 1.202 413.932 1.188C413.918 1.172 413.901 1.164 413.881 1.164H412.519C412.499 1.164 412.481 1.172 412.465 1.188C412.451 1.202 412.444 1.219 412.444 1.239V1.356H412.12V1.23C412.12 1.156 412.137 1.09 412.171 1.032C412.207 0.974 412.254 0.927 412.312 0.891C412.372 0.855 412.438 0.837 412.51 0.837H413.89C413.96 0.837 414.024 0.855 414.082 0.891C414.142 0.927 414.19 0.974 414.226 1.032C414.262 1.09 414.28 1.156 414.28 1.23V1.725C414.28 1.797 414.262 1.863 414.226 1.923C414.19 1.981 414.142 2.028 414.082 2.064C414.024 2.098 413.96 2.115 413.89 2.115H412.519C412.499 2.115 412.481 2.123 412.465 2.139C412.451 2.153 412.444 2.17 412.444 2.19V2.601C412.444 2.621 412.451 2.639 412.465 2.655C412.481 2.669 412.499 2.676 412.519 2.676H414.28V3H412.12ZM415.487 2.274V1.95H416.687V2.274H415.487ZM417.903 3V0.84H419.67C419.742 0.84 419.808 0.858 419.868 0.894C419.928 0.928 419.975 0.975 420.009 1.035C420.045 1.093 420.063 1.158 420.063 1.23V2.61C420.063 2.682 420.045 2.748 420.009 2.808C419.975 2.866 419.928 2.913 419.868 2.949C419.808 2.983 419.742 3 419.67 3H417.903ZM418.299 2.676H419.664C419.684 2.676 419.701 2.669 419.715 2.655C419.729 2.639 419.736 2.621 419.736 2.601V1.239C419.736 1.219 419.729 1.202 419.715 1.188C419.701 1.172 419.684 1.164 419.664 1.164H418.299C418.279 1.164 418.262 1.172 418.248 1.188C418.234 1.202 418.227 1.219 418.227 1.239V2.601C418.227 2.621 418.234 2.639 418.248 2.655C418.262 2.669 418.279 2.676 418.299 2.676ZM420.405 3V0.84H422.385V1.164H420.732V1.758H422.061V2.082H420.732V2.676H422.385V3H420.405ZM422.699 3V0.837H423.023V2.676H424.859V3H422.699ZM425.844 3V1.164H424.926V0.84H427.086V1.164H426.168V3H425.844ZM427.317 3V1.23C427.317 1.158 427.334 1.093 427.368 1.035C427.404 0.975 427.451 0.928 427.509 0.894C427.569 0.858 427.635 0.84 427.707 0.84H429.084C429.156 0.84 429.222 0.858 429.282 0.894C429.342 0.928 429.389 0.975 429.423 1.035C429.459 1.093 429.477 1.158 429.477 1.23V3H429.15V2.244H427.641V3H427.317ZM427.641 1.92H429.15V1.239C429.15 1.219 429.143 1.202 429.129 1.188C429.115 1.172 429.098 1.164 429.078 1.164H427.716C427.696 1.164 427.678 1.172 427.662 1.188C427.648 1.202 427.641 1.219 427.641 1.239V1.92ZM430.698 2.274V1.95H431.898V2.274H430.698ZM433.489 3C433.429 3 433.373 2.986 433.321 2.958C433.269 2.93 433.224 2.892 433.186 2.844C433.148 2.794 433.121 2.738 433.105 2.676H434.86C434.88 2.676 434.897 2.669 434.911 2.655C434.927 2.639 434.935 2.621 434.935 2.601V2.187C434.935 2.165 434.927 2.147 434.911 2.133C434.897 2.119 434.88 2.112 434.86 2.112H433.489C433.415 2.112 433.349 2.094 433.291 2.058C433.233 2.022 433.186 1.975 433.15 1.917C433.114 1.857 433.096 1.792 433.096 1.722V1.23C433.096 1.156 433.114 1.09 433.15 1.032C433.186 0.974 433.233 0.927 433.291 0.891C433.351 0.855 433.417 0.837 433.489 0.837H434.869C434.939 0.837 435.003 0.855 435.061 0.891C435.121 0.927 435.168 0.974 435.202 1.032C435.238 1.09 435.256 1.156 435.256 1.23V2.61C435.256 2.682 435.238 2.747 435.202 2.805C435.168 2.863 435.121 2.91 435.061 2.946C435.003 2.982 434.939 3 434.869 3H433.489ZM433.498 1.785H434.935V1.239C434.935 1.219 434.927 1.202 434.911 1.188C434.897 1.172 434.88 1.164 434.86 1.164H433.498C433.478 1.164 433.46 1.172 433.444 1.188C433.43 1.202 433.423 1.219 433.423 1.239V1.713C433.423 1.733 433.43 1.75 433.444 1.764C433.46 1.778 433.478 1.785 433.498 1.785ZM435.986 3C435.914 3 435.848 2.982 435.788 2.946C435.73 2.91 435.683 2.863 435.647 2.805C435.613 2.747 435.596 2.682 435.596 2.61V2.121C435.596 2.083 435.603 2.045 435.617 2.007C435.631 1.967 435.649 1.929 435.671 1.893C435.649 1.857 435.631 1.82 435.617 1.782C435.603 1.742 435.596 1.703 435.596 1.665V1.23C435.596 1.156 435.613 1.09 435.647 1.032C435.683 0.974 435.73 0.927 435.788 0.891C435.848 0.855 435.914 0.837 435.986 0.837H437.366C437.426 0.837 437.483 0.852 437.537 0.882C437.591 0.912 437.637 0.952 437.675 1.002C437.715 1.052 437.742 1.106 437.756 1.164V1.665C437.756 1.741 437.73 1.817 437.678 1.893C437.73 1.965 437.756 2.041 437.756 2.121V2.61C437.756 2.682 437.738 2.747 437.702 2.805C437.666 2.863 437.618 2.91 437.558 2.946C437.5 2.982 437.436 3 437.366 3H435.986ZM435.995 2.676H437.357C437.377 2.676 437.394 2.669 437.408 2.655C437.424 2.639 437.432 2.621 437.432 2.601V2.13C437.432 2.11 437.424 2.093 437.408 2.079C437.394 2.063 437.377 2.055 437.357 2.055H435.995C435.975 2.055 435.957 2.063 435.941 2.079C435.927 2.093 435.92 2.11 435.92 2.13V2.601C435.92 2.621 435.927 2.639 435.941 2.655C435.957 2.669 435.975 2.676 435.995 2.676ZM435.995 1.764H437.357C437.377 1.764 437.394 1.757 437.408 1.743C437.424 1.727 437.432 1.709 437.432 1.689V1.242C437.432 1.222 437.424 1.205 437.408 1.191C437.394 1.175 437.377 1.167 437.357 1.167H435.995C435.975 1.167 435.957 1.175 435.941 1.191C435.927 1.205 435.92 1.222 435.92 1.242V1.689C435.92 1.709 435.927 1.727 435.941 1.743C435.957 1.757 435.975 1.764 435.995 1.764ZM439.412 3V1.236C439.412 1.216 439.404 1.199 439.388 1.185C439.374 1.171 439.357 1.164 439.337 1.164H437.936V0.837H439.346C439.418 0.837 439.483 0.855 439.541 0.891C439.601 0.925 439.648 0.972 439.682 1.032C439.718 1.09 439.736 1.155 439.736 1.227V3H439.412ZM440.468 3C440.396 3 440.33 2.982 440.27 2.946C440.212 2.91 440.165 2.863 440.129 2.805C440.095 2.747 440.078 2.682 440.078 2.61V1.23C440.078 1.156 440.095 1.09 440.129 1.032C440.165 0.974 440.212 0.927 440.27 0.891C440.33 0.855 440.396 0.837 440.468 0.837H441.878V1.164H440.477C440.457 1.164 440.439 1.172 440.423 1.188C440.409 1.202 440.402 1.219 440.402 1.239V1.65C440.402 1.67 440.409 1.688 440.423 1.704C440.439 1.718 440.457 1.725 440.477 1.725H441.848C441.918 1.725 441.982 1.743 442.04 1.779C442.1 1.813 442.148 1.86 442.184 1.92C442.22 1.978 442.238 2.043 442.238 2.115V2.61C442.238 2.682 442.22 2.747 442.184 2.805C442.148 2.863 442.1 2.91 442.04 2.946C441.982 2.982 441.918 3 441.848 3H440.468ZM440.477 2.676H441.839C441.859 2.676 441.876 2.669 441.89 2.655C441.906 2.639 441.914 2.621 441.914 2.601V2.124C441.914 2.104 441.906 2.087 441.89 2.073C441.876 2.057 441.859 2.049 441.839 2.049H440.402V2.601C440.402 2.621 440.409 2.639 440.423 2.655C440.439 2.669 440.457 2.676 440.477 2.676ZM443.4 1.569V1.245H443.724V1.569H443.4ZM443.4 3V2.676H443.724V3H443.4ZM444.077 1.569V1.245H444.401V1.569H444.077ZM444.077 3V2.676H444.401V3H444.077ZM446.008 3C445.938 3 445.873 2.983 445.813 2.949C445.753 2.913 445.705 2.866 445.669 2.808C445.635 2.748 445.618 2.682 445.618 2.61V2.484H445.942V2.601C445.942 2.621 445.949 2.639 445.963 2.655C445.979 2.669 445.997 2.676 446.017 2.676H447.379C447.399 2.676 447.416 2.669 447.43 2.655C447.444 2.639 447.451 2.621 447.451 2.601V2.157C447.451 2.135 447.444 2.117 447.43 2.103C447.416 2.089 447.399 2.082 447.379 2.082H446.008C445.938 2.082 445.873 2.065 445.813 2.031C445.753 1.995 445.705 1.948 445.669 1.89C445.635 1.83 445.618 1.764 445.618 1.692V1.23C445.618 1.158 445.635 1.093 445.669 1.035C445.705 0.975 445.753 0.928 445.813 0.894C445.873 0.858 445.938 0.84 446.008 0.84H447.388C447.458 0.84 447.523 0.858 447.583 0.894C447.643 0.928 447.69 0.975 447.724 1.035C447.76 1.093 447.778 1.158 447.778 1.23V1.356H447.451V1.239C447.451 1.219 447.444 1.202 447.43 1.188C447.416 1.172 447.399 1.164 447.379 1.164H446.017C445.997 1.164 445.979 1.172 445.963 1.188C445.949 1.202 445.942 1.219 445.942 1.239V1.683C445.942 1.705 445.949 1.723 445.963 1.737C445.979 1.751 445.997 1.758 446.017 1.758H447.388C447.458 1.758 447.523 1.776 447.583 1.812C447.643 1.846 447.69 1.893 447.724 1.953C447.76 2.011 447.778 2.076 447.778 2.148V2.61C447.778 2.682 447.76 2.748 447.724 2.808C447.69 2.866 447.643 2.913 447.583 2.949C447.523 2.983 447.458 3 447.388 3H446.008ZM448.481 3C448.411 3 448.346 2.983 448.286 2.949C448.226 2.913 448.178 2.866 448.142 2.808C448.108 2.748 448.091 2.682 448.091 2.61V2.484H448.415V2.601C448.415 2.621 448.422 2.639 448.436 2.655C448.452 2.669 448.47 2.676 448.49 2.676H449.852C449.872 2.676 449.889 2.669 449.903 2.655C449.917 2.639 449.924 2.621 449.924 2.601V2.157C449.924 2.135 449.917 2.117 449.903 2.103C449.889 2.089 449.872 2.082 449.852 2.082H448.481C448.411 2.082 448.346 2.065 448.286 2.031C448.226 1.995 448.178 1.948 448.142 1.89C448.108 1.83 448.091 1.764 448.091 1.692V1.23C448.091 1.158 448.108 1.093 448.142 1.035C448.178 0.975 448.226 0.928 448.286 0.894C448.346 0.858 448.411 0.84 448.481 0.84H449.861C449.931 0.84 449.996 0.858 450.056 0.894C450.116 0.928 450.163 0.975 450.197 1.035C450.233 1.093 450.251 1.158 450.251 1.23V1.356H449.924V1.239C449.924 1.219 449.917 1.202 449.903 1.188C449.889 1.172 449.872 1.164 449.852 1.164H448.49C448.47 1.164 448.452 1.172 448.436 1.188C448.422 1.202 448.415 1.219 448.415 1.239V1.683C448.415 1.705 448.422 1.723 448.436 1.737C448.452 1.751 448.47 1.758 448.49 1.758H449.861C449.931 1.758 449.996 1.776 450.056 1.812C450.116 1.846 450.163 1.893 450.197 1.953C450.233 2.011 450.251 2.076 450.251 2.148V2.61C450.251 2.682 450.233 2.748 450.197 2.808C450.163 2.866 450.116 2.913 450.056 2.949C449.996 2.983 449.931 3 449.861 3H448.481ZM450.575 3V0.84H450.962L451.799 1.836L452.633 0.84H453.023V3H452.696V1.275L451.799 2.343L450.899 1.275V3H450.575ZM453.364 3V1.23C453.364 1.158 453.381 1.093 453.415 1.035C453.451 0.975 453.498 0.928 453.556 0.894C453.616 0.858 453.682 0.84 453.754 0.84H455.131C455.203 0.84 455.269 0.858 455.329 0.894C455.389 0.928 455.436 0.975 455.47 1.035C455.506 1.093 455.524 1.158 455.524 1.23V3H455.197V2.244H453.688V3H453.364ZM453.688 1.92H455.197V1.239C455.197 1.219 455.19 1.202 455.176 1.188C455.162 1.172 455.145 1.164 455.125 1.164H453.763C453.743 1.164 453.725 1.172 453.709 1.188C453.695 1.202 453.688 1.219 453.688 1.239V1.92ZM456.73 1.569V1.245H457.054V1.569H456.73ZM456.73 3V2.676H457.054V3H456.73ZM457.407 1.569V1.245H457.731V1.569H457.407ZM457.407 3V2.676H457.731V3H457.407ZM459.344 3C459.27 3 459.204 2.982 459.146 2.946C459.088 2.91 459.041 2.863 459.005 2.805C458.969 2.747 458.951 2.682 458.951 2.61V2.52H459.278V2.601C459.278 2.621 459.285 2.639 459.299 2.655C459.313 2.669 459.33 2.676 459.35 2.676H460.715C460.735 2.676 460.752 2.669 460.766 2.655C460.78 2.639 460.787 2.621 460.787 2.601V2.139C460.787 2.119 460.78 2.102 460.766 2.088C460.752 2.072 460.735 2.064 460.715 2.064H459.344V1.74H460.622C460.644 1.74 460.662 1.733 460.676 1.719C460.69 1.703 460.697 1.685 460.697 1.665V1.239C460.697 1.219 460.69 1.202 460.676 1.188C460.662 1.172 460.644 1.164 460.622 1.164H459.35C459.33 1.164 459.313 1.172 459.299 1.188C459.285 1.202 459.278 1.219 459.278 1.239V1.35H458.951V1.23C458.951 1.156 458.968 1.09 459.002 1.032C459.038 0.974 459.086 0.927 459.146 0.891C459.206 0.855 459.272 0.837 459.344 0.837H460.631C460.705 0.837 460.771 0.855 460.829 0.891C460.889 0.927 460.936 0.974 460.97 1.032C461.004 1.09 461.021 1.156 461.021 1.23V1.674C461.021 1.7 461.018 1.726 461.012 1.752C461.008 1.778 461.001 1.802 460.991 1.824C461.035 1.868 461.066 1.917 461.084 1.971C461.102 2.025 461.111 2.078 461.111 2.13V2.61C461.111 2.682 461.093 2.747 461.057 2.805C461.023 2.863 460.976 2.91 460.916 2.946C460.858 2.982 460.794 3 460.724 3H459.344ZM461.442 3V2.181C461.442 2.107 461.459 2.041 461.493 1.983C461.529 1.925 461.576 1.879 461.634 1.845C461.694 1.809 461.76 1.791 461.832 1.791H463.203C463.223 1.791 463.24 1.784 463.254 1.77C463.27 1.754 463.278 1.736 463.278 1.716V1.239C463.278 1.219 463.27 1.202 463.254 1.188C463.24 1.172 463.223 1.164 463.203 1.164H461.841C461.821 1.164 461.803 1.172 461.787 1.188C461.773 1.202 461.766 1.219 461.766 1.239V1.356H461.442V1.23C461.442 1.156 461.459 1.09 461.493 1.032C461.529 0.974 461.576 0.927 461.634 0.891C461.694 0.855 461.76 0.837 461.832 0.837H463.212C463.282 0.837 463.346 0.855 463.404 0.891C463.464 0.927 463.512 0.974 463.548 1.032C463.584 1.09 463.602 1.156 463.602 1.23V1.725C463.602 1.797 463.584 1.863 463.548 1.923C463.512 1.981 463.464 2.028 463.404 2.064C463.346 2.098 463.282 2.115 463.212 2.115H461.841C461.821 2.115 461.803 2.123 461.787 2.139C461.773 2.153 461.766 2.17 461.766 2.19V2.601C461.766 2.621 461.773 2.639 461.787 2.655C461.803 2.669 461.821 2.676 461.841 2.676H463.602V3H461.442ZM465.207 3V2.451H463.779V2.124L465.207 0.837H465.531V2.124H465.849V2.451H465.531V3H465.207ZM464.253 2.124H465.207V1.311L464.253 2.124ZM466.123 3V2.181C466.123 2.107 466.14 2.041 466.174 1.983C466.21 1.925 466.257 1.879 466.315 1.845C466.375 1.809 466.441 1.791 466.513 1.791H467.884C467.904 1.791 467.921 1.784 467.935 1.77C467.951 1.754 467.959 1.736 467.959 1.716V1.239C467.959 1.219 467.951 1.202 467.935 1.188C467.921 1.172 467.904 1.164 467.884 1.164H466.522C466.502 1.164 466.484 1.172 466.468 1.188C466.454 1.202 466.447 1.219 466.447 1.239V1.356H466.123V1.23C466.123 1.156 466.14 1.09 466.174 1.032C466.21 0.974 466.257 0.927 466.315 0.891C466.375 0.855 466.441 0.837 466.513 0.837H467.893C467.963 0.837 468.027 0.855 468.085 0.891C468.145 0.927 468.193 0.974 468.229 1.032C468.265 1.09 468.283 1.156 468.283 1.23V1.725C468.283 1.797 468.265 1.863 468.229 1.923C468.193 1.981 468.145 2.028 468.085 2.064C468.027 2.098 467.963 2.115 467.893 2.115H466.522C466.502 2.115 466.484 2.123 466.468 2.139C466.454 2.153 466.447 2.17 466.447 2.19V2.601C466.447 2.621 466.454 2.639 466.468 2.655C466.484 2.669 466.502 2.676 466.522 2.676H468.283V3H466.123ZM469.475 1.569V1.245H469.799V1.569H469.475ZM469.475 3V2.676H469.799V3H469.475ZM470.151 1.569V1.245H470.475V1.569H470.151ZM470.151 3V2.676H470.475V3H470.151ZM472.085 3C472.025 3 471.969 2.986 471.917 2.958C471.865 2.93 471.82 2.892 471.782 2.844C471.744 2.794 471.717 2.738 471.701 2.676H473.456C473.476 2.676 473.493 2.669 473.507 2.655C473.523 2.639 473.531 2.621 473.531 2.601V2.187C473.531 2.165 473.523 2.147 473.507 2.133C473.493 2.119 473.476 2.112 473.456 2.112H472.085C472.011 2.112 471.945 2.094 471.887 2.058C471.829 2.022 471.782 1.975 471.746 1.917C471.71 1.857 471.692 1.792 471.692 1.722V1.23C471.692 1.156 471.71 1.09 471.746 1.032C471.782 0.974 471.829 0.927 471.887 0.891C471.947 0.855 472.013 0.837 472.085 0.837H473.465C473.535 0.837 473.599 0.855 473.657 0.891C473.717 0.927 473.764 0.974 473.798 1.032C473.834 1.09 473.852 1.156 473.852 1.23V2.61C473.852 2.682 473.834 2.747 473.798 2.805C473.764 2.863 473.717 2.91 473.657 2.946C473.599 2.982 473.535 3 473.465 3H472.085ZM472.094 1.785H473.531V1.239C473.531 1.219 473.523 1.202 473.507 1.188C473.493 1.172 473.476 1.164 473.456 1.164H472.094C472.074 1.164 472.056 1.172 472.04 1.188C472.026 1.202 472.019 1.219 472.019 1.239V1.713C472.019 1.733 472.026 1.75 472.04 1.764C472.056 1.778 472.074 1.785 472.094 1.785ZM474.57 3C474.51 3 474.454 2.986 474.402 2.958C474.35 2.93 474.305 2.892 474.267 2.844C474.229 2.794 474.202 2.738 474.186 2.676H475.941C475.961 2.676 475.978 2.669 475.992 2.655C476.008 2.639 476.016 2.621 476.016 2.601V2.187C476.016 2.165 476.008 2.147 475.992 2.133C475.978 2.119 475.961 2.112 475.941 2.112H474.57C474.496 2.112 474.43 2.094 474.372 2.058C474.314 2.022 474.267 1.975 474.231 1.917C474.195 1.857 474.177 1.792 474.177 1.722V1.23C474.177 1.156 474.195 1.09 474.231 1.032C474.267 0.974 474.314 0.927 474.372 0.891C474.432 0.855 474.498 0.837 474.57 0.837H475.95C476.02 0.837 476.084 0.855 476.142 0.891C476.202 0.927 476.249 0.974 476.283 1.032C476.319 1.09 476.337 1.156 476.337 1.23V2.61C476.337 2.682 476.319 2.747 476.283 2.805C476.249 2.863 476.202 2.91 476.142 2.946C476.084 2.982 476.02 3 475.95 3H474.57ZM474.579 1.785H476.016V1.239C476.016 1.219 476.008 1.202 475.992 1.188C475.978 1.172 475.961 1.164 475.941 1.164H474.579C474.559 1.164 474.541 1.172 474.525 1.188C474.511 1.202 474.504 1.219 474.504 1.239V1.713C474.504 1.733 474.511 1.75 474.525 1.764C474.541 1.778 474.559 1.785 474.579 1.785ZM477.054 3C476.994 3 476.938 2.986 476.886 2.958C476.834 2.93 476.789 2.892 476.751 2.844C476.713 2.794 476.686 2.738 476.67 2.676H478.425C478.445 2.676 478.462 2.669 478.476 2.655C478.492 2.639 478.5 2.621 478.5 2.601V2.187C478.5 2.165 478.492 2.147 478.476 2.133C478.462 2.119 478.445 2.112 478.425 2.112H477.054C476.98 2.112 476.914 2.094 476.856 2.058C476.798 2.022 476.751 1.975 476.715 1.917C476.679 1.857 476.661 1.792 476.661 1.722V1.23C476.661 1.156 476.679 1.09 476.715 1.032C476.751 0.974 476.798 0.927 476.856 0.891C476.916 0.855 476.982 0.837 477.054 0.837H478.434C478.504 0.837 478.568 0.855 478.626 0.891C478.686 0.927 478.733 0.974 478.767 1.032C478.803 1.09 478.821 1.156 478.821 1.23V2.61C478.821 2.682 478.803 2.747 478.767 2.805C478.733 2.863 478.686 2.91 478.626 2.946C478.568 2.982 478.504 3 478.434 3H477.054ZM477.063 1.785H478.5V1.239C478.5 1.219 478.492 1.202 478.476 1.188C478.462 1.172 478.445 1.164 478.425 1.164H477.063C477.043 1.164 477.025 1.172 477.009 1.188C476.995 1.202 476.988 1.219 476.988 1.239V1.713C476.988 1.733 476.995 1.75 477.009 1.764C477.025 1.778 477.043 1.785 477.063 1.785ZM479.55 3C479.478 3 479.412 2.982 479.352 2.946C479.294 2.91 479.247 2.863 479.211 2.805C479.177 2.747 479.16 2.682 479.16 2.61V2.121C479.16 2.083 479.167 2.045 479.181 2.007C479.195 1.967 479.213 1.929 479.235 1.893C479.213 1.857 479.195 1.82 479.181 1.782C479.167 1.742 479.16 1.703 479.16 1.665V1.23C479.16 1.156 479.177 1.09 479.211 1.032C479.247 0.974 479.294 0.927 479.352 0.891C479.412 0.855 479.478 0.837 479.55 0.837H480.93C480.99 0.837 481.047 0.852 481.101 0.882C481.155 0.912 481.201 0.952 481.239 1.002C481.279 1.052 481.306 1.106 481.32 1.164V1.665C481.32 1.741 481.294 1.817 481.242 1.893C481.294 1.965 481.32 2.041 481.32 2.121V2.61C481.32 2.682 481.302 2.747 481.266 2.805C481.23 2.863 481.182 2.91 481.122 2.946C481.064 2.982 481 3 480.93 3H479.55ZM479.559 2.676H480.921C480.941 2.676 480.958 2.669 480.972 2.655C480.988 2.639 480.996 2.621 480.996 2.601V2.13C480.996 2.11 480.988 2.093 480.972 2.079C480.958 2.063 480.941 2.055 480.921 2.055H479.559C479.539 2.055 479.521 2.063 479.505 2.079C479.491 2.093 479.484 2.11 479.484 2.13V2.601C479.484 2.621 479.491 2.639 479.505 2.655C479.521 2.669 479.539 2.676 479.559 2.676ZM479.559 1.764H480.921C480.941 1.764 480.958 1.757 480.972 1.743C480.988 1.727 480.996 1.709 480.996 1.689V1.242C480.996 1.222 480.988 1.205 480.972 1.191C480.958 1.175 480.941 1.167 480.921 1.167H479.559C479.539 1.167 479.521 1.175 479.505 1.191C479.491 1.205 479.484 1.222 479.484 1.242V1.689C479.484 1.709 479.491 1.727 479.505 1.743C479.521 1.757 479.539 1.764 479.559 1.764ZM482.523 1.569V1.245H482.847V1.569H482.523ZM482.523 3V2.676H482.847V3H482.523ZM483.2 1.569V1.245H483.524V1.569H483.2ZM483.2 3V2.676H483.524V3H483.2ZM484.762 3V0.84H486.442C486.512 0.84 486.577 0.858 486.637 0.894C486.697 0.928 486.744 0.975 486.778 1.035C486.814 1.093 486.832 1.158 486.832 1.23V1.671C486.832 1.697 486.829 1.723 486.823 1.749C486.819 1.775 486.811 1.799 486.799 1.821C486.839 1.877 486.869 1.93 486.889 1.98C486.911 2.028 486.922 2.077 486.922 2.127V2.61C486.922 2.682 486.904 2.748 486.868 2.808C486.834 2.866 486.787 2.913 486.727 2.949C486.667 2.983 486.601 3 486.529 3H484.762ZM485.161 2.676H486.523C486.543 2.676 486.56 2.669 486.574 2.655C486.588 2.639 486.595 2.621 486.595 2.601V2.136C486.595 2.116 486.588 2.099 486.574 2.085C486.56 2.069 486.543 2.061 486.523 2.061H485.161C485.141 2.061 485.123 2.069 485.107 2.085C485.093 2.099 485.086 2.116 485.086 2.136V2.601C485.086 2.621 485.093 2.639 485.107 2.655C485.123 2.669 485.141 2.676 485.161 2.676ZM485.161 1.737H486.433C486.453 1.737 486.47 1.73 486.484 1.716C486.498 1.7 486.505 1.682 486.505 1.662V1.239C486.505 1.219 486.498 1.202 486.484 1.188C486.47 1.172 486.453 1.164 486.433 1.164H485.161C485.141 1.164 485.123 1.172 485.107 1.188C485.093 1.202 485.086 1.219 485.086 1.239V1.662C485.086 1.682 485.093 1.7 485.107 1.716C485.123 1.73 485.141 1.737 485.161 1.737ZM488.992 3V2.775L489.403 2.595V2.676H489.673V3H488.992ZM487.633 3C487.561 3 487.495 2.983 487.435 2.949C487.377 2.913 487.33 2.866 487.294 2.808C487.26 2.748 487.243 2.682 487.243 2.61V1.23C487.243 1.158 487.26 1.093 487.294 1.035C487.33 0.975 487.377 0.928 487.435 0.894C487.495 0.858 487.561 0.84 487.633 0.84H489.013C489.083 0.84 489.148 0.858 489.208 0.894C489.268 0.928 489.315 0.975 489.349 1.035C489.385 1.093 489.403 1.158 489.403 1.23V2.61C489.403 2.682 489.385 2.748 489.349 2.808C489.315 2.866 489.268 2.913 489.208 2.949C489.148 2.983 489.083 3 489.013 3H487.633ZM487.642 2.676H489.004C489.024 2.676 489.041 2.669 489.055 2.655C489.069 2.639 489.076 2.621 489.076 2.601V1.239C489.076 1.219 489.069 1.202 489.055 1.188C489.041 1.172 489.024 1.164 489.004 1.164H487.642C487.622 1.164 487.604 1.172 487.588 1.188C487.574 1.202 487.567 1.219 487.567 1.239V2.601C487.567 2.621 487.574 2.639 487.588 2.655C487.604 2.669 487.622 2.676 487.642 2.676ZM489.909 2.274V1.95H491.109V2.274H489.909ZM491.456 3V0.84H493.223C493.295 0.84 493.361 0.858 493.421 0.894C493.481 0.928 493.528 0.975 493.562 1.035C493.598 1.093 493.616 1.158 493.616 1.23V2.61C493.616 2.682 493.598 2.748 493.562 2.808C493.528 2.866 493.481 2.913 493.421 2.949C493.361 2.983 493.295 3 493.223 3H491.456ZM491.852 2.676H493.217C493.237 2.676 493.254 2.669 493.268 2.655C493.282 2.639 493.289 2.621 493.289 2.601V1.239C493.289 1.219 493.282 1.202 493.268 1.188C493.254 1.172 493.237 1.164 493.217 1.164H491.852C491.832 1.164 491.815 1.172 491.801 1.188C491.787 1.202 491.78 1.219 491.78 1.239V2.601C491.78 2.621 491.787 2.639 491.801 2.655C491.815 2.669 491.832 2.676 491.852 2.676ZM493.958 3V0.84H495.938V1.164H494.285V1.758H495.614V2.082H494.285V2.676H495.938V3H493.958ZM496.258 2.274V1.95H497.458V2.274H496.258ZM497.802 3V2.181C497.802 2.107 497.819 2.041 497.853 1.983C497.889 1.925 497.936 1.879 497.994 1.845C498.054 1.809 498.12 1.791 498.192 1.791H499.563C499.583 1.791 499.6 1.784 499.614 1.77C499.63 1.754 499.638 1.736 499.638 1.716V1.239C499.638 1.219 499.63 1.202 499.614 1.188C499.6 1.172 499.583 1.164 499.563 1.164H498.201C498.181 1.164 498.163 1.172 498.147 1.188C498.133 1.202 498.126 1.219 498.126 1.239V1.356H497.802V1.23C497.802 1.156 497.819 1.09 497.853 1.032C497.889 0.974 497.936 0.927 497.994 0.891C498.054 0.855 498.12 0.837 498.192 0.837H499.572C499.642 0.837 499.706 0.855 499.764 0.891C499.824 0.927 499.872 0.974 499.908 1.032C499.944 1.09 499.962 1.156 499.962 1.23V1.725C499.962 1.797 499.944 1.863 499.908 1.923C499.872 1.981 499.824 2.028 499.764 2.064C499.706 2.098 499.642 2.115 499.572 2.115H498.201C498.181 2.115 498.163 2.123 498.147 2.139C498.133 2.153 498.126 2.17 498.126 2.19V2.601C498.126 2.621 498.133 2.639 498.147 2.655C498.163 2.669 498.181 2.676 498.201 2.676H499.962V3H497.802ZM500.295 3V0.84H502.062C502.134 0.84 502.2 0.858 502.26 0.894C502.32 0.928 502.367 0.975 502.401 1.035C502.437 1.093 502.455 1.158 502.455 1.23V2.61C502.455 2.682 502.437 2.748 502.401 2.808C502.367 2.866 502.32 2.913 502.26 2.949C502.2 2.983 502.134 3 502.062 3H500.295ZM500.691 2.676H502.056C502.076 2.676 502.093 2.669 502.107 2.655C502.121 2.639 502.128 2.621 502.128 2.601V1.239C502.128 1.219 502.121 1.202 502.107 1.188C502.093 1.172 502.076 1.164 502.056 1.164H500.691C500.671 1.164 500.654 1.172 500.64 1.188C500.626 1.202 500.619 1.219 500.619 1.239V2.601C500.619 2.621 500.626 2.639 500.64 2.655C500.654 2.669 500.671 2.676 500.691 2.676ZM502.8 2.274V1.95H504V2.274H502.8ZM504.734 3C504.662 3 504.596 2.982 504.536 2.946C504.478 2.908 504.431 2.859 504.395 2.799C504.361 2.737 504.344 2.671 504.344 2.601V1.236C504.344 1.164 504.361 1.098 504.395 1.038C504.431 0.978 504.478 0.93 504.536 0.894C504.596 0.858 504.662 0.84 504.734 0.84H506.114C506.184 0.84 506.248 0.858 506.306 0.894C506.366 0.93 506.414 0.978 506.45 1.038C506.486 1.098 506.504 1.164 506.504 1.236V2.601C506.504 2.671 506.486 2.737 506.45 2.799C506.414 2.859 506.366 2.908 506.306 2.946C506.248 2.982 506.184 3 506.114 3H504.734ZM504.776 2.664H506.105C506.125 2.664 506.142 2.657 506.156 2.643C506.172 2.629 506.18 2.612 506.18 2.592V1.503L504.776 2.664ZM504.668 2.331L506.069 1.17H504.743C504.723 1.17 504.705 1.178 504.689 1.194C504.675 1.208 504.668 1.225 504.668 1.245V2.331ZM507.233 3C507.161 3 507.095 2.983 507.035 2.949C506.977 2.913 506.93 2.866 506.894 2.808C506.86 2.748 506.843 2.682 506.843 2.61V1.23C506.843 1.158 506.86 1.093 506.894 1.035C506.93 0.975 506.977 0.928 507.035 0.894C507.095 0.858 507.161 0.84 507.233 0.84H508.61C508.682 0.84 508.748 0.858 508.808 0.894C508.868 0.928 508.915 0.975 508.949 1.035C508.985 1.093 509.003 1.158 509.003 1.23V1.359H508.676V1.239C508.676 1.219 508.669 1.202 508.655 1.188C508.641 1.172 508.624 1.164 508.604 1.164H507.242C507.222 1.164 507.204 1.172 507.188 1.188C507.174 1.202 507.167 1.219 507.167 1.239V2.601C507.167 2.621 507.174 2.639 507.188 2.655C507.204 2.669 507.222 2.676 507.242 2.676H508.604C508.624 2.676 508.641 2.669 508.655 2.655C508.669 2.639 508.676 2.621 508.676 2.601V2.142H508.166V1.815H509.003V2.61C509.003 2.682 508.985 2.748 508.949 2.808C508.915 2.866 508.868 2.913 508.808 2.949C508.748 2.983 508.682 3 508.61 3H507.233ZM509.342 2.274V1.95H510.542V2.274H509.342ZM510.886 3V0.84H511.213V1.758H511.81L512.578 0.84H512.953V0.9L512.098 1.92L512.956 2.94V3H512.578L511.81 2.082H511.213V3H510.886ZM513.279 3V0.84H515.046C515.118 0.84 515.184 0.858 515.244 0.894C515.304 0.928 515.351 0.975 515.385 1.035C515.421 1.093 515.439 1.158 515.439 1.23V2.61C515.439 2.682 515.421 2.748 515.385 2.808C515.351 2.866 515.304 2.913 515.244 2.949C515.184 2.983 515.118 3 515.046 3H513.279ZM513.675 2.676H515.04C515.06 2.676 515.077 2.669 515.091 2.655C515.105 2.639 515.112 2.621 515.112 2.601V1.239C515.112 1.219 515.105 1.202 515.091 1.188C515.077 1.172 515.06 1.164 515.04 1.164H513.675C513.655 1.164 513.638 1.172 513.624 1.188C513.61 1.202 513.603 1.219 513.603 1.239V2.601C513.603 2.621 513.61 2.639 513.624 2.655C513.638 2.669 513.655 2.676 513.675 2.676ZM515.784 2.274V1.95H516.984V2.274H515.784ZM517.328 3V2.181C517.328 2.107 517.345 2.041 517.379 1.983C517.415 1.925 517.462 1.879 517.52 1.845C517.58 1.809 517.646 1.791 517.718 1.791H519.089C519.109 1.791 519.126 1.784 519.14 1.77C519.156 1.754 519.164 1.736 519.164 1.716V1.239C519.164 1.219 519.156 1.202 519.14 1.188C519.126 1.172 519.109 1.164 519.089 1.164H517.727C517.707 1.164 517.689 1.172 517.673 1.188C517.659 1.202 517.652 1.219 517.652 1.239V1.356H517.328V1.23C517.328 1.156 517.345 1.09 517.379 1.032C517.415 0.974 517.462 0.927 517.52 0.891C517.58 0.855 517.646 0.837 517.718 0.837H519.098C519.168 0.837 519.232 0.855 519.29 0.891C519.35 0.927 519.398 0.974 519.434 1.032C519.47 1.09 519.488 1.156 519.488 1.23V1.725C519.488 1.797 519.47 1.863 519.434 1.923C519.398 1.981 519.35 2.028 519.29 2.064C519.232 2.098 519.168 2.115 519.098 2.115H517.727C517.707 2.115 517.689 2.123 517.673 2.139C517.659 2.153 517.652 2.17 517.652 2.19V2.601C517.652 2.621 517.659 2.639 517.673 2.655C517.689 2.669 517.707 2.676 517.727 2.676H519.488V3H517.328ZM520.199 3C520.125 3 520.059 2.982 520.001 2.946C519.943 2.91 519.896 2.863 519.86 2.805C519.824 2.747 519.806 2.682 519.806 2.61V2.52H520.133V2.601C520.133 2.621 520.14 2.639 520.154 2.655C520.168 2.669 520.185 2.676 520.205 2.676H521.57C521.59 2.676 521.607 2.669 521.621 2.655C521.635 2.639 521.642 2.621 521.642 2.601V2.139C521.642 2.119 521.635 2.102 521.621 2.088C521.607 2.072 521.59 2.064 521.57 2.064H520.199V1.74H521.477C521.499 1.74 521.517 1.733 521.531 1.719C521.545 1.703 521.552 1.685 521.552 1.665V1.239C521.552 1.219 521.545 1.202 521.531 1.188C521.517 1.172 521.499 1.164 521.477 1.164H520.205C520.185 1.164 520.168 1.172 520.154 1.188C520.14 1.202 520.133 1.219 520.133 1.239V1.35H519.806V1.23C519.806 1.156 519.823 1.09 519.857 1.032C519.893 0.974 519.941 0.927 520.001 0.891C520.061 0.855 520.127 0.837 520.199 0.837H521.486C521.56 0.837 521.626 0.855 521.684 0.891C521.744 0.927 521.791 0.974 521.825 1.032C521.859 1.09 521.876 1.156 521.876 1.23V1.674C521.876 1.7 521.873 1.726 521.867 1.752C521.863 1.778 521.856 1.802 521.846 1.824C521.89 1.868 521.921 1.917 521.939 1.971C521.957 2.025 521.966 2.078 521.966 2.13V2.61C521.966 2.682 521.948 2.747 521.912 2.805C521.878 2.863 521.831 2.91 521.771 2.946C521.713 2.982 521.649 3 521.579 3H520.199ZM522.303 2.274V1.95H523.503V2.274H522.303ZM523.85 3V0.84H525.617C525.689 0.84 525.755 0.858 525.815 0.894C525.875 0.928 525.922 0.975 525.956 1.035C525.992 1.093 526.01 1.158 526.01 1.23V2.61C526.01 2.682 525.992 2.748 525.956 2.808C525.922 2.866 525.875 2.913 525.815 2.949C525.755 2.983 525.689 3 525.617 3H523.85ZM524.246 2.676H525.611C525.631 2.676 525.648 2.669 525.662 2.655C525.676 2.639 525.683 2.621 525.683 2.601V1.239C525.683 1.219 525.676 1.202 525.662 1.188C525.648 1.172 525.631 1.164 525.611 1.164H524.246C524.226 1.164 524.209 1.172 524.195 1.188C524.181 1.202 524.174 1.219 524.174 1.239V2.601C524.174 2.621 524.181 2.639 524.195 2.655C524.209 2.669 524.226 2.676 524.246 2.676ZM526.724 3C526.654 3 526.589 2.983 526.529 2.949C526.469 2.913 526.421 2.866 526.385 2.808C526.351 2.748 526.334 2.682 526.334 2.61V2.484H526.658V2.601C526.658 2.621 526.665 2.639 526.679 2.655C526.695 2.669 526.713 2.676 526.733 2.676H528.095C528.115 2.676 528.132 2.669 528.146 2.655C528.16 2.639 528.167 2.621 528.167 2.601V2.157C528.167 2.135 528.16 2.117 528.146 2.103C528.132 2.089 528.115 2.082 528.095 2.082H526.724C526.654 2.082 526.589 2.065 526.529 2.031C526.469 1.995 526.421 1.948 526.385 1.89C526.351 1.83 526.334 1.764 526.334 1.692V1.23C526.334 1.158 526.351 1.093 526.385 1.035C526.421 0.975 526.469 0.928 526.529 0.894C526.589 0.858 526.654 0.84 526.724 0.84H528.104C528.174 0.84 528.239 0.858 528.299 0.894C528.359 0.928 528.406 0.975 528.44 1.035C528.476 1.093 528.494 1.158 528.494 1.23V1.356H528.167V1.239C528.167 1.219 528.16 1.202 528.146 1.188C528.132 1.172 528.115 1.164 528.095 1.164H526.733C526.713 1.164 526.695 1.172 526.679 1.188C526.665 1.202 526.658 1.219 526.658 1.239V1.683C526.658 1.705 526.665 1.723 526.679 1.737C526.695 1.751 526.713 1.758 526.733 1.758H528.104C528.174 1.758 528.239 1.776 528.299 1.812C528.359 1.846 528.406 1.893 528.44 1.953C528.476 2.011 528.494 2.076 528.494 2.148V2.61C528.494 2.682 528.476 2.748 528.44 2.808C528.406 2.866 528.359 2.913 528.299 2.949C528.239 2.983 528.174 3 528.104 3H526.724ZM528.827 2.274V1.95H530.027V2.274H528.827ZM530.761 3C530.689 3 530.623 2.982 530.563 2.946C530.505 2.908 530.458 2.859 530.422 2.799C530.388 2.737 530.371 2.671 530.371 2.601V1.236C530.371 1.164 530.388 1.098 530.422 1.038C530.458 0.978 530.505 0.93 530.563 0.894C530.623 0.858 530.689 0.84 530.761 0.84H532.141C532.211 0.84 532.275 0.858 532.333 0.894C532.393 0.93 532.441 0.978 532.477 1.038C532.513 1.098 532.531 1.164 532.531 1.236V2.601C532.531 2.671 532.513 2.737 532.477 2.799C532.441 2.859 532.393 2.908 532.333 2.946C532.275 2.982 532.211 3 532.141 3H530.761ZM530.803 2.664H532.132C532.152 2.664 532.169 2.657 532.183 2.643C532.199 2.629 532.207 2.612 532.207 2.592V1.503L530.803 2.664ZM530.695 2.331L532.096 1.17H530.77C530.75 1.17 530.732 1.178 530.716 1.194C530.702 1.208 530.695 1.225 530.695 1.245V2.331ZM533.263 3C533.191 3 533.125 2.982 533.065 2.946C533.007 2.908 532.96 2.859 532.924 2.799C532.89 2.737 532.873 2.671 532.873 2.601V1.236C532.873 1.164 532.89 1.098 532.924 1.038C532.96 0.978 533.007 0.93 533.065 0.894C533.125 0.858 533.191 0.84 533.263 0.84H534.643C534.713 0.84 534.777 0.858 534.835 0.894C534.895 0.93 534.943 0.978 534.979 1.038C535.015 1.098 535.033 1.164 535.033 1.236V2.601C535.033 2.671 535.015 2.737 534.979 2.799C534.943 2.859 534.895 2.908 534.835 2.946C534.777 2.982 534.713 3 534.643 3H533.263ZM533.305 2.664H534.634C534.654 2.664 534.671 2.657 534.685 2.643C534.701 2.629 534.709 2.612 534.709 2.592V1.503L533.305 2.664ZM533.197 2.331L534.598 1.17H533.272C533.252 1.17 533.234 1.178 533.218 1.194C533.204 1.208 533.197 1.225 533.197 1.245V2.331ZM535.765 3C535.693 3 535.627 2.982 535.567 2.946C535.509 2.908 535.462 2.859 535.426 2.799C535.392 2.737 535.375 2.671 535.375 2.601V1.236C535.375 1.164 535.392 1.098 535.426 1.038C535.462 0.978 535.509 0.93 535.567 0.894C535.627 0.858 535.693 0.84 535.765 0.84H537.145C537.215 0.84 537.279 0.858 537.337 0.894C537.397 0.93 537.445 0.978 537.481 1.038C537.517 1.098 537.535 1.164 537.535 1.236V2.601C537.535 2.671 537.517 2.737 537.481 2.799C537.445 2.859 537.397 2.908 537.337 2.946C537.279 2.982 537.215 3 537.145 3H535.765ZM535.807 2.664H537.136C537.156 2.664 537.173 2.657 537.187 2.643C537.203 2.629 537.211 2.612 537.211 2.592V1.503L535.807 2.664ZM535.699 2.331L537.1 1.17H535.774C535.754 1.17 535.736 1.178 535.72 1.194C535.706 1.208 535.699 1.225 535.699 1.245V2.331ZM538.384 3V1.269L538.135 1.569H537.709L538.321 0.84H538.708V3H538.384Z" fill="#55EAD4"/>
</svg>
