<svg width="197" height="32" viewBox="0 0 197 32" fill="none" xmlns="http://www.w3.org/2000/svg">
<path d="M0 15H25L39 1H114" stroke="#55EAD4" stroke-width="2"/>
<path d="M0 18H26L40 4H106.5" stroke="#55EAD4" stroke-width="2"/>
<path d="M0 21H27L41 7H92.5" stroke="#55EAD4" stroke-width="2"/>
<path d="M0 24H28L42 10H79" stroke="#55EAD4" stroke-width="2"/>
<path d="M50.6043 20V14.248H55.4043C55.5803 14.248 55.7403 14.2933 55.8843 14.384C56.0336 14.4693 56.1509 14.584 56.2363 14.728C56.3216 14.872 56.3643 15.032 56.3643 15.208V16.896C56.3643 17.072 56.3216 17.232 56.2363 17.376C56.1509 17.52 56.0336 17.6373 55.8843 17.728C55.7403 17.8133 55.5803 17.856 55.4043 17.856H51.2523V20H50.6043ZM51.5643 17.2H55.4043C55.4896 17.2 55.5616 17.1707 55.6203 17.112C55.6843 17.0533 55.7163 16.9813 55.7163 16.896V15.208C55.7163 15.1227 55.6843 15.0507 55.6203 14.992C55.5616 14.928 55.4896 14.896 55.4043 14.896H51.5643C51.4789 14.896 51.4043 14.928 51.3403 14.992C51.2816 15.0507 51.2523 15.1227 51.2523 15.208V16.896C51.2523 16.9813 51.2816 17.0533 51.3403 17.112C51.4043 17.1707 51.4789 17.2 51.5643 17.2ZM61.7964 20L59.9164 17.76H60.7644L62.6524 19.992V20H61.7964ZM56.9324 20V14.248H61.7324C61.9084 14.248 62.0684 14.2933 62.2124 14.384C62.3617 14.4693 62.479 14.584 62.5644 14.728C62.6497 14.872 62.6924 15.032 62.6924 15.208V16.896C62.6924 17.072 62.6497 17.232 62.5644 17.376C62.479 17.52 62.3617 17.6373 62.2124 17.728C62.0684 17.8133 61.9084 17.856 61.7324 17.856H57.5804V20H56.9324ZM57.8924 17.2H61.7324C61.8177 17.2 61.8897 17.1707 61.9484 17.112C62.0124 17.0533 62.0444 16.9813 62.0444 16.896V15.208C62.0444 15.1227 62.0124 15.0507 61.9484 14.992C61.8897 14.928 61.8177 14.896 61.7324 14.896H57.8924C57.807 14.896 57.7324 14.928 57.6684 14.992C57.6097 15.0507 57.5804 15.1227 57.5804 15.208V16.896C57.5804 16.9813 57.6097 17.0533 57.6684 17.112C57.7324 17.1707 57.807 17.2 57.8924 17.2ZM64.4779 20C64.3019 20 64.1393 19.9573 63.9899 19.872C63.8459 19.7867 63.7313 19.672 63.6459 19.528C63.5606 19.3787 63.5179 19.216 63.5179 19.04V15.2C63.5179 15.024 63.5606 14.864 63.6459 14.72C63.7313 14.5707 63.8459 14.4533 63.9899 14.368C64.1393 14.2827 64.3019 14.24 64.4779 14.24H68.3179C68.4939 14.24 68.6539 14.2827 68.7979 14.368C68.9473 14.4533 69.0646 14.5707 69.1499 14.72C69.2353 14.864 69.2779 15.024 69.2779 15.2V19.04C69.2779 19.216 69.2353 19.3787 69.1499 19.528C69.0646 19.672 68.9473 19.7867 68.7979 19.872C68.6539 19.9573 68.4939 20 68.3179 20H64.4779ZM64.4779 19.352H68.3179C68.4033 19.352 68.4753 19.3227 68.5339 19.264C68.5979 19.2 68.6299 19.1253 68.6299 19.04V15.2C68.6299 15.1147 68.5979 15.0427 68.5339 14.984C68.4753 14.92 68.4033 14.888 68.3179 14.888H64.4779C64.3926 14.888 64.3179 14.92 64.2539 14.984C64.1953 15.0427 64.1659 15.1147 64.1659 15.2V19.04C64.1659 19.1253 64.1953 19.2 64.2539 19.264C64.3179 19.3227 64.3926 19.352 64.4779 19.352ZM72.4309 20V14.888H69.8709V14.24H75.6309V14.888H73.0789V20H72.4309ZM77.1733 20C76.9973 20 76.8346 19.9573 76.6853 19.872C76.5413 19.7867 76.4266 19.672 76.3413 19.528C76.2559 19.3787 76.2133 19.216 76.2133 19.04V15.2C76.2133 15.024 76.2559 14.864 76.3413 14.72C76.4266 14.5707 76.5413 14.4533 76.6853 14.368C76.8346 14.2827 76.9973 14.24 77.1733 14.24H81.0133C81.1893 14.24 81.3493 14.2827 81.4933 14.368C81.6426 14.4533 81.7599 14.5707 81.8453 14.72C81.9306 14.864 81.9733 15.024 81.9733 15.2V19.04C81.9733 19.216 81.9306 19.3787 81.8453 19.528C81.7599 19.672 81.6426 19.7867 81.4933 19.872C81.3493 19.9573 81.1893 20 81.0133 20H77.1733ZM77.1733 19.352H81.0133C81.0986 19.352 81.1706 19.3227 81.2293 19.264C81.2933 19.2 81.3253 19.1253 81.3253 19.04V15.2C81.3253 15.1147 81.2933 15.0427 81.2293 14.984C81.1706 14.92 81.0986 14.888 81.0133 14.888H77.1733C77.0879 14.888 77.0133 14.92 76.9493 14.984C76.8906 15.0427 76.8613 15.1147 76.8613 15.2V19.04C76.8613 19.1253 76.8906 19.2 76.9493 19.264C77.0133 19.3227 77.0879 19.352 77.1733 19.352ZM83.8143 20C83.6383 20 83.4756 19.9573 83.3263 19.872C83.1823 19.7867 83.0676 19.672 82.9823 19.528C82.8969 19.3787 82.8543 19.216 82.8543 19.04V15.2C82.8543 15.024 82.8969 14.864 82.9823 14.72C83.0676 14.5707 83.1823 14.4533 83.3263 14.368C83.4756 14.2827 83.6383 14.24 83.8143 14.24H88.5983V14.888H83.8143C83.7289 14.888 83.6543 14.92 83.5903 14.984C83.5316 15.0427 83.5023 15.1147 83.5023 15.2V19.04C83.5023 19.1253 83.5316 19.2 83.5903 19.264C83.6543 19.3227 83.7289 19.352 83.8143 19.352H88.5983V20H83.8143ZM90.3764 20C90.2004 20 90.0377 19.9573 89.8884 19.872C89.7444 19.7867 89.6297 19.672 89.5444 19.528C89.459 19.3787 89.4164 19.216 89.4164 19.04V15.2C89.4164 15.024 89.459 14.864 89.5444 14.72C89.6297 14.5707 89.7444 14.4533 89.8884 14.368C90.0377 14.2827 90.2004 14.24 90.3764 14.24H94.2164C94.3924 14.24 94.5524 14.2827 94.6964 14.368C94.8457 14.4533 94.963 14.5707 95.0484 14.72C95.1337 14.864 95.1764 15.024 95.1764 15.2V19.04C95.1764 19.216 95.1337 19.3787 95.0484 19.528C94.963 19.672 94.8457 19.7867 94.6964 19.872C94.5524 19.9573 94.3924 20 94.2164 20H90.3764ZM90.3764 19.352H94.2164C94.3017 19.352 94.3737 19.3227 94.4324 19.264C94.4964 19.2 94.5284 19.1253 94.5284 19.04V15.2C94.5284 15.1147 94.4964 15.0427 94.4324 14.984C94.3737 14.92 94.3017 14.888 94.2164 14.888H90.3764C90.291 14.888 90.2164 14.92 90.1524 14.984C90.0937 15.0427 90.0644 15.1147 90.0644 15.2V19.04C90.0644 19.1253 90.0937 19.2 90.1524 19.264C90.2164 19.3227 90.291 19.352 90.3764 19.352ZM96.0654 20V14.232H96.7134V19.352H101.825V20H96.0654Z" fill="#55EAD4"/>
<path d="M56.9077 26V23C56.9077 22.89 56.9343 22.79 56.9877 22.7C57.041 22.6067 57.1127 22.5333 57.2027 22.48C57.296 22.4267 57.3977 22.4 57.5077 22.4H59.9077C60.0177 22.4 60.1177 22.4267 60.2077 22.48C60.301 22.5333 60.3743 22.6067 60.4277 22.7C60.481 22.79 60.5077 22.89 60.5077 23V26H60.1027V24.685H57.3127V26H56.9077ZM57.3127 24.28H60.1027V23C60.1027 22.9467 60.0827 22.9017 60.0427 22.865C60.006 22.825 59.961 22.805 59.9077 22.805H57.5077C57.4543 22.805 57.4077 22.825 57.3677 22.865C57.331 22.9017 57.3127 22.9467 57.3127 23V24.28ZM61.0924 24.725V24.315H63.0424V24.725H61.0924ZM64.2704 26C64.157 26 64.0537 25.9733 63.9604 25.92C63.8704 25.8633 63.7987 25.79 63.7454 25.7C63.692 25.6067 63.6654 25.505 63.6654 25.395V23.01C63.6654 22.8967 63.692 22.795 63.7454 22.705C63.7987 22.6117 63.8704 22.5383 63.9604 22.485C64.0537 22.4283 64.157 22.4 64.2704 22.4H66.6954C66.8054 22.4 66.9054 22.4283 66.9954 22.485C67.0887 22.5383 67.162 22.6117 67.2154 22.705C67.272 22.795 67.3004 22.8967 67.3004 23.01V25.395C67.3004 25.505 67.272 25.6067 67.2154 25.7C67.162 25.79 67.0887 25.8633 66.9954 25.92C66.9054 25.9733 66.8054 26 66.6954 26H64.2704ZM64.1254 25.59H66.6954C66.7487 25.59 66.7937 25.5717 66.8304 25.535C66.8704 25.495 66.8904 25.4483 66.8904 25.395V23.31L64.1254 25.59ZM64.0754 25.095L66.8354 22.815H64.2704C64.217 22.815 64.1704 22.835 64.1304 22.875C64.0937 22.9117 64.0754 22.9567 64.0754 23.01V25.095ZM68.6453 26V22.86L68.0903 23.525H67.5553L68.5003 22.4H69.0603V26H68.6453ZM70.5984 26V22.86L70.0434 23.525H69.5084L70.4534 22.4H71.0134V26H70.5984ZM72.3465 26C72.2332 26 72.1299 25.9733 72.0365 25.92C71.9465 25.8633 71.8749 25.79 71.8215 25.7C71.7682 25.6067 71.7415 25.505 71.7415 25.395V23.01C71.7415 22.8967 71.7682 22.795 71.8215 22.705C71.8749 22.6117 71.9465 22.5383 72.0365 22.485C72.1299 22.4283 72.2332 22.4 72.3465 22.4H74.7715C74.8815 22.4 74.9815 22.4283 75.0715 22.485C75.1649 22.5383 75.2382 22.6117 75.2915 22.705C75.3482 22.795 75.3765 22.8967 75.3765 23.01V25.395C75.3765 25.505 75.3482 25.6067 75.2915 25.7C75.2382 25.79 75.1649 25.8633 75.0715 25.92C74.9815 25.9733 74.8815 26 74.7715 26H72.3465ZM72.2015 25.59H74.7715C74.8249 25.59 74.8699 25.5717 74.9065 25.535C74.9465 25.495 74.9665 25.4483 74.9665 25.395V23.31L72.2015 25.59ZM72.1515 25.095L74.9115 22.815H72.3465C72.2932 22.815 72.2465 22.835 72.2065 22.875C72.1699 22.9117 72.1515 22.9567 72.1515 23.01V25.095ZM77.2588 26.575V21.79H77.6688V26.575H77.2588ZM79.7154 26V22.4H82.5604C82.6704 22.4 82.7704 22.4267 82.8604 22.48C82.9537 22.5333 83.0271 22.6067 83.0804 22.7C83.1337 22.79 83.1604 22.89 83.1604 23V23.765C83.1604 23.8117 83.1537 23.8583 83.1404 23.905C83.1304 23.9483 83.1154 23.99 83.0954 24.03C83.1687 24.14 83.2237 24.235 83.2604 24.315C83.2971 24.395 83.3154 24.4767 83.3154 24.56V25.4C83.3154 25.51 83.2887 25.6117 83.2354 25.705C83.1821 25.795 83.1087 25.8667 83.0154 25.92C82.9254 25.9733 82.8254 26 82.7154 26H79.7154ZM80.3154 25.595H82.7154C82.7687 25.595 82.8137 25.5767 82.8504 25.54C82.8904 25.5 82.9104 25.4533 82.9104 25.4V24.56C82.9104 24.5067 82.8904 24.4617 82.8504 24.425C82.8137 24.385 82.7687 24.365 82.7154 24.365H80.3154C80.2621 24.365 80.2154 24.385 80.1754 24.425C80.1387 24.4617 80.1204 24.5067 80.1204 24.56V25.4C80.1204 25.4533 80.1387 25.5 80.1754 25.54C80.2154 25.5767 80.2621 25.595 80.3154 25.595ZM80.3154 23.96H82.5604C82.6137 23.96 82.6587 23.9417 82.6954 23.905C82.7321 23.865 82.7504 23.8183 82.7504 23.765V23C82.7504 22.9467 82.7321 22.9017 82.6954 22.865C82.6587 22.825 82.6137 22.805 82.5604 22.805H80.3154C80.2621 22.805 80.2154 22.825 80.1754 22.865C80.1387 22.9017 80.1204 22.9467 80.1204 23V23.765C80.1204 23.8183 80.1387 23.865 80.1754 23.905C80.2154 23.9417 80.2621 23.96 80.3154 23.96ZM83.8706 26V22.4H87.1556V22.805H84.2756V23.995H86.5906V24.405H84.2756V25.595H87.1556V26H83.8706ZM89.1087 26V22.805H87.5087V22.4H91.1087V22.805H89.5137V26H89.1087ZM91.4926 26V23C91.4926 22.89 91.5193 22.79 91.5726 22.7C91.626 22.6067 91.6976 22.5333 91.7876 22.48C91.881 22.4267 91.9826 22.4 92.0926 22.4H94.4926C94.6026 22.4 94.7026 22.4267 94.7926 22.48C94.886 22.5333 94.9593 22.6067 95.0126 22.7C95.066 22.79 95.0926 22.89 95.0926 23V26H94.6876V24.685H91.8976V26H91.4926ZM91.8976 24.28H94.6876V23C94.6876 22.9467 94.6676 22.9017 94.6276 22.865C94.591 22.825 94.546 22.805 94.4926 22.805H92.0926C92.0393 22.805 91.9926 22.825 91.9526 22.865C91.916 22.9017 91.8976 22.9467 91.8976 23V24.28Z" fill="#55EAD4"/>
<path d="M0 30.5H114" stroke="#55EAD4" stroke-width="2"/>
<path d="M117.314 5.73H117.998C118.182 5.73 118.322 5.68 118.418 5.58C118.518 5.476 118.568 5.328 118.568 5.136V3.006C118.568 2.814 118.518 2.668 118.418 2.568C118.322 2.464 118.182 2.412 117.998 2.412H117.314C117.13 2.412 116.99 2.464 116.894 2.568C116.798 2.672 116.75 2.818 116.75 3.006V5.136C116.75 5.324 116.798 5.47 116.894 5.574C116.99 5.678 117.13 5.73 117.314 5.73ZM118.028 6H117.29C117.03 6 116.824 5.924 116.672 5.772C116.524 5.62 116.45 5.412 116.45 5.148V2.994C116.45 2.73 116.524 2.522 116.672 2.37C116.824 2.218 117.03 2.142 117.29 2.142H118.028C118.288 2.142 118.492 2.218 118.64 2.37C118.792 2.522 118.868 2.73 118.868 2.994V5.148C118.868 5.412 118.792 5.62 118.64 5.772C118.492 5.924 118.288 6 118.028 6ZM120.06 6H119.886C119.846 6 119.826 5.976 119.826 5.928V2.214C119.826 2.166 119.846 2.142 119.886 2.142H120.048C120.084 2.142 120.108 2.154 120.12 2.178L121.962 5.346H121.986V2.214C121.986 2.166 122.008 2.142 122.052 2.142H122.22C122.264 2.142 122.286 2.166 122.286 2.214V5.928C122.286 5.976 122.264 6 122.22 6H122.082C122.046 6 122.014 5.978 121.986 5.934L120.15 2.79H120.126V5.928C120.126 5.976 120.104 6 120.06 6ZM125.269 6H123.361C123.321 6 123.301 5.976 123.301 5.928V2.214C123.301 2.166 123.321 2.142 123.361 2.142H123.535C123.579 2.142 123.601 2.166 123.601 2.214V5.664C123.601 5.7 123.621 5.718 123.661 5.718H125.269C125.317 5.718 125.341 5.74 125.341 5.784V5.934C125.341 5.978 125.317 6 125.269 6ZM127.064 6H126.89C126.846 6 126.824 5.976 126.824 5.928V4.542L125.66 2.214C125.636 2.166 125.65 2.142 125.702 2.142H125.918C125.954 2.142 125.982 2.166 126.002 2.214L126.962 4.176H126.992L127.946 2.214C127.966 2.166 127.994 2.142 128.03 2.142H128.252C128.296 2.142 128.31 2.166 128.294 2.214L127.124 4.542V5.928C127.124 5.976 127.104 6 127.064 6ZM133.339 2.142H133.663C133.703 2.142 133.723 2.166 133.723 2.214V5.928C133.723 5.976 133.703 6 133.663 6H133.489C133.445 6 133.423 5.976 133.423 5.928V2.604H133.399L132.337 5.094C132.313 5.138 132.283 5.16 132.247 5.16H132.049C132.009 5.16 131.981 5.138 131.965 5.094L130.885 2.598H130.861V5.928C130.861 5.976 130.841 6 130.801 6H130.627C130.587 6 130.567 5.976 130.567 5.928V2.214C130.567 2.166 130.587 2.142 130.627 2.142H130.951C130.979 2.142 130.997 2.154 131.005 2.178L132.133 4.812H132.157L133.285 2.178C133.293 2.154 133.311 2.142 133.339 2.142ZM136.658 6H134.804C134.764 6 134.744 5.976 134.744 5.928V2.214C134.744 2.166 134.764 2.142 134.804 2.142H136.658C136.706 2.142 136.73 2.164 136.73 2.208V2.346C136.73 2.39 136.706 2.412 136.658 2.412H135.104C135.064 2.412 135.044 2.43 135.044 2.466V3.846C135.044 3.882 135.064 3.9 135.104 3.9H136.49C136.534 3.9 136.556 3.922 136.556 3.966V4.104C136.556 4.148 136.534 4.17 136.49 4.17H135.104C135.064 4.17 135.044 4.188 135.044 4.224V5.676C135.044 5.712 135.064 5.73 135.104 5.73H136.658C136.706 5.73 136.73 5.752 136.73 5.796V5.934C136.73 5.978 136.706 6 136.658 6ZM137.609 5.148V4.932C137.609 4.888 137.631 4.866 137.675 4.866H137.849C137.893 4.866 137.915 4.888 137.915 4.932V5.13C137.915 5.53 138.109 5.73 138.497 5.73H139.121C139.509 5.73 139.703 5.528 139.703 5.124V4.872C139.703 4.696 139.631 4.558 139.487 4.458C139.343 4.358 139.169 4.286 138.965 4.242C138.761 4.198 138.555 4.152 138.347 4.104C138.143 4.056 137.969 3.968 137.825 3.84C137.681 3.712 137.609 3.54 137.609 3.324V2.994C137.609 2.73 137.685 2.522 137.837 2.37C137.989 2.218 138.195 2.142 138.455 2.142H139.151C139.411 2.142 139.617 2.218 139.769 2.37C139.921 2.522 139.997 2.73 139.997 2.994V3.162C139.997 3.206 139.975 3.228 139.931 3.228H139.757C139.713 3.228 139.691 3.206 139.691 3.162V3.012C139.691 2.612 139.497 2.412 139.109 2.412H138.491C138.107 2.412 137.915 2.616 137.915 3.024V3.324C137.915 3.6 138.161 3.786 138.653 3.882C138.857 3.922 139.061 3.968 139.265 4.02C139.473 4.072 139.649 4.166 139.793 4.302C139.937 4.438 140.009 4.622 140.009 4.854V5.148C140.009 5.412 139.933 5.62 139.781 5.772C139.629 5.924 139.423 6 139.163 6H138.455C138.195 6 137.989 5.924 137.837 5.772C137.685 5.62 137.609 5.412 137.609 5.148ZM141.236 6H141.062C141.022 6 141.002 5.976 141.002 5.928V2.214C141.002 2.166 141.022 2.142 141.062 2.142H141.236C141.28 2.142 141.302 2.166 141.302 2.214V3.852C141.302 3.888 141.322 3.906 141.362 3.906H143.042C143.082 3.906 143.102 3.888 143.102 3.852V2.214C143.102 2.166 143.122 2.142 143.162 2.142H143.336C143.38 2.142 143.402 2.166 143.402 2.214V5.928C143.402 5.976 143.38 6 143.336 6H143.162C143.122 6 143.102 5.976 143.102 5.928V4.23C143.102 4.194 143.082 4.176 143.042 4.176H141.362C141.322 4.176 141.302 4.194 141.302 4.23V5.928C141.302 5.976 141.28 6 141.236 6ZM146.338 6H144.484C144.444 6 144.424 5.976 144.424 5.928V2.214C144.424 2.166 144.444 2.142 144.484 2.142H146.338C146.386 2.142 146.41 2.164 146.41 2.208V2.346C146.41 2.39 146.386 2.412 146.338 2.412H144.784C144.744 2.412 144.724 2.43 144.724 2.466V3.846C144.724 3.882 144.744 3.9 144.784 3.9H146.17C146.214 3.9 146.236 3.922 146.236 3.966V4.104C146.236 4.148 146.214 4.17 146.17 4.17H144.784C144.744 4.17 144.724 4.188 144.724 4.224V5.676C144.724 5.712 144.744 5.73 144.784 5.73H146.338C146.386 5.73 146.41 5.752 146.41 5.796V5.934C146.41 5.978 146.386 6 146.338 6ZM147.289 5.148V4.932C147.289 4.888 147.311 4.866 147.355 4.866H147.529C147.573 4.866 147.595 4.888 147.595 4.932V5.13C147.595 5.53 147.789 5.73 148.177 5.73H148.801C149.189 5.73 149.383 5.528 149.383 5.124V4.872C149.383 4.696 149.311 4.558 149.167 4.458C149.023 4.358 148.849 4.286 148.645 4.242C148.441 4.198 148.235 4.152 148.027 4.104C147.823 4.056 147.649 3.968 147.505 3.84C147.361 3.712 147.289 3.54 147.289 3.324V2.994C147.289 2.73 147.365 2.522 147.517 2.37C147.669 2.218 147.875 2.142 148.135 2.142H148.831C149.091 2.142 149.297 2.218 149.449 2.37C149.601 2.522 149.677 2.73 149.677 2.994V3.162C149.677 3.206 149.655 3.228 149.611 3.228H149.437C149.393 3.228 149.371 3.206 149.371 3.162V3.012C149.371 2.612 149.177 2.412 148.789 2.412H148.171C147.787 2.412 147.595 2.616 147.595 3.024V3.324C147.595 3.6 147.841 3.786 148.333 3.882C148.537 3.922 148.741 3.968 148.945 4.02C149.153 4.072 149.329 4.166 149.473 4.302C149.617 4.438 149.689 4.622 149.689 4.854V5.148C149.689 5.412 149.613 5.62 149.461 5.772C149.309 5.924 149.103 6 148.843 6H148.135C147.875 6 147.669 5.924 147.517 5.772C147.365 5.62 147.289 5.412 147.289 5.148ZM154.195 6H152.341C152.301 6 152.281 5.976 152.281 5.928V2.214C152.281 2.166 152.301 2.142 152.341 2.142H154.195C154.243 2.142 154.267 2.164 154.267 2.208V2.346C154.267 2.39 154.243 2.412 154.195 2.412H152.641C152.601 2.412 152.581 2.43 152.581 2.466V3.846C152.581 3.882 152.601 3.9 152.641 3.9H154.027C154.071 3.9 154.093 3.922 154.093 3.966V4.104C154.093 4.148 154.071 4.17 154.027 4.17H152.641C152.601 4.17 152.581 4.188 152.581 4.224V5.676C152.581 5.712 152.601 5.73 152.641 5.73H154.195C154.243 5.73 154.267 5.752 154.267 5.796V5.934C154.267 5.978 154.243 6 154.195 6ZM155.404 6H155.23C155.19 6 155.17 5.976 155.17 5.928V2.214C155.17 2.166 155.19 2.142 155.23 2.142H155.392C155.428 2.142 155.452 2.154 155.464 2.178L157.306 5.346H157.33V2.214C157.33 2.166 157.352 2.142 157.396 2.142H157.564C157.608 2.142 157.63 2.166 157.63 2.214V5.928C157.63 5.976 157.608 6 157.564 6H157.426C157.39 6 157.358 5.978 157.33 5.934L155.494 2.79H155.47V5.928C155.47 5.976 155.448 6 155.404 6ZM158.543 6H158.357C158.313 6 158.299 5.976 158.315 5.928L159.509 2.214C159.521 2.166 159.549 2.142 159.593 2.142H159.875C159.915 2.142 159.943 2.166 159.959 2.214L161.153 5.928C161.165 5.976 161.151 6 161.111 6H160.919C160.879 6 160.853 5.976 160.841 5.928L160.517 4.968H158.945L158.621 5.928C158.605 5.976 158.579 6 158.543 6ZM159.719 2.472L159.029 4.698H160.439L159.743 2.472H159.719ZM162.204 5.736H163.32C163.7 5.736 163.89 5.544 163.89 5.16V4.746C163.89 4.366 163.682 4.176 163.266 4.176H162.204C162.164 4.176 162.144 4.192 162.144 4.224V5.682C162.144 5.718 162.164 5.736 162.204 5.736ZM162.204 3.912H163.26C163.448 3.912 163.592 3.862 163.692 3.762C163.796 3.662 163.848 3.52 163.848 3.336V2.982C163.848 2.598 163.658 2.406 163.278 2.406H162.204C162.164 2.406 162.144 2.424 162.144 2.46V3.858C162.144 3.894 162.164 3.912 162.204 3.912ZM161.844 5.928V2.214C161.844 2.166 161.864 2.142 161.904 2.142H163.302C163.562 2.142 163.768 2.216 163.92 2.364C164.072 2.512 164.148 2.716 164.148 2.976V3.342C164.148 3.706 163.976 3.94 163.632 4.044C163.78 4.052 163.91 4.12 164.022 4.248C164.134 4.376 164.19 4.542 164.19 4.746V5.166C164.19 5.426 164.114 5.63 163.962 5.778C163.81 5.926 163.604 6 163.344 6H161.904C161.864 6 161.844 5.976 161.844 5.928ZM167.087 6H165.179C165.139 6 165.119 5.976 165.119 5.928V2.214C165.119 2.166 165.139 2.142 165.179 2.142H165.353C165.397 2.142 165.419 2.166 165.419 2.214V5.664C165.419 5.7 165.439 5.718 165.479 5.718H167.087C167.135 5.718 167.159 5.74 167.159 5.784V5.934C167.159 5.978 167.135 6 167.087 6ZM169.74 6H167.886C167.846 6 167.826 5.976 167.826 5.928V2.214C167.826 2.166 167.846 2.142 167.886 2.142H169.74C169.788 2.142 169.812 2.164 169.812 2.208V2.346C169.812 2.39 169.788 2.412 169.74 2.412H168.186C168.146 2.412 168.126 2.43 168.126 2.466V3.846C168.126 3.882 168.146 3.9 168.186 3.9H169.572C169.616 3.9 169.638 3.922 169.638 3.966V4.104C169.638 4.148 169.616 4.17 169.572 4.17H168.186C168.146 4.17 168.126 4.188 168.126 4.224V5.676C168.126 5.712 168.146 5.73 168.186 5.73H169.74C169.788 5.73 169.812 5.752 169.812 5.796V5.934C169.812 5.978 169.788 6 169.74 6ZM171.075 5.73H172.227C172.411 5.73 172.551 5.68 172.647 5.58C172.747 5.476 172.797 5.328 172.797 5.136V3.006C172.797 2.814 172.747 2.668 172.647 2.568C172.551 2.464 172.411 2.412 172.227 2.412H171.075C171.035 2.412 171.015 2.43 171.015 2.466V5.676C171.015 5.712 171.035 5.73 171.075 5.73ZM170.715 5.928V2.214C170.715 2.166 170.735 2.142 170.775 2.142H172.257C172.517 2.142 172.721 2.218 172.869 2.37C173.021 2.522 173.097 2.73 173.097 2.994V5.148C173.097 5.412 173.021 5.62 172.869 5.772C172.721 5.924 172.517 6 172.257 6H170.775C170.735 6 170.715 5.976 170.715 5.928ZM116.744 14H116.57C116.53 14 116.51 13.976 116.51 13.928V10.214C116.51 10.166 116.53 10.142 116.57 10.142H116.732C116.768 10.142 116.792 10.154 116.804 10.178L118.646 13.346H118.67V10.214C118.67 10.166 118.692 10.142 118.736 10.142H118.904C118.948 10.142 118.97 10.166 118.97 10.214V13.928C118.97 13.976 118.948 14 118.904 14H118.766C118.73 14 118.698 13.978 118.67 13.934L116.834 10.79H116.81V13.928C116.81 13.976 116.788 14 116.744 14ZM121.899 14H120.045C120.005 14 119.985 13.976 119.985 13.928V10.214C119.985 10.166 120.005 10.142 120.045 10.142H121.899C121.947 10.142 121.971 10.164 121.971 10.208V10.346C121.971 10.39 121.947 10.412 121.899 10.412H120.345C120.305 10.412 120.285 10.43 120.285 10.466V11.846C120.285 11.882 120.305 11.9 120.345 11.9H121.731C121.775 11.9 121.797 11.922 121.797 11.966V12.104C121.797 12.148 121.775 12.17 121.731 12.17H120.345C120.305 12.17 120.285 12.188 120.285 12.224V13.676C120.285 13.712 120.305 13.73 120.345 13.73H121.899C121.947 13.73 121.971 13.752 121.971 13.796V13.934C121.971 13.978 121.947 14 121.899 14ZM124.961 10.142H125.129C125.173 10.142 125.195 10.164 125.195 10.208V13.148C125.195 13.412 125.119 13.62 124.967 13.772C124.819 13.924 124.615 14 124.355 14H123.683C123.423 14 123.217 13.924 123.065 13.772C122.917 13.62 122.843 13.412 122.843 13.148V10.214C122.843 10.166 122.863 10.142 122.903 10.142H123.077C123.121 10.142 123.143 10.166 123.143 10.214V13.136C123.143 13.324 123.191 13.47 123.287 13.574C123.383 13.678 123.523 13.73 123.707 13.73H124.325C124.509 13.73 124.649 13.68 124.745 13.58C124.845 13.476 124.895 13.328 124.895 13.136V10.214C124.895 10.166 124.917 10.142 124.961 10.142ZM126.418 14H126.244C126.204 14 126.184 13.976 126.184 13.928V10.214C126.184 10.166 126.204 10.142 126.244 10.142H127.612C127.872 10.142 128.078 10.218 128.23 10.37C128.382 10.522 128.458 10.73 128.458 10.994V11.564C128.458 11.788 128.4 11.972 128.284 12.116C128.172 12.26 128.018 12.352 127.822 12.392V12.416L128.536 13.928C128.56 13.976 128.546 14 128.494 14H128.308C128.256 14 128.22 13.976 128.2 13.928L127.492 12.416H126.544C126.504 12.416 126.484 12.434 126.484 12.47V13.928C126.484 13.976 126.462 14 126.418 14ZM126.544 12.158H127.582C127.766 12.158 127.908 12.108 128.008 12.008C128.108 11.904 128.158 11.758 128.158 11.57V11.006C128.158 10.818 128.108 10.672 128.008 10.568C127.908 10.464 127.766 10.412 127.582 10.412H126.544C126.504 10.412 126.484 10.43 126.484 10.466V12.104C126.484 12.14 126.504 12.158 126.544 12.158ZM129.287 14H129.101C129.057 14 129.043 13.976 129.059 13.928L130.253 10.214C130.265 10.166 130.293 10.142 130.337 10.142H130.619C130.659 10.142 130.687 10.166 130.703 10.214L131.897 13.928C131.909 13.976 131.895 14 131.855 14H131.663C131.623 14 131.597 13.976 131.585 13.928L131.261 12.968H129.689L129.365 13.928C129.349 13.976 129.323 14 129.287 14ZM130.463 10.472L129.773 12.698H131.183L130.487 10.472H130.463ZM134.556 14H132.648C132.608 14 132.588 13.976 132.588 13.928V10.214C132.588 10.166 132.608 10.142 132.648 10.142H132.822C132.866 10.142 132.888 10.166 132.888 10.214V13.664C132.888 13.7 132.908 13.718 132.948 13.718H134.556C134.604 13.718 134.628 13.74 134.628 13.784V13.934C134.628 13.978 134.604 14 134.556 14ZM137.129 14H136.955C136.915 14 136.895 13.976 136.895 13.928V10.214C136.895 10.166 136.915 10.142 136.955 10.142H138.803C138.851 10.142 138.875 10.164 138.875 10.208V10.346C138.875 10.39 138.851 10.412 138.803 10.412H137.255C137.215 10.412 137.195 10.43 137.195 10.466V11.924C137.195 11.956 137.215 11.972 137.255 11.972H138.641C138.685 11.972 138.707 11.994 138.707 12.038V12.182C138.707 12.226 138.685 12.248 138.641 12.248H137.255C137.215 12.248 137.195 12.264 137.195 12.296V13.928C137.195 13.976 137.173 14 137.129 14ZM139.979 10.214V13.928C139.979 13.976 139.957 14 139.913 14H139.739C139.699 14 139.679 13.976 139.679 13.928V10.214C139.679 10.166 139.699 10.142 139.739 10.142H139.913C139.957 10.142 139.979 10.166 139.979 10.214ZM141.265 14H141.091C141.051 14 141.031 13.976 141.031 13.928V10.214C141.031 10.166 141.051 10.142 141.091 10.142H142.459C142.719 10.142 142.925 10.218 143.077 10.37C143.229 10.522 143.305 10.73 143.305 10.994V11.564C143.305 11.788 143.247 11.972 143.131 12.116C143.019 12.26 142.865 12.352 142.669 12.392V12.416L143.383 13.928C143.407 13.976 143.393 14 143.341 14H143.155C143.103 14 143.067 13.976 143.047 13.928L142.339 12.416H141.391C141.351 12.416 141.331 12.434 141.331 12.47V13.928C141.331 13.976 141.309 14 141.265 14ZM141.391 12.158H142.429C142.613 12.158 142.755 12.108 142.855 12.008C142.955 11.904 143.005 11.758 143.005 11.57V11.006C143.005 10.818 142.955 10.672 142.855 10.568C142.755 10.464 142.613 10.412 142.429 10.412H141.391C141.351 10.412 141.331 10.43 141.331 10.466V12.104C141.331 12.14 141.351 12.158 141.391 12.158ZM146.151 14H144.297C144.257 14 144.237 13.976 144.237 13.928V10.214C144.237 10.166 144.257 10.142 144.297 10.142H146.151C146.199 10.142 146.223 10.164 146.223 10.208V10.346C146.223 10.39 146.199 10.412 146.151 10.412H144.597C144.557 10.412 144.537 10.43 144.537 10.466V11.846C144.537 11.882 144.557 11.9 144.597 11.9H145.983C146.027 11.9 146.049 11.922 146.049 11.966V12.104C146.049 12.148 146.027 12.17 145.983 12.17H144.597C144.557 12.17 144.537 12.188 144.537 12.224V13.676C144.537 13.712 144.557 13.73 144.597 13.73H146.151C146.199 13.73 146.223 13.752 146.223 13.796V13.934C146.223 13.978 146.199 14 146.151 14ZM148.013 14H147.713C147.669 14 147.641 13.976 147.629 13.928L146.807 10.214C146.795 10.166 146.815 10.142 146.867 10.142H147.065C147.109 10.142 147.135 10.166 147.143 10.214L147.857 13.658H147.887L148.799 10.208C148.807 10.164 148.833 10.142 148.877 10.142H149.105C149.153 10.142 149.181 10.164 149.189 10.208L150.107 13.658H150.137L150.845 10.214C150.853 10.166 150.881 10.142 150.929 10.142H151.133C151.181 10.142 151.199 10.166 151.187 10.214L150.365 13.928C150.357 13.976 150.331 14 150.287 14H149.981C149.937 14 149.909 13.976 149.897 13.928L149.009 10.544H148.985L148.091 13.928C148.079 13.976 148.053 14 148.013 14ZM151.787 14H151.601C151.557 14 151.543 13.976 151.559 13.928L152.753 10.214C152.765 10.166 152.793 10.142 152.837 10.142H153.119C153.159 10.142 153.187 10.166 153.203 10.214L154.397 13.928C154.409 13.976 154.395 14 154.355 14H154.163C154.123 14 154.097 13.976 154.085 13.928L153.761 12.968H152.189L151.865 13.928C151.849 13.976 151.823 14 151.787 14ZM152.963 10.472L152.273 12.698H153.683L152.987 10.472H152.963ZM157.056 14H155.148C155.108 14 155.088 13.976 155.088 13.928V10.214C155.088 10.166 155.108 10.142 155.148 10.142H155.322C155.366 10.142 155.388 10.166 155.388 10.214V13.664C155.388 13.7 155.408 13.718 155.448 13.718H157.056C157.104 13.718 157.128 13.74 157.128 13.784V13.934C157.128 13.978 157.104 14 157.056 14ZM159.763 14H157.855C157.815 14 157.795 13.976 157.795 13.928V10.214C157.795 10.166 157.815 10.142 157.855 10.142H158.029C158.073 10.142 158.095 10.166 158.095 10.214V13.664C158.095 13.7 158.115 13.718 158.155 13.718H159.763C159.811 13.718 159.835 13.74 159.835 13.784V13.934C159.835 13.978 159.811 14 159.763 14ZM162.432 10.214V13.928C162.432 13.976 162.41 14 162.366 14H162.192C162.152 14 162.132 13.976 162.132 13.928V10.214C162.132 10.166 162.152 10.142 162.192 10.142H162.366C162.41 10.142 162.432 10.166 162.432 10.214ZM163.461 13.148V12.932C163.461 12.888 163.483 12.866 163.527 12.866H163.701C163.745 12.866 163.767 12.888 163.767 12.932V13.13C163.767 13.53 163.961 13.73 164.349 13.73H164.973C165.361 13.73 165.555 13.528 165.555 13.124V12.872C165.555 12.696 165.483 12.558 165.339 12.458C165.195 12.358 165.021 12.286 164.817 12.242C164.613 12.198 164.407 12.152 164.199 12.104C163.995 12.056 163.821 11.968 163.677 11.84C163.533 11.712 163.461 11.54 163.461 11.324V10.994C163.461 10.73 163.537 10.522 163.689 10.37C163.841 10.218 164.047 10.142 164.307 10.142H165.003C165.263 10.142 165.469 10.218 165.621 10.37C165.773 10.522 165.849 10.73 165.849 10.994V11.162C165.849 11.206 165.827 11.228 165.783 11.228H165.609C165.565 11.228 165.543 11.206 165.543 11.162V11.012C165.543 10.612 165.349 10.412 164.961 10.412H164.343C163.959 10.412 163.767 10.616 163.767 11.024V11.324C163.767 11.6 164.013 11.786 164.505 11.882C164.709 11.922 164.913 11.968 165.117 12.02C165.325 12.072 165.501 12.166 165.645 12.302C165.789 12.438 165.861 12.622 165.861 12.854V13.148C165.861 13.412 165.785 13.62 165.633 13.772C165.481 13.924 165.275 14 165.015 14H164.307C164.047 14 163.841 13.924 163.689 13.772C163.537 13.62 163.461 13.412 163.461 13.148ZM168.813 13.73H169.965C170.149 13.73 170.289 13.68 170.385 13.58C170.485 13.476 170.535 13.328 170.535 13.136V11.006C170.535 10.814 170.485 10.668 170.385 10.568C170.289 10.464 170.149 10.412 169.965 10.412H168.813C168.773 10.412 168.753 10.43 168.753 10.466V13.676C168.753 13.712 168.773 13.73 168.813 13.73ZM168.453 13.928V10.214C168.453 10.166 168.473 10.142 168.513 10.142H169.995C170.255 10.142 170.459 10.218 170.607 10.37C170.759 10.522 170.835 10.73 170.835 10.994V13.148C170.835 13.412 170.759 13.62 170.607 13.772C170.459 13.924 170.255 14 169.995 14H168.513C168.473 14 168.453 13.976 168.453 13.928ZM172.123 10.214V13.928C172.123 13.976 172.101 14 172.057 14H171.883C171.843 14 171.823 13.976 171.823 13.928V10.214C171.823 10.166 171.843 10.142 171.883 10.142H172.057C172.101 10.142 172.123 10.166 172.123 10.214ZM173.152 13.148V12.932C173.152 12.888 173.174 12.866 173.218 12.866H173.392C173.436 12.866 173.458 12.888 173.458 12.932V13.13C173.458 13.53 173.652 13.73 174.04 13.73H174.664C175.052 13.73 175.246 13.528 175.246 13.124V12.872C175.246 12.696 175.174 12.558 175.03 12.458C174.886 12.358 174.712 12.286 174.508 12.242C174.304 12.198 174.098 12.152 173.89 12.104C173.686 12.056 173.512 11.968 173.368 11.84C173.224 11.712 173.152 11.54 173.152 11.324V10.994C173.152 10.73 173.228 10.522 173.38 10.37C173.532 10.218 173.738 10.142 173.998 10.142H174.694C174.954 10.142 175.16 10.218 175.312 10.37C175.464 10.522 175.54 10.73 175.54 10.994V11.162C175.54 11.206 175.518 11.228 175.474 11.228H175.3C175.256 11.228 175.234 11.206 175.234 11.162V11.012C175.234 10.612 175.04 10.412 174.652 10.412H174.034C173.65 10.412 173.458 10.616 173.458 11.024V11.324C173.458 11.6 173.704 11.786 174.196 11.882C174.4 11.922 174.604 11.968 174.808 12.02C175.016 12.072 175.192 12.166 175.336 12.302C175.48 12.438 175.552 12.622 175.552 12.854V13.148C175.552 13.412 175.476 13.62 175.324 13.772C175.172 13.924 174.966 14 174.706 14H173.998C173.738 14 173.532 13.924 173.38 13.772C173.228 13.62 173.152 13.412 173.152 13.148ZM176.443 14H176.257C176.213 14 176.199 13.976 176.215 13.928L177.409 10.214C177.421 10.166 177.449 10.142 177.493 10.142H177.775C177.815 10.142 177.843 10.166 177.859 10.214L179.053 13.928C179.065 13.976 179.051 14 179.011 14H178.819C178.779 14 178.753 13.976 178.741 13.928L178.417 12.968H176.845L176.521 13.928C176.505 13.976 176.479 14 176.443 14ZM177.619 10.472L176.929 12.698H178.339L177.643 10.472H177.619ZM180.104 13.736H181.22C181.6 13.736 181.79 13.544 181.79 13.16V12.746C181.79 12.366 181.582 12.176 181.166 12.176H180.104C180.064 12.176 180.044 12.192 180.044 12.224V13.682C180.044 13.718 180.064 13.736 180.104 13.736ZM180.104 11.912H181.16C181.348 11.912 181.492 11.862 181.592 11.762C181.696 11.662 181.748 11.52 181.748 11.336V10.982C181.748 10.598 181.558 10.406 181.178 10.406H180.104C180.064 10.406 180.044 10.424 180.044 10.46V11.858C180.044 11.894 180.064 11.912 180.104 11.912ZM179.744 13.928V10.214C179.744 10.166 179.764 10.142 179.804 10.142H181.202C181.462 10.142 181.668 10.216 181.82 10.364C181.972 10.512 182.048 10.716 182.048 10.976V11.342C182.048 11.706 181.876 11.94 181.532 12.044C181.68 12.052 181.81 12.12 181.922 12.248C182.034 12.376 182.09 12.542 182.09 12.746V13.166C182.09 13.426 182.014 13.63 181.862 13.778C181.71 13.926 181.504 14 181.244 14H179.804C179.764 14 179.744 13.976 179.744 13.928ZM184.988 14H183.08C183.04 14 183.02 13.976 183.02 13.928V10.214C183.02 10.166 183.04 10.142 183.08 10.142H183.254C183.298 10.142 183.32 10.166 183.32 10.214V13.664C183.32 13.7 183.34 13.718 183.38 13.718H184.988C185.036 13.718 185.06 13.74 185.06 13.784V13.934C185.06 13.978 185.036 14 184.988 14ZM187.641 14H185.787C185.747 14 185.727 13.976 185.727 13.928V10.214C185.727 10.166 185.747 10.142 185.787 10.142H187.641C187.689 10.142 187.713 10.164 187.713 10.208V10.346C187.713 10.39 187.689 10.412 187.641 10.412H186.087C186.047 10.412 186.027 10.43 186.027 10.466V11.846C186.027 11.882 186.047 11.9 186.087 11.9H187.473C187.517 11.9 187.539 11.922 187.539 11.966V12.104C187.539 12.148 187.517 12.17 187.473 12.17H186.087C186.047 12.17 186.027 12.188 186.027 12.224V13.676C186.027 13.712 186.047 13.73 186.087 13.73H187.641C187.689 13.73 187.713 13.752 187.713 13.796V13.934C187.713 13.978 187.689 14 187.641 14ZM188.975 13.73H190.127C190.311 13.73 190.451 13.68 190.547 13.58C190.647 13.476 190.697 13.328 190.697 13.136V11.006C190.697 10.814 190.647 10.668 190.547 10.568C190.451 10.464 190.311 10.412 190.127 10.412H188.975C188.935 10.412 188.915 10.43 188.915 10.466V13.676C188.915 13.712 188.935 13.73 188.975 13.73ZM188.615 13.928V10.214C188.615 10.166 188.635 10.142 188.675 10.142H190.157C190.417 10.142 190.621 10.218 190.769 10.37C190.921 10.522 190.997 10.73 190.997 10.994V13.148C190.997 13.412 190.921 13.62 190.769 13.772C190.621 13.924 190.417 14 190.157 14H188.675C188.635 14 188.615 13.976 188.615 13.928ZM116.486 21.148V20.932C116.486 20.888 116.508 20.866 116.552 20.866H116.726C116.77 20.866 116.792 20.888 116.792 20.932V21.13C116.792 21.53 116.986 21.73 117.374 21.73H117.998C118.386 21.73 118.58 21.528 118.58 21.124V20.872C118.58 20.696 118.508 20.558 118.364 20.458C118.22 20.358 118.046 20.286 117.842 20.242C117.638 20.198 117.432 20.152 117.224 20.104C117.02 20.056 116.846 19.968 116.702 19.84C116.558 19.712 116.486 19.54 116.486 19.324V18.994C116.486 18.73 116.562 18.522 116.714 18.37C116.866 18.218 117.072 18.142 117.332 18.142H118.028C118.288 18.142 118.494 18.218 118.646 18.37C118.798 18.522 118.874 18.73 118.874 18.994V19.162C118.874 19.206 118.852 19.228 118.808 19.228H118.634C118.59 19.228 118.568 19.206 118.568 19.162V19.012C118.568 18.612 118.374 18.412 117.986 18.412H117.368C116.984 18.412 116.792 18.616 116.792 19.024V19.324C116.792 19.6 117.038 19.786 117.53 19.882C117.734 19.922 117.938 19.968 118.142 20.02C118.35 20.072 118.526 20.166 118.67 20.302C118.814 20.438 118.886 20.622 118.886 20.854V21.148C118.886 21.412 118.81 21.62 118.658 21.772C118.506 21.924 118.3 22 118.04 22H117.332C117.072 22 116.866 21.924 116.714 21.772C116.562 21.62 116.486 21.412 116.486 21.148ZM120.209 18.214V21.928C120.209 21.976 120.187 22 120.143 22H119.969C119.929 22 119.909 21.976 119.909 21.928V18.214C119.909 18.166 119.929 18.142 119.969 18.142H120.143C120.187 18.142 120.209 18.166 120.209 18.214ZM122.696 22H122.042C121.782 22 121.576 21.924 121.424 21.772C121.276 21.62 121.202 21.412 121.202 21.148V18.994C121.202 18.73 121.276 18.522 121.424 18.37C121.576 18.218 121.782 18.142 122.042 18.142H122.696C122.956 18.142 123.162 18.218 123.314 18.37C123.466 18.522 123.542 18.73 123.542 18.994V19.264C123.542 19.312 123.52 19.336 123.476 19.336H123.302C123.258 19.336 123.236 19.312 123.236 19.264V19.006C123.236 18.814 123.188 18.668 123.092 18.568C122.996 18.464 122.856 18.412 122.672 18.412H122.066C121.882 18.412 121.742 18.464 121.646 18.568C121.55 18.672 121.502 18.818 121.502 19.006V21.136C121.502 21.324 121.55 21.47 121.646 21.574C121.742 21.678 121.882 21.73 122.066 21.73H122.672C122.856 21.73 122.996 21.68 123.092 21.58C123.188 21.476 123.236 21.328 123.236 21.136V20.344C123.236 20.308 123.218 20.29 123.182 20.29H122.492C122.448 20.29 122.426 20.268 122.426 20.224V20.086C122.426 20.042 122.448 20.02 122.492 20.02H123.428C123.504 20.02 123.542 20.06 123.542 20.14V21.148C123.542 21.412 123.466 21.62 123.314 21.772C123.162 21.924 122.956 22 122.696 22ZM124.73 22H124.556C124.516 22 124.496 21.976 124.496 21.928V18.214C124.496 18.166 124.516 18.142 124.556 18.142H124.718C124.754 18.142 124.778 18.154 124.79 18.178L126.632 21.346H126.656V18.214C126.656 18.166 126.678 18.142 126.722 18.142H126.89C126.934 18.142 126.956 18.166 126.956 18.214V21.928C126.956 21.976 126.934 22 126.89 22H126.752C126.716 22 126.684 21.978 126.656 21.934L124.82 18.79H124.796V21.928C124.796 21.976 124.774 22 124.73 22ZM127.869 22H127.683C127.639 22 127.625 21.976 127.641 21.928L128.835 18.214C128.847 18.166 128.875 18.142 128.919 18.142H129.201C129.241 18.142 129.269 18.166 129.285 18.214L130.479 21.928C130.491 21.976 130.477 22 130.437 22H130.245C130.205 22 130.179 21.976 130.167 21.928L129.843 20.968H128.271L127.947 21.928C127.931 21.976 127.905 22 127.869 22ZM129.045 18.472L128.355 20.698H129.765L129.069 18.472H129.045ZM133.138 22H131.23C131.19 22 131.17 21.976 131.17 21.928V18.214C131.17 18.166 131.19 18.142 131.23 18.142H131.404C131.448 18.142 131.47 18.166 131.47 18.214V21.664C131.47 21.7 131.49 21.718 131.53 21.718H133.138C133.186 21.718 133.21 21.74 133.21 21.784V21.934C133.21 21.978 133.186 22 133.138 22ZM137.013 22H136.257C135.997 22 135.791 21.924 135.639 21.772C135.491 21.62 135.417 21.412 135.417 21.148V18.994C135.417 18.73 135.491 18.522 135.639 18.37C135.791 18.218 135.997 18.142 136.257 18.142H137.013C137.273 18.142 137.477 18.218 137.625 18.37C137.777 18.522 137.853 18.73 137.853 18.994V19.288C137.853 19.336 137.831 19.36 137.787 19.36H137.619C137.575 19.36 137.553 19.336 137.553 19.288V19.006C137.553 18.814 137.503 18.668 137.403 18.568C137.307 18.464 137.167 18.412 136.983 18.412H136.281C136.097 18.412 135.957 18.464 135.861 18.568C135.765 18.672 135.717 18.818 135.717 19.006V21.136C135.717 21.324 135.765 21.47 135.861 21.574C135.957 21.678 136.097 21.73 136.281 21.73H136.983C137.167 21.73 137.307 21.68 137.403 21.58C137.503 21.476 137.553 21.328 137.553 21.136V20.854C137.553 20.806 137.575 20.782 137.619 20.782H137.787C137.831 20.782 137.853 20.806 137.853 20.854V21.148C137.853 21.412 137.777 21.62 137.625 21.772C137.477 21.924 137.273 22 137.013 22ZM140.697 22H138.789C138.749 22 138.729 21.976 138.729 21.928V18.214C138.729 18.166 138.749 18.142 138.789 18.142H138.963C139.007 18.142 139.029 18.166 139.029 18.214V21.664C139.029 21.7 139.049 21.718 139.089 21.718H140.697C140.745 21.718 140.769 21.74 140.769 21.784V21.934C140.769 21.978 140.745 22 140.697 22ZM142.24 21.73H142.924C143.108 21.73 143.248 21.68 143.344 21.58C143.444 21.476 143.494 21.328 143.494 21.136V19.006C143.494 18.814 143.444 18.668 143.344 18.568C143.248 18.464 143.108 18.412 142.924 18.412H142.24C142.056 18.412 141.916 18.464 141.82 18.568C141.724 18.672 141.676 18.818 141.676 19.006V21.136C141.676 21.324 141.724 21.47 141.82 21.574C141.916 21.678 142.056 21.73 142.24 21.73ZM142.954 22H142.216C141.956 22 141.75 21.924 141.598 21.772C141.45 21.62 141.376 21.412 141.376 21.148V18.994C141.376 18.73 141.45 18.522 141.598 18.37C141.75 18.218 141.956 18.142 142.216 18.142H142.954C143.214 18.142 143.418 18.218 143.566 18.37C143.718 18.522 143.794 18.73 143.794 18.994V21.148C143.794 21.412 143.718 21.62 143.566 21.772C143.418 21.924 143.214 22 142.954 22ZM144.65 22H144.464C144.42 22 144.406 21.976 144.422 21.928L145.616 18.214C145.628 18.166 145.656 18.142 145.7 18.142H145.982C146.022 18.142 146.05 18.166 146.066 18.214L147.26 21.928C147.272 21.976 147.258 22 147.218 22H147.026C146.986 22 146.96 21.976 146.948 21.928L146.624 20.968H145.052L144.728 21.928C144.712 21.976 144.686 22 144.65 22ZM145.826 18.472L145.136 20.698H146.546L145.85 18.472H145.826ZM148.185 22H148.011C147.971 22 147.951 21.976 147.951 21.928V18.214C147.951 18.166 147.971 18.142 148.011 18.142H148.185C148.229 18.142 148.251 18.166 148.251 18.214V20.428H148.275C148.299 20.364 148.335 20.298 148.383 20.23L149.907 18.214C149.943 18.166 149.985 18.142 150.033 18.142H150.243C150.295 18.142 150.303 18.166 150.267 18.214L149.061 19.828L150.453 21.928C150.485 21.976 150.473 22 150.417 22H150.249C150.189 22 150.145 21.976 150.117 21.928L148.869 20.056L148.251 20.8V21.928C148.251 21.976 148.229 22 148.185 22ZM116.87 29.736H117.986C118.366 29.736 118.556 29.544 118.556 29.16V28.746C118.556 28.366 118.348 28.176 117.932 28.176H116.87C116.83 28.176 116.81 28.192 116.81 28.224V29.682C116.81 29.718 116.83 29.736 116.87 29.736ZM116.87 27.912H117.926C118.114 27.912 118.258 27.862 118.358 27.762C118.462 27.662 118.514 27.52 118.514 27.336V26.982C118.514 26.598 118.324 26.406 117.944 26.406H116.87C116.83 26.406 116.81 26.424 116.81 26.46V27.858C116.81 27.894 116.83 27.912 116.87 27.912ZM116.51 29.928V26.214C116.51 26.166 116.53 26.142 116.57 26.142H117.968C118.228 26.142 118.434 26.216 118.586 26.364C118.738 26.512 118.814 26.716 118.814 26.976V27.342C118.814 27.706 118.642 27.94 118.298 28.044C118.446 28.052 118.576 28.12 118.688 28.248C118.8 28.376 118.856 28.542 118.856 28.746V29.166C118.856 29.426 118.78 29.63 118.628 29.778C118.476 29.926 118.27 30 118.01 30H116.57C116.53 30 116.51 29.976 116.51 29.928ZM120.115 26.214V29.928C120.115 29.976 120.093 30 120.049 30H119.875C119.835 30 119.815 29.976 119.815 29.928V26.214C119.815 26.166 119.835 26.142 119.875 26.142H120.049C120.093 26.142 120.115 26.166 120.115 26.214ZM121.972 29.73H122.656C122.84 29.73 122.98 29.68 123.076 29.58C123.176 29.476 123.226 29.328 123.226 29.136V27.006C123.226 26.814 123.176 26.668 123.076 26.568C122.98 26.464 122.84 26.412 122.656 26.412H121.972C121.788 26.412 121.648 26.464 121.552 26.568C121.456 26.672 121.408 26.818 121.408 27.006V29.136C121.408 29.324 121.456 29.47 121.552 29.574C121.648 29.678 121.788 29.73 121.972 29.73ZM122.686 30H121.948C121.688 30 121.482 29.924 121.33 29.772C121.182 29.62 121.108 29.412 121.108 29.148V26.994C121.108 26.73 121.182 26.522 121.33 26.37C121.482 26.218 121.688 26.142 121.948 26.142H122.686C122.946 26.142 123.15 26.218 123.298 26.37C123.45 26.522 123.526 26.73 123.526 26.994V29.148C123.526 29.412 123.45 29.62 123.298 29.772C123.15 29.924 122.946 30 122.686 30ZM127.257 26.142H127.581C127.621 26.142 127.641 26.166 127.641 26.214V29.928C127.641 29.976 127.621 30 127.581 30H127.407C127.363 30 127.341 29.976 127.341 29.928V26.604H127.317L126.255 29.094C126.231 29.138 126.201 29.16 126.165 29.16H125.967C125.927 29.16 125.899 29.138 125.883 29.094L124.803 26.598H124.779V29.928C124.779 29.976 124.759 30 124.719 30H124.545C124.505 30 124.485 29.976 124.485 29.928V26.214C124.485 26.166 124.505 26.142 124.545 26.142H124.869C124.897 26.142 124.915 26.154 124.923 26.178L126.051 28.812H126.075L127.203 26.178C127.211 26.154 127.229 26.142 127.257 26.142ZM130.576 30H128.722C128.682 30 128.662 29.976 128.662 29.928V26.214C128.662 26.166 128.682 26.142 128.722 26.142H130.576C130.624 26.142 130.648 26.164 130.648 26.208V26.346C130.648 26.39 130.624 26.412 130.576 26.412H129.022C128.982 26.412 128.962 26.43 128.962 26.466V27.846C128.962 27.882 128.982 27.9 129.022 27.9H130.408C130.452 27.9 130.474 27.922 130.474 27.966V28.104C130.474 28.148 130.452 28.17 130.408 28.17H129.022C128.982 28.17 128.962 28.188 128.962 28.224V29.676C128.962 29.712 128.982 29.73 129.022 29.73H130.576C130.624 29.73 130.648 29.752 130.648 29.796V29.934C130.648 29.978 130.624 30 130.576 30ZM132.391 30H132.217C132.173 30 132.151 29.976 132.151 29.928V26.466C132.151 26.43 132.131 26.412 132.091 26.412H131.221C131.173 26.412 131.149 26.39 131.149 26.346V26.208C131.149 26.164 131.173 26.142 131.221 26.142H133.381C133.429 26.142 133.453 26.164 133.453 26.208V26.346C133.453 26.39 133.429 26.412 133.381 26.412H132.511C132.471 26.412 132.451 26.43 132.451 26.466V29.928C132.451 29.976 132.431 30 132.391 30ZM134.305 30H134.131C134.091 30 134.071 29.976 134.071 29.928V26.214C134.071 26.166 134.091 26.142 134.131 26.142H135.499C135.759 26.142 135.965 26.218 136.117 26.37C136.269 26.522 136.345 26.73 136.345 26.994V27.564C136.345 27.788 136.287 27.972 136.171 28.116C136.059 28.26 135.905 28.352 135.709 28.392V28.416L136.423 29.928C136.447 29.976 136.433 30 136.381 30H136.195C136.143 30 136.107 29.976 136.087 29.928L135.379 28.416H134.431C134.391 28.416 134.371 28.434 134.371 28.47V29.928C134.371 29.976 134.349 30 134.305 30ZM134.431 28.158H135.469C135.653 28.158 135.795 28.108 135.895 28.008C135.995 27.904 136.045 27.758 136.045 27.57V27.006C136.045 26.818 135.995 26.672 135.895 26.568C135.795 26.464 135.653 26.412 135.469 26.412H134.431C134.391 26.412 134.371 26.43 134.371 26.466V28.104C134.371 28.14 134.391 28.158 134.431 28.158ZM137.606 26.214V29.928C137.606 29.976 137.584 30 137.54 30H137.366C137.326 30 137.306 29.976 137.306 29.928V26.214C137.306 26.166 137.326 26.142 137.366 26.142H137.54C137.584 26.142 137.606 26.166 137.606 26.214ZM140.194 30H139.438C139.178 30 138.972 29.924 138.82 29.772C138.672 29.62 138.598 29.412 138.598 29.148V26.994C138.598 26.73 138.672 26.522 138.82 26.37C138.972 26.218 139.178 26.142 139.438 26.142H140.194C140.454 26.142 140.658 26.218 140.806 26.37C140.958 26.522 141.034 26.73 141.034 26.994V27.288C141.034 27.336 141.012 27.36 140.968 27.36H140.8C140.756 27.36 140.734 27.336 140.734 27.288V27.006C140.734 26.814 140.684 26.668 140.584 26.568C140.488 26.464 140.348 26.412 140.164 26.412H139.462C139.278 26.412 139.138 26.464 139.042 26.568C138.946 26.672 138.898 26.818 138.898 27.006V29.136C138.898 29.324 138.946 29.47 139.042 29.574C139.138 29.678 139.278 29.73 139.462 29.73H140.164C140.348 29.73 140.488 29.68 140.584 29.58C140.684 29.476 140.734 29.328 140.734 29.136V28.854C140.734 28.806 140.756 28.782 140.8 28.782H140.968C141.012 28.782 141.034 28.806 141.034 28.854V29.148C141.034 29.412 140.958 29.62 140.806 29.772C140.658 29.924 140.454 30 140.194 30ZM145.046 30H144.29C144.03 30 143.824 29.924 143.672 29.772C143.524 29.62 143.45 29.412 143.45 29.148V26.994C143.45 26.73 143.524 26.522 143.672 26.37C143.824 26.218 144.03 26.142 144.29 26.142H145.046C145.306 26.142 145.51 26.218 145.658 26.37C145.81 26.522 145.886 26.73 145.886 26.994V27.288C145.886 27.336 145.864 27.36 145.82 27.36H145.652C145.608 27.36 145.586 27.336 145.586 27.288V27.006C145.586 26.814 145.536 26.668 145.436 26.568C145.34 26.464 145.2 26.412 145.016 26.412H144.314C144.13 26.412 143.99 26.464 143.894 26.568C143.798 26.672 143.75 26.818 143.75 27.006V29.136C143.75 29.324 143.798 29.47 143.894 29.574C143.99 29.678 144.13 29.73 144.314 29.73H145.016C145.2 29.73 145.34 29.68 145.436 29.58C145.536 29.476 145.586 29.328 145.586 29.136V28.854C145.586 28.806 145.608 28.782 145.652 28.782H145.82C145.864 28.782 145.886 28.806 145.886 28.854V29.148C145.886 29.412 145.81 29.62 145.658 29.772C145.51 29.924 145.306 30 145.046 30ZM147.566 29.73H148.25C148.434 29.73 148.574 29.68 148.67 29.58C148.77 29.476 148.82 29.328 148.82 29.136V27.006C148.82 26.814 148.77 26.668 148.67 26.568C148.574 26.464 148.434 26.412 148.25 26.412H147.566C147.382 26.412 147.242 26.464 147.146 26.568C147.05 26.672 147.002 26.818 147.002 27.006V29.136C147.002 29.324 147.05 29.47 147.146 29.574C147.242 29.678 147.382 29.73 147.566 29.73ZM148.28 30H147.542C147.282 30 147.076 29.924 146.924 29.772C146.776 29.62 146.702 29.412 146.702 29.148V26.994C146.702 26.73 146.776 26.522 146.924 26.37C147.076 26.218 147.282 26.142 147.542 26.142H148.28C148.54 26.142 148.744 26.218 148.892 26.37C149.044 26.522 149.12 26.73 149.12 26.994V29.148C149.12 29.412 149.044 29.62 148.892 29.772C148.744 29.924 148.54 30 148.28 30ZM150.312 30H150.138C150.098 30 150.078 29.976 150.078 29.928V26.214C150.078 26.166 150.098 26.142 150.138 26.142H150.3C150.336 26.142 150.36 26.154 150.372 26.178L152.214 29.346H152.238V26.214C152.238 26.166 152.26 26.142 152.304 26.142H152.472C152.516 26.142 152.538 26.166 152.538 26.214V29.928C152.538 29.976 152.516 30 152.472 30H152.334C152.298 30 152.266 29.978 152.238 29.934L150.402 26.79H150.378V29.928C150.378 29.976 150.356 30 150.312 30ZM154.393 30H154.219C154.175 30 154.153 29.976 154.153 29.928V26.466C154.153 26.43 154.133 26.412 154.093 26.412H153.223C153.175 26.412 153.151 26.39 153.151 26.346V26.208C153.151 26.164 153.175 26.142 153.223 26.142H155.383C155.431 26.142 155.455 26.164 155.455 26.208V26.346C155.455 26.39 155.431 26.412 155.383 26.412H154.513C154.473 26.412 154.453 26.43 154.453 26.466V29.928C154.453 29.976 154.433 30 154.393 30ZM156.307 30H156.133C156.093 30 156.073 29.976 156.073 29.928V26.214C156.073 26.166 156.093 26.142 156.133 26.142H157.501C157.761 26.142 157.967 26.218 158.119 26.37C158.271 26.522 158.347 26.73 158.347 26.994V27.564C158.347 27.788 158.289 27.972 158.173 28.116C158.061 28.26 157.907 28.352 157.711 28.392V28.416L158.425 29.928C158.449 29.976 158.435 30 158.383 30H158.197C158.145 30 158.109 29.976 158.089 29.928L157.381 28.416H156.433C156.393 28.416 156.373 28.434 156.373 28.47V29.928C156.373 29.976 156.351 30 156.307 30ZM156.433 28.158H157.471C157.655 28.158 157.797 28.108 157.897 28.008C157.997 27.904 158.047 27.758 158.047 27.57V27.006C158.047 26.818 157.997 26.672 157.897 26.568C157.797 26.464 157.655 26.412 157.471 26.412H156.433C156.393 26.412 156.373 26.43 156.373 26.466V28.104C156.373 28.14 156.393 28.158 156.433 28.158ZM160.082 29.73H160.766C160.95 29.73 161.09 29.68 161.186 29.58C161.286 29.476 161.336 29.328 161.336 29.136V27.006C161.336 26.814 161.286 26.668 161.186 26.568C161.09 26.464 160.95 26.412 160.766 26.412H160.082C159.898 26.412 159.758 26.464 159.662 26.568C159.566 26.672 159.518 26.818 159.518 27.006V29.136C159.518 29.324 159.566 29.47 159.662 29.574C159.758 29.678 159.898 29.73 160.082 29.73ZM160.796 30H160.058C159.798 30 159.592 29.924 159.44 29.772C159.292 29.62 159.218 29.412 159.218 29.148V26.994C159.218 26.73 159.292 26.522 159.44 26.37C159.592 26.218 159.798 26.142 160.058 26.142H160.796C161.056 26.142 161.26 26.218 161.408 26.37C161.56 26.522 161.636 26.73 161.636 26.994V29.148C161.636 29.412 161.56 29.62 161.408 29.772C161.26 29.924 161.056 30 160.796 30ZM164.562 30H162.654C162.614 30 162.594 29.976 162.594 29.928V26.214C162.594 26.166 162.614 26.142 162.654 26.142H162.828C162.872 26.142 162.894 26.166 162.894 26.214V29.664C162.894 29.7 162.914 29.718 162.954 29.718H164.562C164.61 29.718 164.634 29.74 164.634 29.784V29.934C164.634 29.978 164.61 30 164.562 30ZM165.277 29.148V28.932C165.277 28.888 165.299 28.866 165.343 28.866H165.517C165.561 28.866 165.583 28.888 165.583 28.932V29.13C165.583 29.53 165.777 29.73 166.165 29.73H166.789C167.177 29.73 167.371 29.528 167.371 29.124V28.872C167.371 28.696 167.299 28.558 167.155 28.458C167.011 28.358 166.837 28.286 166.633 28.242C166.429 28.198 166.223 28.152 166.015 28.104C165.811 28.056 165.637 27.968 165.493 27.84C165.349 27.712 165.277 27.54 165.277 27.324V26.994C165.277 26.73 165.353 26.522 165.505 26.37C165.657 26.218 165.863 26.142 166.123 26.142H166.819C167.079 26.142 167.285 26.218 167.437 26.37C167.589 26.522 167.665 26.73 167.665 26.994V27.162C167.665 27.206 167.643 27.228 167.599 27.228H167.425C167.381 27.228 167.359 27.206 167.359 27.162V27.012C167.359 26.612 167.165 26.412 166.777 26.412H166.159C165.775 26.412 165.583 26.616 165.583 27.024V27.324C165.583 27.6 165.829 27.786 166.321 27.882C166.525 27.922 166.729 27.968 166.933 28.02C167.141 28.072 167.317 28.166 167.461 28.302C167.605 28.438 167.677 28.622 167.677 28.854V29.148C167.677 29.412 167.601 29.62 167.449 29.772C167.297 29.924 167.091 30 166.831 30H166.123C165.863 30 165.657 29.924 165.505 29.772C165.353 29.62 165.277 29.412 165.277 29.148ZM170.504 30H170.33C170.29 30 170.27 29.976 170.27 29.928V26.214C170.27 26.166 170.29 26.142 170.33 26.142H170.492C170.528 26.142 170.552 26.154 170.564 26.178L172.406 29.346H172.43V26.214C172.43 26.166 172.452 26.142 172.496 26.142H172.664C172.708 26.142 172.73 26.166 172.73 26.214V29.928C172.73 29.976 172.708 30 172.664 30H172.526C172.49 30 172.458 29.978 172.43 29.934L170.594 26.79H170.57V29.928C170.57 29.976 170.548 30 170.504 30ZM174.548 29.73H175.232C175.416 29.73 175.556 29.68 175.652 29.58C175.752 29.476 175.802 29.328 175.802 29.136V27.006C175.802 26.814 175.752 26.668 175.652 26.568C175.556 26.464 175.416 26.412 175.232 26.412H174.548C174.364 26.412 174.224 26.464 174.128 26.568C174.032 26.672 173.984 26.818 173.984 27.006V29.136C173.984 29.324 174.032 29.47 174.128 29.574C174.224 29.678 174.364 29.73 174.548 29.73ZM175.262 30H174.524C174.264 30 174.058 29.924 173.906 29.772C173.758 29.62 173.684 29.412 173.684 29.148V26.994C173.684 26.73 173.758 26.522 173.906 26.37C174.058 26.218 174.264 26.142 174.524 26.142H175.262C175.522 26.142 175.726 26.218 175.874 26.37C176.026 26.522 176.102 26.73 176.102 26.994V29.148C176.102 29.412 176.026 29.62 175.874 29.772C175.726 29.924 175.522 30 175.262 30ZM177.901 30H177.727C177.683 30 177.661 29.976 177.661 29.928V26.466C177.661 26.43 177.641 26.412 177.601 26.412H176.731C176.683 26.412 176.659 26.39 176.659 26.346V26.208C176.659 26.164 176.683 26.142 176.731 26.142H178.891C178.939 26.142 178.963 26.164 178.963 26.208V26.346C178.963 26.39 178.939 26.412 178.891 26.412H178.021C177.981 26.412 177.961 26.43 177.961 26.466V29.928C177.961 29.976 177.941 30 177.901 30ZM181.414 30H181.24C181.2 30 181.18 29.976 181.18 29.928V26.214C181.18 26.166 181.2 26.142 181.24 26.142H183.088C183.136 26.142 183.16 26.164 183.16 26.208V26.346C183.16 26.39 183.136 26.412 183.088 26.412H181.54C181.5 26.412 181.48 26.43 181.48 26.466V27.924C181.48 27.956 181.5 27.972 181.54 27.972H182.926C182.97 27.972 182.992 27.994 182.992 28.038V28.182C182.992 28.226 182.97 28.248 182.926 28.248H181.54C181.5 28.248 181.48 28.264 181.48 28.296V29.928C181.48 29.976 181.458 30 181.414 30ZM184.738 29.73H185.422C185.606 29.73 185.746 29.68 185.842 29.58C185.942 29.476 185.992 29.328 185.992 29.136V27.006C185.992 26.814 185.942 26.668 185.842 26.568C185.746 26.464 185.606 26.412 185.422 26.412H184.738C184.554 26.412 184.414 26.464 184.318 26.568C184.222 26.672 184.174 26.818 184.174 27.006V29.136C184.174 29.324 184.222 29.47 184.318 29.574C184.414 29.678 184.554 29.73 184.738 29.73ZM185.452 30H184.714C184.454 30 184.248 29.924 184.096 29.772C183.948 29.62 183.874 29.412 183.874 29.148V26.994C183.874 26.73 183.948 26.522 184.096 26.37C184.248 26.218 184.454 26.142 184.714 26.142H185.452C185.712 26.142 185.916 26.218 186.064 26.37C186.216 26.522 186.292 26.73 186.292 26.994V29.148C186.292 29.412 186.216 29.62 186.064 29.772C185.916 29.924 185.712 30 185.452 30ZM189.338 26.142H189.506C189.55 26.142 189.572 26.164 189.572 26.208V29.148C189.572 29.412 189.496 29.62 189.344 29.772C189.196 29.924 188.992 30 188.732 30H188.06C187.8 30 187.594 29.924 187.442 29.772C187.294 29.62 187.22 29.412 187.22 29.148V26.214C187.22 26.166 187.24 26.142 187.28 26.142H187.454C187.498 26.142 187.52 26.166 187.52 26.214V29.136C187.52 29.324 187.568 29.47 187.664 29.574C187.76 29.678 187.9 29.73 188.084 29.73H188.702C188.886 29.73 189.026 29.68 189.122 29.58C189.222 29.476 189.272 29.328 189.272 29.136V26.214C189.272 26.166 189.294 26.142 189.338 26.142ZM190.795 30H190.621C190.581 30 190.561 29.976 190.561 29.928V26.214C190.561 26.166 190.581 26.142 190.621 26.142H190.783C190.819 26.142 190.843 26.154 190.855 26.178L192.697 29.346H192.721V26.214C192.721 26.166 192.743 26.142 192.787 26.142H192.955C192.999 26.142 193.021 26.166 193.021 26.214V29.928C193.021 29.976 192.999 30 192.955 30H192.817C192.781 30 192.749 29.978 192.721 29.934L190.885 26.79H190.861V29.928C190.861 29.976 190.839 30 190.795 30ZM194.395 29.73H195.547C195.731 29.73 195.871 29.68 195.967 29.58C196.067 29.476 196.117 29.328 196.117 29.136V27.006C196.117 26.814 196.067 26.668 195.967 26.568C195.871 26.464 195.731 26.412 195.547 26.412H194.395C194.355 26.412 194.335 26.43 194.335 26.466V29.676C194.335 29.712 194.355 29.73 194.395 29.73ZM194.035 29.928V26.214C194.035 26.166 194.055 26.142 194.095 26.142H195.577C195.837 26.142 196.041 26.218 196.189 26.37C196.341 26.522 196.417 26.73 196.417 26.994V29.148C196.417 29.412 196.341 29.62 196.189 29.772C196.041 29.924 195.837 30 195.577 30H194.095C194.055 30 194.035 29.976 194.035 29.928Z" fill="#55EAD4"/>
</svg>
