<svg width="64" height="24" viewBox="0 0 64 24" fill="none" xmlns="http://www.w3.org/2000/svg">
<path d="M0.522 3C0.456 3 0.395 2.984 0.339 2.952C0.285 2.92 0.242 2.877 0.21 2.823C0.178 2.767 0.162 2.706 0.162 2.64V1.2C0.162 1.134 0.178 1.074 0.21 1.02C0.242 0.964 0.285 0.92 0.339 0.888C0.395 0.856 0.456 0.84 0.522 0.84H1.962C2.028 0.84 2.088 0.856 2.142 0.888C2.198 0.92 2.242 0.964 2.274 1.02C2.306 1.074 2.322 1.134 2.322 1.2V2.64C2.322 2.706 2.306 2.767 2.274 2.823C2.242 2.877 2.198 2.92 2.142 2.952C2.088 2.984 2.028 3 1.962 3H0.522ZM0.522 2.757H1.962C1.994 2.757 2.021 2.746 2.043 2.724C2.067 2.7 2.079 2.672 2.079 2.64V1.2C2.079 1.168 2.067 1.141 2.043 1.119C2.021 1.095 1.994 1.083 1.962 1.083H0.522C0.49 1.083 0.462 1.095 0.438 1.119C0.416 1.141 0.405 1.168 0.405 1.2V2.64C0.405 2.672 0.416 2.7 0.438 2.724C0.462 2.746 0.49 2.757 0.522 2.757ZM2.64638 3.69V1.26H4.05638C4.12238 1.26 4.18238 1.277 4.23638 1.311C4.29238 1.343 4.33638 1.387 4.36838 1.443C4.40238 1.497 4.41938 1.557 4.41938 1.623V2.637C4.41938 2.703 4.40238 2.764 4.36838 2.82C4.33638 2.874 4.29238 2.918 4.23638 2.952C4.18238 2.984 4.12238 3 4.05638 3H2.89238V3.69H2.64638ZM3.01238 2.754H4.05638C4.08838 2.754 4.11538 2.743 4.13737 2.721C4.16138 2.697 4.17338 2.669 4.17338 2.637V1.623C4.17338 1.591 4.16138 1.564 4.13737 1.542C4.11538 1.518 4.08838 1.506 4.05638 1.506H3.01238C2.98038 1.506 2.95238 1.518 2.92838 1.542C2.90438 1.564 2.89238 1.591 2.89238 1.623V2.637C2.89238 2.669 2.90438 2.697 2.92838 2.721C2.95238 2.743 2.98038 2.754 3.01238 2.754ZM4.99256 3C4.92656 3 4.86556 2.984 4.80956 2.952C4.75556 2.918 4.71156 2.874 4.67756 2.82C4.64556 2.764 4.62956 2.703 4.62956 2.637V1.623C4.62956 1.557 4.64556 1.497 4.67756 1.443C4.71156 1.387 4.75556 1.343 4.80956 1.311C4.86556 1.277 4.92656 1.26 4.99256 1.26H6.03656C6.10456 1.26 6.16556 1.277 6.21956 1.311C6.27556 1.343 6.31956 1.387 6.35156 1.443C6.38556 1.497 6.40256 1.557 6.40256 1.623V2.253H4.87556V2.637C4.87556 2.669 4.88656 2.697 4.90856 2.721C4.93256 2.743 4.96056 2.754 4.99256 2.754H6.40256V3H4.99256ZM4.87556 2.007H6.15356V1.623C6.15356 1.591 6.14156 1.564 6.11756 1.542C6.09556 1.518 6.06856 1.506 6.03656 1.506H4.99256C4.96056 1.506 4.93256 1.518 4.90856 1.542C4.88656 1.564 4.87556 1.591 4.87556 1.623V2.007ZM6.69506 3V1.623C6.69506 1.557 6.71106 1.497 6.74306 1.443C6.77706 1.387 6.82106 1.343 6.87506 1.311C6.93106 1.277 6.99206 1.26 7.05806 1.26H8.03606V1.506H7.05806C7.02606 1.506 6.99806 1.518 6.97406 1.542C6.95206 1.564 6.94106 1.591 6.94106 1.623V3H6.69506ZM8.59322 3C8.52722 3 8.46622 2.984 8.41022 2.952C8.35622 2.918 8.31222 2.874 8.27822 2.82C8.24622 2.764 8.23022 2.703 8.23022 2.637V2.007H9.75422V1.623C9.75422 1.591 9.74222 1.564 9.71822 1.542C9.69622 1.518 9.66922 1.506 9.63722 1.506H8.23022V1.26H9.63722C9.70522 1.26 9.76622 1.277 9.82022 1.311C9.87622 1.343 9.92022 1.387 9.95222 1.443C9.98622 1.497 10.0032 1.557 10.0032 1.623V3H8.59322ZM8.59322 2.754H9.75422V2.253H8.47622V2.637C8.47622 2.669 8.48722 2.697 8.50922 2.721C8.53322 2.743 8.56122 2.754 8.59322 2.754ZM10.6792 3C10.6112 3 10.5492 2.984 10.4932 2.952C10.4392 2.918 10.3962 2.874 10.3642 2.82C10.3322 2.764 10.3162 2.703 10.3162 2.637V0.69H10.5622V1.26H11.3152V1.506H10.5622V2.637C10.5622 2.669 10.5732 2.697 10.5952 2.721C10.6192 2.743 10.6472 2.754 10.6792 2.754H11.3152V3H10.6792ZM11.9037 3C11.8377 3 11.7767 2.984 11.7207 2.952C11.6667 2.918 11.6227 2.874 11.5887 2.82C11.5567 2.764 11.5407 2.703 11.5407 2.637V1.623C11.5407 1.557 11.5567 1.497 11.5887 1.443C11.6227 1.387 11.6667 1.343 11.7207 1.311C11.7767 1.277 11.8377 1.26 11.9037 1.26H12.9477C13.0157 1.26 13.0767 1.277 13.1307 1.311C13.1867 1.343 13.2307 1.387 13.2627 1.443C13.2967 1.497 13.3137 1.557 13.3137 1.623V2.637C13.3137 2.703 13.2967 2.764 13.2627 2.82C13.2307 2.874 13.1867 2.918 13.1307 2.952C13.0767 2.984 13.0157 3 12.9477 3H11.9037ZM11.9037 2.754H12.9477C12.9797 2.754 13.0067 2.743 13.0287 2.721C13.0527 2.697 13.0647 2.669 13.0647 2.637V1.623C13.0647 1.591 13.0527 1.564 13.0287 1.542C13.0067 1.518 12.9797 1.506 12.9477 1.506H11.9037C11.8717 1.506 11.8437 1.518 11.8197 1.542C11.7977 1.564 11.7867 1.591 11.7867 1.623V2.637C11.7867 2.669 11.7977 2.697 11.8197 2.721C11.8437 2.743 11.8717 2.754 11.9037 2.754ZM13.5915 3V1.623C13.5915 1.557 13.6075 1.497 13.6395 1.443C13.6735 1.387 13.7175 1.343 13.7715 1.311C13.8275 1.277 13.8885 1.26 13.9545 1.26H14.9325V1.506H13.9545C13.9225 1.506 13.8945 1.518 13.8705 1.542C13.8485 1.564 13.8375 1.591 13.8375 1.623V3H13.5915ZM15.9501 3V1.26H17.3601C17.4261 1.26 17.4861 1.277 17.5401 1.311C17.5961 1.343 17.6401 1.387 17.6721 1.443C17.7061 1.497 17.7231 1.557 17.7231 1.623V3H17.4771V1.623C17.4771 1.591 17.4651 1.564 17.4411 1.542C17.4191 1.518 17.3921 1.506 17.3601 1.506H16.3161C16.2841 1.506 16.2561 1.518 16.2321 1.542C16.2081 1.564 16.1961 1.591 16.1961 1.623V3H15.9501ZM18.396 3C18.33 3 18.269 2.984 18.213 2.952C18.159 2.918 18.115 2.874 18.081 2.82C18.049 2.764 18.033 2.703 18.033 2.637V2.007H19.557V1.623C19.557 1.591 19.545 1.564 19.521 1.542C19.499 1.518 19.472 1.506 19.44 1.506H18.033V1.26H19.44C19.508 1.26 19.569 1.277 19.623 1.311C19.679 1.343 19.723 1.387 19.755 1.443C19.789 1.497 19.806 1.557 19.806 1.623V3H18.396ZM18.396 2.754H19.557V2.253H18.279V2.637C18.279 2.669 18.29 2.697 18.312 2.721C18.336 2.743 18.364 2.754 18.396 2.754ZM20.0634 3V1.26H22.3614C22.4294 1.26 22.4904 1.277 22.5444 1.311C22.6004 1.343 22.6444 1.387 22.6764 1.443C22.7084 1.497 22.7244 1.557 22.7244 1.623V3H22.4814V1.623C22.4814 1.591 22.4694 1.564 22.4454 1.542C22.4214 1.518 22.3934 1.506 22.3614 1.506H21.6384C21.6064 1.506 21.5784 1.518 21.5544 1.542C21.5324 1.564 21.5214 1.591 21.5214 1.623V3H21.2724V1.623C21.2724 1.591 21.2604 1.564 21.2364 1.542C21.2144 1.518 21.1874 1.506 21.1554 1.506H20.4294C20.3974 1.506 20.3694 1.518 20.3454 1.542C20.3234 1.564 20.3124 1.591 20.3124 1.623V3H20.0634ZM23.35 3C23.284 3 23.223 2.984 23.167 2.952C23.113 2.918 23.069 2.874 23.035 2.82C23.003 2.764 22.987 2.703 22.987 2.637V1.623C22.987 1.557 23.003 1.497 23.035 1.443C23.069 1.387 23.113 1.343 23.167 1.311C23.223 1.277 23.284 1.26 23.35 1.26H24.394C24.462 1.26 24.523 1.277 24.577 1.311C24.633 1.343 24.677 1.387 24.709 1.443C24.743 1.497 24.76 1.557 24.76 1.623V2.253H23.233V2.637C23.233 2.669 23.244 2.697 23.266 2.721C23.29 2.743 23.318 2.754 23.35 2.754H24.76V3H23.35ZM23.233 2.007H24.511V1.623C24.511 1.591 24.499 1.564 24.475 1.542C24.453 1.518 24.426 1.506 24.394 1.506H23.35C23.318 1.506 23.29 1.518 23.266 1.542C23.244 1.564 23.233 1.591 23.233 1.623V2.007ZM25.0731 1.482V1.236H25.3191V1.482H25.0731ZM25.0731 3V2.754H25.3191V3H25.0731ZM1.641 5.071H1.803C1.823 5.071 1.833 5.083 1.833 5.107V6.964C1.833 6.988 1.823 7 1.803 7H1.716C1.694 7 1.683 6.988 1.683 6.964V5.302H1.671L1.14 6.547C1.128 6.569 1.113 6.58 1.095 6.58H0.996C0.976 6.58 0.962 6.569 0.954 6.547L0.414 5.299H0.402V6.964C0.402 6.988 0.392 7 0.372 7H0.285C0.265 7 0.255 6.988 0.255 6.964V5.107C0.255 5.083 0.265 5.071 0.285 5.071H0.447C0.461 5.071 0.47 5.077 0.474 5.089L1.038 6.406H1.05L1.614 5.089C1.618 5.077 1.627 5.071 1.641 5.071ZM2.96187 7H2.70387C2.57387 7 2.47087 6.962 2.39487 6.886C2.32087 6.81 2.28387 6.706 2.28387 6.574V5.896C2.28387 5.764 2.32087 5.66 2.39487 5.584C2.47087 5.508 2.57387 5.47 2.70387 5.47H2.96187C3.09187 5.47 3.19487 5.508 3.27087 5.584C3.34687 5.66 3.38487 5.764 3.38487 5.896V6.574C3.38487 6.706 3.34687 6.81 3.27087 6.886C3.19487 6.962 3.09187 7 2.96187 7ZM2.71587 6.865H2.94987C3.04187 6.865 3.11187 6.84 3.15987 6.79C3.20987 6.738 3.23487 6.665 3.23487 6.571V5.899C3.23487 5.805 3.20987 5.733 3.15987 5.683C3.11187 5.631 3.04187 5.605 2.94987 5.605H2.71587C2.62387 5.605 2.55387 5.631 2.50587 5.683C2.45787 5.733 2.43387 5.805 2.43387 5.899V6.571C2.43387 6.665 2.45787 6.738 2.50587 6.79C2.55387 6.84 2.62387 6.865 2.71587 6.865ZM4.45015 7H4.19215C4.06215 7 3.95915 6.962 3.88315 6.886C3.80915 6.81 3.77215 6.706 3.77215 6.574V5.896C3.77215 5.764 3.80915 5.66 3.88315 5.584C3.95915 5.508 4.06215 5.47 4.19215 5.47H4.45015C4.58015 5.47 4.68315 5.508 4.75915 5.584C4.83515 5.66 4.87315 5.764 4.87315 5.896V6.574C4.87315 6.706 4.83515 6.81 4.75915 6.886C4.68315 6.962 4.58015 7 4.45015 7ZM4.20415 6.865H4.43815C4.53015 6.865 4.60015 6.84 4.64815 6.79C4.69815 6.738 4.72315 6.665 4.72315 6.571V5.899C4.72315 5.805 4.69815 5.733 4.64815 5.683C4.60015 5.631 4.53015 5.605 4.43815 5.605H4.20415C4.11215 5.605 4.04215 5.631 3.99415 5.683C3.94615 5.733 3.92215 5.805 3.92215 5.899V6.571C3.92215 6.665 3.94615 6.738 3.99415 6.79C4.04215 6.84 4.11215 6.865 4.20415 6.865ZM5.40743 7H5.32043C5.30043 7 5.29043 6.988 5.29043 6.964V5.506C5.29043 5.482 5.30043 5.47 5.32043 5.47H5.40743C5.42943 5.47 5.44043 5.482 5.44043 5.506V5.626H5.45243C5.50843 5.522 5.61243 5.47 5.76443 5.47H5.96243C6.09043 5.47 6.19143 5.508 6.26543 5.584C6.33943 5.66 6.37643 5.764 6.37643 5.896V6.964C6.37643 6.988 6.36643 7 6.34643 7H6.25943C6.23743 7 6.22643 6.988 6.22643 6.964V5.902C6.22643 5.808 6.20243 5.735 6.15443 5.683C6.10643 5.631 6.03643 5.605 5.94443 5.605H5.74943C5.65343 5.605 5.57743 5.631 5.52143 5.683C5.46743 5.733 5.44043 5.805 5.44043 5.899V6.964C5.44043 6.988 5.42943 7 5.40743 7ZM7.30594 7H6.78394C6.76194 7 6.75094 6.989 6.75094 6.967V6.898C6.75094 6.878 6.76194 6.868 6.78394 6.868H7.29094C7.47094 6.868 7.56094 6.798 7.56094 6.658V6.586C7.56094 6.456 7.50494 6.371 7.39294 6.331L7.01794 6.187C6.91594 6.147 6.84294 6.1 6.79894 6.046C6.75694 5.992 6.73594 5.917 6.73594 5.821C6.73594 5.587 6.86494 5.47 7.12294 5.47H7.60894C7.63094 5.47 7.64194 5.481 7.64194 5.503V5.572C7.64194 5.592 7.63094 5.602 7.60894 5.602H7.13794C7.05594 5.602 6.99394 5.62 6.95194 5.656C6.91194 5.692 6.89194 5.734 6.89194 5.782V5.851C6.89194 5.907 6.90694 5.951 6.93694 5.983C6.96894 6.015 7.01694 6.042 7.08094 6.064L7.45594 6.214C7.55994 6.248 7.62894 6.299 7.66294 6.367C7.69894 6.433 7.71694 6.526 7.71694 6.646C7.71694 6.766 7.68294 6.855 7.61494 6.913C7.54894 6.971 7.44594 7 7.30594 7ZM8.21993 7H8.13293C8.11293 7 8.10293 6.988 8.10293 6.964V4.927C8.10293 4.903 8.11293 4.891 8.13293 4.891H8.21993C8.24193 4.891 8.25293 4.903 8.25293 4.927V5.626H8.26493C8.32093 5.522 8.42493 5.47 8.57693 5.47H8.77493C8.90293 5.47 9.00393 5.508 9.07793 5.584C9.15193 5.66 9.18893 5.764 9.18893 5.896V6.964C9.18893 6.988 9.17893 7 9.15893 7H9.07193C9.04993 7 9.03893 6.988 9.03893 6.964V5.902C9.03893 5.808 9.01493 5.735 8.96693 5.683C8.91893 5.631 8.84893 5.605 8.75693 5.605H8.56193C8.46593 5.605 8.38993 5.631 8.33393 5.683C8.27993 5.733 8.25293 5.805 8.25293 5.899V6.964C8.25293 6.988 8.24193 7 8.21993 7ZM9.63844 5.218V4.93C9.63844 4.908 9.64844 4.897 9.66844 4.897H9.75844C9.77844 4.897 9.78844 4.908 9.78844 4.93V5.218C9.78844 5.242 9.77844 5.254 9.75844 5.254H9.66844C9.64844 5.254 9.63844 5.242 9.63844 5.218ZM9.63844 6.964V5.506C9.63844 5.482 9.64844 5.47 9.66844 5.47H9.75544C9.77744 5.47 9.78844 5.482 9.78844 5.506V6.964C9.78844 6.988 9.77844 7 9.75844 7H9.66844C9.64844 7 9.63844 6.988 9.63844 6.964ZM10.3703 7H10.2833C10.2633 7 10.2533 6.988 10.2533 6.964V5.506C10.2533 5.482 10.2633 5.47 10.2833 5.47H10.3703C10.3923 5.47 10.4033 5.482 10.4033 5.506V5.626H10.4153C10.4713 5.522 10.5753 5.47 10.7273 5.47H10.9253C11.0533 5.47 11.1543 5.508 11.2283 5.584C11.3023 5.66 11.3393 5.764 11.3393 5.896V6.964C11.3393 6.988 11.3293 7 11.3093 7H11.2223C11.2003 7 11.1893 6.988 11.1893 6.964V5.902C11.1893 5.808 11.1653 5.735 11.1173 5.683C11.0693 5.631 10.9993 5.605 10.9073 5.605H10.7123C10.6163 5.605 10.5403 5.631 10.4843 5.683C10.4303 5.733 10.4033 5.805 10.4033 5.899V6.964C10.4033 6.988 10.3923 7 10.3703 7ZM12.7908 7H12.1638C12.0338 7 11.9308 6.962 11.8548 6.886C11.7808 6.81 11.7438 6.706 11.7438 6.574V5.896C11.7438 5.764 11.7808 5.66 11.8548 5.584C11.9308 5.508 12.0338 5.47 12.1638 5.47H12.4218C12.5518 5.47 12.6548 5.508 12.7308 5.584C12.8068 5.66 12.8448 5.764 12.8448 5.896V6.277C12.8448 6.301 12.8328 6.313 12.8088 6.313H11.9208C11.9028 6.313 11.8938 6.322 11.8938 6.34V6.571C11.8938 6.665 11.9178 6.738 11.9658 6.79C12.0138 6.84 12.0838 6.865 12.1758 6.865H12.7908C12.8128 6.865 12.8238 6.876 12.8238 6.898V6.967C12.8238 6.989 12.8128 7 12.7908 7ZM11.9208 6.193H12.6678C12.6858 6.193 12.6948 6.184 12.6948 6.166V5.899C12.6948 5.805 12.6708 5.733 12.6228 5.683C12.5748 5.631 12.5048 5.605 12.4128 5.605H12.1758C12.0838 5.605 12.0138 5.631 11.9658 5.683C11.9178 5.733 11.8938 5.805 11.8938 5.899V6.166C11.8938 6.184 11.9028 6.193 11.9208 6.193ZM14.6052 6.106H13.9812C13.9572 6.106 13.9452 6.095 13.9452 6.073V6.007C13.9452 5.985 13.9572 5.974 13.9812 5.974H14.6052C14.6292 5.974 14.6412 5.985 14.6412 6.007V6.073C14.6412 6.095 14.6292 6.106 14.6052 6.106ZM16.3786 7H16.2406C16.2206 7 16.2076 6.988 16.2016 6.964L15.6436 5.107C15.6356 5.083 15.6446 5.071 15.6706 5.071H15.7636C15.7836 5.071 15.7966 5.083 15.8026 5.107L16.3036 6.814H16.3156L16.8166 5.107C16.8226 5.083 16.8356 5.071 16.8556 5.071H16.9486C16.9726 5.071 16.9816 5.083 16.9756 5.107L16.4176 6.964C16.4116 6.988 16.3986 7 16.3786 7ZM18.1126 6.472V5.191L17.3566 6.472H18.1126ZM18.2266 7H18.1456C18.1236 7 18.1126 6.988 18.1126 6.964V6.607H17.2426C17.2126 6.607 17.1976 6.593 17.1976 6.565V6.511C17.1976 6.493 17.2046 6.47 17.2186 6.442L18.0046 5.116C18.0226 5.086 18.0466 5.071 18.0766 5.071H18.2176C18.2456 5.071 18.2596 5.086 18.2596 5.116V6.472H18.4846C18.5066 6.472 18.5176 6.482 18.5176 6.502V6.574C18.5176 6.596 18.5066 6.607 18.4846 6.607H18.2596V6.964C18.2596 6.988 18.2486 7 18.2266 7ZM18.9872 6.607V6.964C18.9872 6.988 18.9772 7 18.9572 7H18.8522C18.8302 7 18.8192 6.988 18.8192 6.964V6.607C18.8192 6.585 18.8302 6.574 18.8522 6.574H18.9572C18.9772 6.574 18.9872 6.585 18.9872 6.607ZM19.3724 6.967V6.703C19.3724 6.563 19.4324 6.448 19.5524 6.358L20.1434 5.908C20.2454 5.83 20.2964 5.73 20.2964 5.608V5.491C20.2964 5.299 20.2014 5.203 20.0114 5.203H19.7954C19.6074 5.203 19.5134 5.299 19.5134 5.491V5.626C19.5134 5.65 19.5024 5.662 19.4804 5.662H19.3934C19.3714 5.662 19.3604 5.65 19.3604 5.626V5.488C19.3604 5.358 19.3984 5.256 19.4744 5.182C19.5504 5.108 19.6534 5.071 19.7834 5.071H20.0264C20.1564 5.071 20.2584 5.108 20.3324 5.182C20.4084 5.254 20.4464 5.356 20.4464 5.488V5.614C20.4464 5.77 20.3834 5.896 20.2574 5.992L19.6604 6.451C19.5764 6.515 19.5344 6.594 19.5344 6.688V6.862H20.4224C20.4444 6.862 20.4554 6.873 20.4554 6.895V6.967C20.4554 6.989 20.4444 7 20.4224 7H19.4084C19.3844 7 19.3724 6.989 19.3724 6.967ZM21.3 5.962H21.48C21.67 5.962 21.765 5.867 21.765 5.677V5.491C21.765 5.299 21.67 5.203 21.48 5.203H21.249C21.059 5.203 20.964 5.299 20.964 5.491V5.599C20.964 5.621 20.954 5.632 20.934 5.632H20.847C20.825 5.632 20.814 5.621 20.814 5.599V5.488C20.814 5.358 20.852 5.256 20.928 5.182C21.004 5.108 21.107 5.071 21.237 5.071H21.492C21.622 5.071 21.725 5.108 21.801 5.182C21.877 5.256 21.915 5.358 21.915 5.488V5.68C21.915 5.864 21.832 5.98 21.666 6.028C21.832 6.074 21.915 6.191 21.915 6.379V6.583C21.915 6.713 21.877 6.815 21.801 6.889C21.725 6.963 21.622 7 21.492 7H21.237C21.107 7 21.004 6.963 20.928 6.889C20.852 6.815 20.814 6.713 20.814 6.583V6.448C20.814 6.424 20.825 6.412 20.847 6.412H20.934C20.954 6.412 20.964 6.424 20.964 6.448V6.58C20.964 6.772 21.059 6.868 21.249 6.868H21.48C21.67 6.868 21.765 6.772 21.765 6.58V6.382C21.765 6.19 21.67 6.094 21.48 6.094H21.3C21.278 6.094 21.267 6.083 21.267 6.061V5.995C21.267 5.973 21.278 5.962 21.3 5.962ZM22.4823 6.607V6.964C22.4823 6.988 22.4723 7 22.4523 7H22.3473C22.3253 7 22.3143 6.988 22.3143 6.964V6.607C22.3143 6.585 22.3253 6.574 22.3473 6.574H22.4523C22.4723 6.574 22.4823 6.585 22.4823 6.607ZM23.8593 7H23.7723C23.7523 7 23.7423 6.988 23.7423 6.964V5.107C23.7423 5.083 23.7523 5.071 23.7723 5.071H24.4563C24.5863 5.071 24.6893 5.109 24.7653 5.185C24.8413 5.261 24.8793 5.365 24.8793 5.497V5.782C24.8793 5.894 24.8503 5.986 24.7923 6.058C24.7363 6.13 24.6593 6.176 24.5613 6.196V6.208L24.9183 6.964C24.9303 6.988 24.9233 7 24.8973 7H24.8043C24.7783 7 24.7603 6.988 24.7503 6.964L24.3963 6.208H23.9223C23.9023 6.208 23.8923 6.217 23.8923 6.235V6.964C23.8923 6.988 23.8813 7 23.8593 7ZM23.9223 6.079H24.4413C24.5333 6.079 24.6043 6.054 24.6543 6.004C24.7043 5.952 24.7293 5.879 24.7293 5.785V5.503C24.7293 5.409 24.7043 5.336 24.6543 5.284C24.6043 5.232 24.5333 5.206 24.4413 5.206H23.9223C23.9023 5.206 23.8923 5.215 23.8923 5.233V6.052C23.8923 6.07 23.9023 6.079 23.9223 6.079ZM26.3318 7H25.7048C25.5748 7 25.4718 6.962 25.3958 6.886C25.3218 6.81 25.2848 6.706 25.2848 6.574V5.896C25.2848 5.764 25.3218 5.66 25.3958 5.584C25.4718 5.508 25.5748 5.47 25.7048 5.47H25.9628C26.0928 5.47 26.1958 5.508 26.2718 5.584C26.3478 5.66 26.3858 5.764 26.3858 5.896V6.277C26.3858 6.301 26.3738 6.313 26.3498 6.313H25.4618C25.4438 6.313 25.4348 6.322 25.4348 6.34V6.571C25.4348 6.665 25.4588 6.738 25.5068 6.79C25.5548 6.84 25.6248 6.865 25.7168 6.865H26.3318C26.3538 6.865 26.3648 6.876 26.3648 6.898V6.967C26.3648 6.989 26.3538 7 26.3318 7ZM25.4618 6.193H26.2088C26.2268 6.193 26.2358 6.184 26.2358 6.166V5.899C26.2358 5.805 26.2118 5.733 26.1638 5.683C26.1158 5.631 26.0458 5.605 25.9538 5.605H25.7168C25.6248 5.605 25.5548 5.631 25.5068 5.683C25.4588 5.733 25.4348 5.805 25.4348 5.899V6.166C25.4348 6.184 25.4438 6.193 25.4618 6.193ZM27.6464 6.898V6.967C27.6464 6.989 27.6354 7 27.6134 7H27.1814C27.0514 7 26.9484 6.962 26.8724 6.886C26.7984 6.81 26.7614 6.706 26.7614 6.574V5.896C26.7614 5.764 26.7984 5.66 26.8724 5.584C26.9484 5.508 27.0514 5.47 27.1814 5.47H27.6134C27.6354 5.47 27.6464 5.481 27.6464 5.503V5.575C27.6464 5.595 27.6354 5.605 27.6134 5.605H27.1934C27.1014 5.605 27.0314 5.631 26.9834 5.683C26.9354 5.735 26.9114 5.808 26.9114 5.902V6.568C26.9114 6.662 26.9354 6.735 26.9834 6.787C27.0314 6.839 27.1014 6.865 27.1934 6.865H27.6134C27.6354 6.865 27.6464 6.876 27.6464 6.898ZM28.6201 7H28.3621C28.2321 7 28.1291 6.962 28.0531 6.886C27.9791 6.81 27.9421 6.706 27.9421 6.574V5.896C27.9421 5.764 27.9791 5.66 28.0531 5.584C28.1291 5.508 28.2321 5.47 28.3621 5.47H28.6201C28.7501 5.47 28.8531 5.508 28.9291 5.584C29.0051 5.66 29.0431 5.764 29.0431 5.896V6.574C29.0431 6.706 29.0051 6.81 28.9291 6.886C28.8531 6.962 28.7501 7 28.6201 7ZM28.3741 6.865H28.6081C28.7001 6.865 28.7701 6.84 28.8181 6.79C28.8681 6.738 28.8931 6.665 28.8931 6.571V5.899C28.8931 5.805 28.8681 5.733 28.8181 5.683C28.7701 5.631 28.7001 5.605 28.6081 5.605H28.3741C28.2821 5.605 28.2121 5.631 28.1641 5.683C28.1161 5.733 28.0921 5.805 28.0921 5.899V6.571C28.0921 6.665 28.1161 6.738 28.1641 6.79C28.2121 6.84 28.2821 6.865 28.3741 6.865ZM29.5774 7H29.4904C29.4704 7 29.4604 6.988 29.4604 6.964V5.506C29.4604 5.482 29.4704 5.47 29.4904 5.47H29.5774C29.5994 5.47 29.6104 5.482 29.6104 5.506V5.632H29.6224C29.6444 5.59 29.6834 5.553 29.7394 5.521C29.7954 5.487 29.8644 5.47 29.9464 5.47H30.0634C30.0854 5.47 30.0964 5.481 30.0964 5.503V5.575C30.0964 5.597 30.0854 5.607 30.0634 5.605H29.9224C29.8244 5.605 29.7474 5.635 29.6914 5.695C29.6374 5.755 29.6104 5.836 29.6104 5.938V6.964C29.6104 6.988 29.5994 7 29.5774 7ZM30.9858 7H30.7848C30.6568 7 30.5558 6.962 30.4818 6.886C30.4078 6.81 30.3708 6.706 30.3708 6.574V5.896C30.3708 5.764 30.4078 5.66 30.4818 5.584C30.5558 5.508 30.6568 5.47 30.7848 5.47H30.9858C31.1398 5.47 31.2448 5.522 31.3008 5.626H31.3128V4.927C31.3128 4.903 31.3228 4.891 31.3428 4.891H31.4298C31.4518 4.891 31.4628 4.903 31.4628 4.927V6.964C31.4628 6.988 31.4518 7 31.4298 7H31.3428C31.3228 7 31.3128 6.988 31.3128 6.964V6.844H31.3008C31.2448 6.948 31.1398 7 30.9858 7ZM31.3128 6.571V5.899C31.3128 5.805 31.2848 5.733 31.2288 5.683C31.1748 5.631 31.0998 5.605 31.0038 5.605H30.8028C30.7108 5.605 30.6408 5.631 30.5928 5.683C30.5448 5.735 30.5208 5.808 30.5208 5.902V6.568C30.5208 6.662 30.5448 6.735 30.5928 6.787C30.6408 6.839 30.7108 6.865 30.8028 6.865H31.0038C31.0998 6.865 31.1748 6.84 31.2288 6.79C31.2848 6.738 31.3128 6.665 31.3128 6.571ZM32.9295 7H32.3025C32.1725 7 32.0695 6.962 31.9935 6.886C31.9195 6.81 31.8825 6.706 31.8825 6.574V5.896C31.8825 5.764 31.9195 5.66 31.9935 5.584C32.0695 5.508 32.1725 5.47 32.3025 5.47H32.5605C32.6905 5.47 32.7935 5.508 32.8695 5.584C32.9455 5.66 32.9835 5.764 32.9835 5.896V6.277C32.9835 6.301 32.9715 6.313 32.9475 6.313H32.0595C32.0415 6.313 32.0325 6.322 32.0325 6.34V6.571C32.0325 6.665 32.0565 6.738 32.1045 6.79C32.1525 6.84 32.2225 6.865 32.3145 6.865H32.9295C32.9515 6.865 32.9625 6.876 32.9625 6.898V6.967C32.9625 6.989 32.9515 7 32.9295 7ZM32.0595 6.193H32.8065C32.8245 6.193 32.8335 6.184 32.8335 6.166V5.899C32.8335 5.805 32.8095 5.733 32.7615 5.683C32.7135 5.631 32.6435 5.605 32.5515 5.605H32.3145C32.2225 5.605 32.1525 5.631 32.1045 5.683C32.0565 5.733 32.0325 5.805 32.0325 5.899V6.166C32.0325 6.184 32.0415 6.193 32.0595 6.193ZM33.9741 7H33.7731C33.6451 7 33.5441 6.962 33.4701 6.886C33.3961 6.81 33.3591 6.706 33.3591 6.574V5.896C33.3591 5.764 33.3961 5.66 33.4701 5.584C33.5441 5.508 33.6451 5.47 33.7731 5.47H33.9741C34.1281 5.47 34.2331 5.522 34.2891 5.626H34.3011V4.927C34.3011 4.903 34.3111 4.891 34.3311 4.891H34.4181C34.4401 4.891 34.4511 4.903 34.4511 4.927V6.964C34.4511 6.988 34.4401 7 34.4181 7H34.3311C34.3111 7 34.3011 6.988 34.3011 6.964V6.844H34.2891C34.2331 6.948 34.1281 7 33.9741 7ZM34.3011 6.571V5.899C34.3011 5.805 34.2731 5.733 34.2171 5.683C34.1631 5.631 34.0881 5.605 33.9921 5.605H33.7911C33.6991 5.605 33.6291 5.631 33.5811 5.683C33.5331 5.735 33.5091 5.808 33.5091 5.902V6.568C33.5091 6.662 33.5331 6.735 33.5811 6.787C33.6291 6.839 33.6991 6.865 33.7911 6.865H33.9921C34.0881 6.865 34.1631 6.84 34.2171 6.79C34.2731 6.738 34.3011 6.665 34.3011 6.571ZM35.7666 5.605H35.5836C35.5616 5.605 35.5506 5.595 35.5506 5.575V5.503C35.5506 5.481 35.5616 5.47 35.5836 5.47H35.7666C35.7846 5.47 35.7936 5.461 35.7936 5.443V5.2C35.7936 5.176 35.8046 5.164 35.8266 5.164H35.9136C35.9356 5.164 35.9466 5.176 35.9466 5.2V5.443C35.9466 5.461 35.9556 5.47 35.9736 5.47H36.3306C36.3526 5.47 36.3636 5.481 36.3636 5.503V5.575C36.3636 5.595 36.3526 5.605 36.3306 5.605H35.9736C35.9556 5.605 35.9466 5.614 35.9466 5.632V6.577C35.9466 6.669 35.9726 6.74 36.0246 6.79C36.0766 6.84 36.1496 6.865 36.2436 6.865H36.3606C36.3826 6.865 36.3936 6.876 36.3936 6.898V6.967C36.3936 6.989 36.3826 7 36.3606 7H36.2316C36.0996 7 35.9936 6.963 35.9136 6.889C35.8336 6.815 35.7936 6.713 35.7936 6.583V5.632C35.7936 5.614 35.7846 5.605 35.7666 5.605ZM36.7556 5.218V4.93C36.7556 4.908 36.7656 4.897 36.7856 4.897H36.8756C36.8956 4.897 36.9056 4.908 36.9056 4.93V5.218C36.9056 5.242 36.8956 5.254 36.8756 5.254H36.7856C36.7656 5.254 36.7556 5.242 36.7556 5.218ZM36.7556 6.964V5.506C36.7556 5.482 36.7656 5.47 36.7856 5.47H36.8726C36.8946 5.47 36.9056 5.482 36.9056 5.506V6.964C36.9056 6.988 36.8956 7 36.8756 7H36.7856C36.7656 7 36.7556 6.988 36.7556 6.964ZM37.4875 7H37.4005C37.3805 7 37.3705 6.988 37.3705 6.964V5.506C37.3705 5.482 37.3805 5.47 37.4005 5.47H37.4875C37.5095 5.47 37.5205 5.482 37.5205 5.506V5.626H37.5325C37.5905 5.522 37.6965 5.47 37.8505 5.47H37.9735C38.1495 5.47 38.2715 5.54 38.3395 5.68C38.3695 5.61 38.4205 5.558 38.4925 5.524C38.5645 5.488 38.6385 5.47 38.7145 5.47H38.8255C38.9555 5.47 39.0575 5.508 39.1315 5.584C39.2055 5.66 39.2425 5.764 39.2425 5.896V6.964C39.2425 6.988 39.2315 7 39.2095 7H39.1225C39.1005 7 39.0895 6.988 39.0895 6.964V5.902C39.0895 5.806 39.0655 5.733 39.0175 5.683C38.9695 5.631 38.8995 5.605 38.8075 5.605H38.6965C38.6005 5.605 38.5245 5.633 38.4685 5.689C38.4125 5.743 38.3845 5.817 38.3845 5.911V6.964C38.3845 6.988 38.3735 7 38.3515 7H38.2645C38.2425 7 38.2315 6.988 38.2315 6.964V5.902C38.2315 5.806 38.2075 5.733 38.1595 5.683C38.1115 5.631 38.0415 5.605 37.9495 5.605H37.8295C37.7335 5.605 37.6575 5.631 37.6015 5.683C37.5475 5.733 37.5205 5.805 37.5205 5.899V6.964C37.5205 6.988 37.5095 7 37.4875 7ZM40.6932 7H40.0662C39.9362 7 39.8332 6.962 39.7572 6.886C39.6832 6.81 39.6462 6.706 39.6462 6.574V5.896C39.6462 5.764 39.6832 5.66 39.7572 5.584C39.8332 5.508 39.9362 5.47 40.0662 5.47H40.3242C40.4542 5.47 40.5572 5.508 40.6332 5.584C40.7092 5.66 40.7472 5.764 40.7472 5.896V6.277C40.7472 6.301 40.7352 6.313 40.7112 6.313H39.8232C39.8052 6.313 39.7962 6.322 39.7962 6.34V6.571C39.7962 6.665 39.8202 6.738 39.8682 6.79C39.9162 6.84 39.9862 6.865 40.0782 6.865H40.6932C40.7152 6.865 40.7262 6.876 40.7262 6.898V6.967C40.7262 6.989 40.7152 7 40.6932 7ZM39.8232 6.193H40.5702C40.5882 6.193 40.5972 6.184 40.5972 6.166V5.899C40.5972 5.805 40.5732 5.733 40.5252 5.683C40.4772 5.631 40.4072 5.605 40.3152 5.605H40.0782C39.9862 5.605 39.9162 5.631 39.8682 5.683C39.8202 5.733 39.7962 5.805 39.7962 5.899V6.166C39.7962 6.184 39.8052 6.193 39.8232 6.193ZM41.2967 5.503V5.863C41.2967 5.885 41.2867 5.896 41.2667 5.896H41.1617C41.1397 5.896 41.1287 5.885 41.1287 5.863V5.503C41.1287 5.481 41.1397 5.47 41.1617 5.47H41.2667C41.2867 5.47 41.2967 5.481 41.2967 5.503ZM41.2967 6.607V6.964C41.2967 6.988 41.2867 7 41.2667 7H41.1617C41.1397 7 41.1287 6.988 41.1287 6.964V6.607C41.1287 6.585 41.1397 6.574 41.1617 6.574H41.2667C41.2867 6.574 41.2967 6.585 41.2967 6.607ZM42.9348 6.865H43.2108C43.3028 6.865 43.3728 6.84 43.4208 6.79C43.4688 6.738 43.4928 6.664 43.4928 6.568V5.503C43.4928 5.407 43.4688 5.334 43.4208 5.284C43.3728 5.232 43.3028 5.206 43.2108 5.206H42.9348C42.8428 5.206 42.7728 5.232 42.7248 5.284C42.6768 5.334 42.6528 5.407 42.6528 5.503V6.568C42.6528 6.664 42.6768 6.738 42.7248 6.79C42.7728 6.84 42.8428 6.865 42.9348 6.865ZM43.2228 7H42.9228C42.7928 7 42.6898 6.962 42.6138 6.886C42.5378 6.81 42.4998 6.706 42.4998 6.574V5.497C42.4998 5.365 42.5378 5.261 42.6138 5.185C42.6898 5.109 42.7928 5.071 42.9228 5.071H43.2228C43.3528 5.071 43.4548 5.109 43.5288 5.185C43.6048 5.261 43.6428 5.365 43.6428 5.497V6.574C43.6428 6.706 43.6048 6.81 43.5288 6.886C43.4548 6.962 43.3528 7 43.2228 7ZM44.4758 6.865H44.7518C44.8438 6.865 44.9138 6.84 44.9618 6.79C45.0098 6.738 45.0338 6.664 45.0338 6.568V5.503C45.0338 5.407 45.0098 5.334 44.9618 5.284C44.9138 5.232 44.8438 5.206 44.7518 5.206H44.4758C44.3838 5.206 44.3138 5.232 44.2658 5.284C44.2178 5.334 44.1938 5.407 44.1938 5.503V6.568C44.1938 6.664 44.2178 6.738 44.2658 6.79C44.3138 6.84 44.3838 6.865 44.4758 6.865ZM44.7638 7H44.4638C44.3338 7 44.2308 6.962 44.1548 6.886C44.0788 6.81 44.0408 6.706 44.0408 6.574V5.497C44.0408 5.365 44.0788 5.261 44.1548 5.185C44.2308 5.109 44.3338 5.071 44.4638 5.071H44.7638C44.8938 5.071 44.9958 5.109 45.0698 5.185C45.1458 5.261 45.1838 5.365 45.1838 5.497V6.574C45.1838 6.706 45.1458 6.81 45.0698 6.886C44.9958 6.962 44.8938 7 44.7638 7ZM45.7528 5.503V5.863C45.7528 5.885 45.7428 5.896 45.7228 5.896H45.6178C45.5958 5.896 45.5848 5.885 45.5848 5.863V5.503C45.5848 5.481 45.5958 5.47 45.6178 5.47H45.7228C45.7428 5.47 45.7528 5.481 45.7528 5.503ZM45.7528 6.607V6.964C45.7528 6.988 45.7428 7 45.7228 7H45.6178C45.5958 7 45.5848 6.988 45.5848 6.964V6.607C45.5848 6.585 45.5958 6.574 45.6178 6.574H45.7228C45.7428 6.574 45.7528 6.585 45.7528 6.607ZM46.138 6.967V6.703C46.138 6.563 46.198 6.448 46.318 6.358L46.909 5.908C47.011 5.83 47.062 5.73 47.062 5.608V5.491C47.062 5.299 46.967 5.203 46.777 5.203H46.561C46.373 5.203 46.279 5.299 46.279 5.491V5.626C46.279 5.65 46.268 5.662 46.246 5.662H46.159C46.137 5.662 46.126 5.65 46.126 5.626V5.488C46.126 5.358 46.164 5.256 46.24 5.182C46.316 5.108 46.419 5.071 46.549 5.071H46.792C46.922 5.071 47.024 5.108 47.098 5.182C47.174 5.254 47.212 5.356 47.212 5.488V5.614C47.212 5.77 47.149 5.896 47.023 5.992L46.426 6.451C46.342 6.515 46.3 6.594 46.3 6.688V6.862H47.188C47.21 6.862 47.221 6.873 47.221 6.895V6.967C47.221 6.989 47.21 7 47.188 7H46.174C46.15 7 46.138 6.989 46.138 6.967ZM47.4986 5.434V5.368C47.4986 5.342 47.5106 5.321 47.5346 5.305L47.9126 5.092C47.9326 5.078 47.9536 5.071 47.9756 5.071H48.0536C48.0756 5.071 48.0866 5.083 48.0866 5.107V6.964C48.0866 6.988 48.0756 7 48.0536 7H47.9666C47.9466 7 47.9366 6.988 47.9366 6.964V5.233L47.5496 5.452C47.5156 5.474 47.4986 5.468 47.4986 5.434ZM48.7118 5.503V5.863C48.7118 5.885 48.7018 5.896 48.6818 5.896H48.5768C48.5548 5.896 48.5438 5.885 48.5438 5.863V5.503C48.5438 5.481 48.5548 5.47 48.5768 5.47H48.6818C48.7018 5.47 48.7118 5.481 48.7118 5.503ZM48.7118 6.607V6.964C48.7118 6.988 48.7018 7 48.6818 7H48.5768C48.5548 7 48.5438 6.988 48.5438 6.964V6.607C48.5438 6.585 48.5548 6.574 48.5768 6.574H48.6818C48.7018 6.574 48.7118 6.585 48.7118 6.607ZM49.97 6.472V5.191L49.214 6.472H49.97ZM50.084 7H50.003C49.981 7 49.97 6.988 49.97 6.964V6.607H49.1C49.07 6.607 49.055 6.593 49.055 6.565V6.511C49.055 6.493 49.062 6.47 49.076 6.442L49.862 5.116C49.88 5.086 49.904 5.071 49.934 5.071H50.075C50.103 5.071 50.117 5.086 50.117 5.116V6.472H50.342C50.364 6.472 50.375 6.482 50.375 6.502V6.574C50.375 6.596 50.364 6.607 50.342 6.607H50.117V6.964C50.117 6.988 50.106 7 50.084 7ZM51.3156 5.914H51.0576C51.0096 5.914 50.9696 5.922 50.9376 5.938C50.9056 5.954 50.8846 5.972 50.8746 5.992C50.8486 6.042 50.8246 6.067 50.8026 6.067H50.7066C50.6866 6.067 50.6766 6.056 50.6766 6.034V5.107C50.6766 5.083 50.6866 5.071 50.7066 5.071H51.6816C51.7056 5.071 51.7176 5.082 51.7176 5.104V5.179C51.7176 5.201 51.7056 5.212 51.6816 5.212H50.8266V5.932C50.8626 5.834 50.9486 5.785 51.0846 5.785H51.3366C51.4666 5.785 51.5686 5.821 51.6426 5.893C51.7166 5.965 51.7536 6.067 51.7536 6.199V6.574C51.7536 6.706 51.7156 6.81 51.6396 6.886C51.5636 6.962 51.4606 7 51.3306 7H51.0906C50.9606 7 50.8576 6.962 50.7816 6.886C50.7076 6.81 50.6706 6.706 50.6706 6.574V6.469C50.6706 6.445 50.6806 6.433 50.7006 6.433H50.7876C50.8096 6.433 50.8206 6.445 50.8206 6.469V6.571C50.8206 6.665 50.8446 6.738 50.8926 6.79C50.9406 6.842 51.0106 6.868 51.1026 6.868H51.3186C51.4106 6.868 51.4806 6.843 51.5286 6.793C51.5786 6.741 51.6036 6.667 51.6036 6.571V6.211C51.6036 6.013 51.5076 5.914 51.3156 5.914ZM52.2919 5.503V5.863C52.2919 5.885 52.2819 5.896 52.2619 5.896H52.1569C52.1349 5.896 52.1239 5.885 52.1239 5.863V5.503C52.1239 5.481 52.1349 5.47 52.1569 5.47H52.2619C52.2819 5.47 52.2919 5.481 52.2919 5.503ZM52.2919 6.607V6.964C52.2919 6.988 52.2819 7 52.2619 7H52.1569C52.1349 7 52.1239 6.988 52.1239 6.964V6.607C52.1239 6.585 52.1349 6.574 52.1569 6.574H52.2619C52.2819 6.574 52.2919 6.585 52.2919 6.607ZM53.1301 6.865H53.4061C53.4981 6.865 53.5681 6.84 53.6161 6.79C53.6641 6.738 53.6881 6.664 53.6881 6.568V5.503C53.6881 5.407 53.6641 5.334 53.6161 5.284C53.5681 5.232 53.4981 5.206 53.4061 5.206H53.1301C53.0381 5.206 52.9681 5.232 52.9201 5.284C52.8721 5.334 52.8481 5.407 52.8481 5.503V6.568C52.8481 6.664 52.8721 6.738 52.9201 6.79C52.9681 6.84 53.0381 6.865 53.1301 6.865ZM53.4181 7H53.1181C52.9881 7 52.8851 6.962 52.8091 6.886C52.7331 6.81 52.6951 6.706 52.6951 6.574V5.497C52.6951 5.365 52.7331 5.261 52.8091 5.185C52.8851 5.109 52.9881 5.071 53.1181 5.071H53.4181C53.5481 5.071 53.6501 5.109 53.7241 5.185C53.8001 5.261 53.8381 5.365 53.8381 5.497V6.574C53.8381 6.706 53.8001 6.81 53.7241 6.886C53.6501 6.962 53.5481 7 53.4181 7ZM54.2181 6.967V6.703C54.2181 6.563 54.2781 6.448 54.3981 6.358L54.9891 5.908C55.0911 5.83 55.1421 5.73 55.1421 5.608V5.491C55.1421 5.299 55.0471 5.203 54.8571 5.203H54.6411C54.4531 5.203 54.3591 5.299 54.3591 5.491V5.626C54.3591 5.65 54.3481 5.662 54.3261 5.662H54.2391C54.2171 5.662 54.2061 5.65 54.2061 5.626V5.488C54.2061 5.358 54.2441 5.256 54.3201 5.182C54.3961 5.108 54.4991 5.071 54.6291 5.071H54.8721C55.0021 5.071 55.1041 5.108 55.1781 5.182C55.2541 5.254 55.2921 5.356 55.2921 5.488V5.614C55.2921 5.77 55.2291 5.896 55.1031 5.992L54.5061 6.451C54.4221 6.515 54.3801 6.594 54.3801 6.688V6.862H55.2681C55.2901 6.862 55.3011 6.873 55.3011 6.895V6.967C55.3011 6.989 55.2901 7 55.2681 7H54.2541C54.2301 7 54.2181 6.989 54.2181 6.967ZM55.8397 5.503V5.863C55.8397 5.885 55.8297 5.896 55.8097 5.896H55.7047C55.6827 5.896 55.6717 5.885 55.6717 5.863V5.503C55.6717 5.481 55.6827 5.47 55.7047 5.47H55.8097C55.8297 5.47 55.8397 5.481 55.8397 5.503ZM55.8397 6.607V6.964C55.8397 6.988 55.8297 7 55.8097 7H55.7047C55.6827 7 55.6717 6.988 55.6717 6.964V6.607C55.6717 6.585 55.6827 6.574 55.7047 6.574H55.8097C55.8297 6.574 55.8397 6.585 55.8397 6.607ZM56.2249 6.967V6.703C56.2249 6.563 56.2849 6.448 56.4049 6.358L56.9959 5.908C57.0979 5.83 57.1489 5.73 57.1489 5.608V5.491C57.1489 5.299 57.0539 5.203 56.8639 5.203H56.6479C56.4599 5.203 56.3659 5.299 56.3659 5.491V5.626C56.3659 5.65 56.3549 5.662 56.3329 5.662H56.2459C56.2239 5.662 56.2129 5.65 56.2129 5.626V5.488C56.2129 5.358 56.2509 5.256 56.3269 5.182C56.4029 5.108 56.5059 5.071 56.6359 5.071H56.8789C57.0089 5.071 57.1109 5.108 57.1849 5.182C57.2609 5.254 57.2989 5.356 57.2989 5.488V5.614C57.2989 5.77 57.2359 5.896 57.1099 5.992L56.5129 6.451C56.4289 6.515 56.3869 6.594 56.3869 6.688V6.862H57.2749C57.2969 6.862 57.3079 6.873 57.3079 6.895V6.967C57.3079 6.989 57.2969 7 57.2749 7H56.2609C56.2369 7 56.2249 6.989 56.2249 6.967ZM58.1525 5.962H58.3325C58.5225 5.962 58.6175 5.867 58.6175 5.677V5.491C58.6175 5.299 58.5225 5.203 58.3325 5.203H58.1015C57.9115 5.203 57.8165 5.299 57.8165 5.491V5.599C57.8165 5.621 57.8065 5.632 57.7865 5.632H57.6995C57.6775 5.632 57.6665 5.621 57.6665 5.599V5.488C57.6665 5.358 57.7045 5.256 57.7805 5.182C57.8565 5.108 57.9595 5.071 58.0895 5.071H58.3445C58.4745 5.071 58.5775 5.108 58.6535 5.182C58.7295 5.256 58.7675 5.358 58.7675 5.488V5.68C58.7675 5.864 58.6845 5.98 58.5185 6.028C58.6845 6.074 58.7675 6.191 58.7675 6.379V6.583C58.7675 6.713 58.7295 6.815 58.6535 6.889C58.5775 6.963 58.4745 7 58.3445 7H58.0895C57.9595 7 57.8565 6.963 57.7805 6.889C57.7045 6.815 57.6665 6.713 57.6665 6.583V6.448C57.6665 6.424 57.6775 6.412 57.6995 6.412H57.7865C57.8065 6.412 57.8165 6.424 57.8165 6.448V6.58C57.8165 6.772 57.9115 6.868 58.1015 6.868H58.3325C58.5225 6.868 58.6175 6.772 58.6175 6.58V6.382C58.6175 6.19 58.5225 6.094 58.3325 6.094H58.1525C58.1305 6.094 58.1195 6.083 58.1195 6.061V5.995C58.1195 5.973 58.1305 5.962 58.1525 5.962ZM59.6408 5.962H59.8208C60.0108 5.962 60.1058 5.867 60.1058 5.677V5.491C60.1058 5.299 60.0108 5.203 59.8208 5.203H59.5898C59.3998 5.203 59.3048 5.299 59.3048 5.491V5.599C59.3048 5.621 59.2948 5.632 59.2748 5.632H59.1878C59.1658 5.632 59.1548 5.621 59.1548 5.599V5.488C59.1548 5.358 59.1928 5.256 59.2688 5.182C59.3448 5.108 59.4478 5.071 59.5778 5.071H59.8328C59.9628 5.071 60.0658 5.108 60.1418 5.182C60.2178 5.256 60.2558 5.358 60.2558 5.488V5.68C60.2558 5.864 60.1728 5.98 60.0068 6.028C60.1728 6.074 60.2558 6.191 60.2558 6.379V6.583C60.2558 6.713 60.2178 6.815 60.1418 6.889C60.0658 6.963 59.9628 7 59.8328 7H59.5778C59.4478 7 59.3448 6.963 59.2688 6.889C59.1928 6.815 59.1548 6.713 59.1548 6.583V6.448C59.1548 6.424 59.1658 6.412 59.1878 6.412H59.2748C59.2948 6.412 59.3048 6.424 59.3048 6.448V6.58C59.3048 6.772 59.3998 6.868 59.5898 6.868H59.8208C60.0108 6.868 60.1058 6.772 60.1058 6.58V6.382C60.1058 6.19 60.0108 6.094 59.8208 6.094H59.6408C59.6188 6.094 59.6078 6.083 59.6078 6.061V5.995C59.6078 5.973 59.6188 5.962 59.6408 5.962ZM60.6341 6.967V6.703C60.6341 6.563 60.6941 6.448 60.8141 6.358L61.4051 5.908C61.5071 5.83 61.5581 5.73 61.5581 5.608V5.491C61.5581 5.299 61.4631 5.203 61.2731 5.203H61.0571C60.8691 5.203 60.7751 5.299 60.7751 5.491V5.626C60.7751 5.65 60.7641 5.662 60.7421 5.662H60.6551C60.6331 5.662 60.6221 5.65 60.6221 5.626V5.488C60.6221 5.358 60.6601 5.256 60.7361 5.182C60.8121 5.108 60.9151 5.071 61.0451 5.071H61.2881C61.4181 5.071 61.5201 5.108 61.5941 5.182C61.6701 5.254 61.7081 5.356 61.7081 5.488V5.614C61.7081 5.77 61.6451 5.896 61.5191 5.992L60.9221 6.451C60.8381 6.515 60.7961 6.594 60.7961 6.688V6.862H61.6841C61.7061 6.862 61.7171 6.873 61.7171 6.895V6.967C61.7171 6.989 61.7061 7 61.6841 7H60.6701C60.6461 7 60.6341 6.989 60.6341 6.967ZM61.9947 5.434V5.368C61.9947 5.342 62.0067 5.321 62.0307 5.305L62.4087 5.092C62.4287 5.078 62.4497 5.071 62.4717 5.071H62.5497C62.5717 5.071 62.5827 5.083 62.5827 5.107V6.964C62.5827 6.988 62.5717 7 62.5497 7H62.4627C62.4427 7 62.4327 6.988 62.4327 6.964V5.233L62.0457 5.452C62.0117 5.474 61.9947 5.468 61.9947 5.434ZM0.171 11V8.84H0.417V9.797H1.113L1.917 8.84H2.229V8.843L1.326 9.92L2.232 10.997V11H1.917L1.113 10.043H0.417V11H0.171ZM2.90663 11C2.84063 11 2.77963 10.984 2.72363 10.952C2.66963 10.918 2.62563 10.874 2.59163 10.82C2.55963 10.764 2.54363 10.703 2.54363 10.637V9.623C2.54363 9.557 2.55963 9.497 2.59163 9.443C2.62563 9.387 2.66963 9.343 2.72363 9.311C2.77963 9.277 2.84063 9.26 2.90663 9.26H3.95063C4.01863 9.26 4.07963 9.277 4.13363 9.311C4.18963 9.343 4.23363 9.387 4.26562 9.443C4.29963 9.497 4.31663 9.557 4.31663 9.623V10.253H2.78963V10.637C2.78963 10.669 2.80063 10.697 2.82263 10.721C2.84663 10.743 2.87463 10.754 2.90663 10.754H4.31663V11H2.90663ZM2.78963 10.007H4.06763V9.623C4.06763 9.591 4.05563 9.564 4.03163 9.542C4.00963 9.518 3.98263 9.506 3.95063 9.506H2.90663C2.87463 9.506 2.84663 9.518 2.82263 9.542C2.80063 9.564 2.78963 9.591 2.78963 9.623V10.007ZM4.91477 11.69V11.441H6.00077C6.03277 11.441 6.05977 11.429 6.08177 11.405C6.10577 11.383 6.11777 11.356 6.11777 11.324V11H4.95677C4.89077 11 4.82977 10.984 4.77377 10.952C4.71977 10.918 4.67577 10.874 4.64177 10.82C4.60977 10.764 4.59377 10.703 4.59377 10.637V9.266H4.83977V10.637C4.83977 10.669 4.85077 10.697 4.87277 10.721C4.89677 10.743 4.92477 10.754 4.95677 10.754H6.00077C6.03277 10.754 6.05977 10.743 6.08177 10.721C6.10577 10.697 6.11777 10.669 6.11777 10.637V9.266H6.36377V11.324C6.36377 11.392 6.34777 11.453 6.31577 11.507C6.28377 11.563 6.23977 11.607 6.18377 11.639C6.12977 11.673 6.06877 11.69 6.00077 11.69H4.91477ZM6.68348 9.482V9.236H6.92948V9.482H6.68348ZM6.68348 11V10.754H6.92948V11H6.68348ZM0.633 14.865H0.909C1.001 14.865 1.071 14.84 1.119 14.79C1.167 14.738 1.191 14.664 1.191 14.568V13.503C1.191 13.407 1.167 13.334 1.119 13.284C1.071 13.232 1.001 13.206 0.909 13.206H0.633C0.541 13.206 0.471 13.232 0.423 13.284C0.375 13.334 0.351 13.407 0.351 13.503V14.568C0.351 14.664 0.375 14.738 0.423 14.79C0.471 14.84 0.541 14.865 0.633 14.865ZM0.921 15H0.621C0.491 15 0.388 14.962 0.312 14.886C0.236 14.81 0.198 14.706 0.198 14.574V13.497C0.198 13.365 0.236 13.261 0.312 13.185C0.388 13.109 0.491 13.071 0.621 13.071H0.921C1.051 13.071 1.153 13.109 1.227 13.185C1.303 13.261 1.341 13.365 1.341 13.497V14.574C1.341 14.706 1.303 14.81 1.227 14.886C1.153 14.962 1.051 15 0.921 15ZM2.17402 14.865H2.45002C2.54202 14.865 2.61202 14.84 2.66002 14.79C2.70802 14.738 2.73202 14.664 2.73202 14.568V13.503C2.73202 13.407 2.70802 13.334 2.66002 13.284C2.61202 13.232 2.54202 13.206 2.45002 13.206H2.17402C2.08202 13.206 2.01202 13.232 1.96402 13.284C1.91602 13.334 1.89202 13.407 1.89202 13.503V14.568C1.89202 14.664 1.91602 14.738 1.96402 14.79C2.01202 14.84 2.08202 14.865 2.17402 14.865ZM2.46202 15H2.16202C2.03202 15 1.92902 14.962 1.85302 14.886C1.77702 14.81 1.73902 14.706 1.73902 14.574V13.497C1.73902 13.365 1.77702 13.261 1.85302 13.185C1.92902 13.109 2.03202 13.071 2.16202 13.071H2.46202C2.59202 13.071 2.69402 13.109 2.76802 13.185C2.84402 13.261 2.88202 13.365 2.88202 13.497V14.574C2.88202 14.706 2.84402 14.81 2.76802 14.886C2.69402 14.962 2.59202 15 2.46202 15ZM3.71503 14.865H3.99103C4.08303 14.865 4.15303 14.84 4.20103 14.79C4.24903 14.738 4.27303 14.664 4.27303 14.568V13.503C4.27303 13.407 4.24903 13.334 4.20103 13.284C4.15303 13.232 4.08303 13.206 3.99103 13.206H3.71503C3.62303 13.206 3.55303 13.232 3.50503 13.284C3.45703 13.334 3.43303 13.407 3.43303 13.503V14.568C3.43303 14.664 3.45703 14.738 3.50503 14.79C3.55303 14.84 3.62303 14.865 3.71503 14.865ZM4.00303 15H3.70303C3.57303 15 3.47003 14.962 3.39403 14.886C3.31803 14.81 3.28003 14.706 3.28003 14.574V13.497C3.28003 13.365 3.31803 13.261 3.39403 13.185C3.47003 13.109 3.57303 13.071 3.70303 13.071H4.00303C4.13303 13.071 4.23503 13.109 4.30903 13.185C4.38503 13.261 4.42303 13.365 4.42303 13.497V14.574C4.42303 14.706 4.38503 14.81 4.30903 14.886C4.23503 14.962 4.13303 15 4.00303 15ZM5.25605 14.865H5.53205C5.62405 14.865 5.69405 14.84 5.74205 14.79C5.79005 14.738 5.81405 14.664 5.81405 14.568V13.503C5.81405 13.407 5.79005 13.334 5.74205 13.284C5.69405 13.232 5.62405 13.206 5.53205 13.206H5.25605C5.16405 13.206 5.09405 13.232 5.04605 13.284C4.99805 13.334 4.97405 13.407 4.97405 13.503V14.568C4.97405 14.664 4.99805 14.738 5.04605 14.79C5.09405 14.84 5.16405 14.865 5.25605 14.865ZM5.54405 15H5.24405C5.11405 15 5.01105 14.962 4.93505 14.886C4.85905 14.81 4.82105 14.706 4.82105 14.574V13.497C4.82105 13.365 4.85905 13.261 4.93505 13.185C5.01105 13.109 5.11405 13.071 5.24405 13.071H5.54405C5.67405 13.071 5.77605 13.109 5.85005 13.185C5.92605 13.261 5.96405 13.365 5.96405 13.497V14.574C5.96405 14.706 5.92605 14.81 5.85005 14.886C5.77605 14.962 5.67405 15 5.54405 15ZM6.76706 14.091H7.30706V13.503C7.30706 13.407 7.28206 13.334 7.23206 13.284C7.18406 13.232 7.11406 13.206 7.02206 13.206H6.76706C6.67506 13.206 6.60506 13.232 6.55706 13.284C6.50906 13.334 6.48506 13.407 6.48506 13.503V13.794C6.48506 13.89 6.50906 13.964 6.55706 14.016C6.60506 14.066 6.67506 14.091 6.76706 14.091ZM7.03406 15H6.46106C6.43706 15 6.42506 14.989 6.42506 14.967V14.895C6.42506 14.875 6.43706 14.865 6.46106 14.865H7.02206C7.11406 14.865 7.18406 14.84 7.23206 14.79C7.28006 14.738 7.30406 14.664 7.30406 14.568V14.226H6.75506C6.62506 14.226 6.52206 14.188 6.44606 14.112C6.37006 14.036 6.33206 13.932 6.33206 13.8V13.497C6.33206 13.365 6.37006 13.261 6.44606 13.185C6.52206 13.109 6.62506 13.071 6.75506 13.071H7.03406C7.16406 13.071 7.26706 13.109 7.34306 13.185C7.41906 13.261 7.45706 13.365 7.45706 13.497V14.574C7.45706 14.706 7.41906 14.81 7.34306 14.886C7.26706 14.962 7.16406 15 7.03406 15ZM8.25827 14.091H8.79827V13.503C8.79827 13.407 8.77327 13.334 8.72327 13.284C8.67527 13.232 8.60527 13.206 8.51327 13.206H8.25827C8.16627 13.206 8.09627 13.232 8.04827 13.284C8.00027 13.334 7.97627 13.407 7.97627 13.503V13.794C7.97627 13.89 8.00027 13.964 8.04827 14.016C8.09627 14.066 8.16627 14.091 8.25827 14.091ZM8.52527 15H7.95227C7.92827 15 7.91627 14.989 7.91627 14.967V14.895C7.91627 14.875 7.92827 14.865 7.95227 14.865H8.51327C8.60527 14.865 8.67527 14.84 8.72327 14.79C8.77127 14.738 8.79527 14.664 8.79527 14.568V14.226H8.24627C8.11627 14.226 8.01327 14.188 7.93727 14.112C7.86127 14.036 7.82327 13.932 7.82327 13.8V13.497C7.82327 13.365 7.86127 13.261 7.93727 13.185C8.01327 13.109 8.11627 13.071 8.24627 13.071H8.52527C8.65527 13.071 8.75827 13.109 8.83427 13.185C8.91027 13.261 8.94827 13.365 8.94827 13.497V14.574C8.94827 14.706 8.91027 14.81 8.83427 14.886C8.75827 14.962 8.65527 15 8.52527 15ZM9.74948 14.091H10.2895V13.503C10.2895 13.407 10.2645 13.334 10.2145 13.284C10.1665 13.232 10.0965 13.206 10.0045 13.206H9.74948C9.65748 13.206 9.58748 13.232 9.53948 13.284C9.49148 13.334 9.46748 13.407 9.46748 13.503V13.794C9.46748 13.89 9.49148 13.964 9.53948 14.016C9.58748 14.066 9.65748 14.091 9.74948 14.091ZM10.0165 15H9.44348C9.41948 15 9.40748 14.989 9.40748 14.967V14.895C9.40748 14.875 9.41948 14.865 9.44348 14.865H10.0045C10.0965 14.865 10.1665 14.84 10.2145 14.79C10.2625 14.738 10.2865 14.664 10.2865 14.568V14.226H9.73748C9.60748 14.226 9.50448 14.188 9.42848 14.112C9.35248 14.036 9.31448 13.932 9.31448 13.8V13.497C9.31448 13.365 9.35248 13.261 9.42848 13.185C9.50448 13.109 9.60748 13.071 9.73748 13.071H10.0165C10.1465 13.071 10.2495 13.109 10.3255 13.185C10.4015 13.261 10.4395 13.365 10.4395 13.497V14.574C10.4395 14.706 10.4015 14.81 10.3255 14.886C10.2495 14.962 10.1465 15 10.0165 15ZM11.0067 14.607V14.964C11.0067 14.988 10.9967 15 10.9767 15H10.8717C10.8497 15 10.8387 14.988 10.8387 14.964V14.607C10.8387 14.585 10.8497 14.574 10.8717 14.574H10.9767C10.9967 14.574 11.0067 14.585 11.0067 14.607ZM11.5539 15H11.4669C11.4469 15 11.4369 14.988 11.4369 14.964V12.927C11.4369 12.903 11.4469 12.891 11.4669 12.891H11.5539C11.5759 12.891 11.5869 12.903 11.5869 12.927V13.626H11.5989C11.6549 13.522 11.7589 13.47 11.9109 13.47H12.1089C12.2369 13.47 12.3379 13.508 12.4119 13.584C12.4859 13.66 12.5229 13.764 12.5229 13.896V14.964C12.5229 14.988 12.5129 15 12.4929 15H12.4059C12.3839 15 12.3729 14.988 12.3729 14.964V13.902C12.3729 13.808 12.3489 13.735 12.3009 13.683C12.2529 13.631 12.1829 13.605 12.0909 13.605H11.8959C11.7999 13.605 11.7239 13.631 11.6679 13.683C11.6139 13.733 11.5869 13.805 11.5869 13.899V14.964C11.5869 14.988 11.5759 15 11.5539 15ZM13.5544 15H13.3564C13.2284 15 13.1274 14.962 13.0534 14.886C12.9794 14.81 12.9424 14.706 12.9424 14.574V13.506C12.9424 13.482 12.9524 13.47 12.9724 13.47H13.0594C13.0814 13.47 13.0924 13.482 13.0924 13.506V14.568C13.0924 14.662 13.1164 14.735 13.1644 14.787C13.2124 14.839 13.2824 14.865 13.3744 14.865H13.5694C13.6654 14.865 13.7404 14.84 13.7944 14.79C13.8504 14.738 13.8784 14.665 13.8784 14.571V13.506C13.8784 13.482 13.8894 13.47 13.9114 13.47H13.9984C14.0184 13.47 14.0284 13.482 14.0284 13.506V14.964C14.0284 14.988 14.0184 15 13.9984 15H13.9114C13.8894 15 13.8784 14.988 13.8784 14.964V14.844H13.8664C13.8144 14.948 13.7104 15 13.5544 15ZM14.9729 15H14.4509C14.4289 15 14.4179 14.989 14.4179 14.967V14.898C14.4179 14.878 14.4289 14.868 14.4509 14.868H14.9579C15.1379 14.868 15.2279 14.798 15.2279 14.658V14.586C15.2279 14.456 15.1719 14.371 15.0599 14.331L14.6849 14.187C14.5829 14.147 14.5099 14.1 14.4659 14.046C14.4239 13.992 14.4029 13.917 14.4029 13.821C14.4029 13.587 14.5319 13.47 14.7899 13.47H15.2759C15.2979 13.47 15.3089 13.481 15.3089 13.503V13.572C15.3089 13.592 15.2979 13.602 15.2759 13.602H14.8049C14.7229 13.602 14.6609 13.62 14.6189 13.656C14.5789 13.692 14.5589 13.734 14.5589 13.782V13.851C14.5589 13.907 14.5739 13.951 14.6039 13.983C14.6359 14.015 14.6839 14.042 14.7479 14.064L15.1229 14.214C15.2269 14.248 15.2959 14.299 15.3299 14.367C15.3659 14.433 15.3839 14.526 15.3839 14.646C15.3839 14.766 15.3499 14.855 15.2819 14.913C15.2159 14.971 15.1129 15 14.9729 15ZM16.6309 13.47H16.7239C16.7359 13.47 16.7439 13.474 16.7479 13.482C16.7519 13.488 16.7499 13.496 16.7419 13.506L16.2829 14.202V14.214L16.7959 14.964C16.8039 14.974 16.8059 14.983 16.8019 14.991C16.7979 14.997 16.7899 15 16.7779 15H16.6849C16.6549 15 16.6319 14.988 16.6159 14.964L16.1209 14.235C16.1129 14.219 16.1129 14.203 16.1209 14.187L16.5709 13.5C16.5829 13.48 16.6029 13.47 16.6309 13.47ZM15.8869 15H15.7999C15.7799 15 15.7699 14.988 15.7699 14.964V12.927C15.7699 12.903 15.7799 12.891 15.7999 12.891H15.8869C15.9089 12.891 15.9199 12.903 15.9199 12.927V14.964C15.9199 14.988 15.9089 15 15.8869 15ZM17.1339 15.456H17.0229C17.0009 15.456 16.9899 15.445 16.9899 15.423V15.351C16.9899 15.329 17.0009 15.318 17.0229 15.318H17.1039C17.1639 15.318 17.2149 15.309 17.2569 15.291C17.2989 15.275 17.3359 15.244 17.3679 15.198C17.3999 15.152 17.4209 15.116 17.4309 15.09C17.4589 15.028 17.4819 14.971 17.4999 14.919H17.4429C17.4209 14.919 17.4069 14.907 17.4009 14.883L16.9239 13.506C16.9159 13.482 16.9239 13.47 16.9479 13.47H17.0409C17.0609 13.47 17.0739 13.482 17.0799 13.506L17.5209 14.793H17.5329L17.9739 13.506C17.9799 13.482 17.9929 13.47 18.0129 13.47H18.1029C18.1269 13.47 18.1359 13.482 18.1299 13.506C17.7719 14.554 17.5849 15.096 17.5689 15.132C17.5549 15.168 17.5279 15.217 17.4879 15.279C17.4119 15.397 17.2939 15.456 17.1339 15.456ZM18.5829 14.607V14.964C18.5829 14.988 18.5729 15 18.5529 15H18.4479C18.4259 15 18.4149 14.988 18.4149 14.964V14.607C18.4149 14.585 18.4259 14.574 18.4479 14.574H18.5529C18.5729 14.574 18.5829 14.585 18.5829 14.607ZM19.1541 15H19.0701C19.0421 15 19.0351 14.985 19.0491 14.955L19.7061 13.209H18.8691C18.8471 13.209 18.8361 13.199 18.8361 13.179V13.104C18.8361 13.082 18.8471 13.071 18.8691 13.071H19.8351C19.8571 13.071 19.8681 13.082 19.8681 13.104V13.179C19.8681 13.199 19.8631 13.222 19.8531 13.248L19.2081 14.967C19.2001 14.989 19.1821 15 19.1541 15ZM20.0357 13.434V13.368C20.0357 13.342 20.0477 13.321 20.0717 13.305L20.4497 13.092C20.4697 13.078 20.4907 13.071 20.5127 13.071H20.5907C20.6127 13.071 20.6237 13.083 20.6237 13.107V14.964C20.6237 14.988 20.6127 15 20.5907 15H20.5037C20.4837 15 20.4737 14.988 20.4737 14.964V13.233L20.0867 13.452C20.0527 13.474 20.0357 13.468 20.0357 13.434ZM20.9879 13.434V13.368C20.9879 13.342 20.9999 13.321 21.0239 13.305L21.4019 13.092C21.4219 13.078 21.4429 13.071 21.4649 13.071H21.5429C21.5649 13.071 21.5759 13.083 21.5759 13.107V14.964C21.5759 14.988 21.5649 15 21.5429 15H21.4559C21.4359 15 21.4259 14.988 21.4259 14.964V13.233L21.0389 13.452C21.0049 13.474 20.9879 13.468 20.9879 13.434ZM0.528 19C0.462 19 0.401 18.984 0.345 18.952C0.291 18.92 0.248 18.877 0.216 18.823C0.184 18.767 0.168 18.706 0.168 18.64V17.2C0.168 17.134 0.184 17.074 0.216 17.02C0.248 16.964 0.291 16.92 0.345 16.888C0.401 16.856 0.462 16.84 0.528 16.84H2.322V17.083H0.528C0.496 17.083 0.468 17.095 0.444 17.119C0.422 17.141 0.411 17.168 0.411 17.2V18.64C0.411 18.672 0.422 18.7 0.444 18.724C0.468 18.746 0.496 18.757 0.528 18.757H2.322V19H0.528ZM2.9828 19C2.9168 19 2.8558 18.984 2.7998 18.952C2.7458 18.918 2.7018 18.874 2.6678 18.82C2.6358 18.764 2.6198 18.703 2.6198 18.637V17.623C2.6198 17.557 2.6358 17.497 2.6678 17.443C2.7018 17.387 2.7458 17.343 2.7998 17.311C2.8558 17.277 2.9168 17.26 2.9828 17.26H4.0268C4.0948 17.26 4.1558 17.277 4.2098 17.311C4.2658 17.343 4.3098 17.387 4.3418 17.443C4.3758 17.497 4.3928 17.557 4.3928 17.623V18.637C4.3928 18.703 4.3758 18.764 4.3418 18.82C4.3098 18.874 4.2658 18.918 4.2098 18.952C4.1558 18.984 4.0948 19 4.0268 19H2.9828ZM2.9828 18.754H4.0268C4.0588 18.754 4.0858 18.743 4.1078 18.721C4.1318 18.697 4.1438 18.669 4.1438 18.637V17.623C4.1438 17.591 4.1318 17.564 4.1078 17.542C4.0858 17.518 4.0588 17.506 4.0268 17.506H2.9828C2.9508 17.506 2.9228 17.518 2.8988 17.542C2.8768 17.564 2.8658 17.591 2.8658 17.623V18.637C2.8658 18.669 2.8768 18.697 2.8988 18.721C2.9228 18.743 2.9508 18.754 2.9828 18.754ZM4.70595 19V17.26H7.00395C7.07195 17.26 7.13295 17.277 7.18695 17.311C7.24295 17.343 7.28695 17.387 7.31895 17.443C7.35095 17.497 7.36695 17.557 7.36695 17.623V19H7.12395V17.623C7.12395 17.591 7.11195 17.564 7.08795 17.542C7.06395 17.518 7.03595 17.506 7.00395 17.506H6.28095C6.24895 17.506 6.22095 17.518 6.19695 17.542C6.17495 17.564 6.16395 17.591 6.16395 17.623V19H5.91495V17.623C5.91495 17.591 5.90295 17.564 5.87895 17.542C5.85695 17.518 5.82995 17.506 5.79795 17.506H5.07195C5.03995 17.506 5.01195 17.518 4.98795 17.542C4.96595 17.564 4.95495 17.591 4.95495 17.623V19H4.70595ZM7.63856 19.69V17.26H9.04856C9.11456 17.26 9.17456 17.277 9.22856 17.311C9.28456 17.343 9.32856 17.387 9.36056 17.443C9.39456 17.497 9.41156 17.557 9.41156 17.623V18.637C9.41156 18.703 9.39456 18.764 9.36056 18.82C9.32856 18.874 9.28456 18.918 9.22856 18.952C9.17456 18.984 9.11456 19 9.04856 19H7.88456V19.69H7.63856ZM8.00456 18.754H9.04856C9.08056 18.754 9.10756 18.743 9.12956 18.721C9.15356 18.697 9.16556 18.669 9.16556 18.637V17.623C9.16556 17.591 9.15356 17.564 9.12956 17.542C9.10756 17.518 9.08056 17.506 9.04856 17.506H8.00456C7.97256 17.506 7.94456 17.518 7.92056 17.542C7.89656 17.564 7.88456 17.591 7.88456 17.623V18.637C7.88456 18.669 7.89656 18.697 7.92056 18.721C7.94456 18.743 7.97256 18.754 8.00456 18.754ZM9.6687 19V17.26H9.9147V19H9.6687ZM9.6687 16.936V16.69H9.9147V16.936H9.6687ZM10.6557 19C10.5897 19 10.5287 18.984 10.4727 18.952C10.4187 18.918 10.3747 18.874 10.3407 18.82C10.3087 18.764 10.2927 18.703 10.2927 18.637V16.69H10.5387V18.637C10.5387 18.669 10.5497 18.697 10.5717 18.721C10.5957 18.743 10.6237 18.754 10.6557 18.754H10.9497V19H10.6557ZM11.5317 19C11.4657 19 11.4047 18.984 11.3487 18.952C11.2947 18.918 11.2507 18.874 11.2167 18.82C11.1847 18.764 11.1687 18.703 11.1687 18.637V18.007H12.6927V17.623C12.6927 17.591 12.6807 17.564 12.6567 17.542C12.6347 17.518 12.6077 17.506 12.5757 17.506H11.1687V17.26H12.5757C12.6437 17.26 12.7047 17.277 12.7587 17.311C12.8147 17.343 12.8587 17.387 12.8907 17.443C12.9247 17.497 12.9417 17.557 12.9417 17.623V19H11.5317ZM11.5317 18.754H12.6927V18.253H11.4147V18.637C11.4147 18.669 11.4257 18.697 11.4477 18.721C11.4717 18.743 11.4997 18.754 11.5317 18.754ZM13.6177 19C13.5497 19 13.4877 18.984 13.4317 18.952C13.3777 18.918 13.3347 18.874 13.3027 18.82C13.2707 18.764 13.2547 18.703 13.2547 18.637V16.69H13.5007V17.26H14.2537V17.506H13.5007V18.637C13.5007 18.669 13.5117 18.697 13.5337 18.721C13.5577 18.743 13.5857 18.754 13.6177 18.754H14.2537V19H13.6177ZM14.4968 19V17.26H14.7428V19H14.4968ZM14.4968 16.936V16.69H14.7428V16.936H14.4968ZM15.4808 19C15.4148 19 15.3538 18.984 15.2978 18.952C15.2438 18.918 15.1998 18.874 15.1658 18.82C15.1338 18.764 15.1178 18.703 15.1178 18.637V17.623C15.1178 17.557 15.1338 17.497 15.1658 17.443C15.1998 17.387 15.2438 17.343 15.2978 17.311C15.3538 17.277 15.4148 17.26 15.4808 17.26H16.5248C16.5928 17.26 16.6538 17.277 16.7078 17.311C16.7638 17.343 16.8078 17.387 16.8398 17.443C16.8738 17.497 16.8908 17.557 16.8908 17.623V18.637C16.8908 18.703 16.8738 18.764 16.8398 18.82C16.8078 18.874 16.7638 18.918 16.7078 18.952C16.6538 18.984 16.5928 19 16.5248 19H15.4808ZM15.4808 18.754H16.5248C16.5568 18.754 16.5838 18.743 16.6058 18.721C16.6298 18.697 16.6418 18.669 16.6418 18.637V17.623C16.6418 17.591 16.6298 17.564 16.6058 17.542C16.5838 17.518 16.5568 17.506 16.5248 17.506H15.4808C15.4488 17.506 15.4208 17.518 15.3968 17.542C15.3748 17.564 15.3638 17.591 15.3638 17.623V18.637C15.3638 18.669 15.3748 18.697 15.3968 18.721C15.4208 18.743 15.4488 18.754 15.4808 18.754ZM17.16 19V17.26H18.57C18.636 17.26 18.696 17.277 18.75 17.311C18.806 17.343 18.85 17.387 18.882 17.443C18.916 17.497 18.933 17.557 18.933 17.623V19H18.687V17.623C18.687 17.591 18.675 17.564 18.651 17.542C18.629 17.518 18.602 17.506 18.57 17.506H17.526C17.494 17.506 17.466 17.518 17.442 17.542C17.418 17.564 17.406 17.591 17.406 17.623V19H17.16ZM20.0663 19V17.26H21.4763C21.5423 17.26 21.6023 17.277 21.6563 17.311C21.7123 17.343 21.7563 17.387 21.7883 17.443C21.8223 17.497 21.8393 17.557 21.8393 17.623V19H21.5933V17.623C21.5933 17.591 21.5813 17.564 21.5573 17.542C21.5353 17.518 21.5083 17.506 21.4763 17.506H20.4323C20.4003 17.506 20.3723 17.518 20.3483 17.542C20.3243 17.564 20.3123 17.591 20.3123 17.623V19H20.0663ZM22.5152 19C22.4492 19 22.3882 18.984 22.3322 18.952C22.2782 18.918 22.2342 18.874 22.2002 18.82C22.1682 18.764 22.1522 18.703 22.1522 18.637V17.26H22.3982V18.637C22.3982 18.669 22.4092 18.697 22.4312 18.721C22.4552 18.743 22.4832 18.754 22.5152 18.754H23.5592C23.5912 18.754 23.6192 18.743 23.6432 18.721C23.6672 18.697 23.6792 18.669 23.6792 18.637V17.26H23.9252V18.637C23.9252 18.703 23.9082 18.764 23.8742 18.82C23.8422 18.874 23.7982 18.918 23.7422 18.952C23.6882 18.984 23.6272 19 23.5592 19H22.5152ZM24.1825 19V17.26H26.4805C26.5485 17.26 26.6095 17.277 26.6635 17.311C26.7195 17.343 26.7635 17.387 26.7955 17.443C26.8275 17.497 26.8435 17.557 26.8435 17.623V19H26.6005V17.623C26.6005 17.591 26.5885 17.564 26.5645 17.542C26.5405 17.518 26.5125 17.506 26.4805 17.506H25.7575C25.7255 17.506 25.6975 17.518 25.6735 17.542C25.6515 17.564 25.6405 17.591 25.6405 17.623V19H25.3915V17.623C25.3915 17.591 25.3795 17.564 25.3555 17.542C25.3335 17.518 25.3065 17.506 25.2745 17.506H24.5485C24.5165 17.506 24.4885 17.518 24.4645 17.542C24.4425 17.564 24.4315 17.591 24.4315 17.623V19H24.1825ZM27.1151 19V16.69H27.3611V17.26H28.5251C28.5911 17.26 28.6511 17.277 28.7051 17.311C28.7611 17.343 28.8051 17.387 28.8371 17.443C28.8711 17.497 28.8881 17.557 28.8881 17.623V18.637C28.8881 18.703 28.8711 18.764 28.8371 18.82C28.8051 18.874 28.7611 18.918 28.7051 18.952C28.6511 18.984 28.5911 19 28.5251 19H27.1151ZM27.4811 18.754H28.5251C28.5571 18.754 28.5841 18.743 28.6061 18.721C28.6301 18.697 28.6421 18.669 28.6421 18.637V17.623C28.6421 17.591 28.6301 17.564 28.6061 17.542C28.5841 17.518 28.5571 17.506 28.5251 17.506H27.4811C27.4491 17.506 27.4211 17.518 27.3971 17.542C27.3731 17.564 27.3611 17.591 27.3611 17.623V18.637C27.3611 18.669 27.3731 18.697 27.3971 18.721C27.4211 18.743 27.4491 18.754 27.4811 18.754ZM29.4701 19C29.4041 19 29.3431 18.984 29.2871 18.952C29.2331 18.918 29.1891 18.874 29.1551 18.82C29.1231 18.764 29.1071 18.703 29.1071 18.637V17.623C29.1071 17.557 29.1231 17.497 29.1551 17.443C29.1891 17.387 29.2331 17.343 29.2871 17.311C29.3431 17.277 29.4041 17.26 29.4701 17.26H30.5141C30.5821 17.26 30.6431 17.277 30.6971 17.311C30.7531 17.343 30.7971 17.387 30.8291 17.443C30.8631 17.497 30.8801 17.557 30.8801 17.623V18.253H29.3531V18.637C29.3531 18.669 29.3641 18.697 29.3861 18.721C29.4101 18.743 29.4381 18.754 29.4701 18.754H30.8801V19H29.4701ZM29.3531 18.007H30.6311V17.623C30.6311 17.591 30.6191 17.564 30.5951 17.542C30.5731 17.518 30.5461 17.506 30.5141 17.506H29.4701C29.4381 17.506 29.4101 17.518 29.3861 17.542C29.3641 17.564 29.3531 17.591 29.3531 17.623V18.007ZM31.1726 19V17.623C31.1726 17.557 31.1886 17.497 31.2206 17.443C31.2546 17.387 31.2986 17.343 31.3526 17.311C31.4086 17.277 31.4696 17.26 31.5356 17.26H32.5136V17.506H31.5356C31.5036 17.506 31.4756 17.518 31.4516 17.542C31.4296 17.564 31.4186 17.591 31.4186 17.623V19H31.1726ZM32.7138 17.482V17.236H32.9598V17.482H32.7138ZM32.7138 19V18.754H32.9598V19H32.7138ZM0.18 22.967V22.703C0.18 22.563 0.24 22.448 0.36 22.358L0.951 21.908C1.053 21.83 1.104 21.73 1.104 21.608V21.491C1.104 21.299 1.009 21.203 0.819 21.203H0.603C0.415 21.203 0.321 21.299 0.321 21.491V21.626C0.321 21.65 0.31 21.662 0.288 21.662H0.201C0.179 21.662 0.168 21.65 0.168 21.626V21.488C0.168 21.358 0.206 21.256 0.282 21.182C0.358 21.108 0.461 21.071 0.591 21.071H0.834C0.964 21.071 1.066 21.108 1.14 21.182C1.216 21.254 1.254 21.356 1.254 21.488V21.614C1.254 21.77 1.191 21.896 1.065 21.992L0.468 22.451C0.384 22.515 0.342 22.594 0.342 22.688V22.862H1.23C1.252 22.862 1.263 22.873 1.263 22.895V22.967C1.263 22.989 1.252 23 1.23 23H0.216C0.192 23 0.18 22.989 0.18 22.967ZM2.10762 21.962H2.28762C2.47762 21.962 2.57262 21.867 2.57262 21.677V21.491C2.57262 21.299 2.47762 21.203 2.28762 21.203H2.05662C1.86662 21.203 1.77162 21.299 1.77162 21.491V21.599C1.77162 21.621 1.76162 21.632 1.74162 21.632H1.65462C1.63262 21.632 1.62162 21.621 1.62162 21.599V21.488C1.62162 21.358 1.65962 21.256 1.73562 21.182C1.81162 21.108 1.91462 21.071 2.04462 21.071H2.29962C2.42962 21.071 2.53262 21.108 2.60862 21.182C2.68462 21.256 2.72262 21.358 2.72262 21.488V21.68C2.72262 21.864 2.63962 21.98 2.47362 22.028C2.63962 22.074 2.72262 22.191 2.72262 22.379V22.583C2.72262 22.713 2.68462 22.815 2.60862 22.889C2.53262 22.963 2.42962 23 2.29962 23H2.04462C1.91462 23 1.81162 22.963 1.73562 22.889C1.65962 22.815 1.62162 22.713 1.62162 22.583V22.448C1.62162 22.424 1.63262 22.412 1.65462 22.412H1.74162C1.76162 22.412 1.77162 22.424 1.77162 22.448V22.58C1.77162 22.772 1.86662 22.868 2.05662 22.868H2.28762C2.47762 22.868 2.57262 22.772 2.57262 22.58V22.382C2.57262 22.19 2.47762 22.094 2.28762 22.094H2.10762C2.08562 22.094 2.07462 22.083 2.07462 22.061V21.995C2.07462 21.973 2.08562 21.962 2.10762 21.962ZM3.9739 22.472V21.191L3.2179 22.472H3.9739ZM4.0879 23H4.0069C3.9849 23 3.9739 22.988 3.9739 22.964V22.607H3.1039C3.0739 22.607 3.0589 22.593 3.0589 22.565V22.511C3.0589 22.493 3.0659 22.47 3.0799 22.442L3.8659 21.116C3.8839 21.086 3.9079 21.071 3.9379 21.071H4.0789C4.1069 21.071 4.1209 21.086 4.1209 21.116V22.472H4.3459C4.3679 22.472 4.3789 22.482 4.3789 22.502V22.574C4.3789 22.596 4.3679 22.607 4.3459 22.607H4.1209V22.964C4.1209 22.988 4.1099 23 4.0879 23ZM5.15449 21.962H5.33449C5.52449 21.962 5.61949 21.867 5.61949 21.677V21.491C5.61949 21.299 5.52449 21.203 5.33449 21.203H5.10349C4.91349 21.203 4.81849 21.299 4.81849 21.491V21.599C4.81849 21.621 4.80849 21.632 4.78849 21.632H4.70149C4.67949 21.632 4.66849 21.621 4.66849 21.599V21.488C4.66849 21.358 4.70649 21.256 4.78249 21.182C4.85849 21.108 4.96149 21.071 5.09149 21.071H5.34649C5.47649 21.071 5.57949 21.108 5.65549 21.182C5.73149 21.256 5.76949 21.358 5.76949 21.488V21.68C5.76949 21.864 5.68649 21.98 5.52049 22.028C5.68649 22.074 5.76949 22.191 5.76949 22.379V22.583C5.76949 22.713 5.73149 22.815 5.65549 22.889C5.57949 22.963 5.47649 23 5.34649 23H5.09149C4.96149 23 4.85849 22.963 4.78249 22.889C4.70649 22.815 4.66849 22.713 4.66849 22.583V22.448C4.66849 22.424 4.67949 22.412 4.70149 22.412H4.78849C4.80849 22.412 4.81849 22.424 4.81849 22.448V22.58C4.81849 22.772 4.91349 22.868 5.10349 22.868H5.33449C5.52449 22.868 5.61949 22.772 5.61949 22.58V22.382C5.61949 22.19 5.52449 22.094 5.33449 22.094H5.15449C5.13249 22.094 5.12149 22.083 5.12149 22.061V21.995C5.12149 21.973 5.13249 21.962 5.15449 21.962ZM6.14777 22.967V22.703C6.14777 22.563 6.20777 22.448 6.32777 22.358L6.91877 21.908C7.02077 21.83 7.07177 21.73 7.07177 21.608V21.491C7.07177 21.299 6.97677 21.203 6.78677 21.203H6.57077C6.38277 21.203 6.28877 21.299 6.28877 21.491V21.626C6.28877 21.65 6.27777 21.662 6.25577 21.662H6.16877C6.14677 21.662 6.13577 21.65 6.13577 21.626V21.488C6.13577 21.358 6.17377 21.256 6.24977 21.182C6.32577 21.108 6.42877 21.071 6.55877 21.071H6.80177C6.93177 21.071 7.03377 21.108 7.10777 21.182C7.18377 21.254 7.22177 21.356 7.22177 21.488V21.614C7.22177 21.77 7.15877 21.896 7.03277 21.992L6.43577 22.451C6.35177 22.515 6.30977 22.594 6.30977 22.688V22.862H7.19777C7.21977 22.862 7.23077 22.873 7.23077 22.895V22.967C7.23077 22.989 7.21977 23 7.19777 23H6.18377C6.15977 23 6.14777 22.989 6.14777 22.967ZM7.58039 22.967V22.703C7.58039 22.563 7.64039 22.448 7.76039 22.358L8.35139 21.908C8.45339 21.83 8.50439 21.73 8.50439 21.608V21.491C8.50439 21.299 8.40939 21.203 8.21939 21.203H8.00339C7.81539 21.203 7.72139 21.299 7.72139 21.491V21.626C7.72139 21.65 7.71039 21.662 7.68839 21.662H7.60139C7.57939 21.662 7.56839 21.65 7.56839 21.626V21.488C7.56839 21.358 7.60639 21.256 7.68239 21.182C7.75839 21.108 7.86139 21.071 7.99139 21.071H8.23439C8.36439 21.071 8.46639 21.108 8.54039 21.182C8.61639 21.254 8.65439 21.356 8.65439 21.488V21.614C8.65439 21.77 8.59139 21.896 8.46539 21.992L7.86839 22.451C7.78439 22.515 7.74239 22.594 7.74239 22.688V22.862H8.63039C8.65239 22.862 8.66339 22.873 8.66339 22.895V22.967C8.66339 22.989 8.65239 23 8.63039 23H7.61639C7.59239 23 7.58039 22.989 7.58039 22.967ZM9.01301 22.967V22.703C9.01301 22.563 9.07301 22.448 9.19301 22.358L9.78401 21.908C9.88601 21.83 9.93701 21.73 9.93701 21.608V21.491C9.93701 21.299 9.84201 21.203 9.65201 21.203H9.43601C9.24801 21.203 9.15401 21.299 9.15401 21.491V21.626C9.15401 21.65 9.14301 21.662 9.12101 21.662H9.03401C9.01201 21.662 9.00101 21.65 9.00101 21.626V21.488C9.00101 21.358 9.03901 21.256 9.11501 21.182C9.19101 21.108 9.29401 21.071 9.42401 21.071H9.66701C9.79701 21.071 9.89901 21.108 9.97301 21.182C10.049 21.254 10.087 21.356 10.087 21.488V21.614C10.087 21.77 10.024 21.896 9.89801 21.992L9.30101 22.451C9.21701 22.515 9.17501 22.594 9.17501 22.688V22.862H10.063C10.085 22.862 10.096 22.873 10.096 22.895V22.967C10.096 22.989 10.085 23 10.063 23H9.04901C9.02501 23 9.01301 22.989 9.01301 22.967ZM10.4456 22.967V22.703C10.4456 22.563 10.5056 22.448 10.6256 22.358L11.2166 21.908C11.3186 21.83 11.3696 21.73 11.3696 21.608V21.491C11.3696 21.299 11.2746 21.203 11.0846 21.203H10.8686C10.6806 21.203 10.5866 21.299 10.5866 21.491V21.626C10.5866 21.65 10.5756 21.662 10.5536 21.662H10.4666C10.4446 21.662 10.4336 21.65 10.4336 21.626V21.488C10.4336 21.358 10.4716 21.256 10.5476 21.182C10.6236 21.108 10.7266 21.071 10.8566 21.071H11.0996C11.2296 21.071 11.3316 21.108 11.4056 21.182C11.4816 21.254 11.5196 21.356 11.5196 21.488V21.614C11.5196 21.77 11.4566 21.896 11.3306 21.992L10.7336 22.451C10.6496 22.515 10.6076 22.594 10.6076 22.688V22.862H11.4956C11.5176 22.862 11.5286 22.873 11.5286 22.895V22.967C11.5286 22.989 11.5176 23 11.4956 23H10.4816C10.4576 23 10.4456 22.989 10.4456 22.967ZM11.8782 22.967V22.703C11.8782 22.563 11.9382 22.448 12.0582 22.358L12.6492 21.908C12.7512 21.83 12.8022 21.73 12.8022 21.608V21.491C12.8022 21.299 12.7072 21.203 12.5172 21.203H12.3012C12.1132 21.203 12.0192 21.299 12.0192 21.491V21.626C12.0192 21.65 12.0082 21.662 11.9862 21.662H11.8992C11.8772 21.662 11.8662 21.65 11.8662 21.626V21.488C11.8662 21.358 11.9042 21.256 11.9802 21.182C12.0562 21.108 12.1592 21.071 12.2892 21.071H12.5322C12.6622 21.071 12.7642 21.108 12.8382 21.182C12.9142 21.254 12.9522 21.356 12.9522 21.488V21.614C12.9522 21.77 12.8892 21.896 12.7632 21.992L12.1662 22.451C12.0822 22.515 12.0402 22.594 12.0402 22.688V22.862H12.9282C12.9502 22.862 12.9612 22.873 12.9612 22.895V22.967C12.9612 22.989 12.9502 23 12.9282 23H11.9142C11.8902 23 11.8782 22.989 11.8782 22.967ZM13.3109 22.967V22.703C13.3109 22.563 13.3709 22.448 13.4909 22.358L14.0819 21.908C14.1839 21.83 14.2349 21.73 14.2349 21.608V21.491C14.2349 21.299 14.1399 21.203 13.9499 21.203H13.7339C13.5459 21.203 13.4519 21.299 13.4519 21.491V21.626C13.4519 21.65 13.4409 21.662 13.4189 21.662H13.3319C13.3099 21.662 13.2989 21.65 13.2989 21.626V21.488C13.2989 21.358 13.3369 21.256 13.4129 21.182C13.4889 21.108 13.5919 21.071 13.7219 21.071H13.9649C14.0949 21.071 14.1969 21.108 14.2709 21.182C14.3469 21.254 14.3849 21.356 14.3849 21.488V21.614C14.3849 21.77 14.3219 21.896 14.1959 21.992L13.5989 22.451C13.5149 22.515 13.4729 22.594 13.4729 22.688V22.862H14.3609C14.3829 22.862 14.3939 22.873 14.3939 22.895V22.967C14.3939 22.989 14.3829 23 14.3609 23H13.3469C13.3229 23 13.3109 22.989 13.3109 22.967ZM14.7435 22.967V22.703C14.7435 22.563 14.8035 22.448 14.9235 22.358L15.5145 21.908C15.6165 21.83 15.6675 21.73 15.6675 21.608V21.491C15.6675 21.299 15.5725 21.203 15.3825 21.203H15.1665C14.9785 21.203 14.8845 21.299 14.8845 21.491V21.626C14.8845 21.65 14.8735 21.662 14.8515 21.662H14.7645C14.7425 21.662 14.7315 21.65 14.7315 21.626V21.488C14.7315 21.358 14.7695 21.256 14.8455 21.182C14.9215 21.108 15.0245 21.071 15.1545 21.071H15.3975C15.5275 21.071 15.6295 21.108 15.7035 21.182C15.7795 21.254 15.8175 21.356 15.8175 21.488V21.614C15.8175 21.77 15.7545 21.896 15.6285 21.992L15.0315 22.451C14.9475 22.515 14.9055 22.594 14.9055 22.688V22.862H15.7935C15.8155 22.862 15.8265 22.873 15.8265 22.895V22.967C15.8265 22.989 15.8155 23 15.7935 23H14.7795C14.7555 23 14.7435 22.989 14.7435 22.967ZM16.3651 22.607V22.964C16.3651 22.988 16.3551 23 16.3351 23H16.2301C16.2081 23 16.1971 22.988 16.1971 22.964V22.607C16.1971 22.585 16.2081 22.574 16.2301 22.574H16.3351C16.3551 22.574 16.3651 22.585 16.3651 22.607ZM17.1733 22.091H17.7133V21.503C17.7133 21.407 17.6883 21.334 17.6383 21.284C17.5903 21.232 17.5203 21.206 17.4283 21.206H17.1733C17.0813 21.206 17.0113 21.232 16.9633 21.284C16.9153 21.334 16.8913 21.407 16.8913 21.503V21.794C16.8913 21.89 16.9153 21.964 16.9633 22.016C17.0113 22.066 17.0813 22.091 17.1733 22.091ZM17.4403 23H16.8673C16.8433 23 16.8313 22.989 16.8313 22.967V22.895C16.8313 22.875 16.8433 22.865 16.8673 22.865H17.4283C17.5203 22.865 17.5903 22.84 17.6383 22.79C17.6863 22.738 17.7103 22.664 17.7103 22.568V22.226H17.1613C17.0313 22.226 16.9283 22.188 16.8523 22.112C16.7763 22.036 16.7383 21.932 16.7383 21.8V21.497C16.7383 21.365 16.7763 21.261 16.8523 21.185C16.9283 21.109 17.0313 21.071 17.1613 21.071H17.4403C17.5703 21.071 17.6733 21.109 17.7493 21.185C17.8253 21.261 17.8633 21.365 17.8633 21.497V22.574C17.8633 22.706 17.8253 22.81 17.7493 22.886C17.6733 22.962 17.5703 23 17.4403 23ZM18.6645 22.091H19.2045V21.503C19.2045 21.407 19.1795 21.334 19.1295 21.284C19.0815 21.232 19.0115 21.206 18.9195 21.206H18.6645C18.5725 21.206 18.5025 21.232 18.4545 21.284C18.4065 21.334 18.3825 21.407 18.3825 21.503V21.794C18.3825 21.89 18.4065 21.964 18.4545 22.016C18.5025 22.066 18.5725 22.091 18.6645 22.091ZM18.9315 23H18.3585C18.3345 23 18.3225 22.989 18.3225 22.967V22.895C18.3225 22.875 18.3345 22.865 18.3585 22.865H18.9195C19.0115 22.865 19.0815 22.84 19.1295 22.79C19.1775 22.738 19.2015 22.664 19.2015 22.568V22.226H18.6525C18.5225 22.226 18.4195 22.188 18.3435 22.112C18.2675 22.036 18.2295 21.932 18.2295 21.8V21.497C18.2295 21.365 18.2675 21.261 18.3435 21.185C18.4195 21.109 18.5225 21.071 18.6525 21.071H18.9315C19.0615 21.071 19.1645 21.109 19.2405 21.185C19.3165 21.261 19.3545 21.365 19.3545 21.497V22.574C19.3545 22.706 19.3165 22.81 19.2405 22.886C19.1645 22.962 19.0615 23 18.9315 23ZM20.1857 22.865H20.4617C20.5537 22.865 20.6237 22.84 20.6717 22.79C20.7197 22.738 20.7437 22.664 20.7437 22.568V21.503C20.7437 21.407 20.7197 21.334 20.6717 21.284C20.6237 21.232 20.5537 21.206 20.4617 21.206H20.1857C20.0937 21.206 20.0237 21.232 19.9757 21.284C19.9277 21.334 19.9037 21.407 19.9037 21.503V22.568C19.9037 22.664 19.9277 22.738 19.9757 22.79C20.0237 22.84 20.0937 22.865 20.1857 22.865ZM20.4737 23H20.1737C20.0437 23 19.9407 22.962 19.8647 22.886C19.7887 22.81 19.7507 22.706 19.7507 22.574V21.497C19.7507 21.365 19.7887 21.261 19.8647 21.185C19.9407 21.109 20.0437 21.071 20.1737 21.071H20.4737C20.6037 21.071 20.7057 21.109 20.7797 21.185C20.8557 21.261 20.8937 21.365 20.8937 21.497V22.574C20.8937 22.706 20.8557 22.81 20.7797 22.886C20.7057 22.962 20.6037 23 20.4737 23ZM21.7268 22.865H22.0028C22.0948 22.865 22.1648 22.84 22.2128 22.79C22.2608 22.738 22.2848 22.664 22.2848 22.568V21.503C22.2848 21.407 22.2608 21.334 22.2128 21.284C22.1648 21.232 22.0948 21.206 22.0028 21.206H21.7268C21.6348 21.206 21.5648 21.232 21.5168 21.284C21.4688 21.334 21.4448 21.407 21.4448 21.503V22.568C21.4448 22.664 21.4688 22.738 21.5168 22.79C21.5648 22.84 21.6348 22.865 21.7268 22.865ZM22.0148 23H21.7148C21.5848 23 21.4818 22.962 21.4058 22.886C21.3298 22.81 21.2917 22.706 21.2917 22.574V21.497C21.2917 21.365 21.3298 21.261 21.4058 21.185C21.4818 21.109 21.5848 21.071 21.7148 21.071H22.0148C22.1448 21.071 22.2468 21.109 22.3208 21.185C22.3968 21.261 22.4348 21.365 22.4348 21.497V22.574C22.4348 22.706 22.3968 22.81 22.3208 22.886C22.2468 22.962 22.1448 23 22.0148 23ZM23.2678 22.865H23.5438C23.6358 22.865 23.7058 22.84 23.7538 22.79C23.8018 22.738 23.8258 22.664 23.8258 22.568V21.503C23.8258 21.407 23.8018 21.334 23.7538 21.284C23.7058 21.232 23.6358 21.206 23.5438 21.206H23.2678C23.1758 21.206 23.1058 21.232 23.0578 21.284C23.0098 21.334 22.9858 21.407 22.9858 21.503V22.568C22.9858 22.664 23.0098 22.738 23.0578 22.79C23.1058 22.84 23.1758 22.865 23.2678 22.865ZM23.5558 23H23.2558C23.1258 23 23.0228 22.962 22.9468 22.886C22.8708 22.81 22.8328 22.706 22.8328 22.574V21.497C22.8328 21.365 22.8708 21.261 22.9468 21.185C23.0228 21.109 23.1258 21.071 23.2558 21.071H23.5558C23.6858 21.071 23.7878 21.109 23.8618 21.185C23.9378 21.261 23.9758 21.365 23.9758 21.497V22.574C23.9758 22.706 23.9378 22.81 23.8618 22.886C23.7878 22.962 23.6858 23 23.5558 23ZM24.2838 21.434V21.368C24.2838 21.342 24.2958 21.321 24.3198 21.305L24.6978 21.092C24.7178 21.078 24.7388 21.071 24.7608 21.071H24.8388C24.8608 21.071 24.8718 21.083 24.8718 21.107V22.964C24.8718 22.988 24.8608 23 24.8388 23H24.7518C24.7318 23 24.7218 22.988 24.7218 22.964V21.233L24.3348 21.452C24.3008 21.474 24.2838 21.468 24.2838 21.434Z" fill="#EB2941"/>
</svg>
