<svg width="194" height="28" viewBox="0 0 194 28" fill="none" xmlns="http://www.w3.org/2000/svg">
<path d="M1.35 6H1.176C1.132 6 1.11 5.976 1.11 5.928V2.466C1.11 2.43 1.09 2.412 1.05 2.412H0.18C0.132 2.412 0.108 2.39 0.108 2.346V2.208C0.108 2.164 0.132 2.142 0.18 2.142H2.34C2.388 2.142 2.412 2.164 2.412 2.208V2.346C2.412 2.39 2.388 2.412 2.34 2.412H1.47C1.43 2.412 1.41 2.43 1.41 2.466V5.928C1.41 5.976 1.39 6 1.35 6ZM3.20353 6H3.02953C2.98953 6 2.96953 5.976 2.96953 5.928V1.854C2.96953 1.806 2.98953 1.782 3.02953 1.782H3.20353C3.24753 1.782 3.26953 1.806 3.26953 1.854V3.252H3.29353C3.40553 3.044 3.61353 2.94 3.91753 2.94H4.31353C4.56953 2.94 4.77153 3.016 4.91953 3.168C5.06753 3.32 5.14153 3.528 5.14153 3.792V5.928C5.14153 5.976 5.12153 6 5.08153 6H4.90753C4.86353 6 4.84153 5.976 4.84153 5.928V3.804C4.84153 3.616 4.79353 3.47 4.69753 3.366C4.60153 3.262 4.46153 3.21 4.27753 3.21H3.88753C3.69553 3.21 3.54353 3.262 3.43153 3.366C3.32353 3.466 3.26953 3.61 3.26953 3.798V5.928C3.26953 5.976 3.24753 6 3.20353 6ZM6.04055 2.436V1.86C6.04055 1.816 6.06055 1.794 6.10055 1.794H6.28055C6.32055 1.794 6.34055 1.816 6.34055 1.86V2.436C6.34055 2.484 6.32055 2.508 6.28055 2.508H6.10055C6.06055 2.508 6.04055 2.484 6.04055 2.436ZM6.04055 5.928V3.012C6.04055 2.964 6.06055 2.94 6.10055 2.94H6.27455C6.31855 2.94 6.34055 2.964 6.34055 3.012V5.928C6.34055 5.976 6.32055 6 6.28055 6H6.10055C6.06055 6 6.04055 5.976 6.04055 5.928ZM8.26031 6H7.21631C7.17231 6 7.15031 5.978 7.15031 5.934V5.796C7.15031 5.756 7.17231 5.736 7.21631 5.736H8.23031C8.59031 5.736 8.77031 5.596 8.77031 5.316V5.172C8.77031 4.912 8.65831 4.742 8.43431 4.662L7.68431 4.374C7.48031 4.294 7.33431 4.2 7.24631 4.092C7.16231 3.984 7.12031 3.834 7.12031 3.642C7.12031 3.174 7.37831 2.94 7.89431 2.94H8.86631C8.91031 2.94 8.93231 2.962 8.93231 3.006V3.144C8.93231 3.184 8.91031 3.204 8.86631 3.204H7.92431C7.76031 3.204 7.63631 3.24 7.55231 3.312C7.47231 3.384 7.43231 3.468 7.43231 3.564V3.702C7.43231 3.814 7.46231 3.902 7.52231 3.966C7.58631 4.03 7.68231 4.084 7.81031 4.128L8.56031 4.428C8.76831 4.496 8.90631 4.598 8.97431 4.734C9.04631 4.866 9.08231 5.052 9.08231 5.292C9.08231 5.532 9.01431 5.71 8.87831 5.826C8.74631 5.942 8.54031 6 8.26031 6ZM12.6239 6H12.2219C11.9659 6 11.7639 5.924 11.6159 5.772C11.4679 5.62 11.3939 5.412 11.3939 5.148V3.792C11.3939 3.528 11.4679 3.32 11.6159 3.168C11.7639 3.016 11.9659 2.94 12.2219 2.94H12.6239C12.9319 2.94 13.1419 3.044 13.2539 3.252H13.2779V1.854C13.2779 1.806 13.2979 1.782 13.3379 1.782H13.5119C13.5559 1.782 13.5779 1.806 13.5779 1.854V5.928C13.5779 5.976 13.5559 6 13.5119 6H13.3379C13.2979 6 13.2779 5.976 13.2779 5.928V5.688H13.2539C13.1419 5.896 12.9319 6 12.6239 6ZM13.2779 5.142V3.798C13.2779 3.61 13.2219 3.466 13.1099 3.366C13.0019 3.262 12.8519 3.21 12.6599 3.21H12.2579C12.0739 3.21 11.9339 3.262 11.8379 3.366C11.7419 3.47 11.6939 3.616 11.6939 3.804V5.136C11.6939 5.324 11.7419 5.47 11.8379 5.574C11.9339 5.678 12.0739 5.73 12.2579 5.73H12.6599C12.8519 5.73 13.0019 5.68 13.1099 5.58C13.2219 5.476 13.2779 5.33 13.2779 5.142ZM16.5113 6H15.2573C14.9973 6 14.7913 5.924 14.6393 5.772C14.4913 5.62 14.4173 5.412 14.4173 5.148V3.792C14.4173 3.528 14.4913 3.32 14.6393 3.168C14.7913 3.016 14.9973 2.94 15.2573 2.94H15.7733C16.0333 2.94 16.2393 3.016 16.3913 3.168C16.5433 3.32 16.6193 3.528 16.6193 3.792V4.554C16.6193 4.602 16.5953 4.626 16.5473 4.626H14.7713C14.7353 4.626 14.7173 4.644 14.7173 4.68V5.142C14.7173 5.33 14.7653 5.476 14.8613 5.58C14.9573 5.68 15.0973 5.73 15.2813 5.73H16.5113C16.5553 5.73 16.5773 5.752 16.5773 5.796V5.934C16.5773 5.978 16.5553 6 16.5113 6ZM14.7713 4.386H16.2653C16.3013 4.386 16.3193 4.368 16.3193 4.332V3.798C16.3193 3.61 16.2713 3.466 16.1753 3.366C16.0793 3.262 15.9393 3.21 15.7553 3.21H15.2813C15.0973 3.21 14.9573 3.262 14.8613 3.366C14.7653 3.466 14.7173 3.61 14.7173 3.798V4.332C14.7173 4.368 14.7353 4.386 14.7713 4.386ZM17.1485 2.94H17.3345C17.3745 2.94 17.4005 2.964 17.4125 3.012L18.2165 5.664H18.2405L19.0385 3.012C19.0545 2.964 19.0805 2.94 19.1165 2.94H19.3085C19.3525 2.94 19.3665 2.964 19.3505 3.012L18.4445 5.928C18.4325 5.976 18.4045 6 18.3605 6H18.0965C18.0525 6 18.0225 5.976 18.0065 5.928L17.1005 3.012C17.0885 2.964 17.1045 2.94 17.1485 2.94ZM19.9566 2.436V1.86C19.9566 1.816 19.9766 1.794 20.0166 1.794H20.1966C20.2366 1.794 20.2566 1.816 20.2566 1.86V2.436C20.2566 2.484 20.2366 2.508 20.1966 2.508H20.0166C19.9766 2.508 19.9566 2.484 19.9566 2.436ZM19.9566 5.928V3.012C19.9566 2.964 19.9766 2.94 20.0166 2.94H20.1906C20.2346 2.94 20.2566 2.964 20.2566 3.012V5.928C20.2566 5.976 20.2366 6 20.1966 6H20.0166C19.9766 6 19.9566 5.976 19.9566 5.928ZM22.8963 5.796V5.934C22.8963 5.978 22.8743 6 22.8303 6H21.9663C21.7063 6 21.5003 5.924 21.3483 5.772C21.2003 5.62 21.1263 5.412 21.1263 5.148V3.792C21.1263 3.528 21.2003 3.32 21.3483 3.168C21.5003 3.016 21.7063 2.94 21.9663 2.94H22.8303C22.8743 2.94 22.8963 2.962 22.8963 3.006V3.15C22.8963 3.19 22.8743 3.21 22.8303 3.21H21.9903C21.8063 3.21 21.6663 3.262 21.5703 3.366C21.4743 3.47 21.4263 3.616 21.4263 3.804V5.136C21.4263 5.324 21.4743 5.47 21.5703 5.574C21.6663 5.678 21.8063 5.73 21.9903 5.73H22.8303C22.8743 5.73 22.8963 5.752 22.8963 5.796ZM25.5817 6H24.3277C24.0677 6 23.8617 5.924 23.7097 5.772C23.5617 5.62 23.4877 5.412 23.4877 5.148V3.792C23.4877 3.528 23.5617 3.32 23.7097 3.168C23.8617 3.016 24.0677 2.94 24.3277 2.94H24.8437C25.1037 2.94 25.3097 3.016 25.4617 3.168C25.6137 3.32 25.6897 3.528 25.6897 3.792V4.554C25.6897 4.602 25.6657 4.626 25.6177 4.626H23.8417C23.8057 4.626 23.7877 4.644 23.7877 4.68V5.142C23.7877 5.33 23.8357 5.476 23.9317 5.58C24.0277 5.68 24.1677 5.73 24.3517 5.73H25.5817C25.6257 5.73 25.6477 5.752 25.6477 5.796V5.934C25.6477 5.978 25.6257 6 25.5817 6ZM23.8417 4.386H25.3357C25.3717 4.386 25.3897 4.368 25.3897 4.332V3.798C25.3897 3.61 25.3417 3.466 25.2457 3.366C25.1497 3.262 25.0097 3.21 24.8257 3.21H24.3517C24.1677 3.21 24.0277 3.262 23.9317 3.366C23.8357 3.466 23.7877 3.61 23.7877 3.798V4.332C23.7877 4.368 23.8057 4.386 23.8417 4.386ZM28.3344 6H28.1604C28.1204 6 28.1004 5.976 28.1004 5.928V3.012C28.1004 2.964 28.1204 2.94 28.1604 2.94H28.3344C28.3784 2.94 28.4004 2.964 28.4004 3.012V3.252H28.4244C28.5404 3.044 28.7524 2.94 29.0604 2.94H29.3064C29.6584 2.94 29.9024 3.08 30.0384 3.36C30.0984 3.22 30.2004 3.116 30.3444 3.048C30.4884 2.976 30.6364 2.94 30.7884 2.94H31.0104C31.2704 2.94 31.4744 3.016 31.6224 3.168C31.7704 3.32 31.8444 3.528 31.8444 3.792V5.928C31.8444 5.976 31.8224 6 31.7784 6H31.6044C31.5604 6 31.5384 5.976 31.5384 5.928V3.804C31.5384 3.612 31.4904 3.466 31.3944 3.366C31.2984 3.262 31.1584 3.21 30.9744 3.21H30.7524C30.5604 3.21 30.4084 3.266 30.2964 3.378C30.1844 3.486 30.1284 3.634 30.1284 3.822V5.928C30.1284 5.976 30.1064 6 30.0624 6H29.8884C29.8444 6 29.8224 5.976 29.8224 5.928V3.804C29.8224 3.612 29.7744 3.466 29.6784 3.366C29.5824 3.262 29.4424 3.21 29.2584 3.21H29.0184C28.8264 3.21 28.6744 3.262 28.5624 3.366C28.4544 3.466 28.4004 3.61 28.4004 3.798V5.928C28.4004 5.976 28.3784 6 28.3344 6ZM33.8757 6H33.4917C33.2317 6 33.0257 5.924 32.8737 5.772C32.7257 5.62 32.6517 5.412 32.6517 5.148V3.792C32.6517 3.528 32.7257 3.32 32.8737 3.168C33.0257 3.016 33.2317 2.94 33.4917 2.94H34.7637C34.8037 2.94 34.8237 2.964 34.8237 3.012V5.928C34.8237 5.976 34.8037 6 34.7637 6H34.5897C34.5457 6 34.5237 5.976 34.5237 5.928V5.688H34.4997C34.3957 5.896 34.1877 6 33.8757 6ZM34.5237 5.142V3.264C34.5237 3.228 34.5037 3.21 34.4637 3.21H33.5157C33.3317 3.21 33.1917 3.262 33.0957 3.366C32.9997 3.47 32.9517 3.616 32.9517 3.804V5.136C32.9517 5.324 32.9997 5.47 33.0957 5.574C33.1917 5.678 33.3317 5.73 33.5157 5.73H33.9057C34.0977 5.73 34.2477 5.68 34.3557 5.58C34.4677 5.476 34.5237 5.33 34.5237 5.142ZM35.8674 6.912H35.6454C35.6014 6.912 35.5794 6.89 35.5794 6.846V6.702C35.5794 6.658 35.6014 6.636 35.6454 6.636H35.8074C35.9274 6.636 36.0294 6.618 36.1134 6.582C36.1974 6.55 36.2714 6.488 36.3354 6.396C36.3994 6.304 36.4414 6.232 36.4614 6.18C36.5174 6.056 36.5634 5.942 36.5994 5.838H36.4854C36.4414 5.838 36.4134 5.814 36.4014 5.766L35.4474 3.012C35.4314 2.964 35.4474 2.94 35.4954 2.94H35.6814C35.7214 2.94 35.7474 2.964 35.7594 3.012L36.6414 5.586H36.6654L37.5474 3.012C37.5594 2.964 37.5854 2.94 37.6254 2.94H37.8054C37.8534 2.94 37.8714 2.964 37.8594 3.012C37.1434 5.108 36.7694 6.192 36.7374 6.264C36.7094 6.336 36.6554 6.434 36.5754 6.558C36.4234 6.794 36.1874 6.912 35.8674 6.912ZM41.373 6H40.857C40.597 6 40.391 5.924 40.239 5.772C40.091 5.62 40.017 5.412 40.017 5.148V3.792C40.017 3.528 40.091 3.32 40.239 3.168C40.391 3.016 40.597 2.94 40.857 2.94H41.373C41.633 2.94 41.839 3.016 41.991 3.168C42.143 3.32 42.219 3.528 42.219 3.792V5.148C42.219 5.412 42.143 5.62 41.991 5.772C41.839 5.924 41.633 6 41.373 6ZM40.881 5.73H41.349C41.533 5.73 41.673 5.68 41.769 5.58C41.869 5.476 41.919 5.33 41.919 5.142V3.798C41.919 3.61 41.869 3.466 41.769 3.366C41.673 3.262 41.533 3.21 41.349 3.21H40.881C40.697 3.21 40.557 3.262 40.461 3.366C40.365 3.466 40.317 3.61 40.317 3.798V5.142C40.317 5.33 40.365 5.476 40.461 5.58C40.557 5.68 40.697 5.73 40.881 5.73ZM43.2875 6H43.1135C43.0735 6 43.0535 5.976 43.0535 5.928V3.012C43.0535 2.964 43.0735 2.94 43.1135 2.94H43.2875C43.3315 2.94 43.3535 2.964 43.3535 3.012V3.252H43.3775C43.4895 3.044 43.6975 2.94 44.0015 2.94H44.3975C44.6535 2.94 44.8555 3.016 45.0035 3.168C45.1515 3.32 45.2255 3.528 45.2255 3.792V5.928C45.2255 5.976 45.2055 6 45.1655 6H44.9915C44.9475 6 44.9255 5.976 44.9255 5.928V3.804C44.9255 3.616 44.8775 3.47 44.7815 3.366C44.6855 3.262 44.5455 3.21 44.3615 3.21H43.9715C43.7795 3.21 43.6275 3.262 43.5155 3.366C43.4075 3.466 43.3535 3.61 43.3535 3.798V5.928C43.3535 5.976 43.3315 6 43.2875 6ZM46.3585 6H46.1845C46.1445 6 46.1245 5.976 46.1245 5.928V1.854C46.1245 1.806 46.1445 1.782 46.1845 1.782H46.3585C46.4025 1.782 46.4245 1.806 46.4245 1.854V5.928C46.4245 5.976 46.4025 6 46.3585 6ZM47.4983 6.912H47.2763C47.2323 6.912 47.2103 6.89 47.2103 6.846V6.702C47.2103 6.658 47.2323 6.636 47.2763 6.636H47.4383C47.5583 6.636 47.6603 6.618 47.7443 6.582C47.8283 6.55 47.9023 6.488 47.9663 6.396C48.0303 6.304 48.0723 6.232 48.0923 6.18C48.1483 6.056 48.1943 5.942 48.2303 5.838H48.1163C48.0723 5.838 48.0443 5.814 48.0323 5.766L47.0783 3.012C47.0623 2.964 47.0783 2.94 47.1263 2.94H47.3123C47.3523 2.94 47.3783 2.964 47.3903 3.012L48.2723 5.586H48.2963L49.1783 3.012C49.1903 2.964 49.2163 2.94 49.2563 2.94H49.4363C49.4843 2.94 49.5023 2.964 49.4903 3.012C48.7743 5.108 48.4003 6.192 48.3683 6.264C48.3403 6.336 48.2863 6.434 48.2063 6.558C48.0543 6.794 47.8183 6.912 47.4983 6.912ZM52.0678 5.73H53.0218C53.2058 5.73 53.3458 5.68 53.4418 5.58C53.5418 5.476 53.5918 5.328 53.5918 5.136V3.75C53.5918 3.562 53.5418 3.418 53.4418 3.318C53.3458 3.214 53.2058 3.162 53.0218 3.162H52.6258C52.4338 3.162 52.2818 3.214 52.1698 3.318C52.0618 3.418 52.0078 3.562 52.0078 3.75V5.676C52.0078 5.712 52.0278 5.73 52.0678 5.73ZM51.7078 5.928V1.854C51.7078 1.806 51.7278 1.782 51.7678 1.782H51.9418C51.9858 1.782 52.0078 1.806 52.0078 1.854V3.204H52.0318C52.1438 2.996 52.3518 2.892 52.6558 2.892H53.0518C53.3118 2.892 53.5158 2.968 53.6638 3.12C53.8158 3.272 53.8918 3.478 53.8918 3.738V5.148C53.8918 5.412 53.8158 5.62 53.6638 5.772C53.5158 5.924 53.3118 6 53.0518 6H51.7678C51.7278 6 51.7078 5.976 51.7078 5.928ZM56.7653 6H55.5113C55.2513 6 55.0453 5.924 54.8933 5.772C54.7453 5.62 54.6713 5.412 54.6713 5.148V3.792C54.6713 3.528 54.7453 3.32 54.8933 3.168C55.0453 3.016 55.2513 2.94 55.5113 2.94H56.0273C56.2873 2.94 56.4933 3.016 56.6453 3.168C56.7973 3.32 56.8733 3.528 56.8733 3.792V4.554C56.8733 4.602 56.8493 4.626 56.8013 4.626H55.0253C54.9893 4.626 54.9713 4.644 54.9713 4.68V5.142C54.9713 5.33 55.0193 5.476 55.1153 5.58C55.2113 5.68 55.3513 5.73 55.5353 5.73H56.7653C56.8093 5.73 56.8313 5.752 56.8313 5.796V5.934C56.8313 5.978 56.8093 6 56.7653 6ZM55.0253 4.386H56.5193C56.5553 4.386 56.5733 4.368 56.5733 4.332V3.798C56.5733 3.61 56.5253 3.466 56.4293 3.366C56.3333 3.262 56.1933 3.21 56.0093 3.21H55.5353C55.3513 3.21 55.2113 3.262 55.1153 3.366C55.0193 3.466 54.9713 3.61 54.9713 3.798V4.332C54.9713 4.368 54.9893 4.386 55.0253 4.386ZM59.518 6H59.344C59.304 6 59.284 5.976 59.284 5.928V3.012C59.284 2.964 59.304 2.94 59.344 2.94H59.518C59.562 2.94 59.584 2.964 59.584 3.012V3.252H59.608C59.724 3.044 59.936 2.94 60.244 2.94H60.49C60.842 2.94 61.086 3.08 61.222 3.36C61.282 3.22 61.384 3.116 61.528 3.048C61.672 2.976 61.82 2.94 61.972 2.94H62.194C62.454 2.94 62.658 3.016 62.806 3.168C62.954 3.32 63.028 3.528 63.028 3.792V5.928C63.028 5.976 63.006 6 62.962 6H62.788C62.744 6 62.722 5.976 62.722 5.928V3.804C62.722 3.612 62.674 3.466 62.578 3.366C62.482 3.262 62.342 3.21 62.158 3.21H61.936C61.744 3.21 61.592 3.266 61.48 3.378C61.368 3.486 61.312 3.634 61.312 3.822V5.928C61.312 5.976 61.29 6 61.246 6H61.072C61.028 6 61.006 5.976 61.006 5.928V3.804C61.006 3.612 60.958 3.466 60.862 3.366C60.766 3.262 60.626 3.21 60.442 3.21H60.202C60.01 3.21 59.858 3.262 59.746 3.366C59.638 3.466 59.584 3.61 59.584 3.798V5.928C59.584 5.976 59.562 6 59.518 6ZM65.0593 6H64.6753C64.4153 6 64.2093 5.924 64.0573 5.772C63.9093 5.62 63.8353 5.412 63.8353 5.148V3.792C63.8353 3.528 63.9093 3.32 64.0573 3.168C64.2093 3.016 64.4153 2.94 64.6753 2.94H65.9473C65.9873 2.94 66.0073 2.964 66.0073 3.012V5.928C66.0073 5.976 65.9873 6 65.9473 6H65.7733C65.7293 6 65.7073 5.976 65.7073 5.928V5.688H65.6833C65.5793 5.896 65.3713 6 65.0593 6ZM65.7073 5.142V3.264C65.7073 3.228 65.6873 3.21 65.6473 3.21H64.6993C64.5153 3.21 64.3753 3.262 64.2793 3.366C64.1833 3.47 64.1353 3.616 64.1353 3.804V5.136C64.1353 5.324 64.1833 5.47 64.2793 5.574C64.3753 5.678 64.5153 5.73 64.6993 5.73H65.0893C65.2813 5.73 65.4313 5.68 65.5393 5.58C65.6513 5.476 65.7073 5.33 65.7073 5.142ZM67.141 6H66.967C66.927 6 66.907 5.976 66.907 5.928V3.012C66.907 2.964 66.927 2.94 66.967 2.94H67.141C67.185 2.94 67.207 2.964 67.207 3.012V3.252H67.231C67.343 3.044 67.551 2.94 67.855 2.94H68.251C68.507 2.94 68.709 3.016 68.857 3.168C69.005 3.32 69.079 3.528 69.079 3.792V5.928C69.079 5.976 69.059 6 69.019 6H68.845C68.801 6 68.779 5.976 68.779 5.928V3.804C68.779 3.616 68.731 3.47 68.635 3.366C68.539 3.262 68.399 3.21 68.215 3.21H67.825C67.633 3.21 67.481 3.262 67.369 3.366C67.261 3.466 67.207 3.61 67.207 3.798V5.928C67.207 5.976 67.185 6 67.141 6ZM69.978 2.436V1.86C69.978 1.816 69.998 1.794 70.038 1.794H70.218C70.258 1.794 70.278 1.816 70.278 1.86V2.436C70.278 2.484 70.258 2.508 70.218 2.508H70.038C69.998 2.508 69.978 2.484 69.978 2.436ZM69.978 5.928V3.012C69.978 2.964 69.998 2.94 70.038 2.94H70.212C70.256 2.94 70.278 2.964 70.278 3.012V5.928C70.278 5.976 70.258 6 70.218 6H70.038C69.998 6 69.978 5.976 69.978 5.928ZM71.4418 6.894H71.2678C71.2278 6.894 71.2078 6.872 71.2078 6.828V3.012C71.2078 2.964 71.2278 2.94 71.2678 2.94H71.4418C71.4858 2.94 71.5078 2.964 71.5078 3.012V3.252H71.5318C71.6438 3.044 71.8518 2.94 72.1558 2.94H72.5638C72.8198 2.94 73.0218 3.016 73.1698 3.168C73.3178 3.32 73.3918 3.528 73.3918 3.792V5.148C73.3918 5.412 73.3178 5.62 73.1698 5.772C73.0218 5.924 72.8198 6 72.5638 6H72.1558C71.8518 6 71.6438 5.896 71.5318 5.688H71.5078V6.828C71.5078 6.872 71.4858 6.894 71.4418 6.894ZM72.1258 5.73H72.5218C72.7058 5.73 72.8458 5.68 72.9418 5.58C73.0418 5.476 73.0918 5.328 73.0918 5.136V3.804C73.0918 3.612 73.0418 3.466 72.9418 3.366C72.8458 3.262 72.7058 3.21 72.5218 3.21H72.1258C71.9338 3.21 71.7818 3.262 71.6698 3.366C71.5618 3.466 71.5078 3.61 71.5078 3.798V5.142C71.5078 5.33 71.5618 5.476 71.6698 5.58C71.7818 5.68 71.9338 5.73 72.1258 5.73ZM75.4253 6H75.0293C74.7733 6 74.5713 5.924 74.4233 5.772C74.2753 5.62 74.2013 5.412 74.2013 5.148V3.012C74.2013 2.964 74.2213 2.94 74.2613 2.94H74.4353C74.4793 2.94 74.5013 2.964 74.5013 3.012V5.136C74.5013 5.324 74.5493 5.47 74.6453 5.574C74.7413 5.678 74.8813 5.73 75.0653 5.73H75.4553C75.6473 5.73 75.7973 5.68 75.9053 5.58C76.0173 5.476 76.0733 5.33 76.0733 5.142V3.012C76.0733 2.964 76.0953 2.94 76.1393 2.94H76.3133C76.3533 2.94 76.3733 2.964 76.3733 3.012V5.928C76.3733 5.976 76.3533 6 76.3133 6H76.1393C76.0953 6 76.0733 5.976 76.0733 5.928V5.688H76.0493C75.9453 5.896 75.7373 6 75.4253 6ZM77.5363 6H77.3623C77.3223 6 77.3023 5.976 77.3023 5.928V1.854C77.3023 1.806 77.3223 1.782 77.3623 1.782H77.5363C77.5803 1.782 77.6023 1.806 77.6023 1.854V5.928C77.6023 5.976 77.5803 6 77.5363 6ZM79.696 6H79.312C79.052 6 78.846 5.924 78.694 5.772C78.546 5.62 78.472 5.412 78.472 5.148V3.792C78.472 3.528 78.546 3.32 78.694 3.168C78.846 3.016 79.052 2.94 79.312 2.94H80.584C80.624 2.94 80.644 2.964 80.644 3.012V5.928C80.644 5.976 80.624 6 80.584 6H80.41C80.366 6 80.344 5.976 80.344 5.928V5.688H80.32C80.216 5.896 80.008 6 79.696 6ZM80.344 5.142V3.264C80.344 3.228 80.324 3.21 80.284 3.21H79.336C79.152 3.21 79.012 3.262 78.916 3.366C78.82 3.47 78.772 3.616 78.772 3.804V5.136C78.772 5.324 78.82 5.47 78.916 5.574C79.012 5.678 79.152 5.73 79.336 5.73H79.726C79.918 5.73 80.068 5.68 80.176 5.58C80.288 5.476 80.344 5.33 80.344 5.142ZM81.6758 3.21H81.3098C81.2658 3.21 81.2438 3.19 81.2438 3.15V3.006C81.2438 2.962 81.2658 2.94 81.3098 2.94H81.6758C81.7118 2.94 81.7298 2.922 81.7298 2.886V2.4C81.7298 2.352 81.7518 2.328 81.7958 2.328H81.9698C82.0138 2.328 82.0358 2.352 82.0358 2.4V2.886C82.0358 2.922 82.0538 2.94 82.0898 2.94H82.8038C82.8478 2.94 82.8698 2.962 82.8698 3.006V3.15C82.8698 3.19 82.8478 3.21 82.8038 3.21H82.0898C82.0538 3.21 82.0358 3.228 82.0358 3.264V5.154C82.0358 5.338 82.0878 5.48 82.1918 5.58C82.2958 5.68 82.4418 5.73 82.6298 5.73H82.8638C82.9078 5.73 82.9298 5.752 82.9298 5.796V5.934C82.9298 5.978 82.9078 6 82.8638 6H82.6058C82.3418 6 82.1298 5.926 81.9698 5.778C81.8098 5.63 81.7298 5.426 81.7298 5.166V3.264C81.7298 3.228 81.7118 3.21 81.6758 3.21ZM85.6578 6H84.4038C84.1438 6 83.9378 5.924 83.7858 5.772C83.6378 5.62 83.5638 5.412 83.5638 5.148V3.792C83.5638 3.528 83.6378 3.32 83.7858 3.168C83.9378 3.016 84.1438 2.94 84.4038 2.94H84.9198C85.1798 2.94 85.3858 3.016 85.5378 3.168C85.6898 3.32 85.7658 3.528 85.7658 3.792V4.554C85.7658 4.602 85.7418 4.626 85.6938 4.626H83.9178C83.8818 4.626 83.8638 4.644 83.8638 4.68V5.142C83.8638 5.33 83.9118 5.476 84.0078 5.58C84.1038 5.68 84.2438 5.73 84.4278 5.73H85.6578C85.7018 5.73 85.7238 5.752 85.7238 5.796V5.934C85.7238 5.978 85.7018 6 85.6578 6ZM83.9178 4.386H85.4118C85.4478 4.386 85.4658 4.368 85.4658 4.332V3.798C85.4658 3.61 85.4178 3.466 85.3218 3.366C85.2258 3.262 85.0858 3.21 84.9018 3.21H84.4278C84.2438 3.21 84.1038 3.262 84.0078 3.366C83.9118 3.466 83.8638 3.61 83.8638 3.798V4.332C83.8638 4.368 83.8818 4.386 83.9178 4.386ZM87.747 6H87.345C87.089 6 86.887 5.924 86.739 5.772C86.591 5.62 86.517 5.412 86.517 5.148V3.792C86.517 3.528 86.591 3.32 86.739 3.168C86.887 3.016 87.089 2.94 87.345 2.94H87.747C88.055 2.94 88.265 3.044 88.377 3.252H88.401V1.854C88.401 1.806 88.421 1.782 88.461 1.782H88.635C88.679 1.782 88.701 1.806 88.701 1.854V5.928C88.701 5.976 88.679 6 88.635 6H88.461C88.421 6 88.401 5.976 88.401 5.928V5.688H88.377C88.265 5.896 88.055 6 87.747 6ZM88.401 5.142V3.798C88.401 3.61 88.345 3.466 88.233 3.366C88.125 3.262 87.975 3.21 87.783 3.21H87.381C87.197 3.21 87.057 3.262 86.961 3.366C86.865 3.47 86.817 3.616 86.817 3.804V5.136C86.817 5.324 86.865 5.47 86.961 5.574C87.057 5.678 87.197 5.73 87.381 5.73H87.783C87.975 5.73 88.125 5.68 88.233 5.58C88.345 5.476 88.401 5.33 88.401 5.142ZM91.56 5.73H92.514C92.698 5.73 92.838 5.68 92.934 5.58C93.034 5.476 93.084 5.328 93.084 5.136V3.75C93.084 3.562 93.034 3.418 92.934 3.318C92.838 3.214 92.698 3.162 92.514 3.162H92.118C91.926 3.162 91.774 3.214 91.662 3.318C91.554 3.418 91.5 3.562 91.5 3.75V5.676C91.5 5.712 91.52 5.73 91.56 5.73ZM91.2 5.928V1.854C91.2 1.806 91.22 1.782 91.26 1.782H91.434C91.478 1.782 91.5 1.806 91.5 1.854V3.204H91.524C91.636 2.996 91.844 2.892 92.148 2.892H92.544C92.804 2.892 93.008 2.968 93.156 3.12C93.308 3.272 93.384 3.478 93.384 3.738V5.148C93.384 5.412 93.308 5.62 93.156 5.772C93.008 5.924 92.804 6 92.544 6H91.26C91.22 6 91.2 5.976 91.2 5.928ZM94.3674 6.912H94.1454C94.1014 6.912 94.0794 6.89 94.0794 6.846V6.702C94.0794 6.658 94.1014 6.636 94.1454 6.636H94.3074C94.4274 6.636 94.5294 6.618 94.6134 6.582C94.6974 6.55 94.7714 6.488 94.8354 6.396C94.8994 6.304 94.9414 6.232 94.9614 6.18C95.0174 6.056 95.0634 5.942 95.0994 5.838H94.9854C94.9414 5.838 94.9134 5.814 94.9014 5.766L93.9474 3.012C93.9314 2.964 93.9474 2.94 93.9954 2.94H94.1814C94.2214 2.94 94.2474 2.964 94.2594 3.012L95.1414 5.586H95.1654L96.0474 3.012C96.0594 2.964 96.0854 2.94 96.1254 2.94H96.3054C96.3534 2.94 96.3714 2.964 96.3594 3.012C95.6434 5.108 95.2694 6.192 95.2374 6.264C95.2094 6.336 95.1554 6.434 95.0754 6.558C94.9234 6.794 94.6874 6.912 94.3674 6.912ZM0.684 14.894H0.51C0.47 14.894 0.45 14.872 0.45 14.828V11.012C0.45 10.964 0.47 10.94 0.51 10.94H0.684C0.728 10.94 0.75 10.964 0.75 11.012V11.252H0.774C0.886 11.044 1.094 10.94 1.398 10.94H1.806C2.062 10.94 2.264 11.016 2.412 11.168C2.56 11.32 2.634 11.528 2.634 11.792V13.148C2.634 13.412 2.56 13.62 2.412 13.772C2.264 13.924 2.062 14 1.806 14H1.398C1.094 14 0.886 13.896 0.774 13.688H0.75V14.828C0.75 14.872 0.728 14.894 0.684 14.894ZM1.368 13.73H1.764C1.948 13.73 2.088 13.68 2.184 13.58C2.284 13.476 2.334 13.328 2.334 13.136V11.804C2.334 11.612 2.284 11.466 2.184 11.366C2.088 11.262 1.948 11.21 1.764 11.21H1.368C1.176 11.21 1.024 11.262 0.912 11.366C0.804 11.466 0.75 11.61 0.75 11.798V13.142C0.75 13.33 0.804 13.476 0.912 13.58C1.024 13.68 1.176 13.73 1.368 13.73ZM5.50744 14H4.25344C3.99344 14 3.78744 13.924 3.63544 13.772C3.48744 13.62 3.41344 13.412 3.41344 13.148V11.792C3.41344 11.528 3.48744 11.32 3.63544 11.168C3.78744 11.016 3.99344 10.94 4.25344 10.94H4.76944C5.02944 10.94 5.23544 11.016 5.38744 11.168C5.53944 11.32 5.61544 11.528 5.61544 11.792V12.554C5.61544 12.602 5.59144 12.626 5.54344 12.626H3.76744C3.73144 12.626 3.71344 12.644 3.71344 12.68V13.142C3.71344 13.33 3.76144 13.476 3.85744 13.58C3.95344 13.68 4.09344 13.73 4.27744 13.73H5.50744C5.55144 13.73 5.57344 13.752 5.57344 13.796V13.934C5.57344 13.978 5.55144 14 5.50744 14ZM3.76744 12.386H5.26144C5.29744 12.386 5.31544 12.368 5.31544 12.332V11.798C5.31544 11.61 5.26744 11.466 5.17144 11.366C5.07544 11.262 4.93544 11.21 4.75144 11.21H4.27744C4.09344 11.21 3.95344 11.262 3.85744 11.366C3.76144 11.466 3.71344 11.61 3.71344 11.798V12.332C3.71344 12.368 3.73144 12.386 3.76744 12.386ZM6.66056 14H6.48656C6.44656 14 6.42656 13.976 6.42656 13.928V11.012C6.42656 10.964 6.44656 10.94 6.48656 10.94H6.66056C6.70456 10.94 6.72656 10.964 6.72656 11.012V11.264H6.75056C6.79456 11.18 6.87256 11.106 6.98456 11.042C7.09656 10.974 7.23456 10.94 7.39856 10.94H7.63256C7.67656 10.94 7.69856 10.962 7.69856 11.006V11.15C7.69856 11.194 7.67656 11.214 7.63256 11.21H7.35056C7.15456 11.21 7.00056 11.27 6.88856 11.39C6.78056 11.51 6.72656 11.672 6.72656 11.876V13.928C6.72656 13.976 6.70456 14 6.66056 14ZM9.29742 14H8.25342C8.20942 14 8.18742 13.978 8.18742 13.934V13.796C8.18742 13.756 8.20942 13.736 8.25342 13.736H9.26742C9.62742 13.736 9.80742 13.596 9.80742 13.316V13.172C9.80742 12.912 9.69542 12.742 9.47142 12.662L8.72142 12.374C8.51742 12.294 8.37142 12.2 8.28342 12.092C8.19942 11.984 8.15742 11.834 8.15742 11.642C8.15742 11.174 8.41542 10.94 8.93142 10.94H9.90342C9.94742 10.94 9.96942 10.962 9.96942 11.006V11.144C9.96942 11.184 9.94742 11.204 9.90342 11.204H8.96142C8.79742 11.204 8.67342 11.24 8.58942 11.312C8.50942 11.384 8.46942 11.468 8.46942 11.564V11.702C8.46942 11.814 8.49942 11.902 8.55942 11.966C8.62342 12.03 8.71942 12.084 8.84742 12.128L9.59742 12.428C9.80542 12.496 9.94342 12.598 10.0114 12.734C10.0834 12.866 10.1194 13.052 10.1194 13.292C10.1194 13.532 10.0514 13.71 9.91542 13.826C9.78342 13.942 9.57742 14 9.29742 14ZM12.1874 14H11.6714C11.4114 14 11.2054 13.924 11.0534 13.772C10.9054 13.62 10.8314 13.412 10.8314 13.148V11.792C10.8314 11.528 10.9054 11.32 11.0534 11.168C11.2054 11.016 11.4114 10.94 11.6714 10.94H12.1874C12.4474 10.94 12.6534 11.016 12.8054 11.168C12.9574 11.32 13.0334 11.528 13.0334 11.792V13.148C13.0334 13.412 12.9574 13.62 12.8054 13.772C12.6534 13.924 12.4474 14 12.1874 14ZM11.6954 13.73H12.1634C12.3474 13.73 12.4874 13.68 12.5834 13.58C12.6834 13.476 12.7334 13.33 12.7334 13.142V11.798C12.7334 11.61 12.6834 11.466 12.5834 11.366C12.4874 11.262 12.3474 11.21 12.1634 11.21H11.6954C11.5114 11.21 11.3714 11.262 11.2754 11.366C11.1794 11.466 11.1314 11.61 11.1314 11.798V13.142C11.1314 13.33 11.1794 13.476 11.2754 13.58C11.3714 13.68 11.5114 13.73 11.6954 13.73ZM14.102 14H13.928C13.888 14 13.868 13.976 13.868 13.928V11.012C13.868 10.964 13.888 10.94 13.928 10.94H14.102C14.146 10.94 14.168 10.964 14.168 11.012V11.252H14.192C14.304 11.044 14.512 10.94 14.816 10.94H15.212C15.468 10.94 15.67 11.016 15.818 11.168C15.966 11.32 16.04 11.528 16.04 11.792V13.928C16.04 13.976 16.02 14 15.98 14H15.806C15.762 14 15.74 13.976 15.74 13.928V11.804C15.74 11.616 15.692 11.47 15.596 11.366C15.5 11.262 15.36 11.21 15.176 11.21H14.786C14.594 11.21 14.442 11.262 14.33 11.366C14.222 11.466 14.168 11.61 14.168 11.798V13.928C14.168 13.976 14.146 14 14.102 14ZM17.143 14H16.969C16.929 14 16.909 13.976 16.909 13.928V11.012C16.909 10.964 16.929 10.94 16.969 10.94H17.143C17.187 10.94 17.209 10.964 17.209 11.012V11.252H17.233C17.345 11.044 17.553 10.94 17.857 10.94H18.253C18.509 10.94 18.711 11.016 18.859 11.168C19.007 11.32 19.081 11.528 19.081 11.792V13.928C19.081 13.976 19.061 14 19.021 14H18.847C18.803 14 18.781 13.976 18.781 13.928V11.804C18.781 11.616 18.733 11.47 18.637 11.366C18.541 11.262 18.401 11.21 18.217 11.21H17.827C17.635 11.21 17.483 11.262 17.371 11.366C17.263 11.466 17.209 11.61 17.209 11.798V13.928C17.209 13.976 17.187 14 17.143 14ZM21.984 14H20.73C20.47 14 20.264 13.924 20.112 13.772C19.964 13.62 19.89 13.412 19.89 13.148V11.792C19.89 11.528 19.964 11.32 20.112 11.168C20.264 11.016 20.47 10.94 20.73 10.94H21.246C21.506 10.94 21.712 11.016 21.864 11.168C22.016 11.32 22.092 11.528 22.092 11.792V12.554C22.092 12.602 22.068 12.626 22.02 12.626H20.244C20.208 12.626 20.19 12.644 20.19 12.68V13.142C20.19 13.33 20.238 13.476 20.334 13.58C20.43 13.68 20.57 13.73 20.754 13.73H21.984C22.028 13.73 22.05 13.752 22.05 13.796V13.934C22.05 13.978 22.028 14 21.984 14ZM20.244 12.386H21.738C21.774 12.386 21.792 12.368 21.792 12.332V11.798C21.792 11.61 21.744 11.466 21.648 11.366C21.552 11.262 21.412 11.21 21.228 11.21H20.754C20.57 11.21 20.43 11.262 20.334 11.366C20.238 11.466 20.19 11.61 20.19 11.798V12.332C20.19 12.368 20.208 12.386 20.244 12.386ZM23.1671 14H22.9931C22.9531 14 22.9331 13.976 22.9331 13.928V9.854C22.9331 9.806 22.9531 9.782 22.9931 9.782H23.1671C23.2111 9.782 23.2331 9.806 23.2331 9.854V13.928C23.2331 13.976 23.2111 14 23.1671 14ZM26.5965 14H26.3565C26.3165 14 26.2905 13.976 26.2785 13.928L25.4385 11.012C25.4265 10.964 25.4425 10.94 25.4865 10.94H25.6785C25.7225 10.94 25.7485 10.964 25.7565 11.012L26.4645 13.622H26.4945L27.1905 11.012C27.1985 10.964 27.2265 10.94 27.2745 10.94H27.4485C27.4965 10.94 27.5245 10.964 27.5325 11.012L28.2165 13.622H28.2465L28.9605 11.012C28.9725 10.964 28.9985 10.94 29.0385 10.94H29.2305C29.2785 10.94 29.2945 10.964 29.2785 11.012L28.4445 13.928C28.4325 13.976 28.4045 14 28.3605 14H28.1205C28.0765 14 28.0485 13.976 28.0365 13.928L27.3705 11.396H27.3405L26.6805 13.928C26.6685 13.976 26.6405 14 26.5965 14ZM29.8882 10.436V9.86C29.8882 9.816 29.9082 9.794 29.9482 9.794H30.1282C30.1682 9.794 30.1882 9.816 30.1882 9.86V10.436C30.1882 10.484 30.1682 10.508 30.1282 10.508H29.9482C29.9082 10.508 29.8882 10.484 29.8882 10.436ZM29.8882 13.928V11.012C29.8882 10.964 29.9082 10.94 29.9482 10.94H30.1222C30.1662 10.94 30.1882 10.964 30.1882 11.012V13.928C30.1882 13.976 30.1682 14 30.1282 14H29.9482C29.9082 14 29.8882 13.976 29.8882 13.928ZM31.25 11.21H30.884C30.84 11.21 30.818 11.19 30.818 11.15V11.006C30.818 10.962 30.84 10.94 30.884 10.94H31.25C31.286 10.94 31.304 10.922 31.304 10.886V10.4C31.304 10.352 31.326 10.328 31.37 10.328H31.544C31.588 10.328 31.61 10.352 31.61 10.4V10.886C31.61 10.922 31.628 10.94 31.664 10.94H32.378C32.422 10.94 32.444 10.962 32.444 11.006V11.15C32.444 11.19 32.422 11.21 32.378 11.21H31.664C31.628 11.21 31.61 11.228 31.61 11.264V13.154C31.61 13.338 31.662 13.48 31.766 13.58C31.87 13.68 32.016 13.73 32.204 13.73H32.438C32.482 13.73 32.504 13.752 32.504 13.796V13.934C32.504 13.978 32.482 14 32.438 14H32.18C31.916 14 31.704 13.926 31.544 13.778C31.384 13.63 31.304 13.426 31.304 13.166V11.264C31.304 11.228 31.286 11.21 31.25 11.21ZM33.432 14H33.258C33.218 14 33.198 13.976 33.198 13.928V9.854C33.198 9.806 33.218 9.782 33.258 9.782H33.432C33.476 9.782 33.498 9.806 33.498 9.854V11.252H33.522C33.634 11.044 33.842 10.94 34.146 10.94H34.542C34.798 10.94 35 11.016 35.148 11.168C35.296 11.32 35.37 11.528 35.37 11.792V13.928C35.37 13.976 35.35 14 35.31 14H35.136C35.092 14 35.07 13.976 35.07 13.928V11.804C35.07 11.616 35.022 11.47 34.926 11.366C34.83 11.262 34.69 11.21 34.506 11.21H34.116C33.924 11.21 33.772 11.262 33.66 11.366C33.552 11.466 33.498 11.61 33.498 11.798V13.928C33.498 13.976 33.476 14 33.432 14ZM38.7027 13.73H39.3867C39.5707 13.73 39.7107 13.68 39.8067 13.58C39.9067 13.476 39.9567 13.328 39.9567 13.136V11.006C39.9567 10.814 39.9067 10.668 39.8067 10.568C39.7107 10.464 39.5707 10.412 39.3867 10.412H38.7027C38.5187 10.412 38.3787 10.464 38.2827 10.568C38.1867 10.672 38.1387 10.818 38.1387 11.006V13.136C38.1387 13.324 38.1867 13.47 38.2827 13.574C38.3787 13.678 38.5187 13.73 38.7027 13.73ZM39.4167 14H38.6787C38.4187 14 38.2127 13.924 38.0607 13.772C37.9127 13.62 37.8387 13.412 37.8387 13.148V10.994C37.8387 10.73 37.9127 10.522 38.0607 10.37C38.2127 10.218 38.4187 10.142 38.6787 10.142H39.4167C39.6767 10.142 39.8807 10.218 40.0287 10.37C40.1807 10.522 40.2567 10.73 40.2567 10.994V13.148C40.2567 13.412 40.1807 13.62 40.0287 13.772C39.8807 13.924 39.6767 14 39.4167 14ZM41.3891 14H41.2151C41.1751 14 41.1551 13.976 41.1551 13.928V11.012C41.1551 10.964 41.1751 10.94 41.2151 10.94H41.3891C41.4331 10.94 41.4551 10.964 41.4551 11.012V11.252H41.4791C41.5951 11.044 41.8071 10.94 42.1151 10.94H42.3611C42.7131 10.94 42.9571 11.08 43.0931 11.36C43.1531 11.22 43.2551 11.116 43.3991 11.048C43.5431 10.976 43.6911 10.94 43.8431 10.94H44.0651C44.3251 10.94 44.5291 11.016 44.6771 11.168C44.8251 11.32 44.8991 11.528 44.8991 11.792V13.928C44.8991 13.976 44.8771 14 44.8331 14H44.6591C44.6151 14 44.5931 13.976 44.5931 13.928V11.804C44.5931 11.612 44.5451 11.466 44.4491 11.366C44.3531 11.262 44.2131 11.21 44.0291 11.21H43.8071C43.6151 11.21 43.4631 11.266 43.3511 11.378C43.2391 11.486 43.1831 11.634 43.1831 11.822V13.928C43.1831 13.976 43.1611 14 43.1171 14H42.9431C42.8991 14 42.8771 13.976 42.8771 13.928V11.804C42.8771 11.612 42.8291 11.466 42.7331 11.366C42.6371 11.262 42.4971 11.21 42.3131 11.21H42.0731C41.8811 11.21 41.7291 11.262 41.6171 11.366C41.5091 11.466 41.4551 11.61 41.4551 11.798V13.928C41.4551 13.976 41.4331 14 41.3891 14ZM47.8004 14H46.5464C46.2864 14 46.0804 13.924 45.9284 13.772C45.7804 13.62 45.7064 13.412 45.7064 13.148V11.792C45.7064 11.528 45.7804 11.32 45.9284 11.168C46.0804 11.016 46.2864 10.94 46.5464 10.94H47.0624C47.3224 10.94 47.5284 11.016 47.6804 11.168C47.8324 11.32 47.9084 11.528 47.9084 11.792V12.554C47.9084 12.602 47.8844 12.626 47.8364 12.626H46.0604C46.0244 12.626 46.0064 12.644 46.0064 12.68V13.142C46.0064 13.33 46.0544 13.476 46.1504 13.58C46.2464 13.68 46.3864 13.73 46.5704 13.73H47.8004C47.8444 13.73 47.8664 13.752 47.8664 13.796V13.934C47.8664 13.978 47.8444 14 47.8004 14ZM46.0604 12.386H47.5544C47.5904 12.386 47.6084 12.368 47.6084 12.332V11.798C47.6084 11.61 47.5604 11.466 47.4644 11.366C47.3684 11.262 47.2284 11.21 47.0444 11.21H46.5704C46.3864 11.21 46.2464 11.262 46.1504 11.366C46.0544 11.466 46.0064 11.61 46.0064 11.798V12.332C46.0064 12.368 46.0244 12.386 46.0604 12.386ZM49.9075 13.826H49.5175C49.2615 13.826 49.0575 13.75 48.9055 13.598C48.7575 13.446 48.6835 13.24 48.6835 12.98V11.792C48.6835 11.528 48.7575 11.32 48.9055 11.168C49.0575 11.016 49.2635 10.94 49.5235 10.94H50.7955C50.8395 10.94 50.8615 10.964 50.8615 11.012V13.988C50.8615 14.252 50.7855 14.46 50.6335 14.612C50.4815 14.764 50.2755 14.84 50.0155 14.84H48.9235C48.8795 14.84 48.8575 14.818 48.8575 14.774V14.63C48.8575 14.59 48.8795 14.57 48.9235 14.57H49.9915C50.1755 14.57 50.3155 14.518 50.4115 14.414C50.5075 14.314 50.5555 14.168 50.5555 13.976V13.514H50.5315C50.4315 13.722 50.2235 13.826 49.9075 13.826ZM50.5555 12.968V11.264C50.5555 11.228 50.5375 11.21 50.5015 11.21H49.5535C49.3695 11.21 49.2275 11.262 49.1275 11.366C49.0315 11.466 48.9835 11.612 48.9835 11.804V12.968C48.9835 13.156 49.0315 13.302 49.1275 13.406C49.2275 13.506 49.3695 13.556 49.5535 13.556H49.9375C50.1295 13.556 50.2795 13.506 50.3875 13.406C50.4995 13.302 50.5555 13.156 50.5555 12.968ZM52.9187 14H52.5347C52.2747 14 52.0687 13.924 51.9167 13.772C51.7687 13.62 51.6947 13.412 51.6947 13.148V11.792C51.6947 11.528 51.7687 11.32 51.9167 11.168C52.0687 11.016 52.2747 10.94 52.5347 10.94H53.8067C53.8467 10.94 53.8667 10.964 53.8667 11.012V13.928C53.8667 13.976 53.8467 14 53.8067 14H53.6327C53.5887 14 53.5667 13.976 53.5667 13.928V13.688H53.5427C53.4387 13.896 53.2307 14 52.9187 14ZM53.5667 13.142V11.264C53.5667 11.228 53.5467 11.21 53.5067 11.21H52.5587C52.3747 11.21 52.2347 11.262 52.1387 11.366C52.0427 11.47 51.9947 11.616 51.9947 11.804V13.136C51.9947 13.324 52.0427 13.47 52.1387 13.574C52.2347 13.678 52.3747 13.73 52.5587 13.73H52.9487C53.1407 13.73 53.2907 13.68 53.3987 13.58C53.5107 13.476 53.5667 13.33 53.5667 13.142ZM56.63 14H56.456C56.416 14 56.396 13.976 56.396 13.928V9.854C56.396 9.806 56.416 9.782 56.456 9.782H56.63C56.674 9.782 56.696 9.806 56.696 9.854V13.928C56.696 13.976 56.674 14 56.63 14ZM59.6598 14H58.4058C58.1458 14 57.9398 13.924 57.7878 13.772C57.6398 13.62 57.5658 13.412 57.5658 13.148V11.792C57.5658 11.528 57.6398 11.32 57.7878 11.168C57.9398 11.016 58.1458 10.94 58.4058 10.94H58.9218C59.1818 10.94 59.3878 11.016 59.5398 11.168C59.6918 11.32 59.7678 11.528 59.7678 11.792V12.554C59.7678 12.602 59.7438 12.626 59.6958 12.626H57.9198C57.8838 12.626 57.8658 12.644 57.8658 12.68V13.142C57.8658 13.33 57.9138 13.476 58.0098 13.58C58.1058 13.68 58.2458 13.73 58.4298 13.73H59.6598C59.7038 13.73 59.7258 13.752 59.7258 13.796V13.934C59.7258 13.978 59.7038 14 59.6598 14ZM57.9198 12.386H59.4138C59.4498 12.386 59.4678 12.368 59.4678 12.332V11.798C59.4678 11.61 59.4198 11.466 59.3238 11.366C59.2278 11.262 59.0878 11.21 58.9038 11.21H58.4298C58.2458 11.21 58.1058 11.262 58.0098 11.366C57.9138 11.466 57.8658 11.61 57.8658 11.798V12.332C57.8658 12.368 57.8838 12.386 57.9198 12.386ZM60.2969 10.94H60.4829C60.5229 10.94 60.5489 10.964 60.5609 11.012L61.3649 13.664H61.3889L62.1869 11.012C62.2029 10.964 62.2289 10.94 62.2649 10.94H62.4569C62.5009 10.94 62.5149 10.964 62.4989 11.012L61.5929 13.928C61.5809 13.976 61.5529 14 61.5089 14H61.2449C61.2009 14 61.1709 13.976 61.1549 13.928L60.2489 11.012C60.2369 10.964 60.2529 10.94 60.2969 10.94ZM65.109 14H63.855C63.595 14 63.389 13.924 63.237 13.772C63.089 13.62 63.015 13.412 63.015 13.148V11.792C63.015 11.528 63.089 11.32 63.237 11.168C63.389 11.016 63.595 10.94 63.855 10.94H64.371C64.631 10.94 64.837 11.016 64.989 11.168C65.141 11.32 65.217 11.528 65.217 11.792V12.554C65.217 12.602 65.193 12.626 65.145 12.626H63.369C63.333 12.626 63.315 12.644 63.315 12.68V13.142C63.315 13.33 63.363 13.476 63.459 13.58C63.555 13.68 63.695 13.73 63.879 13.73H65.109C65.153 13.73 65.175 13.752 65.175 13.796V13.934C65.175 13.978 65.153 14 65.109 14ZM63.369 12.386H64.863C64.899 12.386 64.917 12.368 64.917 12.332V11.798C64.917 11.61 64.869 11.466 64.773 11.366C64.677 11.262 64.537 11.21 64.353 11.21H63.879C63.695 11.21 63.555 11.262 63.459 11.366C63.363 11.466 63.315 11.61 63.315 11.798V12.332C63.315 12.368 63.333 12.386 63.369 12.386ZM66.2921 14H66.1181C66.0781 14 66.0581 13.976 66.0581 13.928V9.854C66.0581 9.806 66.0781 9.782 66.1181 9.782H66.2921C66.3361 9.782 66.3581 9.806 66.3581 9.854V13.928C66.3581 13.976 66.3361 14 66.2921 14ZM70.0515 14H69.6675C69.4075 14 69.2015 13.924 69.0495 13.772C68.9015 13.62 68.8275 13.412 68.8275 13.148V11.792C68.8275 11.528 68.9015 11.32 69.0495 11.168C69.2015 11.016 69.4075 10.94 69.6675 10.94H70.9395C70.9795 10.94 70.9995 10.964 70.9995 11.012V13.928C70.9995 13.976 70.9795 14 70.9395 14H70.7655C70.7215 14 70.6995 13.976 70.6995 13.928V13.688H70.6755C70.5715 13.896 70.3635 14 70.0515 14ZM70.6995 13.142V11.264C70.6995 11.228 70.6795 11.21 70.6395 11.21H69.6915C69.5075 11.21 69.3675 11.262 69.2715 11.366C69.1755 11.47 69.1275 11.616 69.1275 11.804V13.136C69.1275 13.324 69.1755 13.47 69.2715 13.574C69.3675 13.678 69.5075 13.73 69.6915 13.73H70.0815C70.2735 13.73 70.4235 13.68 70.5315 13.58C70.6435 13.476 70.6995 13.33 70.6995 13.142ZM73.0932 14H72.6972C72.4412 14 72.2392 13.924 72.0912 13.772C71.9432 13.62 71.8692 13.412 71.8692 13.148V11.012C71.8692 10.964 71.8892 10.94 71.9292 10.94H72.1032C72.1472 10.94 72.1692 10.964 72.1692 11.012V13.136C72.1692 13.324 72.2172 13.47 72.3132 13.574C72.4092 13.678 72.5492 13.73 72.7332 13.73H73.1232C73.3152 13.73 73.4652 13.68 73.5732 13.58C73.6852 13.476 73.7412 13.33 73.7412 13.142V11.012C73.7412 10.964 73.7632 10.94 73.8072 10.94H73.9812C74.0212 10.94 74.0412 10.964 74.0412 11.012V13.928C74.0412 13.976 74.0212 14 73.9812 14H73.8072C73.7632 14 73.7412 13.976 73.7412 13.928V13.688H73.7172C73.6132 13.896 73.4052 14 73.0932 14ZM75.0722 11.21H74.7062C74.6622 11.21 74.6402 11.19 74.6402 11.15V11.006C74.6402 10.962 74.6622 10.94 74.7062 10.94H75.0722C75.1082 10.94 75.1262 10.922 75.1262 10.886V10.4C75.1262 10.352 75.1482 10.328 75.1922 10.328H75.3662C75.4102 10.328 75.4322 10.352 75.4322 10.4V10.886C75.4322 10.922 75.4502 10.94 75.4862 10.94H76.2002C76.2442 10.94 76.2662 10.962 76.2662 11.006V11.15C76.2662 11.19 76.2442 11.21 76.2002 11.21H75.4862C75.4502 11.21 75.4322 11.228 75.4322 11.264V13.154C75.4322 13.338 75.4842 13.48 75.5882 13.58C75.6922 13.68 75.8382 13.73 76.0262 13.73H76.2602C76.3042 13.73 76.3262 13.752 76.3262 13.796V13.934C76.3262 13.978 76.3042 14 76.2602 14H76.0022C75.7382 14 75.5262 13.926 75.3662 13.778C75.2062 13.63 75.1262 13.426 75.1262 13.166V11.264C75.1262 11.228 75.1082 11.21 75.0722 11.21ZM77.2543 14H77.0803C77.0403 14 77.0203 13.976 77.0203 13.928V9.854C77.0203 9.806 77.0403 9.782 77.0803 9.782H77.2543C77.2983 9.782 77.3203 9.806 77.3203 9.854V11.252H77.3443C77.4563 11.044 77.6643 10.94 77.9683 10.94H78.3643C78.6203 10.94 78.8223 11.016 78.9703 11.168C79.1183 11.32 79.1923 11.528 79.1923 11.792V13.928C79.1923 13.976 79.1723 14 79.1323 14H78.9583C78.9143 14 78.8923 13.976 78.8923 13.928V11.804C78.8923 11.616 78.8443 11.47 78.7483 11.366C78.6523 11.262 78.5123 11.21 78.3283 11.21H77.9383C77.7463 11.21 77.5943 11.262 77.4823 11.366C77.3743 11.466 77.3203 11.61 77.3203 11.798V13.928C77.3203 13.976 77.2983 14 77.2543 14ZM81.3573 14H80.8413C80.5813 14 80.3753 13.924 80.2233 13.772C80.0753 13.62 80.0013 13.412 80.0013 13.148V11.792C80.0013 11.528 80.0753 11.32 80.2233 11.168C80.3753 11.016 80.5813 10.94 80.8413 10.94H81.3573C81.6173 10.94 81.8233 11.016 81.9753 11.168C82.1273 11.32 82.2033 11.528 82.2033 11.792V13.148C82.2033 13.412 82.1273 13.62 81.9753 13.772C81.8233 13.924 81.6173 14 81.3573 14ZM80.8653 13.73H81.3333C81.5173 13.73 81.6573 13.68 81.7533 13.58C81.8533 13.476 81.9033 13.33 81.9033 13.142V11.798C81.9033 11.61 81.8533 11.466 81.7533 11.366C81.6573 11.262 81.5173 11.21 81.3333 11.21H80.8653C80.6813 11.21 80.5413 11.262 80.4453 11.366C80.3493 11.466 80.3013 11.61 80.3013 11.798V13.142C80.3013 13.33 80.3493 13.476 80.4453 13.58C80.5413 13.68 80.6813 13.73 80.8653 13.73ZM83.2719 14H83.0979C83.0579 14 83.0379 13.976 83.0379 13.928V11.012C83.0379 10.964 83.0579 10.94 83.0979 10.94H83.2719C83.3159 10.94 83.3379 10.964 83.3379 11.012V11.264H83.3619C83.4059 11.18 83.4839 11.106 83.5959 11.042C83.7079 10.974 83.8459 10.94 84.0099 10.94H84.2439C84.2879 10.94 84.3099 10.962 84.3099 11.006V11.15C84.3099 11.194 84.2879 11.214 84.2439 11.21H83.9619C83.7659 11.21 83.6119 11.27 83.4999 11.39C83.3919 11.51 83.3379 11.672 83.3379 11.876V13.928C83.3379 13.976 83.3159 14 83.2719 14ZM84.9488 10.436V9.86C84.9488 9.816 84.9688 9.794 85.0088 9.794H85.1888C85.2288 9.794 85.2488 9.816 85.2488 9.86V10.436C85.2488 10.484 85.2288 10.508 85.1888 10.508H85.0088C84.9688 10.508 84.9488 10.484 84.9488 10.436ZM84.9488 13.928V11.012C84.9488 10.964 84.9688 10.94 85.0088 10.94H85.1828C85.2268 10.94 85.2488 10.964 85.2488 11.012V13.928C85.2488 13.976 85.2288 14 85.1888 14H85.0088C84.9688 14 84.9488 13.976 84.9488 13.928ZM85.9325 13.934V13.85C85.9325 13.806 85.9445 13.768 85.9685 13.736L87.5405 11.234V11.21H86.0405C85.9965 11.21 85.9745 11.188 85.9745 11.144V11.006C85.9745 10.962 85.9965 10.94 86.0405 10.94H87.8405C87.8885 10.94 87.9125 10.962 87.9125 11.006V11.138C87.9125 11.174 87.9025 11.208 87.8825 11.24L86.3345 13.706V13.73H87.8825C87.9305 13.73 87.9545 13.752 87.9545 13.796V13.934C87.9545 13.978 87.9305 14 87.8825 14H86.0045C85.9565 14 85.9325 13.978 85.9325 13.934ZM89.7742 14H89.3902C89.1302 14 88.9242 13.924 88.7722 13.772C88.6242 13.62 88.5502 13.412 88.5502 13.148V11.792C88.5502 11.528 88.6242 11.32 88.7722 11.168C88.9242 11.016 89.1302 10.94 89.3902 10.94H90.6622C90.7022 10.94 90.7222 10.964 90.7222 11.012V13.928C90.7222 13.976 90.7022 14 90.6622 14H90.4882C90.4442 14 90.4222 13.976 90.4222 13.928V13.688H90.3982C90.2942 13.896 90.0862 14 89.7742 14ZM90.4222 13.142V11.264C90.4222 11.228 90.4022 11.21 90.3622 11.21H89.4142C89.2302 11.21 89.0902 11.262 88.9942 11.366C88.8982 11.47 88.8502 11.616 88.8502 11.804V13.136C88.8502 13.324 88.8982 13.47 88.9942 13.574C89.0902 13.678 89.2302 13.73 89.4142 13.73H89.8042C89.9962 13.73 90.1462 13.68 90.2542 13.58C90.3662 13.476 90.4222 13.33 90.4222 13.142ZM91.7539 11.21H91.3879C91.3439 11.21 91.3219 11.19 91.3219 11.15V11.006C91.3219 10.962 91.3439 10.94 91.3879 10.94H91.7539C91.7899 10.94 91.8079 10.922 91.8079 10.886V10.4C91.8079 10.352 91.8299 10.328 91.8739 10.328H92.0479C92.0919 10.328 92.1139 10.352 92.1139 10.4V10.886C92.1139 10.922 92.1319 10.94 92.1679 10.94H92.8819C92.9259 10.94 92.9479 10.962 92.9479 11.006V11.15C92.9479 11.19 92.9259 11.21 92.8819 11.21H92.1679C92.1319 11.21 92.1139 11.228 92.1139 11.264V13.154C92.1139 13.338 92.1659 13.48 92.2699 13.58C92.3739 13.68 92.5199 13.73 92.7079 13.73H92.9419C92.9859 13.73 93.0079 13.752 93.0079 13.796V13.934C93.0079 13.978 92.9859 14 92.9419 14H92.6839C92.4199 14 92.2079 13.926 92.0479 13.778C91.8879 13.63 91.8079 13.426 91.8079 13.166V11.264C91.8079 11.228 91.7899 11.21 91.7539 11.21ZM93.732 10.436V9.86C93.732 9.816 93.752 9.794 93.792 9.794H93.972C94.012 9.794 94.032 9.816 94.032 9.86V10.436C94.032 10.484 94.012 10.508 93.972 10.508H93.792C93.752 10.508 93.732 10.484 93.732 10.436ZM93.732 13.928V11.012C93.732 10.964 93.752 10.94 93.792 10.94H93.966C94.01 10.94 94.032 10.964 94.032 11.012V13.928C94.032 13.976 94.012 14 93.972 14H93.792C93.752 14 93.732 13.976 93.732 13.928ZM96.2577 14H95.7417C95.4817 14 95.2757 13.924 95.1237 13.772C94.9757 13.62 94.9017 13.412 94.9017 13.148V11.792C94.9017 11.528 94.9757 11.32 95.1237 11.168C95.2757 11.016 95.4817 10.94 95.7417 10.94H96.2577C96.5177 10.94 96.7237 11.016 96.8757 11.168C97.0277 11.32 97.1037 11.528 97.1037 11.792V13.148C97.1037 13.412 97.0277 13.62 96.8757 13.772C96.7237 13.924 96.5177 14 96.2577 14ZM95.7657 13.73H96.2337C96.4177 13.73 96.5577 13.68 96.6537 13.58C96.7537 13.476 96.8037 13.33 96.8037 13.142V11.798C96.8037 11.61 96.7537 11.466 96.6537 11.366C96.5577 11.262 96.4177 11.21 96.2337 11.21H95.7657C95.5817 11.21 95.4417 11.262 95.3457 11.366C95.2497 11.466 95.2017 11.61 95.2017 11.798V13.142C95.2017 13.33 95.2497 13.476 95.3457 13.58C95.4417 13.68 95.5817 13.73 95.7657 13.73ZM98.1723 14H97.9983C97.9583 14 97.9383 13.976 97.9383 13.928V11.012C97.9383 10.964 97.9583 10.94 97.9983 10.94H98.1723C98.2163 10.94 98.2383 10.964 98.2383 11.012V11.252H98.2623C98.3743 11.044 98.5823 10.94 98.8863 10.94H99.2823C99.5383 10.94 99.7403 11.016 99.8883 11.168C100.036 11.32 100.11 11.528 100.11 11.792V13.928C100.11 13.976 100.09 14 100.05 14H99.8763C99.8323 14 99.8103 13.976 99.8103 13.928V11.804C99.8103 11.616 99.7623 11.47 99.6663 11.366C99.5703 11.262 99.4303 11.21 99.2463 11.21H98.8563C98.6643 11.21 98.5123 11.262 98.4003 11.366C98.2923 11.466 98.2383 11.61 98.2383 11.798V13.928C98.2383 13.976 98.2163 14 98.1723 14ZM101.267 13.214V13.928C101.267 13.976 101.247 14 101.207 14H100.997C100.953 14 100.931 13.976 100.931 13.928V13.214C100.931 13.17 100.953 13.148 100.997 13.148H101.207C101.247 13.148 101.267 13.17 101.267 13.214ZM1.35 22H1.176C1.132 22 1.11 21.976 1.11 21.928V18.466C1.11 18.43 1.09 18.412 1.05 18.412H0.18C0.132 18.412 0.108 18.39 0.108 18.346V18.208C0.108 18.164 0.132 18.142 0.18 18.142H2.34C2.388 18.142 2.412 18.164 2.412 18.208V18.346C2.412 18.39 2.388 18.412 2.34 18.412H1.47C1.43 18.412 1.41 18.43 1.41 18.466V21.928C1.41 21.976 1.39 22 1.35 22ZM3.20353 22H3.02953C2.98953 22 2.96953 21.976 2.96953 21.928V17.854C2.96953 17.806 2.98953 17.782 3.02953 17.782H3.20353C3.24753 17.782 3.26953 17.806 3.26953 17.854V19.252H3.29353C3.40553 19.044 3.61353 18.94 3.91753 18.94H4.31353C4.56953 18.94 4.77153 19.016 4.91953 19.168C5.06753 19.32 5.14153 19.528 5.14153 19.792V21.928C5.14153 21.976 5.12153 22 5.08153 22H4.90753C4.86353 22 4.84153 21.976 4.84153 21.928V19.804C4.84153 19.616 4.79353 19.47 4.69753 19.366C4.60153 19.262 4.46153 19.21 4.27753 19.21H3.88753C3.69553 19.21 3.54353 19.262 3.43153 19.366C3.32353 19.466 3.26953 19.61 3.26953 19.798V21.928C3.26953 21.976 3.24753 22 3.20353 22ZM8.04455 22H6.79055C6.53055 22 6.32455 21.924 6.17255 21.772C6.02455 21.62 5.95055 21.412 5.95055 21.148V19.792C5.95055 19.528 6.02455 19.32 6.17255 19.168C6.32455 19.016 6.53055 18.94 6.79055 18.94H7.30655C7.56655 18.94 7.77255 19.016 7.92455 19.168C8.07655 19.32 8.15255 19.528 8.15255 19.792V20.554C8.15255 20.602 8.12855 20.626 8.08055 20.626H6.30455C6.26855 20.626 6.25055 20.644 6.25055 20.68V21.142C6.25055 21.33 6.29855 21.476 6.39455 21.58C6.49055 21.68 6.63055 21.73 6.81455 21.73H8.04455C8.08855 21.73 8.11055 21.752 8.11055 21.796V21.934C8.11055 21.978 8.08855 22 8.04455 22ZM6.30455 20.386H7.79855C7.83455 20.386 7.85255 20.368 7.85255 20.332V19.798C7.85255 19.61 7.80455 19.466 7.70855 19.366C7.61255 19.262 7.47255 19.21 7.28855 19.21H6.81455C6.63055 19.21 6.49055 19.262 6.39455 19.366C6.29855 19.466 6.25055 19.61 6.25055 19.798V20.332C6.25055 20.368 6.26855 20.386 6.30455 20.386ZM12.2733 21.796V21.934C12.2733 21.978 12.2513 22 12.2073 22H11.3433C11.0833 22 10.8773 21.924 10.7253 21.772C10.5773 21.62 10.5033 21.412 10.5033 21.148V19.792C10.5033 19.528 10.5773 19.32 10.7253 19.168C10.8773 19.016 11.0833 18.94 11.3433 18.94H12.2073C12.2513 18.94 12.2733 18.962 12.2733 19.006V19.15C12.2733 19.19 12.2513 19.21 12.2073 19.21H11.3673C11.1833 19.21 11.0433 19.262 10.9473 19.366C10.8513 19.47 10.8033 19.616 10.8033 19.804V21.136C10.8033 21.324 10.8513 21.47 10.9473 21.574C11.0433 21.678 11.1833 21.73 11.3673 21.73H12.2073C12.2513 21.73 12.2733 21.752 12.2733 21.796ZM14.2206 22H13.7046C13.4446 22 13.2386 21.924 13.0866 21.772C12.9386 21.62 12.8646 21.412 12.8646 21.148V19.792C12.8646 19.528 12.9386 19.32 13.0866 19.168C13.2386 19.016 13.4446 18.94 13.7046 18.94H14.2206C14.4806 18.94 14.6866 19.016 14.8386 19.168C14.9906 19.32 15.0666 19.528 15.0666 19.792V21.148C15.0666 21.412 14.9906 21.62 14.8386 21.772C14.6866 21.924 14.4806 22 14.2206 22ZM13.7286 21.73H14.1966C14.3806 21.73 14.5206 21.68 14.6166 21.58C14.7166 21.476 14.7666 21.33 14.7666 21.142V19.798C14.7666 19.61 14.7166 19.466 14.6166 19.366C14.5206 19.262 14.3806 19.21 14.1966 19.21H13.7286C13.5446 19.21 13.4046 19.262 13.3086 19.366C13.2126 19.466 13.1646 19.61 13.1646 19.798V21.142C13.1646 21.33 13.2126 21.476 13.3086 21.58C13.4046 21.68 13.5446 21.73 13.7286 21.73ZM16.1352 22H15.9612C15.9212 22 15.9012 21.976 15.9012 21.928V19.012C15.9012 18.964 15.9212 18.94 15.9612 18.94H16.1352C16.1792 18.94 16.2012 18.964 16.2012 19.012V19.264H16.2252C16.2692 19.18 16.3472 19.106 16.4592 19.042C16.5712 18.974 16.7092 18.94 16.8732 18.94H17.1072C17.1512 18.94 17.1732 18.962 17.1732 19.006V19.15C17.1732 19.194 17.1512 19.214 17.1072 19.21H16.8252C16.6292 19.21 16.4752 19.27 16.3632 19.39C16.2552 19.51 16.2012 19.672 16.2012 19.876V21.928C16.2012 21.976 16.1792 22 16.1352 22ZM18.016 22.894H17.842C17.802 22.894 17.782 22.872 17.782 22.828V19.012C17.782 18.964 17.802 18.94 17.842 18.94H18.016C18.06 18.94 18.082 18.964 18.082 19.012V19.252H18.106C18.218 19.044 18.426 18.94 18.73 18.94H19.138C19.394 18.94 19.596 19.016 19.744 19.168C19.892 19.32 19.966 19.528 19.966 19.792V21.148C19.966 21.412 19.892 21.62 19.744 21.772C19.596 21.924 19.394 22 19.138 22H18.73C18.426 22 18.218 21.896 18.106 21.688H18.082V22.828C18.082 22.872 18.06 22.894 18.016 22.894ZM18.7 21.73H19.096C19.28 21.73 19.42 21.68 19.516 21.58C19.616 21.476 19.666 21.328 19.666 21.136V19.804C19.666 19.612 19.616 19.466 19.516 19.366C19.42 19.262 19.28 19.21 19.096 19.21H18.7C18.508 19.21 18.356 19.262 18.244 19.366C18.136 19.466 18.082 19.61 18.082 19.798V21.142C18.082 21.33 18.136 21.476 18.244 21.58C18.356 21.68 18.508 21.73 18.7 21.73ZM22.1015 22H21.5855C21.3255 22 21.1195 21.924 20.9675 21.772C20.8195 21.62 20.7455 21.412 20.7455 21.148V19.792C20.7455 19.528 20.8195 19.32 20.9675 19.168C21.1195 19.016 21.3255 18.94 21.5855 18.94H22.1015C22.3615 18.94 22.5675 19.016 22.7195 19.168C22.8715 19.32 22.9475 19.528 22.9475 19.792V21.148C22.9475 21.412 22.8715 21.62 22.7195 21.772C22.5675 21.924 22.3615 22 22.1015 22ZM21.6095 21.73H22.0775C22.2615 21.73 22.4015 21.68 22.4975 21.58C22.5975 21.476 22.6475 21.33 22.6475 21.142V19.798C22.6475 19.61 22.5975 19.466 22.4975 19.366C22.4015 19.262 22.2615 19.21 22.0775 19.21H21.6095C21.4255 19.21 21.2855 19.262 21.1895 19.366C21.0935 19.466 21.0455 19.61 21.0455 19.798V21.142C21.0455 21.33 21.0935 21.476 21.1895 21.58C21.2855 21.68 21.4255 21.73 21.6095 21.73ZM24.016 22H23.842C23.802 22 23.782 21.976 23.782 21.928V19.012C23.782 18.964 23.802 18.94 23.842 18.94H24.016C24.06 18.94 24.082 18.964 24.082 19.012V19.264H24.106C24.15 19.18 24.228 19.106 24.34 19.042C24.452 18.974 24.59 18.94 24.754 18.94H24.988C25.032 18.94 25.054 18.962 25.054 19.006V19.15C25.054 19.194 25.032 19.214 24.988 19.21H24.706C24.51 19.21 24.356 19.27 24.244 19.39C24.136 19.51 24.082 19.672 24.082 19.876V21.928C24.082 21.976 24.06 22 24.016 22ZM26.8269 22H26.4429C26.1829 22 25.9769 21.924 25.8249 21.772C25.6769 21.62 25.6029 21.412 25.6029 21.148V19.792C25.6029 19.528 25.6769 19.32 25.8249 19.168C25.9769 19.016 26.1829 18.94 26.4429 18.94H27.7149C27.7549 18.94 27.7749 18.964 27.7749 19.012V21.928C27.7749 21.976 27.7549 22 27.7149 22H27.5409C27.4969 22 27.4749 21.976 27.4749 21.928V21.688H27.4509C27.3469 21.896 27.1389 22 26.8269 22ZM27.4749 21.142V19.264C27.4749 19.228 27.4549 19.21 27.4149 19.21H26.4669C26.2829 19.21 26.1429 19.262 26.0469 19.366C25.9509 19.47 25.9029 19.616 25.9029 19.804V21.136C25.9029 21.324 25.9509 21.47 26.0469 21.574C26.1429 21.678 26.2829 21.73 26.4669 21.73H26.8569C27.0489 21.73 27.1989 21.68 27.3069 21.58C27.4189 21.476 27.4749 21.33 27.4749 21.142ZM28.8066 19.21H28.4406C28.3966 19.21 28.3746 19.19 28.3746 19.15V19.006C28.3746 18.962 28.3966 18.94 28.4406 18.94H28.8066C28.8426 18.94 28.8606 18.922 28.8606 18.886V18.4C28.8606 18.352 28.8826 18.328 28.9266 18.328H29.1006C29.1446 18.328 29.1666 18.352 29.1666 18.4V18.886C29.1666 18.922 29.1846 18.94 29.2206 18.94H29.9346C29.9786 18.94 30.0006 18.962 30.0006 19.006V19.15C30.0006 19.19 29.9786 19.21 29.9346 19.21H29.2206C29.1846 19.21 29.1666 19.228 29.1666 19.264V21.154C29.1666 21.338 29.2186 21.48 29.3226 21.58C29.4266 21.68 29.5726 21.73 29.7606 21.73H29.9946C30.0386 21.73 30.0606 21.752 30.0606 21.796V21.934C30.0606 21.978 30.0386 22 29.9946 22H29.7366C29.4726 22 29.2606 21.926 29.1006 21.778C28.9406 21.63 28.8606 21.426 28.8606 21.166V19.264C28.8606 19.228 28.8426 19.21 28.8066 19.21ZM30.7847 18.436V17.86C30.7847 17.816 30.8047 17.794 30.8447 17.794H31.0247C31.0647 17.794 31.0847 17.816 31.0847 17.86V18.436C31.0847 18.484 31.0647 18.508 31.0247 18.508H30.8447C30.8047 18.508 30.7847 18.484 30.7847 18.436ZM30.7847 21.928V19.012C30.7847 18.964 30.8047 18.94 30.8447 18.94H31.0187C31.0627 18.94 31.0847 18.964 31.0847 19.012V21.928C31.0847 21.976 31.0647 22 31.0247 22H30.8447C30.8047 22 30.7847 21.976 30.7847 21.928ZM33.3105 22H32.7945C32.5345 22 32.3285 21.924 32.1765 21.772C32.0285 21.62 31.9545 21.412 31.9545 21.148V19.792C31.9545 19.528 32.0285 19.32 32.1765 19.168C32.3285 19.016 32.5345 18.94 32.7945 18.94H33.3105C33.5705 18.94 33.7765 19.016 33.9285 19.168C34.0805 19.32 34.1565 19.528 34.1565 19.792V21.148C34.1565 21.412 34.0805 21.62 33.9285 21.772C33.7765 21.924 33.5705 22 33.3105 22ZM32.8185 21.73H33.2865C33.4705 21.73 33.6105 21.68 33.7065 21.58C33.8065 21.476 33.8565 21.33 33.8565 21.142V19.798C33.8565 19.61 33.8065 19.466 33.7065 19.366C33.6105 19.262 33.4705 19.21 33.2865 19.21H32.8185C32.6345 19.21 32.4945 19.262 32.3985 19.366C32.3025 19.466 32.2545 19.61 32.2545 19.798V21.142C32.2545 21.33 32.3025 21.476 32.3985 21.58C32.4945 21.68 32.6345 21.73 32.8185 21.73ZM35.225 22H35.051C35.011 22 34.991 21.976 34.991 21.928V19.012C34.991 18.964 35.011 18.94 35.051 18.94H35.225C35.269 18.94 35.291 18.964 35.291 19.012V19.252H35.315C35.427 19.044 35.635 18.94 35.939 18.94H36.335C36.591 18.94 36.793 19.016 36.941 19.168C37.089 19.32 37.163 19.528 37.163 19.792V21.928C37.163 21.976 37.143 22 37.103 22H36.929C36.885 22 36.863 21.976 36.863 21.928V19.804C36.863 19.616 36.815 19.47 36.719 19.366C36.623 19.262 36.483 19.21 36.299 19.21H35.909C35.717 19.21 35.565 19.262 35.453 19.366C35.345 19.466 35.291 19.61 35.291 19.798V21.928C35.291 21.976 35.269 22 35.225 22ZM39.8656 22H39.6916C39.6516 22 39.6316 21.976 39.6316 21.928V19.012C39.6316 18.964 39.6516 18.94 39.6916 18.94H39.8656C39.9096 18.94 39.9316 18.964 39.9316 19.012V19.264H39.9556C39.9996 19.18 40.0776 19.106 40.1896 19.042C40.3016 18.974 40.4396 18.94 40.6036 18.94H40.8376C40.8816 18.94 40.9036 18.962 40.9036 19.006V19.15C40.9036 19.194 40.8816 19.214 40.8376 19.21H40.5556C40.3596 19.21 40.2056 19.27 40.0936 19.39C39.9856 19.51 39.9316 19.672 39.9316 19.876V21.928C39.9316 21.976 39.9096 22 39.8656 22ZM43.5465 22H42.2925C42.0325 22 41.8265 21.924 41.6745 21.772C41.5265 21.62 41.4525 21.412 41.4525 21.148V19.792C41.4525 19.528 41.5265 19.32 41.6745 19.168C41.8265 19.016 42.0325 18.94 42.2925 18.94H42.8085C43.0685 18.94 43.2745 19.016 43.4265 19.168C43.5785 19.32 43.6545 19.528 43.6545 19.792V20.554C43.6545 20.602 43.6305 20.626 43.5825 20.626H41.8065C41.7705 20.626 41.7525 20.644 41.7525 20.68V21.142C41.7525 21.33 41.8005 21.476 41.8965 21.58C41.9925 21.68 42.1325 21.73 42.3165 21.73H43.5465C43.5905 21.73 43.6125 21.752 43.6125 21.796V21.934C43.6125 21.978 43.5905 22 43.5465 22ZM41.8065 20.386H43.3005C43.3365 20.386 43.3545 20.368 43.3545 20.332V19.798C43.3545 19.61 43.3065 19.466 43.2105 19.366C43.1145 19.262 42.9745 19.21 42.7905 19.21H42.3165C42.1325 19.21 41.9925 19.262 41.8965 19.366C41.8005 19.466 41.7525 19.61 41.7525 19.798V20.332C41.7525 20.368 41.7705 20.386 41.8065 20.386ZM45.4556 22H44.4116C44.3676 22 44.3456 21.978 44.3456 21.934V21.796C44.3456 21.756 44.3676 21.736 44.4116 21.736H45.4256C45.7856 21.736 45.9656 21.596 45.9656 21.316V21.172C45.9656 20.912 45.8536 20.742 45.6296 20.662L44.8796 20.374C44.6756 20.294 44.5296 20.2 44.4416 20.092C44.3576 19.984 44.3156 19.834 44.3156 19.642C44.3156 19.174 44.5736 18.94 45.0896 18.94H46.0616C46.1056 18.94 46.1276 18.962 46.1276 19.006V19.144C46.1276 19.184 46.1056 19.204 46.0616 19.204H45.1196C44.9556 19.204 44.8316 19.24 44.7476 19.312C44.6676 19.384 44.6276 19.468 44.6276 19.564V19.702C44.6276 19.814 44.6576 19.902 44.7176 19.966C44.7816 20.03 44.8776 20.084 45.0056 20.128L45.7556 20.428C45.9636 20.496 46.1016 20.598 46.1696 20.734C46.2416 20.866 46.2776 21.052 46.2776 21.292C46.2776 21.532 46.2096 21.71 46.0736 21.826C45.9416 21.942 45.7356 22 45.4556 22ZM49.0836 22H47.8296C47.5696 22 47.3636 21.924 47.2116 21.772C47.0636 21.62 46.9896 21.412 46.9896 21.148V19.792C46.9896 19.528 47.0636 19.32 47.2116 19.168C47.3636 19.016 47.5696 18.94 47.8296 18.94H48.3456C48.6056 18.94 48.8116 19.016 48.9636 19.168C49.1156 19.32 49.1916 19.528 49.1916 19.792V20.554C49.1916 20.602 49.1676 20.626 49.1196 20.626H47.3436C47.3076 20.626 47.2896 20.644 47.2896 20.68V21.142C47.2896 21.33 47.3376 21.476 47.4336 21.58C47.5296 21.68 47.6696 21.73 47.8536 21.73H49.0836C49.1276 21.73 49.1496 21.752 49.1496 21.796V21.934C49.1496 21.978 49.1276 22 49.0836 22ZM47.3436 20.386H48.8376C48.8736 20.386 48.8916 20.368 48.8916 20.332V19.798C48.8916 19.61 48.8436 19.466 48.7476 19.366C48.6516 19.262 48.5116 19.21 48.3276 19.21H47.8536C47.6696 19.21 47.5296 19.262 47.4336 19.366C47.3376 19.466 47.2896 19.61 47.2896 19.798V20.332C47.2896 20.368 47.3076 20.386 47.3436 20.386ZM50.2367 22H50.0627C50.0227 22 50.0027 21.976 50.0027 21.928V19.012C50.0027 18.964 50.0227 18.94 50.0627 18.94H50.2367C50.2807 18.94 50.3027 18.964 50.3027 19.012V19.264H50.3267C50.3707 19.18 50.4487 19.106 50.5607 19.042C50.6727 18.974 50.8107 18.94 50.9747 18.94H51.2087C51.2527 18.94 51.2747 18.962 51.2747 19.006V19.15C51.2747 19.194 51.2527 19.214 51.2087 19.21H50.9267C50.7307 19.21 50.5767 19.27 50.4647 19.39C50.3567 19.51 50.3027 19.672 50.3027 19.876V21.928C50.3027 21.976 50.2807 22 50.2367 22ZM51.6016 18.94H51.7876C51.8276 18.94 51.8536 18.964 51.8656 19.012L52.6696 21.664H52.6936L53.4916 19.012C53.5076 18.964 53.5336 18.94 53.5696 18.94H53.7616C53.8056 18.94 53.8196 18.964 53.8036 19.012L52.8976 21.928C52.8856 21.976 52.8576 22 52.8136 22H52.5496C52.5056 22 52.4756 21.976 52.4596 21.928L51.5536 19.012C51.5416 18.964 51.5576 18.94 51.6016 18.94ZM56.4137 22H55.1597C54.8997 22 54.6937 21.924 54.5417 21.772C54.3937 21.62 54.3197 21.412 54.3197 21.148V19.792C54.3197 19.528 54.3937 19.32 54.5417 19.168C54.6937 19.016 54.8997 18.94 55.1597 18.94H55.6757C55.9357 18.94 56.1417 19.016 56.2937 19.168C56.4457 19.32 56.5217 19.528 56.5217 19.792V20.554C56.5217 20.602 56.4977 20.626 56.4497 20.626H54.6737C54.6377 20.626 54.6197 20.644 54.6197 20.68V21.142C54.6197 21.33 54.6677 21.476 54.7637 21.58C54.8597 21.68 54.9997 21.73 55.1837 21.73H56.4137C56.4577 21.73 56.4797 21.752 56.4797 21.796V21.934C56.4797 21.978 56.4577 22 56.4137 22ZM54.6737 20.386H56.1677C56.2037 20.386 56.2217 20.368 56.2217 20.332V19.798C56.2217 19.61 56.1737 19.466 56.0777 19.366C55.9817 19.262 55.8417 19.21 55.6577 19.21H55.1837C54.9997 19.21 54.8597 19.262 54.7637 19.366C54.6677 19.466 54.6197 19.61 54.6197 19.798V20.332C54.6197 20.368 54.6377 20.386 54.6737 20.386ZM58.3228 22H57.2788C57.2348 22 57.2128 21.978 57.2128 21.934V21.796C57.2128 21.756 57.2348 21.736 57.2788 21.736H58.2928C58.6528 21.736 58.8328 21.596 58.8328 21.316V21.172C58.8328 20.912 58.7208 20.742 58.4968 20.662L57.7468 20.374C57.5428 20.294 57.3968 20.2 57.3088 20.092C57.2248 19.984 57.1828 19.834 57.1828 19.642C57.1828 19.174 57.4408 18.94 57.9568 18.94H58.9288C58.9728 18.94 58.9948 18.962 58.9948 19.006V19.144C58.9948 19.184 58.9728 19.204 58.9288 19.204H57.9868C57.8228 19.204 57.6988 19.24 57.6148 19.312C57.5348 19.384 57.4948 19.468 57.4948 19.564V19.702C57.4948 19.814 57.5248 19.902 57.5848 19.966C57.6488 20.03 57.7448 20.084 57.8728 20.128L58.6228 20.428C58.8308 20.496 58.9688 20.598 59.0368 20.734C59.1088 20.866 59.1448 21.052 59.1448 21.292C59.1448 21.532 59.0768 21.71 58.9408 21.826C58.8088 21.942 58.6028 22 58.3228 22ZM62.6804 22H62.2964C62.0364 22 61.8304 21.924 61.6784 21.772C61.5304 21.62 61.4564 21.412 61.4564 21.148V19.792C61.4564 19.528 61.5304 19.32 61.6784 19.168C61.8304 19.016 62.0364 18.94 62.2964 18.94H63.5684C63.6084 18.94 63.6284 18.964 63.6284 19.012V21.928C63.6284 21.976 63.6084 22 63.5684 22H63.3944C63.3504 22 63.3284 21.976 63.3284 21.928V21.688H63.3044C63.2004 21.896 62.9924 22 62.6804 22ZM63.3284 21.142V19.264C63.3284 19.228 63.3084 19.21 63.2684 19.21H62.3204C62.1364 19.21 61.9964 19.262 61.9004 19.366C61.8044 19.47 61.7564 19.616 61.7564 19.804V21.136C61.7564 21.324 61.8044 21.47 61.9004 21.574C61.9964 21.678 62.1364 21.73 62.3204 21.73H62.7104C62.9024 21.73 63.0524 21.68 63.1604 21.58C63.2724 21.476 63.3284 21.33 63.3284 21.142ZM64.7921 22H64.6181C64.5781 22 64.5581 21.976 64.5581 21.928V17.854C64.5581 17.806 64.5781 17.782 64.6181 17.782H64.7921C64.8361 17.782 64.8581 17.806 64.8581 17.854V21.928C64.8581 21.976 64.8361 22 64.7921 22ZM66.0519 22H65.8779C65.8379 22 65.8179 21.976 65.8179 21.928V17.854C65.8179 17.806 65.8379 17.782 65.8779 17.782H66.0519C66.0959 17.782 66.1179 17.806 66.1179 17.854V21.928C66.1179 21.976 66.0959 22 66.0519 22ZM68.8813 22H68.7073C68.6673 22 68.6473 21.976 68.6473 21.928V19.012C68.6473 18.964 68.6673 18.94 68.7073 18.94H68.8813C68.9253 18.94 68.9473 18.964 68.9473 19.012V19.264H68.9713C69.0153 19.18 69.0933 19.106 69.2053 19.042C69.3173 18.974 69.4553 18.94 69.6193 18.94H69.8533C69.8973 18.94 69.9193 18.962 69.9193 19.006V19.15C69.9193 19.194 69.8973 19.214 69.8533 19.21H69.5713C69.3753 19.21 69.2213 19.27 69.1093 19.39C69.0013 19.51 68.9473 19.672 68.9473 19.876V21.928C68.9473 21.976 68.9253 22 68.8813 22ZM70.5581 18.436V17.86C70.5581 17.816 70.5781 17.794 70.6181 17.794H70.7981C70.8381 17.794 70.8581 17.816 70.8581 17.86V18.436C70.8581 18.484 70.8381 18.508 70.7981 18.508H70.6181C70.5781 18.508 70.5581 18.484 70.5581 18.436ZM70.5581 21.928V19.012C70.5581 18.964 70.5781 18.94 70.6181 18.94H70.7921C70.8361 18.94 70.8581 18.964 70.8581 19.012V21.928C70.8581 21.976 70.8381 22 70.7981 22H70.6181C70.5781 22 70.5581 21.976 70.5581 21.928ZM72.9759 21.826H72.5859C72.3299 21.826 72.1259 21.75 71.9739 21.598C71.8259 21.446 71.7519 21.24 71.7519 20.98V19.792C71.7519 19.528 71.8259 19.32 71.9739 19.168C72.1259 19.016 72.3319 18.94 72.5919 18.94H73.8639C73.9079 18.94 73.9299 18.964 73.9299 19.012V21.988C73.9299 22.252 73.8539 22.46 73.7019 22.612C73.5499 22.764 73.3439 22.84 73.0839 22.84H71.9919C71.9479 22.84 71.9259 22.818 71.9259 22.774V22.63C71.9259 22.59 71.9479 22.57 71.9919 22.57H73.0599C73.2439 22.57 73.3839 22.518 73.4799 22.414C73.5759 22.314 73.6239 22.168 73.6239 21.976V21.514H73.5999C73.4999 21.722 73.2919 21.826 72.9759 21.826ZM73.6239 20.968V19.264C73.6239 19.228 73.6059 19.21 73.5699 19.21H72.6219C72.4379 19.21 72.2959 19.262 72.1959 19.366C72.0999 19.466 72.0519 19.612 72.0519 19.804V20.968C72.0519 21.156 72.0999 21.302 72.1959 21.406C72.2959 21.506 72.4379 21.556 72.6219 21.556H73.0059C73.1979 21.556 73.3479 21.506 73.4559 21.406C73.5679 21.302 73.6239 21.156 73.6239 20.968ZM75.057 22H74.883C74.843 22 74.823 21.976 74.823 21.928V17.854C74.823 17.806 74.843 17.782 74.883 17.782H75.057C75.101 17.782 75.123 17.806 75.123 17.854V19.252H75.147C75.259 19.044 75.467 18.94 75.771 18.94H76.167C76.423 18.94 76.625 19.016 76.773 19.168C76.921 19.32 76.995 19.528 76.995 19.792V21.928C76.995 21.976 76.975 22 76.935 22H76.761C76.717 22 76.695 21.976 76.695 21.928V19.804C76.695 19.616 76.647 19.47 76.551 19.366C76.455 19.262 76.315 19.21 76.131 19.21H75.741C75.549 19.21 75.397 19.262 75.285 19.366C75.177 19.466 75.123 19.61 75.123 19.798V21.928C75.123 21.976 75.101 22 75.057 22ZM77.9961 19.21H77.6301C77.5861 19.21 77.5641 19.19 77.5641 19.15V19.006C77.5641 18.962 77.5861 18.94 77.6301 18.94H77.9961C78.0321 18.94 78.0501 18.922 78.0501 18.886V18.4C78.0501 18.352 78.0721 18.328 78.1161 18.328H78.2901C78.3341 18.328 78.3561 18.352 78.3561 18.4V18.886C78.3561 18.922 78.3741 18.94 78.4101 18.94H79.1241C79.1681 18.94 79.1901 18.962 79.1901 19.006V19.15C79.1901 19.19 79.1681 19.21 79.1241 19.21H78.4101C78.3741 19.21 78.3561 19.228 78.3561 19.264V21.154C78.3561 21.338 78.4081 21.48 78.5121 21.58C78.6161 21.68 78.7621 21.73 78.9501 21.73H79.1841C79.2281 21.73 79.2501 21.752 79.2501 21.796V21.934C79.2501 21.978 79.2281 22 79.1841 22H78.9261C78.6621 22 78.4501 21.926 78.2901 21.778C78.1301 21.63 78.0501 21.426 78.0501 21.166V19.264C78.0501 19.228 78.0321 19.21 77.9961 19.21ZM80.9341 22H79.8901C79.8461 22 79.8241 21.978 79.8241 21.934V21.796C79.8241 21.756 79.8461 21.736 79.8901 21.736H80.9041C81.2641 21.736 81.4441 21.596 81.4441 21.316V21.172C81.4441 20.912 81.3321 20.742 81.1081 20.662L80.3581 20.374C80.1541 20.294 80.0081 20.2 79.9201 20.092C79.8361 19.984 79.7941 19.834 79.7941 19.642C79.7941 19.174 80.0521 18.94 80.5681 18.94H81.5401C81.5841 18.94 81.6061 18.962 81.6061 19.006V19.144C81.6061 19.184 81.5841 19.204 81.5401 19.204H80.5981C80.4341 19.204 80.3101 19.24 80.2261 19.312C80.1461 19.384 80.1061 19.468 80.1061 19.564V19.702C80.1061 19.814 80.1361 19.902 80.1961 19.966C80.2601 20.03 80.3561 20.084 80.4841 20.128L81.2341 20.428C81.4421 20.496 81.5801 20.598 81.6481 20.734C81.7201 20.866 81.7561 21.052 81.7561 21.292C81.7561 21.532 81.6881 21.71 81.5521 21.826C81.4201 21.942 81.2141 22 80.9341 22ZM84.2597 19.21H83.8937C83.8497 19.21 83.8277 19.19 83.8277 19.15V19.006C83.8277 18.962 83.8497 18.94 83.8937 18.94H84.2597C84.2957 18.94 84.3137 18.922 84.3137 18.886V18.4C84.3137 18.352 84.3357 18.328 84.3797 18.328H84.5537C84.5977 18.328 84.6197 18.352 84.6197 18.4V18.886C84.6197 18.922 84.6377 18.94 84.6737 18.94H85.3877C85.4317 18.94 85.4537 18.962 85.4537 19.006V19.15C85.4537 19.19 85.4317 19.21 85.3877 19.21H84.6737C84.6377 19.21 84.6197 19.228 84.6197 19.264V21.154C84.6197 21.338 84.6717 21.48 84.7757 21.58C84.8797 21.68 85.0257 21.73 85.2137 21.73H85.4477C85.4917 21.73 85.5137 21.752 85.5137 21.796V21.934C85.5137 21.978 85.4917 22 85.4477 22H85.1897C84.9257 22 84.7137 21.926 84.5537 21.778C84.3937 21.63 84.3137 21.426 84.3137 21.166V19.264C84.3137 19.228 84.2957 19.21 84.2597 19.21ZM87.5038 22H86.9878C86.7278 22 86.5218 21.924 86.3698 21.772C86.2218 21.62 86.1478 21.412 86.1478 21.148V19.792C86.1478 19.528 86.2218 19.32 86.3698 19.168C86.5218 19.016 86.7278 18.94 86.9878 18.94H87.5038C87.7638 18.94 87.9698 19.016 88.1218 19.168C88.2738 19.32 88.3498 19.528 88.3498 19.792V21.148C88.3498 21.412 88.2738 21.62 88.1218 21.772C87.9698 21.924 87.7638 22 87.5038 22ZM87.0118 21.73H87.4798C87.6638 21.73 87.8038 21.68 87.8998 21.58C87.9998 21.476 88.0498 21.33 88.0498 21.142V19.798C88.0498 19.61 87.9998 19.466 87.8998 19.366C87.8038 19.262 87.6638 19.21 87.4798 19.21H87.0118C86.8278 19.21 86.6878 19.262 86.5918 19.366C86.4958 19.466 86.4478 19.61 86.4478 19.798V21.142C86.4478 21.33 86.4958 21.476 86.5918 21.58C86.6878 21.68 86.8278 21.73 87.0118 21.73ZM90.814 18.436V17.86C90.814 17.816 90.834 17.794 90.874 17.794H91.054C91.094 17.794 91.114 17.816 91.114 17.86V18.436C91.114 18.484 91.094 18.508 91.054 18.508H90.874C90.834 18.508 90.814 18.484 90.814 18.436ZM90.814 21.928V19.012C90.814 18.964 90.834 18.94 90.874 18.94H91.048C91.092 18.94 91.114 18.964 91.114 19.012V21.928C91.114 21.976 91.094 22 91.054 22H90.874C90.834 22 90.814 21.976 90.814 21.928ZM92.1758 19.21H91.8098C91.7658 19.21 91.7438 19.19 91.7438 19.15V19.006C91.7438 18.962 91.7658 18.94 91.8098 18.94H92.1758C92.2118 18.94 92.2298 18.922 92.2298 18.886V18.4C92.2298 18.352 92.2518 18.328 92.2958 18.328H92.4698C92.5138 18.328 92.5358 18.352 92.5358 18.4V18.886C92.5358 18.922 92.5538 18.94 92.5898 18.94H93.3038C93.3478 18.94 93.3698 18.962 93.3698 19.006V19.15C93.3698 19.19 93.3478 19.21 93.3038 19.21H92.5898C92.5538 19.21 92.5358 19.228 92.5358 19.264V21.154C92.5358 21.338 92.5878 21.48 92.6918 21.58C92.7958 21.68 92.9418 21.73 93.1298 21.73H93.3638C93.4078 21.73 93.4298 21.752 93.4298 21.796V21.934C93.4298 21.978 93.4078 22 93.3638 22H93.1058C92.8418 22 92.6298 21.926 92.4698 21.778C92.3098 21.63 92.2298 21.426 92.2298 21.166V19.264C92.2298 19.228 92.2118 19.21 92.1758 19.21ZM95.1138 22H94.0698C94.0258 22 94.0038 21.978 94.0038 21.934V21.796C94.0038 21.756 94.0258 21.736 94.0698 21.736H95.0838C95.4438 21.736 95.6238 21.596 95.6238 21.316V21.172C95.6238 20.912 95.5118 20.742 95.2878 20.662L94.5378 20.374C94.3338 20.294 94.1878 20.2 94.0998 20.092C94.0158 19.984 93.9738 19.834 93.9738 19.642C93.9738 19.174 94.2318 18.94 94.7478 18.94H95.7198C95.7638 18.94 95.7858 18.962 95.7858 19.006V19.144C95.7858 19.184 95.7638 19.204 95.7198 19.204H94.7778C94.6138 19.204 94.4898 19.24 94.4058 19.312C94.3258 19.384 94.2858 19.468 94.2858 19.564V19.702C94.2858 19.814 94.3158 19.902 94.3758 19.966C94.4398 20.03 94.5358 20.084 94.6638 20.128L95.4138 20.428C95.6218 20.496 95.7598 20.598 95.8278 20.734C95.8998 20.866 95.9358 21.052 95.9358 21.292C95.9358 21.532 95.8678 21.71 95.7318 21.826C95.5998 21.942 95.3938 22 95.1138 22ZM99.5014 22H99.1054C98.8494 22 98.6474 21.924 98.4994 21.772C98.3514 21.62 98.2774 21.412 98.2774 21.148V19.012C98.2774 18.964 98.2974 18.94 98.3374 18.94H98.5114C98.5554 18.94 98.5774 18.964 98.5774 19.012V21.136C98.5774 21.324 98.6254 21.47 98.7214 21.574C98.8174 21.678 98.9574 21.73 99.1414 21.73H99.5314C99.7234 21.73 99.8734 21.68 99.9814 21.58C100.093 21.476 100.149 21.33 100.149 21.142V19.012C100.149 18.964 100.171 18.94 100.215 18.94H100.389C100.429 18.94 100.449 18.964 100.449 19.012V21.928C100.449 21.976 100.429 22 100.389 22H100.215C100.171 22 100.149 21.976 100.149 21.928V21.688H100.125C100.021 21.896 99.8134 22 99.5014 22ZM102.338 22H101.294C101.25 22 101.228 21.978 101.228 21.934V21.796C101.228 21.756 101.25 21.736 101.294 21.736H102.308C102.668 21.736 102.848 21.596 102.848 21.316V21.172C102.848 20.912 102.736 20.742 102.512 20.662L101.762 20.374C101.558 20.294 101.412 20.2 101.324 20.092C101.24 19.984 101.198 19.834 101.198 19.642C101.198 19.174 101.456 18.94 101.972 18.94H102.944C102.988 18.94 103.01 18.962 103.01 19.006V19.144C103.01 19.184 102.988 19.204 102.944 19.204H102.002C101.838 19.204 101.714 19.24 101.63 19.312C101.55 19.384 101.51 19.468 101.51 19.564V19.702C101.51 19.814 101.54 19.902 101.6 19.966C101.664 20.03 101.76 20.084 101.888 20.128L102.638 20.428C102.846 20.496 102.984 20.598 103.052 20.734C103.124 20.866 103.16 21.052 103.16 21.292C103.16 21.532 103.092 21.71 102.956 21.826C102.824 21.942 102.618 22 102.338 22ZM105.966 22H104.712C104.452 22 104.246 21.924 104.094 21.772C103.946 21.62 103.872 21.412 103.872 21.148V19.792C103.872 19.528 103.946 19.32 104.094 19.168C104.246 19.016 104.452 18.94 104.712 18.94H105.228C105.488 18.94 105.694 19.016 105.846 19.168C105.998 19.32 106.074 19.528 106.074 19.792V20.554C106.074 20.602 106.05 20.626 106.002 20.626H104.226C104.19 20.626 104.172 20.644 104.172 20.68V21.142C104.172 21.33 104.22 21.476 104.316 21.58C104.412 21.68 104.552 21.73 104.736 21.73H105.966C106.01 21.73 106.032 21.752 106.032 21.796V21.934C106.032 21.978 106.01 22 105.966 22ZM104.226 20.386H105.72C105.756 20.386 105.774 20.368 105.774 20.332V19.798C105.774 19.61 105.726 19.466 105.63 19.366C105.534 19.262 105.394 19.21 105.21 19.21H104.736C104.552 19.21 104.412 19.262 104.316 19.366C104.22 19.466 104.172 19.61 104.172 19.798V20.332C104.172 20.368 104.19 20.386 104.226 20.386ZM107.174 21.214V21.928C107.174 21.976 107.154 22 107.114 22H106.904C106.86 22 106.838 21.976 106.838 21.928V21.214C106.838 21.17 106.86 21.148 106.904 21.148H107.114C107.154 21.148 107.174 21.17 107.174 21.214Z" fill="#EB2941"/>
<path d="M111 3H119" stroke="#EB2941" stroke-width="2"/>
<path d="M119 9H127" stroke="#EB2941" stroke-width="2"/>
<path d="M127 15H135" stroke="#EB2941" stroke-width="2"/>
<path d="M119 5H127" stroke="#EB2941" stroke-opacity="0.5" stroke-width="2"/>
<path d="M127 11H135" stroke="#EB2941" stroke-opacity="0.5" stroke-width="2"/>
<path d="M135 17H143" stroke="#EB2941" stroke-opacity="0.5" stroke-width="2"/>
<path d="M127 7H135" stroke="#EB2941" stroke-width="2"/>
<path d="M135 13H143" stroke="#EB2941" stroke-width="2"/>
<path d="M143 19H151" stroke="#EB2941" stroke-width="2"/>
<path d="M135 21H143" stroke="#EB2941" stroke-width="2"/>
<path d="M111 7H119" stroke="#EB2941" stroke-width="2"/>
<path d="M119 13H127" stroke="#EB2941" stroke-opacity="0.5" stroke-width="2"/>
<path d="M127 19H135" stroke="#EB2941" stroke-opacity="0.5" stroke-width="2"/>
<path d="M119 21H127" stroke="#EB2941" stroke-width="2"/>
<path d="M127 3H135" stroke="#EB2941" stroke-width="2"/>
<path d="M135 9H143" stroke="#EB2941" stroke-opacity="0.5" stroke-width="2"/>
<path d="M143 15H151" stroke="#EB2941" stroke-opacity="0.5" stroke-width="2"/>
<path d="M154.146 6C153.998 6 153.862 5.964 153.738 5.892C153.614 5.82 153.516 5.722 153.444 5.598C153.372 5.474 153.336 5.338 153.336 5.19V2.49C153.336 2.342 153.372 2.206 153.444 2.082C153.516 1.958 153.614 1.86 153.738 1.788C153.862 1.716 153.998 1.68 154.146 1.68H157.644V2.406H154.272C154.208 2.406 154.156 2.426 154.116 2.466C154.076 2.502 154.056 2.552 154.056 2.616V5.064C154.056 5.128 154.076 5.18 154.116 5.22C154.156 5.256 154.208 5.274 154.272 5.274H157.644V6H154.146ZM159.986 6V4.38L157.994 1.68H158.846L160.352 3.576L161.846 1.68H162.71L160.712 4.386V6H159.986ZM163.122 6V1.68H166.458C166.606 1.68 166.74 1.716 166.86 1.788C166.984 1.86 167.082 1.958 167.154 2.082C167.23 2.206 167.268 2.342 167.268 2.49V3.348C167.268 3.404 167.262 3.458 167.25 3.51C167.242 3.558 167.228 3.604 167.208 3.648C167.28 3.748 167.336 3.848 167.376 3.948C167.42 4.044 167.442 4.142 167.442 4.242V5.19C167.442 5.338 167.404 5.474 167.328 5.598C167.256 5.722 167.158 5.82 167.034 5.892C166.914 5.964 166.78 6 166.632 6H163.122ZM163.95 5.274H166.608C166.636 5.274 166.66 5.264 166.68 5.244C166.704 5.224 166.716 5.198 166.716 5.166V4.272C166.716 4.24 166.704 4.214 166.68 4.194C166.66 4.174 166.636 4.164 166.608 4.164H163.95C163.922 4.164 163.896 4.174 163.872 4.194C163.852 4.214 163.842 4.24 163.842 4.272V5.166C163.842 5.198 163.852 5.224 163.872 5.244C163.896 5.264 163.922 5.274 163.95 5.274ZM163.95 3.438H166.428C166.46 3.438 166.486 3.428 166.506 3.408C166.526 3.384 166.536 3.358 166.536 3.33V2.514C166.536 2.482 166.526 2.456 166.506 2.436C166.486 2.416 166.46 2.406 166.428 2.406H163.95C163.922 2.406 163.896 2.416 163.872 2.436C163.852 2.456 163.842 2.482 163.842 2.514V3.33C163.842 3.358 163.852 3.384 163.872 3.408C163.896 3.428 163.922 3.438 163.95 3.438ZM168.108 6V1.68H172.074V2.406H168.834V3.48H171.444V4.2H168.834V5.274H172.074V6H168.108ZM176.182 6L174.856 4.416H175.798L176.992 5.832V6H176.182ZM172.69 6V1.686H176.2C176.348 1.686 176.482 1.724 176.602 1.8C176.726 1.872 176.824 1.97 176.896 2.094C176.972 2.214 177.01 2.348 177.01 2.496V3.684C177.01 3.828 176.972 3.962 176.896 4.086C176.824 4.21 176.726 4.308 176.602 4.38C176.482 4.452 176.348 4.488 176.2 4.488L173.41 4.494V6H172.69ZM173.518 3.762H176.176C176.204 3.762 176.228 3.752 176.248 3.732C176.272 3.712 176.284 3.686 176.284 3.654V2.514C176.284 2.486 176.272 2.462 176.248 2.442C176.228 2.418 176.204 2.406 176.176 2.406H173.518C173.49 2.406 173.464 2.418 173.44 2.442C173.42 2.462 173.41 2.486 173.41 2.514V3.654C173.41 3.686 173.42 3.712 173.44 3.732C173.464 3.752 173.49 3.762 173.518 3.762ZM178.427 6C178.279 6 178.143 5.964 178.019 5.892C177.899 5.82 177.803 5.722 177.731 5.598C177.659 5.474 177.623 5.338 177.623 5.19V4.902H178.343V5.166C178.343 5.198 178.353 5.224 178.373 5.244C178.393 5.264 178.419 5.274 178.451 5.274H181.103C181.135 5.274 181.161 5.264 181.181 5.244C181.205 5.224 181.217 5.198 181.217 5.166V4.308C181.217 4.28 181.205 4.256 181.181 4.236C181.161 4.212 181.135 4.2 181.103 4.2H178.427C178.279 4.2 178.143 4.164 178.019 4.092C177.899 4.02 177.803 3.924 177.731 3.804C177.659 3.68 177.623 3.544 177.623 3.396V2.49C177.623 2.342 177.659 2.206 177.731 2.082C177.803 1.958 177.899 1.86 178.019 1.788C178.143 1.716 178.279 1.68 178.427 1.68H181.133C181.281 1.68 181.415 1.716 181.535 1.788C181.659 1.86 181.757 1.958 181.829 2.082C181.905 2.206 181.943 2.342 181.943 2.49V2.778H181.217V2.514C181.217 2.482 181.205 2.456 181.181 2.436C181.161 2.416 181.135 2.406 181.103 2.406H178.451C178.419 2.406 178.393 2.416 178.373 2.436C178.353 2.456 178.343 2.482 178.343 2.514V3.372C178.343 3.4 178.353 3.426 178.373 3.45C178.393 3.47 178.419 3.48 178.451 3.48H181.133C181.281 3.48 181.415 3.516 181.535 3.588C181.659 3.66 181.757 3.758 181.829 3.882C181.905 4.002 181.943 4.136 181.943 4.284V5.19C181.943 5.338 181.905 5.474 181.829 5.598C181.757 5.722 181.659 5.82 181.535 5.892C181.415 5.964 181.281 6 181.133 6H178.427ZM182.604 6V1.68H186.57V2.406H183.33V3.48H185.94V4.2H183.33V5.274H186.57V6H182.604ZM187.996 6C187.848 6 187.712 5.964 187.588 5.892C187.464 5.82 187.366 5.722 187.294 5.598C187.222 5.474 187.186 5.338 187.186 5.19V2.49C187.186 2.342 187.222 2.206 187.294 2.082C187.366 1.958 187.464 1.86 187.588 1.788C187.712 1.716 187.848 1.68 187.996 1.68H191.494V2.406H188.122C188.058 2.406 188.006 2.426 187.966 2.466C187.926 2.502 187.906 2.552 187.906 2.616V5.064C187.906 5.128 187.926 5.18 187.966 5.22C188.006 5.256 188.058 5.274 188.122 5.274H191.494V6H187.996ZM154.122 14C153.974 14 153.838 13.964 153.714 13.892C153.594 13.82 153.498 13.722 153.426 13.598C153.354 13.474 153.318 13.338 153.318 13.19V12.902H154.038V13.166C154.038 13.198 154.048 13.224 154.068 13.244C154.088 13.264 154.114 13.274 154.146 13.274H156.798C156.83 13.274 156.856 13.264 156.876 13.244C156.9 13.224 156.912 13.198 156.912 13.166V12.308C156.912 12.28 156.9 12.256 156.876 12.236C156.856 12.212 156.83 12.2 156.798 12.2H154.122C153.974 12.2 153.838 12.164 153.714 12.092C153.594 12.02 153.498 11.924 153.426 11.804C153.354 11.68 153.318 11.544 153.318 11.396V10.49C153.318 10.342 153.354 10.206 153.426 10.082C153.498 9.958 153.594 9.86 153.714 9.788C153.838 9.716 153.974 9.68 154.122 9.68H156.828C156.976 9.68 157.11 9.716 157.23 9.788C157.354 9.86 157.452 9.958 157.524 10.082C157.6 10.206 157.638 10.342 157.638 10.49V10.778H156.912V10.514C156.912 10.482 156.9 10.456 156.876 10.436C156.856 10.416 156.83 10.406 156.798 10.406H154.146C154.114 10.406 154.088 10.416 154.068 10.436C154.048 10.456 154.038 10.482 154.038 10.514V11.372C154.038 11.4 154.048 11.426 154.068 11.45C154.088 11.47 154.114 11.48 154.146 11.48H156.828C156.976 11.48 157.11 11.516 157.23 11.588C157.354 11.66 157.452 11.758 157.524 11.882C157.6 12.002 157.638 12.136 157.638 12.284V13.19C157.638 13.338 157.6 13.474 157.524 13.598C157.452 13.722 157.354 13.82 157.23 13.892C157.11 13.964 156.976 14 156.828 14H154.122ZM159.085 14C158.937 14 158.801 13.964 158.677 13.892C158.553 13.82 158.455 13.722 158.383 13.598C158.311 13.474 158.275 13.338 158.275 13.19V10.49C158.275 10.342 158.311 10.206 158.383 10.082C158.455 9.958 158.553 9.86 158.677 9.788C158.801 9.716 158.937 9.68 159.085 9.68H161.785C161.933 9.68 162.067 9.716 162.187 9.788C162.311 9.86 162.409 9.958 162.481 10.082C162.557 10.206 162.595 10.342 162.595 10.49V13.19C162.595 13.338 162.557 13.474 162.481 13.598C162.409 13.722 162.311 13.82 162.187 13.892C162.067 13.964 161.933 14 161.785 14H159.085ZM159.103 13.274H161.761C161.789 13.274 161.813 13.264 161.833 13.244C161.857 13.224 161.869 13.198 161.869 13.166V10.514C161.869 10.482 161.857 10.456 161.833 10.436C161.813 10.416 161.789 10.406 161.761 10.406H159.103C159.075 10.406 159.049 10.416 159.025 10.436C159.005 10.456 158.995 10.482 158.995 10.514V13.166C158.995 13.198 159.005 13.224 159.025 13.244C159.049 13.264 159.075 13.274 159.103 13.274ZM163.268 14V9.68H167.234V10.406H163.994V11.48H166.604V12.2H163.994V14H163.268ZM169.234 14V10.406H167.434V9.68H171.754V10.406H169.954V14H169.234ZM173.649 14L172.077 9.68H172.845L173.937 12.674L175.029 9.68H175.761L176.859 12.674L177.951 9.68H178.719L177.147 14H176.565L175.395 10.79L174.225 14H173.649ZM179.053 14V10.49C179.053 10.342 179.089 10.206 179.161 10.082C179.233 9.958 179.331 9.86 179.455 9.788C179.579 9.716 179.715 9.68 179.863 9.68H182.563C182.711 9.68 182.845 9.716 182.965 9.788C183.089 9.86 183.187 9.958 183.259 10.082C183.335 10.206 183.373 10.342 183.373 10.49V14H182.647V12.518H179.773V14H179.053ZM179.773 11.798H182.647V10.514C182.647 10.482 182.635 10.456 182.611 10.436C182.591 10.416 182.567 10.406 182.539 10.406H179.881C179.853 10.406 179.827 10.416 179.803 10.436C179.783 10.456 179.773 10.482 179.773 10.514V11.798ZM187.549 14L186.223 12.416H187.165L188.359 13.832V14H187.549ZM184.057 14V9.686H187.567C187.715 9.686 187.849 9.724 187.969 9.8C188.093 9.872 188.191 9.97 188.263 10.094C188.339 10.214 188.377 10.348 188.377 10.496V11.684C188.377 11.828 188.339 11.962 188.263 12.086C188.191 12.21 188.093 12.308 187.969 12.38C187.849 12.452 187.715 12.488 187.567 12.488L184.777 12.494V14H184.057ZM184.885 11.762H187.543C187.571 11.762 187.595 11.752 187.615 11.732C187.639 11.712 187.651 11.686 187.651 11.654V10.514C187.651 10.486 187.639 10.462 187.615 10.442C187.595 10.418 187.571 10.406 187.543 10.406H184.885C184.857 10.406 184.831 10.418 184.807 10.442C184.787 10.462 184.777 10.486 184.777 10.514V11.654C184.777 11.686 184.787 11.712 184.807 11.732C184.831 11.752 184.857 11.762 184.885 11.762ZM189.02 14V9.68H192.986V10.406H189.746V11.48H192.356V12.2H189.746V13.274H192.986V14H189.02ZM154.146 22C153.998 22 153.862 21.964 153.738 21.892C153.614 21.82 153.516 21.722 153.444 21.598C153.372 21.474 153.336 21.338 153.336 21.19V18.49C153.336 18.342 153.372 18.206 153.444 18.082C153.516 17.958 153.614 17.86 153.738 17.788C153.862 17.716 153.998 17.68 154.146 17.68H157.644V18.406H154.272C154.208 18.406 154.156 18.426 154.116 18.466C154.076 18.502 154.056 18.552 154.056 18.616V21.064C154.056 21.128 154.076 21.18 154.116 21.22C154.156 21.256 154.208 21.274 154.272 21.274H157.644V22H154.146ZM159.068 22C158.92 22 158.784 21.964 158.66 21.892C158.536 21.82 158.438 21.722 158.366 21.598C158.294 21.474 158.258 21.338 158.258 21.19V18.49C158.258 18.342 158.294 18.206 158.366 18.082C158.438 17.958 158.536 17.86 158.66 17.788C158.784 17.716 158.92 17.68 159.068 17.68H161.768C161.916 17.68 162.05 17.716 162.17 17.788C162.294 17.86 162.392 17.958 162.464 18.082C162.54 18.206 162.578 18.342 162.578 18.49V21.19C162.578 21.338 162.54 21.474 162.464 21.598C162.392 21.722 162.294 21.82 162.17 21.892C162.05 21.964 161.916 22 161.768 22H159.068ZM159.086 21.274H161.744C161.772 21.274 161.796 21.264 161.816 21.244C161.84 21.224 161.852 21.198 161.852 21.166V18.514C161.852 18.482 161.84 18.456 161.816 18.436C161.796 18.416 161.772 18.406 161.744 18.406H159.086C159.058 18.406 159.032 18.416 159.008 18.436C158.988 18.456 158.978 18.482 158.978 18.514V21.166C158.978 21.198 158.988 21.224 159.008 21.244C159.032 21.264 159.058 21.274 159.086 21.274ZM166.73 22L165.404 20.416H166.346L167.54 21.832V22H166.73ZM163.238 22V17.686H166.748C166.896 17.686 167.03 17.724 167.15 17.8C167.274 17.872 167.372 17.97 167.444 18.094C167.52 18.214 167.558 18.348 167.558 18.496V19.684C167.558 19.828 167.52 19.962 167.444 20.086C167.372 20.21 167.274 20.308 167.15 20.38C167.03 20.452 166.896 20.488 166.748 20.488L163.958 20.494V22H163.238ZM164.066 19.762H166.724C166.752 19.762 166.776 19.752 166.796 19.732C166.82 19.712 166.832 19.686 166.832 19.654V18.514C166.832 18.486 166.82 18.462 166.796 18.442C166.776 18.418 166.752 18.406 166.724 18.406H164.066C164.038 18.406 164.012 18.418 163.988 18.442C163.968 18.462 163.958 18.486 163.958 18.514V19.654C163.958 19.686 163.968 19.712 163.988 19.732C164.012 19.752 164.038 19.762 164.066 19.762ZM168.19 22V17.686H171.7C171.848 17.686 171.982 17.724 172.102 17.8C172.226 17.872 172.324 17.97 172.396 18.094C172.472 18.214 172.51 18.348 172.51 18.496V19.684C172.51 19.828 172.472 19.962 172.396 20.086C172.324 20.21 172.226 20.308 172.102 20.38C171.982 20.452 171.848 20.488 171.7 20.488L168.91 20.494V22H168.19ZM169.018 19.762H171.676C171.704 19.762 171.728 19.752 171.748 19.732C171.772 19.712 171.784 19.686 171.784 19.654V18.514C171.784 18.486 171.772 18.462 171.748 18.442C171.728 18.418 171.704 18.406 171.676 18.406H169.018C168.99 18.406 168.964 18.418 168.94 18.442C168.92 18.462 168.91 18.486 168.91 18.514V19.654C168.91 19.686 168.92 19.712 168.94 19.732C168.964 19.752 168.99 19.762 169.018 19.762ZM172.924 22V21.286H173.638V22H172.924Z" fill="#EB2941"/>
</svg>
