<svg width="248" height="180" viewBox="0 0 248 180" fill="none" xmlns="http://www.w3.org/2000/svg">
<path d="M0.782705 71.2152C22.161 49.6782 64.0376 7.58555 70.3352 1.61284C70.7201 1.24777 71.2873 1.2994 71.6545 1.68221L106.222 37.7098C106.4 37.896 106.5 38.1441 106.5 38.4021V88C106.5 88.5523 106.052 89 105.5 89H1.5C0.947715 89 0.5 88.5523 0.5 88V71.912C0.5 71.6481 0.596771 71.4025 0.782705 71.2152Z" fill="#55EAD4" fill-opacity="0.13"/>
<path d="M183.474 1H74.8225C73.9449 1 73.4929 2.04967 74.096 2.6872L107.226 37.7108C107.402 37.8965 107.5 38.1424 107.5 38.398V89V90V124.57C107.5 124.844 107.613 125.107 107.813 125.296L162.791 177.329C163.186 177.702 163.805 177.693 164.188 177.308L246.916 94.0877C247.255 93.7468 247.303 93.2131 247.031 92.8168L184.298 1.43404C184.111 1.16236 183.803 1 183.474 1Z" fill="#55EAD4" fill-opacity="0.13"/>
<path d="M106.5 124.572V91C106.5 90.4477 106.052 90 105.5 90H1.5C0.947715 90 0.5 90.4477 0.5 91V152.586C0.5 152.851 0.605358 153.105 0.792894 153.293L25.2071 177.707C25.3946 177.895 25.649 178 25.9142 178H159.505C160.407 178 160.848 176.9 160.196 176.277L106.809 125.295C106.612 125.107 106.5 124.845 106.5 124.572Z" fill="#55EAD4" fill-opacity="0.13"/>
<circle cx="71" cy="6.5" r="2.5" fill="#55EAD4"/>
<circle cx="114" cy="40.5" r="2.5" fill="#55EAD4"/>
<circle cx="114" cy="47.5" r="2.5" fill="#55EAD4"/>
<circle cx="102" cy="94.5" r="2.5" fill="#55EAD4"/>
<circle cx="138" cy="164.5" r="2.5" fill="#55EAD4"/>
<circle cx="6" cy="151.5" r="2.5" fill="#55EAD4"/>
<circle cx="241" cy="92.5" r="2.5" fill="#55EAD4"/>
<circle cx="181" cy="5.5" r="2.5" fill="#55EAD4"/>
<path d="M10.5 59H0" stroke="#55EAD4" stroke-opacity="0.45"/>
<path d="M30.5 39L0 39" stroke="#55EAD4" stroke-opacity="0.05"/>
<path d="M50.5 19H0" stroke="#55EAD4" stroke-opacity="0.55"/>
<path d="M12.5 57H0" stroke="#55EAD4" stroke-opacity="0.4"/>
<path d="M32.5 37L0 37" stroke="#55EAD4" stroke-opacity="0.1"/>
<path d="M52.5 17H0" stroke="#55EAD4" stroke-opacity="0.6"/>
<path d="M14.5 55H0" stroke="#55EAD4" stroke-opacity="0.35"/>
<path d="M34.5 35L0 35" stroke="#55EAD4" stroke-opacity="0.15"/>
<path d="M54.5 15H0" stroke="#55EAD4" stroke-opacity="0.65"/>
<path d="M16.5 53H0" stroke="#55EAD4" stroke-opacity="0.3"/>
<path d="M36.5 33H0" stroke="#55EAD4" stroke-opacity="0.2"/>
<path d="M56.5 13H0" stroke="#55EAD4" stroke-opacity="0.7"/>
<path d="M18.5 51L0 51" stroke="#55EAD4" stroke-opacity="0.25"/>
<path d="M38.5 31H0" stroke="#55EAD4" stroke-opacity="0.25"/>
<path d="M58.5 11H0" stroke="#55EAD4" stroke-opacity="0.75"/>
<path d="M0.5 69H0" stroke="#55EAD4" stroke-opacity="0.7"/>
<path d="M20.5 49H0" stroke="#55EAD4" stroke-opacity="0.2"/>
<path d="M40.5 29H0" stroke="#55EAD4" stroke-opacity="0.3"/>
<path d="M60.5 9H0" stroke="#55EAD4" stroke-opacity="0.8"/>
<path d="M2.5 67H0" stroke="#55EAD4" stroke-opacity="0.65"/>
<path d="M22.5 47H0" stroke="#55EAD4" stroke-opacity="0.15"/>
<path d="M42.5 27H0" stroke="#55EAD4" stroke-opacity="0.35"/>
<path d="M62.5 7H0" stroke="#55EAD4" stroke-opacity="0.85"/>
<path d="M4.5 65H0" stroke="#55EAD4" stroke-opacity="0.6"/>
<path d="M24.5 45H0" stroke="#55EAD4" stroke-opacity="0.1"/>
<path d="M44.5 25H0" stroke="#55EAD4" stroke-opacity="0.4"/>
<path d="M64.5 5H0" stroke="#55EAD4" stroke-opacity="0.9"/>
<path d="M6.5 63H0" stroke="#55EAD4" stroke-opacity="0.55"/>
<path d="M26.5 43L0 43" stroke="#55EAD4" stroke-opacity="0.05"/>
<path d="M46.5 23H0" stroke="#55EAD4" stroke-opacity="0.45"/>
<path d="M66.5 3H0" stroke="#55EAD4" stroke-opacity="0.95"/>
<path d="M8.5 61H0" stroke="#55EAD4" stroke-opacity="0.5"/>
<path d="M28.5 41L0 41" stroke="#55EAD4" stroke-opacity="0.01"/>
<path d="M48.5 21H0" stroke="#55EAD4" stroke-opacity="0.5"/>
<path d="M68.5 1H0" stroke="#55EAD4"/>
<rect x="3.5" y="92" width="93" height="13" fill="#55EAD4"/>
<path d="M26.2648 101C26.0461 101 25.8461 100.947 25.6648 100.84C25.4888 100.733 25.3475 100.592 25.2408 100.416C25.1341 100.235 25.0808 100.035 25.0808 99.816V96.424C25.0808 96.2053 25.1341 96.008 25.2408 95.832C25.3475 95.6507 25.4888 95.5067 25.6648 95.4C25.8461 95.2933 26.0461 95.24 26.2648 95.24H30.8248V96.488H26.5848C26.4995 96.488 26.4328 96.5093 26.3848 96.552C26.3421 96.5947 26.3208 96.6613 26.3208 96.752V99.488C26.3208 99.5733 26.3421 99.64 26.3848 99.688C26.4328 99.7307 26.4995 99.752 26.5848 99.752H30.8248V101H26.2648ZM33.8029 101V98.848L31.1389 95.24H32.6189L34.4269 97.512L36.2269 95.24H37.7229L35.0509 98.856V101H33.8029ZM38.1283 101V95.24H42.4803C42.6936 95.24 42.8883 95.2933 43.0643 95.4C43.2456 95.5067 43.3896 95.6507 43.4963 95.832C43.6083 96.008 43.6643 96.2053 43.6643 96.424V97.504C43.6643 97.5733 43.6589 97.64 43.6483 97.704C43.6429 97.7627 43.6296 97.8187 43.6083 97.872C43.6883 97.9733 43.7549 98.0907 43.8083 98.224C43.8616 98.3573 43.8883 98.4907 43.8883 98.624V99.816C43.8883 100.029 43.8323 100.227 43.7203 100.408C43.6136 100.589 43.4696 100.733 43.2883 100.84C43.1123 100.947 42.9149 101 42.6963 101H38.1283ZM39.3683 99.752H42.6323V98.696H39.3683V99.752ZM39.3683 97.448H42.4083V96.488H39.3683V97.448ZM44.7765 101V95.24H50.0965V96.488H46.0325V97.496H49.3045V98.744H46.0325V99.752H50.0965V101H44.7765ZM55.3575 101L53.6855 99.008H55.3095L56.6375 100.576V101H55.3575ZM50.8855 101V95.248H55.4535C55.6722 95.248 55.8695 95.3013 56.0455 95.408C56.2268 95.5147 56.3708 95.6587 56.4775 95.84C56.5895 96.0213 56.6455 96.2187 56.6455 96.432V97.92C56.6455 98.1333 56.5895 98.3307 56.4775 98.512C56.3708 98.6933 56.2268 98.8373 56.0455 98.944C55.8695 99.0507 55.6722 99.104 55.4535 99.104L52.1255 99.112V101H50.8855ZM52.1255 97.856H55.3895V96.488H52.1255V97.856ZM58.6551 101C58.4417 101 58.2444 100.947 58.0631 100.84C57.8817 100.733 57.7377 100.589 57.6311 100.408C57.5244 100.227 57.4711 100.029 57.4711 99.816V99.28H58.7111V99.752H61.9751V98.744H58.6551C58.4417 98.744 58.2444 98.6907 58.0631 98.584C57.8817 98.4773 57.7377 98.336 57.6311 98.16C57.5244 97.9787 57.4711 97.7787 57.4711 97.56V96.424C57.4711 96.2053 57.5244 96.008 57.6311 95.832C57.7377 95.6507 57.8817 95.5067 58.0631 95.4C58.2444 95.2933 58.4417 95.24 58.6551 95.24H62.0471C62.2604 95.24 62.4551 95.2933 62.6311 95.4C62.8124 95.5067 62.9564 95.6507 63.0631 95.832C63.1751 96.008 63.2311 96.2053 63.2311 96.424V96.96H61.9751V96.488H58.7111V97.496H62.0471C62.2604 97.496 62.4551 97.5493 62.6311 97.656C62.8124 97.7627 62.9564 97.9067 63.0631 98.088C63.1751 98.264 63.2311 98.4613 63.2311 98.68V99.816C63.2311 100.029 63.1751 100.227 63.0631 100.408C62.9564 100.589 62.8124 100.733 62.6311 100.84C62.4551 100.947 62.2604 101 62.0471 101H58.6551ZM64.1281 101V95.24H69.4481V96.488H65.3841V97.496H68.6561V98.744H65.3841V99.752H69.4481V101H64.1281ZM71.4211 101C71.2024 101 71.0024 100.947 70.8211 100.84C70.6451 100.733 70.5037 100.592 70.3971 100.416C70.2904 100.235 70.2371 100.035 70.2371 99.816V96.424C70.2371 96.2053 70.2904 96.008 70.3971 95.832C70.5037 95.6507 70.6451 95.5067 70.8211 95.4C71.0024 95.2933 71.2024 95.24 71.4211 95.24H75.9811V96.488H71.7411C71.6557 96.488 71.5891 96.5093 71.5411 96.552C71.4984 96.5947 71.4771 96.6613 71.4771 96.752V99.488C71.4771 99.5733 71.4984 99.64 71.5411 99.688C71.5891 99.7307 71.6557 99.752 71.7411 99.752H75.9811V101H71.4211Z" fill="#0B1E1C"/>
<path d="M184.924 167.279L184.415 166.77C184.162 166.517 184.06 166.204 184.109 165.831L184.341 163.879C184.386 163.548 184.303 163.276 184.092 163.065L183.889 162.861C183.568 162.541 183.246 162.543 182.921 162.867L182.576 163.212C182.259 163.529 182.261 163.847 182.582 164.168L182.814 164.4C182.87 164.456 182.872 164.511 182.819 164.564L182.565 164.818C182.516 164.867 182.463 164.864 182.407 164.807L182.169 164.57C181.909 164.309 181.781 164.034 181.784 163.744C181.784 163.449 181.914 163.172 182.175 162.912L182.627 162.46C182.887 162.199 183.165 162.069 183.459 162.069C183.749 162.065 184.024 162.194 184.285 162.454L184.517 162.686C184.811 162.98 184.933 163.336 184.884 163.755L184.652 165.741C184.626 165.963 184.682 166.144 184.822 166.284L185.082 166.544L186.66 164.966C186.713 164.913 186.766 164.913 186.819 164.966L187.028 165.175C187.081 165.228 187.081 165.28 187.028 165.333L185.082 167.279C185.029 167.332 184.977 167.332 184.924 167.279ZM188.264 161.937L186.041 159.714L186.985 163.215L188.264 161.937ZM189.655 162.706L189.418 162.944C189.369 162.993 189.318 162.991 189.265 162.938L188.626 162.299L187.053 163.871C186.974 163.951 186.895 163.951 186.816 163.871L186.68 163.736C186.616 163.671 186.572 163.602 186.55 163.526L185.548 159.764C185.507 159.655 185.526 159.561 185.605 159.482L185.973 159.114C186.056 159.031 186.137 159.029 186.216 159.108L188.654 161.546L189.073 161.128C189.125 161.075 189.176 161.073 189.225 161.122L189.429 161.326C189.486 161.382 189.488 161.437 189.435 161.49L189.016 161.908L189.655 162.548C189.708 162.6 189.708 162.653 189.655 162.706ZM187.717 158.931L187.491 158.705C187.434 158.648 187.415 158.584 187.434 158.512L187.711 157.477C187.738 157.383 187.77 157.317 187.808 157.279L188.045 157.041C188.098 156.989 188.151 156.989 188.204 157.041L191.683 160.52C191.735 160.573 191.735 160.626 191.683 160.679L191.428 160.933C191.375 160.986 191.322 160.986 191.27 160.933L188.153 157.816L187.864 158.874C187.834 158.98 187.785 158.999 187.717 158.931ZM193.064 157.136L190.841 154.913L191.786 158.415L193.064 157.136ZM194.456 157.905L194.218 158.143C194.169 158.192 194.118 158.19 194.066 158.137L193.426 157.498L191.854 159.071C191.775 159.15 191.695 159.15 191.616 159.071L191.48 158.935C191.416 158.871 191.373 158.801 191.35 158.726L190.349 154.964C190.308 154.855 190.326 154.76 190.406 154.681L190.773 154.313C190.856 154.23 190.937 154.229 191.017 154.308L193.455 156.746L193.873 156.327C193.926 156.274 193.977 156.273 194.026 156.322L194.23 156.525C194.286 156.582 194.288 156.636 194.235 156.689L193.817 157.108L194.456 157.747C194.509 157.8 194.509 157.853 194.456 157.905ZM196.449 152.643L195.295 153.797C195.242 153.85 195.189 153.85 195.136 153.797L194.95 153.61C194.897 153.558 194.897 153.505 194.95 153.452L196.104 152.298C196.156 152.245 196.209 152.245 196.262 152.298L196.449 152.485C196.502 152.537 196.502 152.59 196.449 152.643ZM200.603 151.758L200.349 152.013C200.296 152.065 200.243 152.065 200.19 152.013L196.711 148.534C196.659 148.481 196.659 148.428 196.711 148.375L198.012 147.074C198.273 146.814 198.554 146.684 198.855 146.684C199.153 146.68 199.432 146.808 199.693 147.069L200.207 147.583C200.418 147.795 200.543 148.021 200.581 148.262C200.615 148.5 200.564 148.732 200.428 148.958L200.451 148.981L202.481 149.699C202.576 149.725 202.587 149.774 202.515 149.846L202.261 150.101C202.197 150.165 202.123 150.186 202.04 150.163L200.038 149.428L199.291 150.174C199.253 150.212 199.251 150.248 199.285 150.282L200.603 151.6C200.656 151.653 200.656 151.705 200.603 151.758ZM198.946 149.829L199.8 148.975C200.124 148.651 200.124 148.326 199.8 148.002L199.297 147.499C198.968 147.17 198.642 147.169 198.318 147.493L197.464 148.347C197.426 148.385 197.424 148.421 197.458 148.455L198.838 149.835C198.872 149.869 198.908 149.867 198.946 149.829ZM204.196 148.165L203.941 148.42C203.889 148.473 203.836 148.473 203.783 148.42L200.638 145.275C200.604 145.241 200.568 145.243 200.53 145.28L199.761 146.05C199.704 146.106 199.65 146.108 199.597 146.055L199.393 145.852C199.341 145.799 199.342 145.744 199.399 145.688L201.464 143.623C201.52 143.566 201.575 143.565 201.628 143.617L201.831 143.821C201.884 143.874 201.882 143.928 201.826 143.985L201.056 144.754C201.019 144.792 201.017 144.828 201.051 144.862L204.196 148.007C204.249 148.06 204.249 148.113 204.196 148.165ZM205.801 146.56L205.507 146.854C205.481 146.881 205.454 146.892 205.428 146.888C205.401 146.877 205.383 146.854 205.371 146.82L204.545 144.015L201.955 143.302C201.917 143.294 201.896 143.277 201.892 143.251C201.885 143.221 201.894 143.193 201.921 143.166L202.203 142.883C202.264 142.823 202.332 142.808 202.407 142.838L204.557 143.472L204.579 143.449L203.934 141.311C203.912 141.228 203.927 141.16 203.98 141.107L204.274 140.813C204.3 140.786 204.327 140.779 204.353 140.79C204.379 140.794 204.398 140.813 204.41 140.847L205.111 143.438L207.917 144.275C207.955 144.282 207.977 144.301 207.985 144.331C207.992 144.354 207.983 144.379 207.956 144.405L207.657 144.705C207.604 144.758 207.543 144.769 207.476 144.739L205.151 144.032L205.128 144.054L205.841 146.374C205.863 146.449 205.85 146.511 205.801 146.56Z" fill="#55EAD4"/>
<path d="M119.619 41.944V41.584C119.619 41.4053 119.693 41.2587 119.843 41.144L120.615 40.536C120.748 40.4347 120.815 40.3093 120.815 40.16V40.016C120.815 39.7893 120.7 39.676 120.471 39.676H120.227C120.003 39.676 119.891 39.7893 119.891 40.016V40.18C119.891 40.22 119.872 40.24 119.835 40.24H119.655C119.62 40.24 119.603 40.22 119.603 40.18V40.012C119.603 39.828 119.655 39.6853 119.759 39.584C119.863 39.48 120.007 39.428 120.191 39.428H120.511C120.695 39.428 120.839 39.48 120.943 39.584C121.047 39.6853 121.099 39.828 121.099 40.012V40.176C121.099 40.384 121.016 40.5533 120.851 40.684L120.067 41.304C119.979 41.3733 119.935 41.4573 119.935 41.556V41.74H121.051C121.088 41.74 121.107 41.7587 121.107 41.796V41.944C121.107 41.9813 121.088 42 121.051 42H119.675C119.637 42 119.619 41.9813 119.619 41.944ZM121.452 39.98V39.82C121.452 39.78 121.468 39.7507 121.5 39.732L121.964 39.464C122.007 39.44 122.042 39.428 122.068 39.428H122.236C122.274 39.428 122.292 39.4467 122.292 39.484V41.944C122.292 41.9813 122.274 42 122.236 42H122.056C122.019 42 122 41.9813 122 41.944V39.74L121.524 40.012C121.476 40.0387 121.452 40.028 121.452 39.98Z" fill="#55EAD4"/>
<path d="M120.315 48.236V46.664L119.411 48.236H120.315ZM120.535 49H120.367C120.333 49 120.315 48.9813 120.315 48.944V48.492H119.203C119.147 48.492 119.119 48.464 119.119 48.408V48.312C119.119 48.2667 119.129 48.2267 119.147 48.192L120.123 46.508C120.147 46.4547 120.187 46.428 120.243 46.428H120.503C120.562 46.428 120.591 46.456 120.591 46.512V48.236H120.887C120.925 48.236 120.943 48.2533 120.943 48.288V48.432C120.943 48.472 120.925 48.492 120.887 48.492H120.591V48.944C120.591 48.9813 120.573 49 120.535 49ZM121.945 47.584H122.177C122.403 47.584 122.517 47.4707 122.517 47.244V47.016C122.517 46.7893 122.403 46.676 122.177 46.676H121.901C121.677 46.676 121.565 46.7893 121.565 47.016V47.144C121.565 47.184 121.546 47.204 121.509 47.204H121.329C121.291 47.204 121.273 47.184 121.273 47.144V47.012C121.273 46.828 121.325 46.6853 121.429 46.584C121.535 46.48 121.681 46.428 121.865 46.428H122.213C122.397 46.428 122.541 46.48 122.645 46.584C122.751 46.6853 122.805 46.828 122.805 47.012V47.248C122.805 47.4853 122.695 47.6387 122.477 47.708C122.695 47.764 122.805 47.916 122.805 48.164V48.416C122.805 48.6 122.751 48.744 122.645 48.848C122.541 48.9493 122.397 49 122.213 49H121.865C121.681 49 121.535 48.9493 121.429 48.848C121.325 48.744 121.273 48.6 121.273 48.416V48.256C121.273 48.216 121.291 48.196 121.329 48.196H121.509C121.546 48.196 121.565 48.216 121.565 48.256V48.412C121.565 48.6387 121.677 48.752 121.901 48.752H122.177C122.403 48.752 122.517 48.6387 122.517 48.412V48.168C122.517 47.9413 122.403 47.828 122.177 47.828H121.945C121.907 47.828 121.889 47.8093 121.889 47.772V47.64C121.889 47.6027 121.907 47.584 121.945 47.584Z" fill="#55EAD4"/>
<path d="M232.839 92.584H233.071C233.298 92.584 233.411 92.4707 233.411 92.244V92.016C233.411 91.7893 233.298 91.676 233.071 91.676H232.795C232.571 91.676 232.459 91.7893 232.459 92.016V92.144C232.459 92.184 232.441 92.204 232.403 92.204H232.223C232.186 92.204 232.167 92.184 232.167 92.144V92.012C232.167 91.828 232.219 91.6853 232.323 91.584C232.43 91.48 232.575 91.428 232.759 91.428H233.107C233.291 91.428 233.435 91.48 233.539 91.584C233.646 91.6853 233.699 91.828 233.699 92.012V92.248C233.699 92.4853 233.59 92.6387 233.371 92.708C233.59 92.764 233.699 92.916 233.699 93.164V93.416C233.699 93.6 233.646 93.744 233.539 93.848C233.435 93.9493 233.291 94 233.107 94H232.759C232.575 94 232.43 93.9493 232.323 93.848C232.219 93.744 232.167 93.6 232.167 93.416V93.256C232.167 93.216 232.186 93.196 232.223 93.196H232.403C232.441 93.196 232.459 93.216 232.459 93.256V93.412C232.459 93.6387 232.571 93.752 232.795 93.752H233.071C233.298 93.752 233.411 93.6387 233.411 93.412V93.168C233.411 92.9413 233.298 92.828 233.071 92.828H232.839C232.802 92.828 232.783 92.8093 232.783 92.772V92.64C232.783 92.6027 232.802 92.584 232.839 92.584ZM235.315 93.236V91.664L234.411 93.236H235.315ZM235.535 94H235.367C235.333 94 235.315 93.9813 235.315 93.944V93.492H234.203C234.147 93.492 234.119 93.464 234.119 93.408V93.312C234.119 93.2667 234.129 93.2267 234.147 93.192L235.123 91.508C235.147 91.4547 235.187 91.428 235.243 91.428H235.503C235.562 91.428 235.591 91.456 235.591 91.512V93.236H235.887C235.925 93.236 235.943 93.2533 235.943 93.288V93.432C235.943 93.472 235.925 93.492 235.887 93.492H235.591V93.944C235.591 93.9813 235.573 94 235.535 94Z" fill="#55EAD4"/>
<path d="M129.619 165.944V165.584C129.619 165.405 129.693 165.259 129.843 165.144L130.615 164.536C130.748 164.435 130.815 164.309 130.815 164.16V164.016C130.815 163.789 130.7 163.676 130.471 163.676H130.227C130.003 163.676 129.891 163.789 129.891 164.016V164.18C129.891 164.22 129.872 164.24 129.835 164.24H129.655C129.62 164.24 129.603 164.22 129.603 164.18V164.012C129.603 163.828 129.655 163.685 129.759 163.584C129.863 163.48 130.007 163.428 130.191 163.428H130.511C130.695 163.428 130.839 163.48 130.943 163.584C131.047 163.685 131.099 163.828 131.099 164.012V164.176C131.099 164.384 131.016 164.553 130.851 164.684L130.067 165.304C129.979 165.373 129.935 165.457 129.935 165.556V165.74H131.051C131.088 165.74 131.107 165.759 131.107 165.796V165.944C131.107 165.981 131.088 166 131.051 166H129.675C129.637 166 129.619 165.981 129.619 165.944ZM131.452 163.98V163.82C131.452 163.78 131.468 163.751 131.5 163.732L131.964 163.464C132.007 163.44 132.042 163.428 132.068 163.428H132.236C132.274 163.428 132.292 163.447 132.292 163.484V165.944C132.292 165.981 132.274 166 132.236 166H132.056C132.019 166 132 165.981 132 165.944V163.74L131.524 164.012C131.476 164.039 131.452 164.028 131.452 163.98Z" fill="#55EAD4"/>
<path d="M101.034 101.744H101.386C101.61 101.744 101.722 101.632 101.722 101.408V101.168C101.722 100.939 101.61 100.824 101.386 100.824H101.034C100.81 100.824 100.698 100.939 100.698 101.168V101.408C100.698 101.632 100.81 101.744 101.034 101.744ZM101.034 100.588H101.386C101.61 100.588 101.722 100.472 101.722 100.24V100.02C101.722 99.796 101.61 99.684 101.386 99.684H101.034C100.81 99.684 100.698 99.796 100.698 100.02V100.24C100.698 100.472 100.81 100.588 101.034 100.588ZM101.422 102H100.998C100.814 102 100.67 101.951 100.566 101.852C100.462 101.751 100.41 101.609 100.41 101.428V101.184C100.41 100.944 100.504 100.784 100.69 100.704C100.504 100.632 100.41 100.472 100.41 100.224V100C100.41 99.816 100.462 99.6747 100.566 99.576C100.67 99.4773 100.814 99.428 100.998 99.428H101.422C101.606 99.428 101.75 99.4773 101.854 99.576C101.958 99.6747 102.01 99.816 102.01 100V100.224C102.01 100.347 101.985 100.451 101.934 100.536C101.884 100.619 101.816 100.675 101.73 100.704C101.917 100.781 102.01 100.943 102.01 101.188V101.428C102.01 101.609 101.958 101.751 101.854 101.852C101.75 101.951 101.606 102 101.422 102ZM102.804 102H102.616C102.573 102 102.562 101.977 102.584 101.932L103.452 99.696H102.388C102.35 99.696 102.332 99.6773 102.332 99.64V99.484C102.332 99.4467 102.35 99.428 102.388 99.428H103.708C103.745 99.428 103.764 99.4467 103.764 99.484V99.652C103.764 99.6947 103.753 99.7373 103.732 99.78L102.896 101.948C102.882 101.983 102.852 102 102.804 102Z" fill="#55EAD4"/>
<path d="M11.8584 152.744H12.1864C12.4104 152.744 12.5224 152.628 12.5224 152.396V151.032C12.5224 150.8 12.4104 150.684 12.1864 150.684H11.8584C11.6371 150.684 11.5264 150.8 11.5264 151.032V152.396C11.5264 152.628 11.6371 152.744 11.8584 152.744ZM12.2224 153H11.8224C11.6411 153 11.4971 152.948 11.3904 152.844C11.2864 152.74 11.2344 152.595 11.2344 152.408V151.02C11.2344 150.836 11.2864 150.692 11.3904 150.588C11.4971 150.481 11.6411 150.428 11.8224 150.428H12.2224C12.4038 150.428 12.5464 150.481 12.6504 150.588C12.7571 150.692 12.8104 150.836 12.8104 151.02V152.408C12.8104 152.595 12.7571 152.74 12.6504 152.844C12.5464 152.948 12.4038 153 12.2224 153ZM14.1725 151.592H13.8765C13.7645 151.592 13.6912 151.625 13.6565 151.692C13.6219 151.756 13.5872 151.788 13.5525 151.788H13.3685C13.3312 151.788 13.3125 151.769 13.3125 151.732V150.484C13.3125 150.447 13.3312 150.428 13.3685 150.428H14.6925C14.7325 150.428 14.7525 150.447 14.7525 150.484V150.644C14.7525 150.681 14.7325 150.7 14.6925 150.7H13.6045V151.552C13.6552 151.419 13.7685 151.352 13.9445 151.352H14.2325C14.4139 151.352 14.5539 151.401 14.6525 151.5C14.7539 151.599 14.8045 151.74 14.8045 151.924V152.408C14.8045 152.595 14.7525 152.74 14.6485 152.844C14.5445 152.948 14.4005 153 14.2165 153H13.8885C13.7045 153 13.5592 152.948 13.4525 152.844C13.3485 152.74 13.2965 152.595 13.2965 152.408V152.284C13.2965 152.244 13.3152 152.224 13.3525 152.224H13.5325C13.5699 152.224 13.5885 152.244 13.5885 152.284V152.404C13.5885 152.636 13.6992 152.752 13.9205 152.752H14.1805C14.4072 152.752 14.5205 152.636 14.5205 152.404V151.96C14.5205 151.835 14.4925 151.743 14.4365 151.684C14.3805 151.623 14.2925 151.592 14.1725 151.592Z" fill="#55EAD4"/>
<path d="M70.3444 12.592H70.0484C69.9364 12.592 69.8631 12.6253 69.8284 12.692C69.7938 12.756 69.7591 12.788 69.7244 12.788H69.5404C69.5031 12.788 69.4844 12.7693 69.4844 12.732V11.484C69.4844 11.4467 69.5031 11.428 69.5404 11.428H70.8644C70.9044 11.428 70.9244 11.4467 70.9244 11.484V11.644C70.9244 11.6813 70.9044 11.7 70.8644 11.7H69.7764V12.552C69.8271 12.4187 69.9404 12.352 70.1164 12.352H70.4044C70.5858 12.352 70.7258 12.4013 70.8244 12.5C70.9258 12.5987 70.9764 12.74 70.9764 12.924V13.408C70.9764 13.5947 70.9244 13.74 70.8204 13.844C70.7164 13.948 70.5724 14 70.3884 14H70.0604C69.8764 14 69.7311 13.948 69.6244 13.844C69.5204 13.74 69.4684 13.5947 69.4684 13.408V13.284C69.4684 13.244 69.4871 13.224 69.5244 13.224H69.7044C69.7418 13.224 69.7604 13.244 69.7604 13.284V13.404C69.7604 13.636 69.8711 13.752 70.0924 13.752H70.3524C70.5791 13.752 70.6924 13.636 70.6924 13.404V12.96C70.6924 12.8347 70.6644 12.7427 70.6084 12.684C70.5524 12.6227 70.4644 12.592 70.3444 12.592ZM71.7295 14H71.5415C71.4988 14 71.4881 13.9773 71.5095 13.932L72.3775 11.696H71.3135C71.2761 11.696 71.2575 11.6773 71.2575 11.64V11.484C71.2575 11.4467 71.2761 11.428 71.3135 11.428H72.6335C72.6708 11.428 72.6895 11.4467 72.6895 11.484V11.652C72.6895 11.6947 72.6788 11.7373 72.6575 11.78L71.8215 13.948C71.8081 13.9827 71.7775 14 71.7295 14Z" fill="#55EAD4"/>
<path d="M179.786 14H179.598C179.555 14 179.545 13.9773 179.566 13.932L180.434 11.696H179.37C179.333 11.696 179.314 11.6773 179.314 11.64V11.484C179.314 11.4467 179.333 11.428 179.37 11.428H180.69C180.727 11.428 180.746 11.4467 180.746 11.484V11.652C180.746 11.6947 180.735 11.7373 180.714 11.78L179.878 13.948C179.865 13.9827 179.834 14 179.786 14ZM181.052 13.944V13.584C181.052 13.4053 181.127 13.2587 181.276 13.144L182.048 12.536C182.182 12.4347 182.248 12.3093 182.248 12.16V12.016C182.248 11.7893 182.134 11.676 181.904 11.676H181.66C181.436 11.676 181.324 11.7893 181.324 12.016V12.18C181.324 12.22 181.306 12.24 181.268 12.24H181.088C181.054 12.24 181.036 12.22 181.036 12.18V12.012C181.036 11.828 181.088 11.6853 181.192 11.584C181.296 11.48 181.44 11.428 181.624 11.428H181.944C182.128 11.428 182.272 11.48 182.376 11.584C182.48 11.6853 182.532 11.828 182.532 12.012V12.176C182.532 12.384 182.45 12.5533 182.284 12.684L181.5 13.304C181.412 13.3733 181.368 13.4573 181.368 13.556V13.74H182.484C182.522 13.74 182.54 13.7587 182.54 13.796V13.944C182.54 13.9813 182.522 14 182.484 14H181.108C181.071 14 181.052 13.9813 181.052 13.944Z" fill="#55EAD4"/>
</svg>
