<svg width="9" height="190" viewBox="0 0 9 190" fill="none" xmlns="http://www.w3.org/2000/svg">
<path d="M9 0V190H5H0V188L2 186V176L3 175V169L5 167V4L9 0Z" fill="#EB2941"/>
<path d="M3 7L4 6V21L3 20V7Z" fill="#EF4444"/>
<path d="M2 92L4 90V120L2 118V92Z" fill="#EF4444"/>
<path d="M4 84.829L3.181 84.829C3.107 84.829 3.041 84.812 2.983 84.778C2.925 84.742 2.879 84.695 2.845 84.637C2.809 84.577 2.791 84.511 2.791 84.439L2.791 83.068C2.791 83.048 2.784 83.031 2.77 83.017C2.754 83.001 2.736 82.993 2.716 82.993L2.239 82.993C2.219 82.993 2.202 83.001 2.188 83.017C2.172 83.031 2.164 83.048 2.164 83.068L2.164 84.43C2.164 84.45 2.172 84.468 2.188 84.484C2.202 84.498 2.219 84.505 2.239 84.505L2.356 84.505L2.356 84.829L2.23 84.829C2.156 84.829 2.09 84.812 2.032 84.778C1.974 84.742 1.927 84.695 1.891 84.637C1.855 84.577 1.837 84.511 1.837 84.439L1.837 83.059C1.837 82.989 1.855 82.925 1.891 82.867C1.927 82.807 1.974 82.759 2.032 82.723C2.09 82.687 2.156 82.669 2.23 82.669L2.725 82.669C2.797 82.669 2.863 82.687 2.923 82.723C2.981 82.759 3.028 82.807 3.064 82.867C3.098 82.925 3.115 82.989 3.115 83.059L3.115 84.43C3.115 84.45 3.123 84.468 3.139 84.484C3.153 84.498 3.17 84.505 3.19 84.505L3.601 84.505C3.621 84.505 3.639 84.498 3.655 84.484C3.669 84.468 3.676 84.45 3.676 84.43L3.676 82.669L4 82.669L4 84.829ZM4 81.9578C4 82.0318 3.982 82.0978 3.946 82.1558C3.91 82.2138 3.863 82.2608 3.805 82.2968C3.747 82.3328 3.682 82.3508 3.61 82.3508L3.52 82.3508L3.52 82.0238L3.601 82.0238C3.621 82.0238 3.639 82.0168 3.655 82.0028C3.669 81.9888 3.676 81.9718 3.676 81.9518L3.676 80.5868C3.676 80.5668 3.669 80.5498 3.655 80.5358C3.639 80.5218 3.621 80.5148 3.601 80.5148L3.139 80.5148C3.119 80.5148 3.102 80.5218 3.088 80.5358C3.072 80.5498 3.064 80.5668 3.064 80.5868L3.064 81.9578L2.74 81.9578L2.74 80.6798C2.74 80.6578 2.733 80.6398 2.719 80.6258C2.703 80.6118 2.685 80.6048 2.665 80.6048L2.239 80.6048C2.219 80.6048 2.202 80.6118 2.188 80.6258C2.172 80.6398 2.164 80.6578 2.164 80.6798L2.164 81.9518C2.164 81.9718 2.172 81.9888 2.188 82.0028C2.202 82.0168 2.219 82.0238 2.239 82.0238L2.35 82.0238L2.35 82.3508L2.23 82.3508C2.156 82.3508 2.09 82.3338 2.032 82.2998C1.974 82.2638 1.927 82.2158 1.891 82.1558C1.855 82.0958 1.837 82.0298 1.837 81.9578L1.837 80.6708C1.837 80.5968 1.855 80.5308 1.891 80.4728C1.927 80.4128 1.974 80.3658 2.032 80.3318C2.09 80.2978 2.156 80.2808 2.23 80.2808L2.674 80.2808C2.7 80.2808 2.726 80.2838 2.752 80.2898C2.778 80.2938 2.802 80.3008 2.824 80.3108C2.868 80.2668 2.917 80.2358 2.971 80.2178C3.025 80.1998 3.078 80.1908 3.13 80.1908L3.61 80.1908C3.682 80.1908 3.747 80.2088 3.805 80.2448C3.863 80.2788 3.91 80.3258 3.946 80.3858C3.982 80.4438 4 80.5078 4 80.5778L4 81.9578ZM3.274 79.8542L2.95 79.8542L2.95 78.6542L3.274 78.6542L3.274 79.8542ZM4 78.3044L1.84 78.3044L1.84 76.6244C1.84 76.5544 1.858 76.4894 1.894 76.4294C1.928 76.3694 1.975 76.3224 2.035 76.2884C2.093 76.2524 2.158 76.2344 2.23 76.2344L2.671 76.2344C2.697 76.2344 2.723 76.2374 2.749 76.2434C2.775 76.2474 2.799 76.2554 2.821 76.2674C2.877 76.2274 2.93 76.1974 2.98 76.1774C3.028 76.1554 3.077 76.1444 3.127 76.1444L3.61 76.1444C3.682 76.1444 3.748 76.1624 3.808 76.1984C3.866 76.2324 3.913 76.2794 3.949 76.3394C3.983 76.3994 4 76.4654 4 76.5374L4 78.3044ZM3.676 77.9054L3.676 76.5434C3.676 76.5234 3.669 76.5064 3.655 76.4924C3.639 76.4784 3.621 76.4714 3.601 76.4714L3.136 76.4714C3.116 76.4714 3.099 76.4784 3.085 76.4924C3.069 76.5064 3.061 76.5234 3.061 76.5434L3.061 77.9054C3.061 77.9254 3.069 77.9434 3.085 77.9594C3.099 77.9734 3.116 77.9804 3.136 77.9804L3.601 77.9804C3.621 77.9804 3.639 77.9734 3.655 77.9594C3.669 77.9434 3.676 77.9254 3.676 77.9054ZM2.737 77.9054L2.737 76.6334C2.737 76.6134 2.73 76.5964 2.716 76.5824C2.7 76.5684 2.682 76.5614 2.662 76.5614L2.239 76.5614C2.219 76.5614 2.202 76.5684 2.188 76.5824C2.172 76.5964 2.164 76.6134 2.164 76.6334L2.164 77.9054C2.164 77.9254 2.172 77.9434 2.188 77.9594C2.202 77.9734 2.219 77.9804 2.239 77.9804L2.662 77.9804C2.682 77.9804 2.7 77.9734 2.716 77.9594C2.73 77.9434 2.737 77.9254 2.737 77.9054ZM4 75.8114L1.84 75.8114L1.84 74.0444C1.84 73.9724 1.858 73.9064 1.894 73.8464C1.928 73.7864 1.975 73.7394 2.035 73.7054C2.093 73.6694 2.158 73.6514 2.23 73.6514L3.61 73.6514C3.682 73.6514 3.748 73.6694 3.808 73.7054C3.866 73.7394 3.913 73.7864 3.949 73.8464C3.983 73.9064 4 73.9724 4 74.0444L4 75.8114ZM3.676 75.4154L3.676 74.0504C3.676 74.0304 3.669 74.0134 3.655 73.9994C3.639 73.9854 3.621 73.9784 3.601 73.9784L2.239 73.9784C2.219 73.9784 2.202 73.9854 2.188 73.9994C2.172 74.0134 2.164 74.0304 2.164 74.0504L2.164 75.4154C2.164 75.4354 2.172 75.4524 2.188 75.4664C2.202 75.4804 2.219 75.4874 2.239 75.4874L3.601 75.4874C3.621 75.4874 3.639 75.4804 3.655 75.4664C3.669 75.4524 3.676 75.4354 3.676 75.4154ZM3.274 73.3064L2.95 73.3064L2.95 72.1064L3.274 72.1064L3.274 73.3064ZM4 71.3816C4 71.4556 3.982 71.5216 3.946 71.5796C3.91 71.6376 3.863 71.6846 3.805 71.7206C3.747 71.7566 3.682 71.7746 3.61 71.7746L3.52 71.7746L3.52 71.4476L3.601 71.4476C3.621 71.4476 3.639 71.4406 3.655 71.4266C3.669 71.4126 3.676 71.3956 3.676 71.3756L3.676 70.0106C3.676 69.9906 3.669 69.9736 3.655 69.9596C3.639 69.9456 3.621 69.9386 3.601 69.9386L3.139 69.9386C3.119 69.9386 3.102 69.9456 3.088 69.9596C3.072 69.9736 3.064 69.9906 3.064 70.0106L3.064 71.3816L2.74 71.3816L2.74 70.1036C2.74 70.0816 2.733 70.0636 2.719 70.0496C2.703 70.0356 2.685 70.0286 2.665 70.0286L2.239 70.0286C2.219 70.0286 2.202 70.0356 2.188 70.0496C2.172 70.0636 2.164 70.0816 2.164 70.1036L2.164 71.3756C2.164 71.3956 2.172 71.4126 2.188 71.4266C2.202 71.4406 2.219 71.4476 2.239 71.4476L2.35 71.4476L2.35 71.7746L2.23 71.7746C2.156 71.7746 2.09 71.7576 2.032 71.7236C1.974 71.6876 1.927 71.6396 1.891 71.5796C1.855 71.5196 1.837 71.4536 1.837 71.3816L1.837 70.0946C1.837 70.0206 1.855 69.9546 1.891 69.8966C1.927 69.8366 1.974 69.7896 2.032 69.7556C2.09 69.7216 2.156 69.7046 2.23 69.7046L2.674 69.7046C2.7 69.7046 2.726 69.7076 2.752 69.7136C2.778 69.7176 2.802 69.7246 2.824 69.7346C2.868 69.6906 2.917 69.6596 2.971 69.6416C3.025 69.6236 3.078 69.6146 3.13 69.6146L3.61 69.6146C3.682 69.6146 3.747 69.6326 3.805 69.6686C3.863 69.7026 3.91 69.7496 3.946 69.8096C3.982 69.8676 4 69.9316 4 70.0016L4 71.3816ZM4 68.9031C4 68.9771 3.982 69.0431 3.946 69.1011C3.91 69.1591 3.863 69.2061 3.805 69.2421C3.747 69.2781 3.682 69.2961 3.61 69.2961L3.52 69.2961L3.52 68.9691L3.601 68.9691C3.621 68.9691 3.639 68.9621 3.655 68.9481C3.669 68.9341 3.676 68.9171 3.676 68.8971L3.676 67.5321C3.676 67.5121 3.669 67.4951 3.655 67.4811C3.639 67.4671 3.621 67.4601 3.601 67.4601L3.139 67.4601C3.119 67.4601 3.102 67.4671 3.088 67.4811C3.072 67.4951 3.064 67.5121 3.064 67.5321L3.064 68.9031L2.74 68.9031L2.74 67.6251C2.74 67.6031 2.733 67.5851 2.719 67.5711C2.703 67.5571 2.685 67.5501 2.665 67.5501L2.239 67.5501C2.219 67.5501 2.202 67.5571 2.188 67.5711C2.172 67.5851 2.164 67.6031 2.164 67.6251L2.164 68.8971C2.164 68.9171 2.172 68.9341 2.188 68.9481C2.202 68.9621 2.219 68.9691 2.239 68.9691L2.35 68.9691L2.35 69.2961L2.23 69.2961C2.156 69.2961 2.09 69.2791 2.032 69.2451C1.974 69.2091 1.927 69.1611 1.891 69.1011C1.855 69.0411 1.837 68.9751 1.837 68.9031L1.837 67.6161C1.837 67.5421 1.855 67.4761 1.891 67.4181C1.927 67.3581 1.974 67.3111 2.032 67.2771C2.09 67.2431 2.156 67.2261 2.23 67.2261L2.674 67.2261C2.7 67.2261 2.726 67.2291 2.752 67.2351C2.778 67.2391 2.802 67.2461 2.824 67.2561C2.868 67.2121 2.917 67.1811 2.971 67.1631C3.025 67.1451 3.078 67.1361 3.13 67.1361L3.61 67.1361C3.682 67.1361 3.747 67.1541 3.805 67.1901C3.863 67.2241 3.91 67.2711 3.946 67.3311C3.982 67.3891 4 67.4531 4 67.5231L4 68.9031ZM3.274 66.7996L2.95 66.7996L2.95 65.5996L3.274 65.5996L3.274 66.7996ZM4 64.8778C4 64.9378 3.986 64.9938 3.958 65.0458C3.93 65.0978 3.892 65.1428 3.844 65.1808C3.794 65.2188 3.738 65.2458 3.676 65.2618L3.676 63.5068C3.676 63.4868 3.669 63.4698 3.655 63.4558C3.639 63.4398 3.621 63.4318 3.601 63.4318L3.187 63.4318C3.165 63.4318 3.147 63.4398 3.133 63.4558C3.119 63.4698 3.112 63.4868 3.112 63.5068L3.112 64.8778C3.112 64.9518 3.094 65.0178 3.058 65.0758C3.022 65.1338 2.975 65.1808 2.917 65.2168C2.857 65.2528 2.792 65.2708 2.722 65.2708L2.23 65.2708C2.156 65.2708 2.09 65.2528 2.032 65.2168C1.974 65.1808 1.927 65.1338 1.891 65.0758C1.855 65.0158 1.837 64.9498 1.837 64.8778L1.837 63.4978C1.837 63.4278 1.855 63.3638 1.891 63.3058C1.927 63.2458 1.974 63.1988 2.032 63.1648C2.09 63.1288 2.156 63.1108 2.23 63.1108L3.61 63.1108C3.682 63.1108 3.747 63.1288 3.805 63.1648C3.863 63.1988 3.91 63.2458 3.946 63.3058C3.982 63.3638 4 63.4278 4 63.4978L4 64.8778ZM2.785 64.8688L2.785 63.4318L2.239 63.4318C2.219 63.4318 2.202 63.4398 2.188 63.4558C2.172 63.4698 2.164 63.4868 2.164 63.5068L2.164 64.8688C2.164 64.8888 2.172 64.9068 2.188 64.9228C2.202 64.9368 2.219 64.9438 2.239 64.9438L2.713 64.9438C2.733 64.9438 2.75 64.9368 2.764 64.9228C2.778 64.9068 2.785 64.8888 2.785 64.8688ZM4 62.3814C4 62.4534 3.982 62.5194 3.946 62.5794C3.91 62.6374 3.863 62.6844 3.805 62.7204C3.747 62.7544 3.682 62.7714 3.61 62.7714L3.121 62.7714C3.083 62.7714 3.045 62.7644 3.007 62.7504C2.967 62.7364 2.929 62.7184 2.893 62.6964C2.857 62.7184 2.82 62.7364 2.782 62.7504C2.742 62.7644 2.703 62.7714 2.665 62.7714L2.23 62.7714C2.156 62.7714 2.09 62.7544 2.032 62.7204C1.974 62.6844 1.927 62.6374 1.891 62.5794C1.855 62.5194 1.837 62.4534 1.837 62.3814L1.837 61.0014C1.837 60.9414 1.852 60.8844 1.882 60.8304C1.912 60.7764 1.952 60.7304 2.002 60.6924C2.052 60.6524 2.106 60.6254 2.164 60.6114L2.665 60.6114C2.741 60.6114 2.817 60.6374 2.893 60.6894C2.965 60.6374 3.041 60.6114 3.121 60.6114L3.61 60.6114C3.682 60.6114 3.747 60.6294 3.805 60.6654C3.863 60.7014 3.91 60.7494 3.946 60.8094C3.982 60.8674 4 60.9314 4 61.0014L4 62.3814ZM3.676 62.3724L3.676 61.0104C3.676 60.9904 3.669 60.9734 3.655 60.9594C3.639 60.9434 3.621 60.9354 3.601 60.9354L3.13 60.9354C3.11 60.9354 3.093 60.9434 3.079 60.9594C3.063 60.9734 3.055 60.9904 3.055 61.0104L3.055 62.3724C3.055 62.3924 3.063 62.4104 3.079 62.4264C3.093 62.4404 3.11 62.4474 3.13 62.4474L3.601 62.4474C3.621 62.4474 3.639 62.4404 3.655 62.4264C3.669 62.4104 3.676 62.3924 3.676 62.3724ZM2.764 62.3724L2.764 61.0104C2.764 60.9904 2.757 60.9734 2.743 60.9594C2.727 60.9434 2.709 60.9354 2.689 60.9354L2.242 60.9354C2.222 60.9354 2.205 60.9434 2.191 60.9594C2.175 60.9734 2.167 60.9904 2.167 61.0104L2.167 62.3724C2.167 62.3924 2.175 62.4104 2.191 62.4264C2.205 62.4404 2.222 62.4474 2.242 62.4474L2.689 62.4474C2.709 62.4474 2.727 62.4404 2.743 62.4264C2.757 62.4104 2.764 62.3924 2.764 62.3724ZM3.274 60.2634L2.95 60.2634L2.95 59.0634L3.274 59.0634L3.274 60.2634ZM4 58.4886C4 58.5606 3.983 58.6266 3.949 58.6866C3.913 58.7446 3.866 58.7916 3.808 58.8276C3.748 58.8616 3.682 58.8786 3.61 58.8786L3.4 58.8786L3.4 58.5546L3.601 58.5546C3.621 58.5546 3.639 58.5476 3.655 58.5336C3.669 58.5176 3.676 58.4996 3.676 58.4796L3.676 57.1176C3.676 57.0976 3.669 57.0806 3.655 57.0666C3.639 57.0526 3.621 57.0456 3.601 57.0456L1.84 57.0456L1.84 56.7186L3.61 56.7186C3.682 56.7186 3.748 56.7366 3.808 56.7726C3.866 56.8066 3.913 56.8536 3.949 56.9136C3.983 56.9736 4 57.0386 4 57.1086L4 58.4886ZM4 56.3908L1.84 56.3908L1.84 56.0668L4 56.0668L4 56.3908ZM3.274 55.7312L2.95 55.7312L2.95 54.5312L3.274 54.5312L3.274 55.7312ZM4 53.8124C4 53.8824 3.983 53.9474 3.949 54.0074C3.913 54.0674 3.866 54.1154 3.808 54.1514C3.748 54.1854 3.682 54.2024 3.61 54.2024L3.484 54.2024L3.484 53.8784L3.601 53.8784C3.621 53.8784 3.639 53.8714 3.655 53.8574C3.669 53.8414 3.676 53.8234 3.676 53.8034L3.676 52.4414C3.676 52.4214 3.669 52.4044 3.655 52.3904C3.639 52.3764 3.621 52.3694 3.601 52.3694L3.157 52.3694C3.135 52.3694 3.117 52.3764 3.103 52.3904C3.089 52.4044 3.082 52.4214 3.082 52.4414L3.082 53.8124C3.082 53.8824 3.065 53.9474 3.031 54.0074C2.995 54.0674 2.948 54.1154 2.89 54.1514C2.83 54.1854 2.764 54.2024 2.692 54.2024L2.23 54.2024C2.158 54.2024 2.093 54.1854 2.035 54.1514C1.975 54.1154 1.928 54.0674 1.894 54.0074C1.858 53.9474 1.84 53.8824 1.84 53.8124L1.84 52.4324C1.84 52.3624 1.858 52.2974 1.894 52.2374C1.928 52.1774 1.975 52.1304 2.035 52.0964C2.093 52.0604 2.158 52.0424 2.23 52.0424L2.356 52.0424L2.356 52.3694L2.239 52.3694C2.219 52.3694 2.202 52.3764 2.188 52.3904C2.172 52.4044 2.164 52.4214 2.164 52.4414L2.164 53.8034C2.164 53.8234 2.172 53.8414 2.188 53.8574C2.202 53.8714 2.219 53.8784 2.239 53.8784L2.683 53.8784C2.705 53.8784 2.723 53.8714 2.737 53.8574C2.751 53.8414 2.758 53.8234 2.758 53.8034L2.758 52.4324C2.758 52.3624 2.776 52.2974 2.812 52.2374C2.846 52.1774 2.893 52.1304 2.953 52.0964C3.011 52.0604 3.076 52.0424 3.148 52.0424L3.61 52.0424C3.682 52.0424 3.748 52.0604 3.808 52.0964C3.866 52.1304 3.913 52.1774 3.949 52.2374C3.983 52.2974 4 52.3624 4 52.4324L4 53.8124ZM4 51.3277C4 51.3997 3.983 51.4657 3.949 51.5257C3.913 51.5837 3.866 51.6307 3.808 51.6667C3.748 51.7007 3.682 51.7177 3.61 51.7177L2.23 51.7177C2.158 51.7177 2.093 51.7007 2.035 51.6667C1.975 51.6307 1.928 51.5837 1.894 51.5257C1.858 51.4657 1.84 51.3997 1.84 51.3277L1.84 49.9507C1.84 49.8787 1.858 49.8127 1.894 49.7527C1.928 49.6927 1.975 49.6457 2.035 49.6117C2.093 49.5757 2.158 49.5577 2.23 49.5577L2.359 49.5577L2.359 49.8847L2.239 49.8847C2.219 49.8847 2.202 49.8917 2.188 49.9057C2.172 49.9197 2.164 49.9367 2.164 49.9567L2.164 51.3187C2.164 51.3387 2.172 51.3567 2.188 51.3727C2.202 51.3867 2.219 51.3937 2.239 51.3937L3.601 51.3937C3.621 51.3937 3.639 51.3867 3.655 51.3727C3.669 51.3567 3.676 51.3387 3.676 51.3187L3.676 49.9567C3.676 49.9367 3.669 49.9197 3.655 49.9057C3.639 49.8917 3.621 49.8847 3.601 49.8847L3.142 49.8847L3.142 50.3947L2.815 50.3947L2.815 49.5577L3.61 49.5577C3.682 49.5577 3.748 49.5757 3.808 49.6117C3.866 49.6457 3.913 49.6927 3.949 49.7527C3.983 49.8127 4 49.8787 4 49.9507L4 51.3277ZM2.569 49.2335L2.245 49.2335L2.245 48.9095L2.569 48.9095L2.569 49.2335ZM4 49.2335L3.676 49.2335L3.676 48.9095L4 48.9095L4 49.2335ZM2.569 48.5567L2.245 48.5567L2.245 48.2327L2.569 48.2327L2.569 48.5567ZM4 48.5567L3.676 48.5567L3.676 48.2327L4 48.2327L4 48.5567ZM4 47.49C4 47.564 3.982 47.63 3.946 47.688C3.91 47.746 3.863 47.793 3.805 47.829C3.747 47.865 3.682 47.883 3.61 47.883L3.52 47.883L3.52 47.556L3.601 47.556C3.621 47.556 3.639 47.549 3.655 47.535C3.669 47.521 3.676 47.504 3.676 47.484L3.676 46.119C3.676 46.099 3.669 46.082 3.655 46.068C3.639 46.054 3.621 46.047 3.601 46.047L3.139 46.047C3.119 46.047 3.102 46.054 3.088 46.068C3.072 46.082 3.064 46.099 3.064 46.119L3.064 47.49L2.74 47.49L2.74 46.212C2.74 46.19 2.733 46.172 2.719 46.158C2.703 46.144 2.685 46.137 2.665 46.137L2.239 46.137C2.219 46.137 2.202 46.144 2.188 46.158C2.172 46.172 2.164 46.19 2.164 46.212L2.164 47.484C2.164 47.504 2.172 47.521 2.188 47.535C2.202 47.549 2.219 47.556 2.239 47.556L2.35 47.556L2.35 47.883L2.23 47.883C2.156 47.883 2.09 47.866 2.032 47.832C1.974 47.796 1.927 47.748 1.891 47.688C1.855 47.628 1.837 47.562 1.837 47.49L1.837 46.203C1.837 46.129 1.855 46.063 1.891 46.005C1.927 45.945 1.974 45.898 2.032 45.864C2.09 45.83 2.156 45.813 2.23 45.813L2.674 45.813C2.7 45.813 2.726 45.816 2.752 45.822C2.778 45.826 2.802 45.833 2.824 45.843C2.868 45.799 2.917 45.768 2.971 45.75C3.025 45.732 3.078 45.723 3.13 45.723L3.61 45.723C3.682 45.723 3.747 45.741 3.805 45.777C3.863 45.811 3.91 45.858 3.946 45.918C3.982 45.976 4 46.04 4 46.11L4 47.49ZM4 45.0115C4 45.0855 3.982 45.1515 3.946 45.2095C3.91 45.2675 3.863 45.3145 3.805 45.3505C3.747 45.3865 3.682 45.4045 3.61 45.4045L3.52 45.4045L3.52 45.0775L3.601 45.0775C3.621 45.0775 3.639 45.0705 3.655 45.0565C3.669 45.0425 3.676 45.0255 3.676 45.0055L3.676 43.6405C3.676 43.6205 3.669 43.6035 3.655 43.5895C3.639 43.5755 3.621 43.5685 3.601 43.5685L3.139 43.5685C3.119 43.5685 3.102 43.5755 3.088 43.5895C3.072 43.6035 3.064 43.6205 3.064 43.6405L3.064 45.0115L2.74 45.0115L2.74 43.7335C2.74 43.7115 2.733 43.6935 2.719 43.6795C2.703 43.6655 2.685 43.6585 2.665 43.6585L2.239 43.6585C2.219 43.6585 2.202 43.6655 2.188 43.6795C2.172 43.6935 2.164 43.7115 2.164 43.7335L2.164 45.0055C2.164 45.0255 2.172 45.0425 2.188 45.0565C2.202 45.0705 2.219 45.0775 2.239 45.0775L2.35 45.0775L2.35 45.4045L2.23 45.4045C2.156 45.4045 2.09 45.3875 2.032 45.3535C1.974 45.3175 1.927 45.2695 1.891 45.2095C1.855 45.1495 1.837 45.0835 1.837 45.0115L1.837 43.7245C1.837 43.6505 1.855 43.5845 1.891 43.5265C1.927 43.4665 1.974 43.4195 2.032 43.3855C2.09 43.3515 2.156 43.3345 2.23 43.3345L2.674 43.3345C2.7 43.3345 2.726 43.3375 2.752 43.3435C2.778 43.3475 2.802 43.3545 2.824 43.3645C2.868 43.3205 2.917 43.2895 2.971 43.2715C3.025 43.2535 3.078 43.2445 3.13 43.2445L3.61 43.2445C3.682 43.2445 3.747 43.2625 3.805 43.2985C3.863 43.3325 3.91 43.3795 3.946 43.4395C3.982 43.4975 4 43.5615 4 43.6315L4 45.0115ZM4 42.533C4 42.607 3.982 42.673 3.946 42.731C3.91 42.789 3.863 42.836 3.805 42.872C3.747 42.908 3.682 42.926 3.61 42.926L3.52 42.926L3.52 42.599L3.601 42.599C3.621 42.599 3.639 42.592 3.655 42.578C3.669 42.564 3.676 42.547 3.676 42.527L3.676 41.162C3.676 41.142 3.669 41.125 3.655 41.111C3.639 41.097 3.621 41.09 3.601 41.09L3.139 41.09C3.119 41.09 3.102 41.097 3.088 41.111C3.072 41.125 3.064 41.142 3.064 41.162L3.064 42.533L2.74 42.533L2.74 41.255C2.74 41.233 2.733 41.215 2.719 41.201C2.703 41.187 2.685 41.18 2.665 41.18L2.239 41.18C2.219 41.18 2.202 41.187 2.188 41.201C2.172 41.215 2.164 41.233 2.164 41.255L2.164 42.527C2.164 42.547 2.172 42.564 2.188 42.578C2.202 42.592 2.219 42.599 2.239 42.599L2.35 42.599L2.35 42.926L2.23 42.926C2.156 42.926 2.09 42.909 2.032 42.875C1.974 42.839 1.927 42.791 1.891 42.731C1.855 42.671 1.837 42.605 1.837 42.533L1.837 41.246C1.837 41.172 1.855 41.106 1.891 41.048C1.927 40.988 1.974 40.941 2.032 40.907C2.09 40.873 2.156 40.856 2.23 40.856L2.674 40.856C2.7 40.856 2.726 40.859 2.752 40.865C2.778 40.869 2.802 40.876 2.824 40.886C2.868 40.842 2.917 40.811 2.971 40.793C3.025 40.775 3.078 40.766 3.13 40.766L3.61 40.766C3.682 40.766 3.747 40.784 3.805 40.82C3.863 40.854 3.91 40.901 3.946 40.961C3.982 41.019 4 41.083 4 41.153L4 42.533ZM4 39.9284L2.269 39.9284L2.569 40.1774L2.569 40.6034L1.84 39.9914L1.84 39.6044L4 39.6044L4 39.9284ZM4 39.2726L3.676 39.2726L3.676 38.9486L4 38.9486L4 39.2726ZM4 38.0945L2.269 38.0945L2.569 38.3435L2.569 38.7695L1.84 38.1575L1.84 37.7705L4 37.7705L4 38.0945ZM4 37.4296L3.181 37.4296C3.107 37.4296 3.041 37.4126 2.983 37.3786C2.925 37.3426 2.879 37.2956 2.845 37.2376C2.809 37.1776 2.791 37.1116 2.791 37.0396L2.791 35.6686C2.791 35.6486 2.784 35.6316 2.77 35.6176C2.754 35.6016 2.736 35.5936 2.716 35.5936L2.239 35.5936C2.219 35.5936 2.202 35.6016 2.188 35.6176C2.172 35.6316 2.164 35.6486 2.164 35.6686L2.164 37.0306C2.164 37.0506 2.172 37.0686 2.188 37.0846C2.202 37.0986 2.219 37.1056 2.239 37.1056L2.356 37.1056L2.356 37.4296L2.23 37.4296C2.156 37.4296 2.09 37.4126 2.032 37.3786C1.974 37.3426 1.927 37.2956 1.891 37.2376C1.855 37.1776 1.837 37.1116 1.837 37.0396L1.837 35.6596C1.837 35.5896 1.855 35.5256 1.891 35.4676C1.927 35.4076 1.974 35.3596 2.032 35.3236C2.09 35.2876 2.156 35.2696 2.23 35.2696L2.725 35.2696C2.797 35.2696 2.863 35.2876 2.923 35.3236C2.981 35.3596 3.028 35.4076 3.064 35.4676C3.098 35.5256 3.115 35.5896 3.115 35.6596L3.115 37.0306C3.115 37.0506 3.123 37.0686 3.139 37.0846C3.153 37.0986 3.17 37.1056 3.19 37.1056L3.601 37.1056C3.621 37.1056 3.639 37.0986 3.655 37.0846C3.669 37.0686 3.676 37.0506 3.676 37.0306L3.676 35.2696L4 35.2696L4 37.4296ZM4 34.9394L3.181 34.9394C3.107 34.9394 3.041 34.9224 2.983 34.8884C2.925 34.8524 2.879 34.8054 2.845 34.7474C2.809 34.6874 2.791 34.6214 2.791 34.5494L2.791 33.1784C2.791 33.1584 2.784 33.1414 2.77 33.1274C2.754 33.1114 2.736 33.1034 2.716 33.1034L2.239 33.1034C2.219 33.1034 2.202 33.1114 2.188 33.1274C2.172 33.1414 2.164 33.1584 2.164 33.1784L2.164 34.5404C2.164 34.5604 2.172 34.5784 2.188 34.5944C2.202 34.6084 2.219 34.6154 2.239 34.6154L2.356 34.6154L2.356 34.9394L2.23 34.9394C2.156 34.9394 2.09 34.9224 2.032 34.8884C1.974 34.8524 1.927 34.8054 1.891 34.7474C1.855 34.6874 1.837 34.6214 1.837 34.5494L1.837 33.1694C1.837 33.0994 1.855 33.0354 1.891 32.9774C1.927 32.9174 1.974 32.8694 2.032 32.8334C2.09 32.7974 2.156 32.7794 2.23 32.7794L2.725 32.7794C2.797 32.7794 2.863 32.7974 2.923 32.8334C2.981 32.8694 3.028 32.9174 3.064 32.9774C3.098 33.0354 3.115 33.0994 3.115 33.1694L3.115 34.5404C3.115 34.5604 3.123 34.5784 3.139 34.5944C3.153 34.6084 3.17 34.6154 3.19 34.6154L3.601 34.6154C3.621 34.6154 3.639 34.6084 3.655 34.5944C3.669 34.5784 3.676 34.5604 3.676 34.5404L3.676 32.7794L4 32.7794L4 34.9394ZM4 32.0681C4 32.1421 3.982 32.2081 3.946 32.2661C3.91 32.3241 3.863 32.3711 3.805 32.4071C3.747 32.4431 3.682 32.4611 3.61 32.4611L3.52 32.4611L3.52 32.1341L3.601 32.1341C3.621 32.1341 3.639 32.1271 3.655 32.1131C3.669 32.0991 3.676 32.0821 3.676 32.0621L3.676 30.6971C3.676 30.6771 3.669 30.6601 3.655 30.6461C3.639 30.6321 3.621 30.6251 3.601 30.6251L3.139 30.6251C3.119 30.6251 3.102 30.6321 3.088 30.6461C3.072 30.6601 3.064 30.6771 3.064 30.6971L3.064 32.0681L2.74 32.0681L2.74 30.7901C2.74 30.7681 2.733 30.7501 2.719 30.7361C2.703 30.7221 2.685 30.7151 2.665 30.7151L2.239 30.7151C2.219 30.7151 2.202 30.7221 2.188 30.7361C2.172 30.7501 2.164 30.7681 2.164 30.7901L2.164 32.0621C2.164 32.0821 2.172 32.0991 2.188 32.1131C2.202 32.1271 2.219 32.1341 2.239 32.1341L2.35 32.1341L2.35 32.4611L2.23 32.4611C2.156 32.4611 2.09 32.4441 2.032 32.4101C1.974 32.3741 1.927 32.3261 1.891 32.2661C1.855 32.2061 1.837 32.1401 1.837 32.0681L1.837 30.7811C1.837 30.7071 1.855 30.6411 1.891 30.5831C1.927 30.5231 1.974 30.4761 2.032 30.4421C2.09 30.4081 2.156 30.3911 2.23 30.3911L2.674 30.3911C2.7 30.3911 2.726 30.3941 2.752 30.4001C2.778 30.4041 2.802 30.4111 2.824 30.4211C2.868 30.3771 2.917 30.3461 2.971 30.3281C3.025 30.3101 3.078 30.3011 3.13 30.3011L3.61 30.3011C3.682 30.3011 3.747 30.3191 3.805 30.3551C3.863 30.3891 3.91 30.4361 3.946 30.4961C3.982 30.5541 4 30.6181 4 30.6881L4 32.0681ZM4 29.5896C4 29.6636 3.982 29.7296 3.946 29.7876C3.91 29.8456 3.863 29.8926 3.805 29.9286C3.747 29.9646 3.682 29.9826 3.61 29.9826L3.52 29.9826L3.52 29.6556L3.601 29.6556C3.621 29.6556 3.639 29.6486 3.655 29.6346C3.669 29.6206 3.676 29.6036 3.676 29.5836L3.676 28.2186C3.676 28.1986 3.669 28.1816 3.655 28.1676C3.639 28.1536 3.621 28.1466 3.601 28.1466L3.139 28.1466C3.119 28.1466 3.102 28.1536 3.088 28.1676C3.072 28.1816 3.064 28.1986 3.064 28.2186L3.064 29.5896L2.74 29.5896L2.74 28.3116C2.74 28.2896 2.733 28.2716 2.719 28.2576C2.703 28.2436 2.685 28.2366 2.665 28.2366L2.239 28.2366C2.219 28.2366 2.202 28.2436 2.188 28.2576C2.172 28.2716 2.164 28.2896 2.164 28.3116L2.164 29.5836C2.164 29.6036 2.172 29.6206 2.188 29.6346C2.202 29.6486 2.219 29.6556 2.239 29.6556L2.35 29.6556L2.35 29.9826L2.23 29.9826C2.156 29.9826 2.09 29.9656 2.032 29.9316C1.974 29.8956 1.927 29.8476 1.891 29.7876C1.855 29.7276 1.837 29.6616 1.837 29.5896L1.837 28.3026C1.837 28.2286 1.855 28.1626 1.891 28.1046C1.927 28.0446 1.974 27.9976 2.032 27.9636C2.09 27.9296 2.156 27.9126 2.23 27.9126L2.674 27.9126C2.7 27.9126 2.726 27.9156 2.752 27.9216C2.778 27.9256 2.802 27.9326 2.824 27.9426C2.868 27.8986 2.917 27.8676 2.971 27.8496C3.025 27.8316 3.078 27.8226 3.13 27.8226L3.61 27.8226C3.682 27.8226 3.747 27.8406 3.805 27.8766C3.863 27.9106 3.91 27.9576 3.946 28.0176C3.982 28.0756 4 28.1396 4 28.2096L4 29.5896ZM4 27.4921L3.181 27.4921C3.107 27.4921 3.041 27.4751 2.983 27.4411C2.925 27.4051 2.879 27.3581 2.845 27.3001C2.809 27.2401 2.791 27.1741 2.791 27.1021L2.791 25.7311C2.791 25.7111 2.784 25.6941 2.77 25.6801C2.754 25.6641 2.736 25.6561 2.716 25.6561L2.239 25.6561C2.219 25.6561 2.202 25.6641 2.188 25.6801C2.172 25.6941 2.164 25.7111 2.164 25.7311L2.164 27.0931C2.164 27.1131 2.172 27.1311 2.188 27.1471C2.202 27.1611 2.219 27.1681 2.239 27.1681L2.356 27.1681L2.356 27.4921L2.23 27.4921C2.156 27.4921 2.09 27.4751 2.032 27.4411C1.974 27.4051 1.927 27.3581 1.891 27.3001C1.855 27.2401 1.837 27.1741 1.837 27.1021L1.837 25.7221C1.837 25.6521 1.855 25.5881 1.891 25.5301C1.927 25.4701 1.974 25.4221 2.032 25.3861C2.09 25.3501 2.156 25.3321 2.23 25.3321L2.725 25.3321C2.797 25.3321 2.863 25.3501 2.923 25.3861C2.981 25.4221 3.028 25.4701 3.064 25.5301C3.098 25.5881 3.115 25.6521 3.115 25.7221L3.115 27.0931C3.115 27.1131 3.123 27.1311 3.139 27.1471C3.153 27.1611 3.17 27.1681 3.19 27.1681L3.601 27.1681C3.621 27.1681 3.639 27.1611 3.655 27.1471C3.669 27.1311 3.676 27.1131 3.676 27.0931L3.676 25.3321L4 25.3321L4 27.4921Z" fill="#EB2941" fill-opacity="0.5"/>
</svg>
