<svg width="73" height="18" viewBox="0 0 73 18" fill="none" xmlns="http://www.w3.org/2000/svg">
<path d="M1.53877 3V0.488L1.09477 1.02H0.666774L1.42277 0.12H1.87077V3H1.53877ZM2.44127 3V2.672H2.76927V3H2.44127ZM4.63006 3V0.116H5.23006V0.448H4.95806V2.672H5.23006V3H4.63006ZM5.74763 3V0.12H8.37563V0.444H6.07163V1.396H7.92363V1.724H6.07163V2.676H8.37563V3H5.74763ZM11.2341 3L10.2941 1.88H10.7181L11.6621 2.996V3H11.2341ZM8.80213 3V0.124H11.2021C11.2901 0.124 11.3701 0.146667 11.4421 0.192C11.5168 0.234667 11.5755 0.292 11.6181 0.364C11.6608 0.436 11.6821 0.516 11.6821 0.604V1.448C11.6821 1.536 11.6608 1.616 11.6181 1.688C11.5755 1.76 11.5168 1.81867 11.4421 1.864C11.3701 1.90667 11.2901 1.928 11.2021 1.928H9.12613V3H8.80213ZM9.28213 1.6H11.2021C11.2448 1.6 11.2808 1.58533 11.3101 1.556C11.3421 1.52667 11.3581 1.49067 11.3581 1.448V0.604C11.3581 0.561333 11.3421 0.525333 11.3101 0.496C11.2808 0.464 11.2448 0.448 11.2021 0.448H9.28213C9.23946 0.448 9.20213 0.464 9.17013 0.496C9.14079 0.525333 9.12613 0.561333 9.12613 0.604V1.448C9.12613 1.49067 9.14079 1.52667 9.17013 1.556C9.20213 1.58533 9.23946 1.6 9.28213 1.6ZM14.5349 3L13.5949 1.88H14.0189L14.9629 2.996V3H14.5349ZM12.1029 3V0.124H14.5029C14.5909 0.124 14.6709 0.146667 14.7429 0.192C14.8176 0.234667 14.8762 0.292 14.9189 0.364C14.9616 0.436 14.9829 0.516 14.9829 0.604V1.448C14.9829 1.536 14.9616 1.616 14.9189 1.688C14.8762 1.76 14.8176 1.81867 14.7429 1.864C14.6709 1.90667 14.5909 1.928 14.5029 1.928H12.4269V3H12.1029ZM12.5829 1.6H14.5029C14.5456 1.6 14.5816 1.58533 14.6109 1.556C14.6429 1.52667 14.6589 1.49067 14.6589 1.448V0.604C14.6589 0.561333 14.6429 0.525333 14.6109 0.496C14.5816 0.464 14.5456 0.448 14.5029 0.448H12.5829C12.5402 0.448 12.5029 0.464 12.4709 0.496C12.4416 0.525333 12.4269 0.561333 12.4269 0.604V1.448C12.4269 1.49067 12.4416 1.52667 12.4709 1.556C12.5029 1.58533 12.5402 1.6 12.5829 1.6ZM15.8757 3C15.7877 3 15.7064 2.97867 15.6317 2.936C15.5597 2.89333 15.5024 2.836 15.4597 2.764C15.417 2.68933 15.3957 2.608 15.3957 2.52V0.6C15.3957 0.512 15.417 0.432 15.4597 0.36C15.5024 0.285333 15.5597 0.226667 15.6317 0.184C15.7064 0.141333 15.7877 0.12 15.8757 0.12H17.7957C17.8837 0.12 17.9637 0.141333 18.0357 0.184C18.1104 0.226667 18.169 0.285333 18.2117 0.36C18.2544 0.432 18.2757 0.512 18.2757 0.6V2.52C18.2757 2.608 18.2544 2.68933 18.2117 2.764C18.169 2.836 18.1104 2.89333 18.0357 2.936C17.9637 2.97867 17.8837 3 17.7957 3H15.8757ZM15.8757 2.676H17.7957C17.8384 2.676 17.8744 2.66133 17.9037 2.632C17.9357 2.6 17.9517 2.56267 17.9517 2.52V0.6C17.9517 0.557333 17.9357 0.521333 17.9037 0.492C17.8744 0.46 17.8384 0.444 17.7957 0.444H15.8757C15.833 0.444 15.7957 0.46 15.7637 0.492C15.7344 0.521333 15.7197 0.557333 15.7197 0.6V2.52C15.7197 2.56267 15.7344 2.6 15.7637 2.632C15.7957 2.66133 15.833 2.676 15.8757 2.676ZM21.1482 3L20.2082 1.88H20.6322L21.5762 2.996V3H21.1482ZM18.7162 3V0.124H21.1162C21.2042 0.124 21.2842 0.146667 21.3562 0.192C21.4309 0.234667 21.4895 0.292 21.5322 0.364C21.5749 0.436 21.5962 0.516 21.5962 0.604V1.448C21.5962 1.536 21.5749 1.616 21.5322 1.688C21.4895 1.76 21.4309 1.81867 21.3562 1.864C21.2842 1.90667 21.2042 1.928 21.1162 1.928H19.0402V3H18.7162ZM19.1962 1.6H21.1162C21.1589 1.6 21.1949 1.58533 21.2242 1.556C21.2562 1.52667 21.2722 1.49067 21.2722 1.448V0.604C21.2722 0.561333 21.2562 0.525333 21.2242 0.496C21.1949 0.464 21.1589 0.448 21.1162 0.448H19.1962C19.1535 0.448 19.1162 0.464 19.0842 0.496C19.0549 0.525333 19.0402 0.561333 19.0402 0.604V1.448C19.0402 1.49067 19.0549 1.52667 19.0842 1.556C19.1162 1.58533 19.1535 1.6 19.1962 1.6ZM23.5868 3C23.4988 3 23.4175 2.97867 23.3428 2.936C23.2708 2.89333 23.2135 2.836 23.1708 2.764C23.1281 2.68933 23.1068 2.608 23.1068 2.52V0.6C23.1068 0.512 23.1281 0.432 23.1708 0.36C23.2135 0.285333 23.2708 0.226667 23.3428 0.184C23.4175 0.141333 23.4988 0.12 23.5868 0.12H25.9788V0.444H23.5868C23.5441 0.444 23.5068 0.46 23.4748 0.492C23.4455 0.521333 23.4308 0.557333 23.4308 0.6V2.52C23.4308 2.56267 23.4455 2.6 23.4748 2.632C23.5068 2.66133 23.5441 2.676 23.5868 2.676H25.9788V3H23.5868ZM26.8679 3C26.7799 3 26.6985 2.97867 26.6239 2.936C26.5519 2.89333 26.4945 2.836 26.4519 2.764C26.4092 2.68933 26.3879 2.608 26.3879 2.52V0.6C26.3879 0.512 26.4092 0.432 26.4519 0.36C26.4945 0.285333 26.5519 0.226667 26.6239 0.184C26.6985 0.141333 26.7799 0.12 26.8679 0.12H28.7879C28.8759 0.12 28.9559 0.141333 29.0279 0.184C29.1025 0.226667 29.1612 0.285333 29.2039 0.36C29.2465 0.432 29.2679 0.512 29.2679 0.6V2.52C29.2679 2.608 29.2465 2.68933 29.2039 2.764C29.1612 2.836 29.1025 2.89333 29.0279 2.936C28.9559 2.97867 28.8759 3 28.7879 3H26.8679ZM26.8679 2.676H28.7879C28.8305 2.676 28.8665 2.66133 28.8959 2.632C28.9279 2.6 28.9439 2.56267 28.9439 2.52V0.6C28.9439 0.557333 28.9279 0.521333 28.8959 0.492C28.8665 0.46 28.8305 0.444 28.7879 0.444H26.8679C26.8252 0.444 26.7879 0.46 26.7559 0.492C26.7265 0.521333 26.7119 0.557333 26.7119 0.6V2.52C26.7119 2.56267 26.7265 2.6 26.7559 2.632C26.7879 2.66133 26.8252 2.676 26.8679 2.676ZM29.7164 3V0.12H32.1164C32.2044 0.12 32.2844 0.141333 32.3564 0.184C32.431 0.226667 32.4897 0.285333 32.5324 0.36C32.575 0.432 32.5964 0.512 32.5964 0.6V2.52C32.5964 2.608 32.575 2.68933 32.5324 2.764C32.4897 2.836 32.431 2.89333 32.3564 2.936C32.2844 2.97867 32.2044 3 32.1164 3H29.7164ZM30.1964 2.676H32.1164C32.159 2.676 32.195 2.66133 32.2244 2.632C32.2564 2.6 32.2724 2.56267 32.2724 2.52V0.6C32.2724 0.557333 32.2564 0.521333 32.2244 0.492C32.195 0.46 32.159 0.444 32.1164 0.444H30.1964C30.1537 0.444 30.1164 0.46 30.0844 0.492C30.055 0.521333 30.0404 0.557333 30.0404 0.6V2.52C30.0404 2.56267 30.055 2.6 30.0844 2.632C30.1164 2.66133 30.1537 2.676 30.1964 2.676ZM33.0523 3V0.12H35.6803V0.444H33.3763V1.396H35.2283V1.724H33.3763V2.676H35.6803V3H33.0523ZM36.0988 0.976V0.648H36.4268V0.976H36.0988ZM36.0988 3V2.672H36.4268V3H36.0988ZM38.5401 3C38.4495 3 38.3668 2.97867 38.2921 2.936C38.2201 2.89067 38.1628 2.832 38.1201 2.76C38.0775 2.68533 38.0561 2.604 38.0561 2.516V2.4H38.3841V2.516C38.3841 2.55867 38.3988 2.596 38.4281 2.628C38.4601 2.65733 38.4975 2.672 38.5401 2.672H40.4801C40.5228 2.672 40.5588 2.65733 40.5881 2.628C40.6201 2.596 40.6361 2.55867 40.6361 2.516V1.836C40.6361 1.79333 40.6201 1.75733 40.5881 1.728C40.5588 1.696 40.5228 1.68 40.4801 1.68H38.0561V0.116H40.9641V0.448H38.5401C38.4975 0.448 38.4601 0.464 38.4281 0.496C38.3988 0.525333 38.3841 0.561333 38.3841 0.604V1.192C38.3841 1.23467 38.3988 1.272 38.4281 1.304C38.4601 1.336 38.4975 1.352 38.5401 1.352H40.4801C40.5681 1.352 40.6481 1.37333 40.7201 1.416C40.7948 1.45867 40.8535 1.51733 40.8961 1.592C40.9415 1.664 40.9641 1.74533 40.9641 1.836V2.516C40.9641 2.604 40.9415 2.68533 40.8961 2.76C40.8535 2.832 40.7948 2.89067 40.7201 2.936C40.6481 2.97867 40.5681 3 40.4801 3H38.5401ZM43.1804 3V2.256H41.1724V1.888L43.1404 0.116H43.5084V1.928H43.9564V2.256H43.5084V3H43.1804ZM41.5924 1.928H43.1804V0.56L41.5924 1.928ZM46.1583 3V0.604C46.1583 0.561333 46.1423 0.525333 46.1103 0.496C46.081 0.464 46.045 0.448 46.0023 0.448H44.0823V0.116H46.0023C46.0903 0.116 46.1703 0.138667 46.2423 0.184C46.317 0.226667 46.3756 0.285333 46.4183 0.36C46.4636 0.432 46.4863 0.513333 46.4863 0.604V3H46.1583ZM46.8949 3V2.996L48.1029 1.56L46.8949 0.124V0.12H47.3109L48.3149 1.308L49.3149 0.12H49.7309V0.124L48.5229 1.56L49.7349 2.996V3H49.3149L48.3149 1.812L47.3109 3H46.8949ZM49.981 3V2.576L51.977 0.152L52.005 0.12V0.536L50.013 2.96L49.981 3ZM52.275 3V0.12H54.675C54.763 0.12 54.843 0.141333 54.915 0.184C54.9896 0.226667 55.0483 0.285333 55.091 0.36C55.1336 0.432 55.155 0.512 55.155 0.6V2.52C55.155 2.608 55.1336 2.68933 55.091 2.764C55.0483 2.836 54.9896 2.89333 54.915 2.936C54.843 2.97867 54.763 3 54.675 3H52.275ZM52.755 2.676H54.675C54.7176 2.676 54.7536 2.66133 54.783 2.632C54.815 2.6 54.831 2.56267 54.831 2.52V0.6C54.831 0.557333 54.815 0.521333 54.783 0.492C54.7536 0.46 54.7176 0.444 54.675 0.444H52.755C52.7123 0.444 52.675 0.46 52.643 0.492C52.6136 0.521333 52.599 0.557333 52.599 0.6V2.52C52.599 2.56267 52.6136 2.6 52.643 2.632C52.675 2.66133 52.7123 2.676 52.755 2.676ZM55.6109 3V0.12H58.2389V0.444H55.9349V1.396H57.7869V1.724H55.9349V3H55.6109ZM58.9695 3C58.8789 3 58.7962 2.97867 58.7215 2.936C58.6495 2.89067 58.5909 2.832 58.5455 2.76C58.5029 2.68533 58.4815 2.604 58.4815 2.516V2.452H58.8135V2.516C58.8135 2.55867 58.8282 2.596 58.8575 2.628C58.8895 2.65733 58.9269 2.672 58.9695 2.672H60.9095C60.9522 2.672 60.9882 2.65733 61.0175 2.628C61.0495 2.596 61.0655 2.55867 61.0655 2.516V1.848C61.0655 1.80533 61.0495 1.76933 61.0175 1.74C60.9882 1.708 60.9522 1.692 60.9095 1.692H59.0335V1.364H60.7815C60.8242 1.364 60.8602 1.34933 60.8895 1.32C60.9215 1.288 60.9375 1.25067 60.9375 1.208V0.604C60.9375 0.561333 60.9215 0.525333 60.8895 0.496C60.8602 0.464 60.8242 0.448 60.7815 0.448H58.9695C58.9269 0.448 58.8895 0.464 58.8575 0.496C58.8282 0.525333 58.8135 0.561333 58.8135 0.604V0.708H58.4815V0.604C58.4815 0.513333 58.5029 0.432 58.5455 0.36C58.5909 0.285333 58.6495 0.226667 58.7215 0.184C58.7962 0.138667 58.8789 0.116 58.9695 0.116H60.7815C60.8722 0.116 60.9535 0.138667 61.0255 0.184C61.1002 0.226667 61.1589 0.285333 61.2015 0.36C61.2442 0.432 61.2655 0.513333 61.2655 0.604V1.208C61.2655 1.24533 61.2602 1.28267 61.2495 1.32C61.2415 1.35467 61.2309 1.38667 61.2175 1.416C61.2842 1.48 61.3295 1.55067 61.3535 1.628C61.3802 1.70533 61.3935 1.77867 61.3935 1.848V2.516C61.3935 2.604 61.3709 2.68533 61.3255 2.76C61.2829 2.832 61.2242 2.89067 61.1495 2.936C61.0775 2.97867 60.9975 3 60.9095 3H58.9695ZM61.5982 3V2.576L63.5942 0.152L63.6222 0.12V0.536L61.6302 2.96L61.5982 3ZM64.3722 3C64.2815 3 64.1988 2.97867 64.1242 2.936C64.0522 2.89067 63.9948 2.832 63.9522 2.76C63.9095 2.68533 63.8882 2.604 63.8882 2.516V0.608C63.8882 0.517333 63.9095 0.436 63.9522 0.364C63.9948 0.289333 64.0522 0.230667 64.1242 0.188C64.1988 0.142667 64.2815 0.12 64.3722 0.12H66.3122C66.4002 0.12 66.4802 0.142667 66.5522 0.188C66.6268 0.230667 66.6855 0.289333 66.7282 0.364C66.7735 0.436 66.7962 0.517333 66.7962 0.608V2.516C66.7962 2.604 66.7735 2.68533 66.7282 2.76C66.6855 2.832 66.6268 2.89067 66.5522 2.936C66.4802 2.97867 66.4002 3 66.3122 3H64.3722ZM64.2562 2.672H66.3122C66.3548 2.672 66.3908 2.65733 66.4202 2.628C66.4522 2.596 66.4682 2.55867 66.4682 2.516V0.848L64.2562 2.672ZM64.2162 2.276L66.4242 0.452H64.3722C64.3295 0.452 64.2922 0.468 64.2602 0.5C64.2308 0.529333 64.2162 0.565333 64.2162 0.608V2.276ZM67.7081 3C67.6174 3 67.5348 2.97867 67.4601 2.936C67.3881 2.89067 67.3308 2.832 67.2881 2.76C67.2454 2.68533 67.2241 2.604 67.2241 2.516V0.608C67.2241 0.517333 67.2454 0.436 67.2881 0.364C67.3308 0.289333 67.3881 0.230667 67.4601 0.188C67.5348 0.142667 67.6174 0.12 67.7081 0.12H69.6481C69.7361 0.12 69.8161 0.142667 69.8881 0.188C69.9628 0.230667 70.0214 0.289333 70.0641 0.364C70.1094 0.436 70.1321 0.517333 70.1321 0.608V2.516C70.1321 2.604 70.1094 2.68533 70.0641 2.76C70.0214 2.832 69.9628 2.89067 69.8881 2.936C69.8161 2.97867 69.7361 3 69.6481 3H67.7081ZM67.5921 2.672H69.6481C69.6908 2.672 69.7268 2.65733 69.7561 2.628C69.7881 2.596 69.8041 2.55867 69.8041 2.516V0.848L67.5921 2.672ZM67.5521 2.276L69.7601 0.452H67.7081C67.6654 0.452 67.6281 0.468 67.5961 0.5C67.5668 0.529333 67.5521 0.565333 67.5521 0.608V2.276ZM71.208 3V0.488L70.764 1.02H70.336L71.092 0.12H71.54V3H71.208ZM72.0985 3V2.672H72.3665V0.448H72.0985V0.116H72.6985V3H72.0985ZM14.2348 8C14.1468 8 14.0654 7.97867 13.9908 7.936C13.9188 7.89333 13.8614 7.836 13.8188 7.764C13.7761 7.68933 13.7548 7.608 13.7548 7.52V7.408H14.0788V7.52C14.0788 7.56267 14.0934 7.6 14.1228 7.632C14.1548 7.66133 14.1921 7.676 14.2348 7.676H16.1548C16.1974 7.676 16.2334 7.66133 16.2628 7.632C16.2948 7.6 16.3108 7.56267 16.3108 7.52V6.876C16.3108 6.83333 16.2948 6.79733 16.2628 6.768C16.2334 6.73867 16.1974 6.724 16.1548 6.724H14.2348C14.1468 6.724 14.0654 6.70267 13.9908 6.66C13.9188 6.61467 13.8614 6.556 13.8188 6.484C13.7761 6.412 13.7548 6.332 13.7548 6.244V5.6C13.7548 5.512 13.7761 5.432 13.8188 5.36C13.8614 5.28533 13.9188 5.22667 13.9908 5.184C14.0654 5.14133 14.1468 5.12 14.2348 5.12H16.1548C16.2428 5.12 16.3228 5.14133 16.3948 5.184C16.4694 5.22667 16.5281 5.28533 16.5708 5.36C16.6134 5.432 16.6348 5.512 16.6348 5.6V5.712H16.3108V5.6C16.3108 5.55733 16.2948 5.52133 16.2628 5.492C16.2334 5.46 16.1974 5.444 16.1548 5.444H14.2348C14.1921 5.444 14.1548 5.46 14.1228 5.492C14.0934 5.52133 14.0788 5.55733 14.0788 5.6V6.244C14.0788 6.28667 14.0934 6.32267 14.1228 6.352C14.1548 6.38133 14.1921 6.396 14.2348 6.396H16.1548C16.2428 6.396 16.3228 6.41867 16.3948 6.464C16.4694 6.50667 16.5281 6.564 16.5708 6.636C16.6134 6.708 16.6348 6.788 16.6348 6.876V7.52C16.6348 7.608 16.6134 7.68933 16.5708 7.764C16.5281 7.836 16.4694 7.89333 16.3948 7.936C16.3228 7.97867 16.2428 8 16.1548 8H14.2348ZM17.0718 8V5.12H19.6998V5.444H17.3958V6.396H19.2478V6.724H17.3958V7.676H19.6998V8H17.0718ZM20.6063 8C20.5183 8 20.437 7.97867 20.3623 7.936C20.2903 7.89333 20.233 7.836 20.1903 7.764C20.1477 7.68933 20.1263 7.608 20.1263 7.52V5.6C20.1263 5.512 20.1477 5.432 20.1903 5.36C20.233 5.28533 20.2903 5.22667 20.3623 5.184C20.437 5.14133 20.5183 5.12 20.6063 5.12H22.9983V5.444H20.6063C20.5637 5.444 20.5263 5.46 20.4943 5.492C20.465 5.52133 20.4503 5.55733 20.4503 5.6V7.52C20.4503 7.56267 20.465 7.6 20.4943 7.632C20.5263 7.66133 20.5637 7.676 20.6063 7.676H22.9983V8H20.6063ZM23.8874 8C23.7994 8 23.7181 7.97867 23.6434 7.936C23.5714 7.89333 23.5141 7.836 23.4714 7.764C23.4287 7.68933 23.4074 7.608 23.4074 7.52V5.12H23.7314V7.52C23.7314 7.56267 23.7461 7.6 23.7754 7.632C23.8074 7.66133 23.8447 7.676 23.8874 7.676H25.8074C25.8501 7.676 25.8861 7.66133 25.9154 7.632C25.9474 7.6 25.9634 7.56267 25.9634 7.52V5.12H26.2874V7.52C26.2874 7.608 26.2661 7.68933 26.2234 7.764C26.1807 7.836 26.1221 7.89333 26.0474 7.936C25.9754 7.97867 25.8954 8 25.8074 8H23.8874ZM29.1599 8L28.2199 6.88H28.6439L29.5879 7.996V8H29.1599ZM26.7279 8V5.124H29.1279C29.2159 5.124 29.2959 5.14667 29.3679 5.192C29.4426 5.23467 29.5012 5.292 29.5439 5.364C29.5866 5.436 29.6079 5.516 29.6079 5.604V6.448C29.6079 6.536 29.5866 6.616 29.5439 6.688C29.5012 6.76 29.4426 6.81867 29.3679 6.864C29.2959 6.90667 29.2159 6.928 29.1279 6.928H27.0519V8H26.7279ZM27.2079 6.6H29.1279C29.1706 6.6 29.2066 6.58533 29.2359 6.556C29.2679 6.52667 29.2839 6.49067 29.2839 6.448V5.604C29.2839 5.56133 29.2679 5.52533 29.2359 5.496C29.2066 5.464 29.1706 5.448 29.1279 5.448H27.2079C27.1652 5.448 27.1279 5.464 27.0959 5.496C27.0666 5.52533 27.0519 5.56133 27.0519 5.604V6.448C27.0519 6.49067 27.0666 6.52667 27.0959 6.556C27.1279 6.58533 27.1652 6.6 27.2079 6.6ZM30.0367 8V5.12H32.6647V5.444H30.3607V6.396H32.2127V6.724H30.3607V7.676H32.6647V8H30.0367ZM33.0832 8.328V8H35.9952V8.328H33.0832ZM36.4077 8V5.116H36.7317V7.676H39.2877V8H36.4077ZM40.0089 8C39.9182 8 39.8355 7.97867 39.7609 7.936C39.6889 7.89067 39.6315 7.832 39.5889 7.76C39.5462 7.68533 39.5249 7.604 39.5249 7.516V5.608C39.5249 5.51733 39.5462 5.436 39.5889 5.364C39.6315 5.28933 39.6889 5.23067 39.7609 5.188C39.8355 5.14267 39.9182 5.12 40.0089 5.12H41.9489C42.0369 5.12 42.1169 5.14267 42.1889 5.188C42.2635 5.23067 42.3222 5.28933 42.3649 5.364C42.4102 5.436 42.4329 5.51733 42.4329 5.608V7.516C42.4329 7.604 42.4102 7.68533 42.3649 7.76C42.3222 7.832 42.2635 7.89067 42.1889 7.936C42.1169 7.97867 42.0369 8 41.9489 8H40.0089ZM39.8929 7.672H41.9489C41.9915 7.672 42.0275 7.65733 42.0569 7.628C42.0889 7.596 42.1049 7.55867 42.1049 7.516V5.848L39.8929 7.672ZM39.8529 7.276L42.0609 5.452H40.0089C39.9662 5.452 39.9289 5.468 39.8969 5.5C39.8675 5.52933 39.8529 5.56533 39.8529 5.608V7.276ZM43.3368 8C43.2488 8 43.1675 7.97867 43.0928 7.936C43.0208 7.89333 42.9635 7.836 42.9208 7.764C42.8781 7.68933 42.8568 7.608 42.8568 7.52V5.6C42.8568 5.512 42.8781 5.432 42.9208 5.36C42.9635 5.28533 43.0208 5.22667 43.0928 5.184C43.1675 5.14133 43.2488 5.12 43.3368 5.12H45.2568C45.3448 5.12 45.4248 5.14133 45.4968 5.184C45.5715 5.22667 45.6301 5.28533 45.6728 5.36C45.7155 5.432 45.7368 5.512 45.7368 5.6V5.716H45.4128V5.6C45.4128 5.55733 45.3968 5.52133 45.3648 5.492C45.3355 5.46 45.2995 5.444 45.2568 5.444H43.3368C43.2941 5.444 43.2568 5.46 43.2248 5.492C43.1955 5.52133 43.1808 5.55733 43.1808 5.6V7.52C43.1808 7.56267 43.1955 7.6 43.2248 7.632C43.2568 7.66133 43.2941 7.676 43.3368 7.676H45.2568C45.2995 7.676 45.3355 7.66133 45.3648 7.632C45.3968 7.6 45.4128 7.56267 45.4128 7.52V6.808H44.7008V6.48H45.7368V7.52C45.7368 7.608 45.7155 7.68933 45.6728 7.764C45.6301 7.836 45.5715 7.89333 45.4968 7.936C45.4248 7.97867 45.3448 8 45.2568 8H43.3368ZM45.9771 8V7.576L47.9731 5.152L48.0011 5.12V5.536L46.0091 7.96L45.9771 8ZM48.0631 8V7.576L50.0591 5.152L50.0871 5.12V5.536L48.0951 7.96L48.0631 8ZM52.157 8V7.256H50.149V6.888L52.117 5.116H52.485V6.928H52.933V7.256H52.485V8H52.157ZM50.569 6.928H52.157V5.56L50.569 6.928ZM53.2749 8V6.92C53.2749 6.82933 53.2962 6.748 53.3389 6.676C53.3815 6.60133 53.4389 6.54267 53.5109 6.5C53.5855 6.45733 53.6682 6.436 53.7589 6.436H55.6989C55.7415 6.436 55.7775 6.42133 55.8069 6.392C55.8389 6.36 55.8549 6.32267 55.8549 6.28V5.604C55.8549 5.56133 55.8389 5.52533 55.8069 5.496C55.7775 5.464 55.7415 5.448 55.6989 5.448H53.7589C53.7162 5.448 53.6789 5.464 53.6469 5.496C53.6175 5.52533 53.6029 5.56133 53.6029 5.604V5.716H53.2749V5.604C53.2749 5.51333 53.2962 5.432 53.3389 5.36C53.3815 5.28533 53.4389 5.22667 53.5109 5.184C53.5855 5.13867 53.6682 5.116 53.7589 5.116H55.6989C55.7869 5.116 55.8669 5.13867 55.9389 5.184C56.0135 5.22667 56.0722 5.28533 56.1149 5.36C56.1602 5.432 56.1829 5.51333 56.1829 5.604V6.28C56.1829 6.368 56.1602 6.44933 56.1149 6.524C56.0722 6.596 56.0135 6.65467 55.9389 6.7C55.8669 6.74267 55.7869 6.764 55.6989 6.764H53.7589C53.7162 6.764 53.6789 6.78 53.6469 6.812C53.6175 6.84133 53.6029 6.87733 53.6029 6.92V7.516C53.6029 7.55867 53.6175 7.596 53.6469 7.628C53.6789 7.65733 53.7162 7.672 53.7589 7.672H56.1829V8H53.2749ZM56.5512 8V7.996L57.7592 6.56L56.5512 5.124V5.12H56.9672L57.9712 6.308L58.9712 5.12H59.3872V5.124L58.1792 6.56L59.3912 7.996V8H58.9712L57.9712 6.812L56.9672 8H56.5512ZM60.3053 8C60.2359 8 60.1693 7.98667 60.1053 7.96C60.0439 7.93067 59.9906 7.892 59.9453 7.844C59.8999 7.79333 59.8666 7.736 59.8453 7.672H62.2453C62.2879 7.672 62.3239 7.65733 62.3533 7.628C62.3853 7.596 62.4013 7.55867 62.4013 7.516V6.936C62.4013 6.89333 62.3853 6.85733 62.3533 6.828C62.3239 6.796 62.2879 6.78 62.2453 6.78H60.3053C60.2146 6.78 60.1319 6.75867 60.0573 6.716C59.9853 6.67067 59.9266 6.612 59.8813 6.54C59.8386 6.46533 59.8173 6.384 59.8173 6.296V5.604C59.8173 5.51333 59.8386 5.432 59.8813 5.36C59.9266 5.28533 59.9853 5.22667 60.0573 5.184C60.1319 5.13867 60.2146 5.116 60.3053 5.116H62.2453C62.3333 5.116 62.4133 5.13867 62.4853 5.184C62.5599 5.22667 62.6186 5.28533 62.6613 5.36C62.7066 5.432 62.7293 5.51333 62.7293 5.604V7.516C62.7293 7.604 62.7066 7.68533 62.6613 7.76C62.6186 7.832 62.5599 7.89067 62.4853 7.936C62.4133 7.97867 62.3333 8 62.2453 8H60.3053ZM60.3053 6.452H62.4013V5.604C62.4013 5.56133 62.3853 5.52533 62.3533 5.496C62.3239 5.464 62.2879 5.448 62.2453 5.448H60.3053C60.2626 5.448 60.2253 5.464 60.1933 5.496C60.1639 5.52533 60.1493 5.56133 60.1493 5.604V6.296C60.1493 6.33867 60.1639 6.376 60.1933 6.408C60.2253 6.43733 60.2626 6.452 60.3053 6.452ZM63.6178 8C63.5484 8 63.4818 7.98667 63.4178 7.96C63.3564 7.93067 63.3031 7.892 63.2578 7.844C63.2124 7.79333 63.1791 7.736 63.1578 7.672H65.5578C65.6004 7.672 65.6364 7.65733 65.6658 7.628C65.6978 7.596 65.7138 7.55867 65.7138 7.516V6.936C65.7138 6.89333 65.6978 6.85733 65.6658 6.828C65.6364 6.796 65.6004 6.78 65.5578 6.78H63.6178C63.5271 6.78 63.4444 6.75867 63.3698 6.716C63.2978 6.67067 63.2391 6.612 63.1938 6.54C63.1511 6.46533 63.1298 6.384 63.1298 6.296V5.604C63.1298 5.51333 63.1511 5.432 63.1938 5.36C63.2391 5.28533 63.2978 5.22667 63.3698 5.184C63.4444 5.13867 63.5271 5.116 63.6178 5.116H65.5578C65.6458 5.116 65.7258 5.13867 65.7978 5.184C65.8724 5.22667 65.9311 5.28533 65.9738 5.36C66.0191 5.432 66.0418 5.51333 66.0418 5.604V7.516C66.0418 7.604 66.0191 7.68533 65.9738 7.76C65.9311 7.832 65.8724 7.89067 65.7978 7.936C65.7258 7.97867 65.6458 8 65.5578 8H63.6178ZM63.6178 6.452H65.7138V5.604C65.7138 5.56133 65.6978 5.52533 65.6658 5.496C65.6364 5.464 65.6004 5.448 65.5578 5.448H63.6178C63.5751 5.448 63.5378 5.464 63.5058 5.496C63.4764 5.52533 63.4618 5.56133 63.4618 5.604V6.296C63.4618 6.33867 63.4764 6.376 63.5058 6.408C63.5378 6.43733 63.5751 6.452 63.6178 6.452ZM68.9561 7.936L67.3481 7.008V6.62L68.9561 5.696V6.076L67.6761 6.816L68.9561 7.556V7.936ZM70.8468 7.936L69.2388 7.008V6.62L70.8468 5.696V6.076L69.5668 6.816L70.8468 7.556V7.936ZM72.7374 7.936L71.1294 7.008V6.62L72.7374 5.696V6.076L71.4574 6.816L72.7374 7.556V7.936ZM12.2679 13C12.1799 13 12.0986 12.9787 12.0239 12.936C11.9519 12.8907 11.8932 12.832 11.8479 12.76C11.8052 12.6853 11.7839 12.604 11.7839 12.516V11.864L11.5959 11.748V11.364L11.7839 11.264V10.608C11.7839 10.5173 11.8052 10.436 11.8479 10.364C11.8932 10.2893 11.9519 10.2307 12.0239 10.188C12.0986 10.1427 12.1799 10.12 12.2679 10.12H12.3839V10.452H12.2679C12.2252 10.452 12.1879 10.468 12.1559 10.5C12.1266 10.5293 12.1119 10.5653 12.1119 10.608V11.292L11.7759 11.56L12.1119 11.836V12.516C12.1119 12.5587 12.1266 12.596 12.1559 12.628C12.1879 12.6573 12.2252 12.672 12.2679 12.672H12.3839V13H12.2679ZM12.8922 13V10.12H15.5202V10.444H13.2162V11.396H15.0682V11.724H13.2162V13H12.8922ZM16.4268 13V10.488L15.9828 11.02H15.5548L16.3108 10.12H16.7588V13H16.4268ZM19.7693 13L18.8293 11.88H19.2533L20.1973 12.996V13H19.7693ZM17.3373 13V10.124H19.7373C19.8253 10.124 19.9053 10.1467 19.9773 10.192C20.0519 10.2347 20.1106 10.292 20.1533 10.364C20.1959 10.436 20.2173 10.516 20.2173 10.604V11.448C20.2173 11.536 20.1959 11.616 20.1533 11.688C20.1106 11.76 20.0519 11.8187 19.9773 11.864C19.9053 11.9067 19.8253 11.928 19.7373 11.928H17.6613V13H17.3373ZM17.8173 11.6H19.7373C19.7799 11.6 19.8159 11.5853 19.8453 11.556C19.8773 11.5267 19.8933 11.4907 19.8933 11.448V10.604C19.8933 10.5613 19.8773 10.5253 19.8453 10.496C19.8159 10.464 19.7799 10.448 19.7373 10.448H17.8173C17.7746 10.448 17.7373 10.464 17.7053 10.496C17.6759 10.5253 17.6613 10.5613 17.6613 10.604V11.448C17.6613 11.4907 17.6759 11.5267 17.7053 11.556C17.7373 11.5853 17.7746 11.6 17.8173 11.6ZM20.6461 13V10.12H23.2741V10.444H20.9701V11.396H22.8221V11.724H20.9701V12.676H23.2741V13H20.6461ZM24.6646 13L23.6166 10.12H23.9606L24.8046 12.432L25.6446 10.12H26.0366L26.8806 12.432L27.7166 10.12H28.0686L27.0206 13H26.7366L25.8406 10.54L24.9446 13H24.6646ZM30.2234 13V12.256H28.2154V11.888L30.1834 10.116H30.5514V11.928H30.9994V12.256H30.5514V13H30.2234ZM28.6354 11.928H30.2234V10.56L28.6354 11.928ZM31.3413 13V10.116H31.6653V12.676H34.2213V13H31.3413ZM34.4585 13V10.116H34.7825V12.676H37.3385V13H34.4585ZM37.5637 13.328V13H40.4757V13.328H37.5637ZM40.8762 13.328V13H43.7882V13.328H40.8762ZM44.2047 13V10.6C44.2047 10.512 44.226 10.432 44.2687 10.36C44.3113 10.2853 44.3687 10.2267 44.4407 10.184C44.5153 10.1413 44.5967 10.12 44.6847 10.12H46.6047C46.6927 10.12 46.7727 10.1413 46.8447 10.184C46.9193 10.2267 46.978 10.2853 47.0207 10.36C47.0633 10.432 47.0847 10.512 47.0847 10.6V13H46.7607V11.948H44.5287V13H44.2047ZM44.5287 11.624H46.7607V10.6C46.7607 10.5573 46.7447 10.5213 46.7127 10.492C46.6833 10.46 46.6473 10.444 46.6047 10.444H44.6847C44.642 10.444 44.6047 10.46 44.5727 10.492C44.5433 10.5213 44.5287 10.5573 44.5287 10.6V11.624ZM48.0204 13C47.9324 13 47.8511 12.9787 47.7764 12.936C47.7044 12.8933 47.6471 12.836 47.6044 12.764C47.5617 12.6893 47.5404 12.608 47.5404 12.52V10.6C47.5404 10.512 47.5617 10.432 47.6044 10.36C47.6471 10.2853 47.7044 10.2267 47.7764 10.184C47.8511 10.1413 47.9324 10.12 48.0204 10.12H50.4124V10.444H48.0204C47.9777 10.444 47.9404 10.46 47.9084 10.492C47.8791 10.5213 47.8644 10.5573 47.8644 10.6V12.52C47.8644 12.5627 47.8791 12.6 47.9084 12.632C47.9404 12.6613 47.9777 12.676 48.0204 12.676H50.4124V13H48.0204ZM51.9655 13V10.444H50.6855V10.12H53.5655V10.444H52.2895V13H51.9655ZM54.5166 13V10.488L54.0726 11.02H53.6446L54.4006 10.12H54.8486V13H54.5166ZM57.0111 13L55.3431 10.12H55.7231L57.1991 12.684L58.6711 10.12H59.0511L57.3871 13H57.0111ZM59.2984 13V10.6C59.2984 10.512 59.3197 10.432 59.3624 10.36C59.4051 10.2853 59.4624 10.2267 59.5344 10.184C59.6091 10.1413 59.6904 10.12 59.7784 10.12H61.6984C61.7864 10.12 61.8664 10.1413 61.9384 10.184C62.0131 10.2267 62.0717 10.2853 62.1144 10.36C62.1571 10.432 62.1784 10.512 62.1784 10.6V13H61.8544V11.948H59.6224V13H59.2984ZM59.6224 11.624H61.8544V10.6C61.8544 10.5573 61.8384 10.5213 61.8064 10.492C61.7771 10.46 61.7411 10.444 61.6984 10.444H59.7784C59.7357 10.444 59.6984 10.46 59.6664 10.492C59.6371 10.5213 59.6224 10.5573 59.6224 10.6V11.624ZM63.7702 13V10.444H62.4902V10.12H65.3702V10.444H64.0942V13H63.7702ZM65.6773 13V10.12H68.3053V10.444H66.0013V11.396H67.8533V11.724H66.0013V12.676H68.3053V13H65.6773ZM68.7398 13V10.12H71.1398C71.2278 10.12 71.3078 10.1413 71.3798 10.184C71.4545 10.2267 71.5131 10.2853 71.5558 10.36C71.5985 10.432 71.6198 10.512 71.6198 10.6V12.52C71.6198 12.608 71.5985 12.6893 71.5558 12.764C71.5131 12.836 71.4545 12.8933 71.3798 12.936C71.3078 12.9787 71.2278 13 71.1398 13H68.7398ZM69.2198 12.676H71.1398C71.1825 12.676 71.2185 12.6613 71.2478 12.632C71.2798 12.6 71.2958 12.5627 71.2958 12.52V10.6C71.2958 10.5573 71.2798 10.5213 71.2478 10.492C71.2185 10.46 71.1825 10.444 71.1398 10.444H69.2198C69.1771 10.444 69.1398 10.46 69.1078 10.492C69.0785 10.5213 69.0638 10.5573 69.0638 10.6V12.52C69.0638 12.5627 69.0785 12.6 69.1078 12.632C69.1398 12.6613 69.1771 12.676 69.2198 12.676ZM72.0478 13V12.672H72.1638C72.2064 12.672 72.2424 12.6573 72.2718 12.628C72.3038 12.596 72.3198 12.5587 72.3198 12.516V11.84L72.6558 11.564L72.3198 11.3V10.608C72.3198 10.5653 72.3038 10.5293 72.2718 10.5C72.2424 10.468 72.2064 10.452 72.1638 10.452H72.0478V10.12H72.1638C72.2518 10.12 72.3318 10.1427 72.4038 10.188C72.4784 10.2307 72.5371 10.2893 72.5798 10.364C72.6251 10.436 72.6478 10.5173 72.6478 10.608V11.264L72.8318 11.372V11.752L72.6478 11.868V12.516C72.6478 12.604 72.6251 12.6853 72.5798 12.76C72.5371 12.832 72.4784 12.8907 72.4038 12.936C72.3318 12.9787 72.2518 13 72.1638 13H72.0478ZM26.0475 18C25.9781 18 25.9115 17.9867 25.8475 17.96C25.7861 17.9307 25.7328 17.892 25.6875 17.844C25.6421 17.7933 25.6088 17.736 25.5875 17.672H27.9875C28.0301 17.672 28.0661 17.6573 28.0955 17.628C28.1275 17.596 28.1435 17.5587 28.1435 17.516V16.936C28.1435 16.8933 28.1275 16.8573 28.0955 16.828C28.0661 16.796 28.0301 16.78 27.9875 16.78H26.0475C25.9568 16.78 25.8741 16.7587 25.7995 16.716C25.7275 16.6707 25.6688 16.612 25.6235 16.54C25.5808 16.4653 25.5595 16.384 25.5595 16.296V15.604C25.5595 15.5133 25.5808 15.432 25.6235 15.36C25.6688 15.2853 25.7275 15.2267 25.7995 15.184C25.8741 15.1387 25.9568 15.116 26.0475 15.116H27.9875C28.0755 15.116 28.1555 15.1387 28.2275 15.184C28.3021 15.2267 28.3608 15.2853 28.4035 15.36C28.4488 15.432 28.4715 15.5133 28.4715 15.604V17.516C28.4715 17.604 28.4488 17.6853 28.4035 17.76C28.3608 17.832 28.3021 17.8907 28.2275 17.936C28.1555 17.9787 28.0755 18 27.9875 18H26.0475ZM26.0475 16.452H28.1435V15.604C28.1435 15.5613 28.1275 15.5253 28.0955 15.496C28.0661 15.464 28.0301 15.448 27.9875 15.448H26.0475C26.0048 15.448 25.9675 15.464 25.9355 15.496C25.9061 15.5253 25.8915 15.5613 25.8915 15.604V16.296C25.8915 16.3387 25.9061 16.376 25.9355 16.408C25.9675 16.4373 26.0048 16.452 26.0475 16.452ZM29.36 18C29.2906 18 29.224 17.9867 29.16 17.96C29.0986 17.9307 29.0453 17.892 29 17.844C28.9546 17.7933 28.9213 17.736 28.9 17.672H31.3C31.3426 17.672 31.3786 17.6573 31.408 17.628C31.44 17.596 31.456 17.5587 31.456 17.516V16.936C31.456 16.8933 31.44 16.8573 31.408 16.828C31.3786 16.796 31.3426 16.78 31.3 16.78H29.36C29.2693 16.78 29.1866 16.7587 29.112 16.716C29.04 16.6707 28.9813 16.612 28.936 16.54C28.8933 16.4653 28.872 16.384 28.872 16.296V15.604C28.872 15.5133 28.8933 15.432 28.936 15.36C28.9813 15.2853 29.04 15.2267 29.112 15.184C29.1866 15.1387 29.2693 15.116 29.36 15.116H31.3C31.388 15.116 31.468 15.1387 31.54 15.184C31.6146 15.2267 31.6733 15.2853 31.716 15.36C31.7613 15.432 31.784 15.5133 31.784 15.604V17.516C31.784 17.604 31.7613 17.6853 31.716 17.76C31.6733 17.832 31.6146 17.8907 31.54 17.936C31.468 17.9787 31.388 18 31.3 18H29.36ZM29.36 16.452H31.456V15.604C31.456 15.5613 31.44 15.5253 31.408 15.496C31.3786 15.464 31.3426 15.448 31.3 15.448H29.36C29.3173 15.448 29.28 15.464 29.248 15.496C29.2186 15.5253 29.204 15.5613 29.204 15.604V16.296C29.204 16.3387 29.2186 16.376 29.248 16.408C29.28 16.4373 29.3173 16.452 29.36 16.452ZM34.0125 18V17.256H32.0045V16.888L33.9725 15.116H34.3405V16.928H34.7885V17.256H34.3405V18H34.0125ZM32.4245 16.928H34.0125V15.56L32.4245 16.928ZM35.6143 18C35.5237 18 35.441 17.9787 35.3663 17.936C35.2943 17.8907 35.237 17.832 35.1943 17.76C35.1517 17.6853 35.1303 17.604 35.1303 17.516V17.4H35.4583V17.516C35.4583 17.5587 35.473 17.596 35.5023 17.628C35.5343 17.6573 35.5717 17.672 35.6143 17.672H37.5543C37.597 17.672 37.633 17.6573 37.6623 17.628C37.6943 17.596 37.7103 17.5587 37.7103 17.516V16.836C37.7103 16.7933 37.6943 16.7573 37.6623 16.728C37.633 16.696 37.597 16.68 37.5543 16.68H35.1303V15.116H38.0383V15.448H35.6143C35.5717 15.448 35.5343 15.464 35.5023 15.496C35.473 15.5253 35.4583 15.5613 35.4583 15.604V16.192C35.4583 16.2347 35.473 16.272 35.5023 16.304C35.5343 16.336 35.5717 16.352 35.6143 16.352H37.5543C37.6423 16.352 37.7223 16.3733 37.7943 16.416C37.869 16.4587 37.9277 16.5173 37.9703 16.592C38.0157 16.664 38.0383 16.7453 38.0383 16.836V17.516C38.0383 17.604 38.0157 17.6853 37.9703 17.76C37.9277 17.832 37.869 17.8907 37.7943 17.936C37.7223 17.9787 37.6423 18 37.5543 18H35.6143ZM38.4387 15.976V15.648H38.7667V15.976H38.4387ZM38.4387 18V17.672H38.7667V18H38.4387ZM39.3101 18V15.12H41.9381V15.444H39.6341V16.396H41.4861V16.724H39.6341V18H39.3101ZM42.2008 18V15.12H44.8288V15.444H42.5248V16.396H44.3768V16.724H42.5248V18H42.2008ZM45.0874 18V16.92C45.0874 16.8293 45.1087 16.748 45.1514 16.676C45.194 16.6013 45.2514 16.5427 45.3234 16.5C45.398 16.4573 45.4807 16.436 45.5714 16.436H47.5114C47.554 16.436 47.59 16.4213 47.6194 16.392C47.6514 16.36 47.6674 16.3227 47.6674 16.28V15.604C47.6674 15.5613 47.6514 15.5253 47.6194 15.496C47.59 15.464 47.554 15.448 47.5114 15.448H45.5714C45.5287 15.448 45.4914 15.464 45.4594 15.496C45.43 15.5253 45.4154 15.5613 45.4154 15.604V15.716H45.0874V15.604C45.0874 15.5133 45.1087 15.432 45.1514 15.36C45.194 15.2853 45.2514 15.2267 45.3234 15.184C45.398 15.1387 45.4807 15.116 45.5714 15.116H47.5114C47.5994 15.116 47.6794 15.1387 47.7514 15.184C47.826 15.2267 47.8847 15.2853 47.9274 15.36C47.9727 15.432 47.9954 15.5133 47.9954 15.604V16.28C47.9954 16.368 47.9727 16.4493 47.9274 16.524C47.8847 16.596 47.826 16.6547 47.7514 16.7C47.6794 16.7427 47.5994 16.764 47.5114 16.764H45.5714C45.5287 16.764 45.4914 16.78 45.4594 16.812C45.43 16.8413 45.4154 16.8773 45.4154 16.92V17.516C45.4154 17.5587 45.43 17.596 45.4594 17.628C45.4914 17.6573 45.5287 17.672 45.5714 17.672H47.9954V18H45.0874ZM48.8797 18C48.789 18 48.7064 17.9787 48.6317 17.936C48.5597 17.8907 48.501 17.832 48.4557 17.76C48.413 17.6853 48.3917 17.604 48.3917 17.516V17.452H48.7237V17.516C48.7237 17.5587 48.7384 17.596 48.7677 17.628C48.7997 17.6573 48.837 17.672 48.8797 17.672H50.8197C50.8624 17.672 50.8984 17.6573 50.9277 17.628C50.9597 17.596 50.9757 17.5587 50.9757 17.516V16.848C50.9757 16.8053 50.9597 16.7693 50.9277 16.74C50.8984 16.708 50.8624 16.692 50.8197 16.692H48.9437V16.364H50.6917C50.7344 16.364 50.7704 16.3493 50.7997 16.32C50.8317 16.288 50.8477 16.2507 50.8477 16.208V15.604C50.8477 15.5613 50.8317 15.5253 50.7997 15.496C50.7704 15.464 50.7344 15.448 50.6917 15.448H48.8797C48.837 15.448 48.7997 15.464 48.7677 15.496C48.7384 15.5253 48.7237 15.5613 48.7237 15.604V15.708H48.3917V15.604C48.3917 15.5133 48.413 15.432 48.4557 15.36C48.501 15.2853 48.5597 15.2267 48.6317 15.184C48.7064 15.1387 48.789 15.116 48.8797 15.116H50.6917C50.7824 15.116 50.8637 15.1387 50.9357 15.184C51.0104 15.2267 51.069 15.2853 51.1117 15.36C51.1544 15.432 51.1757 15.5133 51.1757 15.604V16.208C51.1757 16.2453 51.1704 16.2827 51.1597 16.32C51.1517 16.3547 51.141 16.3867 51.1277 16.416C51.1944 16.48 51.2397 16.5507 51.2637 16.628C51.2904 16.7053 51.3037 16.7787 51.3037 16.848V17.516C51.3037 17.604 51.281 17.6853 51.2357 17.76C51.193 17.832 51.1344 17.8907 51.0597 17.936C50.9877 17.9787 50.9077 18 50.8197 18H48.8797ZM51.7004 15.976V15.648H52.0284V15.976H51.7004ZM51.7004 18V17.672H52.0284V18H51.7004ZM52.5758 18V15.12H54.8518C54.9398 15.12 55.0198 15.1413 55.0918 15.184C55.1665 15.2267 55.2252 15.2853 55.2678 15.36C55.3105 15.432 55.3318 15.512 55.3318 15.6V16.212C55.3318 16.2493 55.3265 16.2867 55.3158 16.324C55.3078 16.3587 55.2958 16.392 55.2798 16.424C55.3385 16.512 55.3825 16.588 55.4118 16.652C55.4412 16.716 55.4558 16.7813 55.4558 16.848V17.52C55.4558 17.608 55.4345 17.6893 55.3918 17.764C55.3492 17.836 55.2905 17.8933 55.2158 17.936C55.1438 17.9787 55.0638 18 54.9758 18H52.5758ZM53.0558 17.676H54.9758C55.0185 17.676 55.0545 17.6613 55.0838 17.632C55.1158 17.6 55.1318 17.5627 55.1318 17.52V16.848C55.1318 16.8053 55.1158 16.7693 55.0838 16.74C55.0545 16.708 55.0185 16.692 54.9758 16.692H53.0558C53.0132 16.692 52.9758 16.708 52.9438 16.74C52.9145 16.7693 52.8998 16.8053 52.8998 16.848V17.52C52.8998 17.5627 52.9145 17.6 52.9438 17.632C52.9758 17.6613 53.0132 17.676 53.0558 17.676ZM53.0558 16.368H54.8518C54.8945 16.368 54.9305 16.3533 54.9598 16.324C54.9892 16.292 55.0038 16.2547 55.0038 16.212V15.6C55.0038 15.5573 54.9892 15.5213 54.9598 15.492C54.9305 15.46 54.8945 15.444 54.8518 15.444H53.0558C53.0132 15.444 52.9758 15.46 52.9438 15.492C52.9145 15.5213 52.8998 15.5573 52.8998 15.6V16.212C52.8998 16.2547 52.9145 16.292 52.9438 16.324C52.9758 16.3533 53.0132 16.368 53.0558 16.368ZM55.9 18V15.6C55.9 15.512 55.9213 15.432 55.964 15.36C56.0066 15.2853 56.064 15.2267 56.136 15.184C56.2106 15.1413 56.292 15.12 56.38 15.12H58.3C58.388 15.12 58.468 15.1413 58.54 15.184C58.6146 15.2267 58.6733 15.2853 58.716 15.36C58.7586 15.432 58.78 15.512 58.78 15.6V18H58.456V16.948H56.224V18H55.9ZM56.224 16.624H58.456V15.6C58.456 15.5573 58.44 15.5213 58.408 15.492C58.3786 15.46 58.3426 15.444 58.3 15.444H56.38C56.3373 15.444 56.3 15.46 56.268 15.492C56.2386 15.5213 56.224 15.5573 56.224 15.6V16.624ZM59.2437 18V15.12H61.6437C61.7317 15.12 61.8117 15.1413 61.8837 15.184C61.9584 15.2267 62.0171 15.2853 62.0597 15.36C62.1024 15.432 62.1237 15.512 62.1237 15.6V17.52C62.1237 17.608 62.1024 17.6893 62.0597 17.764C62.0171 17.836 61.9584 17.8933 61.8837 17.936C61.8117 17.9787 61.7317 18 61.6437 18H59.2437ZM59.7237 17.676H61.6437C61.6864 17.676 61.7224 17.6613 61.7517 17.632C61.7837 17.6 61.7997 17.5627 61.7997 17.52V15.6C61.7997 15.5573 61.7837 15.5213 61.7517 15.492C61.7224 15.46 61.6864 15.444 61.6437 15.444H59.7237C59.6811 15.444 59.6437 15.46 59.6117 15.492C59.5824 15.5213 59.5677 15.5573 59.5677 15.6V17.52C59.5677 17.5627 59.5824 17.6 59.6117 17.632C59.6437 17.6613 59.6811 17.676 59.7237 17.676ZM62.5637 15.976V15.648H62.8917V15.976H62.5637ZM62.5637 18V17.672H62.8917V18H62.5637ZM64.0791 18V15.488L63.6351 16.02H63.2071L63.9631 15.12H64.4111V18H64.0791ZM65.4776 18C65.387 18 65.3043 17.9787 65.2296 17.936C65.1576 17.8907 65.1003 17.832 65.0576 17.76C65.015 17.6853 64.9936 17.604 64.9936 17.516V15.608C64.9936 15.5173 65.015 15.436 65.0576 15.364C65.1003 15.2893 65.1576 15.2307 65.2296 15.188C65.3043 15.1427 65.387 15.12 65.4776 15.12H67.4176C67.5056 15.12 67.5856 15.1427 67.6576 15.188C67.7323 15.2307 67.791 15.2893 67.8336 15.364C67.879 15.436 67.9016 15.5173 67.9016 15.608V17.516C67.9016 17.604 67.879 17.6853 67.8336 17.76C67.791 17.832 67.7323 17.8907 67.6576 17.936C67.5856 17.9787 67.5056 18 67.4176 18H65.4776ZM65.3616 17.672H67.4176C67.4603 17.672 67.4963 17.6573 67.5256 17.628C67.5576 17.596 67.5736 17.5587 67.5736 17.516V15.848L65.3616 17.672ZM65.3216 17.276L67.5296 15.452H65.4776C65.435 15.452 65.3976 15.468 65.3656 15.5C65.3363 15.5293 65.3216 15.5653 65.3216 15.608V17.276ZM68.8136 18C68.7229 18 68.6402 17.9787 68.5656 17.936C68.4936 17.8907 68.4362 17.832 68.3936 17.76C68.3509 17.6853 68.3296 17.604 68.3296 17.516V15.608C68.3296 15.5173 68.3509 15.436 68.3936 15.364C68.4362 15.2893 68.4936 15.2307 68.5656 15.188C68.6402 15.1427 68.7229 15.12 68.8136 15.12H70.7536C70.8416 15.12 70.9216 15.1427 70.9936 15.188C71.0682 15.2307 71.1269 15.2893 71.1696 15.364C71.2149 15.436 71.2376 15.5173 71.2376 15.608V17.516C71.2376 17.604 71.2149 17.6853 71.1696 17.76C71.1269 17.832 71.0682 17.8907 70.9936 17.936C70.9216 17.9787 70.8416 18 70.7536 18H68.8136ZM68.6976 17.672H70.7536C70.7962 17.672 70.8322 17.6573 70.8616 17.628C70.8936 17.596 70.9096 17.5587 70.9096 17.516V15.848L68.6976 17.672ZM68.6576 17.276L70.8656 15.452H68.8136C68.7709 15.452 68.7336 15.468 68.7016 15.5C68.6722 15.5293 68.6576 15.5653 68.6576 15.608V17.276ZM72.3135 18V15.488L71.8695 16.02H71.4415L72.1975 15.12H72.6455V18H72.3135Z" fill="#EB2941"/>
</svg>
