<svg width="197" height="137" viewBox="0 0 197 137" fill="none" xmlns="http://www.w3.org/2000/svg">
<rect x="3" y="69" width="11" height="11" fill="#55EAD4" fill-opacity="0.5"/>
<rect width="11" height="11" transform="matrix(4.37114e-08 1 1 -4.37114e-08 129 4)" fill="#55EAD4" fill-opacity="0.5"/>
<rect x="3" y="91" width="11" height="11" fill="#55EAD4" fill-opacity="0.05"/>
<rect width="11" height="11" transform="matrix(4.37114e-08 1 1 -4.37114e-08 151 4)" fill="#55EAD4" fill-opacity="0.05"/>
<rect x="42" y="80" width="11" height="11" fill="#55EAD4"/>
<rect width="11" height="11" transform="matrix(4.37114e-08 1 1 -4.37114e-08 140 43)" fill="#55EAD4"/>
<path d="M47.5 85.5V99H87" stroke="#55EAD4"/>
<path d="M145.5 48.5L159 48.5L159 88" stroke="#55EAD4"/>
<rect x="42" y="58" width="11" height="11" fill="#55EAD4" fill-opacity="0.5"/>
<rect width="11" height="11" transform="matrix(4.37114e-08 1 1 -4.37114e-08 118 43)" fill="#55EAD4"/>
<rect x="81" y="93" width="11" height="11" fill="#55EAD4"/>
<rect width="11" height="11" transform="matrix(4.37114e-08 1 1 -4.37114e-08 153 82)" fill="#55EAD4"/>
<rect x="81" y="115" width="11" height="11" fill="#55EAD4" fill-opacity="0.5"/>
<rect width="11" height="11" transform="matrix(4.37114e-08 1 1 -4.37114e-08 175 82)" fill="#55EAD4" fill-opacity="0.5"/>
<rect x="42" y="126" width="11" height="11" fill="#55EAD4"/>
<rect width="11" height="11" transform="matrix(4.37114e-08 1 1 -4.37114e-08 186 43)" fill="#55EAD4"/>
<rect x="29" y="69" width="11" height="11" fill="#55EAD4" fill-opacity="0.5"/>
<rect width="11" height="11" transform="matrix(4.37114e-08 1 1 -4.37114e-08 129 30)" fill="#55EAD4" fill-opacity="0.5"/>
<rect x="29" y="91" width="11" height="11" fill="#55EAD4" fill-opacity="0.05"/>
<rect width="11" height="11" transform="matrix(4.37114e-08 1 1 -4.37114e-08 151 30)" fill="#55EAD4" fill-opacity="0.05"/>
<rect x="68" y="80" width="11" height="11" fill="#55EAD4" fill-opacity="0.05"/>
<rect width="11" height="11" transform="matrix(4.37114e-08 1 1 -4.37114e-08 140 69)" fill="#55EAD4"/>
<rect x="68" y="58" width="11" height="11" fill="#55EAD4" fill-opacity="0.5"/>
<rect width="11" height="11" transform="matrix(4.37114e-08 1 1 -4.37114e-08 118 69)" fill="#55EAD4" fill-opacity="0.5"/>
<rect x="107" y="93" width="11" height="11" fill="#55EAD4" fill-opacity="0.05"/>
<rect width="11" height="11" transform="matrix(4.37114e-08 1 1 -4.37114e-08 153 108)" fill="#55EAD4"/>
<rect x="107" y="115" width="11" height="11" fill="#55EAD4" fill-opacity="0.5"/>
<rect width="11" height="11" transform="matrix(4.37114e-08 1 1 -4.37114e-08 175 108)" fill="#55EAD4" fill-opacity="0.5"/>
<rect x="68" y="126" width="11" height="11" fill="#55EAD4"/>
<rect width="11" height="11" transform="matrix(4.37114e-08 1 1 -4.37114e-08 186 69)" fill="#55EAD4" fill-opacity="0.3"/>
<rect x="16" y="58" width="11" height="11" fill="#55EAD4"/>
<rect width="11" height="11" transform="matrix(4.37114e-08 1 1 -4.37114e-08 118 17)" fill="#55EAD4" fill-opacity="0.3"/>
<rect x="16" y="80" width="11" height="11" fill="#55EAD4"/>
<rect width="11" height="11" transform="matrix(4.37114e-08 1 1 -4.37114e-08 140 17)" fill="#55EAD4"/>
<rect x="55" y="69" width="11" height="11" fill="#55EAD4" fill-opacity="0.05"/>
<rect width="11" height="11" transform="matrix(4.37114e-08 1 1 -4.37114e-08 129 56)" fill="#55EAD4" fill-opacity="0.05"/>
<rect x="55" y="47" width="11" height="11" fill="#55EAD4"/>
<rect width="11" height="11" transform="matrix(4.37114e-08 1 1 -4.37114e-08 107 56)" fill="#55EAD4" fill-opacity="0.3"/>
<rect x="94" y="82" width="11" height="11" fill="#55EAD4" fill-opacity="0.05"/>
<rect width="11" height="11" transform="matrix(4.37114e-08 1 1 -4.37114e-08 142 95)" fill="#55EAD4"/>
<rect x="94" y="104" width="11" height="11" fill="#55EAD4"/>
<rect width="11" height="11" transform="matrix(4.37114e-08 1 1 -4.37114e-08 164 95)" fill="#55EAD4"/>
<rect x="55" y="115" width="11" height="11" fill="#55EAD4"/>
<rect width="11" height="11" transform="matrix(4.37114e-08 1 1 -4.37114e-08 175 56)" fill="#55EAD4" fill-opacity="0.3"/>
<path d="M94.5 109.5H21.5V84.5" stroke="#55EAD4"/>
<path d="M169.5 95.5L169.5 22.5L144.5 22.5" stroke="#55EAD4"/>
<path d="M2.79 15C2.43 15 2.1 14.915 1.8 14.745C1.51 14.565 1.275 14.33 1.095 14.04C0.925 13.74 0.84 13.41 0.84 13.05V6.15C0.84 5.79 0.925 5.465 1.095 5.175C1.275 4.875 1.51 4.64 1.8 4.47C2.1 4.29 2.43 4.2 2.79 4.2H11.61V5.82H3.015C2.855 5.82 2.72 5.875 2.61 5.985C2.51 6.085 2.46 6.215 2.46 6.375V12.825C2.46 12.985 2.51 13.12 2.61 13.23C2.72 13.33 2.855 13.38 3.015 13.38H11.61V15H2.79ZM15.049 15C14.689 15 14.364 14.91 14.074 14.73C13.784 14.55 13.549 14.315 13.369 14.025C13.189 13.735 13.099 13.41 13.099 13.05V8.25C13.099 7.89 13.189 7.565 13.369 7.275C13.549 6.985 13.784 6.75 14.074 6.57C14.364 6.39 14.689 6.3 15.049 6.3H19.999C20.359 6.3 20.684 6.39 20.974 6.57C21.274 6.74 21.509 6.975 21.679 7.275C21.859 7.575 21.949 7.9 21.949 8.25V13.05C21.949 13.41 21.859 13.735 21.679 14.025C21.509 14.315 21.274 14.55 20.974 14.73C20.684 14.91 20.359 15 19.999 15H15.049ZM15.094 13.38H19.954C20.054 13.38 20.139 13.345 20.209 13.275C20.279 13.195 20.314 13.105 20.314 13.005V8.295C20.314 8.195 20.279 8.11 20.209 8.04C20.139 7.96 20.054 7.92 19.954 7.92H15.094C14.994 7.92 14.904 7.96 14.824 8.04C14.754 8.11 14.719 8.195 14.719 8.295V13.005C14.719 13.105 14.754 13.195 14.824 13.275C14.904 13.345 14.994 13.38 15.094 13.38ZM23.2368 15V6.3H30.1368C30.4968 6.3 30.8218 6.39 31.1118 6.57C31.4118 6.75 31.6468 6.985 31.8168 7.275C31.9968 7.565 32.0868 7.89 32.0868 8.25V15H30.4668V8.295C30.4668 8.195 30.4268 8.11 30.3468 8.04C30.2768 7.96 30.1918 7.92 30.0918 7.92H25.2318C25.1318 7.92 25.0418 7.96 24.9618 8.04C24.8918 8.11 24.8568 8.195 24.8568 8.295V15H23.2368ZM33.6811 15V6.3H40.5811C40.9411 6.3 41.2661 6.39 41.5561 6.57C41.8561 6.75 42.0911 6.985 42.2611 7.275C42.4411 7.565 42.5311 7.89 42.5311 8.25V15H40.9111V8.295C40.9111 8.195 40.8711 8.11 40.7911 8.04C40.7211 7.96 40.6361 7.92 40.5361 7.92H35.6761C35.5761 7.92 35.4861 7.96 35.4061 8.04C35.3361 8.11 35.3011 8.195 35.3011 8.295V15H33.6811ZM45.8693 15C45.5093 15 45.1843 14.91 44.8943 14.73C44.6043 14.55 44.3693 14.315 44.1893 14.025C44.0093 13.735 43.9193 13.41 43.9193 13.05V8.25C43.9193 7.89 44.0093 7.565 44.1893 7.275C44.3693 6.985 44.6043 6.75 44.8943 6.57C45.1843 6.39 45.5093 6.3 45.8693 6.3H50.8193C51.1793 6.3 51.5043 6.39 51.7943 6.57C52.0943 6.74 52.3293 6.975 52.4993 7.275C52.6793 7.575 52.7693 7.9 52.7693 8.25V11.46H45.5393V13.005C45.5393 13.105 45.5743 13.195 45.6443 13.275C45.7243 13.345 45.8143 13.38 45.9143 13.38H52.7693V15H45.8693ZM45.5393 9.945H51.1343V8.295C51.1343 8.195 51.0993 8.11 51.0293 8.04C50.9593 7.96 50.8743 7.92 50.7743 7.92H45.9143C45.8143 7.92 45.7243 7.96 45.6443 8.04C45.5743 8.11 45.5393 8.195 45.5393 8.295V9.945ZM55.9328 15C55.5728 15 55.2478 14.91 54.9578 14.73C54.6678 14.55 54.4328 14.315 54.2528 14.025C54.0728 13.735 53.9828 13.41 53.9828 13.05V8.25C53.9828 7.89 54.0728 7.565 54.2528 7.275C54.4328 6.985 54.6678 6.75 54.9578 6.57C55.2478 6.39 55.5728 6.3 55.9328 6.3H62.8028V7.92H55.9778C55.8778 7.92 55.7878 7.96 55.7078 8.04C55.6378 8.11 55.6028 8.195 55.6028 8.295V13.005C55.6028 13.105 55.6378 13.195 55.7078 13.275C55.7878 13.345 55.8778 13.38 55.9778 13.38H62.8328V15H55.9328ZM65.997 15C65.637 15 65.307 14.91 65.007 14.73C64.717 14.55 64.482 14.315 64.302 14.025C64.132 13.735 64.047 13.41 64.047 13.05V3.555H65.667V6.3H69.237V7.92H65.667V13.005C65.667 13.105 65.702 13.195 65.772 13.275C65.852 13.345 65.942 13.38 66.042 13.38H69.237V15H65.997ZM72.339 15C71.979 15 71.654 14.91 71.364 14.73C71.074 14.55 70.839 14.315 70.659 14.025C70.479 13.735 70.389 13.41 70.389 13.05V8.25C70.389 7.89 70.479 7.565 70.659 7.275C70.839 6.985 71.074 6.75 71.364 6.57C71.654 6.39 71.979 6.3 72.339 6.3H77.289C77.649 6.3 77.974 6.39 78.264 6.57C78.564 6.74 78.799 6.975 78.969 7.275C79.149 7.575 79.239 7.9 79.239 8.25V13.05C79.239 13.41 79.149 13.735 78.969 14.025C78.799 14.315 78.564 14.55 78.264 14.73C77.974 14.91 77.649 15 77.289 15H72.339ZM72.384 13.38H77.244C77.344 13.38 77.429 13.345 77.499 13.275C77.569 13.195 77.604 13.105 77.604 13.005V8.295C77.604 8.195 77.569 8.11 77.499 8.04C77.429 7.96 77.344 7.92 77.244 7.92H72.384C72.284 7.92 72.194 7.96 72.114 8.04C72.044 8.11 72.009 8.195 72.009 8.295V13.005C72.009 13.105 72.044 13.195 72.114 13.275C72.194 13.345 72.284 13.38 72.384 13.38ZM80.5554 15V8.25C80.5554 7.89 80.6454 7.565 80.8254 7.275C81.0054 6.985 81.2404 6.75 81.5304 6.57C81.8304 6.39 82.1554 6.3 82.5054 6.3H87.3654V7.92H82.5504C82.4504 7.92 82.3604 7.96 82.2804 8.04C82.2104 8.11 82.1754 8.195 82.1754 8.295V15H80.5554ZM2.715 34C2.355 34 2.03 33.91 1.74 33.73C1.45 33.55 1.215 33.315 1.035 33.025C0.855 32.735 0.765 32.41 0.765 32.05V27.25C0.765 26.89 0.855 26.565 1.035 26.275C1.215 25.985 1.45 25.75 1.74 25.57C2.03 25.39 2.355 25.3 2.715 25.3H7.665C8.025 25.3 8.35 25.39 8.64 25.57C8.94 25.74 9.175 25.975 9.345 26.275C9.525 26.575 9.615 26.9 9.615 27.25V30.46H2.385V32.005C2.385 32.105 2.42 32.195 2.49 32.275C2.57 32.345 2.66 32.38 2.76 32.38H9.615V34H2.715ZM2.385 28.945H7.98V27.295C7.98 27.195 7.945 27.11 7.875 27.04C7.805 26.96 7.72 26.92 7.62 26.92H2.76C2.66 26.92 2.57 26.96 2.49 27.04C2.42 27.11 2.385 27.195 2.385 27.295V28.945ZM11.1957 34V25.3H18.0957C18.4557 25.3 18.7807 25.39 19.0707 25.57C19.3707 25.75 19.6057 25.985 19.7757 26.275C19.9557 26.565 20.0457 26.89 20.0457 27.25V34H18.4257V27.295C18.4257 27.195 18.3857 27.11 18.3057 27.04C18.2357 26.96 18.1507 26.92 18.0507 26.92H13.1907C13.0907 26.92 13.0007 26.96 12.9207 27.04C12.8507 27.11 12.8157 27.195 12.8157 27.295V34H11.1957ZM23.5601 34C23.2001 34 22.8701 33.91 22.5701 33.73C22.2801 33.55 22.0451 33.315 21.8651 33.025C21.6951 32.735 21.6101 32.41 21.6101 32.05V28.84H28.8251V27.295C28.8251 27.195 28.7901 27.11 28.7201 27.04C28.6501 26.96 28.5651 26.92 28.4651 26.92H21.6101V25.3H28.5101C28.8701 25.3 29.1951 25.39 29.4851 25.57C29.7851 25.74 30.0201 25.975 30.1901 26.275C30.3701 26.575 30.4601 26.9 30.4601 27.25V34H23.5601ZM23.6051 32.38H28.8251V30.355H23.2301V32.005C23.2301 32.105 23.2651 32.195 23.3351 32.275C23.4151 32.345 23.5051 32.38 23.6051 32.38ZM31.6596 34V22.45H33.2796V25.3H38.5596C38.9196 25.3 39.2446 25.39 39.5346 25.57C39.8346 25.75 40.0696 25.985 40.2396 26.275C40.4196 26.565 40.5096 26.89 40.5096 27.25V32.05C40.5096 32.41 40.4196 32.735 40.2396 33.025C40.0696 33.315 39.8346 33.55 39.5346 33.73C39.2446 33.91 38.9196 34 38.5596 34H31.6596ZM33.6546 32.38H38.5146C38.6146 32.38 38.6996 32.345 38.7696 32.275C38.8496 32.195 38.8896 32.105 38.8896 32.005V27.295C38.8896 27.195 38.8496 27.11 38.7696 27.04C38.6996 26.96 38.6146 26.92 38.5146 26.92H33.6546C33.5546 26.92 33.4646 26.96 33.3846 27.04C33.3146 27.11 33.2796 27.195 33.2796 27.295V32.005C33.2796 32.105 33.3146 32.195 33.3846 32.275C33.4646 32.345 33.5546 32.38 33.6546 32.38ZM43.5845 34C43.2245 34 42.8995 33.91 42.6095 33.73C42.3195 33.55 42.0845 33.315 41.9045 33.025C41.7245 32.735 41.6345 32.41 41.6345 32.05V22.45H43.2545V32.005C43.2545 32.105 43.2895 32.195 43.3595 32.275C43.4395 32.345 43.5295 32.38 43.6295 32.38H45.2045V34H43.5845ZM48.213 34C47.853 34 47.528 33.91 47.238 33.73C46.948 33.55 46.713 33.315 46.533 33.025C46.353 32.735 46.263 32.41 46.263 32.05V27.25C46.263 26.89 46.353 26.565 46.533 26.275C46.713 25.985 46.948 25.75 47.238 25.57C47.528 25.39 47.853 25.3 48.213 25.3H53.163C53.523 25.3 53.848 25.39 54.138 25.57C54.438 25.74 54.673 25.975 54.843 26.275C55.023 26.575 55.113 26.9 55.113 27.25V30.46H47.883V32.005C47.883 32.105 47.918 32.195 47.988 32.275C48.068 32.345 48.158 32.38 48.258 32.38H55.113V34H48.213ZM47.883 28.945H53.478V27.295C53.478 27.195 53.443 27.11 53.373 27.04C53.303 26.96 53.218 26.92 53.118 26.92H48.258C48.158 26.92 48.068 26.96 47.988 27.04C47.918 27.11 47.883 27.195 47.883 27.295V28.945ZM58.1788 34C57.8188 34 57.4888 33.915 57.1888 33.745C56.8988 33.565 56.6638 33.325 56.4838 33.025C56.3138 32.725 56.2288 32.4 56.2288 32.05V27.25C56.2288 26.89 56.3138 26.565 56.4838 26.275C56.6638 25.985 56.8988 25.75 57.1888 25.57C57.4888 25.39 57.8188 25.3 58.1788 25.3H63.4588V22.45H65.0788V34H58.1788ZM58.2388 32.38H63.0988C63.1988 32.38 63.2838 32.345 63.3538 32.275C63.4238 32.195 63.4588 32.105 63.4588 32.005V27.295C63.4588 27.195 63.4238 27.11 63.3538 27.04C63.2838 26.96 63.1988 26.92 63.0988 26.92H58.2388C58.1388 26.92 58.0488 26.96 57.9688 27.04C57.8988 27.11 57.8638 27.195 57.8638 27.295V32.005C57.8638 32.105 57.8988 32.195 57.9688 32.275C58.0488 32.345 58.1388 32.38 58.2388 32.38Z" fill="#55EAD4"/>
</svg>
