<svg width="73" height="19" viewBox="0 0 73 19" fill="none" xmlns="http://www.w3.org/2000/svg">
<path d="M11.2562 3C11.1682 3 11.0869 2.97867 11.0122 2.936C10.9402 2.89067 10.8815 2.832 10.8362 2.76C10.7935 2.68533 10.7722 2.604 10.7722 2.516V1.864L10.5842 1.748V1.364L10.7722 1.264V0.608C10.7722 0.517333 10.7935 0.436 10.8362 0.364C10.8815 0.289333 10.9402 0.230667 11.0122 0.188C11.0869 0.142667 11.1682 0.12 11.2562 0.12H11.3722V0.452H11.2562C11.2135 0.452 11.1762 0.468 11.1442 0.5C11.1149 0.529333 11.1002 0.565333 11.1002 0.608V1.292L10.7642 1.56L11.1002 1.836V2.516C11.1002 2.55867 11.1149 2.596 11.1442 2.628C11.1762 2.65733 11.2135 2.672 11.2562 2.672H11.3722V3H11.2562ZM11.8724 3V0.12H12.3164L14.4284 2.632V0.12H14.7524V3H14.3084L12.1964 0.488V3H11.8724ZM15.6726 3C15.5846 3 15.5032 2.97867 15.4286 2.936C15.3566 2.89333 15.2992 2.836 15.2566 2.764C15.2139 2.68933 15.1926 2.608 15.1926 2.52V0.6C15.1926 0.512 15.2139 0.432 15.2566 0.36C15.2992 0.285333 15.3566 0.226667 15.4286 0.184C15.5032 0.141333 15.5846 0.12 15.6726 0.12H17.5926C17.6806 0.12 17.7606 0.141333 17.8326 0.184C17.9072 0.226667 17.9659 0.285333 18.0086 0.36C18.0512 0.432 18.0726 0.512 18.0726 0.6V2.52C18.0726 2.608 18.0512 2.68933 18.0086 2.764C17.9659 2.836 17.9072 2.89333 17.8326 2.936C17.7606 2.97867 17.6806 3 17.5926 3H15.6726ZM15.6726 2.676H17.5926C17.6352 2.676 17.6712 2.66133 17.7006 2.632C17.7326 2.6 17.7486 2.56267 17.7486 2.52V0.6C17.7486 0.557333 17.7326 0.521333 17.7006 0.492C17.6712 0.46 17.6352 0.444 17.5926 0.444H15.6726C15.6299 0.444 15.5926 0.46 15.5606 0.492C15.5312 0.521333 15.5166 0.557333 15.5166 0.6V2.52C15.5166 2.56267 15.5312 2.6 15.5606 2.632C15.5926 2.66133 15.6299 2.676 15.6726 2.676ZM18.5211 3V0.12H20.9211C21.0091 0.12 21.0891 0.141333 21.1611 0.184C21.2357 0.226667 21.2944 0.285333 21.3371 0.36C21.3797 0.432 21.4011 0.512 21.4011 0.6V2.52C21.4011 2.608 21.3797 2.68933 21.3371 2.764C21.2944 2.836 21.2357 2.89333 21.1611 2.936C21.0891 2.97867 21.0091 3 20.9211 3H18.5211ZM19.0011 2.676H20.9211C20.9637 2.676 20.9997 2.66133 21.0291 2.632C21.0611 2.6 21.0771 2.56267 21.0771 2.52V0.6C21.0771 0.557333 21.0611 0.521333 21.0291 0.492C20.9997 0.46 20.9637 0.444 20.9211 0.444H19.0011C18.9584 0.444 18.9211 0.46 18.8891 0.492C18.8597 0.521333 18.8451 0.557333 18.8451 0.6V2.52C18.8451 2.56267 18.8597 2.6 18.8891 2.632C18.9211 2.66133 18.9584 2.676 19.0011 2.676ZM21.857 3V0.12H24.485V0.444H22.181V1.396H24.033V1.724H22.181V2.676H24.485V3H21.857ZM25.0035 3L25.2195 2.316H24.8155V1.988H25.3235L25.6075 1.108H24.9435V0.78H25.7115L25.9355 0.124H26.2595L26.0315 0.78H27.0755L27.2995 0.124H27.6235L27.3955 0.78H27.7795V1.108H27.2955L27.0115 1.988H27.6475V2.316H26.9075L26.6955 3H26.3675L26.5835 2.316H25.5435L25.3315 3H25.0035ZM25.6515 1.988H26.6875L26.9715 1.108H25.9315L25.6515 1.988ZM28.587 3C28.4963 3 28.4137 2.97867 28.339 2.936C28.267 2.89067 28.2097 2.832 28.167 2.76C28.1243 2.68533 28.103 2.604 28.103 2.516V1.836C28.103 1.78267 28.1137 1.72933 28.135 1.676C28.1563 1.62 28.1857 1.56667 28.223 1.516C28.1857 1.46533 28.1563 1.412 28.135 1.356C28.1137 1.3 28.103 1.24533 28.103 1.192V0.604C28.103 0.513333 28.1243 0.432 28.167 0.36C28.2097 0.285333 28.267 0.226667 28.339 0.184C28.4137 0.138667 28.4963 0.116 28.587 0.116H30.527C30.6017 0.116 30.671 0.136 30.735 0.176C30.8017 0.213333 30.859 0.264 30.907 0.328C30.9577 0.389333 30.9923 0.454667 31.011 0.524V1.192C31.011 1.29867 30.971 1.40667 30.891 1.516C30.971 1.62 31.011 1.72667 31.011 1.836V2.516C31.011 2.604 30.9883 2.68533 30.943 2.76C30.9003 2.832 30.8417 2.89067 30.767 2.936C30.695 2.97867 30.615 3 30.527 3H28.587ZM28.587 2.672H30.527C30.5697 2.672 30.6057 2.65733 30.635 2.628C30.667 2.596 30.683 2.55867 30.683 2.516V1.836C30.683 1.79333 30.667 1.75733 30.635 1.728C30.6057 1.696 30.5697 1.68 30.527 1.68H28.587C28.5443 1.68 28.507 1.696 28.475 1.728C28.4457 1.75733 28.431 1.79333 28.431 1.836V2.516C28.431 2.55867 28.4457 2.596 28.475 2.628C28.507 2.65733 28.5443 2.672 28.587 2.672ZM28.587 1.396H30.527C30.5697 1.396 30.6057 1.38133 30.635 1.352C30.667 1.32 30.683 1.28267 30.683 1.24V0.608C30.683 0.565333 30.667 0.529333 30.635 0.5C30.6057 0.468 30.5697 0.452 30.527 0.452H28.587C28.5443 0.452 28.507 0.468 28.475 0.5C28.4457 0.529333 28.431 0.565333 28.431 0.608V1.24C28.431 1.28267 28.4457 1.32 28.475 1.352C28.507 1.38133 28.5443 1.396 28.587 1.396ZM33.2989 3V0.604C33.2989 0.561333 33.2829 0.525333 33.2509 0.496C33.2216 0.464 33.1856 0.448 33.1429 0.448H31.2229V0.116H33.1429C33.2309 0.116 33.3109 0.138667 33.3829 0.184C33.4576 0.226667 33.5163 0.285333 33.5589 0.36C33.6043 0.432 33.6269 0.513333 33.6269 0.604V3H33.2989ZM34.0796 3V1.92C34.0796 1.82933 34.1009 1.748 34.1436 1.676C34.1862 1.60133 34.2436 1.54267 34.3156 1.5C34.3902 1.45733 34.4729 1.436 34.5636 1.436H36.5036C36.5462 1.436 36.5822 1.42133 36.6116 1.392C36.6436 1.36 36.6596 1.32267 36.6596 1.28V0.604C36.6596 0.561333 36.6436 0.525333 36.6116 0.496C36.5822 0.464 36.5462 0.448 36.5036 0.448H34.5636C34.5209 0.448 34.4836 0.464 34.4516 0.496C34.4222 0.525333 34.4076 0.561333 34.4076 0.604V0.716H34.0796V0.604C34.0796 0.513333 34.1009 0.432 34.1436 0.36C34.1862 0.285333 34.2436 0.226667 34.3156 0.184C34.3902 0.138667 34.4729 0.116 34.5636 0.116H36.5036C36.5916 0.116 36.6716 0.138667 36.7436 0.184C36.8182 0.226667 36.8769 0.285333 36.9196 0.36C36.9649 0.432 36.9876 0.513333 36.9876 0.604V1.28C36.9876 1.368 36.9649 1.44933 36.9196 1.524C36.8769 1.596 36.8182 1.65467 36.7436 1.7C36.6716 1.74267 36.5916 1.764 36.5036 1.764H34.5636C34.5209 1.764 34.4836 1.78 34.4516 1.812C34.4222 1.84133 34.4076 1.87733 34.4076 1.92V2.516C34.4076 2.55867 34.4222 2.596 34.4516 2.628C34.4836 2.65733 34.5209 2.672 34.5636 2.672H36.9876V3H34.0796ZM37.8719 3C37.7812 3 37.6985 2.97867 37.6239 2.936C37.5519 2.89067 37.4932 2.832 37.4479 2.76C37.4052 2.68533 37.3839 2.604 37.3839 2.516V2.452H37.7159V2.516C37.7159 2.55867 37.7305 2.596 37.7599 2.628C37.7919 2.65733 37.8292 2.672 37.8719 2.672H39.8119C39.8545 2.672 39.8905 2.65733 39.9199 2.628C39.9519 2.596 39.9679 2.55867 39.9679 2.516V1.848C39.9679 1.80533 39.9519 1.76933 39.9199 1.74C39.8905 1.708 39.8545 1.692 39.8119 1.692H37.9359V1.364H39.6839C39.7265 1.364 39.7625 1.34933 39.7919 1.32C39.8239 1.288 39.8399 1.25067 39.8399 1.208V0.604C39.8399 0.561333 39.8239 0.525333 39.7919 0.496C39.7625 0.464 39.7265 0.448 39.6839 0.448H37.8719C37.8292 0.448 37.7919 0.464 37.7599 0.496C37.7305 0.525333 37.7159 0.561333 37.7159 0.604V0.708H37.3839V0.604C37.3839 0.513333 37.4052 0.432 37.4479 0.36C37.4932 0.285333 37.5519 0.226667 37.6239 0.184C37.6985 0.138667 37.7812 0.116 37.8719 0.116H39.6839C39.7745 0.116 39.8559 0.138667 39.9279 0.184C40.0025 0.226667 40.0612 0.285333 40.1039 0.36C40.1465 0.432 40.1679 0.513333 40.1679 0.604V1.208C40.1679 1.24533 40.1625 1.28267 40.1519 1.32C40.1439 1.35467 40.1332 1.38667 40.1199 1.416C40.1865 1.48 40.2319 1.55067 40.2559 1.628C40.2825 1.70533 40.2959 1.77867 40.2959 1.848V2.516C40.2959 2.604 40.2732 2.68533 40.2279 2.76C40.1852 2.832 40.1265 2.89067 40.0519 2.936C39.9799 2.97867 39.8999 3 39.8119 3H37.8719ZM40.7126 1.98V1.652H42.2726V1.98H40.7126ZM43.247 3C43.159 3 43.0776 2.97867 43.003 2.936C42.931 2.89333 42.8736 2.836 42.831 2.764C42.7883 2.68933 42.767 2.608 42.767 2.52V0.6C42.767 0.512 42.7883 0.432 42.831 0.36C42.8736 0.285333 42.931 0.226667 43.003 0.184C43.0776 0.141333 43.159 0.12 43.247 0.12H45.639V0.444H43.247C43.2043 0.444 43.167 0.46 43.135 0.492C43.1056 0.521333 43.091 0.557333 43.091 0.6V2.52C43.091 2.56267 43.1056 2.6 43.135 2.632C43.167 2.66133 43.2043 2.676 43.247 2.676H45.639V3H43.247ZM46.06 3V0.116H46.384V2.676H48.94V3H46.06ZM49.6332 3C49.5452 3 49.4639 2.97867 49.3892 2.936C49.3172 2.89333 49.2599 2.836 49.2172 2.764C49.1746 2.68933 49.1532 2.608 49.1532 2.52V2.408H49.4772V2.52C49.4772 2.56267 49.4919 2.6 49.5212 2.632C49.5532 2.66133 49.5906 2.676 49.6332 2.676H51.5532C51.5959 2.676 51.6319 2.66133 51.6612 2.632C51.6932 2.6 51.7092 2.56267 51.7092 2.52V1.876C51.7092 1.83333 51.6932 1.79733 51.6612 1.768C51.6319 1.73867 51.5959 1.724 51.5532 1.724H49.6332C49.5452 1.724 49.4639 1.70267 49.3892 1.66C49.3172 1.61467 49.2599 1.556 49.2172 1.484C49.1746 1.412 49.1532 1.332 49.1532 1.244V0.6C49.1532 0.512 49.1746 0.432 49.2172 0.36C49.2599 0.285333 49.3172 0.226667 49.3892 0.184C49.4639 0.141333 49.5452 0.12 49.6332 0.12H51.5532C51.6412 0.12 51.7212 0.141333 51.7932 0.184C51.8679 0.226667 51.9266 0.285333 51.9692 0.36C52.0119 0.432 52.0332 0.512 52.0332 0.6V0.712H51.7092V0.6C51.7092 0.557333 51.6932 0.521333 51.6612 0.492C51.6319 0.46 51.5959 0.444 51.5532 0.444H49.6332C49.5906 0.444 49.5532 0.46 49.5212 0.492C49.4919 0.521333 49.4772 0.557333 49.4772 0.6V1.244C49.4772 1.28667 49.4919 1.32267 49.5212 1.352C49.5532 1.38133 49.5906 1.396 49.6332 1.396H51.5532C51.6412 1.396 51.7212 1.41867 51.7932 1.464C51.8679 1.50667 51.9266 1.564 51.9692 1.636C52.0119 1.708 52.0332 1.788 52.0332 1.876V2.52C52.0332 2.608 52.0119 2.68933 51.9692 2.764C51.9266 2.836 51.8679 2.89333 51.7932 2.936C51.7212 2.97867 51.6412 3 51.5532 3H49.6332ZM53.5983 3V0.444H52.3183V0.12H55.1983V0.444H53.9223V3H53.5983ZM55.5094 1.98V1.652H57.0694V1.98H55.5094ZM58.0518 3C57.9612 3 57.8785 2.97867 57.8038 2.936C57.7318 2.89067 57.6745 2.832 57.6318 2.76C57.5892 2.68533 57.5678 2.604 57.5678 2.516V0.608C57.5678 0.517333 57.5892 0.436 57.6318 0.364C57.6745 0.289333 57.7318 0.230667 57.8038 0.188C57.8785 0.142667 57.9612 0.12 58.0518 0.12H59.9918C60.0798 0.12 60.1598 0.142667 60.2318 0.188C60.3065 0.230667 60.3652 0.289333 60.4078 0.364C60.4532 0.436 60.4758 0.517333 60.4758 0.608V2.516C60.4758 2.604 60.4532 2.68533 60.4078 2.76C60.3652 2.832 60.3065 2.89067 60.2318 2.936C60.1598 2.97867 60.0798 3 59.9918 3H58.0518ZM57.9358 2.672H59.9918C60.0345 2.672 60.0705 2.65733 60.0998 2.628C60.1318 2.596 60.1478 2.55867 60.1478 2.516V0.848L57.9358 2.672ZM57.8958 2.276L60.1038 0.452H58.0518C58.0092 0.452 57.9718 0.468 57.9398 0.5C57.9105 0.529333 57.8958 0.565333 57.8958 0.608V2.276ZM60.9038 3V1.92C60.9038 1.82933 60.9251 1.748 60.9678 1.676C61.0104 1.60133 61.0678 1.54267 61.1398 1.5C61.2144 1.45733 61.2971 1.436 61.3878 1.436H63.3278C63.3704 1.436 63.4064 1.42133 63.4358 1.392C63.4678 1.36 63.4838 1.32267 63.4838 1.28V0.604C63.4838 0.561333 63.4678 0.525333 63.4358 0.496C63.4064 0.464 63.3704 0.448 63.3278 0.448H61.3878C61.3451 0.448 61.3078 0.464 61.2758 0.496C61.2464 0.525333 61.2318 0.561333 61.2318 0.604V0.716H60.9038V0.604C60.9038 0.513333 60.9251 0.432 60.9678 0.36C61.0104 0.285333 61.0678 0.226667 61.1398 0.184C61.2144 0.138667 61.2971 0.116 61.3878 0.116H63.3278C63.4158 0.116 63.4958 0.138667 63.5678 0.184C63.6424 0.226667 63.7011 0.285333 63.7438 0.36C63.7891 0.432 63.8118 0.513333 63.8118 0.604V1.28C63.8118 1.368 63.7891 1.44933 63.7438 1.524C63.7011 1.596 63.6424 1.65467 63.5678 1.7C63.4958 1.74267 63.4158 1.764 63.3278 1.764H61.3878C61.3451 1.764 61.3078 1.78 61.2758 1.812C61.2464 1.84133 61.2318 1.87733 61.2318 1.92V2.516C61.2318 2.55867 61.2464 2.596 61.2758 2.628C61.3078 2.65733 61.3451 2.672 61.3878 2.672H63.8118V3H60.9038ZM64.2321 1.98V1.652H65.7921V1.98H64.2321ZM66.2945 3V0.12H68.9225V0.444H66.6185V1.396H68.4705V1.724H66.6185V3H66.2945ZM69.1851 3V0.12H71.8131V0.444H69.5091V1.396H71.3611V1.724H69.5091V3H69.1851ZM72.0478 3V2.672H72.1638C72.2064 2.672 72.2424 2.65733 72.2718 2.628C72.3038 2.596 72.3198 2.55867 72.3198 2.516V1.84L72.6558 1.564L72.3198 1.3V0.608C72.3198 0.565333 72.3038 0.529333 72.2718 0.5C72.2424 0.468 72.2064 0.452 72.1638 0.452H72.0478V0.12H72.1638C72.2518 0.12 72.3318 0.142667 72.4038 0.188C72.4784 0.230667 72.5371 0.289333 72.5798 0.364C72.6251 0.436 72.6478 0.517333 72.6478 0.608V1.264L72.8318 1.372V1.752L72.6478 1.868V2.516C72.6478 2.604 72.6251 2.68533 72.5798 2.76C72.5371 2.832 72.4784 2.89067 72.4038 2.936C72.3318 2.97867 72.2518 3 72.1638 3H72.0478ZM3.83503 7.936L2.22703 7.008V6.62L3.83503 5.696V6.076L2.55503 6.816L3.83503 7.556V7.936ZM4.32966 8V5.12H6.95766V5.444H4.65366V6.396H6.50566V6.724H4.65366V7.676H6.95766V8H4.32966ZM9.81616 8L8.87616 6.88H9.30016L10.2442 7.996V8H9.81616ZM7.38416 8V5.124H9.78416C9.87216 5.124 9.95216 5.14667 10.0242 5.192C10.0988 5.23467 10.1575 5.292 10.2002 5.364C10.2428 5.436 10.2642 5.516 10.2642 5.604V6.448C10.2642 6.536 10.2428 6.616 10.2002 6.688C10.1575 6.76 10.0988 6.81867 10.0242 6.864C9.95216 6.90667 9.87216 6.928 9.78416 6.928H7.70816V8H7.38416ZM7.86416 6.6H9.78416C9.82682 6.6 9.86282 6.58533 9.89216 6.556C9.92416 6.52667 9.94016 6.49067 9.94016 6.448V5.604C9.94016 5.56133 9.92416 5.52533 9.89216 5.496C9.86282 5.464 9.82682 5.448 9.78416 5.448H7.86416C7.82149 5.448 7.78416 5.464 7.75216 5.496C7.72282 5.52533 7.70816 5.56133 7.70816 5.604V6.448C7.70816 6.49067 7.72282 6.52667 7.75216 6.556C7.78416 6.58533 7.82149 6.6 7.86416 6.6ZM13.1169 8L12.1769 6.88H12.6009L13.5449 7.996V8H13.1169ZM10.6849 8V5.124H13.0849C13.1729 5.124 13.2529 5.14667 13.3249 5.192C13.3996 5.23467 13.4583 5.292 13.5009 5.364C13.5436 5.436 13.5649 5.516 13.5649 5.604V6.448C13.5649 6.536 13.5436 6.616 13.5009 6.688C13.4583 6.76 13.3996 6.81867 13.3249 6.864C13.2529 6.90667 13.1729 6.928 13.0849 6.928H11.0089V8H10.6849ZM11.1649 6.6H13.0849C13.1276 6.6 13.1636 6.58533 13.1929 6.556C13.2249 6.52667 13.2409 6.49067 13.2409 6.448V5.604C13.2409 5.56133 13.2249 5.52533 13.1929 5.496C13.1636 5.464 13.1276 5.448 13.0849 5.448H11.1649C11.1223 5.448 11.0849 5.464 11.0529 5.496C11.0236 5.52533 11.0089 5.56133 11.0089 5.604V6.448C11.0089 6.49067 11.0236 6.52667 11.0529 6.556C11.0849 6.58533 11.1223 6.6 11.1649 6.6ZM14.4577 8C14.3697 8 14.2884 7.97867 14.2137 7.936C14.1417 7.89333 14.0844 7.836 14.0417 7.764C13.9991 7.68933 13.9777 7.608 13.9777 7.52V5.6C13.9777 5.512 13.9991 5.432 14.0417 5.36C14.0844 5.28533 14.1417 5.22667 14.2137 5.184C14.2884 5.14133 14.3697 5.12 14.4577 5.12H16.3777C16.4657 5.12 16.5457 5.14133 16.6177 5.184C16.6924 5.22667 16.7511 5.28533 16.7937 5.36C16.8364 5.432 16.8577 5.512 16.8577 5.6V7.52C16.8577 7.608 16.8364 7.68933 16.7937 7.764C16.7511 7.836 16.6924 7.89333 16.6177 7.936C16.5457 7.97867 16.4657 8 16.3777 8H14.4577ZM14.4577 7.676H16.3777C16.4204 7.676 16.4564 7.66133 16.4857 7.632C16.5177 7.6 16.5337 7.56267 16.5337 7.52V5.6C16.5337 5.55733 16.5177 5.52133 16.4857 5.492C16.4564 5.46 16.4204 5.444 16.3777 5.444H14.4577C14.4151 5.444 14.3777 5.46 14.3457 5.492C14.3164 5.52133 14.3017 5.55733 14.3017 5.6V7.52C14.3017 7.56267 14.3164 7.6 14.3457 7.632C14.3777 7.66133 14.4151 7.676 14.4577 7.676ZM19.7302 8L18.7902 6.88H19.2142L20.1582 7.996V8H19.7302ZM17.2982 8V5.124H19.6982C19.7862 5.124 19.8662 5.14667 19.9382 5.192C20.0129 5.23467 20.0716 5.292 20.1142 5.364C20.1569 5.436 20.1782 5.516 20.1782 5.604V6.448C20.1782 6.536 20.1569 6.616 20.1142 6.688C20.0716 6.76 20.0129 6.81867 19.9382 6.864C19.8662 6.90667 19.7862 6.928 19.6982 6.928H17.6222V8H17.2982ZM17.7782 6.6H19.6982C19.7409 6.6 19.7769 6.58533 19.8062 6.556C19.8382 6.52667 19.8542 6.49067 19.8542 6.448V5.604C19.8542 5.56133 19.8382 5.52533 19.8062 5.496C19.7769 5.464 19.7409 5.448 19.6982 5.448H17.7782C17.7356 5.448 17.6982 5.464 17.6662 5.496C17.6369 5.52533 17.6222 5.56133 17.6222 5.604V6.448C17.6222 6.49067 17.6369 6.52667 17.6662 6.556C17.6982 6.58533 17.7356 6.6 17.7782 6.6ZM20.591 5.976V5.648H20.919V5.976H20.591ZM20.591 8V7.672H20.919V8H20.591ZM23.6803 8V5.444H22.4003V5.12H25.2803V5.444H24.0043V8H23.6803ZM28.0115 8L27.0715 6.88H27.4955L28.4395 7.996V8H28.0115ZM25.5795 8V5.124H27.9795C28.0675 5.124 28.1475 5.14667 28.2195 5.192C28.2941 5.23467 28.3528 5.292 28.3955 5.364C28.4381 5.436 28.4595 5.516 28.4595 5.604V6.448C28.4595 6.536 28.4381 6.616 28.3955 6.688C28.3528 6.76 28.2941 6.81867 28.2195 6.864C28.1475 6.90667 28.0675 6.928 27.9795 6.928H25.9035V8H25.5795ZM26.0595 6.6H27.9795C28.0221 6.6 28.0581 6.58533 28.0875 6.556C28.1195 6.52667 28.1355 6.49067 28.1355 6.448V5.604C28.1355 5.56133 28.1195 5.52533 28.0875 5.496C28.0581 5.464 28.0221 5.448 27.9795 5.448H26.0595C26.0168 5.448 25.9795 5.464 25.9475 5.496C25.9181 5.52533 25.9035 5.56133 25.9035 5.604V6.448C25.9035 6.49067 25.9181 6.52667 25.9475 6.556C25.9795 6.58533 26.0168 6.6 26.0595 6.6ZM28.8883 8V5.6C28.8883 5.512 28.9096 5.432 28.9523 5.36C28.9949 5.28533 29.0523 5.22667 29.1243 5.184C29.1989 5.14133 29.2803 5.12 29.3683 5.12H31.2883C31.3763 5.12 31.4563 5.14133 31.5283 5.184C31.6029 5.22667 31.6616 5.28533 31.7043 5.36C31.7469 5.432 31.7683 5.512 31.7683 5.6V8H31.4443V6.948H29.2123V8H28.8883ZM29.2123 6.624H31.4443V5.6C31.4443 5.55733 31.4283 5.52133 31.3963 5.492C31.3669 5.46 31.3309 5.444 31.2883 5.444H29.3683C29.3256 5.444 29.2883 5.46 29.2563 5.492C29.2269 5.52133 29.2123 5.55733 29.2123 5.6V6.624ZM32.224 8V5.12H32.668L34.78 7.632V5.12H35.104V8H34.66L32.548 5.488V8H32.224ZM36.0121 8C35.9241 8 35.8428 7.97867 35.7681 7.936C35.6961 7.89333 35.6388 7.836 35.5961 7.764C35.5535 7.68933 35.5321 7.608 35.5321 7.52V7.408H35.8561V7.52C35.8561 7.56267 35.8708 7.6 35.9001 7.632C35.9321 7.66133 35.9695 7.676 36.0121 7.676H37.9321C37.9748 7.676 38.0108 7.66133 38.0401 7.632C38.0721 7.6 38.0881 7.56267 38.0881 7.52V6.876C38.0881 6.83333 38.0721 6.79733 38.0401 6.768C38.0108 6.73867 37.9748 6.724 37.9321 6.724H36.0121C35.9241 6.724 35.8428 6.70267 35.7681 6.66C35.6961 6.61467 35.6388 6.556 35.5961 6.484C35.5535 6.412 35.5321 6.332 35.5321 6.244V5.6C35.5321 5.512 35.5535 5.432 35.5961 5.36C35.6388 5.28533 35.6961 5.22667 35.7681 5.184C35.8428 5.14133 35.9241 5.12 36.0121 5.12H37.9321C38.0201 5.12 38.1001 5.14133 38.1721 5.184C38.2468 5.22667 38.3055 5.28533 38.3481 5.36C38.3908 5.432 38.4121 5.512 38.4121 5.6V5.712H38.0881V5.6C38.0881 5.55733 38.0721 5.52133 38.0401 5.492C38.0108 5.46 37.9748 5.444 37.9321 5.444H36.0121C35.9695 5.444 35.9321 5.46 35.9001 5.492C35.8708 5.52133 35.8561 5.55733 35.8561 5.6V6.244C35.8561 6.28667 35.8708 6.32267 35.9001 6.352C35.9321 6.38133 35.9695 6.396 36.0121 6.396H37.9321C38.0201 6.396 38.1001 6.41867 38.1721 6.464C38.2468 6.50667 38.3055 6.564 38.3481 6.636C38.3908 6.708 38.4121 6.788 38.4121 6.876V7.52C38.4121 7.608 38.3908 7.68933 38.3481 7.764C38.3055 7.836 38.2468 7.89333 38.1721 7.936C38.1001 7.97867 38.0201 8 37.9321 8H36.0121ZM38.8412 8V5.12H39.2852L40.4812 6.544L41.6772 5.12H42.1212V8H41.7972V5.488L40.4812 7.052L39.1652 5.488V8H38.8412ZM42.5921 8V5.12H42.9201V8H42.5921ZM43.8676 8C43.7796 8 43.6983 7.97867 43.6236 7.936C43.5516 7.89333 43.4943 7.836 43.4516 7.764C43.4089 7.68933 43.3876 7.608 43.3876 7.52V7.408H43.7116V7.52C43.7116 7.56267 43.7263 7.6 43.7556 7.632C43.7876 7.66133 43.8249 7.676 43.8676 7.676H45.7876C45.8303 7.676 45.8663 7.66133 45.8956 7.632C45.9276 7.6 45.9436 7.56267 45.9436 7.52V6.876C45.9436 6.83333 45.9276 6.79733 45.8956 6.768C45.8663 6.73867 45.8303 6.724 45.7876 6.724H43.8676C43.7796 6.724 43.6983 6.70267 43.6236 6.66C43.5516 6.61467 43.4943 6.556 43.4516 6.484C43.4089 6.412 43.3876 6.332 43.3876 6.244V5.6C43.3876 5.512 43.4089 5.432 43.4516 5.36C43.4943 5.28533 43.5516 5.22667 43.6236 5.184C43.6983 5.14133 43.7796 5.12 43.8676 5.12H45.7876C45.8756 5.12 45.9556 5.14133 46.0276 5.184C46.1023 5.22667 46.1609 5.28533 46.2036 5.36C46.2463 5.432 46.2676 5.512 46.2676 5.6V5.712H45.9436V5.6C45.9436 5.55733 45.9276 5.52133 45.8956 5.492C45.8663 5.46 45.8303 5.444 45.7876 5.444H43.8676C43.8249 5.444 43.7876 5.46 43.7556 5.492C43.7263 5.52133 43.7116 5.55733 43.7116 5.6V6.244C43.7116 6.28667 43.7263 6.32267 43.7556 6.352C43.7876 6.38133 43.8249 6.396 43.8676 6.396H45.7876C45.8756 6.396 45.9556 6.41867 46.0276 6.464C46.1023 6.50667 46.1609 6.564 46.2036 6.636C46.2463 6.708 46.2676 6.788 46.2676 6.876V7.52C46.2676 7.608 46.2463 7.68933 46.2036 7.764C46.1609 7.836 46.1023 7.89333 46.0276 7.936C45.9556 7.97867 45.8756 8 45.7876 8H43.8676ZM47.1567 8C47.0687 8 46.9873 7.97867 46.9127 7.936C46.8407 7.89333 46.7833 7.836 46.7407 7.764C46.698 7.68933 46.6767 7.608 46.6767 7.52V7.408H47.0007V7.52C47.0007 7.56267 47.0153 7.6 47.0447 7.632C47.0767 7.66133 47.114 7.676 47.1567 7.676H49.0767C49.1193 7.676 49.1553 7.66133 49.1847 7.632C49.2167 7.6 49.2327 7.56267 49.2327 7.52V6.876C49.2327 6.83333 49.2167 6.79733 49.1847 6.768C49.1553 6.73867 49.1193 6.724 49.0767 6.724H47.1567C47.0687 6.724 46.9873 6.70267 46.9127 6.66C46.8407 6.61467 46.7833 6.556 46.7407 6.484C46.698 6.412 46.6767 6.332 46.6767 6.244V5.6C46.6767 5.512 46.698 5.432 46.7407 5.36C46.7833 5.28533 46.8407 5.22667 46.9127 5.184C46.9873 5.14133 47.0687 5.12 47.1567 5.12H49.0767C49.1647 5.12 49.2447 5.14133 49.3167 5.184C49.3913 5.22667 49.45 5.28533 49.4927 5.36C49.5353 5.432 49.5567 5.512 49.5567 5.6V5.712H49.2327V5.6C49.2327 5.55733 49.2167 5.52133 49.1847 5.492C49.1553 5.46 49.1193 5.444 49.0767 5.444H47.1567C47.114 5.444 47.0767 5.46 47.0447 5.492C47.0153 5.52133 47.0007 5.55733 47.0007 5.6V6.244C47.0007 6.28667 47.0153 6.32267 47.0447 6.352C47.0767 6.38133 47.114 6.396 47.1567 6.396H49.0767C49.1647 6.396 49.2447 6.41867 49.3167 6.464C49.3913 6.50667 49.45 6.564 49.4927 6.636C49.5353 6.708 49.5567 6.788 49.5567 6.876V7.52C49.5567 7.608 49.5353 7.68933 49.4927 7.764C49.45 7.836 49.3913 7.89333 49.3167 7.936C49.2447 7.97867 49.1647 8 49.0767 8H47.1567ZM50.0257 8V5.12H50.3537V8H50.0257ZM51.3132 8C51.2252 8 51.1439 7.97867 51.0692 7.936C50.9972 7.89333 50.9399 7.836 50.8972 7.764C50.8545 7.68933 50.8332 7.608 50.8332 7.52V5.6C50.8332 5.512 50.8545 5.432 50.8972 5.36C50.9399 5.28533 50.9972 5.22667 51.0692 5.184C51.1439 5.14133 51.2252 5.12 51.3132 5.12H53.2332C53.3212 5.12 53.4012 5.14133 53.4732 5.184C53.5479 5.22667 53.6065 5.28533 53.6492 5.36C53.6919 5.432 53.7132 5.512 53.7132 5.6V7.52C53.7132 7.608 53.6919 7.68933 53.6492 7.764C53.6065 7.836 53.5479 7.89333 53.4732 7.936C53.4012 7.97867 53.3212 8 53.2332 8H51.3132ZM51.3132 7.676H53.2332C53.2759 7.676 53.3119 7.66133 53.3412 7.632C53.3732 7.6 53.3892 7.56267 53.3892 7.52V5.6C53.3892 5.55733 53.3732 5.52133 53.3412 5.492C53.3119 5.46 53.2759 5.444 53.2332 5.444H51.3132C51.2705 5.444 51.2332 5.46 51.2012 5.492C51.1719 5.52133 51.1572 5.55733 51.1572 5.6V7.52C51.1572 7.56267 51.1719 7.6 51.2012 7.632C51.2332 7.66133 51.2705 7.676 51.3132 7.676ZM54.1537 8V5.12H54.5977L56.7097 7.632V5.12H57.0337V8H56.5897L54.4777 5.488V8H54.1537ZM58.5757 8V5.116H58.8997V7.676H61.4557V8H58.5757ZM62.1608 8C62.0728 8 61.9915 7.97867 61.9168 7.936C61.8448 7.89333 61.7875 7.836 61.7448 7.764C61.7022 7.68933 61.6808 7.608 61.6808 7.52V5.6C61.6808 5.512 61.7022 5.432 61.7448 5.36C61.7875 5.28533 61.8448 5.22667 61.9168 5.184C61.9915 5.14133 62.0728 5.12 62.1608 5.12H64.0808C64.1688 5.12 64.2488 5.14133 64.3208 5.184C64.3955 5.22667 64.4542 5.28533 64.4968 5.36C64.5395 5.432 64.5608 5.512 64.5608 5.6V7.52C64.5608 7.608 64.5395 7.68933 64.4968 7.764C64.4542 7.836 64.3955 7.89333 64.3208 7.936C64.2488 7.97867 64.1688 8 64.0808 8H62.1608ZM62.1608 7.676H64.0808C64.1235 7.676 64.1595 7.66133 64.1888 7.632C64.2208 7.6 64.2368 7.56267 64.2368 7.52V5.6C64.2368 5.55733 64.2208 5.52133 64.1888 5.492C64.1595 5.46 64.1235 5.444 64.0808 5.444H62.1608C62.1182 5.444 62.0808 5.46 62.0488 5.492C62.0195 5.52133 62.0048 5.55733 62.0048 5.6V7.52C62.0048 7.56267 62.0195 7.6 62.0488 7.632C62.0808 7.66133 62.1182 7.676 62.1608 7.676ZM65.4613 8C65.3733 8 65.292 7.97867 65.2173 7.936C65.1453 7.89333 65.088 7.836 65.0453 7.764C65.0027 7.68933 64.9813 7.608 64.9813 7.52V7.408H65.3053V7.52C65.3053 7.56267 65.32 7.6 65.3493 7.632C65.3813 7.66133 65.4187 7.676 65.4613 7.676H67.3813C67.424 7.676 67.46 7.66133 67.4893 7.632C67.5213 7.6 67.5373 7.56267 67.5373 7.52V6.876C67.5373 6.83333 67.5213 6.79733 67.4893 6.768C67.46 6.73867 67.424 6.724 67.3813 6.724H65.4613C65.3733 6.724 65.292 6.70267 65.2173 6.66C65.1453 6.61467 65.088 6.556 65.0453 6.484C65.0027 6.412 64.9813 6.332 64.9813 6.244V5.6C64.9813 5.512 65.0027 5.432 65.0453 5.36C65.088 5.28533 65.1453 5.22667 65.2173 5.184C65.292 5.14133 65.3733 5.12 65.4613 5.12H67.3813C67.4693 5.12 67.5493 5.14133 67.6213 5.184C67.696 5.22667 67.7547 5.28533 67.7973 5.36C67.84 5.432 67.8613 5.512 67.8613 5.6V5.712H67.5373V5.6C67.5373 5.55733 67.5213 5.52133 67.4893 5.492C67.46 5.46 67.424 5.444 67.3813 5.444H65.4613C65.4187 5.444 65.3813 5.46 65.3493 5.492C65.32 5.52133 65.3053 5.55733 65.3053 5.6V6.244C65.3053 6.28667 65.32 6.32267 65.3493 6.352C65.3813 6.38133 65.4187 6.396 65.4613 6.396H67.3813C67.4693 6.396 67.5493 6.41867 67.6213 6.464C67.696 6.50667 67.7547 6.564 67.7973 6.636C67.84 6.708 67.8613 6.788 67.8613 6.876V7.52C67.8613 7.608 67.84 7.68933 67.7973 7.764C67.7547 7.836 67.696 7.89333 67.6213 7.936C67.5493 7.97867 67.4693 8 67.3813 8H65.4613ZM69.4264 8V5.444H68.1464V5.12H71.0264V5.444H69.7504V8H69.4264ZM71.3376 7.944V7.564L72.6176 6.824L71.3376 6.084V5.704L72.9456 6.628V7.016L71.3376 7.944ZM0.758594 13C0.667927 13 0.58526 12.9787 0.510594 12.936C0.438594 12.8907 0.38126 12.832 0.338594 12.76C0.295927 12.6853 0.274594 12.604 0.274594 12.516V10.608C0.274594 10.5173 0.295927 10.436 0.338594 10.364C0.38126 10.2893 0.438594 10.2307 0.510594 10.188C0.58526 10.1427 0.667927 10.12 0.758594 10.12H2.69859C2.78659 10.12 2.86659 10.1427 2.93859 10.188C3.01326 10.2307 3.07193 10.2893 3.11459 10.364C3.15993 10.436 3.18259 10.5173 3.18259 10.608V12.232H1.53859C1.44793 12.232 1.36526 12.2107 1.29059 12.168C1.21859 12.1227 1.16126 12.064 1.11859 11.992C1.07593 11.9173 1.05459 11.8347 1.05459 11.744V11.408C1.05459 11.32 1.07593 11.24 1.11859 11.168C1.16126 11.0933 1.21859 11.0347 1.29059 10.992C1.36526 10.9467 1.44793 10.924 1.53859 10.924H1.91859C2.00659 10.924 2.08659 10.9467 2.15859 10.992C2.23326 11.0347 2.29193 11.0933 2.33459 11.168C2.37993 11.24 2.40259 11.32 2.40259 11.408V11.984H2.85459V10.608C2.85459 10.5653 2.83859 10.5293 2.80659 10.5C2.77726 10.468 2.74126 10.452 2.69859 10.452H0.758594C0.715927 10.452 0.678594 10.468 0.646594 10.5C0.61726 10.5293 0.602594 10.5653 0.602594 10.608V12.516C0.602594 12.5587 0.61726 12.596 0.646594 12.628C0.678594 12.6573 0.715927 12.672 0.758594 12.672H3.18259V13H0.758594ZM1.45459 11.984H2.15859V11.324C2.15859 11.2813 2.14259 11.2453 2.11059 11.216C2.08126 11.184 2.04526 11.168 2.00259 11.168H1.45459C1.41193 11.168 1.37459 11.184 1.34259 11.216C1.31326 11.2453 1.29859 11.2813 1.29859 11.324V11.828C1.29859 11.8707 1.31326 11.908 1.34259 11.94C1.37459 11.9693 1.41193 11.984 1.45459 11.984ZM3.61472 13V10.12H3.93872V11.396H6.23872V10.12H6.56672V13H6.23872V11.724H3.93872V13H3.61472ZM7.48506 13C7.39706 13 7.31573 12.9787 7.24106 12.936C7.16906 12.8933 7.11173 12.836 7.06906 12.764C7.0264 12.6893 7.00506 12.608 7.00506 12.52V10.6C7.00506 10.512 7.0264 10.432 7.06906 10.36C7.11173 10.2853 7.16906 10.2267 7.24106 10.184C7.31573 10.1413 7.39706 10.12 7.48506 10.12H9.40506C9.49306 10.12 9.57306 10.1413 9.64506 10.184C9.71973 10.2267 9.7784 10.2853 9.82106 10.36C9.86373 10.432 9.88506 10.512 9.88506 10.6V12.52C9.88506 12.608 9.86373 12.6893 9.82106 12.764C9.7784 12.836 9.71973 12.8933 9.64506 12.936C9.57306 12.9787 9.49306 13 9.40506 13H7.48506ZM7.48506 12.676H9.40506C9.44773 12.676 9.48373 12.6613 9.51306 12.632C9.54506 12.6 9.56106 12.5627 9.56106 12.52V10.6C9.56106 10.5573 9.54506 10.5213 9.51306 10.492C9.48373 10.46 9.44773 10.444 9.40506 10.444H7.48506C7.4424 10.444 7.40506 10.46 7.37306 10.492C7.34373 10.5213 7.32906 10.5573 7.32906 10.6V12.52C7.32906 12.5627 7.34373 12.6 7.37306 12.632C7.40506 12.6613 7.4424 12.676 7.48506 12.676ZM10.7856 13C10.6976 13 10.6162 12.9787 10.5416 12.936C10.4696 12.8933 10.4122 12.836 10.3696 12.764C10.3269 12.6893 10.3056 12.608 10.3056 12.52V12.408H10.6296V12.52C10.6296 12.5627 10.6442 12.6 10.6736 12.632C10.7056 12.6613 10.7429 12.676 10.7856 12.676H12.7056C12.7482 12.676 12.7842 12.6613 12.8136 12.632C12.8456 12.6 12.8616 12.5627 12.8616 12.52V11.876C12.8616 11.8333 12.8456 11.7973 12.8136 11.768C12.7842 11.7387 12.7482 11.724 12.7056 11.724H10.7856C10.6976 11.724 10.6162 11.7027 10.5416 11.66C10.4696 11.6147 10.4122 11.556 10.3696 11.484C10.3269 11.412 10.3056 11.332 10.3056 11.244V10.6C10.3056 10.512 10.3269 10.432 10.3696 10.36C10.4122 10.2853 10.4696 10.2267 10.5416 10.184C10.6162 10.1413 10.6976 10.12 10.7856 10.12H12.7056C12.7936 10.12 12.8736 10.1413 12.9456 10.184C13.0202 10.2267 13.0789 10.2853 13.1216 10.36C13.1642 10.432 13.1856 10.512 13.1856 10.6V10.712H12.8616V10.6C12.8616 10.5573 12.8456 10.5213 12.8136 10.492C12.7842 10.46 12.7482 10.444 12.7056 10.444H10.7856C10.7429 10.444 10.7056 10.46 10.6736 10.492C10.6442 10.5213 10.6296 10.5573 10.6296 10.6V11.244C10.6296 11.2867 10.6442 11.3227 10.6736 11.352C10.7056 11.3813 10.7429 11.396 10.7856 11.396H12.7056C12.7936 11.396 12.8736 11.4187 12.9456 11.464C13.0202 11.5067 13.0789 11.564 13.1216 11.636C13.1642 11.708 13.1856 11.788 13.1856 11.876V12.52C13.1856 12.608 13.1642 12.6893 13.1216 12.764C13.0789 12.836 13.0202 12.8933 12.9456 12.936C12.8736 12.9787 12.7936 13 12.7056 13H10.7856ZM14.7506 13V10.444H13.4706V10.12H16.3506V10.444H15.0746V13H14.7506ZM16.4498 13V12.576L18.4458 10.152L18.4738 10.12V10.536L16.4818 12.96L16.4498 13ZM18.7357 13V10.124H21.1357C21.2237 10.124 21.3037 10.1467 21.3757 10.192C21.4504 10.2347 21.5091 10.292 21.5517 10.364C21.5944 10.436 21.6157 10.516 21.6157 10.604V11.448C21.6157 11.536 21.5944 11.616 21.5517 11.688C21.5091 11.76 21.4504 11.8187 21.3757 11.864C21.3037 11.9067 21.2237 11.928 21.1357 11.928H19.0597V13H18.7357ZM19.2157 11.6H21.1357C21.1784 11.6 21.2144 11.5853 21.2437 11.556C21.2757 11.5267 21.2917 11.4907 21.2917 11.448V10.604C21.2917 10.5613 21.2757 10.5253 21.2437 10.496C21.2144 10.464 21.1784 10.448 21.1357 10.448H19.2157C19.1731 10.448 19.1357 10.464 19.1037 10.496C19.0744 10.5253 19.0597 10.5613 19.0597 10.604V11.448C19.0597 11.4907 19.0744 11.5267 19.1037 11.556C19.1357 11.5853 19.1731 11.6 19.2157 11.6ZM24.3318 13L23.3918 11.88H23.8158L24.7598 12.996V13H24.3318ZM21.8998 13V10.124H24.2998C24.3878 10.124 24.4678 10.1467 24.5398 10.192C24.6144 10.2347 24.6731 10.292 24.7158 10.364C24.7584 10.436 24.7798 10.516 24.7798 10.604V11.448C24.7798 11.536 24.7584 11.616 24.7158 11.688C24.6731 11.76 24.6144 11.8187 24.5398 11.864C24.4678 11.9067 24.3878 11.928 24.2998 11.928H22.2238V13H21.8998ZM22.3798 11.6H24.2998C24.3424 11.6 24.3784 11.5853 24.4078 11.556C24.4398 11.5267 24.4558 11.4907 24.4558 11.448V10.604C24.4558 10.5613 24.4398 10.5253 24.4078 10.496C24.3784 10.464 24.3424 10.448 24.2998 10.448H22.3798C22.3371 10.448 22.2998 10.464 22.2678 10.496C22.2384 10.5253 22.2238 10.5613 22.2238 10.604V11.448C22.2238 11.4907 22.2384 11.5267 22.2678 11.556C22.2998 11.5853 22.3371 11.6 22.3798 11.6ZM25.1606 13V12.996L26.3686 11.56L25.1606 10.124V10.12H25.5766L26.5806 11.308L27.5806 10.12H27.9966V10.124L26.7886 11.56L28.0006 12.996V13H27.5806L26.5806 11.812L25.5766 13H25.1606ZM28.2467 13V12.576L30.2427 10.152L30.2707 10.12V10.536L28.2787 12.96L28.2467 13ZM30.5406 13V10.6C30.5406 10.512 30.5619 10.432 30.6046 10.36C30.6473 10.2853 30.7046 10.2267 30.7766 10.184C30.8513 10.1413 30.9326 10.12 31.0206 10.12H32.9406C33.0286 10.12 33.1086 10.1413 33.1806 10.184C33.2553 10.2267 33.3139 10.2853 33.3566 10.36C33.3993 10.432 33.4206 10.512 33.4206 10.6V13H33.0966V11.948H30.8646V13H30.5406ZM30.8646 11.624H33.0966V10.6C33.0966 10.5573 33.0806 10.5213 33.0486 10.492C33.0193 10.46 32.9833 10.444 32.9406 10.444H31.0206C30.9779 10.444 30.9406 10.46 30.9086 10.492C30.8793 10.5213 30.8646 10.5573 30.8646 10.6V11.624ZM33.8803 13V10.116H34.2043V12.676H36.7603V13H33.8803ZM36.9935 13V10.124H39.3935C39.4815 10.124 39.5615 10.1467 39.6335 10.192C39.7082 10.2347 39.7669 10.292 39.8095 10.364C39.8522 10.436 39.8735 10.516 39.8735 10.604V11.448C39.8735 11.536 39.8522 11.616 39.8095 11.688C39.7669 11.76 39.7082 11.8187 39.6335 11.864C39.5615 11.9067 39.4815 11.928 39.3935 11.928H37.3175V13H36.9935ZM37.4735 11.6H39.3935C39.4362 11.6 39.4722 11.5853 39.5015 11.556C39.5335 11.5267 39.5495 11.4907 39.5495 11.448V10.604C39.5495 10.5613 39.5335 10.5253 39.5015 10.496C39.4722 10.464 39.4362 10.448 39.3935 10.448H37.4735C37.4309 10.448 37.3935 10.464 37.3615 10.496C37.3322 10.5253 37.3175 10.5613 37.3175 10.604V11.448C37.3175 11.4907 37.3322 11.5267 37.3615 11.556C37.3935 11.5853 37.4309 11.6 37.4735 11.6ZM40.1616 13V10.12H40.4856V11.396H42.7856V10.12H43.1136V13H42.7856V11.724H40.4856V13H40.1616ZM43.5679 13V10.6C43.5679 10.512 43.5893 10.432 43.6319 10.36C43.6746 10.2853 43.7319 10.2267 43.8039 10.184C43.8786 10.1413 43.9599 10.12 44.0479 10.12H45.9679C46.0559 10.12 46.1359 10.1413 46.2079 10.184C46.2826 10.2267 46.3413 10.2853 46.3839 10.36C46.4266 10.432 46.4479 10.512 46.4479 10.6V13H46.1239V11.948H43.8919V13H43.5679ZM43.8919 11.624H46.1239V10.6C46.1239 10.5573 46.1079 10.5213 46.0759 10.492C46.0466 10.46 46.0106 10.444 45.9679 10.444H44.0479C44.0053 10.444 43.9679 10.46 43.9359 10.492C43.9066 10.5213 43.8919 10.5573 43.8919 10.6V11.624ZM46.7037 13V12.576L48.6997 10.152L48.7277 10.12V10.536L46.7357 12.96L46.7037 13ZM48.9896 13V10.12H49.4336L51.5456 12.632V10.12H51.8696V13H51.4256L49.3136 10.488V13H48.9896ZM52.7938 13C52.7031 13 52.6204 12.9787 52.5458 12.936C52.4738 12.8907 52.4151 12.832 52.3698 12.76C52.3271 12.6853 52.3058 12.604 52.3058 12.516V12.452H52.6378V12.516C52.6378 12.5587 52.6524 12.596 52.6817 12.628C52.7138 12.6573 52.7511 12.672 52.7938 12.672H54.7338C54.7764 12.672 54.8124 12.6573 54.8418 12.628C54.8738 12.596 54.8898 12.5587 54.8898 12.516V11.848C54.8898 11.8053 54.8738 11.7693 54.8418 11.74C54.8124 11.708 54.7764 11.692 54.7338 11.692H52.8578V11.364H54.6058C54.6484 11.364 54.6844 11.3493 54.7138 11.32C54.7458 11.288 54.7618 11.2507 54.7618 11.208V10.604C54.7618 10.5613 54.7458 10.5253 54.7138 10.496C54.6844 10.464 54.6484 10.448 54.6058 10.448H52.7938C52.7511 10.448 52.7138 10.464 52.6817 10.496C52.6524 10.5253 52.6378 10.5613 52.6378 10.604V10.708H52.3058V10.604C52.3058 10.5133 52.3271 10.432 52.3698 10.36C52.4151 10.2853 52.4738 10.2267 52.5458 10.184C52.6204 10.1387 52.7031 10.116 52.7938 10.116H54.6058C54.6964 10.116 54.7778 10.1387 54.8498 10.184C54.9244 10.2267 54.9831 10.2853 55.0258 10.36C55.0684 10.432 55.0898 10.5133 55.0898 10.604V11.208C55.0898 11.2453 55.0844 11.2827 55.0738 11.32C55.0658 11.3547 55.0551 11.3867 55.0418 11.416C55.1084 11.48 55.1538 11.5507 55.1778 11.628C55.2044 11.7053 55.2178 11.7787 55.2178 11.848V12.516C55.2178 12.604 55.1951 12.6853 55.1498 12.76C55.1071 12.832 55.0484 12.8907 54.9738 12.936C54.9018 12.9787 54.8218 13 54.7338 13H52.7938ZM56.7584 13V10.444H55.4784V10.12H58.3584V10.444H57.0824V13H56.7584ZM58.6696 11.98V11.652H60.2296V11.98H58.6696ZM60.728 13V11.92C60.728 11.8293 60.7493 11.748 60.792 11.676C60.8347 11.6013 60.892 11.5427 60.964 11.5C61.0387 11.4573 61.1213 11.436 61.212 11.436H63.152C63.1947 11.436 63.2307 11.4213 63.26 11.392C63.292 11.36 63.308 11.3227 63.308 11.28V10.604C63.308 10.5613 63.292 10.5253 63.26 10.496C63.2307 10.464 63.1947 10.448 63.152 10.448H61.212C61.1693 10.448 61.132 10.464 61.1 10.496C61.0707 10.5253 61.056 10.5613 61.056 10.604V10.716H60.728V10.604C60.728 10.5133 60.7493 10.432 60.792 10.36C60.8347 10.2853 60.892 10.2267 60.964 10.184C61.0387 10.1387 61.1213 10.116 61.212 10.116H63.152C63.24 10.116 63.32 10.1387 63.392 10.184C63.4667 10.2267 63.5253 10.2853 63.568 10.36C63.6133 10.432 63.636 10.5133 63.636 10.604V11.28C63.636 11.368 63.6133 11.4493 63.568 11.524C63.5253 11.596 63.4667 11.6547 63.392 11.7C63.32 11.7427 63.24 11.764 63.152 11.764H61.212C61.1693 11.764 61.132 11.78 61.1 11.812C61.0707 11.8413 61.056 11.8773 61.056 11.92V12.516C61.056 12.5587 61.0707 12.596 61.1 12.628C61.132 12.6573 61.1693 12.672 61.212 12.672H63.636V13H60.728ZM64.5323 13C64.4416 13 64.359 12.9787 64.2843 12.936C64.2123 12.8907 64.155 12.832 64.1123 12.76C64.0696 12.6853 64.0483 12.604 64.0483 12.516V10.608C64.0483 10.5173 64.0696 10.436 64.1123 10.364C64.155 10.2893 64.2123 10.2307 64.2843 10.188C64.359 10.1427 64.4416 10.12 64.5323 10.12H66.4723C66.5603 10.12 66.6403 10.1427 66.7123 10.188C66.787 10.2307 66.8456 10.2893 66.8883 10.364C66.9336 10.436 66.9563 10.5173 66.9563 10.608V12.516C66.9563 12.604 66.9336 12.6853 66.8883 12.76C66.8456 12.832 66.787 12.8907 66.7123 12.936C66.6403 12.9787 66.5603 13 66.4723 13H64.5323ZM64.4163 12.672H66.4723C66.515 12.672 66.551 12.6573 66.5803 12.628C66.6123 12.596 66.6283 12.5587 66.6283 12.516V10.848L64.4163 12.672ZM64.3763 12.276L66.5843 10.452H64.5323C64.4896 10.452 64.4523 10.468 64.4203 10.5C64.391 10.5293 64.3763 10.5653 64.3763 10.608V12.276ZM69.1883 13V12.256H67.1803V11.888L69.1483 10.116H69.5163V11.928H69.9643V12.256H69.5163V13H69.1883ZM67.6003 11.928H69.1883V10.56L67.6003 11.928ZM72.1101 13V12.256H70.1021V11.888L72.0701 10.116H72.4381V11.928H72.8861V12.256H72.4381V13H72.1101ZM70.5221 11.928H72.1101V10.56L70.5221 11.928ZM13.7941 15.976V15.648H14.1221V15.976H13.7941ZM13.7941 18V17.672H14.1221V18H13.7941ZM14.6496 15.976V15.648H14.9776V15.976H14.6496ZM14.6496 18V17.672H14.9776V18H14.6496ZM15.9731 18C15.8851 18 15.8037 17.9787 15.7291 17.936C15.6571 17.8933 15.5997 17.836 15.5571 17.764C15.5144 17.6893 15.4931 17.608 15.4931 17.52V17.408H15.8171V17.52C15.8171 17.5627 15.8317 17.6 15.8611 17.632C15.8931 17.6613 15.9304 17.676 15.9731 17.676H17.8931C17.9357 17.676 17.9717 17.6613 18.0011 17.632C18.0331 17.6 18.0491 17.5627 18.0491 17.52V16.876C18.0491 16.8333 18.0331 16.7973 18.0011 16.768C17.9717 16.7387 17.9357 16.724 17.8931 16.724H15.9731C15.8851 16.724 15.8037 16.7027 15.7291 16.66C15.6571 16.6147 15.5997 16.556 15.5571 16.484C15.5144 16.412 15.4931 16.332 15.4931 16.244V15.6C15.4931 15.512 15.5144 15.432 15.5571 15.36C15.5997 15.2853 15.6571 15.2267 15.7291 15.184C15.8037 15.1413 15.8851 15.12 15.9731 15.12H17.8931C17.9811 15.12 18.0611 15.1413 18.1331 15.184C18.2077 15.2267 18.2664 15.2853 18.3091 15.36C18.3517 15.432 18.3731 15.512 18.3731 15.6V15.712H18.0491V15.6C18.0491 15.5573 18.0331 15.5213 18.0011 15.492C17.9717 15.46 17.9357 15.444 17.8931 15.444H15.9731C15.9304 15.444 15.8931 15.46 15.8611 15.492C15.8317 15.5213 15.8171 15.5573 15.8171 15.6V16.244C15.8171 16.2867 15.8317 16.3227 15.8611 16.352C15.8931 16.3813 15.9304 16.396 15.9731 16.396H17.8931C17.9811 16.396 18.0611 16.4187 18.1331 16.464C18.2077 16.5067 18.2664 16.564 18.3091 16.636C18.3517 16.708 18.3731 16.788 18.3731 16.876V17.52C18.3731 17.608 18.3517 17.6893 18.3091 17.764C18.2664 17.836 18.2077 17.8933 18.1331 17.936C18.0611 17.9787 17.9811 18 17.8931 18H15.9731ZM19.9911 18V16.916L18.6671 15.12H19.0391L20.1551 16.528L21.2591 15.12H21.6391L20.3151 16.916V18H19.9911ZM22.3051 18C22.2171 18 22.1358 17.9787 22.0611 17.936C21.9891 17.8933 21.9318 17.836 21.8891 17.764C21.8464 17.6893 21.8251 17.608 21.8251 17.52V17.408H22.1491V17.52C22.1491 17.5627 22.1638 17.6 22.1931 17.632C22.2251 17.6613 22.2624 17.676 22.3051 17.676H24.2251C24.2678 17.676 24.3038 17.6613 24.3331 17.632C24.3651 17.6 24.3811 17.5627 24.3811 17.52V16.876C24.3811 16.8333 24.3651 16.7973 24.3331 16.768C24.3038 16.7387 24.2678 16.724 24.2251 16.724H22.3051C22.2171 16.724 22.1358 16.7027 22.0611 16.66C21.9891 16.6147 21.9318 16.556 21.8891 16.484C21.8464 16.412 21.8251 16.332 21.8251 16.244V15.6C21.8251 15.512 21.8464 15.432 21.8891 15.36C21.9318 15.2853 21.9891 15.2267 22.0611 15.184C22.1358 15.1413 22.2171 15.12 22.3051 15.12H24.2251C24.3131 15.12 24.3931 15.1413 24.4651 15.184C24.5398 15.2267 24.5984 15.2853 24.6411 15.36C24.6838 15.432 24.7051 15.512 24.7051 15.6V15.712H24.3811V15.6C24.3811 15.5573 24.3651 15.5213 24.3331 15.492C24.3038 15.46 24.2678 15.444 24.2251 15.444H22.3051C22.2624 15.444 22.2251 15.46 22.1931 15.492C22.1638 15.5213 22.1491 15.5573 22.1491 15.6V16.244C22.1491 16.2867 22.1638 16.3227 22.1931 16.352C22.2251 16.3813 22.2624 16.396 22.3051 16.396H24.2251C24.3131 16.396 24.3931 16.4187 24.4651 16.464C24.5398 16.5067 24.5984 16.564 24.6411 16.636C24.6838 16.708 24.7051 16.788 24.7051 16.876V17.52C24.7051 17.608 24.6838 17.6893 24.6411 17.764C24.5984 17.836 24.5398 17.8933 24.4651 17.936C24.3931 17.9787 24.3131 18 24.2251 18H22.3051ZM25.1262 18.328V18H28.0382V18.328H25.1262ZM28.4587 18V15.12H30.7347C30.8227 15.12 30.9027 15.1413 30.9747 15.184C31.0493 15.2267 31.108 15.2853 31.1507 15.36C31.1933 15.432 31.2147 15.512 31.2147 15.6V16.212C31.2147 16.2493 31.2093 16.2867 31.1987 16.324C31.1907 16.3587 31.1787 16.392 31.1627 16.424C31.2213 16.512 31.2653 16.588 31.2947 16.652C31.324 16.716 31.3387 16.7813 31.3387 16.848V17.52C31.3387 17.608 31.3173 17.6893 31.2747 17.764C31.232 17.836 31.1733 17.8933 31.0987 17.936C31.0267 17.9787 30.9467 18 30.8587 18H28.4587ZM28.9387 17.676H30.8587C30.9013 17.676 30.9373 17.6613 30.9667 17.632C30.9987 17.6 31.0147 17.5627 31.0147 17.52V16.848C31.0147 16.8053 30.9987 16.7693 30.9667 16.74C30.9373 16.708 30.9013 16.692 30.8587 16.692H28.9387C28.896 16.692 28.8587 16.708 28.8267 16.74C28.7973 16.7693 28.7827 16.8053 28.7827 16.848V17.52C28.7827 17.5627 28.7973 17.6 28.8267 17.632C28.8587 17.6613 28.896 17.676 28.9387 17.676ZM28.9387 16.368H30.7347C30.7773 16.368 30.8133 16.3533 30.8427 16.324C30.872 16.292 30.8867 16.2547 30.8867 16.212V15.6C30.8867 15.5573 30.872 15.5213 30.8427 15.492C30.8133 15.46 30.7773 15.444 30.7347 15.444H28.9387C28.896 15.444 28.8587 15.46 28.8267 15.492C28.7973 15.5213 28.7827 15.5573 28.7827 15.6V16.212C28.7827 16.2547 28.7973 16.292 28.8267 16.324C28.8587 16.3533 28.896 16.368 28.9387 16.368ZM32.2468 18C32.1588 18 32.0774 17.9787 32.0028 17.936C31.9308 17.8933 31.8734 17.836 31.8308 17.764C31.7881 17.6893 31.7668 17.608 31.7668 17.52V15.6C31.7668 15.512 31.7881 15.432 31.8308 15.36C31.8734 15.2853 31.9308 15.2267 32.0028 15.184C32.0774 15.1413 32.1588 15.12 32.2468 15.12H34.1668C34.2548 15.12 34.3348 15.1413 34.4068 15.184C34.4814 15.2267 34.5401 15.2853 34.5828 15.36C34.6254 15.432 34.6468 15.512 34.6468 15.6V17.52C34.6468 17.608 34.6254 17.6893 34.5828 17.764C34.5401 17.836 34.4814 17.8933 34.4068 17.936C34.3348 17.9787 34.2548 18 34.1668 18H32.2468ZM32.2468 17.676H34.1668C34.2094 17.676 34.2454 17.6613 34.2748 17.632C34.3068 17.6 34.3228 17.5627 34.3228 17.52V15.6C34.3228 15.5573 34.3068 15.5213 34.2748 15.492C34.2454 15.46 34.2094 15.444 34.1668 15.444H32.2468C32.2041 15.444 32.1668 15.46 32.1348 15.492C32.1054 15.5213 32.0908 15.5573 32.0908 15.6V17.52C32.0908 17.5627 32.1054 17.6 32.1348 17.632C32.1668 17.6613 32.2041 17.676 32.2468 17.676ZM35.5593 18C35.4713 18 35.3899 17.9787 35.3153 17.936C35.2433 17.8933 35.1859 17.836 35.1433 17.764C35.1006 17.6893 35.0793 17.608 35.0793 17.52V15.6C35.0793 15.512 35.1006 15.432 35.1433 15.36C35.1859 15.2853 35.2433 15.2267 35.3153 15.184C35.3899 15.1413 35.4713 15.12 35.5593 15.12H37.4793C37.5673 15.12 37.6473 15.1413 37.7193 15.184C37.7939 15.2267 37.8526 15.2853 37.8953 15.36C37.9379 15.432 37.9593 15.512 37.9593 15.6V17.52C37.9593 17.608 37.9379 17.6893 37.8953 17.764C37.8526 17.836 37.7939 17.8933 37.7193 17.936C37.6473 17.9787 37.5673 18 37.4793 18H35.5593ZM35.5593 17.676H37.4793C37.5219 17.676 37.5579 17.6613 37.5873 17.632C37.6193 17.6 37.6353 17.5627 37.6353 17.52V15.6C37.6353 15.5573 37.6193 15.5213 37.5873 15.492C37.5579 15.46 37.5219 15.444 37.4793 15.444H35.5593C35.5166 15.444 35.4793 15.46 35.4473 15.492C35.4179 15.5213 35.4033 15.5573 35.4033 15.6V17.52C35.4033 17.5627 35.4179 17.6 35.4473 17.632C35.4793 17.6613 35.5166 17.676 35.5593 17.676ZM39.5358 18V15.444H38.2558V15.12H41.1358V15.444H39.8598V18H39.5358ZM41.2349 18V17.576L43.2309 15.152L43.2589 15.12V15.536L41.2669 17.96L41.2349 18ZM45.9529 18L45.0129 16.88H45.4369L46.3809 17.996V18H45.9529ZM43.5209 18V15.124H45.9209C46.0089 15.124 46.0889 15.1467 46.1609 15.192C46.2355 15.2347 46.2942 15.292 46.3369 15.364C46.3795 15.436 46.4009 15.516 46.4009 15.604V16.448C46.4009 16.536 46.3795 16.616 46.3369 16.688C46.2942 16.76 46.2355 16.8187 46.1609 16.864C46.0889 16.9067 46.0089 16.928 45.9209 16.928H43.8449V18H43.5209ZM44.0009 16.6H45.9209C45.9635 16.6 45.9995 16.5853 46.0289 16.556C46.0609 16.5267 46.0769 16.4907 46.0769 16.448V15.604C46.0769 15.5613 46.0609 15.5253 46.0289 15.496C45.9995 15.464 45.9635 15.448 45.9209 15.448H44.0009C43.9582 15.448 43.9209 15.464 43.8889 15.496C43.8595 15.5253 43.8449 15.5613 43.8449 15.604V16.448C43.8449 16.4907 43.8595 16.5267 43.8889 16.556C43.9209 16.5853 43.9582 16.6 44.0009 16.6ZM46.8297 18V15.12H49.4577V15.444H47.1537V16.396H49.0057V16.724H47.1537V17.676H49.4577V18H46.8297ZM51.0202 18V15.444H49.7402V15.12H52.6202V15.444H51.3442V18H51.0202ZM55.3513 18L54.4113 16.88H54.8353L55.7793 17.996V18H55.3513ZM52.9193 18V15.124H55.3193C55.4073 15.124 55.4873 15.1467 55.5593 15.192C55.634 15.2347 55.6926 15.292 55.7353 15.364C55.778 15.436 55.7993 15.516 55.7993 15.604V16.448C55.7993 16.536 55.778 16.616 55.7353 16.688C55.6926 16.76 55.634 16.8187 55.5593 16.864C55.4873 16.9067 55.4073 16.928 55.3193 16.928H53.2433V18H52.9193ZM53.3993 16.6H55.3193C55.362 16.6 55.398 16.5853 55.4273 16.556C55.4593 16.5267 55.4753 16.4907 55.4753 16.448V15.604C55.4753 15.5613 55.4593 15.5253 55.4273 15.496C55.398 15.464 55.362 15.448 55.3193 15.448H53.3993C53.3566 15.448 53.3193 15.464 53.2873 15.496C53.258 15.5253 53.2433 15.5613 53.2433 15.604V16.448C53.2433 16.4907 53.258 16.5267 53.2873 16.556C53.3193 16.5853 53.3566 16.6 53.3993 16.6ZM57.4481 18V16.916L56.1241 15.12H56.4961L57.6121 16.528L58.7161 15.12H59.0961L57.7721 16.916V18H57.4481ZM59.2428 18V17.576L61.2387 15.152L61.2668 15.12V15.536L59.2748 17.96L59.2428 18ZM62.0167 18C61.926 18 61.8434 17.9787 61.7687 17.936C61.6967 17.8907 61.6394 17.832 61.5967 17.76C61.554 17.6853 61.5327 17.604 61.5327 17.516V15.608C61.5327 15.5173 61.554 15.436 61.5967 15.364C61.6394 15.2893 61.6967 15.2307 61.7687 15.188C61.8434 15.1427 61.926 15.12 62.0167 15.12H63.9567C64.0447 15.12 64.1247 15.1427 64.1967 15.188C64.2714 15.2307 64.33 15.2893 64.3727 15.364C64.418 15.436 64.4407 15.5173 64.4407 15.608V17.516C64.4407 17.604 64.418 17.6853 64.3727 17.76C64.33 17.832 64.2714 17.8907 64.1967 17.936C64.1247 17.9787 64.0447 18 63.9567 18H62.0167ZM61.9007 17.672H63.9567C63.9994 17.672 64.0354 17.6573 64.0647 17.628C64.0967 17.596 64.1127 17.5587 64.1127 17.516V15.848L61.9007 17.672ZM61.8607 17.276L64.0687 15.452H62.0167C61.974 15.452 61.9367 15.468 61.9047 15.5C61.8754 15.5293 61.8607 15.5653 61.8607 15.608V17.276ZM65.3526 18C65.262 18 65.1793 17.9787 65.1046 17.936C65.0326 17.8907 64.9753 17.832 64.9326 17.76C64.89 17.6853 64.8686 17.604 64.8686 17.516V16.836C64.8686 16.7827 64.8793 16.7293 64.9006 16.676C64.922 16.62 64.9513 16.5667 64.9886 16.516C64.9513 16.4653 64.922 16.412 64.9006 16.356C64.8793 16.3 64.8686 16.2453 64.8686 16.192V15.604C64.8686 15.5133 64.89 15.432 64.9326 15.36C64.9753 15.2853 65.0326 15.2267 65.1046 15.184C65.1793 15.1387 65.262 15.116 65.3526 15.116H67.2926C67.3673 15.116 67.4366 15.136 67.5006 15.176C67.5673 15.2133 67.6246 15.264 67.6726 15.328C67.7233 15.3893 67.758 15.4547 67.7766 15.524V16.192C67.7766 16.2987 67.7366 16.4067 67.6566 16.516C67.7366 16.62 67.7766 16.7267 67.7766 16.836V17.516C67.7766 17.604 67.754 17.6853 67.7086 17.76C67.666 17.832 67.6073 17.8907 67.5326 17.936C67.4606 17.9787 67.3806 18 67.2926 18H65.3526ZM65.3526 17.672H67.2926C67.3353 17.672 67.3713 17.6573 67.4006 17.628C67.4326 17.596 67.4486 17.5587 67.4486 17.516V16.836C67.4486 16.7933 67.4326 16.7573 67.4006 16.728C67.3713 16.696 67.3353 16.68 67.2926 16.68H65.3526C65.31 16.68 65.2726 16.696 65.2406 16.728C65.2113 16.7573 65.1966 16.7933 65.1966 16.836V17.516C65.1966 17.5587 65.2113 17.596 65.2406 17.628C65.2726 17.6573 65.31 17.672 65.3526 17.672ZM65.3526 16.396H67.2926C67.3353 16.396 67.3713 16.3813 67.4006 16.352C67.4326 16.32 67.4486 16.2827 67.4486 16.24V15.608C67.4486 15.5653 67.4326 15.5293 67.4006 15.5C67.3713 15.468 67.3353 15.452 67.2926 15.452H65.3526C65.31 15.452 65.2726 15.468 65.2406 15.5C65.2113 15.5293 65.1966 15.5653 65.1966 15.608V16.24C65.1966 16.2827 65.2113 16.32 65.2406 16.352C65.2726 16.3813 65.31 16.396 65.3526 16.396ZM68.6686 18C68.5992 18 68.5326 17.9867 68.4686 17.96C68.4072 17.9307 68.3539 17.892 68.3086 17.844C68.2632 17.7933 68.2299 17.736 68.2086 17.672H70.6086C70.6512 17.672 70.6872 17.6573 70.7166 17.628C70.7486 17.596 70.7646 17.5587 70.7646 17.516V16.936C70.7646 16.8933 70.7486 16.8573 70.7166 16.828C70.6872 16.796 70.6512 16.78 70.6086 16.78H68.6686C68.5779 16.78 68.4952 16.7587 68.4206 16.716C68.3486 16.6707 68.2899 16.612 68.2446 16.54C68.2019 16.4653 68.1806 16.384 68.1806 16.296V15.604C68.1806 15.5133 68.2019 15.432 68.2446 15.36C68.2899 15.2853 68.3486 15.2267 68.4206 15.184C68.4952 15.1387 68.5779 15.116 68.6686 15.116H70.6086C70.6966 15.116 70.7766 15.1387 70.8486 15.184C70.9232 15.2267 70.9819 15.2853 71.0246 15.36C71.0699 15.432 71.0926 15.5133 71.0926 15.604V17.516C71.0926 17.604 71.0699 17.6853 71.0246 17.76C70.9819 17.832 70.9232 17.8907 70.8486 17.936C70.7766 17.9787 70.6966 18 70.6086 18H68.6686ZM68.6686 16.452H70.7646V15.604C70.7646 15.5613 70.7486 15.5253 70.7166 15.496C70.6872 15.464 70.6512 15.448 70.6086 15.448H68.6686C68.6259 15.448 68.5886 15.464 68.5566 15.496C68.5272 15.5253 68.5126 15.5613 68.5126 15.604V16.296C68.5126 16.3387 68.5272 16.376 68.5566 16.408C68.5886 16.4373 68.6259 16.452 68.6686 16.452ZM71.5051 15.976V15.648H71.8331V15.976H71.5051ZM71.5051 18V17.672H71.8331V18H71.5051ZM72.3605 15.976V15.648H72.6885V15.976H72.3605ZM72.3605 18V17.672H72.6885V18H72.3605Z" fill="#EB2941"/>
</svg>
