<svg width="417" height="426" viewBox="0 0 417 426" fill="none" xmlns="http://www.w3.org/2000/svg">
<path d="M200.737 284.251L148.737 260.66C141.59 257.418 137 250.295 137 242.447V183.553C137 175.705 141.59 168.582 148.737 165.34L200.737 141.749C205.988 139.366 212.012 139.366 217.263 141.749L269.263 165.34C276.41 168.582 281 175.705 281 183.553V242.447C281 250.295 276.41 257.418 269.263 260.66L217.263 284.251C212.012 286.634 205.988 286.634 200.737 284.251Z" fill="#EB2941"/>
<path d="M65.7873 73.3019L131.475 104.659C134.448 106.079 137.93 105.942 140.783 104.295L149.39 99.3255C152.281 97.6564 154.149 94.655 154.369 91.3241L159.125 19.2959C159.652 11.3194 151.07 5.97981 144.147 9.97677L65.0953 55.6172C58.1241 59.642 58.5229 69.8341 65.7873 73.3019Z" fill="#EF4444"/>
<path d="M159.374 405.942L153.687 333.376C153.429 330.091 151.57 327.144 148.717 325.497L140.11 320.527C137.219 318.858 133.686 318.742 130.691 320.217L65.9346 352.112C58.7633 355.644 58.4302 365.746 65.3531 369.743L144.405 415.383C151.376 419.408 160.003 413.967 159.374 405.942Z" fill="#EF4444"/>
<path d="M16.52 267.127L76.52 225.919C79.2358 224.053 80.8586 220.97 80.8586 217.676L80.8586 207.736C80.8586 204.398 79.193 201.28 76.4184 199.424L16.4184 159.291C9.77389 154.847 0.858623 159.609 0.858623 167.603L0.85863 258.884C0.85863 266.934 9.88462 271.684 16.52 267.127Z" fill="#EF4444"/>
<path d="M351.213 352.698L285.525 321.341C282.552 319.922 279.07 320.058 276.217 321.705L267.61 326.675C264.719 328.344 262.851 331.345 262.631 334.676L257.875 406.704C257.348 414.681 265.93 420.02 272.853 416.023L351.905 370.383C358.876 366.358 358.477 356.166 351.213 352.698Z" fill="#EF4444"/>
<path d="M258.626 19.0577L264.313 91.6234C264.571 94.908 266.43 97.855 269.283 99.5023L277.89 104.472C280.781 106.141 284.314 106.257 287.309 104.783L352.065 72.8877C359.237 69.3556 359.57 59.2535 352.647 55.2566L273.595 9.61613C266.624 5.5913 257.997 11.0327 258.626 19.0577Z" fill="#EF4444"/>
<path d="M401.197 159.64L341.197 200.848C338.481 202.713 336.859 205.796 336.859 209.091L336.859 219.03C336.859 222.368 338.524 225.486 341.299 227.342L401.299 267.476C407.943 271.92 416.859 267.157 416.859 259.164L416.859 167.883C416.859 159.833 407.833 155.082 401.197 159.64Z" fill="#EF4444"/>
</svg>
