<svg width="1507" height="653" viewBox="0 0 1507 653" fill="none" xmlns="http://www.w3.org/2000/svg">
<path d="M239.5 617.5H2.5V85.5L87 1H1504.5V12.5L1488.5 32H1336.5V39H1488.5L1504.5 57.5V572L1425.5 651H27L2.5 626.5H239.5V617.5Z" fill="#292524"/>
<path d="M2.5 83.5L2.5 85.5M2.5 85.5V617.5H239.5V626.5H2.5L27 651H1425.5L1504.5 572V57.5L1488.5 39H1336.5V32H1488.5L1504.5 12.5V1H87L2.5 85.5Z" stroke="#00B8DB" stroke-width="2"/>
<path d="M1441 651.5H1506V598.449V596.059V586.5L1441 651.5Z" fill="#00B8DB"/>
<path d="M1506 596.059V598.449M1506 598.449V651.5H1441L1506 586.5V598.449Z" stroke="#00B8DB" stroke-width="2"/>
</svg>
