<svg width="1831" height="1341" viewBox="0 0 1831 1341" fill="none" xmlns="http://www.w3.org/2000/svg">
<path d="M1830.11 595L1827.5 597.498L1823 592.885L1830.11 585.886V595Z" fill="#EF4444"/>
<path d="M1830.11 585L1822.5 592.499L1818 587.885L1830.11 575.886V585Z" fill="#EF4444"/>
<path d="M8.5 258.5V208.5L4 204V263L8.5 258.5Z" fill="#EF4444"/>
<path d="M1 199V1H1774L1830 57V412.5L1801.5 441V574L1830 602.5V1262L1801.5 1290.5H965L915.5 1340H29.5L1 1311.5V268.5L19 250.5V217L1 199Z" fill="#2B060C"/>
<path d="M16 251.72V215.28L13 212V255L16 251.72Z" fill="#EF4444"/>
<path d="M8.5 258.5V208.5L4 204V263L8.5 258.5Z" stroke="#EF4444" stroke-width="2"/>
<path d="M1 199V1H1774L1830 57V412.5L1801.5 441V574L1830 602.5V1262L1801.5 1290.5H965L915.5 1340H29.5L1 1311.5V268.5L19 250.5V217L1 199Z" stroke="#EF4444" stroke-width="2"/>
<path d="M16 251.72V215.28L13 212V255L16 251.72Z" stroke="#EF4444" stroke-width="2"/>
<path d="M1830 424.364L1803 451.25V442.136L1830 415.25V424.364Z" fill="#EF4444"/>
<path d="M1830 434.364L1803 461.25V452.136L1830 425.25V434.364Z" fill="#EF4444"/>
<path d="M1830 444.364L1803 471.25V462.136L1830 435.25V444.364Z" fill="#EF4444"/>
<path d="M1830 454.364L1803 481.25V472.136L1830 445.25V454.364Z" fill="#EF4444"/>
<path d="M1830 464.364L1803 491.25V482.136L1830 455.25V464.364Z" fill="#EF4444"/>
<path d="M1830 474.364L1803 501.25V492.136L1830 465.25V474.364Z" fill="#EF4444"/>
<path d="M1830 484.364L1803 511.25V502.136L1830 475.25V484.364Z" fill="#EF4444"/>
<path d="M1830 494.364L1803 521.25V512.136L1830 485.25V494.364Z" fill="#EF4444"/>
<path d="M1830 504.364L1803 531.25V522.136L1830 495.25V504.364Z" fill="#EF4444"/>
<path d="M1830 514.364L1803 541.25V532.136L1830 505.25V514.364Z" fill="#EF4444"/>
<path d="M1830 524.364L1803 551.25V542.136L1830 515.25V524.364Z" fill="#EF4444"/>
<path d="M1830 534.364L1803 561.25V552.136L1830 525.25V534.364Z" fill="#EF4444"/>
<path d="M1830 544.364L1803 571.25V562.136L1830 535.25V544.364Z" fill="#EF4444"/>
<path d="M1830 555.364L1807.5 577.75L1803 573.136L1830 546.25V555.364Z" fill="#EF4444"/>
<path d="M1830.11 565.25L1812.5 582.75L1808 578.136L1830.11 556.136V565.25Z" fill="#EF4444"/>
<path d="M1830.11 575L1817.5 587.499L1813 582.885L1830.11 565.886V575Z" fill="#EF4444"/>
</svg>
