{
	"asset":{
		"generator":"Khronos glTF Blender I/O v4.0.44",
		"version":"2.0"
	},
	"scene":0,
	"scenes":[
		{
			"name":"Scene",
			"nodes":[
				0
			]
		}
	],
	"nodes":[
		{
			"mesh":0,
			"name":"TexturedCube"
		}
	],
	"materials":[
		{
			"doubleSided":true,
			"name":"Metal Plates",
			"normalTexture":{
				"index":0,
				"texCoord":1
			},
			"pbrMetallicRoughness":{
				"baseColorTexture":{
					"index":1,
					"texCoord":1
				},
				"metallicRoughnessTexture":{
					"index":2,
					"texCoord":1
				}
			}
		}
	],
	"meshes":[
		{
			"name":"Cube.001",
			"primitives":[
				{
					"attributes":{
						"POSITION":0,
						"NORMAL":1,
						"TEXCOORD_0":2,
						"TEXCOORD_1":3
					},
					"indices":4,
					"material":0
				}
			]
		}
	],
	"textures":[
		{
			"sampler":0,
			"source":0
		},
		{
			"sampler":0,
			"source":1
		},
		{
			"sampler":0,
			"source":2
		}
	],
	"images":[
		{
			"mimeType":"image/jpeg",
			"name":"MetalPlates007_2K_Normal",
			"uri":"MetalPlates007_2K_Normal.jpg"
		},
		{
			"mimeType":"image/jpeg",
			"name":"MetalPlates007_2K_Color",
			"uri":"MetalPlates007_2K_Color.jpg"
		},
		{
			"mimeType":"image/png",
			"name":"MetalPlates007_2K_Metalness-MetalPlates007_2K_Roughness",
			"uri":"MetalPlates007_2K_Metalness-MetalPlates007_2K_Roughness.png"
		}
	],
	"accessors":[
		{
			"bufferView":0,
			"componentType":5126,
			"count":22672,
			"max":[
				1.0419080257415771,
				1.0419080257415771,
				1.0419080257415771
			],
			"min":[
				-1.0419080257415771,
				-1.0419080257415771,
				-1.0419080257415771
			],
			"type":"VEC3"
		},
		{
			"bufferView":1,
			"componentType":5126,
			"count":22672,
			"type":"VEC3"
		},
		{
			"bufferView":2,
			"componentType":5126,
			"count":22672,
			"type":"VEC2"
		},
		{
			"bufferView":3,
			"componentType":5126,
			"count":22672,
			"type":"VEC2"
		},
		{
			"bufferView":4,
			"componentType":5123,
			"count":39300,
			"type":"SCALAR"
		}
	],
	"bufferViews":[
		{
			"buffer":0,
			"byteLength":272064,
			"byteOffset":0,
			"target":34962
		},
		{
			"buffer":0,
			"byteLength":272064,
			"byteOffset":272064,
			"target":34962
		},
		{
			"buffer":0,
			"byteLength":181376,
			"byteOffset":544128,
			"target":34962
		},
		{
			"buffer":0,
			"byteLength":181376,
			"byteOffset":725504,
			"target":34962
		},
		{
			"buffer":0,
			"byteLength":78600,
			"byteOffset":906880,
			"target":34963
		}
	],
	"samplers":[
		{
			"magFilter":9729,
			"minFilter":9987
		}
	],
	"buffers":[
		{
			"byteLength":985480,
			"uri":"textured-cube.bin"
		}
	]
}
