<svg width="252" height="287" viewBox="0 0 252 287" fill="none" xmlns="http://www.w3.org/2000/svg">
<path d="M115.932 87.2201L117.285 85.2086C118.214 83.828 119.769 83 121.434 83H129.958C131.434 83 132.834 83.6521 133.784 84.7815L135.706 87.0668C136.537 88.0538 136.953 89.3233 136.869 90.6102L132.59 156.325C132.419 158.955 130.236 161 127.601 161H123.518C120.857 161 118.663 158.917 118.525 156.26L115.087 90.2716C115.03 89.1897 115.327 88.1188 115.932 87.2201Z" fill="#EB2941"/>
<path d="M12.8103 260V239C12.8103 238.23 12.9969 237.53 13.3703 236.9C13.7436 236.247 14.2453 235.733 14.8753 235.36C15.5286 234.987 16.2403 234.8 17.0103 234.8H33.8103C34.5803 234.8 35.2803 234.987 35.9103 235.36C36.5636 235.733 37.0769 236.247 37.4503 236.9C37.8236 237.53 38.0103 238.23 38.0103 239V260H35.1753V250.795H15.6453V260H12.8103ZM15.6453 247.96H35.1753V239C35.1753 238.627 35.0353 238.312 34.7553 238.055C34.4986 237.775 34.1836 237.635 33.8103 237.635H17.0103C16.6369 237.635 16.3103 237.775 16.0303 238.055C15.7736 238.312 15.6453 238.627 15.6453 239V247.96ZM51.9381 260V237.635H40.7381V234.8H65.9381V237.635H54.7731V260H51.9381ZM78.4957 260V237.635H67.2957V234.8H92.4957V237.635H81.3307V260H78.4957ZM95.1833 260V234.8H118.178V237.635H98.0183V245.965H114.223V248.835H98.0183V257.165H118.178V260H95.1833ZM121.91 260V234.8H125.795L144.275 256.78V234.8H147.11V260H143.225L124.745 238.02V260H121.91ZM160.971 260V237.635H149.771V234.8H174.971V237.635H163.806V260H160.971ZM177.939 260V234.8H180.809V260H177.939ZM189.204 260C188.434 260 187.723 259.813 187.069 259.44C186.439 259.067 185.938 258.565 185.564 257.935C185.191 257.282 185.004 256.57 185.004 255.8V239C185.004 238.23 185.191 237.53 185.564 236.9C185.938 236.247 186.439 235.733 187.069 235.36C187.723 234.987 188.434 234.8 189.204 234.8H206.004C206.774 234.8 207.474 234.987 208.104 235.36C208.758 235.733 209.271 236.247 209.644 236.9C210.018 237.53 210.204 238.23 210.204 239V255.8C210.204 256.57 210.018 257.282 209.644 257.935C209.271 258.565 208.758 259.067 208.104 259.44C207.474 259.813 206.774 260 206.004 260H189.204ZM189.204 257.165H206.004C206.378 257.165 206.693 257.037 206.949 256.78C207.229 256.5 207.369 256.173 207.369 255.8V239C207.369 238.627 207.229 238.312 206.949 238.055C206.693 237.775 206.378 237.635 206.004 237.635H189.204C188.831 237.635 188.504 237.775 188.224 238.055C187.968 238.312 187.839 238.627 187.839 239V255.8C187.839 256.173 187.968 256.5 188.224 256.78C188.504 257.037 188.831 257.165 189.204 257.165ZM214.059 260V234.8H217.944L236.424 256.78V234.8H239.259V260H235.374L216.894 238.02V260H214.059Z" fill="#EB2941"/>
<path d="M22.5 207H21.19L69.4867 117.197L73.1689 114.735L74.736 113.687L75.6214 112.022L111.529 44.5224L112.408 42.8708V41V37.3889L125.86 12.3753L139.313 37.3889V41V42.8708L140.191 44.5224L176.099 112.022L176.984 113.687L178.552 114.735L182.234 117.197L230.53 207H229.22H22.5Z" stroke="#EB2941" stroke-width="15"/>
<rect x="118" y="167" width="16" height="16" rx="5" fill="#EB2941"/>
</svg>
