<svg width="9" height="287" viewBox="0 0 9 287" fill="none" xmlns="http://www.w3.org/2000/svg">
<path d="M9 0H2V6L0 8V287H4V255L6 253V205.5L9 202.5V199.5L6 196.5V193L9 190V184.5L6 181.5V171.5L9 168.5V136V109L6 106V93.5L4 91.5V31L9 26V5L8 4V2L9 1V0Z" fill="#EF4444"/>
<path d="M8 89.442C8 89.514 7.983 89.58 7.949 89.64C7.913 89.698 7.866 89.745 7.808 89.781C7.748 89.815 7.682 89.832 7.61 89.832L6.23 89.832C6.158 89.832 6.093 89.815 6.035 89.781C5.975 89.745 5.928 89.698 5.894 89.64C5.858 89.58 5.84 89.514 5.84 89.442L5.84 87.678L6.164 87.678L6.164 89.397C6.164 89.429 6.175 89.456 6.197 89.478C6.217 89.498 6.243 89.508 6.275 89.508L7.565 89.508C7.597 89.508 7.624 89.498 7.646 89.478C7.666 89.456 7.676 89.429 7.676 89.397L7.676 87.678L8 87.678L8 89.442ZM8 86.9752C8 87.0472 7.983 87.1132 7.949 87.1732C7.913 87.2312 7.866 87.2782 7.808 87.3142C7.748 87.3482 7.682 87.3652 7.61 87.3652L6.23 87.3652C6.158 87.3652 6.093 87.3482 6.035 87.3142C5.975 87.2782 5.928 87.2312 5.894 87.1732C5.858 87.1132 5.84 87.0472 5.84 86.9752L5.84 85.2112L6.164 85.2112L6.164 86.9302C6.164 86.9622 6.175 86.9892 6.197 87.0112C6.217 87.0312 6.243 87.0412 6.275 87.0412L7.565 87.0412C7.597 87.0412 7.624 87.0312 7.646 87.0112C7.666 86.9892 7.676 86.9622 7.676 86.9302L7.676 85.2112L8 85.2112L8 86.9752ZM7.274 84.8894L6.95 84.8894L6.95 83.6894L7.274 83.6894L7.274 84.8894ZM8 82.9676C8 83.0276 7.986 83.0836 7.958 83.1356C7.93 83.1876 7.892 83.2326 7.844 83.2706C7.794 83.3086 7.738 83.3356 7.676 83.3516L7.676 81.5966C7.676 81.5766 7.669 81.5596 7.655 81.5456C7.639 81.5296 7.621 81.5216 7.601 81.5216L7.187 81.5216C7.165 81.5216 7.147 81.5296 7.133 81.5456C7.119 81.5596 7.112 81.5766 7.112 81.5966L7.112 82.9676C7.112 83.0416 7.094 83.1076 7.058 83.1656C7.022 83.2236 6.975 83.2706 6.917 83.3066C6.857 83.3426 6.792 83.3606 6.722 83.3606L6.23 83.3606C6.156 83.3606 6.09 83.3426 6.032 83.3066C5.974 83.2706 5.927 83.2236 5.891 83.1656C5.855 83.1056 5.837 83.0396 5.837 82.9676L5.837 81.5876C5.837 81.5176 5.855 81.4536 5.891 81.3956C5.927 81.3356 5.974 81.2886 6.032 81.2546C6.09 81.2186 6.156 81.2006 6.23 81.2006L7.61 81.2006C7.682 81.2006 7.747 81.2186 7.805 81.2546C7.863 81.2886 7.91 81.3356 7.946 81.3956C7.982 81.4536 8 81.5176 8 81.5876L8 82.9676ZM6.785 82.9586L6.785 81.5216L6.239 81.5216C6.219 81.5216 6.202 81.5296 6.188 81.5456C6.172 81.5596 6.164 81.5766 6.164 81.5966L6.164 82.9586C6.164 82.9786 6.172 82.9966 6.188 83.0126C6.202 83.0266 6.219 83.0336 6.239 83.0336L6.713 83.0336C6.733 83.0336 6.75 83.0266 6.764 83.0126C6.778 82.9966 6.785 82.9786 6.785 82.9586ZM8 80.4712C8 80.5432 7.982 80.6092 7.946 80.6692C7.91 80.7272 7.863 80.7742 7.805 80.8102C7.747 80.8442 7.682 80.8612 7.61 80.8612L7.121 80.8612C7.083 80.8612 7.045 80.8542 7.007 80.8402C6.967 80.8262 6.929 80.8082 6.893 80.7862C6.857 80.8082 6.82 80.8262 6.782 80.8402C6.742 80.8542 6.703 80.8612 6.665 80.8612L6.23 80.8612C6.156 80.8612 6.09 80.8442 6.032 80.8102C5.974 80.7742 5.927 80.7272 5.891 80.6692C5.855 80.6092 5.837 80.5432 5.837 80.4712L5.837 79.0912C5.837 79.0312 5.852 78.9742 5.882 78.9202C5.912 78.8662 5.952 78.8202 6.002 78.7822C6.052 78.7422 6.106 78.7152 6.164 78.7012L6.665 78.7012C6.741 78.7012 6.817 78.7272 6.893 78.7792C6.965 78.7272 7.041 78.7012 7.121 78.7012L7.61 78.7012C7.682 78.7012 7.747 78.7192 7.805 78.7552C7.863 78.7912 7.91 78.8392 7.946 78.8992C7.982 78.9572 8 79.0212 8 79.0912L8 80.4712ZM7.676 80.4622L7.676 79.1002C7.676 79.0802 7.669 79.0632 7.655 79.0492C7.639 79.0332 7.621 79.0252 7.601 79.0252L7.13 79.0252C7.11 79.0252 7.093 79.0332 7.079 79.0492C7.063 79.0632 7.055 79.0802 7.055 79.1002L7.055 80.4622C7.055 80.4822 7.063 80.5002 7.079 80.5162C7.093 80.5302 7.11 80.5372 7.13 80.5372L7.601 80.5372C7.621 80.5372 7.639 80.5302 7.655 80.5162C7.669 80.5002 7.676 80.4822 7.676 80.4622ZM6.764 80.4622L6.764 79.1002C6.764 79.0802 6.757 79.0632 6.743 79.0492C6.727 79.0332 6.709 79.0252 6.689 79.0252L6.242 79.0252C6.222 79.0252 6.205 79.0332 6.191 79.0492C6.175 79.0632 6.167 79.0802 6.167 79.1002L6.167 80.4622C6.167 80.4822 6.175 80.5002 6.191 80.5162C6.205 80.5302 6.222 80.5372 6.242 80.5372L6.689 80.5372C6.709 80.5372 6.727 80.5302 6.743 80.5162C6.757 80.5002 6.764 80.4822 6.764 80.4622ZM7.274 78.3533L6.95 78.3533L6.95 77.1533L7.274 77.1533L7.274 78.3533ZM8 76.8095L7.181 76.8095C7.107 76.8095 7.041 76.7925 6.983 76.7585C6.925 76.7225 6.879 76.6755 6.845 76.6175C6.809 76.5575 6.791 76.4915 6.791 76.4195L6.791 75.0485C6.791 75.0285 6.784 75.0115 6.77 74.9975C6.754 74.9815 6.736 74.9735 6.716 74.9735L6.239 74.9735C6.219 74.9735 6.202 74.9815 6.188 74.9975C6.172 75.0115 6.164 75.0285 6.164 75.0485L6.164 76.4105C6.164 76.4305 6.172 76.4485 6.188 76.4645C6.202 76.4785 6.219 76.4855 6.239 76.4855L6.356 76.4855L6.356 76.8095L6.23 76.8095C6.156 76.8095 6.09 76.7925 6.032 76.7585C5.974 76.7225 5.927 76.6755 5.891 76.6175C5.855 76.5575 5.837 76.4915 5.837 76.4195L5.837 75.0395C5.837 74.9695 5.855 74.9055 5.891 74.8475C5.927 74.7875 5.974 74.7395 6.032 74.7035C6.09 74.6675 6.156 74.6495 6.23 74.6495L6.725 74.6495C6.797 74.6495 6.863 74.6675 6.923 74.7035C6.981 74.7395 7.028 74.7875 7.064 74.8475C7.098 74.9055 7.115 74.9695 7.115 75.0395L7.115 76.4105C7.115 76.4305 7.123 76.4485 7.139 76.4645C7.153 76.4785 7.17 76.4855 7.19 76.4855L7.601 76.4855C7.621 76.4855 7.639 76.4785 7.655 76.4645C7.669 76.4485 7.676 76.4305 7.676 76.4105L7.676 74.6495L8 74.6495L8 76.8095ZM8 73.9382C8 74.0122 7.982 74.0782 7.946 74.1362C7.91 74.1942 7.863 74.2412 7.805 74.2772C7.747 74.3132 7.682 74.3312 7.61 74.3312L7.52 74.3312L7.52 74.0042L7.601 74.0042C7.621 74.0042 7.639 73.9972 7.655 73.9832C7.669 73.9692 7.676 73.9522 7.676 73.9322L7.676 72.5672C7.676 72.5472 7.669 72.5302 7.655 72.5162C7.639 72.5022 7.621 72.4952 7.601 72.4952L7.139 72.4952C7.119 72.4952 7.102 72.5022 7.088 72.5162C7.072 72.5302 7.064 72.5472 7.064 72.5672L7.064 73.9382L6.74 73.9382L6.74 72.6602C6.74 72.6382 6.733 72.6202 6.719 72.6062C6.703 72.5922 6.685 72.5852 6.665 72.5852L6.239 72.5852C6.219 72.5852 6.202 72.5922 6.188 72.6062C6.172 72.6202 6.164 72.6382 6.164 72.6602L6.164 73.9322C6.164 73.9522 6.172 73.9692 6.188 73.9832C6.202 73.9972 6.219 74.0042 6.239 74.0042L6.35 74.0042L6.35 74.3312L6.23 74.3312C6.156 74.3312 6.09 74.3142 6.032 74.2802C5.974 74.2442 5.927 74.1962 5.891 74.1362C5.855 74.0762 5.837 74.0102 5.837 73.9382L5.837 72.6512C5.837 72.5772 5.855 72.5112 5.891 72.4532C5.927 72.3932 5.974 72.3462 6.032 72.3122C6.09 72.2782 6.156 72.2612 6.23 72.2612L6.674 72.2612C6.7 72.2612 6.726 72.2642 6.752 72.2702C6.778 72.2742 6.802 72.2812 6.824 72.2912C6.868 72.2472 6.917 72.2162 6.971 72.1982C7.025 72.1802 7.078 72.1712 7.13 72.1712L7.61 72.1712C7.682 72.1712 7.747 72.1892 7.805 72.2252C7.863 72.2592 7.91 72.3062 7.946 72.3662C7.982 72.4242 8 72.4882 8 72.5582L8 73.9382ZM6.569 71.8497L6.245 71.8497L6.245 71.5257L6.569 71.5257L6.569 71.8497ZM8 71.8497L7.676 71.8497L7.676 71.5257L8 71.5257L8 71.8497ZM6.569 71.173L6.245 71.173L6.245 70.849L6.569 70.849L6.569 71.173ZM8 71.173L7.676 71.173L7.676 70.849L8 70.849L8 71.173ZM8 70.1002C8 70.1722 7.983 70.2382 7.949 70.2982C7.913 70.3562 7.866 70.4032 7.808 70.4392C7.748 70.4732 7.682 70.4902 7.61 70.4902L6.23 70.4902C6.158 70.4902 6.093 70.4732 6.035 70.4392C5.975 70.4032 5.928 70.3562 5.894 70.2982C5.858 70.2382 5.84 70.1722 5.84 70.1002L5.84 68.3362L6.164 68.3362L6.164 70.0552C6.164 70.0872 6.175 70.1142 6.197 70.1362C6.217 70.1562 6.243 70.1662 6.275 70.1662L7.565 70.1662C7.597 70.1662 7.624 70.1562 7.646 70.1362C7.666 70.1142 7.676 70.0872 7.676 70.0552L7.676 68.3362L8 68.3362L8 70.1002ZM8 67.6454C8 67.7154 7.983 67.7804 7.949 67.8404C7.913 67.9004 7.866 67.9484 7.808 67.9844C7.748 68.0184 7.682 68.0354 7.61 68.0354L7.484 68.0354L7.484 67.7114L7.601 67.7114C7.621 67.7114 7.639 67.7044 7.655 67.6904C7.669 67.6744 7.676 67.6564 7.676 67.6364L7.676 66.2744C7.676 66.2544 7.669 66.2374 7.655 66.2234C7.639 66.2094 7.621 66.2024 7.601 66.2024L7.157 66.2024C7.135 66.2024 7.117 66.2094 7.103 66.2234C7.089 66.2374 7.082 66.2544 7.082 66.2744L7.082 67.6454C7.082 67.7154 7.065 67.7804 7.031 67.8404C6.995 67.9004 6.948 67.9484 6.89 67.9844C6.83 68.0184 6.764 68.0354 6.692 68.0354L6.23 68.0354C6.158 68.0354 6.093 68.0184 6.035 67.9844C5.975 67.9484 5.928 67.9004 5.894 67.8404C5.858 67.7804 5.84 67.7154 5.84 67.6454L5.84 66.2654C5.84 66.1954 5.858 66.1304 5.894 66.0704C5.928 66.0104 5.975 65.9634 6.035 65.9294C6.093 65.8934 6.158 65.8754 6.23 65.8754L6.356 65.8754L6.356 66.2024L6.239 66.2024C6.219 66.2024 6.202 66.2094 6.188 66.2234C6.172 66.2374 6.164 66.2544 6.164 66.2744L6.164 67.6364C6.164 67.6564 6.172 67.6744 6.188 67.6904C6.202 67.7044 6.219 67.7114 6.239 67.7114L6.683 67.7114C6.705 67.7114 6.723 67.7044 6.737 67.6904C6.751 67.6744 6.758 67.6564 6.758 67.6364L6.758 66.2654C6.758 66.1954 6.776 66.1304 6.812 66.0704C6.846 66.0104 6.893 65.9634 6.953 65.9294C7.011 65.8934 7.076 65.8754 7.148 65.8754L7.61 65.8754C7.682 65.8754 7.748 65.8934 7.808 65.9294C7.866 65.9634 7.913 66.0104 7.949 66.0704C7.983 66.1304 8 66.1954 8 66.2654L8 67.6454ZM8 65.1727C8 65.2427 7.983 65.3077 7.949 65.3677C7.913 65.4277 7.866 65.4757 7.808 65.5117C7.748 65.5457 7.682 65.5627 7.61 65.5627L7.484 65.5627L7.484 65.2387L7.601 65.2387C7.621 65.2387 7.639 65.2317 7.655 65.2177C7.669 65.2017 7.676 65.1837 7.676 65.1637L7.676 63.8017C7.676 63.7817 7.669 63.7647 7.655 63.7507C7.639 63.7367 7.621 63.7297 7.601 63.7297L7.157 63.7297C7.135 63.7297 7.117 63.7367 7.103 63.7507C7.089 63.7647 7.082 63.7817 7.082 63.8017L7.082 65.1727C7.082 65.2427 7.065 65.3077 7.031 65.3677C6.995 65.4277 6.948 65.4757 6.89 65.5117C6.83 65.5457 6.764 65.5627 6.692 65.5627L6.23 65.5627C6.158 65.5627 6.093 65.5457 6.035 65.5117C5.975 65.4757 5.928 65.4277 5.894 65.3677C5.858 65.3077 5.84 65.2427 5.84 65.1727L5.84 63.7927C5.84 63.7227 5.858 63.6577 5.894 63.5977C5.928 63.5377 5.975 63.4907 6.035 63.4567C6.093 63.4207 6.158 63.4027 6.23 63.4027L6.356 63.4027L6.356 63.7297L6.239 63.7297C6.219 63.7297 6.202 63.7367 6.188 63.7507C6.172 63.7647 6.164 63.7817 6.164 63.8017L6.164 65.1637C6.164 65.1837 6.172 65.2017 6.188 65.2177C6.202 65.2317 6.219 65.2387 6.239 65.2387L6.683 65.2387C6.705 65.2387 6.723 65.2317 6.737 65.2177C6.751 65.2017 6.758 65.1837 6.758 65.1637L6.758 63.7927C6.758 63.7227 6.776 63.6577 6.812 63.5977C6.846 63.5377 6.893 63.4907 6.953 63.4567C7.011 63.4207 7.076 63.4027 7.148 63.4027L7.61 63.4027C7.682 63.4027 7.748 63.4207 7.808 63.4567C7.866 63.4907 7.913 63.5377 7.949 63.5977C7.983 63.6577 8 63.7227 8 63.7927L8 65.1727ZM8 62.7001C8 62.7701 7.983 62.8351 7.949 62.8951C7.913 62.9551 7.866 63.0031 7.808 63.0391C7.748 63.0731 7.682 63.0901 7.61 63.0901L7.484 63.0901L7.484 62.7661L7.601 62.7661C7.621 62.7661 7.639 62.7591 7.655 62.7451C7.669 62.7291 7.676 62.7111 7.676 62.6911L7.676 61.3291C7.676 61.3091 7.669 61.2921 7.655 61.2781C7.639 61.2641 7.621 61.2571 7.601 61.2571L7.157 61.2571C7.135 61.2571 7.117 61.2641 7.103 61.2781C7.089 61.2921 7.082 61.3091 7.082 61.3291L7.082 62.7001C7.082 62.7701 7.065 62.8351 7.031 62.8951C6.995 62.9551 6.948 63.0031 6.89 63.0391C6.83 63.0731 6.764 63.0901 6.692 63.0901L6.23 63.0901C6.158 63.0901 6.093 63.0731 6.035 63.0391C5.975 63.0031 5.928 62.9551 5.894 62.8951C5.858 62.8351 5.84 62.7701 5.84 62.7001L5.84 61.3201C5.84 61.2501 5.858 61.1851 5.894 61.1251C5.928 61.0651 5.975 61.0181 6.035 60.9841C6.093 60.9481 6.158 60.9301 6.23 60.9301L6.356 60.9301L6.356 61.2571L6.239 61.2571C6.219 61.2571 6.202 61.2641 6.188 61.2781C6.172 61.2921 6.164 61.3091 6.164 61.3291L6.164 62.6911C6.164 62.7111 6.172 62.7291 6.188 62.7451C6.202 62.7591 6.219 62.7661 6.239 62.7661L6.683 62.7661C6.705 62.7661 6.723 62.7591 6.737 62.7451C6.751 62.7291 6.758 62.7111 6.758 62.6911L6.758 61.3201C6.758 61.2501 6.776 61.1851 6.812 61.1251C6.846 61.0651 6.893 61.0181 6.953 60.9841C7.011 60.9481 7.076 60.9301 7.148 60.9301L7.61 60.9301C7.682 60.9301 7.748 60.9481 7.808 60.9841C7.866 61.0181 7.913 61.0651 7.949 61.1251C7.983 61.1851 8 61.2501 8 61.3201L8 62.7001ZM8 60.5994L6.23 60.5994C6.158 60.5994 6.093 60.5824 6.035 60.5484C5.975 60.5124 5.928 60.4654 5.894 60.4074C5.858 60.3474 5.84 60.2814 5.84 60.2094L5.84 58.8324C5.84 58.7604 5.858 58.6944 5.894 58.6344C5.928 58.5744 5.975 58.5274 6.035 58.4934C6.093 58.4574 6.158 58.4394 6.23 58.4394L8 58.4394L8 58.7664L7.244 58.7664L7.244 60.2754L8 60.2754L8 60.5994ZM6.92 60.2754L6.92 58.7664L6.239 58.7664C6.219 58.7664 6.202 58.7734 6.188 58.7874C6.172 58.8014 6.164 58.8184 6.164 58.8384L6.164 60.2004C6.164 60.2204 6.172 60.2384 6.188 60.2544C6.202 60.2684 6.219 60.2754 6.239 60.2754L6.92 60.2754ZM6.569 58.1036L6.245 58.1036L6.245 57.7796L6.569 57.7796L6.569 58.1036ZM8 58.1036L7.676 58.1036L7.676 57.7796L8 57.7796L8 58.1036ZM8 57.4119L5.84 57.4119L5.84 55.7319C5.84 55.6619 5.858 55.5969 5.894 55.5369C5.928 55.4769 5.975 55.4299 6.035 55.3959C6.093 55.3599 6.158 55.3419 6.23 55.3419L6.671 55.3419C6.697 55.3419 6.723 55.3449 6.749 55.3509C6.775 55.3549 6.799 55.3629 6.821 55.3749C6.877 55.3349 6.93 55.3049 6.98 55.2849C7.028 55.2629 7.077 55.2519 7.127 55.2519L7.61 55.2519C7.682 55.2519 7.748 55.2699 7.808 55.3059C7.866 55.3399 7.913 55.3869 7.949 55.4469C7.983 55.5069 8 55.5729 8 55.6449L8 57.4119ZM7.676 57.0129L7.676 55.6509C7.676 55.6309 7.669 55.6139 7.655 55.5999C7.639 55.5859 7.621 55.5789 7.601 55.5789L7.136 55.5789C7.116 55.5789 7.099 55.5859 7.085 55.5999C7.069 55.6139 7.061 55.6309 7.061 55.6509L7.061 57.0129C7.061 57.0329 7.069 57.0509 7.085 57.0669C7.099 57.0809 7.116 57.0879 7.136 57.0879L7.601 57.0879C7.621 57.0879 7.639 57.0809 7.655 57.0669C7.669 57.0509 7.676 57.0329 7.676 57.0129ZM6.737 57.0129L6.737 55.7409C6.737 55.7209 6.73 55.7039 6.716 55.6899C6.7 55.6759 6.682 55.6689 6.662 55.6689L6.239 55.6689C6.219 55.6689 6.202 55.6759 6.188 55.6899C6.172 55.7039 6.164 55.7209 6.164 55.7409L6.164 57.0129C6.164 57.0329 6.172 57.0509 6.188 57.0669C6.202 57.0809 6.219 57.0879 6.239 57.0879L6.662 57.0879C6.682 57.0879 6.7 57.0809 6.716 57.0669C6.73 57.0509 6.737 57.0329 6.737 57.0129ZM8 54.9158L5.84 54.9158L5.84 53.2358C5.84 53.1658 5.858 53.1008 5.894 53.0408C5.928 52.9808 5.975 52.9338 6.035 52.8998C6.093 52.8638 6.158 52.8458 6.23 52.8458L6.671 52.8458C6.697 52.8458 6.723 52.8488 6.749 52.8548C6.775 52.8588 6.799 52.8668 6.821 52.8788C6.877 52.8388 6.93 52.8088 6.98 52.7888C7.028 52.7668 7.077 52.7558 7.127 52.7558L7.61 52.7558C7.682 52.7558 7.748 52.7738 7.808 52.8098C7.866 52.8438 7.913 52.8908 7.949 52.9508C7.983 53.0108 8 53.0768 8 53.1488L8 54.9158ZM7.676 54.5168L7.676 53.1548C7.676 53.1348 7.669 53.1178 7.655 53.1038C7.639 53.0898 7.621 53.0828 7.601 53.0828L7.136 53.0828C7.116 53.0828 7.099 53.0898 7.085 53.1038C7.069 53.1178 7.061 53.1348 7.061 53.1548L7.061 54.5168C7.061 54.5368 7.069 54.5548 7.085 54.5708C7.099 54.5848 7.116 54.5918 7.136 54.5918L7.601 54.5918C7.621 54.5918 7.639 54.5848 7.655 54.5708C7.669 54.5548 7.676 54.5368 7.676 54.5168ZM6.737 54.5168L6.737 53.2448C6.737 53.2248 6.73 53.2078 6.716 53.1938C6.7 53.1798 6.682 53.1728 6.662 53.1728L6.239 53.1728C6.219 53.1728 6.202 53.1798 6.188 53.1938C6.172 53.2078 6.164 53.2248 6.164 53.2448L6.164 54.5168C6.164 54.5368 6.172 54.5548 6.188 54.5708C6.202 54.5848 6.219 54.5918 6.239 54.5918L6.662 54.5918C6.682 54.5918 6.7 54.5848 6.716 54.5708C6.73 54.5548 6.737 54.5368 6.737 54.5168ZM8 52.4197L5.84 52.4197L5.84 50.7397C5.84 50.6697 5.858 50.6047 5.894 50.5447C5.928 50.4847 5.975 50.4377 6.035 50.4037C6.093 50.3677 6.158 50.3497 6.23 50.3497L6.671 50.3497C6.697 50.3497 6.723 50.3527 6.749 50.3587C6.775 50.3627 6.799 50.3707 6.821 50.3827C6.877 50.3427 6.93 50.3127 6.98 50.2927C7.028 50.2707 7.077 50.2597 7.127 50.2597L7.61 50.2597C7.682 50.2597 7.748 50.2777 7.808 50.3137C7.866 50.3477 7.913 50.3947 7.949 50.4547C7.983 50.5147 8 50.5807 8 50.6527L8 52.4197ZM7.676 52.0207L7.676 50.6587C7.676 50.6387 7.669 50.6217 7.655 50.6077C7.639 50.5937 7.621 50.5867 7.601 50.5867L7.136 50.5867C7.116 50.5867 7.099 50.5937 7.085 50.6077C7.069 50.6217 7.061 50.6387 7.061 50.6587L7.061 52.0207C7.061 52.0407 7.069 52.0587 7.085 52.0747C7.099 52.0887 7.116 52.0957 7.136 52.0957L7.601 52.0957C7.621 52.0957 7.639 52.0887 7.655 52.0747C7.669 52.0587 7.676 52.0407 7.676 52.0207ZM6.737 52.0207L6.737 50.7487C6.737 50.7287 6.73 50.7117 6.716 50.6977C6.7 50.6837 6.682 50.6767 6.662 50.6767L6.239 50.6767C6.219 50.6767 6.202 50.6837 6.188 50.6977C6.172 50.7117 6.164 50.7287 6.164 50.7487L6.164 52.0207C6.164 52.0407 6.172 52.0587 6.188 52.0747C6.202 52.0887 6.219 52.0957 6.239 52.0957L6.662 52.0957C6.682 52.0957 6.7 52.0887 6.716 52.0747C6.73 52.0587 6.737 52.0407 6.737 52.0207ZM8 49.5546C8 49.6246 7.983 49.6896 7.949 49.7496C7.913 49.8096 7.866 49.8576 7.808 49.8936C7.748 49.9276 7.682 49.9446 7.61 49.9446L7.484 49.9446L7.484 49.6206L7.601 49.6206C7.621 49.6206 7.639 49.6136 7.655 49.5996C7.669 49.5836 7.676 49.5656 7.676 49.5456L7.676 48.1836C7.676 48.1636 7.669 48.1466 7.655 48.1326C7.639 48.1186 7.621 48.1116 7.601 48.1116L7.157 48.1116C7.135 48.1116 7.117 48.1186 7.103 48.1326C7.089 48.1466 7.082 48.1636 7.082 48.1836L7.082 49.5546C7.082 49.6246 7.065 49.6896 7.031 49.7496C6.995 49.8096 6.948 49.8576 6.89 49.8936C6.83 49.9276 6.764 49.9446 6.692 49.9446L6.23 49.9446C6.158 49.9446 6.093 49.9276 6.035 49.8936C5.975 49.8576 5.928 49.8096 5.894 49.7496C5.858 49.6896 5.84 49.6246 5.84 49.5546L5.84 48.1746C5.84 48.1046 5.858 48.0396 5.894 47.9796C5.928 47.9196 5.975 47.8726 6.035 47.8386C6.093 47.8026 6.158 47.7846 6.23 47.7846L6.356 47.7846L6.356 48.1116L6.239 48.1116C6.219 48.1116 6.202 48.1186 6.188 48.1326C6.172 48.1466 6.164 48.1636 6.164 48.1836L6.164 49.5456C6.164 49.5656 6.172 49.5836 6.188 49.5996C6.202 49.6136 6.219 49.6206 6.239 49.6206L6.683 49.6206C6.705 49.6206 6.723 49.6136 6.737 49.5996C6.751 49.5836 6.758 49.5656 6.758 49.5456L6.758 48.1746C6.758 48.1046 6.776 48.0396 6.812 47.9796C6.846 47.9196 6.893 47.8726 6.953 47.8386C7.011 47.8026 7.076 47.7846 7.148 47.7846L7.61 47.7846C7.682 47.7846 7.748 47.8026 7.808 47.8386C7.866 47.8726 7.913 47.9196 7.949 47.9796C7.983 48.0396 8 48.1046 8 48.1746L8 49.5546ZM8 47.0759C8 47.1479 7.983 47.2139 7.949 47.2739C7.913 47.3319 7.866 47.3789 7.808 47.4149C7.748 47.4489 7.682 47.4659 7.61 47.4659L5.84 47.4659L5.84 47.1419L7.601 47.1419C7.621 47.1419 7.639 47.1349 7.655 47.1209C7.669 47.1049 7.676 47.0869 7.676 47.0669L7.676 45.7049C7.676 45.6849 7.669 45.6679 7.655 45.6539C7.639 45.6399 7.621 45.6329 7.601 45.6329L5.84 45.6329L5.84 45.3059L7.61 45.3059C7.682 45.3059 7.748 45.3239 7.808 45.3599C7.866 45.3939 7.913 45.4409 7.949 45.5009C7.983 45.5609 8 45.6259 8 45.6959L8 47.0759ZM6.569 44.9816L6.245 44.9816L6.245 44.6576L6.569 44.6576L6.569 44.9816ZM8 44.9816L7.676 44.9816L7.676 44.6576L8 44.6576L8 44.9816ZM8 43.9058C8 43.9778 7.982 44.0438 7.946 44.1038C7.908 44.1618 7.859 44.2088 7.799 44.2448C7.737 44.2788 7.671 44.2958 7.601 44.2958L6.236 44.2958C6.164 44.2958 6.098 44.2788 6.038 44.2448C5.978 44.2088 5.93 44.1618 5.894 44.1038C5.858 44.0438 5.84 43.9778 5.84 43.9058L5.84 42.5258C5.84 42.4558 5.858 42.3918 5.894 42.3338C5.93 42.2738 5.978 42.2258 6.038 42.1898C6.098 42.1538 6.164 42.1358 6.236 42.1358L7.601 42.1358C7.671 42.1358 7.737 42.1538 7.799 42.1898C7.859 42.2258 7.908 42.2738 7.946 42.3338C7.982 42.3918 8 42.4558 8 42.5258L8 43.9058ZM7.664 43.8638L7.664 42.5348C7.664 42.5148 7.657 42.4978 7.643 42.4838C7.629 42.4678 7.612 42.4598 7.592 42.4598L6.503 42.4598L7.664 43.8638ZM7.331 43.9718L6.17 42.5708L6.17 43.8968C6.17 43.9168 6.178 43.9348 6.194 43.9508C6.208 43.9648 6.225 43.9718 6.245 43.9718L7.331 43.9718ZM8 41.4038C8 41.4758 7.982 41.5418 7.946 41.6018C7.908 41.6598 7.859 41.7068 7.799 41.7428C7.737 41.7768 7.671 41.7938 7.601 41.7938L6.236 41.7938C6.164 41.7938 6.098 41.7768 6.038 41.7428C5.978 41.7068 5.93 41.6598 5.894 41.6018C5.858 41.5418 5.84 41.4758 5.84 41.4038L5.84 40.0238C5.84 39.9538 5.858 39.8898 5.894 39.8318C5.93 39.7718 5.978 39.7238 6.038 39.6878C6.098 39.6518 6.164 39.6338 6.236 39.6338L7.601 39.6338C7.671 39.6338 7.737 39.6518 7.799 39.6878C7.859 39.7238 7.908 39.7718 7.946 39.8318C7.982 39.8898 8 39.9538 8 40.0238L8 41.4038ZM7.664 41.3618L7.664 40.0328C7.664 40.0128 7.657 39.9958 7.643 39.9818C7.629 39.9658 7.612 39.9578 7.592 39.9578L6.503 39.9578L7.664 41.3618ZM7.331 41.4698L6.17 40.0688L6.17 41.3948C6.17 41.4148 6.178 41.4328 6.194 41.4488C6.208 41.4628 6.225 41.4698 6.245 41.4698L7.331 41.4698ZM8 38.9019C8 38.9739 7.982 39.0399 7.946 39.0999C7.908 39.1579 7.859 39.2049 7.799 39.2409C7.737 39.2749 7.671 39.2919 7.601 39.2919L6.236 39.2919C6.164 39.2919 6.098 39.2749 6.038 39.2409C5.978 39.2049 5.93 39.1579 5.894 39.0999C5.858 39.0399 5.84 38.9739 5.84 38.9019L5.84 37.5219C5.84 37.4519 5.858 37.3879 5.894 37.3299C5.93 37.2699 5.978 37.2219 6.038 37.1859C6.098 37.1499 6.164 37.1319 6.236 37.1319L7.601 37.1319C7.671 37.1319 7.737 37.1499 7.799 37.1859C7.859 37.2219 7.908 37.2699 7.946 37.3299C7.982 37.3879 8 37.4519 8 37.5219L8 38.9019ZM7.664 38.8599L7.664 37.5309C7.664 37.5109 7.657 37.4939 7.643 37.4799C7.629 37.4639 7.612 37.4559 7.592 37.4559L6.503 37.4559L7.664 38.8599ZM7.331 38.9679L6.17 37.5669L6.17 38.8929C6.17 38.9129 6.178 38.9309 6.194 38.9469C6.208 38.9609 6.225 38.9679 6.245 38.9679L7.331 38.9679ZM8 36.2829L6.269 36.2829L6.569 36.5319L6.569 36.9579L5.84 36.3459L5.84 35.9589L8 35.9589L8 36.2829ZM8 35.6181L7.181 35.6181C7.107 35.6181 7.041 35.6011 6.983 35.5671C6.925 35.5311 6.879 35.4841 6.845 35.4261C6.809 35.3661 6.791 35.3001 6.791 35.2281L6.791 33.8571C6.791 33.8371 6.784 33.8201 6.77 33.8061C6.754 33.7901 6.736 33.7821 6.716 33.7821L6.239 33.7821C6.219 33.7821 6.202 33.7901 6.188 33.8061C6.172 33.8201 6.164 33.8371 6.164 33.8571L6.164 35.2191C6.164 35.2391 6.172 35.2571 6.188 35.2731C6.202 35.2871 6.219 35.2941 6.239 35.2941L6.356 35.2941L6.356 35.6181L6.23 35.6181C6.156 35.6181 6.09 35.6011 6.032 35.5671C5.974 35.5311 5.927 35.4841 5.891 35.4261C5.855 35.3661 5.837 35.3001 5.837 35.2281L5.837 33.8481C5.837 33.7781 5.855 33.7141 5.891 33.6561C5.927 33.5961 5.974 33.5481 6.032 33.5121C6.09 33.4761 6.156 33.4581 6.23 33.4581L6.725 33.4581C6.797 33.4581 6.863 33.4761 6.923 33.5121C6.981 33.5481 7.028 33.5961 7.064 33.6561C7.098 33.7141 7.115 33.7781 7.115 33.8481L7.115 35.2191C7.115 35.2391 7.123 35.2571 7.139 35.2731C7.153 35.2871 7.17 35.2941 7.19 35.2941L7.601 35.2941C7.621 35.2941 7.639 35.2871 7.655 35.2731C7.669 35.2571 7.676 35.2391 7.676 35.2191L7.676 33.4581L8 33.4581L8 35.6181ZM8 32.6208L6.269 32.6208L6.569 32.8698L6.569 33.2958L5.84 32.6838L5.84 32.2968L8 32.2968L8 32.6208ZM8 31.449L6.269 31.449L6.569 31.698L6.569 32.124L5.84 31.512L5.84 31.125L8 31.125L8 31.449Z" fill="#EF4444"/>
</svg>
