<svg width="11" height="287" viewBox="0 0 11 287" fill="none" xmlns="http://www.w3.org/2000/svg">
<path d="M3 1.99652V0H11V287H6.73333L5.13333 285.503V267.035L6.73333 265.537V260.546L5.13333 259.049V252.56L6.73333 251.063V245.572L5.13333 244.075V149.739L3 151.736V111.306L5.13333 109.31V58.8974V32.4435L3 30.447V27.9513L5.13333 25.9548V3.99304L3 1.99652Z" fill="#EF4444"/>
<path d="M3 284.451C3 284.511 2.986 284.567 2.958 284.619C2.93 284.671 2.892 284.716 2.844 284.754C2.794 284.792 2.738 284.819 2.676 284.835L2.676 283.08C2.676 283.06 2.669 283.043 2.655 283.029C2.639 283.013 2.621 283.005 2.601 283.005L2.187 283.005C2.165 283.005 2.147 283.013 2.133 283.029C2.119 283.043 2.112 283.06 2.112 283.08L2.112 284.451C2.112 284.525 2.094 284.591 2.058 284.649C2.022 284.707 1.975 284.754 1.917 284.79C1.857 284.826 1.792 284.844 1.722 284.844L1.23 284.844C1.156 284.844 1.09 284.826 1.032 284.79C0.974 284.754 0.927 284.707 0.891 284.649C0.855 284.589 0.837 284.523 0.837 284.451L0.837 283.071C0.837 283.001 0.855 282.937 0.891 282.879C0.927 282.819 0.974 282.772 1.032 282.738C1.09 282.702 1.156 282.684 1.23 282.684L2.61 282.684C2.682 282.684 2.747 282.702 2.805 282.738C2.863 282.772 2.91 282.819 2.946 282.879C2.982 282.937 3 283.001 3 283.071L3 284.451ZM1.785 284.442L1.785 283.005L1.239 283.005C1.219 283.005 1.202 283.013 1.188 283.029C1.172 283.043 1.164 283.06 1.164 283.08L1.164 284.442C1.164 284.462 1.172 284.48 1.188 284.496C1.202 284.51 1.219 284.517 1.239 284.517L1.713 284.517C1.733 284.517 1.75 284.51 1.764 284.496C1.778 284.48 1.785 284.462 1.785 284.442ZM3 281.07L2.451 281.07L2.451 282.498L2.124 282.498L0.837 281.07L0.837 280.746L2.124 280.746L2.124 280.428L2.451 280.428L2.451 280.746L3 280.746L3 281.07ZM2.124 282.024L2.124 281.07L1.311 281.07L2.124 282.024ZM1.569 280.162L1.245 280.162L1.245 279.838L1.569 279.838L1.569 280.162ZM3 280.162L2.676 280.162L2.676 279.838L3 279.838L3 280.162ZM3 279.476L2.181 279.476C2.107 279.476 2.041 279.459 1.983 279.425C1.925 279.389 1.879 279.342 1.845 279.284C1.809 279.224 1.791 279.158 1.791 279.086L1.791 277.715C1.791 277.695 1.784 277.678 1.77 277.664C1.754 277.648 1.736 277.64 1.716 277.64L1.239 277.64C1.219 277.64 1.202 277.648 1.188 277.664C1.172 277.678 1.164 277.695 1.164 277.715L1.164 279.077C1.164 279.097 1.172 279.115 1.188 279.131C1.202 279.145 1.219 279.152 1.239 279.152L1.356 279.152L1.356 279.476L1.23 279.476C1.156 279.476 1.09 279.459 1.032 279.425C0.974 279.389 0.927 279.342 0.891 279.284C0.855 279.224 0.837 279.158 0.837 279.086L0.837 277.706C0.837 277.636 0.855 277.572 0.891 277.514C0.927 277.454 0.974 277.406 1.032 277.37C1.09 277.334 1.156 277.316 1.23 277.316L1.725 277.316C1.797 277.316 1.863 277.334 1.923 277.37C1.981 277.406 2.028 277.454 2.064 277.514C2.098 277.572 2.115 277.636 2.115 277.706L2.115 279.077C2.115 279.097 2.123 279.115 2.139 279.131C2.153 279.145 2.17 279.152 2.19 279.152L2.601 279.152C2.621 279.152 2.639 279.145 2.655 279.131C2.669 279.115 2.676 279.097 2.676 279.077L2.676 277.316L3 277.316L3 279.476ZM3 276.605C3 276.679 2.982 276.745 2.946 276.803C2.91 276.861 2.863 276.908 2.805 276.944C2.747 276.98 2.682 276.998 2.61 276.998L2.52 276.998L2.52 276.671L2.601 276.671C2.621 276.671 2.639 276.664 2.655 276.65C2.669 276.636 2.676 276.619 2.676 276.599L2.676 275.234C2.676 275.214 2.669 275.197 2.655 275.183C2.639 275.169 2.621 275.162 2.601 275.162L2.139 275.162C2.119 275.162 2.102 275.169 2.088 275.183C2.072 275.197 2.064 275.214 2.064 275.234L2.064 276.605L1.74 276.605L1.74 275.327C1.74 275.305 1.733 275.287 1.719 275.273C1.703 275.259 1.685 275.252 1.665 275.252L1.239 275.252C1.219 275.252 1.202 275.259 1.188 275.273C1.172 275.287 1.164 275.305 1.164 275.327L1.164 276.599C1.164 276.619 1.172 276.636 1.188 276.65C1.202 276.664 1.219 276.671 1.239 276.671L1.35 276.671L1.35 276.998L1.23 276.998C1.156 276.998 1.09 276.981 1.032 276.947C0.974 276.911 0.927 276.863 0.891 276.803C0.855 276.743 0.837 276.677 0.837 276.605L0.837 275.318C0.837 275.244 0.855 275.178 0.891 275.12C0.926999 275.06 0.973999 275.013 1.032 274.979C1.09 274.945 1.156 274.928 1.23 274.928L1.674 274.928C1.7 274.928 1.726 274.931 1.752 274.937C1.778 274.941 1.802 274.948 1.824 274.958C1.868 274.914 1.917 274.883 1.971 274.865C2.025 274.847 2.078 274.838 2.13 274.838L2.61 274.838C2.682 274.838 2.747 274.856 2.805 274.892C2.863 274.926 2.91 274.973 2.946 275.033C2.982 275.091 3 275.155 3 275.225L3 276.605ZM1.569 274.517L1.245 274.517L1.245 274.193L1.569 274.193L1.569 274.517ZM3 274.517L2.676 274.517L2.676 274.193L3 274.193L3 274.517ZM3 273.453C3 273.513 2.986 273.569 2.958 273.621C2.93 273.673 2.892 273.718 2.844 273.756C2.794 273.794 2.738 273.821 2.676 273.837L2.676 272.082C2.676 272.062 2.669 272.045 2.655 272.031C2.639 272.015 2.621 272.007 2.601 272.007L2.187 272.007C2.165 272.007 2.147 272.015 2.133 272.031C2.119 272.045 2.112 272.062 2.112 272.082L2.112 273.453C2.112 273.527 2.094 273.593 2.058 273.651C2.022 273.709 1.975 273.756 1.917 273.792C1.857 273.828 1.792 273.846 1.722 273.846L1.23 273.846C1.156 273.846 1.09 273.828 1.032 273.792C0.973999 273.756 0.926999 273.709 0.890999 273.651C0.854999 273.591 0.836999 273.525 0.836999 273.453L0.836999 272.073C0.836999 272.003 0.854999 271.939 0.890999 271.881C0.926999 271.821 0.973999 271.774 1.032 271.74C1.09 271.704 1.156 271.686 1.23 271.686L2.61 271.686C2.682 271.686 2.747 271.704 2.805 271.74C2.863 271.774 2.91 271.821 2.946 271.881C2.982 271.939 3 272.003 3 272.073L3 273.453ZM1.785 273.444L1.785 272.007L1.239 272.007C1.219 272.007 1.202 272.015 1.188 272.031C1.172 272.045 1.164 272.062 1.164 272.082L1.164 273.444C1.164 273.464 1.172 273.482 1.188 273.498C1.202 273.512 1.219 273.519 1.239 273.519L1.713 273.519C1.733 273.519 1.75 273.512 1.764 273.498C1.778 273.482 1.785 273.464 1.785 273.444ZM3 270.969C3 271.029 2.986 271.085 2.958 271.137C2.93 271.189 2.892 271.234 2.844 271.272C2.794 271.31 2.738 271.337 2.676 271.353L2.676 269.598C2.676 269.578 2.669 269.561 2.655 269.547C2.639 269.531 2.621 269.523 2.601 269.523L2.187 269.523C2.165 269.523 2.147 269.531 2.133 269.547C2.119 269.561 2.112 269.578 2.112 269.598L2.112 270.969C2.112 271.043 2.094 271.109 2.058 271.167C2.022 271.225 1.975 271.272 1.917 271.308C1.857 271.344 1.792 271.362 1.722 271.362L1.23 271.362C1.156 271.362 1.09 271.344 1.032 271.308C0.973999 271.272 0.926999 271.225 0.890999 271.167C0.854999 271.107 0.836999 271.041 0.836999 270.969L0.836999 269.589C0.836999 269.519 0.854999 269.455 0.890999 269.397C0.926999 269.337 0.973999 269.29 1.032 269.256C1.09 269.22 1.156 269.202 1.23 269.202L2.61 269.202C2.682 269.202 2.747 269.22 2.805 269.256C2.863 269.29 2.91 269.337 2.946 269.397C2.982 269.455 3 269.519 3 269.589L3 270.969ZM1.785 270.96L1.785 269.523L1.239 269.523C1.219 269.523 1.202 269.531 1.188 269.547C1.172 269.561 1.164 269.578 1.164 269.598L1.164 270.96C1.164 270.98 1.172 270.998 1.188 271.014C1.202 271.028 1.219 271.035 1.239 271.035L1.713 271.035C1.733 271.035 1.75 271.028 1.764 271.014C1.778 270.998 1.785 270.98 1.785 270.96ZM1.569 268.871L1.245 268.871L1.245 268.547L1.569 268.547L1.569 268.871ZM3 268.871L2.676 268.871L2.676 268.547L3 268.547L3 268.871ZM3 267.795C3 267.867 2.982 267.933 2.946 267.993C2.908 268.051 2.859 268.098 2.799 268.134C2.737 268.168 2.671 268.185 2.601 268.185L1.236 268.185C1.164 268.185 1.098 268.168 1.038 268.134C0.977999 268.098 0.929999 268.051 0.893999 267.993C0.857999 267.933 0.839999 267.867 0.839999 267.795L0.839999 266.415C0.839999 266.345 0.857999 266.281 0.893999 266.223C0.929999 266.163 0.977999 266.115 1.038 266.079C1.098 266.043 1.164 266.025 1.236 266.025L2.601 266.025C2.671 266.025 2.737 266.043 2.799 266.079C2.859 266.115 2.908 266.163 2.946 266.223C2.982 266.281 3 266.345 3 266.415L3 267.795ZM2.664 267.753L2.664 266.424C2.664 266.404 2.657 266.387 2.643 266.373C2.629 266.357 2.612 266.349 2.592 266.349L1.503 266.349L2.664 267.753ZM2.331 267.861L1.17 266.46L1.17 267.786C1.17 267.806 1.178 267.824 1.194 267.84C1.208 267.854 1.225 267.861 1.245 267.861L2.331 267.861ZM3 265.176L1.269 265.176L1.569 265.425L1.569 265.851L0.839999 265.239L0.839999 264.852L3 264.852L3 265.176ZM1.569 264.521L1.245 264.521L1.245 264.197L1.569 264.197L1.569 264.521ZM3 264.521L2.676 264.521L2.676 264.197L3 264.197L3 264.521ZM1.569 263.844L1.245 263.844L1.245 263.52L1.569 263.52L1.569 263.844ZM3 263.844L2.676 263.844L2.676 263.52L3 263.52L3 263.844ZM3 262.78C3 262.84 2.986 262.896 2.958 262.948C2.93 263 2.892 263.045 2.844 263.083C2.794 263.121 2.738 263.148 2.676 263.164L2.676 261.409C2.676 261.389 2.669 261.372 2.655 261.358C2.639 261.342 2.621 261.334 2.601 261.334L2.187 261.334C2.165 261.334 2.147 261.342 2.133 261.358C2.119 261.372 2.112 261.389 2.112 261.409L2.112 262.78C2.112 262.854 2.094 262.92 2.058 262.978C2.022 263.036 1.975 263.083 1.917 263.119C1.857 263.155 1.792 263.173 1.722 263.173L1.23 263.173C1.156 263.173 1.09 263.155 1.032 263.119C0.973999 263.083 0.926999 263.036 0.890999 262.978C0.854999 262.918 0.836999 262.852 0.836999 262.78L0.836999 261.4C0.836999 261.33 0.854999 261.266 0.890999 261.208C0.926999 261.148 0.973999 261.101 1.032 261.067C1.09 261.031 1.156 261.013 1.23 261.013L2.61 261.013C2.682 261.013 2.747 261.031 2.805 261.067C2.863 261.101 2.91 261.148 2.946 261.208C2.982 261.266 3 261.33 3 261.4L3 262.78ZM1.785 262.771L1.785 261.334L1.239 261.334C1.219 261.334 1.202 261.342 1.188 261.358C1.172 261.372 1.164 261.389 1.164 261.409L1.164 262.771C1.164 262.791 1.172 262.809 1.188 262.825C1.202 262.839 1.219 262.846 1.239 262.846L1.713 262.846C1.733 262.846 1.75 262.839 1.764 262.825C1.778 262.809 1.785 262.791 1.785 262.771ZM3 260.296C3 260.356 2.986 260.412 2.958 260.464C2.93 260.516 2.892 260.561 2.844 260.599C2.794 260.637 2.738 260.664 2.676 260.68L2.676 258.925C2.676 258.905 2.669 258.888 2.655 258.874C2.639 258.858 2.621 258.85 2.601 258.85L2.187 258.85C2.165 258.85 2.147 258.858 2.133 258.874C2.119 258.888 2.112 258.905 2.112 258.925L2.112 260.296C2.112 260.37 2.094 260.436 2.058 260.494C2.022 260.552 1.975 260.599 1.917 260.635C1.857 260.671 1.792 260.689 1.722 260.689L1.23 260.689C1.156 260.689 1.09 260.671 1.032 260.635C0.973999 260.599 0.926999 260.552 0.890999 260.494C0.854999 260.434 0.836999 260.368 0.836999 260.296L0.836999 258.916C0.836999 258.846 0.854999 258.782 0.890999 258.724C0.926999 258.664 0.973999 258.617 1.032 258.583C1.09 258.547 1.156 258.529 1.23 258.529L2.61 258.529C2.682 258.529 2.747 258.547 2.805 258.583C2.863 258.617 2.91 258.664 2.946 258.724C2.982 258.782 3 258.846 3 258.916L3 260.296ZM1.785 260.287L1.785 258.85L1.239 258.85C1.219 258.85 1.202 258.858 1.188 258.874C1.172 258.888 1.164 258.905 1.164 258.925L1.164 260.287C1.164 260.307 1.172 260.325 1.188 260.341C1.202 260.355 1.219 260.362 1.239 260.362L1.713 260.362C1.733 260.362 1.75 260.355 1.764 260.341C1.778 260.325 1.785 260.307 1.785 260.287ZM3 257.811C3 257.871 2.986 257.927 2.958 257.979C2.93 258.031 2.892 258.076 2.844 258.114C2.794 258.152 2.738 258.179 2.676 258.195L2.676 256.44C2.676 256.42 2.669 256.403 2.655 256.389C2.639 256.373 2.621 256.365 2.601 256.365L2.187 256.365C2.165 256.365 2.147 256.373 2.133 256.389C2.119 256.403 2.112 256.42 2.112 256.44L2.112 257.811C2.112 257.885 2.094 257.951 2.058 258.009C2.022 258.067 1.975 258.114 1.917 258.15C1.857 258.186 1.792 258.204 1.722 258.204L1.23 258.204C1.156 258.204 1.09 258.186 1.032 258.15C0.973999 258.114 0.926999 258.067 0.890999 258.009C0.854999 257.949 0.836999 257.883 0.836999 257.811L0.836999 256.431C0.836999 256.361 0.854999 256.297 0.890999 256.239C0.926999 256.179 0.973999 256.132 1.032 256.098C1.09 256.062 1.156 256.044 1.23 256.044L2.61 256.044C2.682 256.044 2.747 256.062 2.805 256.098C2.863 256.132 2.91 256.179 2.946 256.239C2.982 256.297 3 256.361 3 256.431L3 257.811ZM1.785 257.802L1.785 256.365L1.239 256.365C1.219 256.365 1.202 256.373 1.188 256.389C1.172 256.403 1.164 256.42 1.164 256.44L1.164 257.802C1.164 257.822 1.172 257.84 1.188 257.856C1.202 257.87 1.219 257.877 1.239 257.877L1.713 257.877C1.733 257.877 1.75 257.87 1.764 257.856C1.778 257.84 1.785 257.822 1.785 257.802ZM3 255.705L2.181 255.705C2.107 255.705 2.041 255.688 1.983 255.654C1.925 255.618 1.879 255.571 1.845 255.513C1.809 255.453 1.791 255.387 1.791 255.315L1.791 253.944C1.791 253.924 1.784 253.907 1.77 253.893C1.754 253.877 1.736 253.869 1.716 253.869L1.239 253.869C1.219 253.869 1.202 253.877 1.188 253.893C1.172 253.907 1.164 253.924 1.164 253.944L1.164 255.306C1.164 255.326 1.172 255.344 1.188 255.36C1.202 255.374 1.219 255.381 1.239 255.381L1.356 255.381L1.356 255.705L1.23 255.705C1.156 255.705 1.09 255.688 1.032 255.654C0.973999 255.618 0.926999 255.571 0.890999 255.513C0.854999 255.453 0.836999 255.387 0.836999 255.315L0.836999 253.935C0.836999 253.865 0.854999 253.801 0.890999 253.743C0.926998 253.683 0.973998 253.635 1.032 253.599C1.09 253.563 1.156 253.545 1.23 253.545L1.725 253.545C1.797 253.545 1.863 253.563 1.923 253.599C1.981 253.635 2.028 253.683 2.064 253.743C2.098 253.801 2.115 253.865 2.115 253.935L2.115 255.306C2.115 255.326 2.123 255.344 2.139 255.36C2.153 255.374 2.17 255.381 2.19 255.381L2.601 255.381C2.621 255.381 2.639 255.374 2.655 255.36C2.669 255.344 2.676 255.326 2.676 255.306L2.676 253.545L3 253.545L3 255.705ZM1.569 253.224L1.245 253.224L1.245 252.9L1.569 252.9L1.569 253.224ZM3 253.224L2.676 253.224L2.676 252.9L3 252.9L3 253.224ZM3 252.157C3 252.231 2.982 252.297 2.946 252.355C2.91 252.413 2.863 252.46 2.805 252.496C2.747 252.532 2.682 252.55 2.61 252.55L2.52 252.55L2.52 252.223L2.601 252.223C2.621 252.223 2.639 252.216 2.655 252.202C2.669 252.188 2.676 252.171 2.676 252.151L2.676 250.786C2.676 250.766 2.669 250.749 2.655 250.735C2.639 250.721 2.621 250.714 2.601 250.714L2.139 250.714C2.119 250.714 2.102 250.721 2.088 250.735C2.072 250.749 2.064 250.766 2.064 250.786L2.064 252.157L1.74 252.157L1.74 250.879C1.74 250.857 1.733 250.839 1.719 250.825C1.703 250.811 1.685 250.804 1.665 250.804L1.239 250.804C1.219 250.804 1.202 250.811 1.188 250.825C1.172 250.839 1.164 250.857 1.164 250.879L1.164 252.151C1.164 252.171 1.172 252.188 1.188 252.202C1.202 252.216 1.219 252.223 1.239 252.223L1.35 252.223L1.35 252.55L1.23 252.55C1.156 252.55 1.09 252.533 1.032 252.499C0.973998 252.463 0.926998 252.415 0.890999 252.355C0.854999 252.295 0.836999 252.229 0.836999 252.157L0.836998 250.87C0.836998 250.796 0.854998 250.73 0.890998 250.672C0.926998 250.612 0.973998 250.565 1.032 250.531C1.09 250.497 1.156 250.48 1.23 250.48L1.674 250.48C1.7 250.48 1.726 250.483 1.752 250.489C1.778 250.493 1.802 250.5 1.824 250.51C1.868 250.466 1.917 250.435 1.971 250.417C2.025 250.399 2.078 250.39 2.13 250.39L2.61 250.39C2.682 250.39 2.747 250.408 2.805 250.444C2.863 250.478 2.91 250.525 2.946 250.585C2.982 250.643 3 250.707 3 250.777L3 252.157ZM3 249.678C3 249.752 2.982 249.818 2.946 249.876C2.91 249.934 2.863 249.981 2.805 250.017C2.747 250.053 2.682 250.071 2.61 250.071L2.52 250.071L2.52 249.744L2.601 249.744C2.621 249.744 2.639 249.737 2.655 249.723C2.669 249.709 2.676 249.692 2.676 249.672L2.676 248.307C2.676 248.287 2.669 248.27 2.655 248.256C2.639 248.242 2.621 248.235 2.601 248.235L2.139 248.235C2.119 248.235 2.102 248.242 2.088 248.256C2.072 248.27 2.064 248.287 2.064 248.307L2.064 249.678L1.74 249.678L1.74 248.4C1.74 248.378 1.733 248.36 1.719 248.346C1.703 248.332 1.685 248.325 1.665 248.325L1.239 248.325C1.219 248.325 1.202 248.332 1.188 248.346C1.172 248.36 1.164 248.378 1.164 248.4L1.164 249.672C1.164 249.692 1.172 249.709 1.188 249.723C1.202 249.737 1.219 249.744 1.239 249.744L1.35 249.744L1.35 250.071L1.23 250.071C1.156 250.071 1.09 250.054 1.032 250.02C0.973998 249.984 0.926998 249.936 0.890998 249.876C0.854998 249.816 0.836998 249.75 0.836998 249.678L0.836998 248.391C0.836998 248.317 0.854998 248.251 0.890998 248.193C0.926998 248.133 0.973998 248.086 1.032 248.052C1.09 248.018 1.156 248.001 1.23 248.001L1.674 248.001C1.7 248.001 1.726 248.004 1.752 248.01C1.778 248.014 1.802 248.021 1.824 248.031C1.868 247.987 1.917 247.956 1.971 247.938C2.025 247.92 2.078 247.911 2.13 247.911L2.61 247.911C2.682 247.911 2.747 247.929 2.805 247.965C2.863 247.999 2.91 248.046 2.946 248.106C2.982 248.164 3 248.228 3 248.298L3 249.678ZM3 247.2C3 247.274 2.982 247.34 2.946 247.398C2.91 247.456 2.863 247.503 2.805 247.539C2.747 247.575 2.682 247.593 2.61 247.593L2.52 247.593L2.52 247.266L2.601 247.266C2.621 247.266 2.639 247.259 2.655 247.245C2.669 247.231 2.676 247.214 2.676 247.194L2.676 245.829C2.676 245.809 2.669 245.792 2.655 245.778C2.639 245.764 2.621 245.757 2.601 245.757L2.139 245.757C2.119 245.757 2.102 245.764 2.088 245.778C2.072 245.792 2.064 245.809 2.064 245.829L2.064 247.2L1.74 247.2L1.74 245.922C1.74 245.9 1.733 245.882 1.719 245.868C1.703 245.854 1.685 245.847 1.665 245.847L1.239 245.847C1.219 245.847 1.202 245.854 1.188 245.868C1.172 245.882 1.164 245.9 1.164 245.922L1.164 247.194C1.164 247.214 1.172 247.231 1.188 247.245C1.202 247.259 1.219 247.266 1.239 247.266L1.35 247.266L1.35 247.593L1.23 247.593C1.156 247.593 1.09 247.576 1.032 247.542C0.973998 247.506 0.926998 247.458 0.890998 247.398C0.854998 247.338 0.836998 247.272 0.836998 247.2L0.836998 245.913C0.836998 245.839 0.854998 245.773 0.890998 245.715C0.926998 245.655 0.973998 245.608 1.032 245.574C1.09 245.54 1.156 245.523 1.23 245.523L1.674 245.523C1.7 245.523 1.726 245.526 1.752 245.532C1.778 245.536 1.802 245.543 1.824 245.553C1.868 245.509 1.917 245.478 1.971 245.46C2.025 245.442 2.078 245.433 2.13 245.433L2.61 245.433C2.682 245.433 2.747 245.451 2.805 245.487C2.863 245.521 2.91 245.568 2.946 245.628C2.982 245.686 3 245.75 3 245.82L3 247.2ZM3 243.827L2.451 243.827L2.451 245.255L2.124 245.255L0.836998 243.827L0.836998 243.503L2.124 243.503L2.124 243.185L2.451 243.185L2.451 243.503L3 243.503L3 243.827ZM2.124 244.781L2.124 243.827L1.311 243.827L2.124 244.781ZM1.569 242.92L1.245 242.92L1.245 242.596L1.569 242.596L1.569 242.92ZM3 242.92L2.676 242.92L2.676 242.596L3 242.596L3 242.92ZM3 241.844C3 241.916 2.982 241.982 2.946 242.042C2.91 242.1 2.863 242.147 2.805 242.183C2.747 242.217 2.682 242.234 2.61 242.234L2.121 242.234C2.083 242.234 2.045 242.227 2.007 242.213C1.967 242.199 1.929 242.181 1.893 242.159C1.857 242.181 1.82 242.199 1.782 242.213C1.742 242.227 1.703 242.234 1.665 242.234L1.23 242.234C1.156 242.234 1.09 242.217 1.032 242.183C0.973998 242.147 0.926998 242.1 0.890998 242.042C0.854998 241.982 0.836998 241.916 0.836998 241.844L0.836998 240.464C0.836998 240.404 0.851998 240.347 0.881998 240.293C0.911998 240.239 0.951998 240.193 1.002 240.155C1.052 240.115 1.106 240.088 1.164 240.074L1.665 240.074C1.741 240.074 1.817 240.1 1.893 240.152C1.965 240.1 2.041 240.074 2.121 240.074L2.61 240.074C2.682 240.074 2.747 240.092 2.805 240.128C2.863 240.164 2.91 240.212 2.946 240.272C2.982 240.33 3 240.394 3 240.464L3 241.844ZM2.676 241.835L2.676 240.473C2.676 240.453 2.669 240.436 2.655 240.422C2.639 240.406 2.621 240.398 2.601 240.398L2.13 240.398C2.11 240.398 2.093 240.406 2.079 240.422C2.063 240.436 2.055 240.453 2.055 240.473L2.055 241.835C2.055 241.855 2.063 241.873 2.079 241.889C2.093 241.903 2.11 241.91 2.13 241.91L2.601 241.91C2.621 241.91 2.639 241.903 2.655 241.889C2.669 241.873 2.676 241.855 2.676 241.835ZM1.764 241.835L1.764 240.473C1.764 240.453 1.757 240.436 1.743 240.422C1.727 240.406 1.709 240.398 1.689 240.398L1.242 240.398C1.222 240.398 1.205 240.406 1.191 240.422C1.175 240.436 1.167 240.453 1.167 240.473L1.167 241.835C1.167 241.855 1.175 241.873 1.191 241.889C1.205 241.903 1.222 241.91 1.242 241.91L1.689 241.91C1.709 241.91 1.727 241.903 1.743 241.889C1.757 241.873 1.764 241.855 1.764 241.835ZM3 239.342C3 239.414 2.982 239.48 2.946 239.54C2.908 239.598 2.859 239.645 2.799 239.681C2.737 239.715 2.671 239.732 2.601 239.732L1.236 239.732C1.164 239.732 1.098 239.715 1.038 239.681C0.977998 239.645 0.929998 239.598 0.893998 239.54C0.857998 239.48 0.839998 239.414 0.839998 239.342L0.839998 237.962C0.839998 237.892 0.857998 237.828 0.893998 237.77C0.929998 237.71 0.977998 237.662 1.038 237.626C1.098 237.59 1.164 237.572 1.236 237.572L2.601 237.572C2.671 237.572 2.737 237.59 2.799 237.626C2.859 237.662 2.908 237.71 2.946 237.77C2.982 237.828 3 237.892 3 237.962L3 239.342ZM2.664 239.3L2.664 237.971C2.664 237.951 2.657 237.934 2.643 237.92C2.629 237.904 2.612 237.896 2.592 237.896L1.503 237.896L2.664 239.3ZM2.331 239.408L1.17 238.007L1.17 239.333C1.17 239.353 1.178 239.371 1.194 239.387C1.208 239.401 1.225 239.408 1.245 239.408L2.331 239.408ZM3 236.84C3 236.912 2.982 236.978 2.946 237.038C2.908 237.096 2.859 237.143 2.799 237.179C2.737 237.213 2.671 237.23 2.601 237.23L1.236 237.23C1.164 237.23 1.098 237.213 1.038 237.179C0.977998 237.143 0.929998 237.096 0.893998 237.038C0.857998 236.978 0.839998 236.912 0.839998 236.84L0.839998 235.46C0.839998 235.39 0.857998 235.326 0.893998 235.268C0.929998 235.208 0.977998 235.16 1.038 235.124C1.098 235.088 1.164 235.07 1.236 235.07L2.601 235.07C2.671 235.07 2.737 235.088 2.799 235.124C2.859 235.16 2.908 235.208 2.946 235.268C2.982 235.326 3 235.39 3 235.46L3 236.84ZM2.664 236.798L2.664 235.469C2.664 235.449 2.657 235.432 2.643 235.418C2.629 235.402 2.612 235.394 2.592 235.394L1.503 235.394L2.664 236.798ZM2.331 236.906L1.17 235.505L1.17 236.831C1.17 236.851 1.178 236.869 1.194 236.885C1.208 236.899 1.225 236.906 1.245 236.906L2.331 236.906ZM3 234.221L1.269 234.221L1.569 234.47L1.569 234.896L0.839998 234.284L0.839998 233.897L3 233.897L3 234.221ZM1.569 233.566L1.245 233.566L1.245 233.242L1.569 233.242L1.569 233.566ZM3 233.566L2.676 233.566L2.676 233.242L3 233.242L3 233.566ZM3 232.88L2.181 232.88C2.107 232.88 2.041 232.863 1.983 232.829C1.925 232.793 1.879 232.746 1.845 232.688C1.809 232.628 1.791 232.562 1.791 232.49L1.791 231.119C1.791 231.099 1.784 231.082 1.77 231.068C1.754 231.052 1.736 231.044 1.716 231.044L1.239 231.044C1.219 231.044 1.202 231.052 1.188 231.068C1.172 231.082 1.164 231.099 1.164 231.119L1.164 232.481C1.164 232.501 1.172 232.519 1.188 232.535C1.202 232.549 1.219 232.556 1.239 232.556L1.356 232.556L1.356 232.88L1.23 232.88C1.156 232.88 1.09 232.863 1.032 232.829C0.973998 232.793 0.926998 232.746 0.890998 232.688C0.854998 232.628 0.836998 232.562 0.836998 232.49L0.836998 231.11C0.836998 231.04 0.854998 230.976 0.890998 230.918C0.926998 230.858 0.973997 230.81 1.032 230.774C1.09 230.738 1.156 230.72 1.23 230.72L1.725 230.72C1.797 230.72 1.863 230.738 1.923 230.774C1.981 230.81 2.028 230.858 2.064 230.918C2.098 230.976 2.115 231.04 2.115 231.11L2.115 232.481C2.115 232.501 2.123 232.519 2.139 232.535C2.153 232.549 2.17 232.556 2.19 232.556L2.601 232.556C2.621 232.556 2.639 232.549 2.655 232.535C2.669 232.519 2.676 232.501 2.676 232.481L2.676 230.72L3 230.72L3 232.88ZM3 230.39L2.181 230.39C2.107 230.39 2.041 230.373 1.983 230.339C1.925 230.303 1.879 230.256 1.845 230.198C1.809 230.138 1.791 230.072 1.791 230L1.791 228.629C1.791 228.609 1.784 228.592 1.77 228.578C1.754 228.562 1.736 228.554 1.716 228.554L1.239 228.554C1.219 228.554 1.202 228.562 1.188 228.578C1.172 228.592 1.164 228.609 1.164 228.629L1.164 229.991C1.164 230.011 1.172 230.029 1.188 230.045C1.202 230.059 1.219 230.066 1.239 230.066L1.356 230.066L1.356 230.39L1.23 230.39C1.156 230.39 1.09 230.373 1.032 230.339C0.973997 230.303 0.926997 230.256 0.890998 230.198C0.854998 230.138 0.836998 230.072 0.836998 230L0.836997 228.62C0.836997 228.55 0.854997 228.486 0.890997 228.428C0.926997 228.368 0.973997 228.32 1.032 228.284C1.09 228.248 1.156 228.23 1.23 228.23L1.725 228.23C1.797 228.23 1.863 228.248 1.923 228.284C1.981 228.32 2.028 228.368 2.064 228.428C2.098 228.486 2.115 228.55 2.115 228.62L2.115 229.991C2.115 230.011 2.123 230.029 2.139 230.045C2.153 230.059 2.17 230.066 2.19 230.066L2.601 230.066C2.621 230.066 2.639 230.059 2.655 230.045C2.669 230.029 2.676 230.011 2.676 229.991L2.676 228.23L3 228.23L3 230.39ZM3 227.518C3 227.592 2.982 227.658 2.946 227.716C2.91 227.774 2.863 227.821 2.805 227.857C2.747 227.893 2.682 227.911 2.61 227.911L2.52 227.911L2.52 227.584L2.601 227.584C2.621 227.584 2.639 227.577 2.655 227.563C2.669 227.549 2.676 227.532 2.676 227.512L2.676 226.147C2.676 226.127 2.669 226.11 2.655 226.096C2.639 226.082 2.621 226.075 2.601 226.075L2.139 226.075C2.119 226.075 2.102 226.082 2.088 226.096C2.072 226.11 2.064 226.127 2.064 226.147L2.064 227.518L1.74 227.518L1.74 226.24C1.74 226.218 1.733 226.2 1.719 226.186C1.703 226.172 1.685 226.165 1.665 226.165L1.239 226.165C1.219 226.165 1.202 226.172 1.188 226.186C1.172 226.2 1.164 226.218 1.164 226.24L1.164 227.512C1.164 227.532 1.172 227.549 1.188 227.563C1.202 227.577 1.219 227.584 1.239 227.584L1.35 227.584L1.35 227.911L1.23 227.911C1.156 227.911 1.09 227.894 1.032 227.86C0.973997 227.824 0.926997 227.776 0.890997 227.716C0.854997 227.656 0.836997 227.59 0.836997 227.518L0.836997 226.231C0.836997 226.157 0.854997 226.091 0.890997 226.033C0.926997 225.973 0.973997 225.926 1.032 225.892C1.09 225.858 1.156 225.841 1.23 225.841L1.674 225.841C1.7 225.841 1.726 225.844 1.752 225.85C1.778 225.854 1.802 225.861 1.824 225.871C1.868 225.827 1.917 225.796 1.971 225.778C2.025 225.76 2.078 225.751 2.13 225.751L2.61 225.751C2.682 225.751 2.747 225.769 2.805 225.805C2.863 225.839 2.91 225.886 2.946 225.946C2.982 226.004 3 226.068 3 226.138L3 227.518ZM3 225.421L2.181 225.421C2.107 225.421 2.041 225.404 1.983 225.37C1.925 225.334 1.879 225.287 1.845 225.229C1.809 225.169 1.791 225.103 1.791 225.031L1.791 223.66C1.791 223.64 1.784 223.623 1.77 223.609C1.754 223.593 1.736 223.585 1.716 223.585L1.239 223.585C1.219 223.585 1.202 223.593 1.188 223.609C1.172 223.623 1.164 223.64 1.164 223.66L1.164 225.022C1.164 225.042 1.172 225.06 1.188 225.076C1.202 225.09 1.219 225.097 1.239 225.097L1.356 225.097L1.356 225.421L1.23 225.421C1.156 225.421 1.09 225.404 1.032 225.37C0.973997 225.334 0.926997 225.287 0.890997 225.229C0.854997 225.169 0.836997 225.103 0.836997 225.031L0.836997 223.651C0.836997 223.581 0.854997 223.517 0.890997 223.459C0.926997 223.399 0.973997 223.351 1.032 223.315C1.09 223.279 1.156 223.261 1.23 223.261L1.725 223.261C1.797 223.261 1.863 223.279 1.923 223.315C1.981 223.351 2.028 223.399 2.064 223.459C2.098 223.517 2.115 223.581 2.115 223.651L2.115 225.022C2.115 225.042 2.123 225.06 2.139 225.076C2.153 225.09 2.17 225.097 2.19 225.097L2.601 225.097C2.621 225.097 2.639 225.09 2.655 225.076C2.669 225.06 2.676 225.042 2.676 225.022L2.676 223.261L3 223.261L3 225.421ZM3.327 222.069L0.515997 222.069L0.515997 221.745L3.327 221.745L3.327 222.069ZM3.327 221.428L0.515997 221.428L0.515997 221.104L3.327 221.104L3.327 221.428ZM3 219.901L0.839997 219.901L0.839997 218.221C0.839997 218.151 0.857997 218.086 0.893997 218.026C0.927997 217.966 0.974997 217.919 1.035 217.885C1.093 217.849 1.158 217.831 1.23 217.831L1.671 217.831C1.697 217.831 1.723 217.834 1.749 217.84C1.775 217.844 1.799 217.852 1.821 217.864C1.877 217.824 1.93 217.794 1.98 217.774C2.028 217.752 2.077 217.741 2.127 217.741L2.61 217.741C2.682 217.741 2.748 217.759 2.808 217.795C2.866 217.829 2.913 217.876 2.949 217.936C2.983 217.996 3 218.062 3 218.134L3 219.901ZM2.676 219.502L2.676 218.14C2.676 218.12 2.669 218.103 2.655 218.089C2.639 218.075 2.621 218.068 2.601 218.068L2.136 218.068C2.116 218.068 2.099 218.075 2.085 218.089C2.069 218.103 2.061 218.12 2.061 218.14L2.061 219.502C2.061 219.522 2.069 219.54 2.085 219.556C2.099 219.57 2.116 219.577 2.136 219.577L2.601 219.577C2.621 219.577 2.639 219.57 2.655 219.556C2.669 219.54 2.676 219.522 2.676 219.502ZM1.737 219.502L1.737 218.23C1.737 218.21 1.73 218.193 1.716 218.179C1.7 218.165 1.682 218.158 1.662 218.158L1.239 218.158C1.219 218.158 1.202 218.165 1.188 218.179C1.172 218.193 1.164 218.21 1.164 218.23L1.164 219.502C1.164 219.522 1.172 219.54 1.188 219.556C1.202 219.57 1.219 219.577 1.239 219.577L1.662 219.577C1.682 219.577 1.7 219.57 1.716 219.556C1.73 219.54 1.737 219.522 1.737 219.502ZM3 217.405L0.839997 217.405L0.839997 215.725C0.839997 215.655 0.857997 215.59 0.893997 215.53C0.927997 215.47 0.974997 215.423 1.035 215.389C1.093 215.353 1.158 215.335 1.23 215.335L1.671 215.335C1.697 215.335 1.723 215.338 1.749 215.344C1.775 215.348 1.799 215.356 1.821 215.368C1.877 215.328 1.93 215.298 1.98 215.278C2.028 215.256 2.077 215.245 2.127 215.245L2.61 215.245C2.682 215.245 2.748 215.263 2.808 215.299C2.866 215.333 2.913 215.38 2.949 215.44C2.983 215.5 3 215.566 3 215.638L3 217.405ZM2.676 217.006L2.676 215.644C2.676 215.624 2.669 215.607 2.655 215.593C2.639 215.579 2.621 215.572 2.601 215.572L2.136 215.572C2.116 215.572 2.099 215.579 2.085 215.593C2.069 215.607 2.061 215.624 2.061 215.644L2.061 217.006C2.061 217.026 2.069 217.044 2.085 217.06C2.099 217.074 2.116 217.081 2.136 217.081L2.601 217.081C2.621 217.081 2.639 217.074 2.655 217.06C2.669 217.044 2.676 217.026 2.676 217.006ZM1.737 217.006L1.737 215.734C1.737 215.714 1.73 215.697 1.716 215.683C1.7 215.669 1.682 215.662 1.662 215.662L1.239 215.662C1.219 215.662 1.202 215.669 1.188 215.683C1.172 215.697 1.164 215.714 1.164 215.734L1.164 217.006C1.164 217.026 1.172 217.044 1.188 217.06C1.202 217.074 1.219 217.081 1.239 217.081L1.662 217.081C1.682 217.081 1.7 217.074 1.716 217.06C1.73 217.044 1.737 217.026 1.737 217.006ZM3 214.54C3 214.61 2.983 214.675 2.949 214.735C2.913 214.795 2.866 214.843 2.808 214.879C2.748 214.913 2.682 214.93 2.61 214.93L2.484 214.93L2.484 214.606L2.601 214.606C2.621 214.606 2.639 214.599 2.655 214.585C2.669 214.569 2.676 214.551 2.676 214.531L2.676 213.169C2.676 213.149 2.669 213.132 2.655 213.118C2.639 213.104 2.621 213.097 2.601 213.097L2.157 213.097C2.135 213.097 2.117 213.104 2.103 213.118C2.089 213.132 2.082 213.149 2.082 213.169L2.082 214.54C2.082 214.61 2.065 214.675 2.031 214.735C1.995 214.795 1.948 214.843 1.89 214.879C1.83 214.913 1.764 214.93 1.692 214.93L1.23 214.93C1.158 214.93 1.093 214.913 1.035 214.879C0.974997 214.843 0.927997 214.795 0.893997 214.735C0.857997 214.675 0.839997 214.61 0.839997 214.54L0.839997 213.16C0.839997 213.09 0.857997 213.025 0.893997 212.965C0.927997 212.905 0.974997 212.858 1.035 212.824C1.093 212.788 1.158 212.77 1.23 212.77L1.356 212.77L1.356 213.097L1.239 213.097C1.219 213.097 1.202 213.104 1.188 213.118C1.172 213.132 1.164 213.149 1.164 213.169L1.164 214.531C1.164 214.551 1.172 214.569 1.188 214.585C1.202 214.599 1.219 214.606 1.239 214.606L1.683 214.606C1.705 214.606 1.723 214.599 1.737 214.585C1.751 214.569 1.758 214.551 1.758 214.531L1.758 213.16C1.758 213.09 1.776 213.025 1.812 212.965C1.846 212.905 1.893 212.858 1.953 212.824C2.011 212.788 2.076 212.77 2.148 212.77L2.61 212.77C2.682 212.77 2.748 212.788 2.808 212.824C2.866 212.858 2.913 212.905 2.949 212.965C2.983 213.025 3 213.09 3 213.16L3 214.54ZM3 212.439L1.23 212.439C1.158 212.439 1.093 212.422 1.035 212.388C0.974997 212.352 0.927997 212.305 0.893997 212.247C0.857997 212.187 0.839997 212.121 0.839997 212.049L0.839997 210.672C0.839997 210.6 0.857997 210.534 0.893997 210.474C0.927997 210.414 0.974997 210.367 1.035 210.333C1.093 210.297 1.158 210.279 1.23 210.279L3 210.279L3 210.606L2.244 210.606L2.244 212.115L3 212.115L3 212.439ZM1.92 212.115L1.92 210.606L1.239 210.606C1.219 210.606 1.202 210.613 1.188 210.627C1.172 210.641 1.164 210.658 1.164 210.678L1.164 212.04C1.164 212.06 1.172 212.078 1.188 212.094C1.202 212.108 1.219 212.115 1.239 212.115L1.92 212.115ZM3 208.689C3 208.759 2.983 208.824 2.949 208.884C2.913 208.944 2.866 208.992 2.808 209.028C2.748 209.062 2.682 209.079 2.61 209.079L2.484 209.079L2.484 208.755L2.601 208.755C2.621 208.755 2.639 208.748 2.655 208.734C2.669 208.718 2.676 208.7 2.676 208.68L2.676 207.318C2.676 207.298 2.669 207.281 2.655 207.267C2.639 207.253 2.621 207.246 2.601 207.246L2.157 207.246C2.135 207.246 2.117 207.253 2.103 207.267C2.089 207.281 2.082 207.298 2.082 207.318L2.082 208.689C2.082 208.759 2.065 208.824 2.031 208.884C1.995 208.944 1.948 208.992 1.89 209.028C1.83 209.062 1.764 209.079 1.692 209.079L1.23 209.079C1.158 209.079 1.093 209.062 1.035 209.028C0.974997 208.992 0.927997 208.944 0.893997 208.884C0.857997 208.824 0.839997 208.759 0.839997 208.689L0.839997 207.309C0.839997 207.239 0.857997 207.174 0.893997 207.114C0.927996 207.054 0.974996 207.007 1.035 206.973C1.093 206.937 1.158 206.919 1.23 206.919L1.356 206.919L1.356 207.246L1.239 207.246C1.219 207.246 1.202 207.253 1.188 207.267C1.172 207.281 1.164 207.298 1.164 207.318L1.164 208.68C1.164 208.7 1.172 208.718 1.188 208.734C1.202 208.748 1.219 208.755 1.239 208.755L1.683 208.755C1.705 208.755 1.723 208.748 1.737 208.734C1.751 208.718 1.758 208.7 1.758 208.68L1.758 207.309C1.758 207.239 1.776 207.174 1.812 207.114C1.846 207.054 1.893 207.007 1.953 206.973C2.011 206.937 2.076 206.919 2.148 206.919L2.61 206.919C2.682 206.919 2.748 206.937 2.808 206.973C2.866 207.007 2.913 207.054 2.949 207.114C2.983 207.174 3 207.239 3 207.309L3 208.689ZM3 206.217C3 206.287 2.983 206.352 2.949 206.412C2.913 206.472 2.866 206.52 2.808 206.556C2.748 206.59 2.682 206.607 2.61 206.607L2.484 206.607L2.484 206.283L2.601 206.283C2.621 206.283 2.639 206.276 2.655 206.262C2.669 206.246 2.676 206.228 2.676 206.208L2.676 204.846C2.676 204.826 2.669 204.809 2.655 204.795C2.639 204.781 2.621 204.774 2.601 204.774L2.157 204.774C2.135 204.774 2.117 204.781 2.103 204.795C2.089 204.809 2.082 204.826 2.082 204.846L2.082 206.217C2.082 206.287 2.065 206.352 2.031 206.412C1.995 206.472 1.948 206.52 1.89 206.556C1.83 206.59 1.764 206.607 1.692 206.607L1.23 206.607C1.158 206.607 1.093 206.59 1.035 206.556C0.974996 206.52 0.927996 206.472 0.893996 206.412C0.857996 206.352 0.839996 206.287 0.839996 206.217L0.839996 204.837C0.839996 204.767 0.857996 204.702 0.893996 204.642C0.927996 204.582 0.974996 204.535 1.035 204.501C1.093 204.465 1.158 204.447 1.23 204.447L1.356 204.447L1.356 204.774L1.239 204.774C1.219 204.774 1.202 204.781 1.188 204.795C1.172 204.809 1.164 204.826 1.164 204.846L1.164 206.208C1.164 206.228 1.172 206.246 1.188 206.262C1.202 206.276 1.219 206.283 1.239 206.283L1.683 206.283C1.705 206.283 1.723 206.276 1.737 206.262C1.751 206.246 1.758 206.228 1.758 206.208L1.758 204.837C1.758 204.767 1.776 204.702 1.812 204.642C1.846 204.582 1.893 204.535 1.953 204.501C2.011 204.465 2.076 204.447 2.148 204.447L2.61 204.447C2.682 204.447 2.748 204.465 2.808 204.501C2.866 204.535 2.913 204.582 2.949 204.642C2.983 204.702 3 204.767 3 204.837L3 206.217ZM3 202.352L2.193 203.027L2.193 202.604L2.94 201.974L3 201.974L3 202.352ZM3 204.122L0.842996 204.122L0.842996 202.355C0.842996 202.283 0.860996 202.217 0.896996 202.157C0.932996 202.097 0.980996 202.05 1.041 202.016C1.099 201.98 1.163 201.962 1.233 201.962L1.839 201.962C1.911 201.962 1.977 201.98 2.037 202.016C2.095 202.05 2.142 202.097 2.178 202.157C2.212 202.217 2.229 202.283 2.229 202.355L2.232 203.798L3 203.798L3 204.122ZM1.902 203.723L1.902 202.361C1.902 202.341 1.895 202.324 1.881 202.31C1.867 202.296 1.85 202.289 1.83 202.289L1.242 202.289C1.222 202.289 1.205 202.296 1.191 202.31C1.175 202.324 1.167 202.341 1.167 202.361L1.167 203.723C1.167 203.743 1.175 203.761 1.191 203.777C1.205 203.791 1.222 203.798 1.242 203.798L1.83 203.798C1.85 203.798 1.867 203.791 1.881 203.777C1.895 203.761 1.902 203.743 1.902 203.723ZM2.274 200.767L1.95 200.767L1.95 199.567L2.274 199.567L2.274 200.767ZM3 198.35L0.839996 198.35L0.839996 196.37L1.164 196.37L1.164 198.023L1.758 198.023L1.758 196.694L2.082 196.694L2.082 198.023L2.676 198.023L2.676 196.37L3 196.37L3 198.35ZM3 196.06L0.839996 196.06L0.839996 195.673L2.562 194.227L0.839996 194.227L0.839996 193.9L3 193.9L3 194.287L1.275 195.736L3 195.736L3 196.06ZM3 193.557L1.23 193.557C1.158 193.557 1.093 193.54 1.035 193.506C0.974996 193.47 0.927996 193.423 0.893996 193.365C0.857996 193.305 0.839996 193.239 0.839996 193.167L0.839996 191.79C0.839996 191.718 0.857996 191.652 0.893996 191.592C0.927996 191.532 0.974996 191.485 1.035 191.451C1.093 191.415 1.158 191.397 1.23 191.397L3 191.397L3 191.724L2.244 191.724L2.244 193.233L3 193.233L3 193.557ZM1.92 193.233L1.92 191.724L1.239 191.724C1.219 191.724 1.202 191.731 1.188 191.745C1.172 191.759 1.164 191.776 1.164 191.796L1.164 193.158C1.164 193.178 1.172 193.196 1.188 193.212C1.202 193.226 1.219 193.233 1.239 193.233L1.92 193.233ZM3 191.047L0.839996 191.047L0.839996 189.367C0.839996 189.297 0.857996 189.232 0.893996 189.172C0.927996 189.112 0.974996 189.065 1.035 189.031C1.093 188.995 1.158 188.977 1.23 188.977L1.671 188.977C1.697 188.977 1.723 188.98 1.749 188.986C1.775 188.99 1.799 188.998 1.821 189.01C1.877 188.97 1.93 188.94 1.98 188.92C2.028 188.898 2.077 188.887 2.127 188.887L2.61 188.887C2.682 188.887 2.748 188.905 2.808 188.941C2.866 188.975 2.913 189.022 2.949 189.082C2.983 189.142 3 189.208 3 189.28L3 191.047ZM2.676 190.648L2.676 189.286C2.676 189.266 2.669 189.249 2.655 189.235C2.639 189.221 2.621 189.214 2.601 189.214L2.136 189.214C2.116 189.214 2.099 189.221 2.085 189.235C2.069 189.249 2.061 189.266 2.061 189.286L2.061 190.648C2.061 190.668 2.069 190.686 2.085 190.702C2.099 190.716 2.116 190.723 2.136 190.723L2.601 190.723C2.621 190.723 2.639 190.716 2.655 190.702C2.669 190.686 2.676 190.668 2.676 190.648ZM1.737 190.648L1.737 189.376C1.737 189.356 1.73 189.339 1.716 189.325C1.7 189.311 1.682 189.304 1.662 189.304L1.239 189.304C1.219 189.304 1.202 189.311 1.188 189.325C1.172 189.339 1.164 189.356 1.164 189.376L1.164 190.648C1.164 190.668 1.172 190.686 1.188 190.702C1.202 190.716 1.219 190.723 1.239 190.723L1.662 190.723C1.682 190.723 1.7 190.716 1.716 190.702C1.73 190.686 1.737 190.668 1.737 190.648ZM3 188.557L0.836996 188.557L0.836996 188.233L2.676 188.233L2.676 186.397L3 186.397L3 188.557ZM3 186.216L0.839996 186.216L0.839996 184.236L1.164 184.236L1.164 185.889L1.758 185.889L1.758 184.56L2.082 184.56L2.082 185.889L2.676 185.889L2.676 184.236L3 184.236L3 186.216ZM3 183.919L0.839995 183.919L0.839995 182.152C0.839995 182.08 0.857995 182.014 0.893995 181.954C0.927995 181.894 0.974995 181.847 1.035 181.813C1.093 181.777 1.158 181.759 1.23 181.759L2.61 181.759C2.682 181.759 2.748 181.777 2.808 181.813C2.866 181.847 2.913 181.894 2.949 181.954C2.983 182.014 3 182.08 3 182.152L3 183.919ZM2.676 183.523L2.676 182.158C2.676 182.138 2.669 182.121 2.655 182.107C2.639 182.093 2.621 182.086 2.601 182.086L1.239 182.086C1.219 182.086 1.202 182.093 1.188 182.107C1.172 182.121 1.164 182.138 1.164 182.158L1.164 183.523C1.164 183.543 1.172 183.56 1.188 183.574C1.202 183.588 1.219 183.595 1.239 183.595L2.601 183.595C2.621 183.595 2.639 183.588 2.655 183.574C2.669 183.56 2.676 183.543 2.676 183.523ZM3 180.703L2.628 180.703L0.854995 179.248L0.839995 179.173L1.206 179.173L2.982 180.628L3 180.703ZM3 179.138L2.628 179.138L0.854995 177.683L0.839995 177.608L1.206 177.608L2.982 179.063L3 179.138ZM3 176.176C3 176.246 2.983 176.311 2.949 176.371C2.913 176.431 2.866 176.479 2.808 176.515C2.748 176.549 2.682 176.566 2.61 176.566L2.484 176.566L2.484 176.242L2.601 176.242C2.621 176.242 2.639 176.235 2.655 176.221C2.669 176.205 2.676 176.187 2.676 176.167L2.676 174.805C2.676 174.785 2.669 174.768 2.655 174.754C2.639 174.74 2.621 174.733 2.601 174.733L2.157 174.733C2.135 174.733 2.117 174.74 2.103 174.754C2.089 174.768 2.082 174.785 2.082 174.805L2.082 176.176C2.082 176.246 2.065 176.311 2.031 176.371C1.995 176.431 1.948 176.479 1.89 176.515C1.83 176.549 1.764 176.566 1.692 176.566L1.23 176.566C1.158 176.566 1.093 176.549 1.035 176.515C0.974995 176.479 0.927995 176.431 0.893995 176.371C0.857995 176.311 0.839995 176.246 0.839995 176.176L0.839995 174.796C0.839995 174.726 0.857995 174.661 0.893995 174.601C0.927995 174.541 0.974995 174.494 1.035 174.46C1.093 174.424 1.158 174.406 1.23 174.406L1.356 174.406L1.356 174.733L1.239 174.733C1.219 174.733 1.202 174.74 1.188 174.754C1.172 174.768 1.164 174.785 1.164 174.805L1.164 176.167C1.164 176.187 1.172 176.205 1.188 176.221C1.202 176.235 1.219 176.242 1.239 176.242L1.683 176.242C1.705 176.242 1.723 176.235 1.737 176.221C1.751 176.205 1.758 176.187 1.758 176.167L1.758 174.796C1.758 174.726 1.776 174.661 1.812 174.601C1.846 174.541 1.893 174.494 1.953 174.46C2.011 174.424 2.076 174.406 2.148 174.406L2.61 174.406C2.682 174.406 2.748 174.424 2.808 174.46C2.866 174.494 2.913 174.541 2.949 174.601C2.983 174.661 3 174.726 3 174.796L3 176.176ZM3 173.271L1.16399 173.271L1.164 174.189L0.839995 174.189L0.839995 172.029L1.16399 172.029L1.16399 172.947L3 172.947L3 173.271ZM3 171.799L1.22999 171.799C1.15799 171.799 1.09299 171.782 1.03499 171.748C0.974995 171.712 0.927995 171.665 0.893995 171.607C0.857995 171.547 0.839995 171.481 0.839995 171.409L0.839995 170.032C0.839995 169.96 0.857995 169.894 0.893995 169.834C0.927995 169.774 0.974995 169.727 1.03499 169.693C1.09299 169.657 1.15799 169.639 1.22999 169.639L2.99999 169.639L2.99999 169.966L2.24399 169.966L2.244 171.475L3 171.475L3 171.799ZM1.91999 171.475L1.91999 169.966L1.23899 169.966C1.21899 169.966 1.20199 169.973 1.18799 169.987C1.17199 170.001 1.16399 170.018 1.16399 170.038L1.16399 171.4C1.16399 171.42 1.17199 171.438 1.18799 171.454C1.20199 171.468 1.219 171.475 1.239 171.475L1.91999 171.475ZM2.99999 168.487L1.16399 168.487L1.16399 169.405L0.839995 169.405L0.839995 167.245L1.16399 167.245L1.16399 168.163L2.99999 168.163L2.99999 168.487ZM2.99999 166.636C2.99999 166.708 2.98299 166.774 2.94899 166.834C2.91299 166.892 2.86599 166.939 2.80799 166.975C2.74799 167.009 2.68199 167.026 2.60999 167.026L0.839995 167.026L0.839995 166.702L2.60099 166.702C2.62099 166.702 2.63899 166.695 2.65499 166.681C2.66899 166.665 2.67599 166.647 2.67599 166.627L2.67599 165.265C2.67599 165.245 2.66899 165.228 2.65499 165.214C2.63899 165.2 2.62099 165.193 2.60099 165.193L0.839995 165.193L0.839995 164.866L2.60999 164.866C2.68199 164.866 2.74799 164.884 2.80799 164.92C2.86599 164.954 2.91299 165.001 2.94899 165.061C2.98299 165.121 2.99999 165.186 2.99999 165.256L2.99999 166.636ZM2.99999 164.158C2.99999 164.228 2.98299 164.293 2.94899 164.353C2.91299 164.413 2.86599 164.461 2.80799 164.497C2.74799 164.531 2.68199 164.548 2.60999 164.548L2.48399 164.548L2.48399 164.224L2.60099 164.224C2.62099 164.224 2.63899 164.217 2.65499 164.203C2.66899 164.187 2.67599 164.169 2.67599 164.149L2.67599 162.787C2.67599 162.767 2.66899 162.75 2.65499 162.736C2.63899 162.722 2.62099 162.715 2.60099 162.715L2.15699 162.715C2.13499 162.715 2.11699 162.722 2.10299 162.736C2.08899 162.75 2.08199 162.767 2.08199 162.787L2.08199 164.158C2.08199 164.228 2.06499 164.293 2.03099 164.353C1.99499 164.413 1.94799 164.461 1.88999 164.497C1.82999 164.531 1.76399 164.548 1.69199 164.548L1.22999 164.548C1.15799 164.548 1.09299 164.531 1.03499 164.497C0.974995 164.461 0.927995 164.413 0.893995 164.353C0.857995 164.293 0.839995 164.228 0.839995 164.158L0.839995 162.778C0.839995 162.708 0.857995 162.643 0.893995 162.583C0.927995 162.523 0.974994 162.476 1.03499 162.442C1.09299 162.406 1.15799 162.388 1.22999 162.388L1.35599 162.388L1.35599 162.715L1.23899 162.715C1.21899 162.715 1.20199 162.722 1.18799 162.736C1.17199 162.75 1.16399 162.767 1.16399 162.787L1.16399 164.149C1.16399 164.169 1.17199 164.187 1.18799 164.203C1.20199 164.217 1.21899 164.224 1.23899 164.224L1.68299 164.224C1.70499 164.224 1.72299 164.217 1.73699 164.203C1.75099 164.187 1.75799 164.169 1.75799 164.149L1.75799 162.778C1.75799 162.708 1.77599 162.643 1.81199 162.583C1.84599 162.523 1.89299 162.476 1.95299 162.442C2.01099 162.406 2.07599 162.388 2.14799 162.388L2.60999 162.388C2.68199 162.388 2.74799 162.406 2.80799 162.442C2.86599 162.476 2.91299 162.523 2.94899 162.583C2.98299 162.643 2.99999 162.708 2.99999 162.778L2.99999 164.158ZM2.27399 161.184L1.94999 161.184L1.94999 159.984L2.27399 159.984L2.27399 161.184ZM2.99999 158.389C2.99999 158.461 2.98299 158.527 2.94899 158.587C2.91299 158.645 2.86599 158.692 2.80799 158.728C2.74799 158.762 2.68199 158.779 2.60999 158.779L1.22999 158.779C1.15799 158.779 1.09299 158.762 1.03499 158.728C0.974994 158.692 0.927994 158.645 0.893994 158.587C0.857994 158.527 0.839994 158.461 0.839994 158.389L0.839994 157.009C0.839994 156.939 0.857994 156.874 0.893994 156.814C0.927994 156.754 0.974994 156.707 1.03499 156.673C1.09299 156.637 1.15799 156.619 1.22999 156.619L2.60999 156.619C2.68199 156.619 2.74799 156.637 2.80799 156.673C2.86599 156.707 2.91299 156.754 2.94899 156.814C2.98299 156.874 2.99999 156.939 2.99999 157.009L2.99999 158.389ZM2.67599 158.38L2.67599 157.018C2.67599 156.998 2.66899 156.981 2.65499 156.967C2.63899 156.953 2.62099 156.946 2.60099 156.946L1.23899 156.946C1.21899 156.946 1.20199 156.953 1.18799 156.967C1.17199 156.981 1.16399 156.998 1.16399 157.018L1.16399 158.38C1.16399 158.4 1.17199 158.418 1.18799 158.434C1.20199 158.448 1.21899 158.455 1.23899 158.455L2.60099 158.455C2.62099 158.455 2.63899 158.448 2.65499 158.434C2.66899 158.418 2.67599 158.4 2.67599 158.38ZM2.99999 156.286L0.839994 156.286L0.839994 155.959L1.75799 155.959L1.75799 155.362L0.839994 154.594L0.839994 154.219L0.899994 154.219L1.91999 155.074L2.93999 154.216L2.99999 154.216L2.99999 154.594L2.08199 155.362L2.08199 155.959L2.99999 155.959L2.99999 156.286Z" fill="#EF4444"/>
</svg>
