<svg width="284" height="271" viewBox="0 0 284 271" fill="none" xmlns="http://www.w3.org/2000/svg">
<path d="M283.136 84.8532L176.009 191.98H72.7714L68.8823 195.869L45.5478 219.203" stroke="#852F2E"/>
<path d="M259.801 62.9328L152.674 170.059H49.4369L45.5478 173.949L22.2133 197.283" stroke="#852F2E"/>
<path d="M271.822 73.5392L164.695 180.666H61.4577L57.5686 184.555L34.234 207.889" stroke="#852F2E"/>
<path d="M248.487 51.6188L141.361 158.745H38.1232L34.2341 162.635L10.8996 185.969" stroke="#852F2E"/>
<path d="M277.479 79.1959L170.352 186.323H67.1145L63.2254 190.212L39.8909 213.546" stroke="#852F2E"/>
<path d="M254.144 57.276L147.018 164.403H43.78L39.891 168.292L16.5564 191.626" stroke="#852F2E"/>
<path d="M266.165 67.8825L159.038 175.009H55.8008L51.9117 178.898L28.5772 202.233" stroke="#852F2E"/>
<path d="M235 53.7926L135.704 153.089H32.4663L28.5773 156.978L5.24276 180.312" stroke="#852F2E"/>
<path d="M280.307 82.0246L173.181 189.151H69.943L66.0539 193.04L42.7194 216.375" stroke="#852F2E"/>
<path d="M256.973 60.1041L149.846 167.231H46.6084L42.7193 171.12L19.3848 194.454" stroke="#852F2E"/>
<path d="M268.994 70.7111L161.867 177.838H58.6293L54.7402 181.727L31.4057 205.061" stroke="#852F2E"/>
<path d="M241.5 52.9497L138.532 155.918H35.2948L31.4057 159.807L8.07117 183.141" stroke="#852F2E"/>
<path d="M274.65 76.3678L167.524 183.494H64.2861L60.3971 187.384L37.0625 210.718" stroke="#852F2E"/>
<path d="M251.316 54.4474L144.189 161.574H40.9516L37.0625 165.463L13.7279 188.798" stroke="#852F2E"/>
<path d="M263.337 65.0539L156.21 172.181H52.9724L49.0833 176.07L25.7488 199.404" stroke="#852F2E"/>
<path d="M230.5 52.6361L132.876 150.26H29.638L25.7489 154.149L2.41435 177.484" stroke="#852F2E"/>
<path d="M281.721 83.4386L174.595 190.565H71.3572L67.4681 194.454L44.1336 217.789" stroke="#852F2E"/>
<path d="M258.387 61.5187L151.26 168.645H48.0227L44.1336 172.534L20.7991 195.869" stroke="#852F2E"/>
<path d="M270.408 72.1251L163.281 179.252H60.0435L56.1544 183.141L32.8199 206.475" stroke="#852F2E"/>
<path d="M243.677 53.6006L139.947 157.331H36.7089L32.8198 161.221L9.48533 184.555" stroke="#852F2E"/>
<path d="M276.065 77.7819L168.938 184.909H65.7003L61.8112 188.798L38.4767 212.132" stroke="#852F2E"/>
<path d="M252.73 55.8615L145.603 162.988H42.3659L38.4768 166.877L15.1422 190.212" stroke="#852F2E"/>
<path d="M264.751 66.4684L157.624 173.595H54.3866L50.4975 177.484L27.163 200.819" stroke="#852F2E"/>
<path d="M231.864 54.1006L134.29 151.675H31.0522L27.1631 155.564L3.82856 178.898" stroke="#852F2E"/>
<path d="M278.893 80.6105L171.766 187.737H68.5288L64.6397 191.626L41.3052 214.961" stroke="#852F2E"/>
<path d="M255.558 58.6901L148.432 165.817H45.1942L41.3051 169.706L17.9706 193.04" stroke="#852F2E"/>
<path d="M267.579 69.2965L160.453 176.423H57.2151L53.326 180.312L29.9915 203.647" stroke="#852F2E"/>
<path d="M238.021 53.6006L137.118 154.503H33.8805L29.9914 158.393L6.65687 181.727" stroke="#852F2E"/>
<path d="M273.236 74.9538L166.11 182.08H62.872L58.9829 185.97L35.6484 209.304" stroke="#852F2E"/>
<path d="M249.902 53.0333L142.775 160.16H39.5374L35.6483 164.049L12.3138 187.384" stroke="#852F2E"/>
<path d="M261.923 63.6398L154.796 170.766H51.5582L47.6692 174.656L24.3346 197.99" stroke="#852F2E"/>
<path d="M227 53.3073L131.461 148.846H28.2237L24.3346 152.735L1.00005 176.07" stroke="#852F2E"/>
</svg>
