<svg width="284" height="271" viewBox="0 0 284 271" fill="none" xmlns="http://www.w3.org/2000/svg">
<path d="M283.136 84.8532L176.009 191.98H72.7714L68.8823 195.869L45.5478 219.203" stroke="url(#paint0_linear_129_5)"/>
<path d="M259.801 62.9328L152.674 170.059H49.4369L45.5478 173.949L22.2133 197.283" stroke="url(#paint1_linear_129_5)"/>
<path d="M271.822 73.5392L164.695 180.666H61.4577L57.5686 184.555L34.234 207.889" stroke="url(#paint2_linear_129_5)"/>
<path d="M248.487 51.6188L141.361 158.745H38.1232L34.2341 162.635L10.8996 185.969" stroke="url(#paint3_linear_129_5)"/>
<path d="M277.479 79.1959L170.352 186.323H67.1144L63.2253 190.212L39.8908 213.546" stroke="url(#paint4_linear_129_5)"/>
<path d="M254.144 57.276L147.018 164.403H43.7799L39.8908 168.292L16.5563 191.626" stroke="url(#paint5_linear_129_5)"/>
<path d="M266.165 67.8825L159.038 175.009H55.8007L51.9116 178.898L28.5771 202.233" stroke="url(#paint6_linear_129_5)"/>
<path d="M235 53.7926L135.704 153.089H32.4663L28.5773 156.978L5.24276 180.312" stroke="url(#paint7_linear_129_5)"/>
<path d="M280.307 82.0246L173.181 189.151H69.943L66.0539 193.04L42.7194 216.375" stroke="url(#paint8_linear_129_5)"/>
<path d="M256.973 60.1041L149.846 167.231H46.6083L42.7192 171.12L19.3847 194.454" stroke="url(#paint9_linear_129_5)"/>
<path d="M268.994 70.7111L161.867 177.838H58.6293L54.7402 181.727L31.4057 205.061" stroke="url(#paint10_linear_129_5)"/>
<path d="M241.5 52.9497L138.532 155.918H35.2949L31.4058 159.807L8.07129 183.141" stroke="url(#paint11_linear_129_5)"/>
<path d="M274.65 76.3678L167.524 183.494H64.286L60.3969 187.384L37.0624 210.718" stroke="url(#paint12_linear_129_5)"/>
<path d="M251.316 54.4474L144.189 161.574H40.9516L37.0625 165.463L13.7279 188.798" stroke="url(#paint13_linear_129_5)"/>
<path d="M263.337 65.0539L156.21 172.181H52.9723L49.0832 176.07L25.7487 199.404" stroke="url(#paint14_linear_129_5)"/>
<path d="M230.5 52.6361L132.876 150.26H29.6381L25.749 154.149L2.41447 177.484" stroke="url(#paint15_linear_129_5)"/>
<path d="M281.721 83.4386L174.595 190.565H71.3571L67.468 194.454L44.1335 217.789" stroke="url(#paint16_linear_129_5)"/>
<path d="M258.387 61.5187L151.26 168.645H48.0226L44.1335 172.534L20.799 195.869" stroke="url(#paint17_linear_129_5)"/>
<path d="M270.408 72.1251L163.281 179.252H60.0433L56.1543 183.141L32.8197 206.475" stroke="url(#paint18_linear_129_5)"/>
<path d="M243.678 53.6006L139.947 157.331H36.7091L32.82 161.221L9.48545 184.555" stroke="url(#paint19_linear_129_5)"/>
<path d="M276.065 77.7819L168.938 184.909H65.7003L61.8112 188.798L38.4767 212.132" stroke="url(#paint20_linear_129_5)"/>
<path d="M252.73 55.8615L145.603 162.988H42.3659L38.4768 166.877L15.1422 190.212" stroke="url(#paint21_linear_129_5)"/>
<path d="M264.751 66.4684L157.624 173.595H54.3866L50.4975 177.484L27.163 200.819" stroke="url(#paint22_linear_129_5)"/>
<path d="M231.864 54.1006L134.29 151.675H31.0522L27.1631 155.564L3.82856 178.898" stroke="url(#paint23_linear_129_5)"/>
<path d="M278.893 80.6105L171.766 187.737H68.5287L64.6396 191.626L41.3051 214.961" stroke="url(#paint24_linear_129_5)"/>
<path d="M255.558 58.6901L148.432 165.817H45.1942L41.3051 169.706L17.9706 193.04" stroke="url(#paint25_linear_129_5)"/>
<path d="M267.579 69.2965L160.453 176.423H57.215L53.3259 180.312L29.9914 203.647" stroke="url(#paint26_linear_129_5)"/>
<path d="M238.021 53.6006L137.118 154.503H33.8806L29.9915 158.393L6.657 181.727" stroke="url(#paint27_linear_129_5)"/>
<path d="M273.236 74.9538L166.11 182.08H62.872L58.9829 185.97L35.6484 209.304" stroke="url(#paint28_linear_129_5)"/>
<path d="M249.902 53.0333L142.775 160.16H39.5372L35.6482 164.049L12.3136 187.384" stroke="url(#paint29_linear_129_5)"/>
<path d="M261.923 63.6398L154.796 170.766H51.5582L47.6692 174.656L24.3346 197.99" stroke="url(#paint30_linear_129_5)"/>
<path d="M227 53.3073L131.461 148.846H28.2237L24.3346 152.735L1.00005 176.07" stroke="url(#paint31_linear_129_5)"/>
<defs>
<linearGradient id="paint0_linear_129_5" x1="257.326" y1="59.0438" x2="71.3572" y2="245.013" gradientUnits="userSpaceOnUse">
<stop stop-color="#55EAD4"/>
<stop offset="1" stop-color="#EB2941"/>
</linearGradient>
<linearGradient id="paint1_linear_129_5" x1="233.992" y1="37.1234" x2="48.0227" y2="223.092" gradientUnits="userSpaceOnUse">
<stop stop-color="#55EAD4"/>
<stop offset="1" stop-color="#EB2941"/>
</linearGradient>
<linearGradient id="paint2_linear_129_5" x1="246.013" y1="47.7298" x2="60.0434" y2="233.699" gradientUnits="userSpaceOnUse">
<stop stop-color="#55EAD4"/>
<stop offset="1" stop-color="#EB2941"/>
</linearGradient>
<linearGradient id="paint3_linear_129_5" x1="222.678" y1="25.8094" x2="36.709" y2="211.778" gradientUnits="userSpaceOnUse">
<stop stop-color="#55EAD4"/>
<stop offset="1" stop-color="#EB2941"/>
</linearGradient>
<linearGradient id="paint4_linear_129_5" x1="251.669" y1="53.3865" x2="65.7002" y2="239.356" gradientUnits="userSpaceOnUse">
<stop stop-color="#55EAD4"/>
<stop offset="1" stop-color="#EB2941"/>
</linearGradient>
<linearGradient id="paint5_linear_129_5" x1="228.335" y1="31.4666" x2="42.3657" y2="217.436" gradientUnits="userSpaceOnUse">
<stop stop-color="#55EAD4"/>
<stop offset="1" stop-color="#EB2941"/>
</linearGradient>
<linearGradient id="paint6_linear_129_5" x1="240.356" y1="42.0731" x2="54.3865" y2="228.042" gradientUnits="userSpaceOnUse">
<stop stop-color="#55EAD4"/>
<stop offset="1" stop-color="#EB2941"/>
</linearGradient>
<linearGradient id="paint7_linear_129_5" x1="209.191" y1="27.9832" x2="31.0522" y2="206.122" gradientUnits="userSpaceOnUse">
<stop stop-color="#55EAD4"/>
<stop offset="1" stop-color="#EB2941"/>
</linearGradient>
<linearGradient id="paint8_linear_129_5" x1="254.498" y1="56.2152" x2="68.5288" y2="242.184" gradientUnits="userSpaceOnUse">
<stop stop-color="#55EAD4"/>
<stop offset="1" stop-color="#EB2941"/>
</linearGradient>
<linearGradient id="paint9_linear_129_5" x1="231.163" y1="34.2947" x2="45.1941" y2="220.264" gradientUnits="userSpaceOnUse">
<stop stop-color="#55EAD4"/>
<stop offset="1" stop-color="#EB2941"/>
</linearGradient>
<linearGradient id="paint10_linear_129_5" x1="243.184" y1="44.9017" x2="57.2151" y2="230.871" gradientUnits="userSpaceOnUse">
<stop stop-color="#55EAD4"/>
<stop offset="1" stop-color="#EB2941"/>
</linearGradient>
<linearGradient id="paint11_linear_129_5" x1="215.691" y1="27.1405" x2="33.8807" y2="208.951" gradientUnits="userSpaceOnUse">
<stop stop-color="#55EAD4"/>
<stop offset="1" stop-color="#EB2941"/>
</linearGradient>
<linearGradient id="paint12_linear_129_5" x1="248.841" y1="50.5584" x2="62.8718" y2="236.528" gradientUnits="userSpaceOnUse">
<stop stop-color="#55EAD4"/>
<stop offset="1" stop-color="#EB2941"/>
</linearGradient>
<linearGradient id="paint13_linear_129_5" x1="225.506" y1="28.638" x2="39.5373" y2="214.607" gradientUnits="userSpaceOnUse">
<stop stop-color="#55EAD4"/>
<stop offset="1" stop-color="#EB2941"/>
</linearGradient>
<linearGradient id="paint14_linear_129_5" x1="237.527" y1="39.2445" x2="51.5581" y2="225.214" gradientUnits="userSpaceOnUse">
<stop stop-color="#55EAD4"/>
<stop offset="1" stop-color="#EB2941"/>
</linearGradient>
<linearGradient id="paint15_linear_129_5" x1="204.691" y1="26.8265" x2="28.2239" y2="203.293" gradientUnits="userSpaceOnUse">
<stop stop-color="#55EAD4"/>
<stop offset="1" stop-color="#EB2941"/>
</linearGradient>
<linearGradient id="paint16_linear_129_5" x1="255.912" y1="57.6292" x2="69.9429" y2="243.598" gradientUnits="userSpaceOnUse">
<stop stop-color="#55EAD4"/>
<stop offset="1" stop-color="#EB2941"/>
</linearGradient>
<linearGradient id="paint17_linear_129_5" x1="232.577" y1="35.7093" x2="46.6084" y2="221.678" gradientUnits="userSpaceOnUse">
<stop stop-color="#55EAD4"/>
<stop offset="1" stop-color="#EB2941"/>
</linearGradient>
<linearGradient id="paint18_linear_129_5" x1="244.598" y1="46.3157" x2="58.6291" y2="232.285" gradientUnits="userSpaceOnUse">
<stop stop-color="#55EAD4"/>
<stop offset="1" stop-color="#EB2941"/>
</linearGradient>
<linearGradient id="paint19_linear_129_5" x1="217.868" y1="27.7914" x2="35.2949" y2="210.365" gradientUnits="userSpaceOnUse">
<stop stop-color="#55EAD4"/>
<stop offset="1" stop-color="#EB2941"/>
</linearGradient>
<linearGradient id="paint20_linear_129_5" x1="250.255" y1="51.9725" x2="64.2861" y2="237.942" gradientUnits="userSpaceOnUse">
<stop stop-color="#55EAD4"/>
<stop offset="1" stop-color="#EB2941"/>
</linearGradient>
<linearGradient id="paint21_linear_129_5" x1="226.921" y1="30.0521" x2="40.9516" y2="216.021" gradientUnits="userSpaceOnUse">
<stop stop-color="#55EAD4"/>
<stop offset="1" stop-color="#EB2941"/>
</linearGradient>
<linearGradient id="paint22_linear_129_5" x1="238.941" y1="40.659" x2="52.9724" y2="226.628" gradientUnits="userSpaceOnUse">
<stop stop-color="#55EAD4"/>
<stop offset="1" stop-color="#EB2941"/>
</linearGradient>
<linearGradient id="paint23_linear_129_5" x1="206.055" y1="28.2913" x2="29.638" y2="204.708" gradientUnits="userSpaceOnUse">
<stop stop-color="#55EAD4"/>
<stop offset="1" stop-color="#EB2941"/>
</linearGradient>
<linearGradient id="paint24_linear_129_5" x1="253.084" y1="54.8011" x2="67.1145" y2="240.77" gradientUnits="userSpaceOnUse">
<stop stop-color="#55EAD4"/>
<stop offset="1" stop-color="#EB2941"/>
</linearGradient>
<linearGradient id="paint25_linear_129_5" x1="229.749" y1="32.8807" x2="43.78" y2="218.85" gradientUnits="userSpaceOnUse">
<stop stop-color="#55EAD4"/>
<stop offset="1" stop-color="#EB2941"/>
</linearGradient>
<linearGradient id="paint26_linear_129_5" x1="241.77" y1="43.4871" x2="55.8008" y2="229.456" gradientUnits="userSpaceOnUse">
<stop stop-color="#55EAD4"/>
<stop offset="1" stop-color="#EB2941"/>
</linearGradient>
<linearGradient id="paint27_linear_129_5" x1="212.212" y1="27.7914" x2="32.4664" y2="207.536" gradientUnits="userSpaceOnUse">
<stop stop-color="#55EAD4"/>
<stop offset="1" stop-color="#EB2941"/>
</linearGradient>
<linearGradient id="paint28_linear_129_5" x1="247.427" y1="49.1444" x2="61.4577" y2="235.113" gradientUnits="userSpaceOnUse">
<stop stop-color="#55EAD4"/>
<stop offset="1" stop-color="#EB2941"/>
</linearGradient>
<linearGradient id="paint29_linear_129_5" x1="224.092" y1="27.2239" x2="38.123" y2="213.193" gradientUnits="userSpaceOnUse">
<stop stop-color="#55EAD4"/>
<stop offset="1" stop-color="#EB2941"/>
</linearGradient>
<linearGradient id="paint30_linear_129_5" x1="236.113" y1="37.8304" x2="50.144" y2="223.799" gradientUnits="userSpaceOnUse">
<stop stop-color="#55EAD4"/>
<stop offset="1" stop-color="#EB2941"/>
</linearGradient>
<linearGradient id="paint31_linear_129_5" x1="201.191" y1="27.4979" x2="26.8095" y2="201.879" gradientUnits="userSpaceOnUse">
<stop stop-color="#55EAD4"/>
<stop offset="1" stop-color="#EB2941"/>
</linearGradient>
</defs>
</svg>
