<svg width="790" height="768" viewBox="0 0 790 768" fill="none" xmlns="http://www.w3.org/2000/svg">
<path d="M378 767.5L378 666.5L261 549.5C261 544.667 261 535 261 535L310 486" stroke="#EF4444"/>
<path d="M507.987 384.719L579.391 313.314L579.391 147.882C582.808 144.465 589.642 137.631 589.642 137.631L658.926 137.631" stroke="#EF4444"/>
<path d="M374 767.5L374 666.5L257 549.5C257 544.667 257 535 257 535L306 486" stroke="#EF4444"/>
<path d="M505.159 381.892L576.563 310.487L576.563 145.055C579.98 141.638 586.814 134.804 586.814 134.804L656.098 134.804" stroke="#EF4444"/>
<path d="M370 767.5L370 666.5L253 549.5C253 544.667 253 535 253 535L302 486" stroke="#EF4444"/>
<path d="M502.331 379.063L573.735 307.659L573.735 142.227C577.152 138.81 583.986 131.976 583.986 131.976L653.27 131.976" stroke="#EF4444"/>
<path d="M366 767.5L366 666.5L249 549.5C249 544.667 249 535 249 535L298 486" stroke="#EF4444"/>
<path d="M499.503 376.235L570.907 304.831L570.907 139.399C574.324 135.982 581.158 129.148 581.158 129.148L650.442 129.148" stroke="#EF4444"/>
<path d="M362 767.5L362 666.5L245 549.5C245 544.667 245 535 245 535L294 486" stroke="#EF4444"/>
<path d="M496.675 373.407L568.079 302.003L568.079 136.571C571.496 133.154 578.331 126.32 578.331 126.32L647.614 126.32" stroke="#EF4444"/>
<path d="M358 767.5L358 666.5L241 549.5C241 544.667 241 535 241 535L290 486" stroke="#EF4444"/>
<path d="M493.847 370.58L565.251 299.176L565.252 133.744C568.669 130.327 575.503 123.492 575.503 123.492L644.786 123.492" stroke="#EF4444"/>
<path d="M354 767.5L354 666.5L237 549.5C237 544.667 237 535 237 535L286 486" stroke="#EF4444"/>
<path d="M491.019 367.752L562.423 296.348L562.424 130.915C565.841 127.498 572.675 120.664 572.675 120.664L641.958 120.664" stroke="#EF4444"/>
<path d="M376 767L376 666.179L259 549.387C259 544.562 259 534.913 259 534.913L308 486" stroke="#EF4444"/>
<path d="M506.926 382.951L578.204 311.674L578.057 146.388C581.468 142.977 588.29 136.155 588.29 136.155L657.512 136.217" stroke="#EF4444"/>
<path d="M372 767L372 666.179L255 549.387C255 544.562 255 534.913 255 534.913L304 486" stroke="#EF4444"/>
<path d="M504.098 380.123L575.376 308.845L575.229 143.56C578.64 140.149 585.462 133.327 585.462 133.327L654.684 133.389" stroke="#EF4444"/>
<path d="M368 767L368 666.179L251 549.387C251 544.562 251 534.913 251 534.913L300 486" stroke="#EF4444"/>
<path d="M501.27 377.296L572.548 306.018L572.401 140.733C575.812 137.322 582.634 130.5 582.634 130.5L651.856 130.562" stroke="#EF4444"/>
<path d="M364 767L364 666.179L247 549.387C247 544.562 247 534.913 247 534.913L296 486" stroke="#EF4444"/>
<path d="M498.442 374.468L569.72 303.19L569.573 137.905C572.984 134.494 579.806 127.672 579.806 127.672L649.028 127.734" stroke="#EF4444"/>
<path d="M360 767L360 666.179L243 549.387C243 544.562 243 534.913 243 534.913L292 486" stroke="#EF4444"/>
<path d="M495.614 371.641L566.892 300.363L566.745 135.078C570.156 131.667 576.978 124.845 576.978 124.845L646.2 124.906" stroke="#EF4444"/>
<path d="M356 767L356 666.179L239 549.387C239 544.562 239 534.913 239 534.913L288 486" stroke="#EF4444"/>
<path d="M492.787 368.812L564.064 297.534L563.917 132.249C567.328 128.838 574.15 122.016 574.15 122.016L643.372 122.077" stroke="#EF4444"/>
<path d="M352 767L352 666.179L235 549.387C235 544.562 235 534.913 235 534.913L284 486" stroke="#EF4444"/>
<path d="M489.959 365.984L561.236 294.707L561.089 129.422C564.5 126.011 571.322 119.189 571.322 119.189L640.544 119.25" stroke="#EF4444"/>
<path d="M346 767L346 666.179L229 549.387C229 544.562 229 534.913 229 534.913L283 480.913" stroke="#852F2E" stroke-width="5"/>
<path d="M428 0.755615V104.063L548 223.736V225.271V235.499V278.97L535.179 291.756" stroke="#EF4444"/>
<path d="M426 5V106L543 223V224.5V234.5V277L530.5 289.5" stroke="#EF4444"/>
<path d="M424 5V106L541 223V224.5V234.5V277L528.5 289.5" stroke="#EF4444"/>
<path d="M422 5V106L539 223V224.5V234.5V277L526.5 289.5" stroke="#EF4444"/>
<path d="M420 5V106L537 223V224.5V234.5V277L524.5 289.5" stroke="#EF4444"/>
<path d="M418 5V106L535 223V224.5V234.5V277L522.5 289.5" stroke="#EF4444"/>
<path d="M416 5V106L533 223V224.5V234.5V277L520.5 289.5" stroke="#EF4444"/>
<path d="M414 5V106L531 223V224.5V234.5V277L518.5 289.5" stroke="#EF4444"/>
<path d="M412 5V106L529 223V224.5V234.5V277L516.5 289.5" stroke="#EF4444"/>
<path d="M410 5V106L527 223V224.5V234.5V277L514.5 289.5" stroke="#EF4444"/>
<path d="M399 6V157.5L326 230.5V236V269" stroke="#852F2E"/>
<path d="M300.136 418.753L193.009 525.879H89.7714L85.8823 529.768L62.5478 553.103" stroke="#852F2E"/>
<path d="M367 7V158.5L294 231.5V237V270" stroke="#852F2E"/>
<path d="M276.801 396.832L169.674 503.959H66.4369L62.5478 507.848L39.2133 531.182" stroke="#852F2E"/>
<path d="M383 6V157.5L310 230.5V236V269" stroke="#852F2E"/>
<path d="M288.822 407.439L181.695 514.565H78.4577L74.5686 518.454L51.234 541.789" stroke="#852F2E"/>
<path d="M351 7V158.5L278 231.5V237V270" stroke="#852F2E"/>
<path d="M265.487 385.518L158.361 492.645H55.1232L51.2341 496.534L27.8996 519.868" stroke="#852F2E"/>
<path d="M391 6V157.5L318 230.5V236V269" stroke="#852F2E"/>
<path d="M294.479 413.095L187.352 520.222H84.1145L80.2254 524.111L56.8909 547.446" stroke="#852F2E"/>
<path d="M359 7V158.5L286 231.5V237V270" stroke="#852F2E"/>
<path d="M271.144 391.175L164.018 498.302H60.78L56.891 502.191L33.5564 525.526" stroke="#852F2E"/>
<path d="M375 6V157.5L302 230.5V236V269" stroke="#852F2E"/>
<path d="M283.165 401.782L176.038 508.909H72.8008L68.9117 512.798L45.5772 536.132" stroke="#852F2E"/>
<path d="M343 7V158.5L270 231.5V237V270" stroke="#852F2E"/>
<path d="M259.831 379.861L152.704 486.988H49.4663L45.5772 490.877L22.2427 514.212" stroke="#852F2E"/>
<path d="M395 6V157.5L322 230.5V236V269" stroke="#852F2E"/>
<path d="M297.307 415.924L190.181 523.051H86.943L83.0539 526.94L59.7194 550.274" stroke="#852F2E"/>
<path d="M363 7V158.5L290 231.5V237V270" stroke="#852F2E"/>
<path d="M273.973 394.004L166.846 501.13H63.6084L59.7193 505.019L36.3848 528.354" stroke="#852F2E"/>
<path d="M379 6V157.5L306 230.5V236V269" stroke="#852F2E"/>
<path d="M285.994 404.61L178.867 511.737H75.6293L71.7402 515.626L48.4057 538.961" stroke="#852F2E"/>
<path d="M347 7V158.5L274 231.5V237V270" stroke="#852F2E"/>
<path d="M262.659 382.69L155.532 489.817H52.2948L48.4057 493.706L25.0712 517.04" stroke="#852F2E"/>
<path d="M387 6V157.5L314 230.5V236V269" stroke="#852F2E"/>
<path d="M291.65 410.267L184.524 517.394H81.2861L77.3971 521.283L54.0625 544.618" stroke="#852F2E"/>
<path d="M355 7V158.5L282 231.5V237V270" stroke="#852F2E"/>
<path d="M268.316 388.347L161.189 495.473H57.9516L54.0625 499.363L30.7279 522.697" stroke="#852F2E"/>
<path d="M371 6V157.5L298 230.5V236V269" stroke="#852F2E"/>
<path d="M280.337 398.953L173.21 506.08H69.9724L66.0833 509.969L42.7488 533.304" stroke="#852F2E"/>
<path d="M339 7V158.5L266 231.5V237V270" stroke="#852F2E"/>
<path d="M257.002 377.033L149.876 484.16H46.638L42.7489 488.049L19.4143 511.384" stroke="#852F2E"/>
<path d="M397 6V157.5L324 230.5V236V269" stroke="#852F2E"/>
<path d="M298.721 417.338L191.595 524.465H88.3572L84.4681 528.354L61.1336 551.688" stroke="#852F2E"/>
<path d="M365 7V158.5L292 231.5V237V270" stroke="#852F2E"/>
<path d="M275.387 395.418L168.26 502.545H65.0227L61.1336 506.434L37.7991 529.768" stroke="#852F2E"/>
<path d="M381 6V157.5L308 230.5V236V269" stroke="#852F2E"/>
<path d="M287.408 406.025L180.281 513.151H77.0435L73.1544 517.04L49.8199 540.375" stroke="#852F2E"/>
<path d="M349 7V158.5L276 231.5V237V270" stroke="#852F2E"/>
<path d="M264.073 384.104L156.947 491.231H53.709L49.8199 495.12L26.4854 518.454" stroke="#852F2E"/>
<path d="M389 6V157.5L316 230.5V236V269" stroke="#852F2E"/>
<path d="M293.065 411.681L185.938 518.808H82.7003L78.8112 522.697L55.4767 546.032" stroke="#852F2E"/>
<path d="M357 7V158.5L284 231.5V237V270" stroke="#852F2E"/>
<path d="M269.73 389.761L162.603 496.888H59.3659L55.4768 500.777L32.1422 524.111" stroke="#852F2E"/>
<path d="M373 6V157.5L300 230.5V236V269" stroke="#852F2E"/>
<path d="M281.751 400.368L174.624 507.494H71.3866L67.4975 511.384L44.163 534.718" stroke="#852F2E"/>
<path d="M341 7V158.5L268 231.5V237V270" stroke="#852F2E"/>
<path d="M258.416 378.447L151.29 485.574H48.0521L44.1631 489.463L20.8285 512.798" stroke="#852F2E"/>
<path d="M393 6V157.5L320 230.5V236V269" stroke="#852F2E"/>
<path d="M295.893 414.51L188.766 521.637H85.5288L81.6397 525.526L58.3052 548.86" stroke="#852F2E"/>
<path d="M361 7V158.5L288 231.5V237V270" stroke="#852F2E"/>
<path d="M272.558 392.589L165.432 499.716H62.1942L58.3051 503.605L34.9706 526.94" stroke="#852F2E"/>
<path d="M377 6V157.5L304 230.5V236V269" stroke="#852F2E"/>
<path d="M284.579 403.196L177.453 510.323H74.2151L70.326 514.212L46.9915 537.546" stroke="#852F2E"/>
<path d="M345 7V158.5L272 231.5V237V270" stroke="#852F2E"/>
<path d="M261.245 381.276L154.118 488.403H50.8805L46.9914 492.292L23.6569 515.626" stroke="#852F2E"/>
<path d="M385 6V157.5L312 230.5V236V269" stroke="#852F2E"/>
<path d="M290.236 408.853L183.11 515.98H79.872L75.9829 519.869L52.6484 543.203" stroke="#852F2E"/>
<path d="M353 7V158.5L280 231.5V237V270" stroke="#852F2E"/>
<path d="M266.902 386.933L159.775 494.059H56.5374L52.6483 497.949L29.3138 521.283" stroke="#852F2E"/>
<path d="M369 6V157.5L296 230.5V236V269" stroke="#852F2E"/>
<path d="M278.923 397.539L171.796 504.666H68.5582L64.6692 508.555L41.3346 531.889" stroke="#852F2E"/>
<path d="M337 7V158.5L264 231.5V237V270" stroke="#852F2E"/>
<path d="M255.588 375.619L148.461 482.745H45.2236L41.3346 486.635L18 509.969" stroke="#852F2E"/>
<path d="M383 766.5L383 615L456 542L456 530.5L438 512.5L427.5 502L426.5 503" stroke="#EF4444" stroke-opacity="0.5"/>
<path d="M389 766.5L389 615L462 542L462 530.5L444 512.5L433.5 502L432.5 503" stroke="#EF4444" stroke-opacity="0.5"/>
<path d="M395 766.5L395 615L468 542L468 530.5L450 512.5L439.5 502L438.5 503" stroke="#EF4444" stroke-opacity="0.5"/>
<path d="M401 766.5L401 615L474 542L474 530.5L456 512.5L445.5 502L444.5 503" stroke="#EF4444" stroke-opacity="0.5"/>
<path d="M407 766.5L407 615L480 542L480 530.5L462 512.5L451.5 502L450.5 503" stroke="#EF4444" stroke-opacity="0.5"/>
<path d="M413 766.5L413 615L486 542L486 530.5L468 512.5L457.5 502L456.5 503" stroke="#EF4444" stroke-opacity="0.5"/>
<path d="M419 766.5L419 615L492 542L492 530.5L474 512.5L463.5 502L462.5 503" stroke="#EF4444" stroke-opacity="0.5"/>
<path d="M425 766.5L425 615L498 542L498 530.5L480 512.5L469.5 502L468.5 503" stroke="#EF4444" stroke-opacity="0.5"/>
<path d="M431 766.5L431 615L504 542L504 530.5L486 512.5L475.5 502L474.5 503" stroke="#EF4444" stroke-opacity="0.5"/>
<path d="M437 766.5L437 615L510 542L510 530.5L492 512.5L481.5 502L480.5 503" stroke="#EF4444" stroke-opacity="0.5"/>
<path d="M453 766.5L453 615L526 542L526 530.5L508 512.5L497.5 502L496.5 503" stroke="#EF4444" stroke-opacity="0.5"/>
<path d="M443 766.5L443 615L516 542L516 530.5L498 512.5L487.5 502L486.5 503" stroke="#EF4444" stroke-opacity="0.5"/>
<path d="M459 766.5L459 615L532 542L532 530.5L514 512.5L503.5 502L502.5 503" stroke="#EF4444" stroke-opacity="0.5"/>
<path d="M385 766.5L385 615L458 542L458 530.5L440 512.5L429.5 502L428.5 503" stroke="#EF4444" stroke-opacity="0.5"/>
<path d="M391 766.5L391 615L464 542L464 530.5L446 512.5L435.5 502L434.5 503" stroke="#EF4444" stroke-opacity="0.5"/>
<path d="M397 766.5L397 615L470 542L470 530.5L452 512.5L441.5 502L440.5 503" stroke="#EF4444" stroke-opacity="0.5"/>
<path d="M403 766.5L403 615L476 542L476 530.5L458 512.5L447.5 502L446.5 503" stroke="#EF4444" stroke-opacity="0.5"/>
<path d="M409 766.5L409 615L482 542L482 530.5L464 512.5L453.5 502L452.5 503" stroke="#EF4444" stroke-opacity="0.5"/>
<path d="M415 766.5L415 615L488 542L488 530.5L470 512.5L459.5 502L458.5 503" stroke="#EF4444" stroke-opacity="0.5"/>
<path d="M421 766.5L421 615L494 542L494 530.5L476 512.5L465.5 502L464.5 503" stroke="#EF4444" stroke-opacity="0.5"/>
<path d="M427 766.5L427 615L500 542L500 530.5L482 512.5L471.5 502L470.5 503" stroke="#EF4444" stroke-opacity="0.5"/>
<path d="M433 766.5L433 615L506 542L506 530.5L488 512.5L477.5 502L476.5 503" stroke="#EF4444" stroke-opacity="0.5"/>
<path d="M449 766.5L449 615L522 542L522 530.5L504 512.5L493.5 502L492.5 503" stroke="#EF4444" stroke-opacity="0.5"/>
<path d="M439 766.5L439 615L512 542L512 530.5L494 512.5L483.5 502L482.5 503" stroke="#EF4444" stroke-opacity="0.5"/>
<path d="M455 766.5L455 615L528 542L528 530.5L510 512.5L499.5 502L498.5 503" stroke="#EF4444" stroke-opacity="0.5"/>
<path d="M445 766.5L445 615L518 542L518 530.5L500 512.5L489.5 502L488.5 503" stroke="#EF4444" stroke-opacity="0.5"/>
<path d="M461 766.5L461 615L534 542L534 530.5L516 512.5L505.5 502L504.5 503" stroke="#EF4444" stroke-opacity="0.5"/>
<path d="M387 766.5L387 615L460 542L460 530.5L442 512.5L431.5 502L430.5 503" stroke="#EF4444" stroke-opacity="0.5"/>
<path d="M393 766.5L393 615L466 542L466 530.5L448 512.5L437.5 502L436.5 503" stroke="#EF4444" stroke-opacity="0.5"/>
<path d="M399 766.5L399 615L472 542L472 530.5L454 512.5L443.5 502L442.5 503" stroke="#EF4444" stroke-opacity="0.5"/>
<path d="M405 766.5L405 615L478 542L478 530.5L460 512.5L449.5 502L448.5 503" stroke="#EF4444" stroke-opacity="0.5"/>
<path d="M411 766.5L411 615L484 542L484 530.5L466 512.5L455.5 502L454.5 503" stroke="#EF4444" stroke-opacity="0.5"/>
<path d="M417 766.5L417 615L490 542L490 530.5L472 512.5L461.5 502L460.5 503" stroke="#EF4444" stroke-opacity="0.5"/>
<path d="M423 766.5L423 615L496 542L496 530.5L478 512.5L467.5 502L466.5 503" stroke="#EF4444" stroke-opacity="0.5"/>
<path d="M429 766.5L429 615L502 542L502 530.5L484 512.5L473.5 502L472.5 503" stroke="#EF4444" stroke-opacity="0.5"/>
<path d="M435 766.5L435 615L508 542L508 530.5L490 512.5L479.5 502L478.5 503" stroke="#EF4444" stroke-opacity="0.5"/>
<path d="M451 766.5L451 615L524 542L524 530.5L506 512.5L495.5 502L494.5 503" stroke="#EF4444" stroke-opacity="0.5"/>
<path d="M441 766.5L441 615L514 542L514 530.5L496 512.5L485.5 502L484.5 503" stroke="#EF4444" stroke-opacity="0.5"/>
<path d="M457 766.5L457 615L530 542L530 530.5L512 512.5L501.5 502L500.5 503" stroke="#EF4444" stroke-opacity="0.5"/>
<path d="M447 766.5L447 615L520 542L520 530.5L502 512.5L491.5 502L490.5 503" stroke="#EF4444" stroke-opacity="0.5"/>
<path d="M463 766.5L463 615L536 542L536 530.5L518 512.5L507.5 502L506.5 503" stroke="#EF4444" stroke-opacity="0.5"/>
<path d="M434 2.75562V101.252L552 219.756" stroke="#852F2E" stroke-width="5"/>
<path d="M31.5 259.5L53 238H326.5" stroke="#EB2941" stroke-width="5"/>
<path d="M439 502H509L536.5 529.5V541H573.546L629.046 596.5L696.5 529.045L737.5 529.045L759 507.545" stroke="#EF4444" stroke-width="5"/>
<path d="M1 283.25L44.7074 327.25H199" stroke="#EF4444"/>
<path d="M1 293.25L44.7074 337.25H199" stroke="#EF4444"/>
<path d="M1 302.25L44.7074 345.25H199" stroke="#EF4444"/>
<path d="M1 286.25L44.7074 330.25H199" stroke="#EF4444"/>
<path d="M1 296.25L44.7074 340.25H199" stroke="#EF4444"/>
<path d="M1 304.25L44.7074 348.25H199" stroke="#EF4444"/>
<path d="M1 289.25L44.7074 333.25H199" stroke="#EF4444"/>
<path d="M1 299.25L44.7074 343.25H199" stroke="#EF4444"/>
<path d="M1 308.25L44.7074 351.25H199" stroke="#EF4444"/>
<path d="M789.5 458.796L745.793 415.796L691.5 415.796L659 383.296L524 383.296" stroke="#EF4444"/>
<path d="M779.5 468.5L735.793 425.5L681.5 425.5L649 393L514 393" stroke="#EF4444"/>
<path d="M787.5 460.5L743.793 417.5L689.5 417.5L657 385L522 385" stroke="#EF4444"/>
<path d="M777.5 470.204L733.793 427.204L679.5 427.204L647 394.704L512 394.704" stroke="#EF4444"/>
<path d="M785.5 462.5L741.793 419.5L687.5 419.5L655 387L520 387" stroke="#EF4444"/>
<path d="M775.5 472.204L731.793 429.204L677.5 429.204L645 396.704L510 396.704" stroke="#EF4444"/>
<path d="M783.5 464.5L739.793 421.5L685.5 421.5L653 389L518 389" stroke="#EF4444"/>
<path d="M773.5 474.204L729.793 431.204L675.5 431.204L643 398.704L508 398.704" stroke="#EF4444"/>
<path d="M781.5 466.5L737.793 423.5L683.5 423.5L651 391L516 391" stroke="#EF4444"/>
<path d="M771.5 476.204L727.793 433.204L673.5 433.204L641 400.704L506 400.704" stroke="#EF4444"/>
<path d="M551 217.5L545 223.5H506.5L462.5 267.5" stroke="#852F2E"/>
<path d="M178 339.5L234.379 259H252.5L261.5 268H445.5L449.5 264H486L488.5 268H506L500.621 259H509.621L546.39 311.5L566 339.5L497.715 437H492L427.679 527.5H381.5L372 537H316.321L266.245 465.5L272 445.5L206 353.5H187.805L178 339.5Z" fill="#252323" stroke="#EF4444"/>
<rect x="321" y="342" width="114" height="114" fill="#852F2E"/>
<path d="M326 356V326.5H252V282H282V269.5" stroke="#852F2E"/>
<path d="M328 353.5V324H254V279.5H284V267" stroke="#852F2E"/>
<path d="M330 351.5V322H256V277.5H286V265" stroke="#852F2E"/>
<path d="M332 349.5V320H258V275.5H288V263" stroke="#852F2E"/>
<path d="M334 347.5V318H260V273.5H290V261" stroke="#852F2E"/>
<path d="M336 345.5V316H262V271.5H292V259" stroke="#852F2E"/>
<path d="M338 343.5V314H264V269.5H294V257" stroke="#852F2E"/>
<path d="M525 280.5H477.5L459 307.5V341.5L431.5 369H413" stroke="#852F2E"/>
<path d="M530.5 288.5H482.5L467 311.5V345.5L439.5 373H421" stroke="#852F2E"/>
<path d="M536 296.5H486.5L475 315.5V349.5L447.5 377H429" stroke="#852F2E"/>
<path d="M526.5 282.5H478.5L461 308.5V342.5L433.5 370H415" stroke="#852F2E"/>
<path d="M532 290.5H483.5L469 312.5V346.5L441.5 374H423" stroke="#852F2E"/>
<path d="M537.5 298.5H487.5L477 316.5V350.5L449.5 378H431" stroke="#852F2E"/>
<path d="M528 284.5H480L463 309.5V343.5L435.5 371H417" stroke="#852F2E"/>
<path d="M533 292.5H484.5L471 313.5V347.5L443.5 375H425" stroke="#852F2E"/>
<path d="M538.721 300.5H488.5L479 317.5V351.5L451.5 379H433" stroke="#852F2E"/>
<path d="M529 286.5H481.5L465 310.5V344.5L437.5 372H419" stroke="#852F2E"/>
<path d="M534.676 294.5H485.5L473 314.5V348.5L445.5 376H427" stroke="#852F2E"/>
<path d="M515 272L515.5 267.5L529 286.5L542.5 306L538.5 305L536.72 302.5L515 272Z" fill="#EB2941"/>
<path d="M540 302.5H489.5L481 318.5V352.5L453.5 380H435M515.5 267.5L515 272L538.5 305L542.5 306L529 286.5L515.5 267.5Z" stroke="#EB2941"/>
<rect x="336" y="357" width="84" height="84" fill="#292524"/>
<rect x="352" y="373" width="51" height="51" fill="#EF4444" fill-opacity="0.1"/>
<path d="M425 453V465H471.5" stroke="#852F2E"/>
<path d="M423 455V467H470.5" stroke="#852F2E"/>
<path d="M421 455V469H469" stroke="#852F2E"/>
<path d="M419 455V471H468" stroke="#852F2E"/>
<path d="M417 455V473H466" stroke="#852F2E"/>
<path d="M415 455V475H465" stroke="#852F2E"/>
<path d="M413 455V477H463.5M361.5 455V521.5L346 537" stroke="#852F2E"/>
<path d="M411 455V477H461.5M359.5 455V521.5L344 537" stroke="#852F2E"/>
<path d="M409 455V477H459.5M357.5 455V521.5L342 537" stroke="#852F2E"/>
<path d="M407 455V477H457.5M355.5 455V521.5L340 537" stroke="#852F2E"/>
<path d="M405 455V477H455.5M353.5 455V521.5L338 537" stroke="#852F2E"/>
<path d="M403 455V477H453.5M351.5 455V521.5L336 537" stroke="#852F2E"/>
<path d="M401 455V477H451.5M349.5 455V521.5L334 537" stroke="#852F2E"/>
<path d="M399 455V477H449.5M347.5 455V521.5L332 537" stroke="#852F2E"/>
<path d="M397 455V477H447.5M345.5 455V521.5L330 537" stroke="#852F2E"/>
<path d="M395 455V477H445.5M343.5 455V521.5L328 537" stroke="#852F2E"/>
<path d="M411 455V479H462" stroke="#852F2E"/>
</svg>
