<svg width="351" height="219" viewBox="0 0 351 219" fill="none" xmlns="http://www.w3.org/2000/svg">
<path d="M0 120H70L97.5 147.5V159H134.546L190.046 214.5L257.5 147.045L298.5 147.045L320 125.545" stroke="#EF4444" stroke-width="5"/>
<path d="M350.5 76.7959L306.793 33.7959L252.5 33.7959L220 1.29589L85 1.29589" stroke="#EF4444"/>
<path d="M340.5 86.5L296.793 43.5L242.5 43.5L210 11L75 11" stroke="#EF4444"/>
<path d="M348.5 78.5L304.793 35.5L250.5 35.5L218 2.99999L83 2.99999" stroke="#EF4444"/>
<path d="M338.5 88.2041L294.793 45.2041L240.5 45.2041L208 12.7041L73 12.7041" stroke="#EF4444"/>
<path d="M346.5 80.5L302.793 37.5L248.5 37.5L216 4.99999L81 4.99999" stroke="#EF4444"/>
<path d="M336.5 90.2041L292.793 47.2041L238.5 47.2041L206 14.7041L71 14.7041" stroke="#EF4444"/>
<path d="M344.5 82.5L300.793 39.5L246.5 39.5L214 6.99999L79 6.99999" stroke="#EF4444"/>
<path d="M334.5 92.2041L290.793 49.2041L236.5 49.2041L204 16.7041L69 16.7041" stroke="#EF4444"/>
<path d="M342.5 84.5L298.793 41.5L244.5 41.5L212 8.99999L77 8.99999" stroke="#EF4444"/>
<path d="M332.5 94.2041L288.793 51.2041L234.5 51.2041L202 18.7041L67 18.7041" stroke="#EF4444"/>
<path d="M28.5 34.5V43.5V48H32.5V29.5H37V48H41.5V29.5H45.5V48H50V29.5H55V48" stroke="#EF4444"/>
</svg>
