<svg width="297" height="351" viewBox="0 0 297 351" fill="none" xmlns="http://www.w3.org/2000/svg">
<path d="M148 1V152.5L75 225.5V231V264" stroke="url(#paint0_linear_129_143)"/>
<path d="M116 2V153.5L43 226.5V232V265" stroke="url(#paint1_linear_129_143)"/>
<path d="M132 1V152.5L59 225.5V231V264" stroke="url(#paint2_linear_129_143)"/>
<path d="M100 2V153.5L27 226.5V232V265" stroke="url(#paint3_linear_129_143)"/>
<path d="M140 1V152.5L67 225.5V231V264" stroke="url(#paint4_linear_129_143)"/>
<path d="M108 2V153.5L35 226.5V232V265" stroke="url(#paint5_linear_129_143)"/>
<path d="M124 1V152.5L51 225.5V231V264" stroke="url(#paint6_linear_129_143)"/>
<path d="M92 2V153.5L19 226.5V232V265" stroke="url(#paint7_linear_129_143)"/>
<path d="M144 1V152.5L71 225.5V231V264" stroke="url(#paint8_linear_129_143)"/>
<path d="M112 2V153.5L39 226.5V232V265" stroke="url(#paint9_linear_129_143)"/>
<path d="M128 1V152.5L55 225.5V231V264" stroke="url(#paint10_linear_129_143)"/>
<path d="M96 2V153.5L23 226.5V232V265" stroke="url(#paint11_linear_129_143)"/>
<path d="M136 1V152.5L63 225.5V231V264" stroke="url(#paint12_linear_129_143)"/>
<path d="M104 2V153.5L31 226.5V232V265" stroke="url(#paint13_linear_129_143)"/>
<path d="M120 1V152.5L47 225.5V231V264" stroke="url(#paint14_linear_129_143)"/>
<path d="M88 2V153.5L15 226.5V232V265" stroke="url(#paint15_linear_129_143)"/>
<path d="M146 1V152.5L73 225.5V231V264" stroke="url(#paint16_linear_129_143)"/>
<path d="M114 2V153.5L41 226.5V232V265" stroke="url(#paint17_linear_129_143)"/>
<path d="M130 1V152.5L57 225.5V231V264" stroke="url(#paint18_linear_129_143)"/>
<path d="M98 2V153.5L25 226.5V232V265" stroke="url(#paint19_linear_129_143)"/>
<path d="M138 1V152.5L65 225.5V231V264" stroke="url(#paint20_linear_129_143)"/>
<path d="M106 2V153.5L33 226.5V232V265" stroke="url(#paint21_linear_129_143)"/>
<path d="M122 1V152.5L49 225.5V231V264" stroke="url(#paint22_linear_129_143)"/>
<path d="M90 2V153.5L17 226.5V232V265" stroke="url(#paint23_linear_129_143)"/>
<path d="M142 1V152.5L69 225.5V231V264" stroke="url(#paint24_linear_129_143)"/>
<path d="M110 2V153.5L37 226.5V232V265" stroke="url(#paint25_linear_129_143)"/>
<path d="M126 1V152.5L53 225.5V231V264" stroke="url(#paint26_linear_129_143)"/>
<path d="M94 2V153.5L21 226.5V232V265" stroke="url(#paint27_linear_129_143)"/>
<path d="M134 1V152.5L61 225.5V231V264" stroke="url(#paint28_linear_129_143)"/>
<path d="M102 2V153.5L29 226.5V232V265" stroke="url(#paint29_linear_129_143)"/>
<path d="M118 1V152.5L45 225.5V231V264" stroke="url(#paint30_linear_129_143)"/>
<path d="M86 2V153.5L13 226.5V232V265" stroke="url(#paint31_linear_129_143)"/>
<path d="M172 0V98.4964L290 217" stroke="#55EAD4" stroke-width="5"/>
<path d="M75 351V321.5H1V277H31V264.5" stroke="url(#paint32_linear_129_143)"/>
<path d="M77 348.5V319H3V274.5H33V262" stroke="url(#paint33_linear_129_143)"/>
<path d="M79 346.5V317H5V272.5H35V260" stroke="url(#paint34_linear_129_143)"/>
<path d="M81 344.5V315H7V270.5H37V258" stroke="url(#paint35_linear_129_143)"/>
<path d="M85 340.5V311H11V266.5H41V254" stroke="url(#paint36_linear_129_143)"/>
<path d="M87 338.5V309H13V264.5H43V252" stroke="url(#paint37_linear_129_143)"/>
<path d="M83 342.5V313H9V268.5H39V256" stroke="url(#paint38_linear_129_143)"/>
<path d="M166 7.5V101.5L288 223.5V230.5H244.5V263.5" stroke="#55EAD4" stroke-opacity="0.5"/>
<path d="M183 118.5V199L209.5 225.5V259.5" stroke="url(#paint39_linear_129_143)"/>
<path d="M185 120.5V199L211.5 225.5V259.5" stroke="url(#paint40_linear_129_143)"/>
<path d="M187 122.5V199L213.5 225.5V259.5" stroke="url(#paint41_linear_129_143)"/>
<path d="M189 124.5V199L215.5 225.5V259.5" stroke="url(#paint42_linear_129_143)"/>
<path d="M191 126.5V199L217.5 225.5V259.5" stroke="url(#paint43_linear_129_143)"/>
<path d="M193 128.5V199L219.5 225.5V259.5" stroke="url(#paint44_linear_129_143)"/>
<path d="M195 130.5V199L221.5 225.5V259.5" stroke="url(#paint45_linear_129_143)"/>
<path d="M197 132.5V199L223.5 225.5V259.5" stroke="url(#paint46_linear_129_143)"/>
<path d="M199 134.5V199L225.5 225.5V259.5" stroke="url(#paint47_linear_129_143)"/>
<path d="M201 136.5V199L227.5 225.5V259.5" stroke="url(#paint48_linear_129_143)"/>
<path d="M203 138.5V199L229.5 225.5V259.5" stroke="url(#paint49_linear_129_143)"/>
<path d="M205 140.5V199L231.5 225.5V259.5" stroke="url(#paint50_linear_129_143)"/>
<path d="M288 217L293.5 222.5V231.5L289 236H254V254.5" stroke="url(#paint51_linear_129_143)"/>
<path d="M289.5 216L296 222V232L290 238H256V254.5" stroke="url(#paint52_linear_129_143)"/>
<path d="M254 247V254H262V250L259 247H254Z" fill="#55EAD4" stroke="#55EAD4"/>
<defs>
<linearGradient id="paint0_linear_129_143" x1="111.5" y1="1" x2="111.5" y2="264" gradientUnits="userSpaceOnUse">
<stop stop-color="#55EAD4"/>
<stop offset="1" stop-color="#EB2941"/>
</linearGradient>
<linearGradient id="paint1_linear_129_143" x1="79.5" y1="2" x2="79.5" y2="265" gradientUnits="userSpaceOnUse">
<stop stop-color="#55EAD4"/>
<stop offset="1" stop-color="#EB2941"/>
</linearGradient>
<linearGradient id="paint2_linear_129_143" x1="95.5" y1="1" x2="95.5" y2="264" gradientUnits="userSpaceOnUse">
<stop stop-color="#55EAD4"/>
<stop offset="1" stop-color="#EB2941"/>
</linearGradient>
<linearGradient id="paint3_linear_129_143" x1="63.5" y1="2" x2="63.5" y2="265" gradientUnits="userSpaceOnUse">
<stop stop-color="#55EAD4"/>
<stop offset="1" stop-color="#EB2941"/>
</linearGradient>
<linearGradient id="paint4_linear_129_143" x1="103.5" y1="1" x2="103.5" y2="264" gradientUnits="userSpaceOnUse">
<stop stop-color="#55EAD4"/>
<stop offset="1" stop-color="#EB2941"/>
</linearGradient>
<linearGradient id="paint5_linear_129_143" x1="71.5" y1="2" x2="71.5" y2="265" gradientUnits="userSpaceOnUse">
<stop stop-color="#55EAD4"/>
<stop offset="1" stop-color="#EB2941"/>
</linearGradient>
<linearGradient id="paint6_linear_129_143" x1="87.5" y1="1" x2="87.5" y2="264" gradientUnits="userSpaceOnUse">
<stop stop-color="#55EAD4"/>
<stop offset="1" stop-color="#EB2941"/>
</linearGradient>
<linearGradient id="paint7_linear_129_143" x1="55.5" y1="2" x2="55.5" y2="265" gradientUnits="userSpaceOnUse">
<stop stop-color="#55EAD4"/>
<stop offset="1" stop-color="#EB2941"/>
</linearGradient>
<linearGradient id="paint8_linear_129_143" x1="107.5" y1="1" x2="107.5" y2="264" gradientUnits="userSpaceOnUse">
<stop stop-color="#55EAD4"/>
<stop offset="1" stop-color="#EB2941"/>
</linearGradient>
<linearGradient id="paint9_linear_129_143" x1="75.5" y1="2" x2="75.5" y2="265" gradientUnits="userSpaceOnUse">
<stop stop-color="#55EAD4"/>
<stop offset="1" stop-color="#EB2941"/>
</linearGradient>
<linearGradient id="paint10_linear_129_143" x1="91.5" y1="1" x2="91.5" y2="264" gradientUnits="userSpaceOnUse">
<stop stop-color="#55EAD4"/>
<stop offset="1" stop-color="#EB2941"/>
</linearGradient>
<linearGradient id="paint11_linear_129_143" x1="59.5" y1="2" x2="59.5" y2="265" gradientUnits="userSpaceOnUse">
<stop stop-color="#55EAD4"/>
<stop offset="1" stop-color="#EB2941"/>
</linearGradient>
<linearGradient id="paint12_linear_129_143" x1="99.5" y1="1" x2="99.5" y2="264" gradientUnits="userSpaceOnUse">
<stop stop-color="#55EAD4"/>
<stop offset="1" stop-color="#EB2941"/>
</linearGradient>
<linearGradient id="paint13_linear_129_143" x1="67.5" y1="2" x2="67.5" y2="265" gradientUnits="userSpaceOnUse">
<stop stop-color="#55EAD4"/>
<stop offset="1" stop-color="#EB2941"/>
</linearGradient>
<linearGradient id="paint14_linear_129_143" x1="83.5" y1="1" x2="83.5" y2="264" gradientUnits="userSpaceOnUse">
<stop stop-color="#55EAD4"/>
<stop offset="1" stop-color="#EB2941"/>
</linearGradient>
<linearGradient id="paint15_linear_129_143" x1="51.5" y1="2" x2="51.5" y2="265" gradientUnits="userSpaceOnUse">
<stop stop-color="#55EAD4"/>
<stop offset="1" stop-color="#EB2941"/>
</linearGradient>
<linearGradient id="paint16_linear_129_143" x1="109.5" y1="1" x2="109.5" y2="264" gradientUnits="userSpaceOnUse">
<stop stop-color="#55EAD4"/>
<stop offset="1" stop-color="#EB2941"/>
</linearGradient>
<linearGradient id="paint17_linear_129_143" x1="77.5" y1="2" x2="77.5" y2="265" gradientUnits="userSpaceOnUse">
<stop stop-color="#55EAD4"/>
<stop offset="1" stop-color="#EB2941"/>
</linearGradient>
<linearGradient id="paint18_linear_129_143" x1="93.5" y1="1" x2="93.5" y2="264" gradientUnits="userSpaceOnUse">
<stop stop-color="#55EAD4"/>
<stop offset="1" stop-color="#EB2941"/>
</linearGradient>
<linearGradient id="paint19_linear_129_143" x1="61.5" y1="2" x2="61.5" y2="265" gradientUnits="userSpaceOnUse">
<stop stop-color="#55EAD4"/>
<stop offset="1" stop-color="#EB2941"/>
</linearGradient>
<linearGradient id="paint20_linear_129_143" x1="101.5" y1="1" x2="101.5" y2="264" gradientUnits="userSpaceOnUse">
<stop stop-color="#55EAD4"/>
<stop offset="1" stop-color="#EB2941"/>
</linearGradient>
<linearGradient id="paint21_linear_129_143" x1="69.5" y1="2" x2="69.5" y2="265" gradientUnits="userSpaceOnUse">
<stop stop-color="#55EAD4"/>
<stop offset="1" stop-color="#EB2941"/>
</linearGradient>
<linearGradient id="paint22_linear_129_143" x1="85.5" y1="1" x2="85.5" y2="264" gradientUnits="userSpaceOnUse">
<stop stop-color="#55EAD4"/>
<stop offset="1" stop-color="#EB2941"/>
</linearGradient>
<linearGradient id="paint23_linear_129_143" x1="53.5" y1="2" x2="53.5" y2="265" gradientUnits="userSpaceOnUse">
<stop stop-color="#55EAD4"/>
<stop offset="1" stop-color="#EB2941"/>
</linearGradient>
<linearGradient id="paint24_linear_129_143" x1="105.5" y1="1" x2="105.5" y2="264" gradientUnits="userSpaceOnUse">
<stop stop-color="#55EAD4"/>
<stop offset="1" stop-color="#EB2941"/>
</linearGradient>
<linearGradient id="paint25_linear_129_143" x1="73.5" y1="2" x2="73.5" y2="265" gradientUnits="userSpaceOnUse">
<stop stop-color="#55EAD4"/>
<stop offset="1" stop-color="#EB2941"/>
</linearGradient>
<linearGradient id="paint26_linear_129_143" x1="89.5" y1="1" x2="89.5" y2="264" gradientUnits="userSpaceOnUse">
<stop stop-color="#55EAD4"/>
<stop offset="1" stop-color="#EB2941"/>
</linearGradient>
<linearGradient id="paint27_linear_129_143" x1="57.5" y1="2" x2="57.5" y2="265" gradientUnits="userSpaceOnUse">
<stop stop-color="#55EAD4"/>
<stop offset="1" stop-color="#EB2941"/>
</linearGradient>
<linearGradient id="paint28_linear_129_143" x1="97.5" y1="1" x2="97.5" y2="264" gradientUnits="userSpaceOnUse">
<stop stop-color="#55EAD4"/>
<stop offset="1" stop-color="#EB2941"/>
</linearGradient>
<linearGradient id="paint29_linear_129_143" x1="65.5" y1="2" x2="65.5" y2="265" gradientUnits="userSpaceOnUse">
<stop stop-color="#55EAD4"/>
<stop offset="1" stop-color="#EB2941"/>
</linearGradient>
<linearGradient id="paint30_linear_129_143" x1="81.5" y1="1" x2="81.5" y2="264" gradientUnits="userSpaceOnUse">
<stop stop-color="#55EAD4"/>
<stop offset="1" stop-color="#EB2941"/>
</linearGradient>
<linearGradient id="paint31_linear_129_143" x1="49.5" y1="2" x2="49.5" y2="265" gradientUnits="userSpaceOnUse">
<stop stop-color="#55EAD4"/>
<stop offset="1" stop-color="#EB2941"/>
</linearGradient>
<linearGradient id="paint32_linear_129_143" x1="38" y1="264.5" x2="38" y2="351" gradientUnits="userSpaceOnUse">
<stop stop-color="#55EAD4"/>
<stop offset="1" stop-color="#EB2941"/>
</linearGradient>
<linearGradient id="paint33_linear_129_143" x1="40" y1="262" x2="40" y2="348.5" gradientUnits="userSpaceOnUse">
<stop stop-color="#55EAD4"/>
<stop offset="1" stop-color="#EB2941"/>
</linearGradient>
<linearGradient id="paint34_linear_129_143" x1="42" y1="260" x2="42" y2="346.5" gradientUnits="userSpaceOnUse">
<stop stop-color="#55EAD4"/>
<stop offset="1" stop-color="#EB2941"/>
</linearGradient>
<linearGradient id="paint35_linear_129_143" x1="44" y1="258" x2="44" y2="344.5" gradientUnits="userSpaceOnUse">
<stop stop-color="#55EAD4"/>
<stop offset="1" stop-color="#EB2941"/>
</linearGradient>
<linearGradient id="paint36_linear_129_143" x1="48" y1="254" x2="48" y2="340.5" gradientUnits="userSpaceOnUse">
<stop stop-color="#55EAD4"/>
<stop offset="1" stop-color="#EB2941"/>
</linearGradient>
<linearGradient id="paint37_linear_129_143" x1="50" y1="252" x2="50" y2="338.5" gradientUnits="userSpaceOnUse">
<stop stop-color="#55EAD4"/>
<stop offset="1" stop-color="#EB2941"/>
</linearGradient>
<linearGradient id="paint38_linear_129_143" x1="46" y1="256" x2="46" y2="342.5" gradientUnits="userSpaceOnUse">
<stop stop-color="#55EAD4"/>
<stop offset="1" stop-color="#EB2941"/>
</linearGradient>
<linearGradient id="paint39_linear_129_143" x1="196.25" y1="118.5" x2="196.25" y2="259.5" gradientUnits="userSpaceOnUse">
<stop stop-color="#55EAD4"/>
<stop offset="1" stop-color="#EB2941"/>
</linearGradient>
<linearGradient id="paint40_linear_129_143" x1="198.25" y1="120.5" x2="198.25" y2="259.5" gradientUnits="userSpaceOnUse">
<stop stop-color="#55EAD4"/>
<stop offset="1" stop-color="#EB2941"/>
</linearGradient>
<linearGradient id="paint41_linear_129_143" x1="200.25" y1="122.5" x2="200.25" y2="259.5" gradientUnits="userSpaceOnUse">
<stop stop-color="#55EAD4"/>
<stop offset="1" stop-color="#EB2941"/>
</linearGradient>
<linearGradient id="paint42_linear_129_143" x1="202.25" y1="124.5" x2="202.25" y2="259.5" gradientUnits="userSpaceOnUse">
<stop stop-color="#55EAD4"/>
<stop offset="1" stop-color="#EB2941"/>
</linearGradient>
<linearGradient id="paint43_linear_129_143" x1="204.25" y1="126.5" x2="204.25" y2="259.5" gradientUnits="userSpaceOnUse">
<stop stop-color="#55EAD4"/>
<stop offset="1" stop-color="#EB2941"/>
</linearGradient>
<linearGradient id="paint44_linear_129_143" x1="206.25" y1="128.5" x2="206.25" y2="259.5" gradientUnits="userSpaceOnUse">
<stop stop-color="#55EAD4"/>
<stop offset="1" stop-color="#EB2941"/>
</linearGradient>
<linearGradient id="paint45_linear_129_143" x1="208.25" y1="130.5" x2="208.25" y2="259.5" gradientUnits="userSpaceOnUse">
<stop stop-color="#55EAD4"/>
<stop offset="1" stop-color="#EB2941"/>
</linearGradient>
<linearGradient id="paint46_linear_129_143" x1="210.25" y1="132.5" x2="210.25" y2="259.5" gradientUnits="userSpaceOnUse">
<stop stop-color="#55EAD4"/>
<stop offset="1" stop-color="#EB2941"/>
</linearGradient>
<linearGradient id="paint47_linear_129_143" x1="212.25" y1="134.5" x2="212.25" y2="259.5" gradientUnits="userSpaceOnUse">
<stop stop-color="#55EAD4"/>
<stop offset="1" stop-color="#EB2941"/>
</linearGradient>
<linearGradient id="paint48_linear_129_143" x1="214.25" y1="136.5" x2="214.25" y2="259.5" gradientUnits="userSpaceOnUse">
<stop stop-color="#55EAD4"/>
<stop offset="1" stop-color="#EB2941"/>
</linearGradient>
<linearGradient id="paint49_linear_129_143" x1="216.25" y1="138.5" x2="216.25" y2="259.5" gradientUnits="userSpaceOnUse">
<stop stop-color="#55EAD4"/>
<stop offset="1" stop-color="#EB2941"/>
</linearGradient>
<linearGradient id="paint50_linear_129_143" x1="218.25" y1="140.5" x2="218.25" y2="259.5" gradientUnits="userSpaceOnUse">
<stop stop-color="#55EAD4"/>
<stop offset="1" stop-color="#EB2941"/>
</linearGradient>
<linearGradient id="paint51_linear_129_143" x1="273.75" y1="217" x2="273.75" y2="254.5" gradientUnits="userSpaceOnUse">
<stop stop-color="#55EAD4"/>
<stop offset="1" stop-color="#EB2941"/>
</linearGradient>
<linearGradient id="paint52_linear_129_143" x1="276" y1="216" x2="276" y2="254.5" gradientUnits="userSpaceOnUse">
<stop stop-color="#55EAD4"/>
<stop offset="1" stop-color="#EB2941"/>
</linearGradient>
</defs>
</svg>
