<svg width="503" height="503" viewBox="0 0 503 503" fill="none" xmlns="http://www.w3.org/2000/svg">
<path d="M482.247 350.725V311.127L466.337 295.217L424.264 292.742L320 188.5L320 173.5L261 114.478H246L209.304 77.7817L206.829 35.7089L190.919 19.799H151.321L130.108 41.0122L57.9828 229.103L90.8633 261.983H129.047L184.555 317.491L240.063 372.999V411.183L272.943 444.063L461.034 371.938L482.247 350.725Z" fill="url(#paint0_linear_129_329)" fill-opacity="0.58" stroke="#55EAD4"/>
<path d="M95.1059 266.933H127.633L235.467 374.767V407.294L95.1059 266.933Z" fill="#55EAD4"/>
<path d="M262 114H247L320.5 187.5L321 173L262 114Z" fill="#55EAD4"/>
<defs>
<linearGradient id="paint0_linear_129_329" x1="131.785" y1="230.448" x2="464.5" y2="313.046" gradientUnits="userSpaceOnUse">
<stop stop-color="#148591"/>
<stop offset="0.625" stop-color="#0B4650"/>
<stop offset="0.980144" stop-color="#06232B"/>
</linearGradient>
</defs>
</svg>
