<svg width="1281" height="1232" viewBox="0 0 1281 1232" fill="none" xmlns="http://www.w3.org/2000/svg">
<path d="M556.136 654.853L449.009 761.98H345.771L341.882 765.869L318.548 789.203" stroke="#852F2E"/>
<path d="M532.801 632.933L425.674 740.059H322.437L318.548 743.949L295.213 767.283" stroke="#852F2E"/>
<path d="M544.822 643.539L437.695 750.666H334.458L330.569 754.555L307.234 777.889" stroke="#852F2E"/>
<path d="M521.487 621.619L414.361 728.745H311.123L307.234 732.635L283.9 755.969" stroke="#852F2E"/>
<path d="M550.479 649.196L443.352 756.323H340.115L336.225 760.212L312.891 783.546" stroke="#852F2E"/>
<path d="M527.144 627.276L420.018 734.403H316.78L312.891 738.292L289.556 761.626" stroke="#852F2E"/>
<path d="M539.165 637.882L432.038 745.009H328.801L324.912 748.898L301.577 772.233" stroke="#852F2E"/>
<path d="M508 623.793L408.704 723.089H305.466L301.577 726.978L278.243 750.312" stroke="#852F2E"/>
<path d="M553.307 652.025L446.181 759.151H342.943L339.054 763.04L315.719 786.375" stroke="#852F2E"/>
<path d="M529.973 630.104L422.846 737.231H319.608L315.719 741.12L292.385 764.454" stroke="#852F2E"/>
<path d="M541.994 640.711L434.867 747.838H331.629L327.74 751.727L304.406 775.061" stroke="#852F2E"/>
<path d="M514.5 622.95L411.532 725.918H308.295L304.406 729.807L281.071 753.141" stroke="#852F2E"/>
<path d="M547.65 646.368L440.524 753.494H337.286L333.397 757.384L310.063 780.718" stroke="#852F2E"/>
<path d="M524.316 624.447L417.189 731.574H313.952L310.062 735.463L286.728 758.798" stroke="#852F2E"/>
<path d="M536.337 635.054L429.21 742.181H325.972L322.083 746.07L298.749 769.404" stroke="#852F2E"/>
<path d="M503.5 622.636L405.876 720.26H302.638L298.749 724.149L275.414 747.484" stroke="#852F2E"/>
<path d="M554.721 653.439L447.595 760.565H344.357L340.468 764.454L317.134 787.789" stroke="#852F2E"/>
<path d="M531.387 631.519L424.26 738.645H321.023L317.134 742.534L293.799 765.869" stroke="#852F2E"/>
<path d="M543.408 642.125L436.281 749.252H333.043L329.154 753.141L305.82 776.475" stroke="#852F2E"/>
<path d="M516.677 623.601L412.947 727.331H309.709L305.82 731.221L282.485 754.555" stroke="#852F2E"/>
<path d="M549.065 647.782L441.938 754.909H338.7L334.811 758.798L311.477 782.132" stroke="#852F2E"/>
<path d="M525.73 625.861L418.603 732.988H315.366L311.477 736.877L288.142 760.212" stroke="#852F2E"/>
<path d="M537.751 636.468L430.624 743.595H327.387L323.498 747.484L300.163 770.819" stroke="#852F2E"/>
<path d="M504.864 624.101L407.29 721.675H304.052L300.163 725.564L276.829 748.898" stroke="#852F2E"/>
<path d="M551.893 650.61L444.766 757.737H341.529L337.64 761.626L314.305 784.961" stroke="#852F2E"/>
<path d="M528.558 628.69L421.432 735.817H318.194L314.305 739.706L290.971 763.04" stroke="#852F2E"/>
<path d="M540.579 639.297L433.453 746.423H330.215L326.326 750.312L302.991 773.647" stroke="#852F2E"/>
<path d="M511.021 623.601L410.118 724.503H306.88L302.991 728.393L279.657 751.727" stroke="#852F2E"/>
<path d="M546.236 644.954L439.11 752.08H335.872L331.983 755.97L308.648 779.304" stroke="#852F2E"/>
<path d="M522.902 623.033L415.775 730.16H312.537L308.648 734.049L285.314 757.384" stroke="#852F2E"/>
<path d="M534.923 633.64L427.796 740.766H324.558L320.669 744.656L297.335 767.99" stroke="#852F2E"/>
<path d="M500 623.307L404.461 718.846H301.224L297.335 722.735L274 746.07" stroke="#852F2E"/>
<path d="M684 734H754L781.5 761.5V773H818.546L874.046 828.5L941.5 761.045L982.5 761.045L1004 739.545" stroke="#EF4444" stroke-width="5"/>
<path d="M1034.5 690.796L990.793 647.796L936.5 647.796L904 615.296L769 615.296" stroke="#EF4444"/>
<path d="M1024.5 700.5L980.793 657.5L926.5 657.5L894 625L759 625" stroke="#EF4444"/>
<path d="M1032.5 692.5L988.793 649.5L934.5 649.5L902 617L767 617" stroke="#EF4444"/>
<path d="M1022.5 702.204L978.793 659.204L924.5 659.204L892 626.704L757 626.704" stroke="#EF4444"/>
<path d="M1030.5 694.5L986.793 651.5L932.5 651.5L900 619L765 619" stroke="#EF4444"/>
<path d="M1020.5 704.204L976.793 661.204L922.5 661.204L890 628.704L755 628.704" stroke="#EF4444"/>
<path d="M1028.5 696.5L984.793 653.5L930.5 653.5L898 621L763 621" stroke="#EF4444"/>
<path d="M1018.5 706.204L974.793 663.204L920.5 663.204L888 630.704L753 630.704" stroke="#EF4444"/>
<path d="M1026.5 698.5L982.793 655.5L928.5 655.5L896 623L761 623" stroke="#EF4444"/>
<path d="M1016.5 708.204L972.793 665.204L918.5 665.204L886 632.704L751 632.704" stroke="#EF4444"/>
<path d="M712.5 648.5V657.5V662H716.5V643.5H721V662H725.5V643.5H729.5V662H734V643.5H739V662" stroke="#EF4444"/>
<path d="M446 571.5L502.379 491H520.5L529.5 500H713.5L717.5 496H754L756.5 500H774L768.621 491H777.621L814.39 543.5L834 571.5L780.072 648.5H707L711.5 653H729.5L734 657.5H773.769L765.715 669H760L695.679 759.5H649.5L640 769H634L638.5 764.5H592L587.5 769H584.321L571 749.979V737L578 730H582L600.5 711.5H608.5V709H603L609 703V698L581 726H576.771L563.5 739.271L534.245 697.5L540 677.5L497 617.561H536.5L541.061 613H560.5L569 604.5H558L553 609.5H536.5L531.5 614.5H494.5L474 585.5H455.805L446 571.5Z" fill="#252323" stroke="#EF4444"/>
<rect x="589" y="574" width="114" height="114" fill="#852F2E"/>
<rect x="604" y="589" width="84" height="84" fill="#292524"/>
<rect x="620" y="605" width="51" height="51" fill="#EF4444" fill-opacity="0.1"/>
<path d="M646 999.5L646 898.5L529 781.5C529 776.667 529 767 529 767L578 718" stroke="#EF4444"/>
<path d="M642 999.5L642 898.5L525 781.5C525 776.667 525 767 525 767L574 718" stroke="#EF4444"/>
<path d="M638 999.5L638 898.5L521 781.5C521 776.667 521 767 521 767L570 718" stroke="#EF4444"/>
<path d="M644 999L644 898.179L527 781.387C527 776.562 527 766.913 527 766.913L576 718" stroke="#EF4444"/>
<path d="M640 999L640 898.179L523 781.387C523 776.562 523 766.913 523 766.913L572 718" stroke="#EF4444"/>
<path d="M636 999L636 898.179L519 781.387C519 776.562 519 766.913 519 766.913L568 718" stroke="#EF4444"/>
<path d="M614 999L614 898.179L497 781.387C497 776.562 497 766.913 497 766.913L551 712.913" stroke="#852F2E" stroke-width="5"/>
<path d="M634 999.5L634 898.5L517 781.5C517 776.667 517 767 517 767L566 718" stroke="#EF4444"/>
<path d="M630 999.5L630 898.5L513 781.5C513 776.667 513 767 513 767L562 718" stroke="#EF4444"/>
<path d="M626 999.5L626 898.5L509 781.5C509 776.667 509 767 509 767L558 718" stroke="#EF4444"/>
<path d="M622 999.5L622 898.5L505 781.5C505 776.667 505 767 505 767L554 718" stroke="#EF4444"/>
<path d="M632 999L632 898.179L515 781.387C515 776.562 515 766.913 515 766.913L564 718" stroke="#EF4444"/>
<path d="M628 999L628 898.179L511 781.387C511 776.562 511 766.913 511 766.913L560 718" stroke="#EF4444"/>
<path d="M624 999L624 898.179L507 781.387C507 776.562 507 766.913 507 766.913L556 718" stroke="#EF4444"/>
<path d="M620 999L620 898.179L503 781.387C503 776.562 503 766.913 503 766.913L552 718" stroke="#EF4444"/>
<path d="M651 998.5L651 847L724 774L724 762.5L706 744.5" stroke="#EF4444" stroke-opacity="0.5"/>
<path d="M657 998.5L657 847L730 774L730 762.5L712 744.5L708.5 741" stroke="#EF4444" stroke-opacity="0.5"/>
<path d="M663 998.5L663 847L736 774L736 762.5L718 744.5L711 737.5" stroke="#EF4444" stroke-opacity="0.5"/>
<path d="M669 998.5L669 847L742 774L742 762.5L724 744.5L714.5 735" stroke="#EF4444" stroke-opacity="0.5"/>
<path d="M675 998.5L675 847L748 774L748 762.5L730 744.5L719.5 734L718.5 735" stroke="#EF4444" stroke-opacity="0.5"/>
<path d="M681 998.5L681 847L754 774L754 762.5L736 744.5L725.5 734L724.5 735" stroke="#EF4444" stroke-opacity="0.5"/>
<path d="M687 998.5L687 847L760 774L760 762.5L742 744.5L731.5 734L730.5 735" stroke="#EF4444" stroke-opacity="0.5"/>
<path d="M693 998.5L693 847L766 774L766 762.5L748 744.5L737.5 734L736.5 735" stroke="#EF4444" stroke-opacity="0.5"/>
<path d="M699 998.5L699 847L772 774L772 762.5L754 744.5L743.5 734L742.5 735" stroke="#EF4444" stroke-opacity="0.5"/>
<path d="M705 998.5L705 847L778 774L778 762.5L760 744.5L749.5 734L748.5 735" stroke="#EF4444" stroke-opacity="0.5"/>
<path d="M653 998.5L653 847L726 774L726 762.5L708 744.5L707 743.5" stroke="#EF4444" stroke-opacity="0.5"/>
<path d="M659 998.5L659 847L732 774L732 762.5L714 744.5L709.5 740" stroke="#EF4444" stroke-opacity="0.5"/>
<path d="M665 998.5L665 847L738 774L738 762.5L720 744.5L712 736.5" stroke="#EF4444" stroke-opacity="0.5"/>
<path d="M671 998.5L671 847L744 774L744 762.5L726 744.5L715.5 734L714.5 735" stroke="#EF4444" stroke-opacity="0.5"/>
<path d="M677 998.5L677 847L750 774L750 762.5L732 744.5L721.5 734L720.5 735" stroke="#EF4444" stroke-opacity="0.5"/>
<path d="M683 998.5L683 847L756 774L756 762.5L738 744.5L727.5 734L726.5 735" stroke="#EF4444" stroke-opacity="0.5"/>
<path d="M689 998.5L689 847L762 774L762 762.5L744 744.5L733.5 734L732.5 735" stroke="#EF4444" stroke-opacity="0.5"/>
<path d="M695 998.5L695 847L768 774L768 762.5L750 744.5L739.5 734L738.5 735" stroke="#EF4444" stroke-opacity="0.5"/>
<path d="M701 998.5L701 847L774 774L774 762.5L756 744.5L745.5 734L744.5 735" stroke="#EF4444" stroke-opacity="0.5"/>
<path d="M707 998.5L707 847L780 774L780 762.5L762 744.5L751.5 734L750.5 735" stroke="#EF4444" stroke-opacity="0.5"/>
<path d="M655 998.5L655 847L728 774L728 762.5L710 744.5L708 742.5" stroke="#EF4444" stroke-opacity="0.5"/>
<path d="M661 998.5L661 847L734 774L734 762.5L716 744.5L710.5 739" stroke="#EF4444" stroke-opacity="0.5"/>
<path d="M667 998.5L667 847L740 774L740 762.5L722 744.5L713 735.5" stroke="#EF4444" stroke-opacity="0.5"/>
<path d="M673 998.5L673 847L746 774L746 762.5L728 744.5L717.5 734L716.5 735" stroke="#EF4444" stroke-opacity="0.5"/>
<path d="M685 998.5L685 847L758 774L758 762.5L740 744.5L729.5 734L728.5 735" stroke="#EF4444" stroke-opacity="0.5"/>
<path d="M691 998.5L691 847L764 774L764 762.5L746 744.5L735.5 734L734.5 735" stroke="#EF4444" stroke-opacity="0.5"/>
<path d="M697 998.5L697 847L770 774L770 762.5L752 744.5L741.5 734L740.5 735" stroke="#EF4444" stroke-opacity="0.5"/>
<path d="M703 998.5L703 847L776 774L776 762.5L758 744.5L747.5 734L746.5 735" stroke="#EF4444" stroke-opacity="0.5"/>
<path d="M679 998.5L679 847L752 774L752 762.5L734 744.5L723.5 734L722.5 735" stroke="#EF4444" stroke-opacity="0.5"/>
<path d="M693 685V697H739.5" stroke="#852F2E"/>
<path d="M691 687V699H738.5" stroke="#852F2E"/>
<path d="M689 687V701H737" stroke="#852F2E"/>
<path d="M687 687V703H736" stroke="#852F2E"/>
<path d="M685 687V705H734" stroke="#852F2E"/>
<path d="M683 687V707H733" stroke="#852F2E"/>
<path d="M681 687V709H731.5M629.5 687V753.5L614 769" stroke="#852F2E"/>
<path d="M679 687V709H729.5M627.5 687V753.5L612 769" stroke="#852F2E"/>
<path d="M677 687V709H727.5M625.5 687V753.5L610 769" stroke="#852F2E"/>
<path d="M675 687V709H725.5M623.5 687V753.5L608 769" stroke="#852F2E"/>
<path d="M673 687V709H723.5M621.5 687V753.5L606 769" stroke="#852F2E"/>
<path d="M671 687V709H721.5M619.5 687V753.5L604 769" stroke="#852F2E"/>
<path d="M669 687V709H719.5M617.5 687V753.5L602 769" stroke="#852F2E"/>
<path d="M667 687V709H717.5M615.5 687V753.5L600 769" stroke="#852F2E"/>
<path d="M665 687V709H715.5M613.5 687V753.5L598 769" stroke="#852F2E"/>
<path d="M663 687V709H713.5M611.5 687V753.5L596 769" stroke="#852F2E"/>
<path d="M586 771.5L593.5 764.5H636.5L629 771.5H586Z" fill="#EF4444" stroke="#EF4444"/>
<path d="M679 687V711H730" stroke="#852F2E"/>
<path d="M828.705 564L847.391 545.314L847.391 379.882C850.808 376.465 857.642 369.631 857.642 369.631L926.926 369.631" stroke="#EF4444"/>
<path d="M826.5 560.55L844.563 542.487L844.563 377.055C847.98 373.638 854.814 366.804 854.814 366.804L924.098 366.804" stroke="#EF4444"/>
<path d="M824 557.394L841.735 539.659L841.735 374.227C845.152 370.81 851.986 363.976 851.986 363.976L921.27 363.976" stroke="#EF4444"/>
<path d="M821.738 554L838.907 536.831L838.907 371.399C842.324 367.982 849.158 361.148 849.158 361.148L918.442 361.148" stroke="#EF4444"/>
<path d="M819.5 550.583L836.079 534.003L836.079 368.571C839.496 365.154 846.331 358.32 846.331 358.32L915.614 358.32" stroke="#EF4444"/>
<path d="M816.927 547.5L833.251 531.176L833.251 365.744C836.669 362.327 843.503 355.492 843.503 355.492L912.786 355.492" stroke="#EF4444"/>
<path d="M814.771 544L830.423 528.347L830.424 362.915C833.841 359.498 840.675 352.664 840.675 352.664L909.958 352.664" stroke="#EF4444"/>
<path d="M827.5 562.377L846.204 543.673L846.057 378.388C849.468 374.977 856.29 368.155 856.29 368.155L925.512 368.217" stroke="#EF4444"/>
<path d="M825.221 559L843.376 540.845L843.229 375.56C846.64 372.149 853.462 365.327 853.462 365.327L922.684 365.389" stroke="#EF4444"/>
<path d="M823.066 555.5L840.548 538.018L840.401 372.733C843.812 369.322 850.634 362.5 850.634 362.5L919.856 362.561" stroke="#EF4444"/>
<path d="M820.41 552.5L837.72 535.19L837.573 369.905C840.984 366.494 847.806 359.672 847.806 359.672L917.028 359.734" stroke="#EF4444"/>
<path d="M818.255 549L834.892 532.363L834.745 367.078C838.156 363.667 844.978 356.845 844.978 356.845L914.2 356.906" stroke="#EF4444"/>
<path d="M816.098 545.5L832.064 529.534L831.917 364.248C835.328 360.838 842.15 354.016 842.15 354.016L911.372 354.077" stroke="#EF4444"/>
<path d="M813.5 542.443L829.236 526.706L829.089 361.421C832.5 358.01 839.322 351.188 839.322 351.188L908.544 351.25" stroke="#EF4444"/>
<path d="M793 512.5H745.5L727 539.5V573.5L699.5 601H689.5" stroke="#852F2E"/>
<path d="M798.5 520.5H750.5L735 543.5V577.5L707.5 605H689" stroke="#852F2E"/>
<path d="M804 528.5H754.5L743 547.5V581.5L715.5 609H697" stroke="#852F2E"/>
<path d="M794.5 514.5H746.5L729 540.5V574.5L701.5 602H689" stroke="#852F2E"/>
<path d="M800 522.5H751.5L737 544.5V578.5L709.5 606H691" stroke="#852F2E"/>
<path d="M805.5 530.5H755.5L745 548.5V582.5L717.5 610H699" stroke="#852F2E"/>
<path d="M796 516.5H748L731 541.5V575.5L703.5 603H689" stroke="#852F2E"/>
<path d="M801 524.5H752.5L739 545.5V579.5L711.5 607H693" stroke="#852F2E"/>
<path d="M806.721 532.5H756.5L747 549.5V583.5L719.5 611H701" stroke="#852F2E"/>
<path d="M802.676 526.5H753.5L741 546.5V580.5L713.5 608H695" stroke="#852F2E"/>
<path d="M797 518.5H749.5L733 542.5V576.5L705.5 604H689.5" stroke="#852F2E"/>
<path d="M783 504L783.5 499.5L797 518.5L810.5 538L806.5 537L804.72 534.5L783 504Z" fill="#EB2941"/>
<path d="M808 534.5H757.5L749 550.5V584.5L721.5 612H703M783.5 499.5L783 504L806.5 537L810.5 538L797 518.5L783.5 499.5Z" stroke="#EB2941"/>
<path d="M663 237V388.5L590 461.5V467V500" stroke="#852F2E"/>
<path d="M631 238V389.5L558 462.5V468V501" stroke="#852F2E"/>
<path d="M647 237V388.5L574 461.5V467V500" stroke="#852F2E"/>
<path d="M615 238V389.5L542 462.5V468V501" stroke="#852F2E"/>
<path d="M655 237V388.5L582 461.5V467V500" stroke="#852F2E"/>
<path d="M623 238V389.5L550 462.5V468V501" stroke="#852F2E"/>
<path d="M639 237V388.5L566 461.5V467V500" stroke="#852F2E"/>
<path d="M607 238V389.5L534 462.5V468V501" stroke="#852F2E"/>
<path d="M659 237V388.5L586 461.5V467V500" stroke="#852F2E"/>
<path d="M627 238V389.5L554 462.5V468V501" stroke="#852F2E"/>
<path d="M643 237V388.5L570 461.5V467V500" stroke="#852F2E"/>
<path d="M611 238V389.5L538 462.5V468V501" stroke="#852F2E"/>
<path d="M651 237V388.5L578 461.5V467V500" stroke="#852F2E"/>
<path d="M619 238V389.5L546 462.5V468V501" stroke="#852F2E"/>
<path d="M635 237V388.5L562 461.5V467V500" stroke="#852F2E"/>
<path d="M603 238V389.5L530 462.5V468V501" stroke="#852F2E"/>
<path d="M661 237V388.5L588 461.5V467V500" stroke="#852F2E"/>
<path d="M629 238V389.5L556 462.5V468V501" stroke="#852F2E"/>
<path d="M645 237V388.5L572 461.5V467V500" stroke="#852F2E"/>
<path d="M613 238V389.5L540 462.5V468V501" stroke="#852F2E"/>
<path d="M653 237V388.5L580 461.5V467V500" stroke="#852F2E"/>
<path d="M621 238V389.5L548 462.5V468V501" stroke="#852F2E"/>
<path d="M637 237V388.5L564 461.5V467V500" stroke="#852F2E"/>
<path d="M605 238V389.5L532 462.5V468V501" stroke="#852F2E"/>
<path d="M657 237V388.5L584 461.5V467V500" stroke="#852F2E"/>
<path d="M625 238V389.5L552 462.5V468V501" stroke="#852F2E"/>
<path d="M641 237V388.5L568 461.5V467V500" stroke="#852F2E"/>
<path d="M609 238V389.5L536 462.5V468V501" stroke="#852F2E"/>
<path d="M649 237V388.5L576 461.5V467V500" stroke="#852F2E"/>
<path d="M617 238V389.5L544 462.5V468V501" stroke="#852F2E"/>
<path d="M633 237V388.5L560 461.5V467V500" stroke="#852F2E"/>
<path d="M601 238V389.5L528 462.5V468V501" stroke="#852F2E"/>
<path d="M687 236V334.496L805 453" stroke="#852F2E" stroke-width="5"/>
<path d="M590 587V557.5H516V513H546V500.5" stroke="#852F2E"/>
<path d="M592 584.5V555H518V510.5H548V498" stroke="#852F2E"/>
<path d="M594 582.5V553H520V508.5H550V496" stroke="#852F2E"/>
<path d="M596 580.5V551H522V506.5H552V494" stroke="#852F2E"/>
<path d="M600 576.5V547H526V502.5H556V490" stroke="#852F2E"/>
<path d="M602 574.5V545H528V500.5H558V488" stroke="#852F2E"/>
<path d="M598 578.5V549H524V504.5H554V492" stroke="#852F2E"/>
<path d="M681 243.5V337.5L803 459.5V466.5H759.5V499.5" stroke="#EB2941"/>
<path d="M698 354.5V435L724.5 461.5V495.5" stroke="#EB2941"/>
<path d="M700 356.5V435L726.5 461.5V495.5" stroke="#EB2941"/>
<path d="M702 358.5V435L728.5 461.5V495.5" stroke="#EB2941"/>
<path d="M704 360.5V435L730.5 461.5V495.5" stroke="#EB2941"/>
<path d="M706 362.5V435L732.5 461.5V495.5" stroke="#EB2941"/>
<path d="M708 364.5V435L734.5 461.5V495.5" stroke="#EB2941"/>
<path d="M710 366.5V435L736.5 461.5V495.5" stroke="#EB2941"/>
<path d="M712 368.5V435L738.5 461.5V495.5" stroke="#EB2941"/>
<path d="M714 370.5V435L740.5 461.5V495.5" stroke="#EB2941"/>
<path d="M716 372.5V435L742.5 461.5V495.5" stroke="#EB2941"/>
<path d="M718 374.5V435L744.5 461.5V495.5" stroke="#EB2941"/>
<path d="M720 376.5V435L746.5 461.5V495.5" stroke="#EB2941"/>
<path d="M803 453L808.5 458.5V467.5L804 472H769V490.5" stroke="#852F2E"/>
<path d="M804.5 452L811 458V468L805 474H771V490.5" stroke="#852F2E"/>
<path d="M769 483V490H777V486L774 483H769Z" fill="#EF4444" stroke="#EF4444"/>
<path d="M276.5 491.5L298 470H590.5" stroke="#EB2941" stroke-width="5"/>
<path d="M246 515.25L290.5 559.25H454.5" stroke="#EF4444"/>
<path d="M246 534.25L289.707 577.25H450.5" stroke="#EF4444"/>
<path d="M246 518.25L289.707 562.25H452.5" stroke="#EF4444"/>
<path d="M246 528.25L290.207 572.25H446.5" stroke="#EF4444"/>
<path d="M246 536.25L289.707 580.25H452.5" stroke="#EF4444"/>
<path d="M246 521.25L289.707 565.25H450.5" stroke="#EF4444"/>
<path d="M246 524L289.707 568H448.5" stroke="#EF4444"/>
<path d="M246 531.25L289.707 575.25H449" stroke="#EF4444"/>
<path d="M246 540.25L289.707 583.25H454.5" stroke="#EF4444"/>
<path d="M874 1203.05L846 1231.05H823.5L792 1203.05H640H488L456.5 1231.05H434L406 1203.05V1173.05L488 989.046H534.5L561.5 1016.05H640H718.5L745.5 989.046H792L874 1173.05V1203.05Z" fill="#2B060C" stroke="#EF4444"/>
<path d="M541 988.546L564 1011.55H716.5L739.5 988.546H541Z" fill="#EF4444"/>
<path d="M874 29L846 1H823.5L792 29H640H488L456.5 1H434L406 29V59L488 243H534.5L561.5 216H640H718.5L745.5 243H792L874 59V29Z" fill="#2B060C" stroke="#EF4444"/>
<path d="M541 243.5L564 220.5H716.5L739.5 243.5H541Z" fill="#EF4444"/>
<path d="M798.253 965.725L798.253 926.127L814.163 910.217L856.236 907.742L963.716 800.262L1071.2 692.782L1073.67 650.709L1089.58 634.799L1129.18 634.799L1150.39 656.012L1222.52 844.103L1189.64 876.983L1151.45 876.983L1095.95 932.491L1040.44 987.999L1040.44 1026.18L1007.56 1059.06L819.466 986.938L798.253 965.725Z" fill="#2B060C" stroke="#EF4444"/>
<path d="M1045.73 1022.94V990.413L1153.57 882.58H1186.09L1045.73 1022.94Z" fill="#EF4444"/>
<path d="M1070 652.046L1068 691.046L999 759.546L999 723.046L1070 652.046Z" fill="#EB2941"/>
<path d="M482.247 966.725V927.127L466.337 911.217L424.264 908.742L320 804.5L320 789.5L261 730.478H246L209.304 693.782L206.829 651.709L190.919 635.799H151.321L130.108 657.012L57.9828 845.103L90.8633 877.983H129.047L184.555 933.491L240.063 988.999V1027.18L272.943 1060.06L461.034 987.938L482.247 966.725Z" fill="#2B060C" stroke="#EF4444"/>
<path d="M95.1059 882.933H127.633L235.467 990.767V1023.29L95.1059 882.933Z" fill="#EF4444"/>
<path d="M262 730H247L320.5 803.5L321 789L262 730Z" fill="#EB2941"/>
<path d="M482.247 265.321V304.919L466.337 320.829L424.264 323.304L316.784 430.784L209.304 538.264L206.829 580.337L190.919 596.247H151.321L130.108 575.034L57.9828 386.943L90.8633 354.063H129.047L184.555 298.555L240.063 243.047V204.863L272.943 171.983L461.034 244.108L482.247 265.321Z" fill="#2B060C" stroke="#EF4444"/>
<path d="M95.1059 349.113H127.633L235.467 241.279V208.752L95.1059 349.113Z" fill="#EF4444"/>
<path d="M210.5 579L212.5 540L281.5 471.5V508L210.5 579Z" fill="#EB2941"/>
<path d="M1129.53 596.247H1089.93L1074.02 580.337L1071.54 538.264L964.062 430.784L856.582 323.303L814.509 320.829L798.599 304.919V265.321L819.812 244.107L1007.9 171.983L1040.78 204.863V243.047L1096.29 298.555L1151.8 354.063H1189.98L1222.86 386.943L1150.74 575.033L1129.53 596.247Z" fill="#2B060C" stroke="#EF4444"/>
<path d="M1045.73 209.106V241.633L1153.57 349.467H1186.09L1045.73 209.106Z" fill="#EF4444"/>
<path d="M920.5 376.5L869.5 325.5L859 325L910.5 376.5H920.5Z" fill="#852F2E"/>
<path d="M562.5 737L543 709L562.5 698L582 717.5L562.5 737Z" fill="#252323"/>
<path d="M676 754L693 730L676 724.5L661.5 743.5L676 754Z" fill="#252323"/>
</svg>
