<svg width="287" height="315" viewBox="0 0 287 315" fill="none" xmlns="http://www.w3.org/2000/svg">
<path d="M152 314.5L152 213.5L35 96.5C35 91.6667 35 82 35 82L66.5 50.5" stroke="#EF4444"/>
<path d="M148 314.5L148 213.5L31 96.5C31 91.6667 31 82 31 82L65 48" stroke="#EF4444"/>
<path d="M144 314.5L144 213.5L27 96.5C27 91.6667 27 82 27 82L63.5 45.5" stroke="#EF4444"/>
<path d="M150 314L150 213.179L33 96.3872C33 91.5625 33 81.913 33 81.913L65.913 49" stroke="#EF4444"/>
<path d="M146 314L146 213.179L29 96.3872C29 91.5625 29 81.913 29 81.913L63.913 47" stroke="#EF4444"/>
<path d="M142 314L142 213.179L25 96.3872C25 91.5625 25 81.913 25 81.913L62.413 44.5" stroke="#EF4444"/>
<path d="M120 314L120 213.179L3 96.3872C3 91.5625 3 81.913 3 81.913L53.5 31.413" stroke="#852F2E" stroke-width="5"/>
<path d="M140 314.5L140 213.5L23 96.5C23 91.6667 23 82 23 82L61.5 43.5" stroke="#EF4444"/>
<path d="M136 314.5L136 213.5L19 96.5C19 91.6667 19 82 19 82L60 41" stroke="#EF4444"/>
<path d="M132 314.5L132 213.5L15 96.5C15 91.6667 15 82 15 82L58.5 38.5" stroke="#EF4444"/>
<path d="M128 314.5L128 213.5L11 96.5C11 91.6667 11 82 11 82L57 36" stroke="#EF4444"/>
<path d="M138 314L138 213.179L21 96.3872C21 91.5625 21 81.913 21 81.913L61 41.913" stroke="#EF4444"/>
<path d="M134 314L134 213.179L17 96.3872C17 91.5625 17 81.913 17 81.913L59 39.913" stroke="#EF4444"/>
<path d="M130 314L130 213.179L13 96.3872C13 91.5625 13 81.913 13 81.913L57.5 37.413" stroke="#EF4444"/>
<path d="M126 314L126 213.179L9 96.3872C9 91.5625 9 81.913 9 81.913L56 34.913" stroke="#EF4444"/>
<path d="M157 313.5L157 162L230 89L230 77.5L212 59.5" stroke="#EF4444" stroke-opacity="0.5"/>
<path d="M163 313.5L163 162L236 89L236 77.5L218 59.5L214.5 56" stroke="#EF4444" stroke-opacity="0.5"/>
<path d="M169 313.5L169 162L242 89L242 77.5L224 59.5L217 52.5" stroke="#EF4444" stroke-opacity="0.5"/>
<path d="M175 313.5L175 162L248 89L248 77.5L230 59.5L220.5 50" stroke="#EF4444" stroke-opacity="0.5"/>
<path d="M181 313.5L181 162L254 89L254 77.5L236 59.5L225.5 49L224.5 50" stroke="#EF4444" stroke-opacity="0.5"/>
<path d="M187 313.5L187 162L260 89L260 77.5L242 59.5L231.5 49L230.5 50" stroke="#EF4444" stroke-opacity="0.5"/>
<path d="M193 313.5L193 162L266 89L266 77.5L248 59.5L237.5 49L236.5 50" stroke="#EF4444" stroke-opacity="0.5"/>
<path d="M199 313.5L199 162L272 89L272 77.5L254 59.5L243.5 49L242.5 50" stroke="#EF4444" stroke-opacity="0.5"/>
<path d="M205 313.5L205 162L278 89L278 77.5L260 59.5L249.5 49L248.5 50" stroke="#EF4444" stroke-opacity="0.5"/>
<path d="M211 313.5L211 162L284 89L284 77.5L266 59.5L255.5 49L254.5 50" stroke="#EF4444" stroke-opacity="0.5"/>
<path d="M159 313.5L159 162L232 89L232 77.5L214 59.5L213 58.5" stroke="#EF4444" stroke-opacity="0.5"/>
<path d="M165 313.5L165 162L238 89L238 77.5L220 59.5L215.5 55" stroke="#EF4444" stroke-opacity="0.5"/>
<path d="M171 313.5L171 162L244 89L244 77.5L226 59.5L218 51.5" stroke="#EF4444" stroke-opacity="0.5"/>
<path d="M177 313.5L177 162L250 89L250 77.5L232 59.5L221.5 49L220.5 50" stroke="#EF4444" stroke-opacity="0.5"/>
<path d="M183 313.5L183 162L256 89L256 77.5L238 59.5L227.5 49L226.5 50" stroke="#EF4444" stroke-opacity="0.5"/>
<path d="M189 313.5L189 162L262 89L262 77.5L244 59.5L233.5 49L232.5 50" stroke="#EF4444" stroke-opacity="0.5"/>
<path d="M195 313.5L195 162L268 89L268 77.5L250 59.5L239.5 49L238.5 50" stroke="#EF4444" stroke-opacity="0.5"/>
<path d="M201 313.5L201 162L274 89L274 77.5L256 59.5L245.5 49L244.5 50" stroke="#EF4444" stroke-opacity="0.5"/>
<path d="M207 313.5L207 162L280 89L280 77.5L262 59.5L251.5 49L250.5 50" stroke="#EF4444" stroke-opacity="0.5"/>
<path d="M213 313.5L213 162L286 89L286 77.5L268 59.5L257.5 49L256.5 50" stroke="#EF4444" stroke-opacity="0.5"/>
<path d="M161 313.5L161 162L234 89L234 77.5L216 59.5L214 57.5" stroke="#EF4444" stroke-opacity="0.5"/>
<path d="M167 313.5L167 162L240 89L240 77.5L222 59.5L216.5 54" stroke="#EF4444" stroke-opacity="0.5"/>
<path d="M173 313.5L173 162L246 89L246 77.5L228 59.5L219 50.5" stroke="#EF4444" stroke-opacity="0.5"/>
<path d="M179 313.5L179 162L252 89L252 77.5L234 59.5L223.5 49L222.5 50" stroke="#EF4444" stroke-opacity="0.5"/>
<path d="M191 313.5L191 162L264 89L264 77.5L246 59.5L235.5 49L234.5 50" stroke="#EF4444" stroke-opacity="0.5"/>
<path d="M197 313.5L197 162L270 89L270 77.5L252 59.5L241.5 49L240.5 50" stroke="#EF4444" stroke-opacity="0.5"/>
<path d="M203 313.5L203 162L276 89L276 77.5L258 59.5L247.5 49L246.5 50" stroke="#EF4444" stroke-opacity="0.5"/>
<path d="M209 313.5L209 162L282 89L282 77.5L264 59.5L253.5 49L252.5 50" stroke="#EF4444" stroke-opacity="0.5"/>
<path d="M185 313.5L185 162L258 89L258 77.5L240 59.5L229.5 49L228.5 50" stroke="#EF4444" stroke-opacity="0.5"/>
<path d="M199 0V12H245.5" stroke="#852F2E"/>
<path d="M197 2V14H244.5" stroke="#852F2E"/>
<path d="M195 2V16H243" stroke="#852F2E"/>
<path d="M193 2V18H242" stroke="#852F2E"/>
<path d="M191 2V20H240" stroke="#852F2E"/>
<path d="M189 2V22H239" stroke="#852F2E"/>
<path d="M187 2V24H237.5M135.5 2V68.5L120 84" stroke="#852F2E"/>
<path d="M185 2V24H235.5M133.5 2V68.5L118 84" stroke="#852F2E"/>
<path d="M183 2V24H233.5M131.5 2V68.5L116 84" stroke="#852F2E"/>
<path d="M181 2V24H231.5M129.5 2V68.5L114 84" stroke="#852F2E"/>
<path d="M179 2V24H229.5M127.5 2V68.5L112 84" stroke="#852F2E"/>
<path d="M177 2V24H227.5M125.5 2V68.5L110 84" stroke="#852F2E"/>
<path d="M175 2V24H225.5M123.5 2V68.5L108 84" stroke="#852F2E"/>
<path d="M173 2V24H223.5M121.5 2V68.5L106 84" stroke="#852F2E"/>
<path d="M171 2V24H221.5M119.5 2V68.5L104 84" stroke="#852F2E"/>
<path d="M169 2V24H219.5M117.5 2V68.5L102 84" stroke="#852F2E"/>
<path d="M92 86.5L99.5 79.5H142.5L135 86.5H92Z" fill="#EF4444" stroke="#EF4444"/>
<path d="M185 2V26H236" stroke="#852F2E"/>
</svg>
