<svg width="351" height="219" viewBox="0 0 351 219" fill="none" xmlns="http://www.w3.org/2000/svg">
<path d="M0 120H70L97.5 147.5V159H134.546L190.046 214.5L257.5 147.045L298.5 147.045L320 125.545" stroke="#55EAD4" stroke-width="5"/>
<path d="M350.5 76.7959L306.793 33.7959L252.5 33.7959L220 1.29589L85 1.29589" stroke="url(#paint0_linear_129_38)"/>
<path d="M340.5 86.5L296.793 43.5L242.5 43.5L210 11L75 11" stroke="url(#paint1_linear_129_38)"/>
<path d="M348.5 78.5L304.793 35.5L250.5 35.5L218 2.99999L83 2.99999" stroke="url(#paint2_linear_129_38)"/>
<path d="M338.5 88.2041L294.793 45.2041L240.5 45.2041L208 12.7041L73 12.7041" stroke="url(#paint3_linear_129_38)"/>
<path d="M346.5 80.5L302.793 37.5L248.5 37.5L216 4.99999L81 4.99999" stroke="url(#paint4_linear_129_38)"/>
<path d="M336.5 90.2041L292.793 47.2041L238.5 47.2041L206 14.7041L71 14.7041" stroke="url(#paint5_linear_129_38)"/>
<path d="M344.5 82.5L300.793 39.5L246.5 39.5L214 6.99999L79 6.99999" stroke="url(#paint6_linear_129_38)"/>
<path d="M334.5 92.2041L290.793 49.2041L236.5 49.2041L204 16.7041L69 16.7041" stroke="url(#paint7_linear_129_38)"/>
<path d="M342.5 84.5L298.793 41.5L244.5 41.5L212 8.99999L77 8.99999" stroke="url(#paint8_linear_129_38)"/>
<path d="M332.5 94.2041L288.793 51.2041L234.5 51.2041L202 18.7041L67 18.7041" stroke="url(#paint9_linear_129_38)"/>
<path d="M28.5 34.5V43.5V48H32.5V29.5H37V48H41.5V29.5H45.5V48H50V29.5H55V48" stroke="url(#paint10_linear_129_38)"/>
<defs>
<linearGradient id="paint0_linear_129_38" x1="217.75" y1="76.7959" x2="217.75" y2="1.29589" gradientUnits="userSpaceOnUse">
<stop stop-color="#55EAD4"/>
<stop offset="1" stop-color="#EB2941"/>
</linearGradient>
<linearGradient id="paint1_linear_129_38" x1="207.75" y1="86.5" x2="207.75" y2="11" gradientUnits="userSpaceOnUse">
<stop stop-color="#55EAD4"/>
<stop offset="1" stop-color="#EB2941"/>
</linearGradient>
<linearGradient id="paint2_linear_129_38" x1="215.75" y1="78.5" x2="215.75" y2="2.99999" gradientUnits="userSpaceOnUse">
<stop stop-color="#55EAD4"/>
<stop offset="1" stop-color="#EB2941"/>
</linearGradient>
<linearGradient id="paint3_linear_129_38" x1="205.75" y1="88.2041" x2="205.75" y2="12.7041" gradientUnits="userSpaceOnUse">
<stop stop-color="#55EAD4"/>
<stop offset="1" stop-color="#EB2941"/>
</linearGradient>
<linearGradient id="paint4_linear_129_38" x1="213.75" y1="80.5" x2="213.75" y2="4.99999" gradientUnits="userSpaceOnUse">
<stop stop-color="#55EAD4"/>
<stop offset="1" stop-color="#EB2941"/>
</linearGradient>
<linearGradient id="paint5_linear_129_38" x1="203.75" y1="90.2041" x2="203.75" y2="14.7041" gradientUnits="userSpaceOnUse">
<stop stop-color="#55EAD4"/>
<stop offset="1" stop-color="#EB2941"/>
</linearGradient>
<linearGradient id="paint6_linear_129_38" x1="211.75" y1="82.5" x2="211.75" y2="6.99999" gradientUnits="userSpaceOnUse">
<stop stop-color="#55EAD4"/>
<stop offset="1" stop-color="#EB2941"/>
</linearGradient>
<linearGradient id="paint7_linear_129_38" x1="201.75" y1="92.2041" x2="201.75" y2="16.7041" gradientUnits="userSpaceOnUse">
<stop stop-color="#55EAD4"/>
<stop offset="1" stop-color="#EB2941"/>
</linearGradient>
<linearGradient id="paint8_linear_129_38" x1="209.75" y1="84.5" x2="209.75" y2="8.99999" gradientUnits="userSpaceOnUse">
<stop stop-color="#55EAD4"/>
<stop offset="1" stop-color="#EB2941"/>
</linearGradient>
<linearGradient id="paint9_linear_129_38" x1="199.75" y1="94.2041" x2="199.75" y2="18.7041" gradientUnits="userSpaceOnUse">
<stop stop-color="#55EAD4"/>
<stop offset="1" stop-color="#EB2941"/>
</linearGradient>
<linearGradient id="paint10_linear_129_38" x1="41.75" y1="29.5" x2="41.75" y2="48" gradientUnits="userSpaceOnUse">
<stop stop-color="#55EAD4"/>
<stop offset="1" stop-color="#EB2941"/>
</linearGradient>
</defs>
</svg>
