<svg width="286" height="297" viewBox="0 0 286 297" fill="none" xmlns="http://www.w3.org/2000/svg">
<path d="M139.705 248L158.391 229.314L158.391 63.8824C161.808 60.4654 168.642 53.6313 168.642 53.6313L237.926 53.6313" stroke="#EF4444"/>
<path d="M137.5 244.55L155.563 226.487L155.563 61.0548C158.98 57.6378 165.814 50.8037 165.814 50.8037L235.098 50.8037" stroke="#EF4444"/>
<path d="M135 241.394L152.735 223.659L152.735 58.2269C156.152 54.8098 162.986 47.9757 162.986 47.9757L232.27 47.9757" stroke="#EF4444"/>
<path d="M132.738 238L149.907 220.831L149.907 55.3989C153.324 51.9819 160.158 45.1478 160.158 45.1478L229.442 45.1478" stroke="#EF4444"/>
<path d="M130.5 234.583L147.079 218.003L147.079 52.5708C150.496 49.1538 157.331 42.3197 157.331 42.3197L226.614 42.3197" stroke="#EF4444"/>
<path d="M127.927 231.5L144.251 215.176L144.251 49.7436C147.669 46.3265 154.503 39.4924 154.503 39.4924L223.786 39.4925" stroke="#EF4444"/>
<path d="M125.771 228L141.423 212.347L141.424 46.9152C144.841 43.4982 151.675 36.6641 151.675 36.6641L220.958 36.6641" stroke="#EF4444"/>
<path d="M138.5 246.377L157.204 227.673L157.057 62.3883C160.468 58.9773 167.29 52.1554 167.29 52.1554L236.512 52.2169" stroke="#EF4444"/>
<path d="M136.221 243L154.376 224.845L154.229 59.5601C157.64 56.1491 164.462 49.3271 164.462 49.3271L233.684 49.3887" stroke="#EF4444"/>
<path d="M134.066 239.5L151.548 222.018L151.401 56.7328C154.812 53.3218 161.634 46.4999 161.634 46.4999L230.856 46.5614" stroke="#EF4444"/>
<path d="M131.41 236.5L148.72 219.19L148.573 53.905C151.984 50.4941 158.806 43.6721 158.806 43.6721L228.028 43.7336" stroke="#EF4444"/>
<path d="M129.255 233L145.892 216.363L145.745 51.0776C149.156 47.6666 155.978 40.8447 155.978 40.8447L225.2 40.9062" stroke="#EF4444"/>
<path d="M127.098 229.5L143.064 213.534L142.917 48.2485C146.328 44.8375 153.15 38.0156 153.15 38.0156L222.372 38.0771" stroke="#EF4444"/>
<path d="M124.5 226.443L140.236 210.706L140.089 45.4213C143.5 42.0104 150.322 35.1884 150.322 35.1884L219.544 35.25" stroke="#EF4444"/>
<path d="M104 196.5H56.5L38 223.5V257.5L10.5 285H0.5" stroke="#852F2E"/>
<path d="M109.5 204.5H61.5L46 227.5V261.5L18.5 289H0" stroke="#852F2E"/>
<path d="M115 212.5H65.5L54 231.5V265.5L26.5 293H8" stroke="#852F2E"/>
<path d="M105.5 198.5H57.5L40 224.5V258.5L12.5 286H0" stroke="#852F2E"/>
<path d="M111 206.5H62.5L48 228.5V262.5L20.5 290H2" stroke="#852F2E"/>
<path d="M116.5 214.5H66.5L56 232.5V266.5L28.5 294H10" stroke="#852F2E"/>
<path d="M107 200.5H59L42 225.5V259.5L14.5 287H0" stroke="#852F2E"/>
<path d="M112 208.5H63.5L50 229.5V263.5L22.5 291H4" stroke="#852F2E"/>
<path d="M117.721 216.5H67.5L58 233.5V267.5L30.5 295H12" stroke="#852F2E"/>
<path d="M113.676 210.5H64.5L52 230.5V264.5L24.5 292H6" stroke="#852F2E"/>
<path d="M108 202.5H60.5L44 226.5V260.5L16.5 288H0.5" stroke="#852F2E"/>
<path d="M94 188L94.5 183.5L108 202.5L121.5 222L117.5 221L115.72 218.5L94 188Z" fill="#EB2941"/>
<path d="M119 218.5H68.5L60 234.5V268.5L32.5 296H14M94.5 183.5L94 188L117.5 221L121.5 222L108 202.5L94.5 183.5Z" stroke="#EB2941"/>
</svg>
