<svg width="297" height="351" viewBox="0 0 297 351" fill="none" xmlns="http://www.w3.org/2000/svg">
<path d="M148 1V152.5L75 225.5V231V264" stroke="#852F2E"/>
<path d="M116 2V153.5L43 226.5V232V265" stroke="#852F2E"/>
<path d="M132 1V152.5L59 225.5V231V264" stroke="#852F2E"/>
<path d="M100 2V153.5L27 226.5V232V265" stroke="#852F2E"/>
<path d="M140 1V152.5L67 225.5V231V264" stroke="#852F2E"/>
<path d="M108 2V153.5L35 226.5V232V265" stroke="#852F2E"/>
<path d="M124 1V152.5L51 225.5V231V264" stroke="#852F2E"/>
<path d="M92 2V153.5L19 226.5V232V265" stroke="#852F2E"/>
<path d="M144 1V152.5L71 225.5V231V264" stroke="#852F2E"/>
<path d="M112 2V153.5L39 226.5V232V265" stroke="#852F2E"/>
<path d="M128 1V152.5L55 225.5V231V264" stroke="#852F2E"/>
<path d="M96 2V153.5L23 226.5V232V265" stroke="#852F2E"/>
<path d="M136 1V152.5L63 225.5V231V264" stroke="#852F2E"/>
<path d="M104 2V153.5L31 226.5V232V265" stroke="#852F2E"/>
<path d="M120 1V152.5L47 225.5V231V264" stroke="#852F2E"/>
<path d="M88 2V153.5L15 226.5V232V265" stroke="#852F2E"/>
<path d="M146 1V152.5L73 225.5V231V264" stroke="#852F2E"/>
<path d="M114 2V153.5L41 226.5V232V265" stroke="#852F2E"/>
<path d="M130 1V152.5L57 225.5V231V264" stroke="#852F2E"/>
<path d="M98 2V153.5L25 226.5V232V265" stroke="#852F2E"/>
<path d="M138 1V152.5L65 225.5V231V264" stroke="#852F2E"/>
<path d="M106 2V153.5L33 226.5V232V265" stroke="#852F2E"/>
<path d="M122 1V152.5L49 225.5V231V264" stroke="#852F2E"/>
<path d="M90 2V153.5L17 226.5V232V265" stroke="#852F2E"/>
<path d="M142 1V152.5L69 225.5V231V264" stroke="#852F2E"/>
<path d="M110 2V153.5L37 226.5V232V265" stroke="#852F2E"/>
<path d="M126 1V152.5L53 225.5V231V264" stroke="#852F2E"/>
<path d="M94 2V153.5L21 226.5V232V265" stroke="#852F2E"/>
<path d="M134 1V152.5L61 225.5V231V264" stroke="#852F2E"/>
<path d="M102 2V153.5L29 226.5V232V265" stroke="#852F2E"/>
<path d="M118 1V152.5L45 225.5V231V264" stroke="#852F2E"/>
<path d="M86 2V153.5L13 226.5V232V265" stroke="#852F2E"/>
<path d="M172 0V98.4964L290 217" stroke="#852F2E" stroke-width="5"/>
<path d="M75 351V321.5H1V277H31V264.5" stroke="#852F2E"/>
<path d="M77 348.5V319H3V274.5H33V262" stroke="#852F2E"/>
<path d="M79 346.5V317H5V272.5H35V260" stroke="#852F2E"/>
<path d="M81 344.5V315H7V270.5H37V258" stroke="#852F2E"/>
<path d="M85 340.5V311H11V266.5H41V254" stroke="#852F2E"/>
<path d="M87 338.5V309H13V264.5H43V252" stroke="#852F2E"/>
<path d="M83 342.5V313H9V268.5H39V256" stroke="#852F2E"/>
<path d="M166 7.5V101.5L288 223.5V230.5H244.5V263.5" stroke="#EB2941"/>
<path d="M183 118.5V199L209.5 225.5V259.5" stroke="#EB2941"/>
<path d="M185 120.5V199L211.5 225.5V259.5" stroke="#EB2941"/>
<path d="M187 122.5V199L213.5 225.5V259.5" stroke="#EB2941"/>
<path d="M189 124.5V199L215.5 225.5V259.5" stroke="#EB2941"/>
<path d="M191 126.5V199L217.5 225.5V259.5" stroke="#EB2941"/>
<path d="M193 128.5V199L219.5 225.5V259.5" stroke="#EB2941"/>
<path d="M195 130.5V199L221.5 225.5V259.5" stroke="#EB2941"/>
<path d="M197 132.5V199L223.5 225.5V259.5" stroke="#EB2941"/>
<path d="M199 134.5V199L225.5 225.5V259.5" stroke="#EB2941"/>
<path d="M201 136.5V199L227.5 225.5V259.5" stroke="#EB2941"/>
<path d="M203 138.5V199L229.5 225.5V259.5" stroke="#EB2941"/>
<path d="M205 140.5V199L231.5 225.5V259.5" stroke="#EB2941"/>
<path d="M288 217L293.5 222.5V231.5L289 236H254V254.5" stroke="#852F2E"/>
<path d="M289.5 216L296 222V232L290 238H256V254.5" stroke="#852F2E"/>
<path d="M254 247V254H262V250L259 247H254Z" fill="#EF4444" stroke="#EF4444"/>
</svg>
