<svg width="390" height="280" viewBox="0 0 390 280" fill="none" xmlns="http://www.w3.org/2000/svg">
<path d="M1 81.5L57.3791 1H75.5L84.5 10H268.5L272.5 6H309L311.5 10H329L323.621 1H332.621L369.39 53.5L389 81.5L335.072 158.5H262L266.5 163H284.5L289 167.5H328.769L320.715 179H315L250.679 269.5H204.5L195 279H189L193.5 274.5H147L142.5 279H139.321L126 259.979V247L133 240H137L155.5 221.5H163.5V219H158L164 213V208L136 236H131.771L118.5 249.271L89.2455 207.5L95 187.5L52 127.561H91.5L96.0606 123H115.5L124 114.5H113L108 119.5H91.5L86.5 124.5H49.5L29 95.5H10.8051L1 81.5Z" fill="#252323" stroke="#EF4444"/>
</svg>
