<svg width="114" height="114" viewBox="0 0 114 114" fill="none" xmlns="http://www.w3.org/2000/svg">
<rect width="114" height="114" fill="#852F2E"/>
<rect x="15" y="15" width="84" height="84" fill="#292524"/>
<rect x="31" y="31" width="51" height="51" fill="#EF4444" fill-opacity="0.1"/>
<path d="M18 0V15L31.5 28.5V31" stroke="#EB2941"/>
<path d="M18 114V98.5161L32 84.5806V82" stroke="#EB2941"/>
<path d="M0 18L15 18L28.5 32L31 32" stroke="#EB2941"/>
<path d="M114 18L98.5161 18L84.5806 32L82 32" stroke="#EB2941"/>
<path d="M94.5 0V15L81 28.5V31" stroke="#EB2941"/>
<path d="M95 114V98.5161L81 84.5806V82" stroke="#EB2941"/>
<path d="M0 95L15 95L28.5 81L31 81" stroke="#EB2941"/>
<path d="M114 95L98.5161 95L84.5806 81L82 81" stroke="#EB2941"/>
<path d="M78.5 0V15L65 28.5V31" stroke="#EB2941"/>
<path d="M79 114V98.5161L65 84.5806V82" stroke="#EB2941"/>
<path d="M0 79L15 79L28.5 65L31 65" stroke="#EB2941"/>
<path d="M114 79L98.5161 79L84.5806 65L82 65" stroke="#EB2941"/>
<path d="M34 0V15L47.5 28.5V31" stroke="#EB2941"/>
<path d="M34 114V98.5161L48 84.5806V82" stroke="#EB2941"/>
<path d="M0 34L15 34L28.5 48L31 48" stroke="#EB2941"/>
<path d="M114 34L98.5161 34L84.5806 48L82 48" stroke="#EB2941"/>
<path d="M86.5 0V15L73 28.5V31" stroke="#EB2941"/>
<path d="M87 114V98.5161L73 84.5806V82" stroke="#EB2941"/>
<path d="M0 87L15 87L28.5 73L31 73" stroke="#EB2941"/>
<path d="M114 87L98.5161 87L84.5806 73L82 73" stroke="#EB2941"/>
<path d="M70.5 0V15L57 28.5V31" stroke="#EB2941"/>
<path d="M71 114V98.5161L57 84.5806V82" stroke="#EB2941"/>
<path d="M0 71L15 71L28.5 57L31 57" stroke="#EB2941"/>
<path d="M114 71L98.5161 71L84.5806 57L82 57" stroke="#EB2941"/>
<path d="M26 0V15L39.5 28.5V31" stroke="#EB2941"/>
<path d="M26 114V98.5161L40 84.5806V82" stroke="#EB2941"/>
<path d="M0 26L15 26L28.5 40L31 40" stroke="#EB2941"/>
<path d="M114 26L98.5161 26L84.5806 40L82 40" stroke="#EB2941"/>
<path d="M92.5 0V15L79 28.5V31" stroke="#EB2941"/>
<path d="M93 114V98.5161L79 84.5806V82" stroke="#EB2941"/>
<path d="M0 93L15 93L28.5 79L31 79" stroke="#EB2941"/>
<path d="M114 93L98.5161 93L84.5806 79L82 79" stroke="#EB2941"/>
<path d="M76.5 0V15L63 28.5V31" stroke="#EB2941"/>
<path d="M77 114V98.5161L63 84.5806V82" stroke="#EB2941"/>
<path d="M0 77L15 77L28.5 63L31 63" stroke="#EB2941"/>
<path d="M114 77L98.5161 77L84.5806 63L82 63" stroke="#EB2941"/>
<path d="M42 0V15L55.5 28.5V31" stroke="#EB2941"/>
<path d="M42 114V98.5161L56 84.5806V82" stroke="#EB2941"/>
<path d="M0 42L15 42L28.5 56L31 56" stroke="#EB2941"/>
<path d="M114 42L98.5161 42L84.5806 56L82 56" stroke="#EB2941"/>
<path d="M84.5 0V15L71 28.5V31" stroke="#EB2941"/>
<path d="M85 114V98.5161L71 84.5806V82" stroke="#EB2941"/>
<path d="M0 85L15 85L28.5 71L31 71" stroke="#EB2941"/>
<path d="M114 85L98.5161 85L84.5806 71L82 71" stroke="#EB2941"/>
<path d="M90.5 0V15L77 28.5V31" stroke="#EB2941"/>
<path d="M91 114V98.5161L77 84.5806V82" stroke="#EB2941"/>
<path d="M0 91L15 91L28.5 77L31 77" stroke="#EB2941"/>
<path d="M114 91L98.5161 91L84.5806 77L82 77" stroke="#EB2941"/>
<path d="M20 0V15L33.5 28.5V31" stroke="#EB2941"/>
<path d="M20 114V98.5161L34 84.5806V82" stroke="#EB2941"/>
<path d="M0 20L15 20L28.5 34L31 34" stroke="#EB2941"/>
<path d="M114 20L98.5161 20L84.5806 34L82 34" stroke="#EB2941"/>
<path d="M74.5 0V15L61 28.5V31" stroke="#EB2941"/>
<path d="M75 114V98.5161L61 84.5806V82" stroke="#EB2941"/>
<path d="M0 75L15 75L28.5 61L31 61" stroke="#EB2941"/>
<path d="M114 75L98.5161 75L84.5806 61L82 61" stroke="#EB2941"/>
<path d="M82.5 0V15L69 28.5V31" stroke="#EB2941"/>
<path d="M83 114V98.5161L69 84.5806V82" stroke="#EB2941"/>
<path d="M0 83L15 83L28.5 69L31 69" stroke="#EB2941"/>
<path d="M114 83L98.5161 83L84.5806 69L82 69" stroke="#EB2941"/>
<path d="M36 0V15L49.5 28.5V31" stroke="#EB2941"/>
<path d="M36 114V98.5161L50 84.5806V82" stroke="#EB2941"/>
<path d="M0 36L15 36L28.5 50L31 50" stroke="#EB2941"/>
<path d="M114 36L98.5161 36L84.5806 50L82 50" stroke="#EB2941"/>
<path d="M88.5 0V15L75 28.5V31" stroke="#EB2941"/>
<path d="M89 114V98.5161L75 84.5806V82" stroke="#EB2941"/>
<path d="M0 89L15 89L28.5 75L31 75" stroke="#EB2941"/>
<path d="M114 89L98.5161 89L84.5806 75L82 75" stroke="#EB2941"/>
<path d="M72.5 0V15L59 28.5V31" stroke="#EB2941"/>
<path d="M73 114V98.5161L59 84.5806V82" stroke="#EB2941"/>
<path d="M0 73L15 73L28.5 59L31 59" stroke="#EB2941"/>
<path d="M114 73L98.5161 73L84.5806 59L82 59" stroke="#EB2941"/>
<path d="M28 0V15L41.5 28.5V31" stroke="#EB2941"/>
<path d="M28 114V98.5161L42 84.5806V82" stroke="#EB2941"/>
<path d="M0 28L15 28L28.5 42L31 42" stroke="#EB2941"/>
<path d="M114 28L98.5161 28L84.5806 42L82 42" stroke="#EB2941"/>
<path d="M80.5 0V15L67 28.5V31" stroke="#EB2941"/>
<path d="M81 114V98.5161L67 84.5806V82" stroke="#EB2941"/>
<path d="M0 81L15 81L28.5 67L31 67" stroke="#EB2941"/>
<path d="M114 81L98.5161 81L84.5806 67L82 67" stroke="#EB2941"/>
<path d="M22 0V15L35.5 28.5V31" stroke="#EB2941"/>
<path d="M22 114V98.5161L36 84.5806V82" stroke="#EB2941"/>
<path d="M0 22L15 22L28.5 36L31 36" stroke="#EB2941"/>
<path d="M114 22L98.5161 22L84.5806 36L82 36" stroke="#EB2941"/>
<path d="M38 0V15L51.5 28.5V31" stroke="#EB2941"/>
<path d="M38 114V98.5161L52 84.5806V82" stroke="#EB2941"/>
<path d="M0 38L15 38L28.5 52L31 52" stroke="#EB2941"/>
<path d="M114 38L98.5161 38L84.5806 52L82 52" stroke="#EB2941"/>
<path d="M30 0V15L43.5 28.5V31" stroke="#EB2941"/>
<path d="M30 114V98.5161L44 84.5806V82" stroke="#EB2941"/>
<path d="M0 30L15 30L28.5 44L31 44" stroke="#EB2941"/>
<path d="M114 30L98.5161 30L84.5806 44L82 44" stroke="#EB2941"/>
<path d="M24 0V15L37.5 28.5V31" stroke="#EB2941"/>
<path d="M24 114V98.5161L38 84.5806V82" stroke="#EB2941"/>
<path d="M0 24L15 24L28.5 38L31 38" stroke="#EB2941"/>
<path d="M114 24L98.5161 24L84.5806 38L82 38" stroke="#EB2941"/>
<path d="M40 0V15L53.5 28.5V31" stroke="#EB2941"/>
<path d="M40 114V98.5161L54 84.5806V82" stroke="#EB2941"/>
<path d="M0 40L15 40L28.5 54L31 54" stroke="#EB2941"/>
<path d="M114 40L98.5161 40L84.5806 54L82 54" stroke="#EB2941"/>
<path d="M32 0V15L45.5 28.5V31" stroke="#EB2941"/>
<path d="M32 114V98.5161L46 84.5806V82" stroke="#EB2941"/>
<path d="M0 32L15 32L28.5 46L31 46" stroke="#EB2941"/>
<path d="M114 32L98.5161 32L84.5806 46L82 46" stroke="#EB2941"/>
</svg>
